#N canvas 550 22 569 665 10;
#X declare -lib mrpeach;
#X obj 44 345 prepend set;
#X obj 55 392 tabplay~;
#X obj 44 366 t b a;
#X obj 100 434 s next_char;
#X obj 100 414 bng 15 250 50 0 empty empty empty 17 7 0 10 -262144
-1 -1;
#X msg 63 114 rewind;
#X obj -29 69 r next_char;
#X floatatom 15 174 4 0 0 0 - - -;
#X obj 44 321 makefilename char_%d;
#X obj 142 94 r usedChars;
#X obj 229 135 t l;
#X obj 71 238 list-find;
#X obj 44 217 t f f;
#X obj 142 135 list prepend;
#X obj 142 157 prepend set;
#X obj 44 265 spigot;
#X obj 142 180 t b a;
#X obj 122 267 sel 0;
#X msg 122 288 -1;
#X obj 50 195 print DONE;
#X obj 44 152 binfile;
#X msg 142 204 10 32 120 119 113 112 111 110 116 122 121 115 109 103
104 105 106 108 102 101 100 99 98 97 114 118 107 117 97 98 99 100 101
102 103 104 105 106 107 108 109 110 111 112 113 114 115 116 117 118
119 120 121 122 120 119 113 112 111 110 116 122 121 115 109 103 104
105 106 108 102 101 100 99 98 97 114 118 107 117;
#X obj -38 -155 cnv 15 460 130 empty empty empty 20 12 0 14 -204786
-66577 0;
#X obj -34 -83 import mrpeach;
#X obj -33 -144 loadbang;
#X msg -33 -121 \; pd dsp 1;
#X text 37 -134 some additional management: we can communicate with
the pd kernel via messages. This one \, activates pd audio as soon
as we open the patch;
#X text 63 -86 we use the object [import] to load libraries or externals
that are not loaded per default. In this case \, mrpeach gives us the
main ingredient [binfile] which reads binary files and outputs its
content byte by byte;
#X obj 44 42 openpanel;
#X obj 44 21 getdir;
#X obj 44 65 t b b s;
#X msg 83 90 read \$1;
#X obj 33 456 cnv 15 300 30 empty empty empty 20 12 0 14 -162280 -66577
0;
#X obj 45 461 dac~;
#X text 81 462 angelfaraldo@gmail.com - 2010 (rev.2012);
#X obj 37 -15 cnv 15 110 30 empty empty empty 20 12 0 14 -261234 -66577
0;
#X obj 44 -3 bng 15 250 50 0 empty empty empty 17 7 0 10 -262144 -1
-1;
#X text 64 -4 LOAD & START;
#X obj 163 -17 cnv 15 260 25 empty empty empty 20 12 0 14 -261234 -66577
0;
#X obj 164 36 cnv 15 240 25 empty empty empty 20 12 0 14 -261234 -66577
0;
#X obj 168 66 s space_length;
#X floatatom 168 43 5 0 0 0 - - -;
#X floatatom 167 -12 5 0 0 0 - - -;
#X obj 167 12 s row_length;
#X text 202 -12 duration of silence for a line break;
#X text 207 44 duration of silence for spacebar;
#X obj 173 316 cnv 15 240 25 empty empty empty 20 12 0 14 -204786 -66577
0;
#N canvas 196 22 942 245 database 0;
#X obj 454 31 * 44.1;
#X obj 454 8 r space_length;
#X obj 453 91 table char_32 4410;
#X obj 574 31 * 44.1;
#X obj 573 91 table char_10 4410;
#X obj 574 8 r row_length;
#X msg 454 54 \; char_32 resize \$1;
#X msg 574 54 \; char_10 resize \$1;
#X obj 693 25 loadbang;
#X obj 693 68 s usedChars;
#X obj 693 91 table char_-1 20;
#X msg 693 47 10 32;
#X obj 146 68 a.char 117;
#X obj 286 28 a.char 107;
#X obj 216 68 a.char 118;
#X obj 356 48 a.char 114;
#X obj 6 8 a.char 97;
#X obj 76 8 a.char 98;
#X obj 146 8 a.char 99;
#X obj 216 8 a.char 100;
#X obj 286 8 a.char 101;
#X obj 356 8 a.char 102;
#X obj 356 28 a.char 108;
#X obj 216 28 a.char 106;
#X obj 146 28 a.char 105;
#X obj 76 28 a.char 104;
#X obj 6 28 a.char 103;
#X obj 6 48 a.char 109;
#X obj 6 68 a.char 115;
#X obj 6 88 a.char 121;
#X obj 76 88 a.char 122;
#X obj 76 68 a.char 116;
#X obj 76 48 a.char 110;
#X obj 146 48 a.char 111;
#X obj 216 48 a.char 112;
#X obj 286 48 a.char 113;
#X obj 286 68 a.char 119;
#X obj 356 68 a.char 120;
#X connect 0 0 6 0;
#X connect 1 0 0 0;
#X connect 3 0 7 0;
#X connect 5 0 3 0;
#X connect 8 0 11 0;
#X connect 11 0 9 0;
#X restore 181 320 pd database;
#X text 256 320 here are the guts...;
#X obj 350 152 s database;
#X obj 350 81 loadbang;
#X msg 350 102 symbol ./vocalSounds;
#X msg 360 122 symbol ./songs;
#X obj 142 115 list-unique;
#X connect 0 0 2 0;
#X connect 1 0 33 0;
#X connect 1 0 33 1;
#X connect 1 1 4 0;
#X connect 2 0 1 0;
#X connect 2 1 1 0;
#X connect 4 0 3 0;
#X connect 5 0 20 0;
#X connect 6 0 20 0;
#X connect 8 0 0 0;
#X connect 9 0 53 0;
#X connect 10 0 13 1;
#X connect 11 1 15 1;
#X connect 11 1 17 0;
#X connect 12 0 15 0;
#X connect 12 1 11 0;
#X connect 13 0 10 0;
#X connect 13 0 14 0;
#X connect 14 0 16 0;
#X connect 15 0 8 0;
#X connect 16 0 21 0;
#X connect 16 1 21 0;
#X connect 17 0 18 0;
#X connect 18 0 8 0;
#X connect 20 0 7 0;
#X connect 20 0 12 0;
#X connect 20 2 19 0;
#X connect 21 0 11 1;
#X connect 24 0 25 0;
#X connect 28 0 30 0;
#X connect 29 0 28 0;
#X connect 30 0 20 0;
#X connect 30 1 5 0;
#X connect 30 2 31 0;
#X connect 31 0 20 0;
#X connect 36 0 29 0;
#X connect 41 0 40 0;
#X connect 42 0 43 0;
#X connect 50 0 51 0;
#X connect 51 0 49 0;
#X connect 52 0 49 0;
#X connect 53 0 13 0;
