#N canvas 592 130 368 419 10;
#X obj 155 66 hsl 101 15 0 1 0 0 empty empty empty -2 -8 0 10 -262144
-1 -1 1000 1;
#X obj 83 35 inlet;
#X obj 86 307 vline~;
#X obj 62 336 *~;
#X obj 177 134 -;
#X msg 177 112 1 \$1;
#X obj 142 208 *;
#X obj 150 91 t f f;
#X msg 87 277 1 \$1 \, 0 \$2 \$1;
#X obj 121 149 t f f;
#X obj 182 206 *;
#X obj 90 237 pack;
#X obj 83 57 f 100;
#X obj 18 27 inlet~;
#X obj 66 367 outlet~;
#X obj 152 15 loadbang;
#X msg 152 38 0.1;
#X connect 0 0 7 0;
#X connect 1 0 12 0;
#X connect 2 0 3 1;
#X connect 3 0 14 0;
#X connect 4 0 10 1;
#X connect 5 0 4 0;
#X connect 6 0 11 0;
#X connect 7 0 6 1;
#X connect 7 1 5 0;
#X connect 8 0 2 0;
#X connect 9 0 6 0;
#X connect 9 1 10 0;
#X connect 10 0 11 1;
#X connect 11 0 8 0;
#X connect 12 0 9 0;
#X connect 13 0 3 0;
#X connect 15 0 16 0;
#X connect 16 0 0 0;
#X coords 0 -1 1 1 110 34 1 150 50;
