#N canvas 12 95 860 474 12;
#X obj 123 76 readsf~;
#X obj 632 298 dac~;
#X obj 126 57 tgl 15 0 empty empty play/stop-> -80 7 0 8 -262144 -1
-1 1 1;
#X obj 123 -28 bng 15 250 50 0 empty empty <-Open_file 18 7 0 8 -262144
-1 -1;
#X obj 123 -11 openpanel;
#X msg 123 33 open \$1;
#X obj 422 64 noise~;
#X floatatom 542 271 5 1 20 0 Set_Q-> - -;
#X obj 542 293 s Q;
#N canvas 363 254 1267 749 filterbank 0;
#X obj -96 -77 unpack f f f f f f f f f f f f f f f f f f f f f f f
f f f f f f f f f;
#X obj -96 -102 inlet;
#N canvas 0 0 454 304 vocfilt 0;
#X obj 7 253 *~;
#X obj 28 204 r~ mod;
#X obj 9 52 r~ carr;
#X text 7 4 \$1-> bandpass center frequency \; \$2-> bandpass Q;
#X obj 8 178 sig~;
#X floatatom 8 157 9 0 0 0 - - -;
#X obj 134 53 r Q;
#X obj 80 54 inlet;
#X obj 8 278 throw~ filterbanksum;
#X obj 8 131 envrms~ 2048;
#X obj 8 107 vcf_bp4~ \$1 \$2;
#X obj 27 230 vcf_bp4~ \$1 \$2;
#X connect 0 0 8 0;
#X connect 1 0 11 0;
#X connect 2 0 10 0;
#X connect 4 0 0 0;
#X connect 5 0 4 0;
#X connect 6 0 10 2;
#X connect 6 0 11 2;
#X connect 7 0 10 1;
#X connect 7 0 11 1;
#X connect 9 0 5 0;
#X connect 10 0 9 0;
#X connect 11 0 0 1;
#X restore -96 -35 pd vocfilt;
#N canvas 0 0 454 304 vocfilt 0;
#X obj 7 253 *~;
#X obj 28 204 r~ mod;
#X obj 9 52 r~ carr;
#X text 7 4 \$1-> bandpass center frequency \; \$2-> bandpass Q;
#X obj 8 178 sig~;
#X floatatom 8 157 9 0 0 0 - - -;
#X obj 134 53 r Q;
#X obj 80 54 inlet;
#X obj 8 278 throw~ filterbanksum;
#X obj 8 131 envrms~ 2048;
#X obj 8 107 vcf_bp4~ \$1 \$2;
#X obj 27 230 vcf_bp4~ \$1 \$2;
#X connect 0 0 8 0;
#X connect 1 0 11 0;
#X connect 2 0 10 0;
#X connect 4 0 0 0;
#X connect 5 0 4 0;
#X connect 6 0 10 2;
#X connect 6 0 11 2;
#X connect 7 0 10 1;
#X connect 7 0 11 1;
#X connect 9 0 5 0;
#X connect 10 0 9 0;
#X connect 11 0 0 1;
#X restore -86 -25 pd vocfilt;
#N canvas 0 0 454 304 vocfilt 0;
#X obj 7 253 *~;
#X obj 28 204 r~ mod;
#X obj 9 52 r~ carr;
#X text 7 4 \$1-> bandpass center frequency \; \$2-> bandpass Q;
#X obj 8 178 sig~;
#X floatatom 8 157 9 0 0 0 - - -;
#X obj 134 53 r Q;
#X obj 80 54 inlet;
#X obj 8 278 throw~ filterbanksum;
#X obj 8 131 envrms~ 2048;
#X obj 8 107 vcf_bp4~ \$1 \$2;
#X obj 27 230 vcf_bp4~ \$1 \$2;
#X connect 0 0 8 0;
#X connect 1 0 11 0;
#X connect 2 0 10 0;
#X connect 4 0 0 0;
#X connect 5 0 4 0;
#X connect 6 0 10 2;
#X connect 6 0 11 2;
#X connect 7 0 10 1;
#X connect 7 0 11 1;
#X connect 9 0 5 0;
#X connect 10 0 9 0;
#X connect 11 0 0 1;
#X restore -76 -15 pd vocfilt;
#N canvas 0 0 454 304 vocfilt 0;
#X obj 7 253 *~;
#X obj 28 204 r~ mod;
#X obj 9 52 r~ carr;
#X text 7 4 \$1-> bandpass center frequency \; \$2-> bandpass Q;
#X obj 8 178 sig~;
#X floatatom 8 157 9 0 0 0 - - -;
#X obj 134 53 r Q;
#X obj 80 54 inlet;
#X obj 8 278 throw~ filterbanksum;
#X obj 8 131 envrms~ 2048;
#X obj 8 107 vcf_bp4~ \$1 \$2;
#X obj 27 230 vcf_bp4~ \$1 \$2;
#X connect 0 0 8 0;
#X connect 1 0 11 0;
#X connect 2 0 10 0;
#X connect 4 0 0 0;
#X connect 5 0 4 0;
#X connect 6 0 10 2;
#X connect 6 0 11 2;
#X connect 7 0 10 1;
#X connect 7 0 11 1;
#X connect 9 0 5 0;
#X connect 10 0 9 0;
#X connect 11 0 0 1;
#X restore -66 -5 pd vocfilt;
#N canvas 0 0 454 304 vocfilt 0;
#X obj 7 253 *~;
#X obj 28 204 r~ mod;
#X obj 9 52 r~ carr;
#X text 7 4 \$1-> bandpass center frequency \; \$2-> bandpass Q;
#X obj 8 178 sig~;
#X floatatom 8 157 9 0 0 0 - - -;
#X obj 134 53 r Q;
#X obj 80 54 inlet;
#X obj 8 278 throw~ filterbanksum;
#X obj 8 131 envrms~ 2048;
#X obj 8 107 vcf_bp4~ \$1 \$2;
#X obj 27 230 vcf_bp4~ \$1 \$2;
#X connect 0 0 8 0;
#X connect 1 0 11 0;
#X connect 2 0 10 0;
#X connect 4 0 0 0;
#X connect 5 0 4 0;
#X connect 6 0 10 2;
#X connect 6 0 11 2;
#X connect 7 0 10 1;
#X connect 7 0 11 1;
#X connect 9 0 5 0;
#X connect 10 0 9 0;
#X connect 11 0 0 1;
#X restore -56 5 pd vocfilt;
#N canvas 0 0 454 304 vocfilt 0;
#X obj 7 253 *~;
#X obj 28 204 r~ mod;
#X obj 9 52 r~ carr;
#X text 7 4 \$1-> bandpass center frequency \; \$2-> bandpass Q;
#X obj 8 178 sig~;
#X floatatom 8 157 9 0 0 0 - - -;
#X obj 134 53 r Q;
#X obj 80 54 inlet;
#X obj 8 278 throw~ filterbanksum;
#X obj 8 131 envrms~ 2048;
#X obj 8 107 vcf_bp4~ \$1 \$2;
#X obj 27 230 vcf_bp4~ \$1 \$2;
#X connect 0 0 8 0;
#X connect 1 0 11 0;
#X connect 2 0 10 0;
#X connect 4 0 0 0;
#X connect 5 0 4 0;
#X connect 6 0 10 2;
#X connect 6 0 11 2;
#X connect 7 0 10 1;
#X connect 7 0 11 1;
#X connect 9 0 5 0;
#X connect 10 0 9 0;
#X connect 11 0 0 1;
#X restore -46 15 pd vocfilt;
#N canvas 0 0 454 304 vocfilt 0;
#X obj 7 253 *~;
#X obj 28 204 r~ mod;
#X obj 9 52 r~ carr;
#X text 7 4 \$1-> bandpass center frequency \; \$2-> bandpass Q;
#X obj 8 178 sig~;
#X floatatom 8 157 9 0 0 0 - - -;
#X obj 134 53 r Q;
#X obj 80 54 inlet;
#X obj 8 278 throw~ filterbanksum;
#X obj 8 131 envrms~ 2048;
#X obj 8 107 vcf_bp4~ \$1 \$2;
#X obj 27 230 vcf_bp4~ \$1 \$2;
#X connect 0 0 8 0;
#X connect 1 0 11 0;
#X connect 2 0 10 0;
#X connect 4 0 0 0;
#X connect 5 0 4 0;
#X connect 6 0 10 2;
#X connect 6 0 11 2;
#X connect 7 0 10 1;
#X connect 7 0 11 1;
#X connect 9 0 5 0;
#X connect 10 0 9 0;
#X connect 11 0 0 1;
#X restore -36 25 pd vocfilt;
#N canvas 0 0 454 304 vocfilt 0;
#X obj 7 253 *~;
#X obj 28 204 r~ mod;
#X obj 9 52 r~ carr;
#X text 7 4 \$1-> bandpass center frequency \; \$2-> bandpass Q;
#X obj 8 178 sig~;
#X floatatom 8 157 9 0 0 0 - - -;
#X obj 134 53 r Q;
#X obj 80 54 inlet;
#X obj 8 278 throw~ filterbanksum;
#X obj 8 131 envrms~ 2048;
#X obj 8 107 vcf_bp4~ \$1 \$2;
#X obj 27 230 vcf_bp4~ \$1 \$2;
#X connect 0 0 8 0;
#X connect 1 0 11 0;
#X connect 2 0 10 0;
#X connect 4 0 0 0;
#X connect 5 0 4 0;
#X connect 6 0 10 2;
#X connect 6 0 11 2;
#X connect 7 0 10 1;
#X connect 7 0 11 1;
#X connect 9 0 5 0;
#X connect 10 0 9 0;
#X connect 11 0 0 1;
#X restore -26 35 pd vocfilt;
#N canvas 0 0 454 304 vocfilt 0;
#X obj 7 253 *~;
#X obj 28 204 r~ mod;
#X obj 9 52 r~ carr;
#X text 7 4 \$1-> bandpass center frequency \; \$2-> bandpass Q;
#X obj 8 178 sig~;
#X floatatom 8 157 9 0 0 0 - - -;
#X obj 134 53 r Q;
#X obj 80 54 inlet;
#X obj 8 278 throw~ filterbanksum;
#X obj 8 131 envrms~ 2048;
#X obj 8 107 vcf_bp4~ \$1 \$2;
#X obj 27 230 vcf_bp4~ \$1 \$2;
#X connect 0 0 8 0;
#X connect 1 0 11 0;
#X connect 2 0 10 0;
#X connect 4 0 0 0;
#X connect 5 0 4 0;
#X connect 6 0 10 2;
#X connect 6 0 11 2;
#X connect 7 0 10 1;
#X connect 7 0 11 1;
#X connect 9 0 5 0;
#X connect 10 0 9 0;
#X connect 11 0 0 1;
#X restore -16 45 pd vocfilt;
#N canvas 0 0 454 304 vocfilt 0;
#X obj 7 253 *~;
#X obj 28 204 r~ mod;
#X obj 9 52 r~ carr;
#X text 7 4 \$1-> bandpass center frequency \; \$2-> bandpass Q;
#X obj 8 178 sig~;
#X floatatom 8 157 9 0 0 0 - - -;
#X obj 134 53 r Q;
#X obj 80 54 inlet;
#X obj 8 278 throw~ filterbanksum;
#X obj 8 131 envrms~ 2048;
#X obj 8 107 vcf_bp4~ \$1 \$2;
#X obj 27 230 vcf_bp4~ \$1 \$2;
#X connect 0 0 8 0;
#X connect 1 0 11 0;
#X connect 2 0 10 0;
#X connect 4 0 0 0;
#X connect 5 0 4 0;
#X connect 6 0 10 2;
#X connect 6 0 11 2;
#X connect 7 0 10 1;
#X connect 7 0 11 1;
#X connect 9 0 5 0;
#X connect 10 0 9 0;
#X connect 11 0 0 1;
#X restore -6 55 pd vocfilt;
#N canvas 0 0 454 304 vocfilt 0;
#X obj 7 253 *~;
#X obj 28 204 r~ mod;
#X obj 9 52 r~ carr;
#X text 7 4 \$1-> bandpass center frequency \; \$2-> bandpass Q;
#X obj 8 178 sig~;
#X floatatom 8 157 9 0 0 0 - - -;
#X obj 134 53 r Q;
#X obj 80 54 inlet;
#X obj 8 278 throw~ filterbanksum;
#X obj 8 131 envrms~ 2048;
#X obj 8 107 vcf_bp4~ \$1 \$2;
#X obj 27 230 vcf_bp4~ \$1 \$2;
#X connect 0 0 8 0;
#X connect 1 0 11 0;
#X connect 2 0 10 0;
#X connect 4 0 0 0;
#X connect 5 0 4 0;
#X connect 6 0 10 2;
#X connect 6 0 11 2;
#X connect 7 0 10 1;
#X connect 7 0 11 1;
#X connect 9 0 5 0;
#X connect 10 0 9 0;
#X connect 11 0 0 1;
#X restore 4 65 pd vocfilt;
#N canvas 0 0 454 304 vocfilt 0;
#X obj 7 253 *~;
#X obj 28 204 r~ mod;
#X obj 9 52 r~ carr;
#X text 7 4 \$1-> bandpass center frequency \; \$2-> bandpass Q;
#X obj 8 178 sig~;
#X floatatom 8 157 9 0 0 0 - - -;
#X obj 134 53 r Q;
#X obj 80 54 inlet;
#X obj 8 278 throw~ filterbanksum;
#X obj 8 131 envrms~ 2048;
#X obj 8 107 vcf_bp4~ \$1 \$2;
#X obj 27 230 vcf_bp4~ \$1 \$2;
#X connect 0 0 8 0;
#X connect 1 0 11 0;
#X connect 2 0 10 0;
#X connect 4 0 0 0;
#X connect 5 0 4 0;
#X connect 6 0 10 2;
#X connect 6 0 11 2;
#X connect 7 0 10 1;
#X connect 7 0 11 1;
#X connect 9 0 5 0;
#X connect 10 0 9 0;
#X connect 11 0 0 1;
#X restore 14 75 pd vocfilt;
#N canvas 0 0 454 304 vocfilt 0;
#X obj 7 253 *~;
#X obj 28 204 r~ mod;
#X obj 9 52 r~ carr;
#X text 7 4 \$1-> bandpass center frequency \; \$2-> bandpass Q;
#X obj 8 178 sig~;
#X floatatom 8 157 9 0 0 0 - - -;
#X obj 134 53 r Q;
#X obj 80 54 inlet;
#X obj 8 278 throw~ filterbanksum;
#X obj 8 131 envrms~ 2048;
#X obj 8 107 vcf_bp4~ \$1 \$2;
#X obj 27 230 vcf_bp4~ \$1 \$2;
#X connect 0 0 8 0;
#X connect 1 0 11 0;
#X connect 2 0 10 0;
#X connect 4 0 0 0;
#X connect 5 0 4 0;
#X connect 6 0 10 2;
#X connect 6 0 11 2;
#X connect 7 0 10 1;
#X connect 7 0 11 1;
#X connect 9 0 5 0;
#X connect 10 0 9 0;
#X connect 11 0 0 1;
#X restore 24 85 pd vocfilt;
#N canvas 0 0 454 304 vocfilt 0;
#X obj 7 253 *~;
#X obj 28 204 r~ mod;
#X obj 9 52 r~ carr;
#X text 7 4 \$1-> bandpass center frequency \; \$2-> bandpass Q;
#X obj 8 178 sig~;
#X floatatom 8 157 9 0 0 0 - - -;
#X obj 134 53 r Q;
#X obj 80 54 inlet;
#X obj 8 278 throw~ filterbanksum;
#X obj 8 131 envrms~ 2048;
#X obj 8 107 vcf_bp4~ \$1 \$2;
#X obj 27 230 vcf_bp4~ \$1 \$2;
#X connect 0 0 8 0;
#X connect 1 0 11 0;
#X connect 2 0 10 0;
#X connect 4 0 0 0;
#X connect 5 0 4 0;
#X connect 6 0 10 2;
#X connect 6 0 11 2;
#X connect 7 0 10 1;
#X connect 7 0 11 1;
#X connect 9 0 5 0;
#X connect 10 0 9 0;
#X connect 11 0 0 1;
#X restore 34 95 pd vocfilt;
#N canvas 0 0 454 304 vocfilt 0;
#X obj 7 253 *~;
#X obj 28 204 r~ mod;
#X obj 9 52 r~ carr;
#X text 7 4 \$1-> bandpass center frequency \; \$2-> bandpass Q;
#X obj 8 178 sig~;
#X floatatom 8 157 9 0 0 0 - - -;
#X obj 134 53 r Q;
#X obj 80 54 inlet;
#X obj 8 278 throw~ filterbanksum;
#X obj 8 131 envrms~ 2048;
#X obj 8 107 vcf_bp4~ \$1 \$2;
#X obj 27 230 vcf_bp4~ \$1 \$2;
#X connect 0 0 8 0;
#X connect 1 0 11 0;
#X connect 2 0 10 0;
#X connect 4 0 0 0;
#X connect 5 0 4 0;
#X connect 6 0 10 2;
#X connect 6 0 11 2;
#X connect 7 0 10 1;
#X connect 7 0 11 1;
#X connect 9 0 5 0;
#X connect 10 0 9 0;
#X connect 11 0 0 1;
#X restore 44 105 pd vocfilt;
#N canvas 0 0 454 304 vocfilt 0;
#X obj 7 253 *~;
#X obj 28 204 r~ mod;
#X obj 9 52 r~ carr;
#X text 7 4 \$1-> bandpass center frequency \; \$2-> bandpass Q;
#X obj 8 178 sig~;
#X floatatom 8 157 9 0 0 0 - - -;
#X obj 134 53 r Q;
#X obj 80 54 inlet;
#X obj 8 278 throw~ filterbanksum;
#X obj 8 131 envrms~ 2048;
#X obj 8 107 vcf_bp4~ \$1 \$2;
#X obj 27 230 vcf_bp4~ \$1 \$2;
#X connect 0 0 8 0;
#X connect 1 0 11 0;
#X connect 2 0 10 0;
#X connect 4 0 0 0;
#X connect 5 0 4 0;
#X connect 6 0 10 2;
#X connect 6 0 11 2;
#X connect 7 0 10 1;
#X connect 7 0 11 1;
#X connect 9 0 5 0;
#X connect 10 0 9 0;
#X connect 11 0 0 1;
#X restore 54 115 pd vocfilt;
#N canvas 0 0 454 304 vocfilt 0;
#X obj 7 253 *~;
#X obj 28 204 r~ mod;
#X obj 9 52 r~ carr;
#X text 7 4 \$1-> bandpass center frequency \; \$2-> bandpass Q;
#X obj 8 178 sig~;
#X floatatom 8 157 9 0 0 0 - - -;
#X obj 134 53 r Q;
#X obj 80 54 inlet;
#X obj 8 278 throw~ filterbanksum;
#X obj 8 131 envrms~ 2048;
#X obj 8 107 vcf_bp4~ \$1 \$2;
#X obj 27 230 vcf_bp4~ \$1 \$2;
#X connect 0 0 8 0;
#X connect 1 0 11 0;
#X connect 2 0 10 0;
#X connect 4 0 0 0;
#X connect 5 0 4 0;
#X connect 6 0 10 2;
#X connect 6 0 11 2;
#X connect 7 0 10 1;
#X connect 7 0 11 1;
#X connect 9 0 5 0;
#X connect 10 0 9 0;
#X connect 11 0 0 1;
#X restore 64 125 pd vocfilt;
#N canvas 0 0 454 304 vocfilt 0;
#X obj 7 253 *~;
#X obj 28 204 r~ mod;
#X obj 9 52 r~ carr;
#X text 7 4 \$1-> bandpass center frequency \; \$2-> bandpass Q;
#X obj 8 178 sig~;
#X floatatom 8 157 9 0 0 0 - - -;
#X obj 134 53 r Q;
#X obj 80 54 inlet;
#X obj 8 278 throw~ filterbanksum;
#X obj 8 131 envrms~ 2048;
#X obj 8 107 vcf_bp4~ \$1 \$2;
#X obj 27 230 vcf_bp4~ \$1 \$2;
#X connect 0 0 8 0;
#X connect 1 0 11 0;
#X connect 2 0 10 0;
#X connect 4 0 0 0;
#X connect 5 0 4 0;
#X connect 6 0 10 2;
#X connect 6 0 11 2;
#X connect 7 0 10 1;
#X connect 7 0 11 1;
#X connect 9 0 5 0;
#X connect 10 0 9 0;
#X connect 11 0 0 1;
#X restore 74 135 pd vocfilt;
#N canvas 0 0 454 304 vocfilt 0;
#X obj 7 253 *~;
#X obj 28 204 r~ mod;
#X obj 9 52 r~ carr;
#X text 7 4 \$1-> bandpass center frequency \; \$2-> bandpass Q;
#X obj 8 178 sig~;
#X floatatom 8 157 9 0 0 0 - - -;
#X obj 134 53 r Q;
#X obj 80 54 inlet;
#X obj 8 278 throw~ filterbanksum;
#X obj 8 131 envrms~ 2048;
#X obj 8 107 vcf_bp4~ \$1 \$2;
#X obj 27 230 vcf_bp4~ \$1 \$2;
#X connect 0 0 8 0;
#X connect 1 0 11 0;
#X connect 2 0 10 0;
#X connect 4 0 0 0;
#X connect 5 0 4 0;
#X connect 6 0 10 2;
#X connect 6 0 11 2;
#X connect 7 0 10 1;
#X connect 7 0 11 1;
#X connect 9 0 5 0;
#X connect 10 0 9 0;
#X connect 11 0 0 1;
#X restore 84 145 pd vocfilt;
#N canvas 0 0 454 304 vocfilt 0;
#X obj 7 253 *~;
#X obj 28 204 r~ mod;
#X obj 9 52 r~ carr;
#X text 7 4 \$1-> bandpass center frequency \; \$2-> bandpass Q;
#X obj 8 178 sig~;
#X floatatom 8 157 9 0 0 0 - - -;
#X obj 134 53 r Q;
#X obj 80 54 inlet;
#X obj 8 278 throw~ filterbanksum;
#X obj 8 131 envrms~ 2048;
#X obj 8 107 vcf_bp4~ \$1 \$2;
#X obj 27 230 vcf_bp4~ \$1 \$2;
#X connect 0 0 8 0;
#X connect 1 0 11 0;
#X connect 2 0 10 0;
#X connect 4 0 0 0;
#X connect 5 0 4 0;
#X connect 6 0 10 2;
#X connect 6 0 11 2;
#X connect 7 0 10 1;
#X connect 7 0 11 1;
#X connect 9 0 5 0;
#X connect 10 0 9 0;
#X connect 11 0 0 1;
#X restore 94 155 pd vocfilt;
#N canvas 0 0 454 304 vocfilt 0;
#X obj 7 253 *~;
#X obj 28 204 r~ mod;
#X obj 9 52 r~ carr;
#X text 7 4 \$1-> bandpass center frequency \; \$2-> bandpass Q;
#X obj 8 178 sig~;
#X floatatom 8 157 9 0 0 0 - - -;
#X obj 134 53 r Q;
#X obj 80 54 inlet;
#X obj 8 278 throw~ filterbanksum;
#X obj 8 131 envrms~ 2048;
#X obj 8 107 vcf_bp4~ \$1 \$2;
#X obj 27 230 vcf_bp4~ \$1 \$2;
#X connect 0 0 8 0;
#X connect 1 0 11 0;
#X connect 2 0 10 0;
#X connect 4 0 0 0;
#X connect 5 0 4 0;
#X connect 6 0 10 2;
#X connect 6 0 11 2;
#X connect 7 0 10 1;
#X connect 7 0 11 1;
#X connect 9 0 5 0;
#X connect 10 0 9 0;
#X connect 11 0 0 1;
#X restore 104 165 pd vocfilt;
#N canvas 0 0 454 304 vocfilt 0;
#X obj 7 253 *~;
#X obj 28 204 r~ mod;
#X obj 9 52 r~ carr;
#X text 7 4 \$1-> bandpass center frequency \; \$2-> bandpass Q;
#X obj 8 178 sig~;
#X floatatom 8 157 9 0 0 0 - - -;
#X obj 134 53 r Q;
#X obj 80 54 inlet;
#X obj 8 278 throw~ filterbanksum;
#X obj 8 131 envrms~ 2048;
#X obj 8 107 vcf_bp4~ \$1 \$2;
#X obj 27 230 vcf_bp4~ \$1 \$2;
#X connect 0 0 8 0;
#X connect 1 0 11 0;
#X connect 2 0 10 0;
#X connect 4 0 0 0;
#X connect 5 0 4 0;
#X connect 6 0 10 2;
#X connect 6 0 11 2;
#X connect 7 0 10 1;
#X connect 7 0 11 1;
#X connect 9 0 5 0;
#X connect 10 0 9 0;
#X connect 11 0 0 1;
#X restore 114 175 pd vocfilt;
#N canvas 0 0 454 304 vocfilt 0;
#X obj 7 253 *~;
#X obj 28 204 r~ mod;
#X obj 9 52 r~ carr;
#X text 7 4 \$1-> bandpass center frequency \; \$2-> bandpass Q;
#X obj 8 178 sig~;
#X floatatom 8 157 9 0 0 0 - - -;
#X obj 134 53 r Q;
#X obj 80 54 inlet;
#X obj 8 278 throw~ filterbanksum;
#X obj 8 131 envrms~ 2048;
#X obj 8 107 vcf_bp4~ \$1 \$2;
#X obj 27 230 vcf_bp4~ \$1 \$2;
#X connect 0 0 8 0;
#X connect 1 0 11 0;
#X connect 2 0 10 0;
#X connect 4 0 0 0;
#X connect 5 0 4 0;
#X connect 6 0 10 2;
#X connect 6 0 11 2;
#X connect 7 0 10 1;
#X connect 7 0 11 1;
#X connect 9 0 5 0;
#X connect 10 0 9 0;
#X connect 11 0 0 1;
#X restore 124 185 pd vocfilt;
#N canvas 0 0 454 304 vocfilt 0;
#X obj 7 253 *~;
#X obj 28 204 r~ mod;
#X obj 9 52 r~ carr;
#X text 7 4 \$1-> bandpass center frequency \; \$2-> bandpass Q;
#X obj 8 178 sig~;
#X floatatom 8 157 9 0 0 0 - - -;
#X obj 134 53 r Q;
#X obj 80 54 inlet;
#X obj 8 278 throw~ filterbanksum;
#X obj 8 131 envrms~ 2048;
#X obj 8 107 vcf_bp4~ \$1 \$2;
#X obj 27 230 vcf_bp4~ \$1 \$2;
#X connect 0 0 8 0;
#X connect 1 0 11 0;
#X connect 2 0 10 0;
#X connect 4 0 0 0;
#X connect 5 0 4 0;
#X connect 6 0 10 2;
#X connect 6 0 11 2;
#X connect 7 0 10 1;
#X connect 7 0 11 1;
#X connect 9 0 5 0;
#X connect 10 0 9 0;
#X connect 11 0 0 1;
#X restore 134 195 pd vocfilt;
#N canvas 0 0 454 304 vocfilt 0;
#X obj 7 253 *~;
#X obj 28 204 r~ mod;
#X obj 9 52 r~ carr;
#X text 7 4 \$1-> bandpass center frequency \; \$2-> bandpass Q;
#X obj 8 178 sig~;
#X floatatom 8 157 9 0 0 0 - - -;
#X obj 134 53 r Q;
#X obj 80 54 inlet;
#X obj 8 278 throw~ filterbanksum;
#X obj 8 131 envrms~ 2048;
#X obj 8 107 vcf_bp4~ \$1 \$2;
#X obj 27 230 vcf_bp4~ \$1 \$2;
#X connect 0 0 8 0;
#X connect 1 0 11 0;
#X connect 2 0 10 0;
#X connect 4 0 0 0;
#X connect 5 0 4 0;
#X connect 6 0 10 2;
#X connect 6 0 11 2;
#X connect 7 0 10 1;
#X connect 7 0 11 1;
#X connect 9 0 5 0;
#X connect 10 0 9 0;
#X connect 11 0 0 1;
#X restore 144 205 pd vocfilt;
#N canvas 0 0 454 304 vocfilt 0;
#X obj 7 253 *~;
#X obj 28 204 r~ mod;
#X obj 9 52 r~ carr;
#X text 7 4 \$1-> bandpass center frequency \; \$2-> bandpass Q;
#X obj 8 178 sig~;
#X floatatom 8 157 9 0 0 0 - - -;
#X obj 134 53 r Q;
#X obj 80 54 inlet;
#X obj 8 278 throw~ filterbanksum;
#X obj 8 131 envrms~ 2048;
#X obj 8 107 vcf_bp4~ \$1 \$2;
#X obj 27 230 vcf_bp4~ \$1 \$2;
#X connect 0 0 8 0;
#X connect 1 0 11 0;
#X connect 2 0 10 0;
#X connect 4 0 0 0;
#X connect 5 0 4 0;
#X connect 6 0 10 2;
#X connect 6 0 11 2;
#X connect 7 0 10 1;
#X connect 7 0 11 1;
#X connect 9 0 5 0;
#X connect 10 0 9 0;
#X connect 11 0 0 1;
#X restore 154 215 pd vocfilt;
#N canvas 0 0 454 304 vocfilt 0;
#X obj 7 253 *~;
#X obj 28 204 r~ mod;
#X obj 9 52 r~ carr;
#X text 7 4 \$1-> bandpass center frequency \; \$2-> bandpass Q;
#X obj 8 178 sig~;
#X floatatom 8 157 9 0 0 0 - - -;
#X obj 134 53 r Q;
#X obj 80 54 inlet;
#X obj 8 278 throw~ filterbanksum;
#X obj 8 131 envrms~ 2048;
#X obj 8 107 vcf_bp4~ \$1 \$2;
#X obj 27 230 vcf_bp4~ \$1 \$2;
#X connect 0 0 8 0;
#X connect 1 0 11 0;
#X connect 2 0 10 0;
#X connect 4 0 0 0;
#X connect 5 0 4 0;
#X connect 6 0 10 2;
#X connect 6 0 11 2;
#X connect 7 0 10 1;
#X connect 7 0 11 1;
#X connect 9 0 5 0;
#X connect 10 0 9 0;
#X connect 11 0 0 1;
#X restore 164 225 pd vocfilt;
#N canvas 0 0 454 304 vocfilt 0;
#X obj 7 253 *~;
#X obj 28 204 r~ mod;
#X obj 9 52 r~ carr;
#X text 7 4 \$1-> bandpass center frequency \; \$2-> bandpass Q;
#X obj 8 178 sig~;
#X floatatom 8 157 9 0 0 0 - - -;
#X obj 134 53 r Q;
#X obj 80 54 inlet;
#X obj 8 278 throw~ filterbanksum;
#X obj 8 131 envrms~ 2048;
#X obj 8 107 vcf_bp4~ \$1 \$2;
#X obj 27 230 vcf_bp4~ \$1 \$2;
#X connect 0 0 8 0;
#X connect 1 0 11 0;
#X connect 2 0 10 0;
#X connect 4 0 0 0;
#X connect 5 0 4 0;
#X connect 6 0 10 2;
#X connect 6 0 11 2;
#X connect 7 0 10 1;
#X connect 7 0 11 1;
#X connect 9 0 5 0;
#X connect 10 0 9 0;
#X connect 11 0 0 1;
#X restore 174 235 pd vocfilt;
#N canvas 0 0 454 304 vocfilt 0;
#X obj 7 253 *~;
#X obj 28 204 r~ mod;
#X obj 9 52 r~ carr;
#X text 7 4 \$1-> bandpass center frequency \; \$2-> bandpass Q;
#X obj 8 178 sig~;
#X floatatom 8 157 9 0 0 0 - - -;
#X obj 134 53 r Q;
#X obj 80 54 inlet;
#X obj 8 278 throw~ filterbanksum;
#X obj 8 131 envrms~ 2048;
#X obj 8 107 vcf_bp4~ \$1 \$2;
#X obj 27 230 vcf_bp4~ \$1 \$2;
#X connect 0 0 8 0;
#X connect 1 0 11 0;
#X connect 2 0 10 0;
#X connect 4 0 0 0;
#X connect 5 0 4 0;
#X connect 6 0 10 2;
#X connect 6 0 11 2;
#X connect 7 0 10 1;
#X connect 7 0 11 1;
#X connect 9 0 5 0;
#X connect 10 0 9 0;
#X connect 11 0 0 1;
#X restore 184 245 pd vocfilt;
#N canvas 0 0 454 304 vocfilt 0;
#X obj 7 253 *~;
#X obj 28 204 r~ mod;
#X obj 9 52 r~ carr;
#X text 7 4 \$1-> bandpass center frequency \; \$2-> bandpass Q;
#X obj 8 178 sig~;
#X floatatom 8 157 9 0 0 0 - - -;
#X obj 134 53 r Q;
#X obj 80 54 inlet;
#X obj 8 278 throw~ filterbanksum;
#X obj 8 131 envrms~ 2048;
#X obj 8 107 vcf_bp4~ \$1 \$2;
#X obj 27 230 vcf_bp4~ \$1 \$2;
#X connect 0 0 8 0;
#X connect 1 0 11 0;
#X connect 2 0 10 0;
#X connect 4 0 0 0;
#X connect 5 0 4 0;
#X connect 6 0 10 2;
#X connect 6 0 11 2;
#X connect 7 0 10 1;
#X connect 7 0 11 1;
#X connect 9 0 5 0;
#X connect 10 0 9 0;
#X connect 11 0 0 1;
#X restore 194 255 pd vocfilt;
#N canvas 0 0 454 304 vocfilt 0;
#X obj 7 253 *~;
#X obj 28 204 r~ mod;
#X obj 9 52 r~ carr;
#X text 7 4 \$1-> bandpass center frequency \; \$2-> bandpass Q;
#X obj 8 178 sig~;
#X floatatom 8 157 9 0 0 0 - - -;
#X obj 134 53 r Q;
#X obj 80 54 inlet;
#X obj 8 278 throw~ filterbanksum;
#X obj 8 131 envrms~ 2048;
#X obj 8 107 vcf_bp4~ \$1 \$2;
#X obj 27 230 vcf_bp4~ \$1 \$2;
#X connect 0 0 8 0;
#X connect 1 0 11 0;
#X connect 2 0 10 0;
#X connect 4 0 0 0;
#X connect 5 0 4 0;
#X connect 6 0 10 2;
#X connect 6 0 11 2;
#X connect 7 0 10 1;
#X connect 7 0 11 1;
#X connect 9 0 5 0;
#X connect 10 0 9 0;
#X connect 11 0 0 1;
#X restore 204 265 pd vocfilt;
#X connect 0 0 2 0;
#X connect 0 1 3 0;
#X connect 0 2 4 0;
#X connect 0 3 5 0;
#X connect 0 4 6 0;
#X connect 0 5 7 0;
#X connect 0 6 8 0;
#X connect 0 7 9 0;
#X connect 0 8 10 0;
#X connect 0 9 11 0;
#X connect 0 10 12 0;
#X connect 0 11 13 0;
#X connect 0 12 14 0;
#X connect 0 13 15 0;
#X connect 0 14 16 0;
#X connect 0 15 17 0;
#X connect 0 16 18 0;
#X connect 0 17 19 0;
#X connect 0 18 20 0;
#X connect 0 19 21 0;
#X connect 0 20 22 0;
#X connect 0 21 23 0;
#X connect 0 22 24 0;
#X connect 0 23 25 0;
#X connect 0 24 26 0;
#X connect 0 25 27 0;
#X connect 0 26 28 0;
#X connect 0 27 29 0;
#X connect 0 28 30 0;
#X connect 0 29 31 0;
#X connect 0 30 32 0;
#X connect 1 0 0 0;
#X restore 4 327 pd filterbank;
#X msg 4 252 78.125 92.9068 110.485 131.39 156.25 185.814 220.971 262.78
312.5 371.627 441.942 525.56 625 743.254 883.883 1051.12 1250 1486.51
1767.77 2102.24 2500 2973.02 3535.53 4204.48 5000 5946.03 7071.06 8408.96
10000 11892.1 14142.1 16817.9;
#X obj 645 242 catch~ filterbanksum;
#X text 5 -96 32 FILTERBANK VOCODER. 1/4 Octave (78.125 - 20000 Hz)
;
#X obj 4 227 loadbang;
#X obj 590 136 vsl 15 128 0.75 75 0 0 empty empty vol -2 -10 0 8 -262144
-1 -1 12700 1;
#X obj 644 267 *~;
#X msg 542 247 15;
#X symbolatom 123 13 20 0 0 0 - - -;
#X obj 184 78 spigot;
#X obj 227 60 tgl 15 0 empty empty <-loop?? 18 7 0 8 -262144 -1 -1
1 1;
#X obj 65 76 adc~ 1;
#N canvas 0 0 482 332 in_selection 0;
#X msg 127 75 1;
#X msg 165 75 0;
#X obj 148 128 *~;
#X obj 225 128 *~;
#X msg 220 76 1;
#X msg 258 76 0;
#X obj 127 16 inlet;
#X obj 259 13 inlet~;
#X obj 200 14 inlet~;
#X obj 182 191 s~ carr;
#X obj 127 42 sel file mic;
#X connect 0 0 2 1;
#X connect 1 0 3 1;
#X connect 2 0 9 0;
#X connect 3 0 9 0;
#X connect 4 0 3 1;
#X connect 5 0 2 1;
#X connect 6 0 10 0;
#X connect 7 0 2 0;
#X connect 8 0 3 0;
#X connect 10 0 0 0;
#X connect 10 0 1 0;
#X connect 10 1 4 0;
#X connect 10 1 5 0;
#X restore 7 100 pd in_selection;
#X obj 480 63 readsf~;
#X obj 483 44 tgl 15 0 empty empty play/stop-> -80 7 0 8 -262144 -1
-1 0 1;
#X obj 480 -41 bng 15 250 50 0 empty empty <-Open_file 18 7 0 8 -262144
-1 -1;
#X obj 480 -24 openpanel;
#X msg 480 20 open \$1;
#X symbolatom 480 0 20 0 0 0 - - -;
#X msg 7 -37 symbol file;
#X msg 16 -13 symbol mic;
#X obj 184 101 t b b;
#N canvas 0 0 494 344 in_selection 0;
#X msg 127 75 1;
#X msg 165 75 0;
#X obj 148 128 *~;
#X obj 225 128 *~;
#X msg 220 76 1;
#X msg 258 76 0;
#X obj 127 16 inlet;
#X obj 259 13 inlet~;
#X obj 200 14 inlet~;
#X obj 127 42 sel file noise;
#X obj 182 191 s~ mod;
#X connect 0 0 2 1;
#X connect 1 0 3 1;
#X connect 2 0 10 0;
#X connect 3 0 10 0;
#X connect 4 0 3 1;
#X connect 5 0 2 1;
#X connect 6 0 9 0;
#X connect 7 0 2 0;
#X connect 8 0 3 0;
#X connect 9 0 0 0;
#X connect 9 0 1 0;
#X connect 9 1 4 0;
#X connect 9 1 5 0;
#X restore 365 88 pd in_selection;
#X msg 365 -41 symbol file;
#X msg 374 -17 symbol noise;
#X text 363 -61 Select source SOUND2;
#X text 7 -58 Select source SOUND1;
#X floatatom 590 271 5 0 0 0 - - -;
#X msg 184 124 1;
#X obj 541 63 spigot;
#X obj 584 45 tgl 15 0 empty empty <-loop?? 18 7 0 8 -262144 -1 -1
0 1;
#X obj 540 86 t b b;
#X msg 540 109 1;
#X msg 91 33 0;
#X msg 448 20 0;
#X text 115 324 This patch is dependant zexy and iemlib externals.
;
#X text 689 351 Angel Faraldo. 2006;
#X connect 0 0 21 2;
#X connect 0 1 18 0;
#X connect 2 0 0 0;
#X connect 3 0 4 0;
#X connect 3 0 42 0;
#X connect 4 0 17 0;
#X connect 5 0 0 0;
#X connect 6 0 31 1;
#X connect 7 0 8 0;
#X connect 10 0 9 0;
#X connect 11 0 15 0;
#X connect 13 0 10 0;
#X connect 13 0 16 0;
#X connect 14 0 15 1;
#X connect 14 0 36 0;
#X connect 15 0 1 0;
#X connect 15 0 1 1;
#X connect 16 0 7 0;
#X connect 17 0 5 0;
#X connect 18 0 30 0;
#X connect 19 0 18 1;
#X connect 20 0 21 1;
#X connect 22 0 31 2;
#X connect 22 1 38 0;
#X connect 23 0 22 0;
#X connect 24 0 25 0;
#X connect 24 0 43 0;
#X connect 25 0 27 0;
#X connect 26 0 22 0;
#X connect 27 0 26 0;
#X connect 28 0 21 0;
#X connect 29 0 21 0;
#X connect 30 0 37 0;
#X connect 30 1 17 0;
#X connect 32 0 31 0;
#X connect 33 0 31 0;
#X connect 37 0 2 0;
#X connect 38 0 40 0;
#X connect 39 0 38 1;
#X connect 40 0 41 0;
#X connect 40 1 27 0;
#X connect 41 0 23 0;
#X connect 42 0 2 0;
#X connect 43 0 23 0;
