#N canvas 134 169 1280 951 12;
#N canvas 0 22 450 278 (subpatch) 0;
#X array oscilloscope 147 float 0;
#X coords 0 1.1 146 -1.1 400 280 1 0 0;
#X restore 662 57 graph;
#X obj 38 201 tabwrite~ oscilloscope;
#X msg 38 64 0;
#X obj 38 88 t b f, f 10;
#X obj 43 466 tabwrite~ oscilloscope;
#X msg 43 272 0;
#X obj 43 296 t b f, f 10;
#X obj 57 345 *~ 1000;
#X obj 88 176 dac~;
#X obj 103 149 *~ 0;
#X msg 128 114 0.1;
#X msg 162 114 0;
#X obj 114 438 dac~;
#X obj 129 411 *~ 0;
#X obj 57 373 clip~ -1 1;
#X obj 52 111 osc~ 400;
#X obj 57 318 osc~ 400;
#X msg 141 375 0.1;
#X msg 175 375 0;
#X obj 354 516 tabwrite~ oscilloscope;
#X msg 354 334 0;
#X obj 354 358 t b f, f 13;
#X obj 386 490 dac~;
#X obj 401 463 *~ 0;
#X msg 413 427 0.1;
#X msg 447 427 0;
#X obj 368 385 phasor~ 400;
#X obj 368 410 *~ 2;
#X obj 368 433 -~ 1;
#X obj 61 641 expr~ atan($v1);
#X obj 61 666 *~ 0.63662;
#X text 353 50 USING PHASOR AS A SOUND WAVEFORM;
#X text 41 29 SINE DISTORTION;
#X text 41 244 SQUARE WAVE BY CLIPPING;
#X obj 47 760 tabwrite~ oscilloscope;
#X msg 47 544 0;
#X obj 47 568 t b f, f 10;
#X obj 97 735 dac~;
#X obj 112 708 *~ 0;
#X msg 177 641 0.1;
#X msg 211 641 0;
#X obj 61 591 osc~ 400;
#X floatatom 106 613 5 0 0 0 - - -;
#X obj 61 616 *~ 10;
#X text 46 517 SOFT DISTORTION;
#X obj 356 290 tabwrite~ oscilloscope;
#X msg 356 89 0;
#X obj 356 113 t b f, f 13;
#X obj 388 264 dac~;
#X obj 403 237 *~ 0;
#X msg 415 201 0.1;
#X msg 449 201 0;
#X obj 370 145 phasor~ 400;
#X obj 370 170 cos~;
#X text 464 145 another sine wave;
#X text 464 391 sawtooth wave;
#X obj 354 836 tabwrite~ oscilloscope;
#X msg 354 564 0;
#X obj 354 588 t b f, f 13;
#X obj 386 810 dac~;
#X obj 401 783 *~ 0;
#X msg 413 747 0.1;
#X msg 447 747 0;
#X obj 368 615 phasor~ 400;
#X obj 368 688 abs~;
#X obj 368 639 *~ 2;
#X obj 368 663 -~ 1;
#X obj 368 712 *~ 2;
#X obj 368 736 -~ 1;
#X text 427 663 triangular wave;
#X connect 2 0 3 0;
#X connect 3 0 1 0;
#X connect 3 1 15 1;
#X connect 5 0 6 0;
#X connect 6 0 4 0;
#X connect 6 1 16 1;
#X connect 7 0 14 0;
#X connect 9 0 8 0;
#X connect 9 0 8 1;
#X connect 10 0 9 1;
#X connect 11 0 9 1;
#X connect 13 0 12 0;
#X connect 13 0 12 1;
#X connect 14 0 13 0;
#X connect 14 0 4 0;
#X connect 15 0 1 0;
#X connect 15 0 9 0;
#X connect 16 0 7 0;
#X connect 17 0 13 1;
#X connect 18 0 13 1;
#X connect 20 0 21 0;
#X connect 21 0 19 0;
#X connect 21 1 26 1;
#X connect 23 0 22 0;
#X connect 23 0 22 1;
#X connect 24 0 23 1;
#X connect 25 0 23 1;
#X connect 26 0 27 0;
#X connect 27 0 28 0;
#X connect 28 0 23 0;
#X connect 28 0 19 0;
#X connect 29 0 30 0;
#X connect 30 0 34 0;
#X connect 30 0 38 0;
#X connect 35 0 36 0;
#X connect 36 0 34 0;
#X connect 36 1 41 1;
#X connect 38 0 37 0;
#X connect 38 0 37 1;
#X connect 39 0 38 1;
#X connect 40 0 38 1;
#X connect 41 0 43 0;
#X connect 42 0 43 1;
#X connect 43 0 29 0;
#X connect 46 0 47 0;
#X connect 47 0 45 0;
#X connect 47 1 52 1;
#X connect 49 0 48 0;
#X connect 49 0 48 1;
#X connect 50 0 49 1;
#X connect 51 0 49 1;
#X connect 52 0 53 0;
#X connect 53 0 45 0;
#X connect 53 0 49 0;
#X connect 57 0 58 0;
#X connect 58 0 56 0;
#X connect 58 1 63 1;
#X connect 60 0 59 0;
#X connect 60 0 59 1;
#X connect 61 0 60 1;
#X connect 62 0 60 1;
#X connect 63 0 65 0;
#X connect 64 0 67 0;
#X connect 65 0 66 0;
#X connect 66 0 64 0;
#X connect 67 0 68 0;
#X connect 68 0 60 0;
#X connect 68 0 56 0;
