#N canvas 157 23 1010 687 24;
#X obj 287 -290 vsl 15 128 0 5000 0 0 empty empty CutOff 0 -8 0 8 -262144
-1 -1 9550 1;
#X obj 381 -289 vsl 15 128 5 50 0 0 empty empty Res 0 -8 0 8 -262144
-1 -1 4433 1;
#X obj 198 -292 vsl 15 128 0 1 0 0 empty empty ModEnv 0 -8 0 8 -262144
-1 -1 740 1;
#X obj 125 -292 vsl 15 128 0 500 0 0 empty empty Decay 0 -8 0 8 -262144
-1 -1 1250 1;
#X obj 1 -281 vsl 15 128 0 127 0 0 empty empty Velocity 0 -8 0 8 -262144
-1 -1 0 1;
#X floatatom 1 -143 5 0 0 0 - - -, f 5;
#X floatatom 111 -149 5 0 0 0 - - -, f 5;
#X floatatom 199 -149 5 0 0 0 - - -, f 5;
#X floatatom 287 -151 5 0 0 0 - - -, f 5;
#X floatatom 382 -149 5 0 0 0 - - -, f 5;
#X obj -181 -63 TB303;
#X obj -181 -238 tgl 15 0 empty empty empty 17 7 0 10 -262144 -1 -1
0 1;
#X text -213 -296 Saw 0;
#X text -213 -273 Square 1;
#X obj -77 -282 vsl 15 128 0 127 0 0 empty empty Note 0 -8 0 8 -262144
-1 -1 4500 1;
#X floatatom -77 -146 5 0 0 0 - - -, f 5;
#X msg 123 -345 100;
#X msg 196 -346 0.2;
#X msg 284 -346 2000;
#X msg 381 -343 20;
#X obj -181 -7 dac~;
#X obj -213 -572 tgl 15 0 empty empty empty 17 7 0 10 -262144 -1 -1
0 1;
#X obj -141 -568 hsl 128 15 100 300 0 0 empty empty empty -2 -8 0 10
-262144 -1 -1 2650 1;
#X floatatom -144 -547 5 0 0 0 - - -, f 5;
#X obj -212 -464 random 24;
#X obj -212 -422 + 24;
#X obj -28 -541 vsl 15 128 12 36 0 0 empty empty empty 0 -9 0 10 -262144
-1 -1 10450 1;
#X floatatom -29 -359 5 0 0 0 - - -, f 5;
#X text -148 -603 tempo (ms);
#X text 25 -404 tesitura base (12-36);
#X obj -212 -348 makenote;
#X obj 28 -454 * 0.9;
#X obj 33 -569 hsl 128 15 0.5 0.99 0 0 empty empty empty -2 -8 0 10
-262144 -1 -1 4850 1;
#X floatatom 31 -543 5 0 0 0 - - -, f 5;
#X text 25 -604 stacatto/legato;
#X msg -160 -385 100;
#X obj -28 -401 i;
#X obj 30 -501 t b f;
#X obj -212 -504 metro 200;
#X text 166 -494 You need to set some tempo to start!!;
#X connect 0 0 8 0;
#X connect 1 0 9 0;
#X connect 2 0 7 0;
#X connect 3 0 6 0;
#X connect 4 0 5 0;
#X connect 5 0 10 2;
#X connect 6 0 10 3;
#X connect 7 0 10 4;
#X connect 8 0 10 5;
#X connect 9 0 10 6;
#X connect 10 0 20 0;
#X connect 10 0 20 1;
#X connect 11 0 10 0;
#X connect 14 0 15 0;
#X connect 15 0 10 1;
#X connect 16 0 3 0;
#X connect 17 0 2 0;
#X connect 18 0 0 0;
#X connect 19 0 1 0;
#X connect 21 0 38 0;
#X connect 22 0 23 0;
#X connect 23 0 31 0;
#X connect 23 0 38 1;
#X connect 24 0 25 0;
#X connect 25 0 30 0;
#X connect 25 0 35 0;
#X connect 26 0 36 0;
#X connect 27 0 25 1;
#X connect 30 0 14 0;
#X connect 30 1 4 0;
#X connect 31 0 30 2;
#X connect 32 0 33 0;
#X connect 33 0 37 0;
#X connect 35 0 30 1;
#X connect 36 0 27 0;
#X connect 37 0 31 0;
#X connect 37 1 31 1;
#X connect 38 0 24 0;
