#N canvas 84 30 1280 688 24;
#X obj 218 109 vsl 15 128 0 1000 0 0 empty Square Square 0 -8 0 8 -262144
-1 -1 0 1;
#X floatatom 218 244 5 0 0 0 - - -, f 5;
#X floatatom 178 27 5 0 0 0 - - -, f 5;
#X obj 87 320 clip~ -1 1;
#X obj -64 465 vcf~;
#X floatatom 904 15 5 0 0 0 - - -, f 5;
#X obj 414 89 sel 0;
#X obj -64 508 *~;
#X floatatom 414 131 5 0 0 0 - - -, f 5;
#X floatatom 414 49 5 0 0 0 - - -, f 5;
#X floatatom 496 130 5 0 0 0 - - -, f 5;
#X floatatom 555 21 5 0 0 0 - - -, f 5;
#X floatatom 738 21 7 0 0 0 - - -, f 7;
#X obj 413 320 *~ 2000;
#X floatatom 644 22 5 0 0 0 - - -, f 5;
#X obj 413 408 +~;
#X text 606 206 Amplitude Envelop;
#X obj 354 210 adsr 2 5 30 50 10;
#X obj -66 230 phasor~;
#X obj 413 362 *~;
#X floatatom -65 29 5 0 0 0 - - -, f 5;
#X obj -64 72 sel 0;
#X msg -64 160 0;
#X msg -3 161 1;
#X msg 62 161 0;
#X msg 125 162 1;
#X obj -65 364 *~;
#X obj 87 361 *~;
#X obj -65 -16 inlet;
#X obj 555 -21 inlet;
#X obj 643 -22 inlet;
#X obj 738 -23 inlet;
#X obj 905 -28 inlet;
#X obj -64 553 outlet~;
#X obj 178 -18 inlet;
#X obj 414 -15 inlet;
#X text 17 -19 saw/square;
#X text 263 -18 MIDI Note;
#X text 313 -56 MIDI vel (0-127);
#X obj 88 232 osc~;
#X msg 217 64 1000;
#X text 631 275 Filter Envelop;
#X obj 413 275 adsr 2 5 30 0 0;
#X text 640 -57 ModEnv;
#X text 734 -58 CutOff freq;
#X text 900 -63 Resonance;
#X obj -66 272 *~ 2;
#X obj -65 316 -~ 1;
#X text 551 -57 Decay;
#X text 151 473 la TB303 tenía control de: - 2 formas de onda opcionales
(Saw/Square) (con 0-1) - Decay (ms) - ModEnv: en q medida la envolvente
modula el filtro - CutOff freq: freq base q se añade a la del la envolv
- Resonancia;
#X text 542 323 ponemos 2(>1) para tener + distorsión en el Attack
;
#X obj 88 279 *~ 1000;
#X connect 0 0 1 0;
#X connect 1 0 51 1;
#X connect 2 0 39 0;
#X connect 2 0 18 0;
#X connect 3 0 27 0;
#X connect 4 0 7 0;
#X connect 5 0 4 2;
#X connect 6 0 8 0;
#X connect 6 1 10 0;
#X connect 7 0 33 0;
#X connect 8 0 17 0;
#X connect 8 0 42 0;
#X connect 9 0 6 0;
#X connect 10 0 17 0;
#X connect 10 0 42 0;
#X connect 11 0 17 3;
#X connect 11 0 42 3;
#X connect 12 0 15 1;
#X connect 13 0 19 0;
#X connect 14 0 19 1;
#X connect 15 0 4 1;
#X connect 17 0 7 1;
#X connect 18 0 46 0;
#X connect 19 0 15 0;
#X connect 20 0 21 0;
#X connect 21 0 22 0;
#X connect 21 0 23 0;
#X connect 21 1 24 0;
#X connect 21 1 25 0;
#X connect 22 0 27 1;
#X connect 23 0 26 1;
#X connect 24 0 26 1;
#X connect 25 0 27 1;
#X connect 26 0 4 0;
#X connect 27 0 4 0;
#X connect 28 0 20 0;
#X connect 29 0 11 0;
#X connect 30 0 14 0;
#X connect 31 0 12 0;
#X connect 32 0 5 0;
#X connect 34 0 2 0;
#X connect 35 0 9 0;
#X connect 39 0 51 0;
#X connect 40 0 0 0;
#X connect 42 0 13 0;
#X connect 46 0 47 0;
#X connect 47 0 26 0;
#X connect 51 0 3 0;
