#N canvas 0 23 1160 687 24;
#X floatatom 272 178 5 0 24 0 - p1 -, f 5;
#X floatatom 355 178 5 0 24 0 - p2 -, f 5;
#X floatatom 436 179 5 0 24 0 - p3 -, f 5;
#X floatatom 518 180 5 0 24 0 - p4 -, f 5;
#X floatatom 600 180 5 0 24 0 - p5 -, f 5;
#X floatatom 681 180 5 0 24 0 - p6 -, f 5;
#X floatatom 763 180 5 0 24 0 - p5 -, f 5;
#X floatatom 852 183 5 0 24 0 - p7 -, f 5;
#X obj 115 628 dac~;
#X obj 135 288 bng 15 250 50 0 empty empty empty 0 -6 0 8 -262144 -1
-1;
#X obj 173 287 bng 15 250 50 0 empty empty empty 0 -6 0 8 -262144 -1
-1;
#X obj 211 288 bng 15 250 50 0 empty empty empty 0 -6 0 8 -262144 -1
-1;
#X obj 249 287 bng 15 250 50 0 empty empty empty 0 -6 0 8 -262144 -1
-1;
#X obj 286 288 bng 15 250 50 0 empty empty empty 0 -6 0 8 -262144 -1
-1;
#X obj 325 289 bng 15 250 50 0 empty empty empty 0 -6 0 8 -262144 -1
-1;
#X obj 363 286 bng 15 250 50 0 empty empty empty 0 -6 0 8 -262144 -1
-1;
#X obj 401 288 bng 15 250 50 0 empty empty empty 0 -6 0 8 -262144 -1
-1;
#X obj 136 12 tgl 30 0 empty empty empty 0 -6 0 8 -262144 -1 -1 0 1
;
#X floatatom 259 9 5 20 2000 0 - - -, f 5;
#X obj 224 92 + 1;
#X obj 136 168 % 8;
#X floatatom 136 207 5 0 0 0 - - -, f 5;
#X text 333 12 Generate bang messages at specified intervals;
#X text 281 93 Count from 1 to 8 in a loop;
#X text 491 243 Dispatch beat numbers 1 to 8;
#X obj 134 416 + 0;
#X obj 134 458 mtof;
#X floatatom 136 129 5 0 0 0 - - -, f 5;
#X floatatom 39 317 5 0 36 0 - - -, f 5;
#X text -21 282 transpose;
#X obj 134 337 f;
#X obj 186 337 f;
#X obj 238 337 f;
#X obj 290 337 f;
#X obj 341 337 f;
#X obj 393 337 f;
#X obj 445 337 f;
#X obj 497 337 f;
#X msg 700 346 bang;
#N canvas 0 22 1165 555 randomize 0;
#X obj 131 16 inlet;
#X obj 28 95 random 24;
#X obj 170 95 random 24;
#X obj 308 96 random 24;
#X obj 450 96 random 24;
#X obj 28 146 random 24;
#X obj 170 146 random 24;
#X obj 308 147 random 24;
#X obj 450 147 random 24;
#X obj 37 230 s p1;
#X obj 102 230 s p2;
#X obj 167 230 s p3;
#X obj 232 230 s p4;
#X obj 299 231 s p5;
#X obj 362 231 s p6;
#X obj 427 231 s p7;
#X obj 492 231 s p8;
#X connect 0 0 1 0;
#X connect 0 0 5 0;
#X connect 0 0 2 0;
#X connect 0 0 6 0;
#X connect 0 0 3 0;
#X connect 0 0 7 0;
#X connect 0 0 4 0;
#X connect 0 0 8 0;
#X connect 1 0 9 0;
#X connect 2 0 11 0;
#X connect 3 0 13 0;
#X connect 4 0 15 0;
#X connect 5 0 10 0;
#X connect 6 0 12 0;
#X connect 7 0 14 0;
#X connect 8 0 16 0;
#X restore 699 422 pd randomize;
#X obj 133 568 *~ 0.9;
#X obj 133 516 TB303;
#X obj 65 484 tgl 15 0 empty empty empty 17 7 0 10 -262144 -1 -1 1
1;
#X obj 135 246 select 0 1 2 3 4 5 6 7;
#X obj 645 531 vsl 15 128 0 5000 0 0 empty empty CutOff 0 -8 0 8 -262144
-1 -1 5080 1;
#X obj 739 532 vsl 15 128 5 50 0 0 empty empty Res 0 -8 0 8 -262144
-1 -1 4233 1;
#X obj 556 529 vsl 15 128 0 1 0 0 empty empty ModEnv 0 -8 0 8 -262144
-1 -1 2540 1;
#X obj 483 529 vsl 15 128 0 500 0 0 empty empty Decay 0 -8 0 8 -262144
-1 -1 2540 1;
#X obj 382 532 vsl 15 128 0 127 0 0 empty empty Velocity 0 -8 0 8 -262144
-1 -1 10000 1;
#X floatatom 382 670 5 0 0 0 - - -, f 5;
#X floatatom 469 672 5 0 0 0 - - -, f 5;
#X floatatom 557 672 5 0 0 0 - - -, f 5;
#X floatatom 645 670 5 0 0 0 - - -, f 5;
#X floatatom 740 672 5 0 0 0 - - -, f 5;
#X msg 481 476 100;
#X msg 554 475 0.2;
#X msg 642 475 2000;
#X msg 739 478 20;
#X msg 380 478 bang;
#X obj 136 50 metro 130;
#X msg 381 426 100;
#X obj 136 91 i;
#X connect 0 0 30 1;
#X connect 1 0 31 1;
#X connect 2 0 32 1;
#X connect 3 0 33 1;
#X connect 4 0 34 1;
#X connect 5 0 35 1;
#X connect 6 0 36 1;
#X connect 7 0 37 1;
#X connect 9 0 30 0;
#X connect 10 0 31 0;
#X connect 11 0 32 0;
#X connect 12 0 33 0;
#X connect 13 0 34 0;
#X connect 14 0 35 0;
#X connect 15 0 36 0;
#X connect 16 0 37 0;
#X connect 17 0 59 0;
#X connect 18 0 59 1;
#X connect 19 0 61 1;
#X connect 20 0 21 0;
#X connect 21 0 43 0;
#X connect 25 0 26 0;
#X connect 26 0 41 1;
#X connect 26 0 58 0;
#X connect 27 0 20 0;
#X connect 28 0 25 1;
#X connect 30 0 25 0;
#X connect 31 0 25 0;
#X connect 32 0 25 0;
#X connect 33 0 25 0;
#X connect 34 0 25 0;
#X connect 35 0 25 0;
#X connect 36 0 25 0;
#X connect 37 0 25 0;
#X connect 38 0 39 0;
#X connect 40 0 8 0;
#X connect 40 0 8 1;
#X connect 41 0 40 0;
#X connect 42 0 41 0;
#X connect 43 0 9 0;
#X connect 43 1 10 0;
#X connect 43 2 11 0;
#X connect 43 3 12 0;
#X connect 43 4 13 0;
#X connect 43 5 14 0;
#X connect 43 6 15 0;
#X connect 43 7 16 0;
#X connect 44 0 52 0;
#X connect 45 0 53 0;
#X connect 46 0 51 0;
#X connect 47 0 50 0;
#X connect 48 0 49 0;
#X connect 49 0 41 2;
#X connect 50 0 41 3;
#X connect 51 0 41 4;
#X connect 52 0 41 5;
#X connect 53 0 41 6;
#X connect 54 0 47 0;
#X connect 55 0 46 0;
#X connect 56 0 44 0;
#X connect 57 0 45 0;
#X connect 58 0 48 0;
#X connect 59 0 61 0;
#X connect 60 0 48 0;
#X connect 61 0 19 0;
#X connect 61 0 27 0;
