#N canvas 576 186 584 470 10;
#X obj 109 79 drip;
#X obj 109 103 % 12;
#X floatatom 118 130 5 0 0 0 - - -;
#X obj 109 154 t f f;
#X obj 136 183 pack f f;
#X obj 136 254 coll chain;
#C restore;
#X msg 39 185 open;
#X msg 80 185 clear;
#X msg 136 210 merge \$1 \$2;
#X obj 323 92 coll chain;
#C restore;
#X msg 323 64 5;
#X obj 350 146 list length;
#X floatatom 363 170 5 0 0 0 - - -;
#X obj 342 217 random;
#X obj 342 242 + 1;
#X obj 321 270 packel;
#X obj 323 122 t a b a;
#X obj 321 310 f;
#X obj 409 263 metro 500;
#X obj 321 351 s nextnote;
#X obj 356 64 r nextnote;
#X obj 235 423 print note;
#X obj 409 210 tgl 15 0 empty empty empty 17 7 0 10 -262144 -1 -1 0
1;
#X floatatom 368 269 5 0 0 0 - - -;
#X obj 481 104 bpm;
#X obj 438 66 hsl 128 15 60 250 0 0 empty empty empty -2 -8 0 10 -262144
-1 -1 0 1;
#X obj 481 158 t b f;
#X floatatom 488 136 5 0 0 0 - - -;
#X floatatom 445 104 5 0 0 0 - - -;
#X obj 418 238 spigot;
#X obj 141 295 hradio 15 1 0 8 empty empty empty 0 -8 0 10 -262144
-1 -1 5;
#X obj 222 325 * 12;
#X obj 235 357 + 0;
#X obj 143 325 knob 32 32 0 11 0 0 empty empty empty 0 -8 0 8 -262144
-1 -1 1100 1;
#X obj 235 390 + 0;
#X text 77 294 OCTAVE;
#X text 69 334 TRANSPOSE;
#X floatatom 146 388 5 0 0 0 - - -;
#X obj 204 362 i;
#X msg 338 400 \$1 100;
#X obj 435 13 loadbang;
#X msg 435 36 120;
#X obj 39 150 loadbang;
#X text 302 41 INITIAL NOTE;
#X text 106 33 CORPUS;
#X text 5 3 SIMPLE MARKOV MELODY ANALYSIS/GENERATION EXAMPLE;
#X obj 338 422 noteout 1;
#X msg 109 52 5 9 2 9 9 4 9 5 9 2 9 1 9;
#N canvas 632 290 476 533 melody 0;
#X msg 46 -1563 76 75 76 75 76 71 74 72 69 45 52 57 60 64 69 71 40
52 56 64 68 71 72 45 52 57 64 76 75 76 75 76 71 74 72 69 45 52 57 60
64 69 71 40 52 56 64 72 71 69 45 52 57 76 75 76 75 76 71 74 72 69 45
52 57 60 64 69 71 40 52 56 64 68 71 72 45 52 57 64 76 75 76 75 76 71
74 72 69 45 52 57 60 64 69 71 40 52 56 64 72 71 69 45 52 57 71 72 74
76 48 55 60 67 77 76 74 43 55 59 65 76 74 72 45 52 57 64 74 72 71 40
52 64 64 76 64 76 76 88 75 76 75 76 75 76 71 74 72 69 45 52 57 60 64
69 71 40 52 56 64 68 71 72 45 52 57 64 76 75 76 75 76 71 74 72 69 45
52 57 60 64 69 71 40 52 56 64 72 71 69 45 52 57 71 72 74 76 48 55 60
67 77 76 74 43 55 59 65 76 74 72 45 52 57 64 74 72 71 40 52 64 64 76
64 76 76 88 75 76 75 76 75 76 71 74 72 69 45 52 57 60 64 69 71 40 52
56 64 68 71 72 45 52 57 64 76 75 76 75 76 71 74 72 69 45 52 57 60 64
69 71 40 52 56 64 72 71 69 45 52 57 58 60 64 72 60 57 65 72 58 60 55
64 72 67 72 53 57 60 57 60 77 57 76 76 53 58 74 62 58 62 82 58 81 81
53 79 64 77 58 55 53 76 64 74 58 55 53 72 64 70 53 57 69 60 57 69 60
67 69 57 70 72 53 57 60 57 74 60 75 57 76 52 57 60 76 57 77 62 50 69
53 72 55 64 55 64 74 55 65 71 72 60 64 79 67 79 69 79 71 67 65 79 72
67 64 79 74 67 65 62 79 76 60 64 67 79 84 83 81 53 57 79 77 74 72 55
59 79 77 74 72 60 79 67 79 69 79 71 67 65 79 72 67 64 79 74 67 65 62
79 76 60 64 67 79 84 83 81 53 57 79 77 76 74 55 59 79 77 74 76 56 59
77 76 75 76 71 76 75 76 71 76 75 76 71 76 75 76 71 76 75 76 75 76 75
76 75 76 75 76 71 74 72 69 45 52 57 60 64 69 71 40 52 56 64 68 71 72
45 52 57 64 76 75 76 75 76 71 74 72 69 45 52 57 60 64 69 71 40 52 56
64 72 71 69 45 52 57 76 75 76 75 76 71 74 72 69 45 52 57 60 64 69 71
40 52 56 64 68 71 72 45 52 57 64 76 75 76 75 76 71 74 72 69 45 52 57
60 64 69 71 40 52 56 64 72 71 69 45 52 57 71 72 74 76 48 55 60 67 77
76 74 43 55 59 65 76 74 72 45 52 57 64 74 72 71 40 52 64 64 76 64 76
76 88 75 76 75 76 75 76 71 74 72 69 45 52 57 60 64 69 71 40 52 56 64
68 71 72 45 52 57 64 76 75 76 75 76 71 74 72 69 45 52 57 60 64 69 71
40 52 56 64 72 71 45 69 45 45 45 45 45 45 64 67 70 73 45 45 45 45 45
45 74 65 69 45 45 45 45 73 76 45 74 77 45 77 74 68 45 45 45 45 77 74
68 45 45 69 72 76 45 45 45 45 45 45 38 74 65 45 38 45 38 45 38 45 38
72 64 45 38 71 62 39 45 60 66 69 45 39 45 39 45 39 45 60 69 39 45 39
45 40 69 60 45 40 45 40 72 64 45 40 44 40 71 62 44 40 45 33 69 60 45
45 45 45 45 45 64 67 70 73 45 45 45 45 45 45 74 69 65 45 45 45 45 73
76 45 74 77 45 74 77 45 45 45 45 74 77 45 46 77 74 46 46 46 46 46 46
75 67 46 46 46 46 74 65 46 72 63 46 70 65 62 46 46 46 46 62 65 69 46
47 62 65 68 47 47 47 47 62 65 68 47 60 64 69 48 71 64 65 52 56 60 60
64 69 72 76 74 57 60 64 72 71 69 64 60 57 72 76 81 84 88 86 64 60 57
84 83 81 64 60 57 84 88 93 96 100 98 57 60 64 96 95 94 64 60 57 93
92 91 90 89 88 87 86 85 84 83 82 81 80 79 78 77 76 75 76 71 74 72 69
45 52 57 60 64 69 71 40 52 56 64 68 71 72 45 52 57 64 76 75 76 75 76
71 74 72 69 45 52 57 60 64 69 71 40 52 56 64 72 71 69 45 52 57 71 72
74 76 48 55 60 67 77 76 74 43 55 59 65 76 74 72 45 52 57 64 74 72 71
40 52 64 64 76 64 76 76 88 75 76 75 76 75 76 71 74 72 69 45 52 57 60
64 69 71 40 52 56 64 68 71 72 45 52 57 64 76 75 76 75 76 71 74 72 69
45 52 57 60 64 69 71 40 52 56 64 72 71 60 69 45 33;
#X obj 47 -851 outlet;
#X obj 46 -1590 inlet;
#X connect 0 0 1 0;
#X connect 2 0 0 0;
#X restore 29 53 pd melody;
#X msg 29 30 bang;
#X connect 0 0 1 0;
#X connect 1 0 2 0;
#X connect 1 0 3 0;
#X connect 3 0 4 1;
#X connect 3 1 4 0;
#X connect 4 0 8 0;
#X connect 6 0 5 0;
#X connect 7 0 5 0;
#X connect 8 0 5 0;
#X connect 9 0 16 0;
#X connect 10 0 9 0;
#X connect 11 0 12 0;
#X connect 11 0 13 1;
#X connect 13 0 14 0;
#X connect 14 0 15 1;
#X connect 14 0 23 0;
#X connect 15 0 17 1;
#X connect 16 0 15 0;
#X connect 16 1 13 0;
#X connect 16 2 11 0;
#X connect 17 0 19 0;
#X connect 17 0 32 0;
#X connect 18 0 17 0;
#X connect 20 0 9 0;
#X connect 22 0 18 0;
#X connect 22 0 29 1;
#X connect 24 0 26 0;
#X connect 24 0 27 0;
#X connect 25 0 24 0;
#X connect 25 0 28 0;
#X connect 26 0 29 0;
#X connect 26 1 18 1;
#X connect 29 0 18 0;
#X connect 30 0 31 0;
#X connect 31 0 32 1;
#X connect 32 0 34 0;
#X connect 33 0 37 0;
#X connect 33 0 38 0;
#X connect 34 0 21 0;
#X connect 34 0 39 0;
#X connect 38 0 34 1;
#X connect 39 0 46 0;
#X connect 40 0 41 0;
#X connect 41 0 25 0;
#X connect 42 0 7 0;
#X connect 47 0 0 0;
#X connect 48 0 0 0;
#X connect 49 0 48 0;
