#N canvas 289 138 749 476 12;
#X obj 300 167 float 1;
#X floatatom 300 199 5 0 0 0 - - -;
#X obj 300 62 bng 15 250 50 0 empty empty empty 17 7 0 10 -262144 -1
-1;
#X text 326 60 =;
#X msg 348 59 bang;
#X floatatom 219 114 5 0 0 0 - - -;
#X floatatom 412 109 5 0 0 0 - - -;
#X text 359 166 passive (cold);
#X text 199 168 active (hot);
#X text 401 60 OUTPUT RESULT;
#X obj 300 382 +, f 22;
#X floatatom 300 420 5 0 0 0 - - -;
#X floatatom 474 334 5 0 0 0 - - -;
#X floatatom 235 335 5 0 0 0 - - -;
#X msg 343 291 bang;
#X text 392 292 EXECUTE;
#X text 89 358 SET and EXECUTE;
#X text 459 110 SET;
#X text 53 114 SET + OUTPUT RESULT;
#X text 526 332 SET 2nd operator (passive);
#X text 46 334 SET 1st operator (active);
#X text 300 20 STORAGE AND SIMPLE OPERATIONS;
#X text 338 240 SAME BASIC BEHAVIOUR IN ALL PD OBJECTS;
#X connect 0 0 1 0;
#X connect 1 0 10 0;
#X connect 2 0 0 0;
#X connect 4 0 0 0;
#X connect 5 0 0 0;
#X connect 6 0 0 1;
#X connect 10 0 11 0;
#X connect 12 0 10 1;
#X connect 13 0 10 0;
#X connect 14 0 10 0;
