#N canvas 202 23 546 304 12;
#X text 41 21 THE COUNTER: STORE AND ADD!;
#X floatatom 42 86 5 0 0 0 - - -;
#X floatatom 84 241 5 0 0 0 - - -;
#X obj 84 153 int;
#X msg 192 88 bang;
#X text 192 65 EXECUTE;
#X text 38 61 SET + EXECUTE;
#X obj 182 193 + 1;
#X text 218 194 it always adds one to the previous value!;
#X connect 1 0 3 0;
#X connect 3 0 2 0;
#X connect 3 0 7 0;
#X connect 4 0 3 0;
#X connect 7 0 3 1;
