#N canvas 178 101 503 497 12;
#X obj 65 217 metro 1000;
#X obj 65 60 tgl 15 0 empty empty empty 17 7 0 10 -262144 -1 -1 0 1
;
#X floatatom 132 93 5 0 0 0 - - -;
#X obj 132 193 /, f 18;
#X obj 132 168 * 1000;
#X text 175 92 bmp;
#X obj 132 143 float 60;
#X obj 132 118 trigger bang float;
#X text 86 57 start/stop;
#X obj 65 248 int;
#X obj 102 249 + 1;
#X obj 65 338 mod 8;
#X floatatom 75 277 5 0 0 0 - - -;
#X floatatom 65 364 5 0 0 0 - - -;
#X obj 65 390 hradio 15 1 0 8 empty empty empty 0 -8 0 10 -262144 -1
-1 6;
#X text 114 339 THIS IS THE STEP SEQUENCER / LOOPER!;
#X floatatom 97 309 5 0 0 0 - - -;
#X text 140 309 NUMBER OF STEPS;
#X text 70 414 what time of musical time does this represent?;
#X text 59 22 BASIC STEP SEQUENCER;
#X connect 0 0 9 0;
#X connect 1 0 0 0;
#X connect 2 0 7 0;
#X connect 3 0 0 1;
#X connect 4 0 3 0;
#X connect 6 0 4 0;
#X connect 7 0 6 0;
#X connect 7 1 3 1;
#X connect 9 0 10 0;
#X connect 9 0 12 0;
#X connect 9 0 11 0;
#X connect 10 0 9 1;
#X connect 11 0 13 0;
#X connect 13 0 14 0;
#X connect 16 0 11 1;
