#N canvas 263 172 828 544 12;
#X obj 60 319 metro 1000;
#X obj 60 294 tgl 15 0 empty empty empty 17 7 0 10 -262144 -1 -1 0
1;
#X floatatom 176 131 5 0 0 0 - - -;
#X obj 176 231 /, f 18;
#X obj 176 206 * 1000;
#X text 219 130 bmp;
#X obj 176 181 float 60;
#X obj 176 156 trigger bang float;
#X obj 60 344 int;
#X obj 97 345 + 1;
#X obj 206 389 mod 8;
#X floatatom 206 415 5 0 0 0 - - -;
#X obj 206 441 hradio 15 1 0 16 empty empty empty 0 -8 0 10 -262144
-1 -1 3;
#X obj 127 291 * 0.25, f 18;
#X text 470 37 crotchets (fourths);
#X text 473 62 quaver (eigths);
#X text 470 88 quaver triplets (eigths triplets);
#X text 472 112 semiquavers (sixteenths);
#X text 436 12 TIME-STEP RESOLUTIONS;
#X obj 176 256 trigger bang float;
#X floatatom 150 319 5 0 0 0 - - -;
#X msg 438 38 4;
#X msg 438 63 8;
#X msg 438 112 16;
#X msg 438 88 12;
#X obj 34 116 / 4;
#X floatatom 46 140 5 0 0 0 - - -;
#X obj 34 217 /, f 18;
#X obj 34 165 trigger bang float;
#X floatatom 33 242 5 0 0 0 - - -;
#X obj 34 191 float 1;
#X text 23 39 DIFFERENT TIME-RESOLUTIONS;
#X connect 0 0 8 0;
#X connect 1 0 0 0;
#X connect 2 0 7 0;
#X connect 3 0 19 0;
#X connect 4 0 3 0;
#X connect 6 0 4 0;
#X connect 7 0 6 0;
#X connect 7 1 3 1;
#X connect 8 0 9 0;
#X connect 8 0 10 0;
#X connect 9 0 8 1;
#X connect 10 0 11 0;
#X connect 11 0 12 0;
#X connect 13 0 0 1;
#X connect 13 0 20 0;
#X connect 19 0 13 0;
#X connect 19 1 13 1;
#X connect 21 0 10 1;
#X connect 21 0 25 0;
#X connect 22 0 10 1;
#X connect 22 0 25 0;
#X connect 23 0 10 1;
#X connect 23 0 25 0;
#X connect 24 0 10 1;
#X connect 24 0 25 0;
#X connect 25 0 26 0;
#X connect 25 0 28 0;
#X connect 27 0 29 0;
#X connect 28 0 30 0;
#X connect 28 1 27 1;
#X connect 29 0 13 0;
#X connect 30 0 27 0;
