#N canvas 55 65 686 1016 12;
#X obj 72 202 metro 1000;
#X obj 72 175 tgl 15 0 empty empty empty 17 7 0 10 -262144 -1 -1 0
1;
#X floatatom 139 82 5 0 0 0 - - -;
#X obj 139 178 /, f 18;
#X obj 139 130 f 60;
#X text 182 81 bmp;
#X obj 139 105 t b f, f 18;
#X obj 72 486 osc~ 440;
#X obj 54 964 dac~;
#X obj 529 882 line~;
#X obj 67 936 *~;
#X msg 529 857 \$1 1000;
#X obj 529 831 dbtorms;
#X obj 532 787 hsl 128 15 0 100 0 0 empty empty empty -2 -8 0 10 -262144
-1 -1 0 1;
#X floatatom 536 808 5 0 0 0 - - -;
#X obj 72 440 mtof;
#X obj 256 867 line~;
#X obj 67 907 *~;
#X obj 72 462 trigger float bang;
#X text 124 339 GOOD FOR PROTOTYPING!;
#X obj 72 315 random 12;
#X text 34 363 random notes in the middle octave!;
#X floatatom 162 211 5 0 0 0 - - -;
#X text 204 211 step duration in ms.;
#X floatatom 358 286 5 1 100 0 - - -;
#X obj 347 343 * 50;
#X floatatom 358 397 5 0 0 0 - - -;
#X obj 310 314 / 100;
#X text 358 264 duration control in %;
#X msg 139 56 120;
#X obj 139 32 loadbang;
#X obj 359 311 t b f;
#X text 401 284 (check inside object!);
#X text 485 449 (check inside object!);
#X text 491 424 peak position in %;
#X obj 347 576 -, f 17;
#X text 401 398 event total duration in ms.;
#X floatatom 442 425 5 1 99 0 - - -;
#X obj 430 491 * 50;
#X obj 394 451 / 100;
#X obj 443 450 t b f;
#X obj 430 545 t b f;
#X obj 347 601 t f f, f 10;
#X floatatom 450 618 5 0 0 0 - - -;
#X obj 348 626 - 500;
#X obj 347 652 * -1;
#X obj 203 752 delay;
#X obj 256 842 pack f f;
#X msg 295 760 1;
#X msg 203 803 0;
#X obj 395 809 float;
#X obj 347 711 float;
#X obj 203 777 t b b;
#X text 211 30 initialises patch;
#X obj 139 153 * 250;
#X obj 195 489 t b b b;
#X obj 347 424 t f f;
#X floatatom 453 669 5 0 0 0 - - -;
#X text 495 670 ATTACK;
#X obj 347 680 t f f;
#X obj 345 369 max 1.5;
#X obj 432 517 max 1.5;
#X text 497 617 RELEASE!;
#X text 137 7 TEMPO DEPENDENT ENVELOPE;
#X obj 72 338 + 48;
#X connect 0 0 20 0;
#X connect 1 0 0 0;
#X connect 2 0 6 0;
#X connect 3 0 0 1;
#X connect 3 0 22 0;
#X connect 3 0 27 0;
#X connect 4 0 54 0;
#X connect 6 0 4 0;
#X connect 6 1 3 1;
#X connect 7 0 17 0;
#X connect 9 0 10 1;
#X connect 10 0 8 0;
#X connect 10 0 8 1;
#X connect 11 0 9 0;
#X connect 12 0 11 0;
#X connect 13 0 12 0;
#X connect 13 0 14 0;
#X connect 15 0 18 0;
#X connect 16 0 17 1;
#X connect 17 0 10 0;
#X connect 18 0 7 0;
#X connect 18 1 55 0;
#X connect 20 0 64 0;
#X connect 24 0 31 0;
#X connect 25 0 60 0;
#X connect 27 0 25 0;
#X connect 29 0 2 0;
#X connect 30 0 29 0;
#X connect 31 0 25 0;
#X connect 31 1 25 1;
#X connect 35 0 42 0;
#X connect 37 0 40 0;
#X connect 38 0 61 0;
#X connect 39 0 38 0;
#X connect 40 0 38 0;
#X connect 40 1 38 1;
#X connect 41 0 35 0;
#X connect 41 1 35 1;
#X connect 42 0 44 0;
#X connect 42 1 43 0;
#X connect 42 1 50 1;
#X connect 44 0 45 0;
#X connect 45 0 59 0;
#X connect 45 0 57 0;
#X connect 46 0 52 0;
#X connect 47 0 16 0;
#X connect 48 0 47 0;
#X connect 49 0 47 0;
#X connect 50 0 47 1;
#X connect 51 0 47 1;
#X connect 52 0 49 0;
#X connect 52 1 50 0;
#X connect 54 0 3 0;
#X connect 55 0 46 0;
#X connect 55 1 48 0;
#X connect 55 2 51 0;
#X connect 56 0 35 0;
#X connect 56 1 39 0;
#X connect 56 1 44 1;
#X connect 59 0 46 1;
#X connect 59 1 51 1;
#X connect 60 0 26 0;
#X connect 60 0 56 0;
#X connect 61 0 41 0;
#X connect 64 0 15 0;
