#N canvas 586 31 446 452 10;
#X declare -stdlib py -stdpath cyclone -stdpath unauthorized;
#X obj 205 15 unauthorized/grid grid1 200 0 8 200 0 7 1 1 1 8 7 317
142;
#X obj 40 254 py chord_dictionary readdict;
#X obj 18 26 declare -stdlib py -stdpath cyclone -stdpath unauthorized
, f 21;
#X msg 40 229 reload;
#X obj 19 306 zexy/drip;
#X obj 19 375 pack 0 0, f 16;
#X obj 19 284 list;
#X obj 19 399 noteout;
#X obj 19 329 + 60;
#N canvas 0 22 450 300 gutis 0;
#X obj 46 119 pack f f, f 38;
#X obj 239 71 change -1;
#X obj 239 93 t b f;
#X obj 46 94 change -1;
#X obj 46 30 int;
#X obj 239 29 int;
#X obj 141 182 list-abs/list-compare;
#X obj 108 227 spigot;
#X obj 46 142 t l l l, f 38;
#X obj 141 204 == 0;
#X obj 108 248 cyclone/speedlim 1000;
#X obj 46 52 clip 0 8;
#X obj 239 50 clip 0 7;
#X obj 46 8 inlet;
#X obj 239 7 inlet;
#X obj 108 270 outlet, f 32;
#X connect 0 0 8 0;
#X connect 1 0 2 0;
#X connect 2 0 0 0;
#X connect 2 1 0 1;
#X connect 3 0 0 0;
#X connect 4 0 11 0;
#X connect 5 0 12 0;
#X connect 6 0 9 0;
#X connect 7 0 10 0;
#X connect 8 0 7 0;
#X connect 8 1 6 1;
#X connect 8 2 6 0;
#X connect 9 0 7 1;
#X connect 10 0 15 0;
#X connect 11 0 3 0;
#X connect 12 0 1 0;
#X connect 13 0 4 0;
#X connect 14 0 5 0;
#X restore 205 229 pd gutis;
#X obj 84 284 prepend set;
#X msg 84 306 0 4 7;
#X obj 19 202 sel 0 5;
#X obj 19 352 makenote 120 400;
#X msg 19 153 connect \$1;
#X obj 19 177 abl_link~ 2 0 4 85;
#X obj 19 76 tgl 15 0 empty empty empty 17 7 0 10 -262144 -1 -1 0 1
;
#X obj 2 134 tgl 15 0 empty empty empty 17 7 0 10 -262144 -1 -1 0 1
;
#X msg 19 97 reset 0 4 \; pd dsp \$1;
#X connect 0 0 9 0;
#X connect 0 1 9 1;
#X connect 1 0 6 1;
#X connect 1 0 10 0;
#X connect 3 0 1 0;
#X connect 4 0 8 0;
#X connect 5 0 7 0;
#X connect 6 0 4 0;
#X connect 8 0 13 0;
#X connect 9 0 1 1;
#X connect 10 0 11 0;
#X connect 12 0 6 0;
#X connect 12 1 6 0;
#X connect 13 0 5 0;
#X connect 13 1 5 1;
#X connect 14 0 15 0;
#X connect 15 0 12 0;
#X connect 16 0 18 0;
#X connect 17 0 14 0;
#X connect 18 0 15 0;
