#N canvas 296 127 524 231 10;
#X obj 3 -12 cnv 15 210 148 empty empty empty 20 12 0 14 -233017 -66577
0;
#X text 7 -8 args:;
#X text 5 33 2 partial number;
#X text 5 13 1 ID;
#X text 5 53 3 frequency variation range (Hz.);
#X text 5 73 4 relative amplitude;
#X text 5 93 5 amplitude variation range (dB.);
#X floatatom 221 -9 5 0 0 0 - #0-fundamental_p #0-fundamental;
#X text 256 11 number of partials;
#X floatatom 221 10 5 0 0 0 - #0-numPartials_p #0-numPartials;
#X floatatom 221 29 5 0 0 0 - #0-maxPartials_p #0-maxPartials;
#X floatatom 221 48 5 0 0 0 - #0-mfd_p #0-mfd;
#X floatatom 221 67 5 0 0 2 - #0-pad_p #0-pad;
#X floatatom 221 86 5 0 0 0 - #0-arad_p #0-arad;
#X obj 221 106 bng 30 250 50 0 \$0-create empty empty 17 7 0 10 -262144
-1 -1;
#X text 256 110 create!;
#X text 256 30 highest partial;
#X text 256 87 average relative amplitude deviation (dB);
#X text 256 49 max frequency deviation (Hz);
#X text 256 68 partial/amplitude deviation range;
#N canvas 804 22 476 643 creation 0;
#X obj -28 131 until;
#X obj -5 154 f 0;
#X obj 21 153 + 1;
#X msg 10 131 0;
#X msg 2 568 clear;
#X obj -9 108 t f b b;
#X obj -5 177 * 25;
#X obj -5 197 + 25;
#X obj -5 590 s pd-overtones;
#N canvas 933 22 327 752 overtones 0;
#X obj 25 25 a.overtone 1002 61 0.771808 62.4911 0.955017;
#X obj 25 50 a.overtone 1002 5 4.12326 1.94744 2.44823;
#X obj 25 75 a.overtone 1002 49 2.24066 47.7152 4.76414;
#X obj 25 100 a.overtone 1002 18 1.36828 17.8059 2.92826;
#X obj 25 125 a.overtone 1002 21 1.36501 26.6202 6.52769;
#X obj 25 150 a.overtone 1002 4 2.33019 2.36215 2.62671;
#X obj 25 175 a.overtone 1002 37 1.29261 41.8033 3.53728;
#X obj 25 200 a.overtone 1002 35 2.57683 37.342 3.77123;
#X obj 25 225 a.overtone 1002 6 0.00348507 7.28688 9.74023;
#X obj 25 250 a.overtone 1002 5 0.657206 10.5429 2.12186;
#X obj 25 275 a.overtone 1002 14 0.977636 13.0621 0.848766;
#X obj 25 300 a.overtone 1002 13 2.15619 11.9449 8.6003;
#X obj 25 325 a.overtone 1002 15 2.85356 13.0264 5.51406;
#X obj 25 350 a.overtone 1002 15 0.518511 6.76596 6.47666;
#X obj 25 375 a.overtone 1002 18 3.42949 18.1857 2.54676;
#X obj 25 400 a.overtone 1002 51 0.625778 52.8575 1.24785;
#X obj 25 425 a.overtone 1002 50 3.25972 48.9336 5.32704;
#X obj 25 450 a.overtone 1002 21 0.168139 23.3426 8.8447;
#X obj 25 475 a.overtone 1002 19 1.62774 27.8189 0.962629;
#X obj 25 500 a.overtone 1002 21 0.522879 14.4922 7.00716;
#X obj 25 525 a.overtone 1002 67 1.01712 66.6985 6.85978;
#X obj 25 550 a.overtone 1002 90 1.50697 90.5963 2.5214;
#X obj 25 575 a.overtone 1002 53 3.15767 48.8324 7.6323;
#X obj 25 600 a.overtone 1002 20 1.71547 14.8804 2.25965;
#X obj 25 625 a.overtone 1002 14 2.14939 15.8337 1.95164;
#X obj 25 650 a.overtone 1002 5 3.08378 2.49107 8.63982;
#X obj 25 675 a.overtone 1002 69 3.21838 70.4743 7.19106;
#X obj 25 700 a.overtone 1002 27 1.64866 25.4596 2.62699;
#X obj 25 725 a.overtone 1002 22 1.13893 18.2604 3.88171;
#X obj 25 750 a.overtone 1002 39 1.73603 46.7028 1.23331;
#X obj 25 775 a.overtone 1002 44 2.00744 47.4667 1.21625;
#X obj 25 800 a.overtone 1002 72 0.231652 74.8413 0.664061;
#X obj 25 825 a.overtone 1002 5 2.11404 0.27063 0.0163879;
#X obj 25 850 a.overtone 1002 13 0.173555 13.4284 8.14263;
#X obj 25 875 a.overtone 1002 39 1.04643 43.8455 2.60561;
#X obj 25 900 a.overtone 1002 10 0.52483 17.3733 6.01872;
#X obj 25 925 a.overtone 1002 67 0.42586 73.3168 0.592094;
#X obj 25 950 a.overtone 1002 49 1.52374 50.5266 1.28498;
#X obj 25 975 a.overtone 1002 65 0.520407 69.373 7.65501;
#X obj 25 1000 a.overtone 1002 7 3.6657 1.26376 1.02153;
#X obj 25 1025 a.overtone 1002 32 0.595488 23.4143 1.037;
#X obj 25 1050 a.overtone 1002 62 0.884972 68.6882 2.59564;
#X obj 25 1075 a.overtone 1002 22 4.48174 16.0167 5.31776;
#X obj 25 1100 a.overtone 1002 64 1.46633 72.6955 0.104149;
#X obj 25 1125 a.overtone 1002 40 0.611847 41.5706 2.80997;
#X obj 25 1150 a.overtone 1002 24 0.429617 31.6162 10.6369;
#X obj 25 1175 a.overtone 1002 47 1.69095 49.6869 1.16585;
#X obj 25 1200 a.overtone 1002 63 1.83762 55.8806 2.27292;
#X obj 25 1225 a.overtone 1002 14 2.85085 13.5274 0.972989;
#X obj 25 1250 a.overtone 1002 25 2.483 29.5775 0.661925;
#X obj 25 1275 a.overtone 1002 36 2.21389 38.3086 3.03334;
#X obj 25 1300 a.overtone 1002 27 0.375861 28.3892 3.33009;
#X obj 25 1325 a.overtone 1002 12 3.72908 8.83197 0.46002;
#X obj 25 1350 a.overtone 1002 29 0.673078 27.236 3.64589;
#X obj 25 1375 a.overtone 1002 4 0.489924 2.51781 2.54513;
#X obj 25 1400 a.overtone 1002 43 1.45701 44.4707 2.26641;
#X obj 25 1425 a.overtone 1002 66 1.39834 63.444 5.03985;
#X obj 25 1450 a.overtone 1002 4 2.77996 0.624241 5.92007;
#X obj 25 1475 a.overtone 1002 13 0.163832 13.3229 2.61887;
#X obj 25 1500 a.overtone 1002 71 0.603089 66.2932 6.72847;
#X restore -5 610 pd overtones;
#X obj -9 83 f;
#X obj 6 60 r \$0-numPartials;
#X obj -5 218 t f b;
#X obj 37 266 r \$0-maxPartials;
#X obj 22 241 linear;
#X obj 22 289 *;
#X obj 22 312 int;
#X text 65 236 distribucion lineal que saca más números cercanos
al limite inferior;
#X obj 22 334 + 1;
#X obj 40 131 s \$0-clear;
#X obj 2 546 r \$0-clear;
#X obj -9 18 r \$0-create;
#X obj 110 356 gauss;
#X obj 123 324 r \$0-pad;
#X obj -5 504 pack f \$0 0 f f f;
#X obj 22 355 t f b b f;
#X obj 39 431 *;
#X obj 54 408 r \$0-mfd;
#X obj 152 456 r \$0-arad;
#X obj 137 433 linear;
#X obj 137 479 *;
#X obj 110 408 t f b;
#X obj 39 385 linear;
#X obj 110 381 abs;
#X obj 40 108 loadbang;
#X obj -9 39 delay 50;
#X msg -5 526 obj 25 \$1 a.overtone \$2 \$3 \$4 \$5 \$6;
#X connect 0 0 1 0;
#X connect 1 0 2 0;
#X connect 1 0 6 0;
#X connect 2 0 1 1;
#X connect 3 0 1 1;
#X connect 4 0 8 0;
#X connect 5 0 0 0;
#X connect 5 1 3 0;
#X connect 5 2 19 0;
#X connect 6 0 7 0;
#X connect 7 0 12 0;
#X connect 10 0 5 0;
#X connect 11 0 10 1;
#X connect 12 0 24 0;
#X connect 12 1 14 0;
#X connect 13 0 15 1;
#X connect 14 0 15 0;
#X connect 15 0 16 0;
#X connect 16 0 18 0;
#X connect 18 0 25 0;
#X connect 20 0 4 0;
#X connect 21 0 35 0;
#X connect 22 0 33 0;
#X connect 23 0 22 1;
#X connect 24 0 36 0;
#X connect 25 0 24 2;
#X connect 25 1 32 0;
#X connect 25 2 22 0;
#X connect 25 3 22 2;
#X connect 26 0 24 3;
#X connect 27 0 26 1;
#X connect 28 0 30 1;
#X connect 29 0 30 0;
#X connect 30 0 24 5;
#X connect 31 0 24 4;
#X connect 31 1 29 0;
#X connect 32 0 26 0;
#X connect 33 0 31 0;
#X connect 34 0 19 0;
#X connect 35 0 10 0;
#X connect 36 0 8 0;
#X restore 65 186 pd creation;
#N canvas 0 22 706 280 patch 0;
#X obj 372 -33 bng 15 250 50 0 empty empty empty 17 7 0 10 -262144
-1 -1;
#X obj 372 -14 f \$0;
#X msg 372 7 \; \$1-fundamental_p 33 \; \$1-numPartials_p 60 \; \$1-maxPartials_p
100 \; \$1-mfd_p 5 \; \$1-pad_p 4 \; \$1-arad_p 12;
#X obj 1 -41 catch~ \$0-overtoneL;
#X obj 51 -18 catch~ \$0-overtoneR;
#X obj -171 90 s \$0-fund;
#X obj -171 159 s \$0-loadbang;
#X obj 17 136 dac~;
#X obj -171 113 r \$0-create;
#X obj -156 45 r \$0-fundamental;
#X obj -171 66 f;
#X obj -171 -6 r \$0-create;
#X obj 183 -14 dbtorms;
#X obj 183 72 line~;
#X obj 51 104 *~;
#X obj 1 103 *~;
#X obj 183 -36 inlet;
#X obj 372 -56 loadbang;
#X obj -171 -77 r \$0-create;
#X msg -171 -55 0;
#X obj -171 -32 s \$0-vol;
#X obj 190 28 loadbang;
#X msg 190 50 0;
#X msg 183 6 \$1 10;
#X obj 1 4 *~ 0.1;
#X obj 51 4 *~ 0.1;
#X obj -171 18 delay 200;
#X obj -171 135 delay 500;
#X connect 0 0 1 0;
#X connect 1 0 2 0;
#X connect 3 0 24 0;
#X connect 4 0 25 0;
#X connect 8 0 27 0;
#X connect 9 0 10 1;
#X connect 10 0 5 0;
#X connect 11 0 26 0;
#X connect 12 0 23 0;
#X connect 13 0 14 1;
#X connect 13 0 15 1;
#X connect 14 0 7 1;
#X connect 15 0 7 0;
#X connect 16 0 12 0;
#X connect 17 0 0 0;
#X connect 18 0 19 0;
#X connect 19 0 20 0;
#X connect 21 0 22 0;
#X connect 22 0 13 0;
#X connect 23 0 13 0;
#X connect 24 0 15 0;
#X connect 25 0 14 0;
#X connect 26 0 10 0;
#X connect 27 0 6 0;
#X restore 3 186 pd patch;
#X obj 6 166 hsl 128 15 0 127 0 0 empty \$0-vol VOLUME 8 -8 0 10 -262144
-1 -1 10000 0;
#X text 334 161 angelfaraldo@gmail.com \, 2012;
#X text 256 -10 fundamental (Hz);
#X connect 22 0 21 0;
