#N canvas 510 23 581 412 10;
#X msg 103 173 0;
#X floatatom 115 127 5 0 0 0 - - -;
#X obj 7 85 gemwin;
#X msg 17 61 0 \, destroy;
#X obj 121 258 sig~ 0;
#X obj 15 217 gemhead;
#X obj 134 218 *~ 3;
#X obj 70 217 *~ 3;
#X msg 179 174 0.75;
#X obj 115 147 t b f b;
#X obj 7 2 loadbang;
#X text 158 127 <- change the interval ratio;
#X text 220 147 1 = unison;
#X text 220 228 2 = octave;
#X msg 115 104 1.33333;
#X text 220 188 1.3333 = forth;
#X text 220 208 1.3333 = fifth;
#X text 220 167 1.25 = major third;
#X obj 115 83 loadbang;
#X obj 70 196 osc~ 100;
#X obj 134 196 osc~ 100;
#X obj 134 174 * 100;
#X msg 7 25 reset \, dimen 500 500 \, create \, 1 \, frame 100 \; pd
dsp 1;
#X obj 41 280 scopeXYZ~ 4410;
#X connect 0 0 19 1;
#X connect 1 0 9 0;
#X connect 3 0 2 0;
#X connect 4 0 23 3;
#X connect 5 0 23 0;
#X connect 6 0 23 2;
#X connect 7 0 23 1;
#X connect 8 0 20 1;
#X connect 9 0 0 0;
#X connect 9 1 21 0;
#X connect 9 2 8 0;
#X connect 10 0 22 0;
#X connect 14 0 1 0;
#X connect 18 0 14 0;
#X connect 19 0 7 0;
#X connect 20 0 6 0;
#X connect 21 0 20 0;
#X connect 22 0 2 0;
