#N canvas 245 23 892 604 10;
#X obj 456 378 sqrt;
#X obj 615 385 sin;
#X obj 480 161 pow 2;
#X floatatom 485 186 5 0 0 0 - - -;
#X floatatom 482 130 5 0 0 0 - - -;
#X obj 18 171 s interval;
#X floatatom 18 152 5 0 0 0 - - -;
#X floatatom 33 113 5 0 0 0 - - -;
#X obj 18 131 /;
#X floatatom 18 92 5 0 0 0 - - -;
#X obj 575 192 * 4;
#X obj 591 249 until;
#X obj 227 278 r interval;
#X obj 488 448 f 0;
#X obj 451 451 +;
#X msg 482 414 0;
#X floatatom 454 483 5 0 0 0 - - -;
#X text 622 215 = t;
#X obj 617 408 pow 2;
#X obj 764 354 sin;
#X obj 764 377 pow 2;
#X obj 764 330 * 1.5;
#X obj 591 275 f 0;
#X obj 764 401 * 2.25;
#X obj 623 445 +;
#X obj 711 452 *;
#X obj 623 329 t b f b;
#X msg 649 237 0;
#X obj 428 259 sin;
#X floatatom 430 303 5 0 0 0 - - -;
#X floatatom 426 227 5 0 0 0 - - -;
#X obj 621 275 + 0.0628319;
#X msg 764 302 0.0628319;
#X msg 615 360 0.0628319;
#X msg 590 217 4;
#X text 15 6 f = 1 Hz;
#X text 15 26 w = frecuencia angular = 2pi;
#X text 16 47 phi = 0;
#X text 17 65 t = 1/100 = 0.01 = 100 divisiones por ciclo.;
#X msg 190 26 6.28319;
#X msg 138 272 6.28319;
#X obj 165 365 pow 2;
#X obj 150 395 *;
#X obj 123 134 until;
#X obj 123 179 f 0;
#X msg 138 156 0;
#X obj 123 340 sin;
#X obj 123 364 pow 2;
#X obj 123 319 *;
#X obj 254 389 pow 2;
#X obj 239 419 *;
#X obj 212 364 sin;
#X obj 212 388 pow 2;
#X obj 212 343 *;
#X obj 227 298 * 6.28319;
#X obj 224 444 +;
#X obj 224 466 sqrt;
#X obj 123 247 t f f;
#X obj 153 179 + 1;
#X obj 123 204 mod 100;
#X obj 123 226 * 0.01;
#X msg 123 82 100;
#X floatatom 95 444 5 0 0 0 - - -;
#X floatatom 193 234 5 0 0 0 - - -;
#X obj 261 517 f 0;
#X obj 224 520 +;
#X msg 262 483 0;
#X floatatom 290 354 5 0 0 0 - - -;
#X floatatom 318 310 5 0 0 0 - - -;
#X obj 227 320 t f f;
#X obj 138 296 t f f;
#X floatatom 225 559 5 0 0 0 - - -;
#X obj 123 109 t f b;
#X obj 339 492 /;
#X obj 400 487 pi;
#X obj 397 463 bng 15 250 50 0 empty empty empty 17 7 0 10 -262144
-1 -1;
#X connect 0 0 14 0;
#X connect 1 0 18 0;
#X connect 2 0 3 0;
#X connect 4 0 2 0;
#X connect 6 0 5 0;
#X connect 7 0 8 1;
#X connect 8 0 6 0;
#X connect 9 0 8 0;
#X connect 11 0 22 0;
#X connect 12 0 54 0;
#X connect 13 0 14 1;
#X connect 14 0 13 0;
#X connect 14 0 16 0;
#X connect 15 0 14 1;
#X connect 15 0 22 1;
#X connect 18 0 24 0;
#X connect 19 0 20 0;
#X connect 20 0 23 0;
#X connect 21 0 19 0;
#X connect 22 0 26 0;
#X connect 22 0 31 0;
#X connect 23 0 25 1;
#X connect 24 0 0 0;
#X connect 25 0 24 1;
#X connect 26 0 33 0;
#X connect 26 1 25 0;
#X connect 26 2 32 0;
#X connect 28 0 29 0;
#X connect 30 0 28 0;
#X connect 31 0 22 1;
#X connect 32 0 21 0;
#X connect 33 0 1 0;
#X connect 34 0 11 0;
#X connect 40 0 70 0;
#X connect 41 0 42 1;
#X connect 42 0 55 0;
#X connect 43 0 44 0;
#X connect 44 0 58 0;
#X connect 44 0 59 0;
#X connect 45 0 44 1;
#X connect 46 0 47 0;
#X connect 47 0 42 0;
#X connect 48 0 46 0;
#X connect 49 0 50 1;
#X connect 50 0 55 1;
#X connect 51 0 52 0;
#X connect 52 0 50 0;
#X connect 53 0 51 0;
#X connect 54 0 69 0;
#X connect 55 0 56 0;
#X connect 56 0 65 0;
#X connect 57 0 48 0;
#X connect 57 1 53 0;
#X connect 57 1 63 0;
#X connect 58 0 44 1;
#X connect 59 0 60 0;
#X connect 60 0 57 0;
#X connect 61 0 72 0;
#X connect 64 0 65 1;
#X connect 65 0 64 0;
#X connect 65 0 71 0;
#X connect 66 0 65 1;
#X connect 69 0 53 1;
#X connect 69 1 49 0;
#X connect 69 1 67 0;
#X connect 70 0 48 1;
#X connect 70 1 41 0;
#X connect 72 0 43 0;
#X connect 72 1 45 0;
#X connect 72 1 66 0;
#X connect 74 0 73 1;
#X connect 75 0 74 0;
