#N canvas 498 108 450 300 10;
#X obj 151 199 writesf~;
#X msg 86 145 start;
#X msg 88 167 stop;
#X obj 202 51 random 1000;
#X obj 204 19 bng 15 250 50 0 empty empty empty 17 7 0 10 -262144 -1
-1;
#X msg 176 105 open ./testFile_\$1;
#X obj 121 53 adc~;
#X connect 1 0 0 0;
#X connect 2 0 0 0;
#X connect 3 0 5 0;
#X connect 4 0 3 0;
#X connect 5 0 0 0;
#X connect 6 0 0 0;
