#N canvas 49 73 318 256 10;
#X floatatom 11 4 10 0 0 1 Frequency(Hz) - -;
#X floatatom 11 162 10 0 0 1 Bark - -;
#X obj 11 66 / 1315.8;
#X obj 11 26 t f f;
#X obj 11 87 atan;
#X obj 11 110 * 13;
#X obj 68 77 atan;
#X obj 68 56 / 7518;
#X obj 68 98 * 3.5;
#X obj 11 140 +;
#X connect 0 0 3 0;
#X connect 2 0 4 0;
#X connect 3 0 2 0;
#X connect 3 1 7 0;
#X connect 4 0 5 0;
#X connect 5 0 9 0;
#X connect 6 0 8 0;
#X connect 7 0 6 0;
#X connect 8 0 9 1;
#X connect 9 0 1 0;
