#N canvas 18 35 1215 588 10;
#N canvas 259 38 1166 664 pd-303 0;
#X obj 104 105 cnv 15 550 300 empty empty PD-303 5 20 1 24 -233017
-66577 0;
#X obj 217 193 vsl 20 128 0 127 0 1 \$0-pd303-pitch1-s \$0-pd303-pitch1-r
empty 0 -9 0 10 -261234 -1 -1 5500 1;
#X obj 237 193 vsl 20 128 0 127 0 1 \$0-pd303-pitch2-s \$0-pd303-pitch2-r
empty 0 -9 0 10 -261234 -1 -1 5700 1;
#X obj 257 193 vsl 20 128 0 127 0 1 \$0-pd303-pitch3-s \$0-pd303-pitch3-r
empty 0 -9 0 10 -261234 -1 -1 7100 1;
#X obj 277 193 vsl 20 128 0 127 0 1 \$0-pd303-pitch4-s \$0-pd303-pitch4-r
empty 0 -9 0 10 -261234 -1 -1 4500 1;
#X obj 297 193 vsl 20 128 0 127 0 1 \$0-pd303-pitch5-s \$0-pd303-pitch5-r
empty 0 -9 0 10 -261682 -1 -1 7100 1;
#X obj 317 193 vsl 20 128 0 127 0 1 \$0-pd303-pitch6-s \$0-pd303-pitch6-r
empty 0 -9 0 10 -261682 -1 -1 5100 1;
#X obj 337 193 vsl 20 128 0 127 0 1 \$0-pd303-pitch7-s \$0-pd303-pitch7-r
empty 0 -9 0 10 -261682 -1 -1 7600 1;
#X obj 357 193 vsl 20 128 0 127 0 1 \$0-pd303-pitch8-s \$0-pd303-pitch8-r
empty 0 -9 0 10 -261682 -1 -1 4900 1;
#X obj 377 193 vsl 20 128 0 127 0 1 \$0-pd303-pitch9-s \$0-pd303-pitch9-r
empty 0 -9 0 10 -204786 -1 -1 5400 1;
#X obj 397 193 vsl 20 128 0 127 0 1 \$0-pd303-pitch10-s \$0-pd303-pitch10-r
empty 0 -9 0 10 -204786 -1 -1 5730 1;
#X obj 417 193 vsl 20 128 0 127 0 1 \$0-pd303-pitch11-s \$0-pd303-pitch11-r
empty 0 -9 0 10 -204786 -1 -1 3600 1;
#X obj 437 193 vsl 20 128 0 127 0 1 \$0-pd303-pitch12-s \$0-pd303-pitch12-r
empty 0 -9 0 10 -204786 -1 -1 6200 1;
#X obj 457 193 vsl 20 128 0 127 0 1 \$0-pd303-pitch13-s \$0-pd303-pitch13-r
empty 0 -9 0 10 -204800 -1 -1 7000 1;
#X obj 477 193 vsl 20 128 0 127 0 1 \$0-pd303-pitch14-s \$0-pd303-pitch14-r
empty 0 -9 0 10 -204800 -1 -1 5200 1;
#X obj 497 193 vsl 20 128 0 127 0 1 \$0-pd303-pitch15-s \$0-pd303-pitch15-r
empty 0 -9 0 10 -204800 -1 -1 4400 1;
#X obj 517 193 vsl 20 128 0 127 0 1 \$0-pd303-pitch16-s \$0-pd303-pitch16-r
empty 0 -9 0 10 -204800 -1 -1 5300 1;
#X obj 217 325 hradio 20 1 0 16 \$0-pd303-led-gui-s \$0-pd303-led-gui-r
empty 0 -8 0 10 -1 -4032 -1 13;
#N canvas 278 113 738 571 pd-303-sequencer 0;
#X obj 180 165 metro 125;
#X obj 180 285 f;
#X obj 221 285 + 1;
#X obj 27 459 f;
#X obj 60 459 f;
#X obj 95 459 f;
#X obj 128 459 f;
#X obj 231 125 * 10;
#X floatatom 258 142 5 0 0 0 - - -;
#X obj 180 -9 r \$0-pd303-start/stop-s;
#X obj 180 316 mod 16;
#X obj 180 361 sel 0 1 2 3 4 5 6 7 8 9 10 11 12 13 14 15;
#X obj 349 536 s pd303-pitch;
#X obj 184 459 f;
#X obj 217 459 f;
#X obj 252 459 f;
#X obj 285 459 f;
#X obj 332 459 f;
#X obj 365 459 f;
#X obj 400 459 f;
#X obj 433 459 f;
#X obj 489 459 f;
#X obj 522 459 f;
#X obj 557 459 f;
#X obj 590 459 f;
#N canvas 58 50 845 500 receive-picth-sliders-steps-one-to-sixteen
0;
#X obj 23 62 r \$0-pd303-pitch1-s;
#X obj 23 87 outlet;
#X obj 68 111 outlet;
#X obj 68 86 r \$0-pd303-pitch2-s;
#X obj 111 137 outlet;
#X obj 111 112 r \$0-pd303-pitch3-s;
#X obj 154 162 outlet;
#X obj 154 137 r \$0-pd303-pitch4-s;
#X obj 198 187 outlet;
#X obj 198 162 r \$0-pd303-pitch5-s;
#X obj 242 212 outlet;
#X obj 242 187 r \$0-pd303-pitch6-s;
#X obj 288 237 outlet;
#X obj 288 212 r \$0-pd303-pitch7-s;
#X obj 335 263 outlet;
#X obj 335 238 r \$0-pd303-pitch8-s;
#X obj 383 288 outlet;
#X obj 383 263 r \$0-pd303-pitch9-s;
#X obj 428 313 outlet;
#X obj 428 288 r \$0-pd303-pitch10-s;
#X obj 472 338 outlet;
#X obj 472 313 r \$0-pd303-pitch11-s;
#X obj 516 362 outlet;
#X obj 516 337 r \$0-pd303-pitch12-s;
#X obj 561 388 outlet;
#X obj 561 363 r \$0-pd303-pitch13-s;
#X obj 613 412 outlet;
#X obj 613 387 r \$0-pd303-pitch14-s;
#X obj 659 437 outlet;
#X obj 659 412 r \$0-pd303-pitch15-s;
#X obj 705 462 outlet;
#X obj 705 437 r \$0-pd303-pitch16-s;
#X connect 0 0 1 0;
#X connect 3 0 2 0;
#X connect 5 0 4 0;
#X connect 7 0 6 0;
#X connect 9 0 8 0;
#X connect 11 0 10 0;
#X connect 13 0 12 0;
#X connect 15 0 14 0;
#X connect 17 0 16 0;
#X connect 19 0 18 0;
#X connect 21 0 20 0;
#X connect 23 0 22 0;
#X connect 25 0 24 0;
#X connect 27 0 26 0;
#X connect 29 0 28 0;
#X connect 31 0 30 0;
#X restore 439 361 pd receive-picth-sliders-steps-one-to-sixteen;
#X obj 90 287 s pd303-clock;
#X obj 277 333 s \$0-pd303-led-gui-r;
#X msg 231 66 127 \$1;
#X obj 231 90 -;
#N canvas 84 57 916 641 sequencer-accents 0;
#X obj 223 132 inlet;
#X obj 223 165 sel 0 1 2 3 4 5 6 7 8 9 10 11 12 13 14 15;
#X obj 14 292 spigot;
#X obj 69 292 spigot;
#X obj 121 292 spigot;
#X obj 176 292 spigot;
#X obj 247 292 spigot;
#X obj 302 292 spigot;
#X obj 354 292 spigot;
#X obj 409 292 spigot;
#X obj 477 292 spigot;
#X obj 532 292 spigot;
#X obj 584 292 spigot;
#X obj 639 292 spigot;
#X obj 700 291 spigot;
#X obj 755 291 spigot;
#X obj 807 291 spigot;
#X obj 862 291 spigot;
#X obj 477 486 s pd303-accent-triggers;
#N canvas 125 65 898 486 receive-accent-toggles-step-one-to-sixteen
0;
#X obj 6 13 r \$0-pd303-a1-s;
#X obj 6 38 outlet;
#X obj 49 61 outlet;
#X obj 49 36 r \$0-pd303-a2-s;
#X obj 95 86 outlet;
#X obj 95 61 r \$0-pd303-a3-s;
#X obj 141 111 outlet;
#X obj 141 86 r \$0-pd303-a4-s;
#X obj 187 136 outlet;
#X obj 187 111 r \$0-pd303-a5-s;
#X obj 235 161 outlet;
#X obj 235 136 r \$0-pd303-a6-s;
#X obj 281 185 outlet;
#X obj 281 160 r \$0-pd303-a7-s;
#X obj 329 210 outlet;
#X obj 329 185 r \$0-pd303-a8-s;
#X obj 376 235 outlet;
#X obj 376 210 r \$0-pd303-a9-s;
#X obj 419 261 outlet;
#X obj 419 236 r \$0-pd303-a10-s;
#X obj 462 285 outlet;
#X obj 462 260 r \$0-pd303-a11-s;
#X obj 511 308 outlet;
#X obj 511 283 r \$0-pd303-a12-s;
#X obj 559 331 outlet;
#X obj 559 306 r \$0-pd303-a13-s;
#X obj 611 355 outlet;
#X obj 611 330 r \$0-pd303-a14-s;
#X obj 658 380 outlet;
#X obj 658 355 r \$0-pd303-a15-s;
#X obj 705 404 outlet;
#X obj 705 379 r \$0-pd303-a16-s;
#X connect 0 0 1 0;
#X connect 3 0 2 0;
#X connect 5 0 4 0;
#X connect 7 0 6 0;
#X connect 9 0 8 0;
#X connect 11 0 10 0;
#X connect 13 0 12 0;
#X connect 15 0 14 0;
#X connect 17 0 16 0;
#X connect 19 0 18 0;
#X connect 21 0 20 0;
#X connect 23 0 22 0;
#X connect 25 0 24 0;
#X connect 27 0 26 0;
#X connect 29 0 28 0;
#X connect 31 0 30 0;
#X restore 480 165 pd receive-accent-toggles-step-one-to-sixteen;
#X connect 0 0 1 0;
#X connect 1 0 2 0;
#X connect 1 1 3 0;
#X connect 1 2 4 0;
#X connect 1 3 5 0;
#X connect 1 4 6 0;
#X connect 1 5 7 0;
#X connect 1 6 8 0;
#X connect 1 7 9 0;
#X connect 1 8 10 0;
#X connect 1 9 11 0;
#X connect 1 10 12 0;
#X connect 1 11 13 0;
#X connect 1 12 14 0;
#X connect 1 13 15 0;
#X connect 1 14 16 0;
#X connect 1 15 17 0;
#X connect 2 0 18 0;
#X connect 3 0 18 0;
#X connect 4 0 18 0;
#X connect 5 0 18 0;
#X connect 6 0 18 0;
#X connect 7 0 18 0;
#X connect 8 0 18 0;
#X connect 9 0 18 0;
#X connect 10 0 18 0;
#X connect 11 0 18 0;
#X connect 12 0 18 0;
#X connect 13 0 18 0;
#X connect 14 0 18 0;
#X connect 15 0 18 0;
#X connect 16 0 18 0;
#X connect 17 0 18 0;
#X connect 19 0 2 1;
#X connect 19 1 3 1;
#X connect 19 2 4 1;
#X connect 19 3 5 1;
#X connect 19 4 6 1;
#X connect 19 5 7 1;
#X connect 19 6 8 1;
#X connect 19 7 9 1;
#X connect 19 8 10 1;
#X connect 19 9 11 1;
#X connect 19 10 12 1;
#X connect 19 11 13 1;
#X connect 19 12 14 1;
#X connect 19 13 15 1;
#X connect 19 14 16 1;
#X connect 19 15 17 1;
#X restore 439 333 pd sequencer-accents;
#N canvas 84 57 916 641 sequencer-slides 0;
#X obj 223 132 inlet;
#X obj 223 165 sel 0 1 2 3 4 5 6 7 8 9 10 11 12 13 14 15;
#N canvas 125 65 898 486 receive-slide-toggles-step-one-to-sixteen
0;
#X obj 6 38 outlet;
#X obj 49 61 outlet;
#X obj 95 86 outlet;
#X obj 141 111 outlet;
#X obj 187 136 outlet;
#X obj 235 161 outlet;
#X obj 281 185 outlet;
#X obj 329 210 outlet;
#X obj 376 235 outlet;
#X obj 419 261 outlet;
#X obj 462 285 outlet;
#X obj 511 308 outlet;
#X obj 559 331 outlet;
#X obj 611 355 outlet;
#X obj 658 380 outlet;
#X obj 705 404 outlet;
#X obj 6 13 r \$0-pd303-s1-s;
#X obj 49 36 r \$0-pd303-s2-s;
#X obj 95 61 r \$0-pd303-s3-s;
#X obj 141 86 r \$0-pd303-s4-s;
#X obj 187 111 r \$0-pd303-s5-s;
#X obj 235 136 r \$0-pd303-s6-s;
#X obj 281 160 r \$0-pd303-s7-s;
#X obj 329 185 r \$0-pd303-s8-s;
#X obj 376 210 r \$0-pd303-s9-s;
#X obj 419 236 r \$0-pd303-s10-s;
#X obj 462 260 r \$0-pd303-s11-s;
#X obj 511 283 r \$0-pd303-s12-s;
#X obj 559 306 r \$0-pd303-s13-s;
#X obj 611 330 r \$0-pd303-s14-s;
#X obj 658 355 r \$0-pd303-s15-s;
#X obj 705 379 r \$0-pd303-s16-s;
#X connect 16 0 0 0;
#X connect 17 0 1 0;
#X connect 18 0 2 0;
#X connect 19 0 3 0;
#X connect 20 0 4 0;
#X connect 21 0 5 0;
#X connect 22 0 6 0;
#X connect 23 0 7 0;
#X connect 24 0 8 0;
#X connect 25 0 9 0;
#X connect 26 0 10 0;
#X connect 27 0 11 0;
#X connect 28 0 12 0;
#X connect 29 0 13 0;
#X connect 30 0 14 0;
#X connect 31 0 15 0;
#X restore 480 165 pd receive-slide-toggles-step-one-to-sixteen;
#X obj 199 308 f;
#X obj 229 308 f;
#X obj 259 308 f;
#X obj 289 308 f;
#X obj 333 308 f;
#X obj 363 308 f;
#X obj 393 308 f;
#X obj 423 308 f;
#X obj 469 308 f;
#X obj 499 308 f;
#X obj 529 308 f;
#X obj 559 308 f;
#X obj 603 308 f;
#X obj 633 308 f;
#X obj 663 308 f;
#X obj 693 308 f;
#X obj 423 485 s pd303-slide-triggers;
#X connect 0 0 1 0;
#X connect 1 0 3 0;
#X connect 1 1 4 0;
#X connect 1 2 5 0;
#X connect 1 3 6 0;
#X connect 1 4 7 0;
#X connect 1 5 8 0;
#X connect 1 6 9 0;
#X connect 1 7 10 0;
#X connect 1 8 11 0;
#X connect 1 9 12 0;
#X connect 1 10 13 0;
#X connect 1 11 14 0;
#X connect 1 12 15 0;
#X connect 1 13 16 0;
#X connect 1 14 17 0;
#X connect 1 15 18 0;
#X connect 2 0 3 1;
#X connect 2 1 4 1;
#X connect 2 2 5 1;
#X connect 2 3 6 1;
#X connect 2 4 7 1;
#X connect 2 5 8 1;
#X connect 2 6 9 1;
#X connect 2 7 10 1;
#X connect 2 8 11 1;
#X connect 2 9 12 1;
#X connect 2 10 13 1;
#X connect 2 11 14 1;
#X connect 2 12 15 1;
#X connect 2 13 16 1;
#X connect 2 14 17 1;
#X connect 2 15 18 1;
#X connect 3 0 19 0;
#X connect 4 0 19 0;
#X connect 5 0 19 0;
#X connect 6 0 19 0;
#X connect 7 0 19 0;
#X connect 8 0 19 0;
#X connect 9 0 19 0;
#X connect 10 0 19 0;
#X connect 11 0 19 0;
#X connect 12 0 19 0;
#X connect 13 0 19 0;
#X connect 14 0 19 0;
#X connect 15 0 19 0;
#X connect 16 0 19 0;
#X connect 17 0 19 0;
#X connect 18 0 19 0;
#X restore 571 333 pd sequencer-slides;
#X obj 180 232 moses 64;
#X obj 180 255 t b;
#X obj 180 210 random 127;
#X obj 249 209 r \$0-pd303-activity-s;
#X obj 216 40 f;
#X obj 90 -8 r pd303-clock;
#X obj 375 162 r sine-machine-clock;
#X obj 258 164 s pd303-steplength;
#X obj 231 12 r \$0-pd303-tempo-s;
#X obj 669 243 sel 0;
#X msg 669 269 0;
#X connect 0 0 34 0;
#X connect 1 0 2 0;
#X connect 1 0 10 0;
#X connect 2 0 1 1;
#X connect 3 0 12 0;
#X connect 4 0 12 0;
#X connect 5 0 12 0;
#X connect 6 0 12 0;
#X connect 7 0 8 0;
#X connect 7 0 0 1;
#X connect 8 0 39 0;
#X connect 9 0 0 0;
#X connect 9 0 41 0;
#X connect 10 0 11 0;
#X connect 10 0 27 0;
#X connect 10 0 30 0;
#X connect 10 0 31 0;
#X connect 11 0 3 0;
#X connect 11 1 4 0;
#X connect 11 2 5 0;
#X connect 11 3 6 0;
#X connect 11 4 13 0;
#X connect 11 5 14 0;
#X connect 11 6 15 0;
#X connect 11 7 16 0;
#X connect 11 8 17 0;
#X connect 11 9 18 0;
#X connect 11 10 19 0;
#X connect 11 11 20 0;
#X connect 11 12 21 0;
#X connect 11 13 22 0;
#X connect 11 14 23 0;
#X connect 11 15 24 0;
#X connect 13 0 12 0;
#X connect 14 0 12 0;
#X connect 15 0 12 0;
#X connect 16 0 12 0;
#X connect 17 0 12 0;
#X connect 18 0 12 0;
#X connect 19 0 12 0;
#X connect 20 0 12 0;
#X connect 21 0 12 0;
#X connect 22 0 12 0;
#X connect 23 0 12 0;
#X connect 24 0 12 0;
#X connect 25 0 3 1;
#X connect 25 1 4 1;
#X connect 25 2 5 1;
#X connect 25 3 6 1;
#X connect 25 4 13 1;
#X connect 25 5 14 1;
#X connect 25 6 15 1;
#X connect 25 7 16 1;
#X connect 25 8 17 1;
#X connect 25 9 18 1;
#X connect 25 10 19 1;
#X connect 25 11 20 1;
#X connect 25 12 21 1;
#X connect 25 13 22 1;
#X connect 25 14 23 1;
#X connect 25 15 24 1;
#X connect 28 0 29 0;
#X connect 29 0 7 0;
#X connect 32 0 33 0;
#X connect 33 0 1 0;
#X connect 33 0 26 0;
#X connect 34 0 32 0;
#X connect 35 0 32 1;
#X connect 36 0 28 0;
#X connect 37 0 36 0;
#X connect 40 0 36 1;
#X connect 41 0 42 0;
#X connect 42 0 1 1;
#X restore 934 582 pd pd-303-sequencer;
#X obj 118 338 tgl 48 0 \$0-pd303-start/stop-s \$0-pd303-start/stop-r
START/STOP -5 -10 1 10 -262144 -1 -1 0 1;
#X obj 217 345 tgl 20 1 \$0-pd303-a1-s \$0-pd303-a1-r empty 17 7 0
10 -262144 -1 -1 1 1;
#X obj 237 345 tgl 20 1 \$0-pd303-a2-s \$0-pd303-a2-r empty 17 7 0
10 -262144 -1 -1 0 1;
#X obj 257 345 tgl 20 1 \$0-pd303-a3-s \$0-pd303-a3-r empty 17 7 0
10 -262144 -1 -1 0 1;
#X obj 277 345 tgl 20 1 \$0-pd303-a4-s \$0-pd303-a4-r empty 17 7 0
10 -262144 -1 -1 1 1;
#X text 177 349 ACCENT;
#X obj 217 365 tgl 20 1 \$0-pd303-s1-s \$0-pd303-s1-r empty 17 7 0
10 -262144 -1 -1 0 1;
#X obj 237 365 tgl 20 1 \$0-pd303-s2-s \$0-pd303-s2-r empty 17 7 0
10 -262144 -1 -1 1 1;
#X obj 257 365 tgl 20 1 \$0-pd303-s3-s \$0-pd303-s3-r empty 17 7 0
10 -262144 -1 -1 0 1;
#X obj 277 365 tgl 20 1 \$0-pd303-s4-s \$0-pd303-s4-r empty 17 7 0
10 -262144 -1 -1 1 1;
#X text 178 369 SLIDE;
#X obj 122 250 knob 48 48 0 127 0 1 \$0-pd303-activity-s \$0-pd303-activity-r
ACTIVITY 0 -8 1 8 -262144 -1 -1 4700 1;
#X obj 122 172 knob 48 48 0 127 0 1 \$0-pd303-tempo-s \$0-pd303-tempo-r
TEMPO 0 -8 1 8 -262144 -1 -1 4274 1;
#N canvas 307 154 762 533 pd-303-oscillator 0;
#X floatatom 115 84 5 0 0 0 - - -;
#X obj 115 111 sig~;
#X obj 115 180 lop~;
#X obj 115 210 mtof~;
#X msg 162 137 127;
#X obj 162 110 sel 0 1;
#X obj 115 5 r pd303-pitch;
#X obj 115 362 *~;
#X obj 162 88 r pd303-slide-triggers;
#N canvas 532 280 479 444 pd303-env1 0;
#X obj 164 226 vline~;
#X obj 164 130 f;
#X obj 164 306 *~ 0.25;
#X obj 164 101 r pd303-clock;
#X obj 164 338 outlet~;
#X obj 164 259 *~;
#X obj 164 281 *~;
#X obj 179 78 * 0.66;
#X obj 164 161 pack f f;
#X obj 287 72 / 127;
#X obj 287 47 r \$0-pd303-decay-s;
#X obj 254 101 * 0.25;
#X obj 255 323 s~ pd303-env1;
#X msg 164 191 1 0.5 \, 0 \$1 \$2;
#X obj 179 26 r pd303-steplength;
#X connect 0 0 5 0;
#X connect 0 0 5 1;
#X connect 1 0 8 0;
#X connect 2 0 4 0;
#X connect 3 0 1 0;
#X connect 5 0 6 0;
#X connect 5 0 6 1;
#X connect 6 0 2 0;
#X connect 6 0 12 0;
#X connect 7 0 1 1;
#X connect 8 0 13 0;
#X connect 10 0 9 0;
#X connect 11 0 8 1;
#X connect 13 0 0 0;
#X connect 14 0 7 0;
#X connect 14 0 11 0;
#X restore 130 326 pd pd303-env1;
#N canvas 396 195 533 468 pd303-env2-accent 0;
#X obj 192 272 vline~;
#X obj 192 151 f;
#X obj 192 69 r pd303-accent-triggers;
#X obj 192 404 outlet~;
#X obj 378 39 r \$0-pd303-accent-s;
#X obj 338 66 / 127;
#X obj 338 104 * 2;
#X obj 378 122 line~;
#X msg 378 92 \$1 100;
#X obj 378 66 / 127;
#X obj 338 12 r \$0-pd303-decay-s;
#X obj 207 121 * 0.66;
#X obj 207 94 r pd303-steplength;
#X obj 244 404 s~ pd303-env2;
#X obj 192 332 *~;
#X obj 233 152 * 0.25;
#X obj 192 204 pack f;
#X msg 192 237 1 0 \, 0 \$1 0;
#X connect 0 0 14 0;
#X connect 1 0 16 0;
#X connect 2 0 1 0;
#X connect 4 0 9 0;
#X connect 5 0 6 0;
#X connect 6 0 11 1;
#X connect 7 0 14 1;
#X connect 8 0 7 0;
#X connect 9 0 8 0;
#X connect 10 0 5 0;
#X connect 11 0 1 1;
#X connect 12 0 11 0;
#X connect 12 0 15 0;
#X connect 14 0 3 0;
#X connect 14 0 13 0;
#X connect 16 0 17 0;
#X connect 17 0 0 0;
#X restore 220 327 pd pd303-env2-accent;
#X obj 116 462 *~;
#X obj 161 401 / 127;
#X msg 161 423 \$1 100;
#X obj 161 445 line~;
#X obj 161 375 r \$0-pd303-volume-s;
#X msg 181 163 5;
#X obj 49 246 phasor~;
#N canvas 706 411 236 227 square-wave 0;
#X obj 73 36 inlet~;
#X obj 73 72 osc~;
#X obj 73 99 clip~ -0.5 0.5;
#X obj 73 128 outlet~;
#X connect 0 0 1 0;
#X connect 1 0 2 0;
#X connect 2 0 3 0;
#X restore 115 247 pd square-wave;
#N canvas 599 130 496 448 trianlge 0;
#X obj 128 128 phasor~;
#X obj 128 242 min~;
#X obj 149 189 *~ -1;
#X obj 149 216 +~ 1;
#X obj 128 287 -~ 0.25;
#X obj 128 321 *~ 4;
#X obj 128 356 outlet~;
#X obj 127 41 inlet~;
#X connect 0 0 2 0;
#X connect 0 0 1 0;
#X connect 1 0 4 0;
#X connect 2 0 3 0;
#X connect 3 0 1 1;
#X connect 4 0 5 0;
#X connect 5 0 6 0;
#X connect 7 0 0 0;
#X restore 371 181 pd trianlge;
#N canvas 162 22 1043 701 oscillator-sine 0;
#X obj 103 273 dist~ 1;
#X obj 207 343 *~;
#X obj 222 307 +~ 0.1;
#X obj 222 274 *~ 2;
#X floatatom 245 200 5 0 0 0 - - -;
#X floatatom 341 157 5 0 1 0 - - -;
#X text 381 147 timbre 0-1;
#X obj 340 180 +~;
#X obj 471 231 +~ 1;
#X obj 341 344 +~ 0.25;
#X obj 206 587 dist~ 1;
#N canvas 694 460 450 300 converter 0;
#X obj 142 145 snapshot~;
#X obj 212 128 metro 1;
#X obj 212 97 tgl 15 0 empty empty empty 17 7 0 10 -262144 -1 -1 1
1;
#X obj 210 68 loadbang;
#X obj 142 79 inlet~;
#X obj 137 244 outlet;
#X connect 0 0 5 0;
#X connect 1 0 0 0;
#X connect 2 0 1 0;
#X connect 3 0 2 0;
#X connect 4 0 0 0;
#X restore 471 275 pd converter;
#N canvas 694 460 450 300 converter 0;
#X obj 142 145 snapshot~;
#X obj 212 128 metro 1;
#X obj 212 97 tgl 15 0 empty empty empty 17 7 0 10 -262144 -1 -1 1
1;
#X obj 210 68 loadbang;
#X obj 142 79 inlet~;
#X obj 137 244 outlet;
#X floatatom 160 180 5 0 0 0 - - -;
#X connect 0 0 5 0;
#X connect 0 0 6 0;
#X connect 1 0 0 0;
#X connect 2 0 1 0;
#X connect 3 0 2 0;
#X connect 4 0 0 0;
#X restore 142 246 pd converter;
#X obj 103 214 osc~ 110;
#X obj 245 99 mtof;
#X obj 245 163 line;
#X obj 341 107 loadbang;
#X msg 341 130 1;
#X msg 245 132 \$1 10;
#X obj 206 531 osc~;
#X obj 206 646 outlet~;
#X obj 206 485 +~;
#X obj 103 167 inlet~;
#X obj 245 7 r \$0-pd303-timbre-s;
#X obj 561 437 osc~;
#X obj 560 316 mtof;
#X msg 560 340 \$1 10;
#X obj 560 363 line;
#X obj 561 468 *~;
#X obj 664 427 line~;
#X msg 664 403 \$1 10;
#X obj 664 355 mtof;
#X obj 664 379 - 8.175;
#X obj 559 70 r pd303-pitch;
#X obj 664 240 r \$0-pd303-index-s;
#X obj 559 99 - 12;
#X obj 367 28 t b f;
#X obj 342 45 +;
#N canvas 650 182 472 359 envmod-to-timbre 0;
#X obj 148 55 r~ pd303-env1;
#X obj 148 124 *~;
#X obj 200 83 r \$0-pd303-envmod-s;
#X obj 200 107 / 127;
#X obj 149 199 snapshot~;
#X obj 265 156 tgl 15 0 empty empty empty 17 7 0 10 -262144 -1 -1 1
1;
#X floatatom 149 224 5 0 0 0 - - -;
#X obj 221 216 - 0.5;
#X obj 221 239 * 127;
#X floatatom 276 256 5 0 0 0 - - -;
#X obj 221 322 outlet;
#X obj 265 129 loadbang;
#X obj 265 182 metro 1;
#X obj 221 274 * 0.66;
#X connect 0 0 1 0;
#X connect 1 0 4 0;
#X connect 2 0 3 0;
#X connect 3 0 1 1;
#X connect 4 0 6 0;
#X connect 4 0 7 0;
#X connect 5 0 12 0;
#X connect 7 0 8 0;
#X connect 8 0 9 0;
#X connect 8 0 13 0;
#X connect 11 0 5 0;
#X connect 12 0 4 0;
#X connect 13 0 10 0;
#X restore 367 5 pd envmod-to-timbre;
#X obj 664 451 +~;
#X obj 726 276 r~ pd303-env1;
#X obj 726 361 *~;
#X obj 778 304 r \$0-pd303-envmod-s;
#X obj 778 328 / 127;
#X obj 830 326 r~ pd303-env2;
#X obj 726 435 +~;
#X obj 830 395 *~;
#X obj 882 354 r \$0-pd303-envmod-s;
#X obj 882 378 / 127;
#X obj 726 390 *~ 1000;
#X obj 830 418 *~ 1000;
#X obj 561 526 s~ pd303-fm;
#X obj 206 622 *~ 1;
#X obj 561 172 +;
#X obj 589 169 t b f;
#X obj 641 134 r \$0-pd303-timbre-s;
#X connect 0 0 1 0;
#X connect 1 0 21 0;
#X connect 2 0 1 1;
#X connect 3 0 2 0;
#X connect 4 0 3 1;
#X connect 5 0 7 0;
#X connect 7 0 3 0;
#X connect 7 0 8 0;
#X connect 7 0 9 0;
#X connect 8 0 11 0;
#X connect 8 0 12 0;
#X connect 9 0 19 0;
#X connect 10 0 52 0;
#X connect 11 0 10 1;
#X connect 12 0 0 1;
#X connect 13 0 0 0;
#X connect 14 0 18 0;
#X connect 15 0 4 0;
#X connect 16 0 17 0;
#X connect 17 0 5 0;
#X connect 18 0 15 0;
#X connect 19 0 10 0;
#X connect 21 0 19 0;
#X connect 22 0 19 0;
#X connect 23 0 14 0;
#X connect 24 0 28 0;
#X connect 25 0 26 0;
#X connect 26 0 27 0;
#X connect 27 0 24 0;
#X connect 28 0 21 1;
#X connect 28 0 51 0;
#X connect 29 0 39 0;
#X connect 30 0 29 0;
#X connect 31 0 32 0;
#X connect 32 0 30 0;
#X connect 33 0 35 0;
#X connect 34 0 31 0;
#X connect 35 0 53 0;
#X connect 36 0 37 0;
#X connect 36 1 37 1;
#X connect 38 0 36 0;
#X connect 39 0 28 1;
#X connect 40 0 41 0;
#X connect 41 0 49 0;
#X connect 42 0 43 0;
#X connect 43 0 41 1;
#X connect 44 0 46 0;
#X connect 45 0 39 1;
#X connect 46 0 50 0;
#X connect 47 0 48 0;
#X connect 48 0 46 1;
#X connect 49 0 45 0;
#X connect 50 0 45 1;
#X connect 52 0 20 0;
#X connect 53 0 25 0;
#X connect 54 0 53 0;
#X connect 54 1 53 1;
#X connect 55 0 54 0;
#X restore 331 240 pd oscillator-sine;
#X obj -22 389 *~;
#X obj -23 359 line~;
#X obj -22 287 r \$0-pd303-square-s;
#X msg -23 335 \$1 100;
#X obj -23 307 / 127;
#X obj 479 350 *~;
#X obj 478 320 line~;
#X msg 478 296 \$1 100;
#X obj 478 268 / 127;
#X obj 479 248 r \$0-pd303-saw-s;
#X obj 617 352 *~;
#X obj 616 322 line~;
#X msg 616 298 \$1 100;
#X obj 616 270 / 127;
#X obj 617 250 r \$0-pd303-tri-s;
#X obj 371 155 +~;
#X obj 423 115 r~ pd303-fm;
#X obj 206 6 r \$0-pd303-tuning-s;
#X obj 206 27 - 64;
#X obj 159 44 t b f;
#X obj 115 61 +;
#X obj 115 498 dac~;
#X connect 0 0 1 0;
#X connect 1 0 2 0;
#X connect 2 0 3 0;
#X connect 3 0 18 0;
#X connect 3 0 17 0;
#X connect 3 0 20 0;
#X connect 3 0 36 0;
#X connect 4 0 2 1;
#X connect 5 0 4 0;
#X connect 5 1 16 0;
#X connect 6 0 41 0;
#X connect 7 0 11 0;
#X connect 8 0 5 0;
#X connect 9 0 7 1;
#X connect 10 0 7 1;
#X connect 11 0 42 0;
#X connect 11 0 42 1;
#X connect 12 0 13 0;
#X connect 13 0 14 0;
#X connect 14 0 11 1;
#X connect 15 0 12 0;
#X connect 16 0 2 1;
#X connect 17 0 26 0;
#X connect 18 0 21 0;
#X connect 20 0 26 0;
#X connect 20 0 21 0;
#X connect 21 0 7 0;
#X connect 22 0 21 1;
#X connect 23 0 25 0;
#X connect 24 0 22 0;
#X connect 25 0 24 0;
#X connect 26 0 7 0;
#X connect 27 0 26 1;
#X connect 28 0 27 0;
#X connect 29 0 28 0;
#X connect 30 0 29 0;
#X connect 31 0 7 0;
#X connect 32 0 31 1;
#X connect 33 0 32 0;
#X connect 34 0 33 0;
#X connect 35 0 34 0;
#X connect 36 0 19 0;
#X connect 37 0 36 1;
#X connect 38 0 39 0;
#X connect 39 0 40 0;
#X connect 40 0 41 0;
#X connect 40 1 41 1;
#X connect 41 0 0 0;
#X restore 934 603 pd pd-303-oscillator;
#X obj 274 148 knob 32 32 0 127 0 1 \$0-pd303-index-s \$0-pd303-index-r
INDEX 0 -8 1 8 -262144 -1 -1 0 1;
#X obj 329 148 knob 32 32 0 127 0 1 \$0-pd303-timbre-s \$0-pd303-timbre-r
TIMBRE 0 -8 1 8 -262144 -1 -1 0 1;
#X obj 387 148 knob 32 32 0 127 0 1 \$0-pd303-envmod-s \$0-pd303-envmod-r
ENVMOD 0 -8 1 8 -262144 -1 -1 0 1;
#X obj 446 148 knob 32 32 0 127 0 1 \$0-pd303-decay-s \$0-pd303-decay-s
DECAY 0 -8 1 8 -262144 -1 -1 1600 1;
#X obj 507 148 knob 32 32 0 127 0 1 \$0-pd303-accent-s \$0-pd303-accent-r
ACCENT 0 -8 1 8 -262144 -1 -1 1600 1;
#X obj 297 345 tgl 20 1 \$0-pd303-a5-s \$0-pd303-a5-r empty 17 7 0
10 -262144 -1 -1 0 1;
#X obj 317 345 tgl 20 1 \$0-pd303-a6-s \$0-pd303-a6-r empty 17 7 0
10 -262144 -1 -1 0 1;
#X obj 337 345 tgl 20 1 \$0-pd303-a7-s \$0-pd303-a7-r empty 17 7 0
10 -262144 -1 -1 1 1;
#X obj 357 345 tgl 20 1 \$0-pd303-a8-s \$0-pd303-a8-r empty 17 7 0
10 -262144 -1 -1 0 1;
#X obj 377 345 tgl 20 1 \$0-pd303-a9-s \$0-pd303-a9-r empty 17 7 0
10 -262144 -1 -1 0 1;
#X obj 397 345 tgl 20 1 \$0-pd303-a10-s \$0-pd303-a10-r empty 17 7
0 10 -262144 -1 -1 0 1;
#X obj 417 345 tgl 20 1 \$0-pd303-a11-s \$0-pd303-a11-r empty 17 7
0 10 -262144 -1 -1 1 1;
#X obj 437 345 tgl 20 1 \$0-pd303-a12-s \$0-pd303-a12-r empty 17 7
0 10 -262144 -1 -1 0 1;
#X obj 457 345 tgl 20 1 \$0-pd303-a13-s \$0-pd303-a13-r empty 17 7
0 10 -262144 -1 -1 1 1;
#X obj 477 345 tgl 20 1 \$0-pd303-a15-s \$0-pd303-a15-r empty 17 7
0 10 -262144 -1 -1 0 1;
#X obj 497 345 tgl 20 1 \$0-pd303-a15-s \$0-pd303-a15-r empty 17 7
0 10 -262144 -1 -1 0 1;
#X obj 517 345 tgl 20 1 \$0-pd303-a16-s \$0-pd303-a16-r empty 17 7
0 10 -262144 -1 -1 1 1;
#X obj 297 365 tgl 20 1 \$0-pd303-s5-s \$0-pd303-s5-r empty 17 7 0
10 -262144 -1 -1 0 1;
#X obj 317 365 tgl 20 1 \$0-pd303-s6-s \$0-pd303-s6-r empty 17 7 0
10 -262144 -1 -1 0 1;
#X obj 337 365 tgl 20 1 \$0-pd303-s7-s \$0-pd303-s7-r empty 17 7 0
10 -262144 -1 -1 1 1;
#X obj 357 365 tgl 20 1 \$0-pd303-s8-s \$0-pd303-s8-r empty 17 7 0
10 -262144 -1 -1 0 1;
#X obj 377 365 tgl 20 1 \$0-pd303-s9-s \$0-pd303-s9-r empty 17 7 0
10 -262144 -1 -1 0 1;
#X obj 397 365 tgl 20 1 \$0-pd303-s10-s \$0-pd303-s10-r empty 17 7
0 10 -262144 -1 -1 1 1;
#X obj 417 365 tgl 20 1 \$0-pd303-s11-s \$0-pd303-s11-r empty 17 7
0 10 -262144 -1 -1 0 1;
#X obj 437 365 tgl 20 1 \$0-pd303-s12-s \$0-pd303-s12-r empty 17 7
0 10 -262144 -1 -1 0 1;
#X obj 457 365 tgl 20 1 \$0-pd303-s13-s \$0-pd303-s13-r empty 17 7
0 10 -262144 -1 -1 1 1;
#X obj 477 365 tgl 20 1 \$0-pd303-s14-s \$0-pd303-s14-r empty 17 7
0 10 -262144 -1 -1 0 1;
#X obj 497 365 tgl 20 1 \$0-pd303-s15-s \$0-pd303-s15-r empty 17 7
0 10 -262144 -1 -1 1 1;
#X obj 517 365 tgl 20 1 \$0-pd303-s16-s \$0-pd303-s16-r empty 17 7
0 10 -262144 -1 -1 0 1;
#X obj 568 154 knob 64 64 0 127 0 1 \$0-pd303-volume-s \$0-pd303-volume-r
VOLUME 0 -8 1 8 -262144 -1 -1 3200 1;
#X obj 571 255 vsl 20 128 0 127 0 1 \$0-pd303-saw-s \$0-pd303-saw-s
SAW 0 -9 1 10 -262144 -1 -1 12700 1;
#X obj 604 255 vsl 20 128 0 127 0 1 \$0-pd303-square-s \$0-pd303-square-r
SQUARE 0 -9 1 10 -262144 -1 -1 0 1;
#X obj 529 109 cnv 15 100 20 empty empty BassLine 20 12 1 24 -233017
-66577 0;
#X obj 213 148 knob 32 32 0 127 0 1 \$0-pd303-tuning-s \$0-pd303-tuning-r
TUNING 0 -8 1 8 -262144 -1 -1 1600 1;
#X coords 0 -1 1 1 560 310 2 100 100;
#X restore 335 183 pd pd-303;
#X text 558 102 PD-303 by Monolog X;
#X text 559 121 www.monologx.com;
#X text 580 140 2015-04-15;
