#N canvas 570 78 1105 777 10;
#X obj -133 275 makenote;
#X msg -116 249 127;
#X obj -175 127 t b b;
#X floatatom -114 30 5 0 0 0 bpm - -;
#X obj -114 73 /;
#X msg -114 51 60000 \$1;
#X obj -175 103 metro 500;
#X obj -175 82 tgl 15 0 empty empty empty 17 7 0 10 -262144 -1 -1 0
1;
#X text 251 28 analyse list of velocities from a given track... to
continue performing in a similar fashion;
#X text 251 12 set a degree of homophony for the polyphony!;
#X obj -121 306 poly 4;
#X obj -133 332 pack 0 0 0;
#X obj -133 356 s \$0-midiOut;
#X obj -126 481 toSynth \$0 1;
#X obj -126 501 toSynth \$0 2;
#X obj -126 521 toSynth \$0 3;
#X obj -126 542 toSynth \$0 4;
#X obj 209 583 length;
#X obj 190 500 r scale_def;
#X msg 459 368 \; scale_def 0 2 4 5 7 9 11;
#X msg 229 546 \; scale const 0;
#X obj 190 523 t l l b;
#N canvas 0 22 450 278 (subpatch) 0;
#X array scale 7 float 2;
#X coords 0 12 7 0 200 140 1 0 0;
#X restore 427 198 graph;
#X obj 190 666 s scale;
#X obj -211 221 tabread scale;
#X obj -211 245 + 60;
#X obj -211 198 random 12;
#X obj -160 176 r scale_length;
#X msg 459 408 \; scale_def 0 2 3 5 7 9 10;
#X msg 459 568 \; scale_def 0 2 3 5 7 8 10;
#X msg 459 488 \; scale_def 0 2 4 6 7 9 11;
#X floatatom -27 222 5 0 0 0 - - -;
#X obj 190 645 list prepend 0;
#X floatatom 11 152 5 0 0 0 - - -;
#X msg 209 606 \$1 \; scale resize \$1;
#X msg 459 448 \; scale_def 0 1 3 5 7 8 10;
#X msg 459 528 \; scale_def 0 2 4 5 7 9 10;
#X msg 459 608 \; scale_def 0 1 3 5 6 8 10;
#X connect 0 0 10 0;
#X connect 0 1 10 1;
#X connect 1 0 0 1;
#X connect 2 0 26 0;
#X connect 2 1 1 0;
#X connect 3 0 5 0;
#X connect 4 0 6 1;
#X connect 4 0 0 2;
#X connect 5 0 4 0;
#X connect 6 0 2 0;
#X connect 7 0 6 0;
#X connect 10 0 11 0;
#X connect 10 1 11 1;
#X connect 10 2 11 2;
#X connect 11 0 12 0;
#X connect 17 0 34 0;
#X connect 18 0 21 0;
#X connect 21 0 32 0;
#X connect 21 1 17 0;
#X connect 21 2 20 0;
#X connect 24 0 25 0;
#X connect 24 0 31 0;
#X connect 25 0 0 0;
#X connect 26 0 24 0;
#X connect 27 0 26 1;
#X connect 27 0 33 0;
#X connect 32 0 23 0;
