#N canvas 199 268 336 279 10;
#X obj 13 123 osc~;
#X obj 13 199 *~;
#X obj 46 80 / 127;
#X obj 13 56 unpack;
#X obj 13 80 mtof;
#X obj 87 176 line~;
#X obj 13 13 r voice;
#X obj 13 34 route \$1;
#X obj 46 100 sel 0;
#X msg 46 124 0 200;
#X obj 13 220 throw~ sinesynthsum;
#X obj 97 125 *;
#X msg 97 146 \$1 10;
#X connect 0 0 1 0;
#X connect 1 0 10 0;
#X connect 2 0 8 0;
#X connect 3 0 4 0;
#X connect 3 1 2 0;
#X connect 4 0 0 0;
#X connect 5 0 1 1;
#X connect 6 0 7 0;
#X connect 7 0 3 0;
#X connect 8 0 9 0;
#X connect 8 1 11 1;
#X connect 8 1 11 0;
#X connect 9 0 5 0;
#X connect 11 0 12 0;
#X connect 12 0 5 0;
