#N canvas 232 281 414 385 10;
#X obj 15 45 inlet;
#X obj 138 332 outlet;
#X obj 138 269 tabread \$1;
#X obj 70 90 arraysize \$1;
#X obj 70 68 loadbang;
#X obj 15 152 -;
#X msg 54 305 0;
#X obj 69 219 moses;
#X obj 99 246 moses 0;
#X obj 54 283 t b;
#X text 8 7 reads a table backwards with negative indexes (minus one
is last element) and outputs zeroes when out of range.;
#X obj 15 68 moses 0;
#X obj 15 100 abs;
#X obj 30 130 + 0;
#X obj 15 193 abs;
#X obj 15 172 moses 1;
#X connect 0 0 11 0;
#X connect 2 0 1 0;
#X connect 3 0 7 1;
#X connect 3 0 13 0;
#X connect 4 0 3 0;
#X connect 5 0 15 0;
#X connect 6 0 1 0;
#X connect 7 0 8 0;
#X connect 7 1 9 0;
#X connect 8 0 9 0;
#X connect 8 1 2 0;
#X connect 9 0 6 0;
#X connect 11 0 12 0;
#X connect 11 1 7 0;
#X connect 12 0 5 0;
#X connect 13 0 5 1;
#X connect 14 0 7 0;
#X connect 15 0 14 0;
#X connect 15 1 9 0;
