#N canvas 431 111 450 300 10;
#X obj 13 15 mrpeach/udpreceive 8000;
#X obj 13 39 mrpeach/unpackOSC;
#X obj 13 61 print;
#X obj 137 222 mrpeach/udpsend;
#X floatatom 150 91 5 0 0 0 - - -, f 5;
#X obj 110 161 mrpeach/packOSC;
#X msg 274 160 disconnect;
#X floatatom 142 248 5 0 0 0 - - -, f 5;
#X msg 147 195 connect 127.0.0.1 9900;
#X msg 144 112 send /data/test \$1 ca cs \$1+1;
#X connect 0 0 1 0;
#X connect 1 0 2 0;
#X connect 3 0 7 0;
#X connect 4 0 9 0;
#X connect 5 0 3 0;
#X connect 6 0 3 0;
#X connect 8 0 3 0;
#X connect 9 0 5 0;
