#N canvas 540 36 538 625 10;
#X obj 40 73 unpack f f f;
#X obj 74 97 mtof;
#X obj 40 97 mtof;
#X obj 88 167 log;
#X obj 88 145 /;
#X obj 88 120 swap;
#X obj 40 145 /;
#X obj 40 120 swap;
#X obj 40 167 log;
#X obj 109 97 mtof;
#X obj 67 213 -;
#X obj 67 255 expr pow($f1 \, 2);
#X obj 67 277 * -1;
#X floatatom 133 225 5 0 0 0 - - -, f 5;
#X floatatom 135 158 5 0 0 0 - - -, f 5;
#X floatatom 145 132 5 0 0 0 - - -, f 5;
#X floatatom 143 179 5 0 0 0 - - -, f 5;
#X floatatom 16 207 5 0 0 0 - - -, f 5;
#X text 73 480 t=pow(2.718281828 \, -1.0*((int1-int2)/d)*((int1-int2)/d))
;
#X text 57 428 double d=0.5 \; /* "d" is used in the tension calculation
to give a maximal tension value of 1 when 3 tones */ /* are equally
spaced (on a semitone scale). */;
#X floatatom 151 382 5 0 0 0 - - -, f 5;
#X obj 143 349 expr pow(2.718281828 \, $f1);
#X obj 67 234 / 0.5;
#X msg 127 25 0 4 8;
#X msg 40 33 0 5 4;
#X msg 47 14 0 4 7;
#X msg 138 50 0 4 8;
#X floatatom 173 217 5 0 0 0 - - -, f 5;
#X connect 0 0 2 0;
#X connect 0 1 1 0;
#X connect 0 2 9 0;
#X connect 1 0 5 0;
#X connect 1 0 7 1;
#X connect 2 0 7 0;
#X connect 3 0 16 0;
#X connect 3 0 10 1;
#X connect 4 0 3 0;
#X connect 4 0 15 0;
#X connect 5 0 4 0;
#X connect 5 1 4 1;
#X connect 6 0 8 0;
#X connect 7 0 6 0;
#X connect 7 1 6 1;
#X connect 8 0 17 0;
#X connect 8 0 10 0;
#X connect 9 0 5 1;
#X connect 10 0 14 0;
#X connect 10 0 22 0;
#X connect 11 0 12 0;
#X connect 12 0 21 0;
#X connect 21 0 20 0;
#X connect 22 0 11 0;
#X connect 22 0 13 0;
#X connect 23 0 0 0;
#X connect 24 0 0 0;
#X connect 25 0 0 0;
#X connect 26 0 0 0;
#X connect 27 0 22 1;
