#N canvas 483 84 492 390 10;
#X obj 80 223 dac~;
#X obj 92 173 catch~ harm.voices;
#X obj 28 22 r stepsize;
#X obj 21 67 * 1;
#X floatatom 21 0 5 0 0 0 - - -, f 5;
#X obj 214 -42 s stepsize;
#X floatatom 214 -63 5 0 0 0 semitonos - -, f 5;
#X obj 114 66 r windowSize;
#X obj 288 -43 s windowSize;
#X floatatom 288 -66 5 0 1 1 en_segundos_(0-1) - -, f 5;
#X obj 28 45 t b f;
#X obj 21 88 harm.voice 1 0.1;
#X obj 16 -84 adc~;
#X obj 16 -62 delwrite~ harm 2000;
#X floatatom 11 133 5 0 0 0 - - -, f 5;
#X obj 92 193 *~ 1;
#X connect 1 0 15 0;
#X connect 2 0 10 0;
#X connect 3 0 11 0;
#X connect 4 0 3 0;
#X connect 6 0 5 0;
#X connect 7 0 11 1;
#X connect 9 0 8 0;
#X connect 10 0 3 0;
#X connect 10 1 3 1;
#X connect 12 0 13 0;
#X connect 15 0 0 0;
#X connect 15 0 0 1;
