#N canvas 594 274 1255 1005 10;
#X obj 135 243 cos~;
#X obj 135 286 +~ 0.5;
#X obj 135 265 *~ -0.5;
#X obj 171 327 *~;
#X obj 278 279 +~ 0.5;
#X obj 278 300 wrap~;
#X obj 229 329 cos~;
#X obj 229 372 +~ 0.5;
#X obj 229 351 *~ -0.5;
#X obj 263 438 *~;
#X obj 248 462 +~;
#X obj 173 23 inlet;
#X obj 304 19 inlet;
#X obj 186 206 phasor~ \$1;
#X obj 335 210 * 1000;
#X obj 335 188 \$2;
#X obj 247 18 loadbang;
#X obj 278 394 *~;
#X obj 335 232 sig~;
#X obj 186 265 *~;
#X obj 186 161 / \$2;
#X obj 186 139 - 1;
#X obj 186 118 pow;
#X msg 186 98 1.05946 \$1;
#X obj 304 42 t b f;
#X obj 186 185 * -1;
#X obj 186 76 f \$1;
#X obj 248 485 outlet~;
#X text 371 32 \$1 - initial transposition in semitones;
#X text 371 52 \$2 - initial window-size in seconds;
#X obj 13 3 inlet~;
#X obj 13 24 delwrite~ \$0-shift 1000;
#X obj 186 289 vd~ \$0-shift 0;
#X obj 278 416 vd~ \$0-shift 0;
#X connect 0 0 2 0;
#X connect 1 0 3 0;
#X connect 2 0 1 0;
#X connect 3 0 10 0;
#X connect 4 0 5 0;
#X connect 5 0 6 0;
#X connect 5 0 17 0;
#X connect 6 0 8 0;
#X connect 7 0 9 0;
#X connect 8 0 7 0;
#X connect 9 0 10 1;
#X connect 10 0 27 0;
#X connect 11 0 26 0;
#X connect 12 0 24 0;
#X connect 13 0 0 0;
#X connect 13 0 4 0;
#X connect 13 0 19 0;
#X connect 14 0 18 0;
#X connect 15 0 14 0;
#X connect 16 0 15 0;
#X connect 16 0 26 0;
#X connect 17 0 33 0;
#X connect 18 0 17 1;
#X connect 18 0 19 1;
#X connect 19 0 32 0;
#X connect 20 0 25 0;
#X connect 21 0 20 0;
#X connect 22 0 21 0;
#X connect 23 0 22 0;
#X connect 24 0 26 0;
#X connect 24 1 15 0;
#X connect 24 1 20 1;
#X connect 25 0 13 0;
#X connect 26 0 23 0;
#X connect 30 0 31 0;
#X connect 32 0 3 1;
#X connect 33 0 9 1;
