#N canvas 127 73 312 524 10;
#X obj 10 195 cos~;
#X obj 10 238 +~ 0.5;
#X obj 10 217 *~ -0.5;
#X obj 46 279 *~;
#X obj 153 219 +~ 0.5;
#X obj 153 240 wrap~;
#X obj 104 269 cos~;
#X obj 104 312 +~ 0.5;
#X obj 104 291 *~ -0.5;
#X obj 138 378 *~;
#X obj 123 402 +~;
#X obj 48 -25 inlet;
#X obj 169 -39 inlet;
#X obj 61 158 phasor~ \$1;
#X obj 210 162 * 1000;
#X obj 210 139 \$2;
#X obj 112 -40 loadbang;
#X obj 153 334 *~;
#X obj 210 184 sig~;
#X obj 61 217 *~;
#X obj 61 113 / \$2;
#X obj 61 91 - 1;
#X obj 61 70 pow;
#X msg 61 50 1.05946 \$1;
#X obj 61 241 vd~ harm 0;
#X obj 153 356 vd~ harm 0;
#X obj 169 -16 t b f;
#X obj 123 425 throw~ harm.voices;
#X obj 61 137 * -1;
#X obj 61 28 f \$1;
#X connect 0 0 2 0;
#X connect 1 0 3 0;
#X connect 2 0 1 0;
#X connect 3 0 10 0;
#X connect 4 0 5 0;
#X connect 5 0 6 0;
#X connect 5 0 17 0;
#X connect 6 0 8 0;
#X connect 7 0 9 0;
#X connect 8 0 7 0;
#X connect 9 0 10 1;
#X connect 10 0 27 0;
#X connect 11 0 29 0;
#X connect 12 0 26 0;
#X connect 13 0 0 0;
#X connect 13 0 4 0;
#X connect 13 0 19 0;
#X connect 14 0 18 0;
#X connect 15 0 14 0;
#X connect 16 0 15 0;
#X connect 16 0 29 0;
#X connect 17 0 25 0;
#X connect 18 0 17 1;
#X connect 18 0 19 1;
#X connect 19 0 24 0;
#X connect 20 0 28 0;
#X connect 21 0 20 0;
#X connect 22 0 21 0;
#X connect 23 0 22 0;
#X connect 24 0 3 1;
#X connect 25 0 9 1;
#X connect 26 0 29 0;
#X connect 26 1 15 0;
#X connect 26 1 20 1;
#X connect 28 0 13 0;
#X connect 29 0 23 0;
