#N canvas 416 37 558 621 10;
#X declare -path ./abstools;
#X obj -212 73 cnv 15 165 35 empty empty empty 20 12 0 14 -4034 -66577
0;
#X obj -184 371 cnv 15 60 35 empty empty empty 20 12 0 14 -4034 -66577
0;
#X obj -215 136 cnv 15 200 200 empty empty empty 20 12 0 14 -233017
-66577 0;
#X floatatom -40 109 5 0 0 0 - - -;
#X obj -205 24 bng 15 250 50 0 empty empty empty 17 7 0 10 -262144
-1 -1;
#X msg -194 48 refresh;
#X obj -205 184 list split 1;
#X obj -205 163 jasch_lib/strtok .;
#X obj -148 267 length;
#X obj -205 250 t l l;
#X obj -205 205 jasch_lib/strtok _;
#X obj -205 228 list;
#X obj -148 289 - 1;
#X obj -205 310 list split;
#X obj -177 380 key2pc;
#X text -135 47 "refresh" to get list of files and init;
#X text -181 23 "bang" to retrieve filenames individually;
#X obj -193 112 print filename;
#X text 0 108 number of midi files in folder;
#X text -198 141 get key name from file...;
#X floatatom -144 412 5 0 0 0 - - -;
#X text -106 413 0 = major \, 1 = minor;
#X floatatom -177 432 5 0 0 0 - - -;
#X text -139 432 pitch class (0:C \, 1:Db \, ... \, 11:B);
#X symbolatom -169 345 10 0 0 0 - - -;
#X text -100 345 key name;
#X obj -232 462 cnv 15 400 130 empty empty empty 20 12 0 14 -261234
-66577 0;
#X text -213 474 NOTA: los objetos [listdir] y [key2pc] son "abstracciones"
que os damos para facilitar el trabajo. Las abstracciones son patches
de pd que son llamados dentro de otros patches. El único requisito
es que pd tiene que "saber" donde se encuentran. Para ello \, os aconsejamos
que los mantengáis siempre dentro de la misma carpeta desde la que
estáis trabajando. De ese modo no necesitáis hacer ninguna declaración
adicional.;
#X obj -220 -5 declare -path ./abstools;
#X text -64 -5 <<- this way we tell Pd to look for patches in this
address!;
#X obj -205 82 listdir ./midi_basslines mid;
#X text -26 81 <- creation arguments = /route/to/your/files extension
;
#X connect 4 0 30 0;
#X connect 5 0 30 0;
#X connect 6 0 10 0;
#X connect 7 0 6 0;
#X connect 8 0 12 0;
#X connect 9 0 13 0;
#X connect 9 1 8 0;
#X connect 10 0 11 0;
#X connect 11 0 9 0;
#X connect 12 0 13 1;
#X connect 13 1 14 0;
#X connect 13 1 24 0;
#X connect 14 0 22 0;
#X connect 14 1 20 0;
#X connect 30 0 7 0;
#X connect 30 0 17 0;
#X connect 30 1 3 0;
