#N canvas 158 22 895 730 10;
#X msg 100 -50 read \$1;
#X msg 139 4 verbose 0;
#X obj 100 -69 symbol;
#X obj 100 4 until;
#X obj 100 -31 t b a b;
#X msg 218 -13 bang;
#X obj 119 26 mrpeach/midifile;
#X obj 100 -91 openpanel;
#X msg 100 -158 bang;
#X floatatom 165 118 15 0 0 0 current_tick - -;
#X floatatom 259 108 15 0 0 0 last_tick - -;
#X obj 392 193 route 144 145 146 147 148 149 150 151 152 153 154 155
156 157 158 159;
#X obj 232 60 t b b;
#X obj 312 69 bng 15 250 50 0 empty empty end 17 7 0 10 -258113 -257985
-1;
#X obj 259 82 f;
#X obj 312 43 route bang format tracks ticks_per_quarternote;
#X floatatom 380 67 3 0 0 1 format - -;
#X floatatom 448 67 5 0 0 1 tracks - -;
#X floatatom 516 67 5 0 0 1 ticks_per_quarternote - -;
#N canvas 256 281 930 121 contanotas_________________16chans 0;
#X obj 16 46 i;
#X obj 44 46 + 1;
#X obj 16 20 inlet;
#X obj 16 72 outlet;
#X obj 72 46 i;
#X obj 100 46 + 1;
#X obj 72 20 inlet;
#X obj 72 72 outlet;
#X obj 126 46 i;
#X obj 154 46 + 1;
#X obj 126 20 inlet;
#X obj 126 72 outlet;
#X obj 182 46 i;
#X obj 210 46 + 1;
#X obj 182 20 inlet;
#X obj 182 72 outlet;
#X obj 237 46 i;
#X obj 265 46 + 1;
#X obj 237 20 inlet;
#X obj 237 72 outlet;
#X obj 293 46 i;
#X obj 321 46 + 1;
#X obj 293 20 inlet;
#X obj 293 72 outlet;
#X obj 347 46 i;
#X obj 375 46 + 1;
#X obj 347 20 inlet;
#X obj 347 72 outlet;
#X obj 403 46 i;
#X obj 431 46 + 1;
#X obj 403 20 inlet;
#X obj 403 72 outlet;
#X obj 459 45 i;
#X obj 487 45 + 1;
#X obj 459 19 inlet;
#X obj 459 71 outlet;
#X obj 515 45 i;
#X obj 543 45 + 1;
#X obj 515 19 inlet;
#X obj 515 71 outlet;
#X obj 569 45 i;
#X obj 597 45 + 1;
#X obj 569 19 inlet;
#X obj 569 71 outlet;
#X obj 625 45 i;
#X obj 653 45 + 1;
#X obj 625 19 inlet;
#X obj 625 71 outlet;
#X obj 680 45 i;
#X obj 708 45 + 1;
#X obj 680 19 inlet;
#X obj 680 71 outlet;
#X obj 736 45 i;
#X obj 764 45 + 1;
#X obj 736 19 inlet;
#X obj 736 71 outlet;
#X obj 790 45 i;
#X obj 818 45 + 1;
#X obj 790 19 inlet;
#X obj 790 71 outlet;
#X obj 846 45 i;
#X obj 874 45 + 1;
#X obj 846 19 inlet;
#X obj 846 71 outlet;
#X connect 0 0 1 0;
#X connect 0 0 3 0;
#X connect 1 0 0 1;
#X connect 2 0 0 0;
#X connect 4 0 5 0;
#X connect 4 0 7 0;
#X connect 5 0 4 1;
#X connect 6 0 4 0;
#X connect 8 0 9 0;
#X connect 8 0 11 0;
#X connect 9 0 8 1;
#X connect 10 0 8 0;
#X connect 12 0 13 0;
#X connect 12 0 15 0;
#X connect 13 0 12 1;
#X connect 14 0 12 0;
#X connect 16 0 17 0;
#X connect 16 0 19 0;
#X connect 17 0 16 1;
#X connect 18 0 16 0;
#X connect 20 0 21 0;
#X connect 20 0 23 0;
#X connect 21 0 20 1;
#X connect 22 0 20 0;
#X connect 24 0 25 0;
#X connect 24 0 27 0;
#X connect 25 0 24 1;
#X connect 26 0 24 0;
#X connect 28 0 29 0;
#X connect 28 0 31 0;
#X connect 29 0 28 1;
#X connect 30 0 28 0;
#X connect 32 0 33 0;
#X connect 32 0 35 0;
#X connect 33 0 32 1;
#X connect 34 0 32 0;
#X connect 36 0 37 0;
#X connect 36 0 39 0;
#X connect 37 0 36 1;
#X connect 38 0 36 0;
#X connect 40 0 41 0;
#X connect 40 0 43 0;
#X connect 41 0 40 1;
#X connect 42 0 40 0;
#X connect 44 0 45 0;
#X connect 44 0 47 0;
#X connect 45 0 44 1;
#X connect 46 0 44 0;
#X connect 48 0 49 0;
#X connect 48 0 51 0;
#X connect 49 0 48 1;
#X connect 50 0 48 0;
#X connect 52 0 53 0;
#X connect 52 0 55 0;
#X connect 53 0 52 1;
#X connect 54 0 52 0;
#X connect 56 0 57 0;
#X connect 56 0 59 0;
#X connect 57 0 56 1;
#X connect 58 0 56 0;
#X connect 60 0 61 0;
#X connect 60 0 63 0;
#X connect 61 0 60 1;
#X connect 62 0 60 0;
#X restore 392 241 pd contanotas_________________16chans;
#X floatatom 395 538 5 0 0 0 - - -;
#X floatatom 408 520 5 0 0 0 - - -;
#X floatatom 422 502 5 0 0 0 - - -;
#X floatatom 437 484 5 0 0 0 - - -;
#X floatatom 452 466 5 0 0 0 - - -;
#X floatatom 467 448 5 0 0 0 - - -;
#X floatatom 481 430 5 0 0 0 - - -;
#X floatatom 496 412 5 0 0 0 - - -;
#X floatatom 508 389 5 0 0 0 - - -;
#X floatatom 523 371 5 0 0 0 - - -;
#X floatatom 537 353 5 0 0 0 - - -;
#X floatatom 552 335 5 0 0 0 - - -;
#X floatatom 567 317 5 0 0 0 - - -;
#X floatatom 582 299 5 0 0 0 - - -;
#X floatatom 596 281 5 0 0 0 - - -;
#X floatatom 611 263 5 0 0 0 - - -;
#X obj 516 91 / 4;
#X floatatom 516 116 5 0 0 0 ticks_semicorchea - -;
#X floatatom 165 223 5 0 0 0 - - -;
#X obj 165 175 /;
#X obj 165 198 i;
#X obj 165 255 % 16;
#X obj 22 228 print nota;
#X obj 82 405 tabread kick;
#X obj 81 476 tabwrite kick;
#X obj 183 405 tabread snare;
#X obj 183 477 tabwrite snare;
#X obj 283 404 tabread hhat;
#X obj 283 478 tabwrite hhat;
#X text 411 171 si drums en ch10 \, route only 153 (en fiveyears es
ch1);
#X obj 165 143 - 1;
#X text -72 143 midifile comienza a contar ticks con 1;
#X obj 183 451 pack 1 1;
#X obj 284 449 pack 1 1;
#X msg 252 -110 \; kick const 0;
#X msg 252 -78 \; snare const 0;
#X msg 252 -46 \; hhat const 0;
#X text 250 -129 reiniciar taules;
#X obj 81 429 + 1;
#X obj 183 427 + 1;
#X obj 283 427 + 1;
#X obj 81 454 pack 1 1;
#X obj 171 365 i;
#X obj 202 365 i;
#X obj 232 365 i;
#X obj 165 280 t f f;
#X text 11 255 contamos 16 semicorcheas;
#X msg 178 91 0;
#X text -91 207 ejemplo para afrorock.mid : 60 \, 62 \, 71;
#X obj 267 278 sel 60 62 71;
#X obj 267 255 unpack;
#X obj 100 -127 t b b;
#X obj 104 319 print;
#X obj -44 299 table kick 16;
#X obj -44 323 table snare 16;
#X obj -45 346 table hhat 16;
#X connect 0 0 4 0;
#X connect 1 0 6 0;
#X connect 2 0 0 0;
#X connect 3 0 6 0;
#X connect 4 0 3 0;
#X connect 4 1 6 0;
#X connect 4 2 1 0;
#X connect 5 0 3 1;
#X connect 6 0 11 0;
#X connect 6 1 9 0;
#X connect 6 1 14 1;
#X connect 6 2 15 0;
#X connect 7 0 2 0;
#X connect 8 0 71 0;
#X connect 9 0 50 0;
#X connect 11 0 19 0;
#X connect 11 0 42 0;
#X connect 11 0 70 0;
#X connect 11 1 19 1;
#X connect 11 2 19 2;
#X connect 11 3 19 3;
#X connect 11 4 19 4;
#X connect 11 5 19 5;
#X connect 11 6 19 6;
#X connect 11 7 19 7;
#X connect 11 8 19 8;
#X connect 11 9 19 9;
#X connect 11 10 19 10;
#X connect 11 11 19 11;
#X connect 11 12 19 12;
#X connect 11 13 19 13;
#X connect 11 14 19 14;
#X connect 11 15 19 15;
#X connect 12 1 14 0;
#X connect 13 0 5 0;
#X connect 14 0 10 0;
#X connect 15 0 13 0;
#X connect 15 0 12 0;
#X connect 15 1 16 0;
#X connect 15 2 17 0;
#X connect 15 3 18 0;
#X connect 18 0 36 0;
#X connect 19 0 20 0;
#X connect 19 1 21 0;
#X connect 19 2 22 0;
#X connect 19 3 23 0;
#X connect 19 4 24 0;
#X connect 19 5 25 0;
#X connect 19 6 26 0;
#X connect 19 7 27 0;
#X connect 19 8 28 0;
#X connect 19 9 29 0;
#X connect 19 10 30 0;
#X connect 19 11 31 0;
#X connect 19 12 32 0;
#X connect 19 13 33 0;
#X connect 19 14 34 0;
#X connect 19 15 35 0;
#X connect 36 0 37 0;
#X connect 37 0 39 1;
#X connect 38 0 41 0;
#X connect 39 0 40 0;
#X connect 40 0 38 0;
#X connect 41 0 65 0;
#X connect 43 0 58 0;
#X connect 45 0 59 0;
#X connect 47 0 60 0;
#X connect 50 0 39 0;
#X connect 52 0 46 0;
#X connect 53 0 48 0;
#X connect 58 0 61 0;
#X connect 59 0 52 0;
#X connect 60 0 53 0;
#X connect 61 0 44 0;
#X connect 62 0 43 0;
#X connect 63 0 45 0;
#X connect 64 0 47 0;
#X connect 65 0 62 1;
#X connect 65 0 63 1;
#X connect 65 0 64 1;
#X connect 65 0 72 0;
#X connect 65 1 61 1;
#X connect 65 1 52 1;
#X connect 65 1 53 1;
#X connect 67 0 9 0;
#X connect 67 0 10 0;
#X connect 69 0 62 0;
#X connect 69 1 63 0;
#X connect 69 2 64 0;
#X connect 70 0 69 0;
#X connect 71 0 7 0;
#X connect 71 1 54 0;
#X connect 71 1 55 0;
#X connect 71 1 56 0;
#X connect 71 1 67 0;
