#N canvas 725 313 384 293 10;
#X obj -5 8 inlet~;
#X obj -5 257 outlet~;
#X obj -5 71 rfft~;
#X obj -5 50 *~;
#X obj -5 193 rifft~;
#X obj -5 236 *~;
#X obj 10 215 tabreceive~ hanning;
#X obj 11 30 tabreceive~ hanning;
#X obj 43 94 ramp~;
#X obj 43 72 bang~;
#X obj 43 146 /~ 1536;
#X obj 28 170 *~;
#X obj -5 170 *~;
#X obj 226 23 inlet;
#X obj 265 23 inlet;
#X obj 170 65 loadbang;
#X obj 170 90 \$1;
#X obj 197 90 \$2;
#X obj 43 118 expr~ if($v1 > $f2 \, if($v1 < $f3 \, 1 \, 0) \, 0);
#X obj 265 90 minmax;
#X obj 265 69 pack;
#X obj 265 44 t b f;
#X obj 43 8 block~ 4096 4;
#X obj 229 210 timer;
#X floatatom 231 244 0 0 0 0 - - -;
#X obj 225 188 t b b;
#X obj 225 158 bang~;
#X connect 0 0 3 0;
#X connect 2 0 12 0;
#X connect 2 1 11 0;
#X connect 3 0 2 0;
#X connect 4 0 5 0;
#X connect 5 0 1 0;
#X connect 6 0 5 1;
#X connect 7 0 3 1;
#X connect 8 0 18 0;
#X connect 9 0 8 0;
#X connect 10 0 11 1;
#X connect 10 0 12 1;
#X connect 11 0 4 1;
#X connect 12 0 4 0;
#X connect 13 0 20 0;
#X connect 14 0 21 0;
#X connect 15 0 16 0;
#X connect 15 0 17 0;
#X connect 16 0 18 1;
#X connect 17 0 18 2;
#X connect 18 0 10 0;
#X connect 19 0 18 1;
#X connect 19 1 18 2;
#X connect 20 0 19 0;
#X connect 21 0 20 0;
#X connect 21 1 20 1;
#X connect 23 0 24 0;
#X connect 25 0 23 0;
#X connect 25 1 23 1;
#X connect 26 0 25 0;
