#N canvas 631 29 469 264 10;
#N canvas 193 180 411 257 hanning-window_calculation 0;
#N canvas 0 22 454 304 (subpatch) 0;
#X array hanning 4096 float 2;
#X coords 0 1 4096 0 200 140 1;
#X restore 158 47 graph;
#X obj 15 73 osc~;
#X msg 34 51 0;
#X obj 8 136 tabwrite~ hanning;
#X obj 15 94 *~ -0.5;
#X obj 15 115 +~ 0.5;
#X obj 8 5 loadbang;
#X obj 64 4 bng 15 250 50 0 empty empty empty 17 7 0 10 -262144 -1
-1;
#X msg 0 157 \; pd dsp 1;
#X obj 15 31 expr 44100/4096;
#X connect 1 0 4 0;
#X connect 2 0 1 1;
#X connect 4 0 5 0;
#X connect 5 0 3 0;
#X connect 6 0 2 0;
#X connect 6 0 3 0;
#X connect 6 0 8 0;
#X connect 6 0 9 0;
#X connect 7 0 2 0;
#X connect 7 0 3 0;
#X connect 7 0 9 0;
#X connect 9 0 1 0;
#X restore 5 -77 pd hanning-window_calculation;
#X obj 116 67 dac~;
#X obj 6 -25 *~ 0.1;
#X floatatom 61 4 5 0 0 0 - - -;
#X floatatom 117 3 5 0 0 0 - - -;
#X floatatom 227 -28 5 0 0 0 - - -;
#X floatatom 286 -30 5 0 0 0 - - -;
#X text 5 97 this is a very basic example of how we could achieve interesting
spatialization effects by distributing the different spectral components
of a signal through different loudspeakers.;
#X text 8 157 ANGEL FARALDO. 2012;
#X obj 6 -54 phasor~ 100;
#X obj 6 25 a.spectralRange~ 1 10;
#X obj 169 -8 a.spectralRange~ 20 50;
#X connect 2 0 10 0;
#X connect 2 0 11 0;
#X connect 3 0 10 1;
#X connect 4 0 10 2;
#X connect 5 0 11 1;
#X connect 6 0 11 2;
#X connect 9 0 2 0;
#X connect 10 0 1 0;
#X connect 11 0 1 1;
