#N canvas 94 23 932 751 10;
#X obj 6 23 openpanel;
#X obj 6 3 bng 15 250 50 0 empty empty empty 17 7 0 10 -262144 -1 -1
;
#X floatatom 114 255 5 0 0 0 - - -, f 5;
#X floatatom 91 276 5 0 0 0 - - -, f 5;
#X floatatom 68 295 5 0 0 0 - - -, f 5;
#X floatatom 161 213 5 0 0 0 - - -, f 5;
#X text 197 212 tempo (bpm);
#X text 153 254 real duration (in ticks);
#X text 128 277 tentative length (to match complete beats!);
#X text 105 296 estimated beats (in quarter notes \, after rounding
up length);
#X obj 99 152 bng 15 250 50 0 empty empty empty 17 7 0 10 -262144 -1
-1;
#X text 119 151 FOURTH outlet sends a bang when the file ends;
#X obj 68 191 unpack 0 0 0 0 0;
#X text 173 191 THIRD outlet outputs temporal info:;
#X floatatom 137 234 5 0 0 0 - - -, f 5;
#X text 176 233 ticks per quarternote;
#X obj 6 130 gspd/midi-player;
#X obj 37 377 unpack f f f;
#X msg 6 109 read \$1 \, flush;
#X obj 71 400 spigot;
#X obj 6 67 t s b;
#X obj 33 88 s \$0-reset_analysis;
#X obj 194 398 r \$0-reset_analysis;
#X obj 71 421 gspd/add2list prepend;
#X obj 633 486 list length;
#X floatatom 633 508 5 0 0 0 - - -, f 5;
#X obj 6 45 symbol;
#X obj 59 58 bng 15 250 50 0 empty empty empty 17 7 0 10 -262144 -1
-1;
#X text 670 509 note count;
#X obj 8 443 gspd/vlist;
#X obj 99 170 s \$0-calc;
#X obj 8 421 r \$0-calc;
#X obj 157 491 zexy/minmax;
#X floatatom 220 513 5 0 0 0 - - -, f 5;
#X floatatom 157 533 5 0 0 0 - - -, f 5;
#X text 255 514 highest;
#X text 192 534 lowest;
#X obj 205 568 -;
#X obj 205 588 * -1;
#X floatatom 205 609 5 0 0 0 - - -, f 5;
#X text 242 610 ambitus;
#X obj 306 497 gspd/pcs-unique;
#X obj 448 527 gspd/pcs-pseudoprimeform;
#X obj 306 525 gspd/pcs-order;
#X obj 448 550 gspd/gui-prnt;
#X obj 316 576 gspd/gui-prnt;
#X obj 306 551 gspd/midi2pc;
#X obj 259 542 mod 12;
#X floatatom 260 561 5 0 0 0 - - -, f 5;
#X obj 66 565 mod 12;
#X floatatom 67 584 5 0 0 0 - - -, f 5;
#X obj 8 491 list split 1;
#X floatatom 15 513 5 0 0 0 - - -, f 5;
#X obj 68 334 div 4;
#X obj 68 313 + 3;
#X obj 68 355 s \$0-barLength;
#X obj 698 531 r \$0-barLength;
#X obj 683 554 /;
#X floatatom 683 576 5 0 0 0 - - -, f 5;
#X text 720 576 notes/bar;
#X text 51 514 first note;
#X obj 8 469 t l l l l, f 75;
#X obj 572 156 textfile;
#X obj 451 593 list2symbol;
#X obj 306 600 list2symbol;
#X obj 66 724 print;
#X obj 8 684 pack f f f f f f a a f f, f 76;
#X connect 0 0 26 0;
#X connect 1 0 0 0;
#X connect 4 0 54 0;
#X connect 10 0 30 0;
#X connect 12 0 4 0;
#X connect 12 1 3 0;
#X connect 12 2 2 0;
#X connect 12 3 14 0;
#X connect 12 4 5 0;
#X connect 16 1 17 0;
#X connect 16 2 12 0;
#X connect 16 3 10 0;
#X connect 17 1 19 0;
#X connect 17 2 19 1;
#X connect 18 0 16 0;
#X connect 19 0 23 0;
#X connect 20 0 18 0;
#X connect 20 1 21 0;
#X connect 22 0 23 1;
#X connect 23 0 29 1;
#X connect 24 0 25 0;
#X connect 25 0 57 0;
#X connect 25 0 66 8;
#X connect 26 0 20 0;
#X connect 27 0 26 0;
#X connect 29 0 61 0;
#X connect 31 0 29 0;
#X connect 32 0 34 0;
#X connect 32 1 33 0;
#X connect 33 0 37 1;
#X connect 33 0 47 0;
#X connect 33 0 66 4;
#X connect 34 0 37 0;
#X connect 34 0 49 0;
#X connect 34 0 66 2;
#X connect 37 0 38 0;
#X connect 38 0 39 0;
#X connect 39 0 66 3;
#X connect 41 0 42 0;
#X connect 41 0 43 0;
#X connect 42 0 44 0;
#X connect 42 0 63 0;
#X connect 42 0 66 7;
#X connect 43 0 46 0;
#X connect 46 0 45 0;
#X connect 46 0 64 0;
#X connect 47 0 48 0;
#X connect 48 0 66 5;
#X connect 49 0 50 0;
#X connect 50 0 66 1;
#X connect 51 0 52 0;
#X connect 51 0 66 0;
#X connect 53 0 55 0;
#X connect 54 0 53 0;
#X connect 56 0 57 1;
#X connect 57 0 58 0;
#X connect 58 0 66 9;
#X connect 61 0 51 0;
#X connect 61 1 32 0;
#X connect 61 2 41 0;
#X connect 61 3 24 0;
#X connect 64 0 66 6;
#X connect 66 0 65 0;
