#N canvas 165 22 1115 682 10;
#X obj 214 251 noise~;
#X floatatom 46 192 5 0 0 0 - - -, f 5;
#X floatatom 291 166 5 0 0 0 - - -, f 5;
#X text 263 26 q = 0 \, > 100 dB;
#X text 263 46 q = 10^0 = 1 \, 89-90 dB;
#X text 263 66 q = 10^1 = 10 \, 77-78 dB;
#X text 263 86 q = 10^2 = 100 \, 66-67;
#X obj 46 166 env~ 2048;
#X obj 64 240 average 100;
#X floatatom 65 280 5 0 0 0 - - -, f 5;
#X text 263 106 q = 1000^3 = 1000 \, 54-55;
#X obj 389 270 expr log10($f1);
#X floatatom 389 231 5 0 0 0 - - -, f 5;
#X obj 298 193 t f f;
#X obj 308 435 *~ 1;
#X obj 221 518 *~ 0.1;
#X floatatom 111 416 5 0 0 0 - - -, f 5;
#X obj 111 390 env~ 16384;
#X floatatom 180 414 5 0 0 0 - - -, f 5;
#X obj 182 389 env~ 16384;
#X obj 389 316 + 100;
#X obj 389 339 dbtorms;
#X obj 389 294 * 12;
#X obj 224 560 dac~;
#X obj 214 276 vcf~ 1000 1;
#X obj 228 317 vcf~ 1000 1;
#X connect 0 0 24 0;
#X connect 0 0 25 0;
#X connect 1 0 8 0;
#X connect 2 0 13 0;
#X connect 7 0 1 0;
#X connect 8 0 9 0;
#X connect 11 0 22 0;
#X connect 12 0 11 0;
#X connect 13 0 24 2;
#X connect 13 0 25 2;
#X connect 13 1 12 0;
#X connect 14 0 15 0;
#X connect 14 0 19 0;
#X connect 15 0 23 0;
#X connect 15 0 23 1;
#X connect 17 0 16 0;
#X connect 19 0 18 0;
#X connect 20 0 21 0;
#X connect 21 0 14 1;
#X connect 22 0 20 0;
#X connect 25 0 17 0;
