#N canvas 140 22 673 735 10;
#X obj 81 404 dac~;
#X obj 6 -62 delwrite~ harm 1000;
#X obj 91 350 catch~ harm.voices;
#X obj 7 4 s windowSize;
#X floatatom 7 -19 5 0 1 1 0-1_secs. - -;
#X obj 6 -85 adc~ 1;
#X text 128 -62 <- the main ingredient is a delay line from which we
will read at various speeds...;
#X text 93 1 <- the window size will determine both the accuracy of
the transposition and the time delay of its response: shorter sizes
will give a more immediate response while longer sizes will improve
the tuning (it's always a compromise between these two parameters...).
Default is 0.1 sec.;
#X obj 91 206 harm.voice 4;
#X obj 91 177 harm.voice 0;
#X obj 91 236 harm.voice 7;
#X obj 91 266 harm.voice 12;
#X obj 239 97 r windowSize;
#X obj 10 92 r chords;
#X obj 91 380 *~ 0.2;
#X text 434 145 MAJOR;
#X msg 321 178 \; chords 0 3 7 12;
#X text 424 185 MINOR;
#X msg 321 218 \; chords 0 3 6 9;
#X text 424 225 DIMINISHED;
#X msg 321 258 \; chords 0 4 7 10;
#X text 424 265 DOMINANT 7TH;
#X text 454 304 OCTAVES;
#X msg 321 138 \; chords -12 4 7 12;
#X msg 321 297 \; chords -24 -12 12 24;
#X text 424 344 SEMITONAL CLUSTER;
#X msg 321 337 \; chords -2 -1 1 2;
#X obj 324 408 until;
#X msg 324 386 4;
#X obj 324 452 - 12;
#X obj 324 430 random 25;
#X obj 324 477 prepend;
#X obj 376 477 t l;
#X obj 310 526 length;
#X obj 310 548 sel 4;
#X obj 330 593 list;
#X obj 324 500 t l l;
#X obj 330 614 s chords;
#X obj 255 594 s resetList;
#X obj 363 454 r resetList;
#X text 353 386 RANDOM CHORD;
#X obj 10 114 unpack 0 0 0 0 0;
#X obj 101 147 harm.voice -12;
#X msg 323 97 \; chords 0.25 -36 7 11.6 -5;
#X msg 498 32 \; chords -12 -5 4 7 12;
#X connect 2 0 14 0;
#X connect 4 0 3 0;
#X connect 5 0 1 0;
#X connect 12 0 9 1;
#X connect 12 0 8 1;
#X connect 12 0 10 1;
#X connect 12 0 11 1;
#X connect 12 0 42 1;
#X connect 13 0 41 0;
#X connect 14 0 0 0;
#X connect 14 0 0 1;
#X connect 27 0 30 0;
#X connect 28 0 27 0;
#X connect 29 0 31 0;
#X connect 30 0 29 0;
#X connect 31 0 32 0;
#X connect 31 0 36 0;
#X connect 32 0 31 1;
#X connect 33 0 34 0;
#X connect 34 0 35 0;
#X connect 34 0 38 0;
#X connect 35 0 37 0;
#X connect 36 0 33 0;
#X connect 36 1 35 1;
#X connect 39 0 31 1;
#X connect 41 0 11 0;
#X connect 41 1 10 0;
#X connect 41 2 8 0;
#X connect 41 3 9 0;
#X connect 41 4 42 0;
