#N canvas 314 22 312 524 10;
#X obj 10 215 cos~;
#X obj 10 258 +~ 0.5;
#X obj 10 237 *~ -0.5;
#X obj 46 299 *~;
#X obj 153 239 +~ 0.5;
#X obj 153 260 wrap~;
#X obj 104 289 cos~;
#X obj 104 332 +~ 0.5;
#X obj 104 311 *~ -0.5;
#X obj 138 398 *~;
#X obj 123 422 +~;
#X obj 61 -19 inlet;
#X obj 214 203 * 1000;
#X obj 101 -19 loadbang;
#X obj 61 91 - 1;
#X obj 61 70 pow;
#X obj 61 28 \$1;
#X obj 61 261 vd~ harm 0;
#X obj 153 376 vd~ harm 0;
#X obj 177 -6 t b f;
#X obj 123 445 throw~ harm.voices;
#X obj 61 135 * -1;
#X obj 61 113 / 0.1;
#X obj 153 354 *~ 100;
#X obj 61 237 *~ 100;
#X obj 61 156 sig~;
#X obj 61 178 phasor~;
#X obj 175 -27 inlet;
#X msg 61 50 1.059 \$1;
#X connect 0 0 2 0;
#X connect 1 0 3 0;
#X connect 2 0 1 0;
#X connect 3 0 10 0;
#X connect 4 0 5 0;
#X connect 5 0 6 0;
#X connect 5 0 23 0;
#X connect 6 0 8 0;
#X connect 7 0 9 0;
#X connect 8 0 7 0;
#X connect 9 0 10 1;
#X connect 10 0 20 0;
#X connect 11 0 16 0;
#X connect 12 0 23 1;
#X connect 12 0 24 1;
#X connect 13 0 16 0;
#X connect 14 0 22 0;
#X connect 15 0 14 0;
#X connect 16 0 28 0;
#X connect 17 0 3 1;
#X connect 18 0 9 1;
#X connect 19 0 16 0;
#X connect 19 1 22 1;
#X connect 19 1 12 0;
#X connect 21 0 25 0;
#X connect 22 0 21 0;
#X connect 23 0 18 0;
#X connect 24 0 17 0;
#X connect 25 0 26 0;
#X connect 26 0 0 0;
#X connect 26 0 4 0;
#X connect 26 0 24 0;
#X connect 27 0 19 0;
#X connect 28 0 15 0;
