#N canvas 15 79 188 276 10;
#X obj 39 16 inlet;
#X obj 50 77 ==;
#X obj 24 152 \$1;
#X obj 50 118 sel 1;
#X obj 24 174 prepend set;
#X obj 24 222 outlet;
#X obj 53 151 s savePatch;
#X obj 33 198 loadbang;
#X obj 50 98 change;
#X obj 66 47 pipe 4000;
#X connect 0 0 1 1;
#X connect 0 0 2 1;
#X connect 0 0 9 0;
#X connect 1 0 8 0;
#X connect 2 0 4 0;
#X connect 3 0 2 0;
#X connect 3 0 6 0;
#X connect 4 0 5 0;
#X connect 7 0 5 0;
#X connect 8 0 3 0;
#X connect 9 0 1 0;
