#N canvas 571 22 694 609 10;
#N canvas 559 22 585 735 audiofiles 0;
#N canvas 0 22 450 300 (subpatch) 0;
#X array clicktrack1 2.36988e+06 float 2;
#X coords 0 1 2.36988e+06 -1 200 140 1;
#X restore 19 26 graph;
#N canvas 0 22 450 300 (subpatch) 0;
#X array clicktrack2 1.01256e+07 float 2;
#X coords 0 1 1.01256e+07 -1 200 140 1;
#X restore 19 206 graph;
#N canvas 0 22 450 300 (subpatch) 0;
#X array clicktrack3 2.74948e+06 float 2;
#X coords 0 1 2.74948e+06 -1 200 140 1;
#X restore 19 386 graph;
#X obj 246 159 soundfiler;
#X obj 245 14 loadbang;
#X obj 245 40 t b b b;
#N canvas 0 22 450 300 (subpatch) 0;
#X array clicktrack4 100 float 2;
#X coords 0 1 100 -1 200 140 1;
#X restore 19 576 graph;
#X msg 246 66 read -resize ./clicktrack1.aiff clicktrack1;
#X msg 266 126 read -resize ./clicktrack3.aiff clicktrack3;
#X msg 256 86 read -maxsize 1.05e+07 -resize ./clicktrack2.aiff clicktrack2
;
#X connect 4 0 5 0;
#X connect 5 0 7 0;
#X connect 5 1 9 0;
#X connect 5 2 8 0;
#X connect 7 0 3 0;
#X connect 8 0 3 0;
#X connect 9 0 3 0;
#X restore 8 -88 pd audiofiles;
#X msg 236 -154 1;
#X msg 9 -44 menusave;
#X obj 9 -67 r savePatch;
#X obj 169 -175 bng 15 250 50 0 empty empty learn_ctl.in 17 7 0 10
-262144 -1 -1;
#X obj 169 -46 s vol1;
#X obj 169 -68 / 127;
#X msg 346 -154 2;
#X msg 456 -154 3;
#X msg 566 -154 4;
#X obj 21 339 tabplay~;
#X obj 9 259 makefilename clicktrack%d;
#X msg 9 283 set \$1;
#X obj 39 190 + 1;
#X obj 9 190 f 0;
#X obj 9 234 + 1;
#X obj 9 212 mod 4;
#X obj 8 -195 bng 100 250 50 0 init empty INIT 28 50 0 18 -262144 -1
-1;
#X obj 24 127 r init;
#X msg 24 148 0;
#X obj 9 306 t b a;
#X obj 9 -21 s pd-PedalTrigger.pd;
#X obj 21 364 s~ out;
#X obj 344 41 r~ out;
#X obj 344 217 dac~ 1;
#X obj 366 68 r vol1;
#X obj 359 98 *;
#X obj 359 142 line~;
#X msg 359 121 \$1 20;
#X obj 344 194 *~;
#X obj 414 41 r~ out;
#X obj 429 98 *;
#X obj 429 142 line~;
#X msg 429 121 \$1 20;
#X obj 414 194 *~;
#X obj 484 41 r~ out;
#X obj 499 98 *;
#X obj 499 142 line~;
#X msg 499 121 \$1 20;
#X obj 484 194 *~;
#X obj 554 40 r~ out;
#X obj 569 97 *;
#X obj 569 141 line~;
#X msg 569 120 \$1 20;
#X obj 554 193 *~;
#X obj 436 68 r vol2;
#X obj 506 68 r vol3;
#X obj 576 67 r vol4;
#X floatatom 177 -134 5 0 0 0 - - -;
#X floatatom 287 -134 5 0 0 0 - - -;
#X floatatom 397 -134 5 0 0 0 - - -;
#X floatatom 507 -134 5 0 0 0 - - -;
#X obj 9 2 pgmin;
#X obj 9 74 t b;
#X obj 9 97 once;
#X obj 169 -154 midilearn;
#X obj 279 -175 bng 15 250 50 0 empty empty learn_ctl.in 17 7 0 10
-262144 -1 -1;
#X obj 389 -175 bng 15 250 50 0 empty empty learn_ctl.in 17 7 0 10
-262144 -1 -1;
#X obj 499 -175 bng 15 250 50 0 empty empty learn_ctl.in 17 7 0 10
-262144 -1 -1;
#X obj 389 -154 midilearn;
#X obj 279 -154 midilearn;
#X obj 499 -154 midilearn;
#X obj 279 -68 / 127;
#X obj 389 -69 / 127;
#X obj 499 -69 / 127;
#X obj 279 -46 s vol2;
#X obj 389 -47 s vol3;
#X obj 499 -47 s vol4;
#X obj 182 272 loadbang;
#X msg 182 294 \; pd dsp 1;
#X msg 177 -93 127;
#X msg 287 -93 127;
#X msg 397 -94 127;
#X msg 507 -94 127;
#X obj 507 -115 autosave f;
#X obj 177 -114 autosave f;
#X obj 287 -114 autosave f;
#X obj 397 -115 autosave f;
#X obj 47 97 delay 1000;
#X obj 359 171 *~ 3;
#X obj 429 171 *~ 3;
#X obj 499 171 *~ 3;
#X obj 569 171 *~ 3;
#X floatatom 620 155 5 0 0 0 - - -;
#X msg 115 97 0;
#X msg 125 117 1;
#X msg 135 137 2;
#X msg 228 203 3;
#X text 258 201 silence;
#X text 165 135 track 3;
#X text 155 115 track 2;
#X text 145 95 track 1;
#X obj 49 25 != 0;
#X obj 49 46 sel 1;
#X obj 49 3 ctlin 0;
#X obj 101 3 notein 0;
#X obj 123 25 != 0;
#X obj 123 46 sel 1;
#X obj 414 217 dac~ 2;
#X obj 484 217 dac~ 4;
#X obj 554 216 dac~ 6;
#X connect 1 0 55 1;
#X connect 2 0 21 0;
#X connect 3 0 2 0;
#X connect 4 0 55 0;
#X connect 6 0 5 0;
#X connect 7 0 60 1;
#X connect 8 0 59 1;
#X connect 9 0 61 1;
#X connect 10 0 22 0;
#X connect 11 0 12 0;
#X connect 12 0 20 0;
#X connect 13 0 14 1;
#X connect 14 0 13 0;
#X connect 14 0 16 0;
#X connect 15 0 11 0;
#X connect 16 0 15 0;
#X connect 18 0 19 0;
#X connect 19 0 14 1;
#X connect 20 0 10 0;
#X connect 20 1 10 0;
#X connect 23 0 29 0;
#X connect 25 0 26 1;
#X connect 25 0 26 0;
#X connect 26 0 28 0;
#X connect 27 0 79 0;
#X connect 28 0 27 0;
#X connect 29 0 24 0;
#X connect 30 0 34 0;
#X connect 31 0 33 0;
#X connect 32 0 80 0;
#X connect 33 0 32 0;
#X connect 34 0 98 0;
#X connect 35 0 39 0;
#X connect 36 0 38 0;
#X connect 37 0 81 0;
#X connect 38 0 37 0;
#X connect 39 0 99 0;
#X connect 40 0 44 0;
#X connect 41 0 43 0;
#X connect 42 0 82 0;
#X connect 43 0 42 0;
#X connect 44 0 100 0;
#X connect 45 0 31 1;
#X connect 45 0 31 0;
#X connect 46 0 36 1;
#X connect 46 0 36 0;
#X connect 47 0 41 1;
#X connect 47 0 41 0;
#X connect 48 0 75 0;
#X connect 49 0 76 0;
#X connect 50 0 77 0;
#X connect 51 0 74 0;
#X connect 52 0 53 0;
#X connect 53 0 54 0;
#X connect 54 0 14 0;
#X connect 54 0 78 0;
#X connect 55 0 6 0;
#X connect 55 0 48 0;
#X connect 55 1 1 0;
#X connect 56 0 60 0;
#X connect 57 0 59 0;
#X connect 58 0 61 0;
#X connect 59 0 50 0;
#X connect 59 0 63 0;
#X connect 59 1 8 0;
#X connect 60 0 49 0;
#X connect 60 0 62 0;
#X connect 60 1 7 0;
#X connect 61 0 51 0;
#X connect 61 0 64 0;
#X connect 61 1 9 0;
#X connect 62 0 65 0;
#X connect 63 0 66 0;
#X connect 64 0 67 0;
#X connect 68 0 69 0;
#X connect 70 0 6 0;
#X connect 71 0 62 0;
#X connect 72 0 63 0;
#X connect 73 0 64 0;
#X connect 74 0 73 0;
#X connect 75 0 70 0;
#X connect 76 0 71 0;
#X connect 77 0 72 0;
#X connect 78 0 54 1;
#X connect 79 0 29 1;
#X connect 80 0 34 1;
#X connect 81 0 39 1;
#X connect 82 0 44 1;
#X connect 83 0 79 1;
#X connect 83 0 80 1;
#X connect 83 0 81 1;
#X connect 83 0 82 1;
#X connect 84 0 14 1;
#X connect 84 0 87 0;
#X connect 85 0 14 1;
#X connect 85 0 87 0;
#X connect 86 0 14 1;
#X connect 86 0 87 0;
#X connect 87 0 15 0;
#X connect 92 0 93 0;
#X connect 93 0 53 0;
#X connect 94 0 92 0;
#X connect 95 1 96 0;
#X connect 96 0 97 0;
#X connect 97 0 53 0;
