#N canvas 41 22 1239 705 10;
#X obj 679 258 expr~ asin(sin($v1));
#X text 723 188 divide by range;
#X obj 679 211 *~ 3.14159;
#X obj 679 233 -~ 1.5708;
#X obj 679 281 +~ 1.5708;
#X obj 679 304 /~ 3.14159;
#X text 723 329 divide by range;
#X obj 679 350 outlet~;
#X obj 679 166 inlet~;
#X obj 679 190 /~ \$1;
#X obj 679 328 *~ \$1;
#X obj 416 154 mirrorWall~;
#X connect 0 0 4 0;
#X connect 2 0 3 0;
#X connect 3 0 0 0;
#X connect 4 0 5 0;
#X connect 5 0 10 0;
#X connect 8 0 9 0;
#X connect 9 0 2 0;
#X connect 10 0 7 0;
