#N canvas 165 23 636 710 10;
#N canvas 213 120 823 463 mus_map_interp 0;
#N canvas 255 258 546 181 interpolate_k 0;
#X obj 203 14 inlet;
#X obj 295 14 inlet;
#X obj 387 13 inlet;
#X obj 479 14 inlet;
#X obj 20 138 outlet;
#X obj 76 40 t b f;
#X obj 20 13 r dmx2;
#X obj 77 13 r dmy2;
#X obj 21 72 expr (1.0 / 4.0) * (($f5 - $f6 - $f4 + $f3) * $f1 + $f5
+ $f6 - $f4 - $f3) * $f2 + (1.0 / 4.0) * (($f5 - $f6 + $f4 - $f3) *
$f1 + $f6 + $f5 + $f4 + $f3);
#X connect 0 0 8 2;
#X connect 1 0 8 3;
#X connect 2 0 8 4;
#X connect 3 0 8 5;
#X connect 5 0 8 0;
#X connect 5 1 8 1;
#X connect 6 0 8 0;
#X connect 7 0 5 0;
#X connect 8 0 4 0;
#X restore 12 45 pd interpolate_k;
#X obj 39 -23 loadbang;
#N canvas 229 194 542 177 interpolate_k 0;
#X obj 21 74 expr (1.0 / 4.0) * (($f5 - $f6 - $f4 + $f3) * $f1 + $f5
+ $f6 - $f4 - $f3) * $f2 + (1.0 / 4.0) * (($f5 - $f6 + $f4 - $f3) *
$f1 + $f6 + $f5 + $f4 + $f3);
#X obj 203 14 inlet;
#X obj 295 14 inlet;
#X obj 387 13 inlet;
#X obj 479 14 inlet;
#X obj 20 138 outlet;
#X obj 76 40 t b f;
#X obj 20 13 r dmx2;
#X obj 76 13 r dmy2;
#X text 97 137 http://en.wikipedia.org/wiki/Bilinear_interpolation
;
#X connect 0 0 5 0;
#X connect 1 0 0 2;
#X connect 2 0 0 3;
#X connect 3 0 0 4;
#X connect 4 0 0 5;
#X connect 6 0 0 0;
#X connect 6 1 0 1;
#X connect 7 0 0 0;
#X connect 8 0 6 0;
#X restore 192 33 pd interpolate_k;
#X msg 274 8 0.5;
#X obj 216 -21 loadbang;
#X msg 192 8 0.5;
#X msg 233 8 0;
#N canvas 229 194 548 183 interpolate_k 0;
#X obj 20 76 expr (1.0 / 4.0) * (($f5 - $f6 - $f4 + $f3) * $f1 + $f5
+ $f6 - $f4 - $f3) * $f2 + (1.0 / 4.0) * (($f5 - $f6 + $f4 - $f3) *
$f1 + $f6 + $f5 + $f4 + $f3);
#X obj 203 14 inlet;
#X obj 295 14 inlet;
#X obj 387 13 inlet;
#X obj 479 14 inlet;
#X obj 20 138 outlet;
#X obj 76 40 t b f;
#X obj 20 13 r dmx2;
#X obj 76 13 r dmy2;
#X connect 0 0 5 0;
#X connect 1 0 0 2;
#X connect 2 0 0 3;
#X connect 3 0 0 4;
#X connect 4 0 0 5;
#X connect 6 0 0 0;
#X connect 6 1 0 1;
#X connect 7 0 0 0;
#X connect 8 0 6 0;
#X restore 355 35 pd interpolate_k;
#X obj 379 -19 loadbang;
#N canvas 229 194 542 177 interpolate_k 0;
#X obj 20 76 expr (1.0 / 4.0) * (($f5 - $f6 - $f4 + $f3) * $f1 + $f5
+ $f6 - $f4 - $f3) * $f2 + (1.0 / 4.0) * (($f5 - $f6 + $f4 - $f3) *
$f1 + $f6 + $f5 + $f4 + $f3);
#X obj 203 14 inlet;
#X obj 295 14 inlet;
#X obj 387 13 inlet;
#X obj 479 14 inlet;
#X obj 20 138 outlet;
#X obj 76 40 t b f;
#X obj 20 13 r dmx2;
#X obj 76 13 r dmy2;
#X connect 0 0 5 0;
#X connect 1 0 0 2;
#X connect 2 0 0 3;
#X connect 3 0 0 4;
#X connect 4 0 0 5;
#X connect 6 0 0 0;
#X connect 6 1 0 1;
#X connect 7 0 0 0;
#X connect 8 0 6 0;
#X restore 533 35 pd interpolate_k;
#X obj 557 -19 loadbang;
#N canvas 598 190 542 177 interpolate_k 0;
#X obj 20 76 expr (1.0 / 4.0) * (($f5 - $f6 - $f4 + $f3) * $f1 + $f5
+ $f6 - $f4 - $f3) * $f2 + (1.0 / 4.0) * (($f5 - $f6 + $f4 - $f3) *
$f1 + $f6 + $f5 + $f4 + $f3);
#X obj 203 14 inlet;
#X obj 295 14 inlet;
#X obj 387 13 inlet;
#X obj 479 14 inlet;
#X obj 20 138 outlet;
#X obj 76 40 t b f;
#X obj 20 13 r dmx2;
#X obj 76 13 r dmy2;
#X connect 0 0 5 0;
#X connect 1 0 0 2;
#X connect 2 0 0 3;
#X connect 3 0 0 4;
#X connect 4 0 0 5;
#X connect 6 0 0 0;
#X connect 6 1 0 1;
#X connect 7 0 0 0;
#X connect 8 0 6 0;
#X restore 19 171 pd interpolate_k;
#X obj 43 117 loadbang;
#X msg 101 146 2;
#N canvas 229 194 542 177 interpolate_k 0;
#X obj 20 76 expr (1.0 / 4.0) * (($f5 - $f6 - $f4 + $f3) * $f1 + $f5
+ $f6 - $f4 - $f3) * $f2 + (1.0 / 4.0) * (($f5 - $f6 + $f4 - $f3) *
$f1 + $f6 + $f5 + $f4 + $f3);
#X obj 203 14 inlet;
#X obj 295 14 inlet;
#X obj 387 13 inlet;
#X obj 479 14 inlet;
#X obj 20 138 outlet;
#X obj 76 40 t b f;
#X obj 19 13 r dmx2;
#X obj 76 13 r dmy2;
#X connect 0 0 5 0;
#X connect 1 0 0 2;
#X connect 2 0 0 3;
#X connect 3 0 0 4;
#X connect 4 0 0 5;
#X connect 6 0 0 0;
#X connect 6 1 0 1;
#X connect 7 0 0 0;
#X connect 8 0 6 0;
#X restore 203 170 pd interpolate_k;
#X obj 227 116 loadbang;
#N canvas 229 194 564 199 interpolate_k 0;
#X obj 20 96 expr (1.0 / 4.0) * (($f5 - $f6 - $f4 + $f3) * $f1 + $f5
+ $f6 - $f4 - $f3) * $f2 + (1.0 / 4.0) * (($f5 - $f6 + $f4 - $f3) *
$f1 + $f6 + $f5 + $f4 + $f3);
#X obj 203 14 inlet;
#X obj 295 14 inlet;
#X obj 387 13 inlet;
#X obj 479 14 inlet;
#X obj 20 158 outlet;
#X obj 68 71 t b f;
#X obj 22 12 r dmx2;
#X obj 76 12 r dmy2;
#X obj 76 46 * 1;
#X obj 22 46 * 1;
#X obj 131 13 r dmtsc2;
#X connect 0 0 5 0;
#X connect 1 0 0 2;
#X connect 2 0 0 3;
#X connect 3 0 0 4;
#X connect 4 0 0 5;
#X connect 6 0 0 0;
#X connect 6 1 0 1;
#X connect 7 0 10 0;
#X connect 8 0 9 0;
#X connect 9 0 6 0;
#X connect 10 0 0 0;
#X connect 11 0 9 1;
#X connect 11 0 10 1;
#X restore 388 172 pd interpolate_k;
#X obj 412 118 loadbang;
#N canvas 229 194 575 262 interpolate_k 0;
#X obj 20 141 expr (1.0 / 4.0) * (($f5 - $f6 - $f4 + $f3) * $f1 + $f5
+ $f6 - $f4 - $f3) * $f2 + (1.0 / 4.0) * (($f5 - $f6 + $f4 - $f3) *
$f1 + $f6 + $f5 + $f4 + $f3);
#X obj 203 14 inlet;
#X obj 295 14 inlet;
#X obj 387 13 inlet;
#X obj 479 14 inlet;
#X obj 20 203 outlet;
#X obj 76 105 t b f;
#X obj 20 13 r dmx2;
#X obj 76 14 r dmy2;
#X obj 76 64 * 1;
#X obj 20 63 * 1;
#X obj 130 15 r dmssc2;
#X connect 0 0 5 0;
#X connect 1 0 0 2;
#X connect 2 0 0 3;
#X connect 3 0 0 4;
#X connect 4 0 0 5;
#X connect 6 0 0 0;
#X connect 6 1 0 1;
#X connect 7 0 10 0;
#X connect 8 0 9 0;
#X connect 9 0 6 0;
#X connect 10 0 0 0;
#X connect 11 0 9 1;
#X connect 11 0 10 1;
#X restore 572 175 pd interpolate_k;
#X obj 596 121 loadbang;
#X msg 315 9 0.5;
#X msg 469 147 1.1;
#X msg 94 20 2.5;
#X msg 140 19 -0.5;
#X msg 53 20 2;
#X msg 12 20 0.5;
#X msg 437 10 2;
#X msg 396 10 1;
#X msg 355 10 2;
#X msg 478 11 1.5;
#X msg 615 10 2;
#X msg 533 10 1;
#X msg 574 10 -1;
#X msg 656 11 3;
#X msg 19 146 2;
#X msg 60 146 1;
#X msg 142 147 2;
#X msg 204 145 3;
#X msg 244 145 0;
#X msg 285 145 0;
#X msg 326 146 1;
#X msg 389 147 1;
#X msg 429 147 0.8;
#X msg 511 148 1.2;
#X msg 572 150 -7;
#X msg 613 150 -7;
#X msg 653 150 3;
#X msg 695 151 7;
#X text 45 -40 param1;
#X text 216 -43 param2;
#X text 384 -40 param3;
#X text 557 -39 param4;
#X text 51 99 param5;
#X text 232 93 param6;
#X text 419 97 param7;
#X text 595 99 param8 etc....;
#X obj 11 74 s p1;
#X obj 45 74 print p1;
#X obj 191 62 s p2;
#X obj 225 62 print p2;
#X obj 354 59 s p3;
#X obj 388 59 print p3;
#X obj 533 60 s p4;
#X obj 567 60 print p4;
#X obj 19 205 s p5;
#X obj 53 205 print p5;
#X obj 204 200 s p6;
#X obj 238 200 print p6;
#X obj 389 197 s p7;
#X obj 423 197 print p7;
#X obj 572 201 s p8;
#X obj 606 200 print p8;
#X text 7 243 Configure the "corner" values for each parameter \, in
clockwise order: top left \, top right \, bottom right \, bottom left.
Add/eliminate parameters (for adding \, just copy the structure and
rename its [s] object \; interpolate_k does a bilinear interpolation:
http://en.wikipedia.org/wiki/Bilinear_interpolation;
#X connect 0 0 56 0;
#X connect 1 0 25 0;
#X connect 1 0 24 0;
#X connect 1 0 22 0;
#X connect 1 0 23 0;
#X connect 2 0 58 0;
#X connect 3 0 2 2;
#X connect 4 0 5 0;
#X connect 4 0 6 0;
#X connect 4 0 3 0;
#X connect 4 0 20 0;
#X connect 5 0 2 0;
#X connect 6 0 2 1;
#X connect 7 0 60 0;
#X connect 8 0 28 0;
#X connect 8 0 27 0;
#X connect 8 0 26 0;
#X connect 8 0 29 0;
#X connect 9 0 62 0;
#X connect 10 0 31 0;
#X connect 10 0 32 0;
#X connect 10 0 30 0;
#X connect 10 0 33 0;
#X connect 11 0 64 0;
#X connect 12 0 34 0;
#X connect 12 0 35 0;
#X connect 12 0 13 0;
#X connect 12 0 36 0;
#X connect 13 0 11 2;
#X connect 14 0 66 0;
#X connect 15 0 37 0;
#X connect 15 0 38 0;
#X connect 15 0 39 0;
#X connect 15 0 40 0;
#X connect 16 0 68 0;
#X connect 17 0 41 0;
#X connect 17 0 42 0;
#X connect 17 0 21 0;
#X connect 17 0 43 0;
#X connect 18 0 70 0;
#X connect 19 0 44 0;
#X connect 19 0 45 0;
#X connect 19 0 46 0;
#X connect 19 0 47 0;
#X connect 20 0 2 3;
#X connect 21 0 16 2;
#X connect 22 0 0 2;
#X connect 23 0 0 3;
#X connect 24 0 0 1;
#X connect 25 0 0 0;
#X connect 26 0 7 2;
#X connect 27 0 7 1;
#X connect 28 0 7 0;
#X connect 29 0 7 3;
#X connect 30 0 9 2;
#X connect 31 0 9 0;
#X connect 32 0 9 1;
#X connect 33 0 9 3;
#X connect 34 0 11 0;
#X connect 35 0 11 1;
#X connect 36 0 11 3;
#X connect 37 0 14 0;
#X connect 38 0 14 1;
#X connect 39 0 14 2;
#X connect 40 0 14 3;
#X connect 41 0 16 0;
#X connect 42 0 16 1;
#X connect 43 0 16 3;
#X connect 44 0 18 0;
#X connect 45 0 18 1;
#X connect 46 0 18 2;
#X connect 47 0 18 3;
#X restore -18 326 pd mus_map_interp;
#X floatatom -80 322 5 0 0 0 X - -;
#X floatatom 115 319 5 0 0 0 Y - -;
#X obj -80 342 s dmx2;
#X obj 115 342 s dmy2;
#X floatatom -54 372 5 0 0 0 P1 p1 -;
#X floatatom 0 372 5 0 0 0 P2 p2 -;
#X floatatom 54 372 5 0 0 0 P3 p3 -;
#X floatatom 108 372 5 0 0 0 P4 p4 -;
#X floatatom 165 373 5 0 0 0 P5 p5 -;
#X floatatom 219 373 5 0 0 0 P6 p6 -;
#X floatatom 273 373 5 0 0 0 P7 p7 -;
#X floatatom 327 373 5 0 0 0 P8 p8 -;
#X obj -79 -110 gcanvas 400 400;
#X obj -75 261 cnv 25 100 25 empty empty val4 1 13 0 18 -262144 -45076
0;
#X obj 274 262 cnv 25 40 25 empty empty val3 1 13 0 18 -262144 -45076
0;
#X obj -77 -107 cnv 25 100 25 empty empty val1 1 13 0 18 -262144 -45076
0;
#X obj 274 -106 cnv 25 40 25 empty empty val2 1 13 0 18 -262144 -45076
0;
#X obj -80 301 expr ($f1/200)-1;
#X obj 116 299 expr ($f1/200)-1;
#X text -80 398 This example uses 8 parameters \, receiving x \, y
from the mouse. For using other values than the mouse (eg touchscreen
coordinates) just replace what you are sending to dmx2 and dmy2 (incoming
values should be normalized to 0/+1) If you wanted to use 3D (eg acceleromX
\, acceleromY \, acceleromZ) \, you should performa trilinear interpolation
(but then the grid interface would not work): http://en.wikipedia.org/wiki/Trilinear_interpolation
;
#X connect 1 0 3 0;
#X connect 2 0 4 0;
#X connect 13 0 18 0;
#X connect 13 1 19 0;
#X connect 18 0 1 0;
#X connect 19 0 2 0;
