#N canvas 234 142 527 326 10;
#X obj -27 52 t b f;
#X obj 19 29 inlet;
#X obj 70 39 inlet;
#X obj 108 39 inlet;
#X obj 147 39 inlet;
#X obj -72 227 outlet;
#X obj -71 28 inlet;
#X obj -27 28 inlet;
#X text -6 305 sergi jorda 2014;
#X text -73 9 x [0-1] y [0-1] z[0-1];
#X obj 20 52 t b f;
#X obj 184 39 inlet;
#X obj 226 38 inlet;
#X obj 264 38 inlet;
#X obj 303 38 inlet;
#X obj 340 38 inlet;
#X text 67 7 (000:$f4)(100:$f5)(010:$f6)(001:$f7)(101:$f8)(011:$f9)(110:$f10)(111:$f11)
;
#X obj -72 77 expr ($f4*(1-$f1)*(1-$f2)*(1-$f3))+($f5*$f1*(1-$f2)*(1-$f3))+($f6*(1-$f1)*$f2*(1-$f3))+($f7*(1-$f1)*(1-$f2)*$f3)+($f8*$f1*(1-$f2)*$f3)+($f9*(1-$f1)*$f2*$f3)
;
#X obj 107 141 expr ($f4*$f1*$f2*(1-$f3))+($f5*$f1*$f2*$f3);
#X obj -72 202 +;
#X obj 107 163 t b f;
#X text -8 205 this interpolation assumes that x \, y & z are normalized
between [0-1] \, whereas the 8 values at each corner of the cube can
have any value (positive or negative). It has been divided in 2 expr
\, because apparently \, expr is limited to 9 inputs (doesn't allow
$f10 and $f11) For a visual representation check: http://paulbourke.net/miscellaneous/interpolation/
;
#X connect 0 0 17 0;
#X connect 0 0 18 0;
#X connect 0 1 17 1;
#X connect 0 1 18 1;
#X connect 1 0 10 0;
#X connect 2 0 17 3;
#X connect 3 0 17 4;
#X connect 4 0 17 5;
#X connect 6 0 17 0;
#X connect 6 0 18 0;
#X connect 7 0 0 0;
#X connect 10 0 17 0;
#X connect 10 0 18 0;
#X connect 10 1 17 2;
#X connect 10 1 18 2;
#X connect 11 0 17 6;
#X connect 12 0 17 7;
#X connect 13 0 17 8;
#X connect 14 0 18 3;
#X connect 15 0 18 4;
#X connect 17 0 19 0;
#X connect 18 0 20 0;
#X connect 19 0 5 0;
#X connect 20 0 19 0;
#X connect 20 1 19 1;
