#N canvas 1203 541 800 600 12;
#X obj 268 204 f;
#X obj 238 177 t f b;
#X obj 208 101 sel 1, f 13;
#X obj 191 154 timer;
#X floatatom 124 198 10 0 0 0 - - -;
#X floatatom 281 233 10 0 0 0 - - -;
#X obj 250 263 -;
#X floatatom 250 291 5 0 0 0 - - -;
#X msg 128 99 bang;
#X obj 300 145 i 0;
#X obj 128 25 loadbang;
#X obj 247 426 tgl 15 0 empty empty empty 17 7 0 10 -262144 -1 -1 1
1;
#X obj 211 449 spigot;
#X obj 211 473 bng 15 250 50 0 empty empty empty 17 7 0 10 -262144
-1 -1;
#X obj 246 333 expr ($f1<100) || (($f1<505)&&($f1>495)), f 22;
#X obj 211 506 outlet;
#X text 35 99 Reset timer;
#X text 327 146 clear memory upon reset;
#X text 303 203 <-- store previous timer value;
#X text 291 264 compute difference between previous and current values
, f 22;
#X text 261 451 let only the first 1 through;
#X text 412 320 conditions for continuous stream of bangs (observed
using print on interval values when holding down a key), f 28;
#X obj 208 24 inlet;
#X text 253 24 key 0 and 1 inlet;
#X obj 246 373 - 1;
#X obj 246 398 abs;
#X obj 271 506 outlet;
#X connect 0 0 6 1;
#X connect 0 0 5 0;
#X connect 1 0 0 1;
#X connect 1 1 0 0;
#X connect 2 0 3 1;
#X connect 2 0 12 0;
#X connect 3 0 4 0;
#X connect 3 0 1 0;
#X connect 3 0 6 0;
#X connect 6 0 7 0;
#X connect 7 0 14 0;
#X connect 8 0 3 0;
#X connect 8 0 9 0;
#X connect 9 0 0 1;
#X connect 9 0 0 0;
#X connect 10 0 8 0;
#X connect 11 0 12 1;
#X connect 11 0 26 0;
#X connect 12 0 13 0;
#X connect 13 0 15 0;
#X connect 14 0 24 0;
#X connect 22 0 2 0;
#X connect 24 0 25 0;
#X connect 25 0 11 0;
