#N canvas 1248 299 565 580 10;
#X declare -stdlib iemlib;
#X obj 85 299 f 0;
#X obj 111 299 + 1;
#X msg 193 136 clear;
#X obj 85 321 * 25;
#X obj 85 341 + 25;
#X text 207 498 (new objects are placed inside the subpatch);
#X text 212 520 angel faraldo 2019;
#N canvas 599 23 561 752 \$0-instances 0;
#X obj 25 25 keystroke 97 1513;
#X obj 25 50 keystroke 98 1513;
#X obj 25 75 keystroke 99 1513;
#X obj 25 100 keystroke 100 1513;
#X restore 205 474 pd \$0-instances;
#X obj 193 454 s pd-\$0-instances;
#X obj 40 139 iemlib/dollarg;
#X obj 32 22 declare -stdlib iemlib;
#X text 178 22 v.1.22;
#X obj 40 91 loadbang;
#X obj 40 183 list length;
#X obj 40 255 list split 1;
#X obj 40 206 until;
#X obj 40 230 list;
#X obj 40 160 t l l;
#X text 33 48 ARGUMENTS: ascii codes of keyboard components;
#X obj 40 114 t b b, f 26;
#X obj 40 278 t f b, f 8;
#X obj 45 519 outlet;
#X obj 40 369 pack f f \$0;
#X msg 40 392 obj 25 \$2 keystroke \$1 \$3;
#X obj 45 497 r \$0-QWERTY;
#X connect 0 0 1 0;
#X connect 0 0 3 0;
#X connect 1 0 0 1;
#X connect 2 0 8 0;
#X connect 3 0 4 0;
#X connect 4 0 22 1;
#X connect 9 0 17 0;
#X connect 12 0 19 0;
#X connect 13 0 15 0;
#X connect 14 0 20 0;
#X connect 14 1 16 1;
#X connect 15 0 16 0;
#X connect 16 0 14 0;
#X connect 17 0 13 0;
#X connect 17 1 16 1;
#X connect 19 0 9 0;
#X connect 19 1 2 0;
#X connect 20 0 22 0;
#X connect 20 1 0 0;
#X connect 22 0 23 0;
#X connect 23 0 8 0;
#X connect 24 0 21 0;
