#N canvas 418 144 578 602 10;
#X obj 42 265 dac~;
#X floatatom 53 84 5 0 0 0 - - -;
#X obj 53 127 *~ 0.5;
#X floatatom 86 191 5 0 0 0 - - -;
#X text 50 65 rate (freq.);
#X text 60 172 depth (amplitude);
#X obj 53 104 osc~ 5;
#X obj 53 33 delwrite~ vibrato 100;
#X obj 53 233 vd~ vibrato;
#X obj 53 211 *~ 0.4;
#X obj 53 148 +~ 0.5;
#X obj 53 12 adc~;
#X connect 1 0 6 0;
#X connect 2 0 10 0;
#X connect 3 0 9 1;
#X connect 6 0 2 0;
#X connect 8 0 0 0;
#X connect 8 0 0 1;
#X connect 9 0 8 0;
#X connect 10 0 9 0;
#X connect 11 0 7 0;
