#N canvas 45 25 989 692 12;
#X declare -lib zexy;
#X declare -path ml.lib;
#X declare -path maxlib;
#X declare -lib cyclone;
#X declare -path list-abs;
#X obj 532 219 linear;
#X obj 28 361 packel;
#X text 29 278 from zexy \, the [packel] object outputs the nth index of an incoming list (beware that indexes start counting at 1!). There are a few other useful objects in this library.;
#X obj 28 335 declare -lib zexy;
#X obj 592 219 triang;
#X obj 652 219 expo;
#X obj 705 219 gauss;
#X obj 765 219 cauchy;
#X obj 533 259 beta;
#X obj 593 259 weibull;
#X obj 669 259 poisson;
#X obj 747 257 bilex;
#X obj 35 206 list-abs/list-wrandom;
#X text 196 206 Abstraction;
#X text 37 99 WEIGHTED RANDOM;
#X obj 33 616 jmmmp/jp.coll;
#X obj 41 61 noise~;
#X obj 96 61 random;
#X text 40 39 audio;
#X text 90 38 control;
#X text 41 21 UNIFORM RANDOM;
#X obj 535 370 ml.hmmc;
#X text 598 371 External. more models in ml.lib;
#X text 533 311 HIDDEN MARKOV MODEL;
#X obj 36 234 array random;
#X text 130 235 native \, since 0.49;
#X obj 535 343 declare -path ml.lib;
#X obj 533 177 declare -path maxlib;
#X text 523 55 (not available for mac Mn architectures);
#X text 527 32 PROBABILITY DISTRIBUTIONS (maxlib);
#X text 521 86 various probability distributions from maxlib. all of these implementations are taken from dodge & jersey \, chapter 11 (https://drive.google.com/open?id=1qUp--DyIdLc0KuhJZSFG2dfBq9WFgiUp);
#X obj 25 418 declare -lib cyclone;
#X obj 33 577 coll;
#C restore;
#X obj 122 576 zl;
#X text 24 446 cyclone is a library to facilitate compatibility with max \, porting a few of its objects to pd. In particular \, coll will be the most useful to deal with markov models (otherwise the pd-ish way would be to approach it with tables \, as in the basshouse example in the documentation. The zl family of objects are the max paradigm for list manipulation. similarly \, the formatting object [sprintf] can come handy to format indexes as symbols and back.;
#X obj 176 575 sprintf;
#X obj 35 177 declare -path list-abs;
#X text 35 122 This library is useful for dealing with lists. The [list-wrandom] is the easiest was of reading custom pdf's.;
#X text 137 617 Abstraction. Same functionality.;
