#N canvas 418 77 1326 570 12;
#X text 255 517 updated for Pd version 0.26;
#X text 43 19 Use the "random" object to make pseudo-random integers.
To get continuously variable random numbers \, make a random number
in a large range and divide:;
#X obj 95 122 random 5;
#X msg 95 96 bang;
#X floatatom 95 148 0 0 0 0 - - -;
#X text 129 148 outputs from 0 to 4;
#X msg 329 81 bang;
#X floatatom 328 159 0 0 0 0 - - -;
#X obj 329 107 random 1000;
#X obj 328 135 / 1000;
#X text 382 160 from 0 to 0.999;
#X obj 146 369 random 5;
#X msg 178 247 bang;
#X floatatom 146 395 0 0 0 0 - - -;
#X obj 97 247 loadbang;
#X obj 146 278 timer;
#X msg 146 303 seed \$1;
#X msg 165 333 bang;
#X text 50 435 If you give two randoms the same seed they give the
same sequence. If you never seed them \, you'll get different sequences
out of each one.;
#X text 42 197 If you don't want the same behavior every time you run
the patch \, use the time from load to first click as a seed:;
#X text 204 335 <= click to get random numbers;
#X text 220 246 <= click to seed;
#X obj 661 415 noteout 1;
#X obj 661 310 + 60;
#X text 701 310 lowest note;
#X floatatom 671 336 5 0 0 0 - - -;
#X obj 661 132 metro 1000;
#X obj 661 111 tgl 15 0 empty empty empty 17 7 0 10 -262144 -1 -1 0
1;
#X msg 661 360 \$1 100;
#X floatatom 728 106 5 0 0 0 - - -;
#N canvas 0 22 450 278 (subpatch) 0;
#X array scale 6 float 3;
#A 0 0 2 4 7 9 12;
#X coords 0 12 6 0 200 140 1 0 0;
#X restore 874 126 graph;
#X obj 661 209 tabread scale;
#X floatatom 677 236 5 0 0 0 - - -;
#X obj 661 286 + 0;
#X floatatom 679 263 5 0 0 0 - - -;
#X msg 875 282 \; scale resize 6 \; scale 0 0 2 4 7 9 12;
#X obj 679 156 bng 15 250 50 0 empty empty empty 17 7 0 10 -262144
-1 -1;
#X obj 661 387 makenote 100 400;
#X obj 661 181 random 6;
#X text 716 361 ==;
#X text 724 263 transposition;
#X msg 743 361 pitch velocity;
#X connect 2 0 4 0;
#X connect 3 0 2 0;
#X connect 6 0 8 0;
#X connect 8 0 9 0;
#X connect 9 0 7 0;
#X connect 11 0 13 0;
#X connect 12 0 15 1;
#X connect 14 0 15 0;
#X connect 15 0 16 0;
#X connect 16 0 11 0;
#X connect 17 0 11 0;
#X connect 23 0 25 0;
#X connect 23 0 28 0;
#X connect 26 0 38 0;
#X connect 27 0 26 0;
#X connect 28 0 37 0;
#X connect 29 0 26 1;
#X connect 31 0 32 0;
#X connect 31 0 33 0;
#X connect 33 0 23 0;
#X connect 34 0 33 1;
#X connect 36 0 38 0;
#X connect 37 0 22 0;
#X connect 37 1 22 1;
#X connect 38 0 31 0;
