#N canvas 1377 36 830 724 12;
#X declare -lib zexy;
#X msg 27 41 clear;
#X msg 41 68 open;
#X msg 352 160 10;
#X msg 351 187 20;
#X msg 352 218 30;
#X obj 85 431 list length;
#X floatatom 85 453 5 0 0 0 - - - 0;
#X obj 85 504 random;
#X obj 85 477 t b f;
#X floatatom 85 528 5 0 0 0 - - - 0;
#X floatatom 11 606 5 0 0 0 - - - 0;
#X obj 11 405 t l l, f 11;
#X msg 149 89 merge 10 20;
#X obj 29 372 print;
#X text 139 6 merge adds a new entry to the coll if the first value (the key) does not exist \, creating a new line with this key otherwise \, it adds the value to the existing key;
#X obj 11 339 cyclone/coll data;
#C restore;
#X text 387 156 inputing a key or index \, it output the whole list of values associated with that key ir index, f 18;
#X msg 16 15 renumber;
#X text 182 424 once we have a list \, we need to get a random element from it \, so we calculate its length and generate a random value between 0 and length and we output this nth element., f 24;
#X obj 101 581 declare -lib zexy;
#X obj 11 581 packel, f 11;
#X msg 142 60 merge 20 10;
#X msg 156 120 merge 20 30;
#X msg 164 149 merge 10 30;
#X msg 171 180 merge 30 10;
#X obj 85 552 + 1;
#X text 125 553 we add one because [packel] starts indexing at 1! :((((;
#X connect 0 0 15 0;
#X connect 1 0 15 0;
#X connect 2 0 15 0;
#X connect 3 0 15 0;
#X connect 4 0 15 0;
#X connect 5 0 6 0;
#X connect 6 0 8 0;
#X connect 7 0 9 0;
#X connect 8 0 7 0;
#X connect 8 1 7 1;
#X connect 9 0 25 0;
#X connect 11 0 20 0;
#X connect 11 1 5 0;
#X connect 12 0 15 0;
#X connect 15 0 13 0;
#X connect 15 0 11 0;
#X connect 17 0 15 0;
#X connect 20 0 10 0;
#X connect 21 0 15 0;
#X connect 22 0 15 0;
#X connect 23 0 15 0;
#X connect 24 0 15 0;
#X connect 25 0 20 1;
