#N canvas 1113 233 909 618 10;
#X obj 102 149 drip;
#X obj 102 173 % 12;
#X floatatom 112 196 5 0 0 0 - - -;
#X obj 102 224 t f f;
#X obj 129 253 pack f f;
#X msg 32 255 open;
#X msg 73 255 clear;
#X msg 129 280 merge \$1 \$2;
#X msg 502 53 5;
#X obj 571 149 list length;
#X floatatom 584 173 5 0 0 0 - - -;
#X obj 535 233 random;
#X obj 535 254 + 1;
#X obj 502 276 packel;
#X obj 502 128 t a b a, f 12;
#X obj 307 337 f, f 33;
#X obj 307 286 metro 500, f 16;
#X obj 315 361 s nextnote;
#X obj 514 78 r nextnote;
#X obj 307 558 print note;
#X floatatom 549 277 5 0 0 0 - - -;
#X floatatom 400 203 5 0 0 0 - - -;
#X obj 322 390 hradio 15 1 0 8 empty empty empty 0 -8 0 10 -262144
-1 -1 2;
#X obj 322 412 * 12;
#X obj 307 434 + 0;
#X obj 307 477 + 0;
#X text 450 390 OCTAVE;
#X text 357 456 TRANSPOSE;
#X obj 400 159 loadbang;
#X msg 400 182 120;
#X text 100 55 CORPUS;
#X text 28 14 SIMPLE MARKOV MELODY ANALYSIS/GENERATION EXAMPLE;
#X obj 318 530 noteout 1, f 19;
#X msg 103 74 5 9 2 9 9 4 9 5 9 2 9 1 9;
#X msg 123 97 bang;
#X obj 502 103 cyclone/coll chain;
#C restore;
#X floatatom 322 457 5 0 0 0 - - -;
#X obj 86 326 cyclone/coll chain;
#C restore;
#X obj 307 264 tgl 15 0 empty empty empty 17 7 0 10 -262144 -1 -1 0
1;
#X obj 318 505 makenote 60 100 300;
#X text 535 51 INITIAL NOTE (it has to be present in the corpus!);
#X obj 319 315 bng 15 250 50 0 empty empty empty 17 7 0 10 -262144
-1 -1;
#X text 338 315 individual notes;
#N canvas 632 290 476 858 another-melody 0;
#X msg 35 79 76 75 76 75 76 71 74 72 69 45 52 57 60 64 69 71 40 52
56 64 68 71 72 45 52 57 64 76 75 76 75 76 71 74 72 69 45 52 57 60 64
69 71 40 52 56 64 72 71 69 45 52 57 76 75 76 75 76 71 74 72 69 45 52
57 60 64 69 71 40 52 56 64 68 71 72 45 52 57 64 76 75 76 75 76 71 74
72 69 45 52 57 60 64 69 71 40 52 56 64 72 71 69 45 52 57 71 72 74 76
48 55 60 67 77 76 74 43 55 59 65 76 74 72 45 52 57 64 74 72 71 40 52
64 64 76 64 76 76 88 75 76 75 76 75 76 71 74 72 69 45 52 57 60 64 69
71 40 52 56 64 68 71 72 45 52 57 64 76 75 76 75 76 71 74 72 69 45 52
57 60 64 69 71 40 52 56 64 72 71 69 45 52 57 71 72 74 76 48 55 60 67
77 76 74 43 55 59 65 76 74 72 45 52 57 64 74 72 71 40 52 64 64 76 64
76 76 88 75 76 75 76 75 76 71 74 72 69 45 52 57 60 64 69 71 40 52 56
64 68 71 72 45 52 57 64 76 75 76 75 76 71 74 72 69 45 52 57 60 64 69
71 40 52 56 64 72 71 69 45 52 57 58 60 64 72 60 57 65 72 58 60 55 64
72 67 72 53 57 60 57 60 77 57 76 76 53 58 74 62 58 62 82 58 81 81 53
79 64 77 58 55 53 76 64 74 58 55 53 72 64 70 53 57 69 60 57 69 60 67
69 57 70 72 53 57 60 57 74 60 75 57 76 52 57 60 76 57 77 62 50 69 53
72 55 64 55 64 74 55 65 71 72 60 64 79 67 79 69 79 71 67 65 79 72 67
64 79 74 67 65 62 79 76 60 64 67 79 84 83 81 53 57 79 77 74 72 55 59
79 77 74 72 60 79 67 79 69 79 71 67 65 79 72 67 64 79 74 67 65 62 79
76 60 64 67 79 84 83 81 53 57 79 77 76 74 55 59 79 77 74 76 56 59 77
76 75 76 71 76 75 76 71 76 75 76 71 76 75 76 71 76 75 76 75 76 75 76
75 76 75 76 71 74 72 69 45 52 57 60 64 69 71 40 52 56 64 68 71 72 45
52 57 64 76 75 76 75 76 71 74 72 69 45 52 57 60 64 69 71 40 52 56 64
72 71 69 45 52 57 76 75 76 75 76 71 74 72 69 45 52 57 60 64 69 71 40
52 56 64 68 71 72 45 52 57 64 76 75 76 75 76 71 74 72 69 45 52 57 60
64 69 71 40 52 56 64 72 71 69 45 52 57 71 72 74 76 48 55 60 67 77 76
74 43 55 59 65 76 74 72 45 52 57 64 74 72 71 40 52 64 64 76 64 76 76
88 75 76 75 76 75 76 71 74 72 69 45 52 57 60 64 69 71 40 52 56 64 68
71 72 45 52 57 64 76 75 76 75 76 71 74 72 69 45 52 57 60 64 69 71 40
52 56 64 72 71 45 69 45 45 45 45 45 45 64 67 70 73 45 45 45 45 45 45
74 65 69 45 45 45 45 73 76 45 74 77 45 77 74 68 45 45 45 45 77 74 68
45 45 69 72 76 45 45 45 45 45 45 38 74 65 45 38 45 38 45 38 45 38 72
64 45 38 71 62 39 45 60 66 69 45 39 45 39 45 39 45 60 69 39 45 39 45
40 69 60 45 40 45 40 72 64 45 40 44 40 71 62 44 40 45 33 69 60 45 45
45 45 45 45 64 67 70 73 45 45 45 45 45 45 74 69 65 45 45 45 45 73 76
45 74 77 45 74 77 45 45 45 45 74 77 45 46 77 74 46 46 46 46 46 46 75
67 46 46 46 46 74 65 46 72 63 46 70 65 62 46 46 46 46 62 65 69 46 47
62 65 68 47 47 47 47 62 65 68 47 60 64 69 48 71 64 65 52 56 60 60 64
69 72 76 74 57 60 64 72 71 69 64 60 57 72 76 81 84 88 86 64 60 57 84
83 81 64 60 57 84 88 93 96 100 98 57 60 64 96 95 94 64 60 57 93 92
91 90 89 88 87 86 85 84 83 82 81 80 79 78 77 76 75 76 71 74 72 69 45
52 57 60 64 69 71 40 52 56 64 68 71 72 45 52 57 64 76 75 76 75 76 71
74 72 69 45 52 57 60 64 69 71 40 52 56 64 72 71 69 45 52 57 71 72 74
76 48 55 60 67 77 76 74 43 55 59 65 76 74 72 45 52 57 64 74 72 71 40
52 64 64 76 64 76 76 88 75 76 75 76 75 76 71 74 72 69 45 52 57 60 64
69 71 40 52 56 64 68 71 72 45 52 57 64 76 75 76 75 76 71 74 72 69 45
52 57 60 64 69 71 40 52 56 64 72 71 60 69 45 33;
#X obj 35 791 outlet;
#X obj 35 52 inlet;
#X connect 0 0 1 0;
#X connect 2 0 0 0;
#X restore 123 120 pd another-melody;
#X text 137 148 we serialise the list;
#X obj 86 349 print;
#X floatatom 446 288 5 0 0 0 - - -;
#X msg 400 221 60000 \$1;
#X obj 400 262 * 0.25;
#X obj 399 242 /;
#X connect 0 0 1 0;
#X connect 1 0 2 0;
#X connect 1 0 3 0;
#X connect 3 0 4 1;
#X connect 3 1 4 0;
#X connect 4 0 7 0;
#X connect 5 0 37 0;
#X connect 6 0 37 0;
#X connect 7 0 37 0;
#X connect 8 0 35 0;
#X connect 9 0 10 0;
#X connect 9 0 11 1;
#X connect 11 0 12 0;
#X connect 12 0 13 1;
#X connect 12 0 20 0;
#X connect 13 0 15 1;
#X connect 14 0 13 0;
#X connect 14 1 11 0;
#X connect 14 2 9 0;
#X connect 15 0 17 0;
#X connect 15 0 24 0;
#X connect 16 0 15 0;
#X connect 18 0 35 0;
#X connect 21 0 47 0;
#X connect 22 0 23 0;
#X connect 23 0 24 1;
#X connect 24 0 25 0;
#X connect 25 0 19 0;
#X connect 25 0 39 0;
#X connect 28 0 29 0;
#X connect 29 0 21 0;
#X connect 33 0 0 0;
#X connect 34 0 43 0;
#X connect 35 0 14 0;
#X connect 36 0 25 1;
#X connect 37 0 45 0;
#X connect 38 0 16 0;
#X connect 39 0 32 0;
#X connect 39 1 32 1;
#X connect 41 0 15 0;
#X connect 43 0 0 0;
#X connect 47 0 49 0;
#X connect 48 0 16 1;
#X connect 48 0 46 0;
#X connect 49 0 48 0;
