#N canvas 647 55 787 1121 12;
#X obj 43 146 tgl 15 0 empty empty empty 17 7 0 10 -262144 -1 -1 0
1;
#X floatatom 187 215 5 0 0 0 - - -;
#X obj 43 191 list-abs/list-wrandom;
#N canvas 0 22 450 278 (subpatch) 0;
#X array markov1 4 float 3;
#A 0 10 20 40 100;
#X coords 0 1 4 0 266 178 1 0 0;
#X restore 366 136 graph;
#X msg 187 242 \; markov1 resize \$1;
#X obj 239 188 list prepend 0;
#X obj 239 212 s markov1;
#X text 83 428 lowest note;
#X msg 43 738 \$1 100;
#N canvas 0 22 450 278 (subpatch) 0;
#X array scale 7 float 3;
#A 0 0.857147 1.28573 1.97146 2.91434 3.68578 4.2858 5.14296;
#X coords 0 12 7 0 200 140 1 0 0;
#X restore 370 382 graph;
#X obj 43 396 tabread scale;
#X msg 372 536 \; scale resize 7 \; scale 0 0 2 4 6 8 10 12;
#X floatatom 54 216 5 0 0 0 - - -;
#X text 345 38 these are the weights for each scale degree \, you don't
need to scale them \, since the object will do automatically. They
are visualised in the markov1 table.;
#X msg 154 41 0 0.2 0.5 0.7 1 0.1 0.3;
#X msg 189 69 0.1 0.4 0.5 0 0 0.1;
#X obj 176 798 bendout, f 16;
#X obj 176 661 * 4096;
#X obj 176 636 wrap;
#X obj 232 661 bendin, f 8;
#X obj 232 686 - 8192;
#X obj 176 751 + 0;
#X obj 232 711 t b f;
#X obj 176 774 change;
#X obj 43 795 noteout 1;
#X obj 43 165 metro 400;
#X obj 43 764 makenote 100 350;
#X obj 43 426 + 48;
#X text 301 655 Be aware that this method of non-tempered tuning will
work in monodic (sequential) signals... For polyphony or chords \,
we would need a slightly more complicated strategy (i.e. creating separate
voices in separate midi channels;
#X connect 0 0 25 0;
#X connect 1 0 4 0;
#X connect 2 0 12 0;
#X connect 2 0 10 0;
#X connect 2 1 1 0;
#X connect 5 0 6 0;
#X connect 8 0 26 0;
#X connect 10 0 27 0;
#X connect 14 0 2 1;
#X connect 14 0 5 0;
#X connect 15 0 2 1;
#X connect 15 0 5 0;
#X connect 17 0 21 0;
#X connect 18 0 17 0;
#X connect 19 0 20 0;
#X connect 19 1 16 1;
#X connect 20 0 22 0;
#X connect 21 0 23 0;
#X connect 22 0 21 0;
#X connect 22 1 21 1;
#X connect 23 0 16 0;
#X connect 25 0 2 0;
#X connect 26 0 24 0;
#X connect 26 1 24 1;
#X connect 27 0 8 0;
#X connect 27 0 18 0;
