#N canvas 125 124 1246 922 12;
#X obj 28 136 list-abs/list-wrandom;
#X text 189 136 Abstraction;
#X text 28 109 WEIGHTED RANDOM;
#X obj 27 236 cyclone/coll;
#C restore;
#X obj 27 266 jmmmp/jp.coll;
#X obj 31 61 noise~;
#X obj 86 61 random;
#X text 30 39 audio;
#X text 80 38 control;
#X text 129 265 Abstraction;
#X text 128 237 External;
#X text 31 21 UNIFORM RANDOM;
#X text 27 210 MATRIX ACCESS;
#X obj 27 164 array random;
#X text 121 165 native \, since 0.49;
#X obj 26 347 ml.hmmc;
#X text 89 348 External. more models in ml.lib;
#X text 24 318 HIDDEN MARKOV MODEL;
#X text 497 18 PROBABILITY DISTRIBUTIONS;
