#N canvas 506 325 865 421 10;
#X obj 113 84 noise~;
#X obj 125 186 dac~;
#X obj 171 144 *~ 0;
#X floatatom 195 55 5 0 0 0 - - -;
#X floatatom 235 147 0 0 0 0 - - -;
#X obj 235 110 rmstodb;
#X obj 287 111 powtodb;
#X floatatom 287 146 0 0 0 0 - - -;
#X obj 412 150 log;
#X floatatom 412 57 5 0 0 0 - - -;
#X obj 441 149 log;
#X msg 441 127 10;
#X obj 426 178 /;
#X obj 426 231 * 10;
#X floatatom 439 260 0 0 0 0 - - -;
#X msg 447 206 20;
#X msg 477 206 10;
#X obj 320 231 dbtorms;
#X floatatom 260 275 5 0 0 0 - - -;
#X connect 0 0 2 0;
#X connect 2 0 1 0;
#X connect 2 0 1 1;
#X connect 3 0 5 0;
#X connect 3 0 6 0;
#X connect 5 0 4 0;
#X connect 6 0 7 0;
#X connect 8 0 12 0;
#X connect 9 0 8 0;
#X connect 10 0 12 1;
#X connect 11 0 10 0;
#X connect 12 0 13 0;
#X connect 13 0 14 0;
#X connect 14 0 17 0;
#X connect 15 0 13 1;
#X connect 16 0 13 1;
#X connect 17 0 18 0;
#X connect 18 0 2 1;
