#N canvas 322 61 538 495 10;
#X obj -280 -5 noise~;
#X obj -280 17 *~ 500;
#X obj -280 39 +~ 500;
#X obj -280 61 round~;
#X obj -280 83 tabread~ weights;
#X obj -265 105 expr~ if($v1 >=500 \, 1 \, -1);
#X obj -280 249 mirrorWall~ 65536;
#X obj -280 273 /~ 32768;
#X obj -280 295 -~ 1;
#X obj -280 177 *~;
#X obj -280 127 *~;
#X obj -280 226 fexpr~ $x[0]+$y[-1];
#X obj -90 -5 noise~;
#X obj -90 17 *~ 500;
#X obj -90 39 +~ 500;
#X obj -90 61 round~;
#X obj -90 83 tabread~ weights;
#X obj -75 105 expr~ if($v1 >=500 \, 1 \, -1);
#X obj -90 249 mirrorWall~ 65536;
#X obj -90 273 /~ 32768;
#X obj -90 295 -~ 1;
#X obj -90 177 *~;
#X obj -90 127 *~;
#X obj -90 226 fexpr~ $x[0]+$y[-1];
#X obj -265 156 fexpr~ $x[0]+$y[-1];
#X obj -75 156 fexpr~ $x[0]+$y[-1];
#X obj 177 358 switch~;
#X obj 177 314 loadbang;
#X msg 177 336 0;
#X obj 44 267 tgl 15 0 empty empty empty 17 7 0 10 -262144 -1 -1 0
1;
#X obj 44 246 inlet;
#X msg 83 365 clear \, set 0;
#X obj -280 412 throw~ L;
#X obj -90 412 throw~ R;
#X obj -280 391 *~;
#X obj -90 391 *~;
#X obj -75 367 line~;
#X obj 44 294 moses 1;
#X obj 44 324 pipe 200;
#X msg -75 346 \$1 100;
#X obj -253 133 r reset3;
#X obj -63 133 r reset3;
#X obj -273 204 r reset3;
#X obj -83 204 r reset3;
#X obj 83 387 s reset3;
#X connect 0 0 1 0;
#X connect 1 0 2 0;
#X connect 2 0 3 0;
#X connect 3 0 4 0;
#X connect 3 0 5 0;
#X connect 4 0 10 0;
#X connect 5 0 10 1;
#X connect 6 0 7 0;
#X connect 7 0 8 0;
#X connect 8 0 34 0;
#X connect 9 0 11 0;
#X connect 10 0 9 0;
#X connect 10 0 24 0;
#X connect 11 0 6 0;
#X connect 12 0 13 0;
#X connect 13 0 14 0;
#X connect 14 0 15 0;
#X connect 15 0 16 0;
#X connect 15 0 17 0;
#X connect 16 0 22 0;
#X connect 17 0 22 1;
#X connect 18 0 19 0;
#X connect 19 0 20 0;
#X connect 20 0 35 0;
#X connect 21 0 23 0;
#X connect 22 0 21 0;
#X connect 22 0 25 0;
#X connect 23 0 18 0;
#X connect 24 0 9 1;
#X connect 25 0 21 1;
#X connect 27 0 28 0;
#X connect 28 0 26 0;
#X connect 29 0 37 0;
#X connect 29 0 39 0;
#X connect 30 0 29 0;
#X connect 31 0 44 0;
#X connect 34 0 32 0;
#X connect 35 0 33 0;
#X connect 36 0 34 1;
#X connect 36 0 35 1;
#X connect 37 0 38 0;
#X connect 37 1 31 0;
#X connect 37 1 26 0;
#X connect 38 0 26 0;
#X connect 39 0 36 0;
#X connect 40 0 24 0;
#X connect 41 0 25 0;
#X connect 42 0 11 0;
#X connect 43 0 23 0;
