#N canvas 1250 522 725 626 12;
#X declare -lib zexy;
#X declare -path ml.lib;
#X declare -path maxlib;
#X obj 372 96 linear;
#X obj 18 421 packel;
#X text 19 328 from zexy \, the [packel] object outputs the nth index of an incoming list (beware that indexes start counting at 1!). There are a few other useful objects in this library.;
#X obj 18 395 declare -lib zexy;
#X obj 432 96 triang;
#X obj 492 96 expo;
#X obj 545 96 gauss;
#X obj 605 96 cauchy;
#X obj 373 136 beta;
#X obj 433 136 weibull;
#X obj 509 136 poisson;
#X obj 587 134 bilex;
#X obj 28 136 list-abs/list-wrandom;
#X text 189 136 Abstraction;
#X text 28 109 WEIGHTED RANDOM;
#X obj 27 238 cyclone/coll;
#C restore;
#X obj 27 268 jmmmp/jp.coll;
#X obj 31 61 noise~;
#X obj 86 61 random;
#X text 30 39 audio;
#X text 80 38 control;
#X text 129 267 Abstraction;
#X text 128 239 External;
#X text 31 21 UNIFORM RANDOM;
#X text 27 212 MATRIX ACCESS;
#X obj 375 267 ml.hmmc;
#X text 438 268 External. more models in ml.lib;
#X text 373 208 HIDDEN MARKOV MODEL;
#X obj 27 164 array random;
#X text 121 165 native \, since 0.49;
#X obj 375 240 declare -path ml.lib;
#X obj 17 558 zl;
#X obj 51 558 sprintf;
#X text 10 468 cyclone is a library to facilitate compatibility with max \, porting a few of its objects to pd. The zl family of objects are the max paradigm for list manipulation. similarly \, the formatting object [sprintf] can come handy to format indexes as symbols and back.;
#X text 368 19 PROBABILITY DISTRIBUTIONS (mmaxlib);
#X obj 373 54 declare -path maxlib;
