#N canvas 119 22 319 377 10;
#X obj 15 43 r clock;
#X obj 15 88 f 0;
#X obj 47 89 + 1;
#X obj 15 134 sel 0;
#X obj 112 312 outlet~;
#X obj 42 200 random 12;
#X obj 42 221 tabread pitch;
#X obj 42 241 mtof;
#X obj 184 55 r base;
#X obj 169 117 *;
#X obj 88 91 sel 5;
#X msg 59 66 0;
#X obj 15 111 t f f;
#X obj 88 48 - 1;
#X obj 88 71 t b f;
#X obj 88 7 inlet;
#X obj 88 28 t f f;
#X obj 15 65 t b b;
#X obj 154 200 f;
#X obj 15 155 t b b;
#X obj 112 290 *~;
#X obj 154 247 line~;
#X obj 169 179 - 1;
#X msg 154 224 0 \, 100 \$1;
#X obj 154 274 tabread4~ env;
#X obj 42 263 phasor~;
#X connect 0 0 17 0;
#X connect 1 0 2 0;
#X connect 1 0 12 0;
#X connect 2 0 1 1;
#X connect 3 0 19 0;
#X connect 5 0 6 0;
#X connect 6 0 7 0;
#X connect 7 0 25 0;
#X connect 8 0 9 1;
#X connect 9 0 22 0;
#X connect 10 0 11 0;
#X connect 11 0 1 1;
#X connect 12 0 3 0;
#X connect 12 1 10 0;
#X connect 13 0 14 0;
#X connect 14 0 11 0;
#X connect 14 1 10 1;
#X connect 15 0 16 0;
#X connect 16 0 13 0;
#X connect 16 1 9 0;
#X connect 17 0 1 0;
#X connect 18 0 23 0;
#X connect 19 0 18 0;
#X connect 19 1 5 0;
#X connect 20 0 4 0;
#X connect 21 0 24 0;
#X connect 22 0 18 1;
#X connect 23 0 21 0;
#X connect 24 0 20 1;
#X connect 25 0 20 0;
