#N canvas 373 22 755 629 10;
#X obj 12 -124 vradio 15 1 0 4 empty empty STRAIGHT 0 -8 0 10 -262144
-1 -1 1;
#X text 34 -80 16th;
#X text 40 -95 8th;
#X text 40 -111 4th;
#X obj 72 -124 vradio 15 1 0 5 empty empty TRIPLETS 0 -8 0 10 -262144
-1 -1 0;
#X text 40 -126 2nd;
#X text 94 -65 16th;
#X text 100 -80 8th;
#X text 100 -96 4th;
#X text 100 -111 2nd;
#X obj 132 -124 vradio 15 1 0 5 empty empty QUINTUPLETS 0 -8 0 10 -262144
-1 -1 0;
#X text 154 -65 16th;
#X text 160 -80 8th;
#X text 160 -96 4th;
#X text 160 -111 2nd;
#X obj 72 -44 s grid2;
#X obj 132 -44 s grid3;
#X text 241 -134 time signature is always 4/4!;
#X floatatom 17 39 5 0 0 0 - - -;
#X obj 65 147 s eventsPerBar;
#X obj 271 82 /;
#X msg 271 61 60;
#X obj 271 40 t b f;
#X obj 271 22 nbx 5 14 -1e+37 1e+37 0 0 empty empty M.M. 0 -6 0 10
-262144 -1 -1 60 256;
#X obj 271 126 phasor~;
#X obj 271 105 * 0.25;
#X obj 271 157 *~ 4;
#X obj 271 178 +~ 1;
#X obj 53 35 r grid1;
#X obj 12 -18 pow;
#X msg 12 -39 2 \$1;
#X obj 12 -60 + 1;
#X obj 12 4 s grid1;
#X floatatom 70 127 5 0 0 0 - - -;
#X obj 65 105 min;
#X obj 53 59 t b f;
#X obj 53 82 f;
#X obj 271 222 snapshot~;
#X floatatom 338 251 0 0 0 0 - - -;
#X obj 279 200 bang~;
#X obj 271 249 t f f;
#X obj 278 277 <;
#X obj 278 298 sel 1;
#X obj 278 322 bng 15 250 50 0 empty empty empty 17 7 0 10 -262144
-1 -1;
#N canvas 0 22 450 278 (subpatch) 0;
#X array grid 8 float 3;
#A 0 1 3 2 4 2.5 4.5 3.5 1.5;
#X coords 0 5 8 1 200 140 1 0 0;
#X restore 451 -38 graph;
#X obj 562 439 tabset points;
#X msg 562 414 1 3 2 4 2.5 4.5 3.5 1.5;
#X floatatom 515 363 5 0 0 0 - - -;
#X obj 506 330 tabread points;
#X obj 118 235 samphold~;
#X obj 118 277 change;
#X obj 118 299 s countBar;
#X obj 118 167 r countBar;
#X obj 118 212 sig~ 0;
#X obj 169 213 wrap~;
#X obj 118 256 snaps~;
#X obj 118 191 + 1;
#X obj 518 232 r countBar;
#X obj 518 253 trigger bang;
#X obj 611 253 r grid1;
#X obj 522 303 PRINT;
#X obj 518 276 list-random 12 2;
#X obj 627 372 urn;
#X floatatom 93 57 5 0 0 0 - - -;
#X obj 169 192 +~ 0.1;
#X connect 0 0 31 0;
#X connect 4 0 15 0;
#X connect 10 0 16 0;
#X connect 18 0 36 0;
#X connect 20 0 25 0;
#X connect 21 0 20 0;
#X connect 22 0 21 0;
#X connect 22 1 20 1;
#X connect 23 0 22 0;
#X connect 24 0 26 0;
#X connect 24 0 64 0;
#X connect 25 0 24 0;
#X connect 26 0 27 0;
#X connect 27 0 37 0;
#X connect 28 0 35 0;
#X connect 28 0 63 0;
#X connect 29 0 32 0;
#X connect 30 0 29 0;
#X connect 31 0 30 0;
#X connect 34 0 33 0;
#X connect 34 0 19 0;
#X connect 35 0 36 0;
#X connect 35 1 34 1;
#X connect 36 0 34 0;
#X connect 37 0 38 0;
#X connect 37 0 40 0;
#X connect 39 0 37 0;
#X connect 40 0 41 1;
#X connect 40 1 41 0;
#X connect 41 0 42 0;
#X connect 42 0 43 0;
#X connect 46 0 45 0;
#X connect 48 0 47 0;
#X connect 49 0 55 0;
#X connect 50 0 51 0;
#X connect 52 0 56 0;
#X connect 53 0 49 0;
#X connect 54 0 49 1;
#X connect 55 0 50 0;
#X connect 56 0 53 0;
#X connect 57 0 58 0;
#X connect 58 0 61 0;
#X connect 59 0 61 2;
#X connect 61 0 60 0;
#X connect 64 0 54 0;
