#N canvas 312 22 1086 698 10;
#X obj 744 186 metro 1000;
#X obj 744 165 tgl 15 0 empty empty on/off 0 -6 0 8 -262144 -1 -1 0
1;
#X obj 801 97 * 1000;
#X floatatom 801 166 5 0 0 1 ms. - -;
#X obj 801 77 /;
#X msg 801 56 60;
#X obj 801 35 t b f;
#X obj 801 17 nbx 5 14 -1e+37 1e+37 0 0 empty empty M.M. 0 -6 0 10
-262144 -1 -1 800 256;
#X obj 9 16 hradio 15 1 0 8 empty empty beats 0 -8 0 10 -262144 -1
-1 0;
#X obj 9 96 hradio 15 1 0 8 empty empty subdivision 0 -8 0 10 -262144
-1 -1 0;
#X text 357 63 por otra parte especificar longitud de los sonidos.
;
#X text 357 43 por una parte especificar relacion silencios/sonidos.
;
#X obj 9 38 + 1;
#X obj 9 61 s beats;
#X obj 9 118 + 1;
#X obj 9 141 s beats;
#X obj 253 139 tgl 15 0 empty empty empty 17 7 0 10 -262144 -1 -1 0
1;
#X obj 253 159 tgl 15 0 empty empty empty 17 7 0 10 -262144 -1 -1 0
1;
#X obj 333 159 tgl 15 0 empty empty empty 17 7 0 10 -262144 -1 -1 0
1;
#X obj 253 179 tgl 15 0 empty empty empty 17 7 0 10 -262144 -1 -1 0
1;
#X obj 293 179 tgl 15 0 empty empty empty 17 7 0 10 -262144 -1 -1 0
1;
#X obj 333 179 tgl 15 0 empty empty empty 17 7 0 10 -262144 -1 -1 0
1;
#X obj 373 179 tgl 15 0 empty empty empty 17 7 0 10 -262144 -1 -1 0
1;
#X obj 253 199 tgl 15 0 empty empty empty 17 7 0 10 -262144 -1 -1 0
1;
#X obj 273 199 tgl 15 0 empty empty empty 17 7 0 10 -262144 -1 -1 0
1;
#X obj 293 199 tgl 15 0 empty empty empty 17 7 0 10 -262144 -1 -1 0
1;
#X obj 313 199 tgl 15 0 empty empty empty 17 7 0 10 -262144 -1 -1 0
1;
#X obj 333 199 tgl 15 0 empty empty empty 17 7 0 10 -262144 -1 -1 0
1;
#X obj 353 199 tgl 15 0 empty empty empty 17 7 0 10 -262144 -1 -1 0
1;
#X obj 373 199 tgl 15 0 empty empty empty 17 7 0 10 -262144 -1 -1 0
1;
#X obj 393 199 tgl 15 0 empty empty empty 17 7 0 10 -262144 -1 -1 0
1;
#X floatatom 407 98 3 0 100 0 - - -;
#X floatatom 406 140 5 0 0 0 - - -;
#X floatatom 487 97 3 0 100 0 - - -;
#X floatatom 486 139 5 0 0 0 - - -;
#X floatatom 570 93 3 0 100 0 - - -;
#X floatatom 569 135 5 0 0 0 - - -;
#X floatatom 650 92 3 0 100 0 - - -;
#X floatatom 649 134 5 0 0 0 - - -;
#X obj 403 119 set_weight 0;
#X obj 483 118 set_weight 1;
#X obj 566 114 set_weight 2;
#X obj 646 113 set_weight 3;
#X obj 744 212 bng 15 250 50 0 empty empty empty 17 7 0 10 -262144
-1 -1;
#X msg -35 271 bang;
#X floatatom -35 320 5 0 0 0 - - -;
#X msg 34 190 bang;
#X floatatom 34 319 5 0 0 1 length - -;
#N canvas 0 22 450 300 (subpatch) 0;
#X array \$0-dist 8 float 0;
#X coords 0 1 7 0 200 140 1 0 0;
#X restore 1 478 graph;
#X obj -35 296 list-wrandom;
#X obj 316 350 index 100 1;
#X obj 316 300 prepend add;
#X obj 316 277 list-drip;
#X msg 388 323 reset;
#X obj -35 362 s figure;
#X obj 325 321 r figure;
#X obj -35 340 + 1;
#X obj 34 270 t a a;
#N canvas 0 22 450 300 write-to-tables 0;
#X obj 227 103 list-len;
#X obj 112 103 list prepend 0;
#X obj 112 128 s \$0-dist;
#X obj 93 256 s \$0-dist;
#X msg 93 155 normalize 1;
#X msg 227 159 resize \$1;
#X obj 93 55 t b a a;
#X obj 93 33 inlet;
#X connect 0 0 5 0;
#X connect 1 0 2 0;
#X connect 4 0 3 0;
#X connect 5 0 3 0;
#X connect 6 0 4 0;
#X connect 6 1 1 0;
#X connect 6 2 0 0;
#X connect 7 0 6 0;
#X restore 61 296 pd write-to-tables;
#X obj 316 371 moonlib/dripchar;
#X obj 316 393 list-drip;
#X obj 221 387 prepend add;
#X obj 221 364 list-drip;
#X obj 221 428 index 4 1;
#X msg 221 342 a \, b \, c \, d;
#X obj 221 314 loadbang;
#X obj 316 230 loadbang;
#X obj 826 203 s baseDur;
#X obj 585 205 tgl 15 0 empty empty empty 17 7 0 10 -262144 -1 -1 1
1;
#X obj 310 573 *;
#X obj 452 412 bng 15 250 50 0 empty empty empty 17 7 0 10 -262144
-1 -1;
#X obj 576 625 s newRy;
#X obj -35 236 r newRy;
#X obj 324 627 delay;
#X obj 588 237 moses 1;
#X obj 654 283 s newRy;
#X obj 627 261 t b b;
#X floatatom 359 520 5 0 0 0 - - -;
#X obj 250 536 bng 15 250 50 0 empty empty empty 17 7 0 10 -262144
-1 -1;
#X floatatom 449 583 5 0 0 0 - - -;
#X obj 324 653 t b b;
#X obj 325 550 r baseDur;
#X msg 590 333 stop;
#X obj 231 642 bng 15 250 50 0 empty empty empty 17 7 0 10 -262144
-1 -1;
#X obj 399 494 PRINT;
#X obj 616 435 dirac~;
#X obj 617 458 dac~;
#X obj 580 426 t b;
#X obj 463 646 mod 4000;
#X floatatom 482 665 5 0 0 0 - - -;
#X obj 542 662 sel 0;
#X obj 580 556 r baseDur;
#X obj 580 576 * 4;
#X floatatom 407 655 5 0 0 0 - - -;
#X obj 449 618 + 0;
#X obj 479 618 f 0;
#X floatatom 616 590 5 0 0 0 - - -;
#X msg 321 461 clear;
#X obj 310 527 fifo 4;
#X msg 316 255 a \, bb \, cd \, dc \, bdd \, ddb \, dbd \, dddd;
#X obj 35 210 list-random 10 7;
#X floatatom 452 327 5 0 0 0 - - -;
#X msg 68 248 1 0.5 0 0 0 0.1 0 0.25;
#X connect 0 0 43 0;
#X connect 1 0 0 0;
#X connect 2 0 3 0;
#X connect 3 0 0 1;
#X connect 3 0 67 0;
#X connect 4 0 2 0;
#X connect 5 0 4 0;
#X connect 6 0 5 0;
#X connect 6 1 4 1;
#X connect 7 0 6 0;
#X connect 8 0 12 0;
#X connect 9 0 14 0;
#X connect 12 0 13 0;
#X connect 14 0 15 0;
#X connect 31 0 39 0;
#X connect 33 0 40 0;
#X connect 35 0 41 0;
#X connect 37 0 42 0;
#X connect 39 0 32 0;
#X connect 40 0 34 0;
#X connect 41 0 36 0;
#X connect 42 0 38 0;
#X connect 44 0 49 0;
#X connect 45 0 56 0;
#X connect 46 0 100 0;
#X connect 49 0 45 0;
#X connect 49 1 47 0;
#X connect 50 0 59 0;
#X connect 50 0 84 0;
#X connect 51 0 50 0;
#X connect 52 0 51 0;
#X connect 53 0 50 0;
#X connect 55 0 50 0;
#X connect 56 0 54 0;
#X connect 57 0 49 1;
#X connect 57 1 58 0;
#X connect 59 0 60 0;
#X connect 60 0 63 0;
#X connect 61 0 63 0;
#X connect 62 0 61 0;
#X connect 63 0 98 0;
#X connect 64 0 62 0;
#X connect 65 0 64 0;
#X connect 66 0 99 0;
#X connect 68 0 74 0;
#X connect 69 0 79 0;
#X connect 70 0 98 0;
#X connect 72 0 44 0;
#X connect 73 0 80 0;
#X connect 74 0 82 0;
#X connect 74 0 95 0;
#X connect 74 1 76 0;
#X connect 76 0 70 0;
#X connect 76 1 75 0;
#X connect 78 0 98 0;
#X connect 79 0 73 0;
#X connect 79 0 94 0;
#X connect 80 0 78 0;
#X connect 81 0 69 1;
#X connect 82 0 73 0;
#X connect 85 0 86 0;
#X connect 85 0 86 1;
#X connect 87 0 85 0;
#X connect 88 0 89 0;
#X connect 88 0 90 0;
#X connect 90 0 71 0;
#X connect 91 0 92 0;
#X connect 92 0 88 1;
#X connect 92 0 96 0;
#X connect 94 0 88 0;
#X connect 94 0 93 0;
#X connect 94 0 95 0;
#X connect 95 0 94 1;
#X connect 97 0 98 0;
#X connect 98 0 69 0;
#X connect 98 0 77 0;
#X connect 98 0 87 0;
#X connect 99 0 52 0;
#X connect 100 0 57 0;
#X connect 101 0 50 0;
#X connect 102 0 57 0;
