#N canvas 811 22 1082 879 10;
#X obj 468 29 +~;
#X obj 552 -42 *~ 0.98;
#X msg 532 -135 1000 \$1;
#X obj 532 -113 /;
#X obj 593 162 *~ 1;
#X obj 689 138 dbtorms;
#X obj 662 26 t f f;
#X obj 629 -63 *;
#X obj 602 -168 t f f;
#X obj 647 -371 moses 1;
#X obj 748 204 sqrt;
#X obj 727 248 *~ 1;
#X obj 772 248 *~ 1;
#X obj 793 205 sqrt;
#X obj 793 184 abs;
#X obj 793 164 - 1;
#X obj 629 -40 sig~;
#X obj 601 52 vcf~ 100 1;
#X obj 689 115 + 100;
#X obj 689 92 * 10;
#X obj 689 48 log;
#X obj 689 70 / 2.30259;
#X obj 602 -189 mtof;
#X obj 727 291 throw~ L;
#X obj 772 271 throw~ R;
#X obj 532 -90 delread~ d\$0 10;
#X obj 617 -231 r fundamental;
#X obj 602 -211 +;
#X obj 496 -324 tabread chordType;
#X obj 602 -253 +;
#X obj 617 -279 + 18;
#X obj 496 -281 mod 12;
#X obj 496 -302 - 6;
#X obj 617 -301 * 12;
#X obj 562 -374 t b f;
#X obj 767 -371 a.rand pan;
#X obj 647 -395 a.rmm Harm;
#X obj 562 -395 a.rmm Octave;
#X obj 591 -63 r Fdb;
#X obj 635 -18 r Q;
#X obj 635 3 sel 0;
#X obj 496 -345 random 3;
#X obj 468 -42 noise~;
#X obj 468 -20 lop~ 100;
#X obj 547 -513 r \$0-trigger;
#X obj 513 -42 r lp;
#X obj -20 -542 cnv 15 300 520 empty empty empty 20 12 0 14 -233017
-66577 0;
#X obj 188 -401 pow;
#X msg 188 -422 2 \$1;
#X obj 188 -443 + 1;
#X obj 144 -326 min;
#X obj 148 -374 t b f;
#X obj 215 -232 /;
#X msg 215 -253 16 \$1;
#X obj 58 -277 until;
#X obj 58 -298 f 1;
#X obj 58 -141 list-extend;
#X obj 7 -97 list-find;
#X obj 58 -182 * 0.25;
#X obj 58 -204 * 8;
#X obj 58 -162 + 1;
#X obj 58 -231 zexy/urn;
#X obj 58 -119 sort;
#X obj 188 -325 t f f;
#X msg 66 -255 clear;
#X obj -11 -231 r sequence;
#X obj 87 -511 t b b b b;
#X obj 7 -52 s \$0-trigger;
#X obj 7 -75 t b;
#X obj 138 -488 a.rmm Events;
#X obj 188 -466 r Subdivision;
#X obj 138 -349 f 8;
#X obj 87 -533 r bar;
#X obj 932 -399 switch~;
#X obj 968 -449 route \$1;
#X msg 932 -475 1;
#X obj 932 -497 loadbang;
#X obj 468 52 delwrite~ d\$0 200;
#X obj 337 -370 r burst;
#X obj 329 -291 -;
#X obj 399 -133 vline~;
#X msg 400 -167 0 \, 1 \$2 0 \, 0 \$1 \$2;
#X obj 400 -189 pack f f;
#X obj 337 -345 t f f;
#X obj 326 -266 - 1;
#X obj 371 -32 *~;
#X obj 427 5 *~;
#X obj 547 -489 t b b b b b;
#X obj 609 212 *~;
#X obj 364 -322 / 50;
#X obj 437 -254 t b b;
#X obj 885 89 line~;
#X msg 840 57 1;
#X msg 884 41 0;
#X connect 0 0 77 0;
#X connect 1 0 0 1;
#X connect 1 0 17 0;
#X connect 2 0 3 0;
#X connect 3 0 25 0;
#X connect 4 0 88 0;
#X connect 5 0 4 1;
#X connect 6 0 17 2;
#X connect 6 1 20 0;
#X connect 7 0 16 0;
#X connect 8 0 2 0;
#X connect 8 1 7 0;
#X connect 9 1 7 1;
#X connect 10 0 11 1;
#X connect 11 0 23 0;
#X connect 12 0 24 0;
#X connect 13 0 12 1;
#X connect 14 0 13 0;
#X connect 15 0 14 0;
#X connect 16 0 17 1;
#X connect 17 0 4 0;
#X connect 18 0 5 0;
#X connect 19 0 18 0;
#X connect 20 0 21 0;
#X connect 21 0 19 0;
#X connect 22 0 8 0;
#X connect 25 0 1 0;
#X connect 26 0 27 1;
#X connect 27 0 22 0;
#X connect 28 0 32 0;
#X connect 29 0 27 0;
#X connect 30 0 29 1;
#X connect 31 0 29 0;
#X connect 32 0 31 0;
#X connect 33 0 30 0;
#X connect 34 0 41 0;
#X connect 34 1 33 0;
#X connect 35 0 15 0;
#X connect 35 0 10 0;
#X connect 36 0 9 0;
#X connect 37 0 34 0;
#X connect 38 0 1 1;
#X connect 39 0 40 0;
#X connect 40 1 6 0;
#X connect 41 0 28 0;
#X connect 42 0 43 0;
#X connect 43 0 86 1;
#X connect 44 0 87 0;
#X connect 45 0 43 1;
#X connect 47 0 51 0;
#X connect 47 0 63 0;
#X connect 48 0 47 0;
#X connect 49 0 48 0;
#X connect 50 0 55 1;
#X connect 51 0 71 0;
#X connect 51 1 50 1;
#X connect 52 0 59 1;
#X connect 53 0 52 0;
#X connect 54 0 61 0;
#X connect 55 0 54 0;
#X connect 56 0 62 0;
#X connect 57 0 68 0;
#X connect 58 0 60 0;
#X connect 59 0 58 0;
#X connect 60 0 56 0;
#X connect 61 0 59 0;
#X connect 62 0 57 1;
#X connect 63 0 61 1;
#X connect 63 1 53 0;
#X connect 64 0 61 0;
#X connect 65 0 57 0;
#X connect 66 0 55 0;
#X connect 66 1 64 0;
#X connect 66 2 56 1;
#X connect 66 3 69 0;
#X connect 68 0 67 0;
#X connect 69 0 71 0;
#X connect 70 0 49 0;
#X connect 71 0 50 0;
#X connect 72 0 66 0;
#X connect 74 0 73 0;
#X connect 75 0 73 0;
#X connect 76 0 75 0;
#X connect 78 0 83 0;
#X connect 79 0 84 0;
#X connect 80 0 85 1;
#X connect 80 0 85 0;
#X connect 81 0 80 0;
#X connect 82 0 81 0;
#X connect 83 0 79 0;
#X connect 83 1 89 0;
#X connect 84 0 82 0;
#X connect 85 0 86 0;
#X connect 86 0 0 0;
#X connect 87 0 90 0;
#X connect 87 1 37 0;
#X connect 87 2 36 0;
#X connect 87 3 35 0;
#X connect 87 4 93 0;
#X connect 88 0 12 0;
#X connect 88 0 11 0;
#X connect 89 0 79 1;
#X connect 89 0 82 1;
#X connect 90 0 82 0;
#X connect 90 1 92 0;
#X connect 91 0 88 1;
#X connect 92 0 91 0;
#X connect 93 0 91 0;
