#N canvas 616 136 370 414 10;
#X obj 103 361 writesf~ 2;
#X obj 160 333 r~ granulator.rec.r;
#X obj 140 313 r~ granulator.rec.r;
#X msg 56 266 start;
#X msg 27 312 stop;
#X obj 182 217 time;
#X obj 129 217 date;
#X obj 155 189 t b b;
#X obj 103 243 pack f f f f f f;
#X obj 137 24 r enable.rec;
#X obj 104 47 spigot;
#X obj 155 167 unaVez;
#X obj 104 2 r reset.rec;
#X msg -16 153 1;
#X obj 104 71 t b b b b b b;
#X obj 69 144 delay;
#X obj 96 124 + 2000;
#X obj -16 177 s rec.int;
#X msg 27 346 0;
#X obj 104 265 makesymbol %s|%s|%s@%s%s%s%;
#X obj 96 103 r score.duration.2;
#X text 205 382 angel faraldo;
#X msg 103 289 open -bytes 3 ../\$1.wav;
#X connect 1 0 0 1;
#X connect 2 0 0 0;
#X connect 3 0 0 0;
#X connect 4 0 0 0;
#X connect 4 0 18 0;
#X connect 5 0 8 3;
#X connect 5 1 8 4;
#X connect 5 2 8 5;
#X connect 6 0 8 0;
#X connect 6 1 8 1;
#X connect 6 2 8 2;
#X connect 7 0 6 0;
#X connect 7 1 5 0;
#X connect 8 0 19 0;
#X connect 9 0 10 1;
#X connect 10 0 14 0;
#X connect 11 0 7 0;
#X connect 12 0 10 0;
#X connect 13 0 17 0;
#X connect 14 1 15 0;
#X connect 14 2 3 0;
#X connect 14 3 13 0;
#X connect 14 4 11 0;
#X connect 14 5 11 1;
#X connect 15 0 4 0;
#X connect 16 0 15 1;
#X connect 18 0 17 0;
#X connect 19 0 22 0;
#X connect 20 0 16 0;
#X connect 22 0 0 0;
