#N canvas 112 22 534 478 10;
#N canvas 599 22 160 752 instances 1;
#X obj 25 25 grain 0;
#X obj 25 50 grain 1;
#X obj 25 75 grain 2;
#X obj 25 100 grain 3;
#X obj 25 125 grain 4;
#X obj 25 150 grain 5;
#X obj 25 175 grain 6;
#X obj 25 200 grain 7;
#X obj 25 225 grain 8;
#X obj 25 250 grain 9;
#X obj 25 275 grain 10;
#X obj 25 300 grain 11;
#X obj 25 325 grain 12;
#X obj 25 350 grain 13;
#X obj 25 375 grain 14;
#X obj 25 400 grain 15;
#X obj 25 425 grain 16;
#X obj 25 450 grain 17;
#X obj 25 475 grain 18;
#X obj 25 500 grain 19;
#X obj 25 525 grain 20;
#X obj 25 550 grain 21;
#X obj 25 575 grain 22;
#X obj 25 600 grain 23;
#X obj 25 625 grain 24;
#X obj 25 650 grain 25;
#X obj 25 675 grain 26;
#X obj 25 700 grain 27;
#X obj 25 725 grain 28;
#X obj 25 750 grain 29;
#X obj 25 775 grain 30;
#X obj 25 800 grain 31;
#X obj 25 825 grain 32;
#X obj 25 850 grain 33;
#X obj 25 875 grain 34;
#X obj 25 900 grain 35;
#X obj 25 925 grain 36;
#X obj 25 950 grain 37;
#X obj 25 975 grain 38;
#X obj 25 1000 grain 39;
#X obj 25 1025 grain 40;
#X obj 25 1050 grain 41;
#X obj 25 1075 grain 42;
#X obj 25 1100 grain 43;
#X obj 25 1125 grain 44;
#X obj 25 1150 grain 45;
#X obj 25 1175 grain 46;
#X obj 25 1200 grain 47;
#X obj 25 1225 grain 48;
#X obj 25 1250 grain 49;
#X obj 25 1275 grain 50;
#X obj 25 1300 grain 51;
#X obj 25 1325 grain 52;
#X obj 25 1350 grain 53;
#X obj 25 1375 grain 54;
#X obj 25 1400 grain 55;
#X obj 25 1425 grain 56;
#X obj 25 1450 grain 57;
#X obj 25 1475 grain 58;
#X obj 25 1500 grain 59;
#X obj 25 1525 grain 60;
#X obj 25 1550 grain 61;
#X obj 25 1575 grain 62;
#X obj 25 1600 grain 63;
#X obj 25 1625 grain 64;
#X obj 25 1650 grain 65;
#X obj 25 1675 grain 66;
#X obj 25 1700 grain 67;
#X obj 25 1725 grain 68;
#X obj 25 1750 grain 69;
#X obj 25 1775 grain 70;
#X obj 25 1800 grain 71;
#X obj 25 1825 grain 72;
#X obj 25 1850 grain 73;
#X obj 25 1875 grain 74;
#X obj 25 1900 grain 75;
#X obj 25 1925 grain 76;
#X obj 25 1950 grain 77;
#X obj 25 1975 grain 78;
#X obj 25 2000 grain 79;
#X obj 25 2025 grain 80;
#X obj 25 2050 grain 81;
#X obj 25 2075 grain 82;
#X obj 25 2100 grain 83;
#X obj 25 2125 grain 84;
#X obj 25 2150 grain 85;
#X obj 25 2175 grain 86;
#X obj 25 2200 grain 87;
#X obj 25 2225 grain 88;
#X obj 25 2250 grain 89;
#X obj 25 2275 grain 90;
#X obj 25 2300 grain 91;
#X obj 25 2325 grain 92;
#X obj 25 2350 grain 93;
#X obj 25 2375 grain 94;
#X obj 25 2400 grain 95;
#X obj 25 2425 grain 96;
#X obj 25 2450 grain 97;
#X obj 25 2475 grain 98;
#X obj 25 2500 grain 99;
#X restore 126 412 pd instances;
#X obj 114 392 s pd-instances;
#X obj 48 103 until;
#X obj 48 154 f 0;
#X obj 74 153 + 1;
#X msg 86 103 0;
#X msg 114 103 clear;
#X obj 48 176 t f f;
#X obj 67 70 t f b b;
#X obj 75 199 * 25;
#X obj 75 219 + 25;
#X obj 14 320 pack f s f;
#X obj 28 14 inlet;
#X msg 14 346 obj 25 \$3 \$2 \$1;
#X obj 42 269 symbol \$1;
#X obj 42 245 loadbang;
#X obj 67 48 f \$2;
#X obj 67 14 loadbang;
#X text 170 10 ARGUMENTS:;
#X text 170 55 2) number of instances;
#X text 170 35 1) name of the object;
#X text 210 412 (new objects are placed inside the subpatch);
#X text 408 448 angel faraldo 2011;
#X connect 2 0 3 0;
#X connect 3 0 4 0;
#X connect 3 0 7 0;
#X connect 4 0 3 1;
#X connect 5 0 3 1;
#X connect 6 0 1 0;
#X connect 7 0 11 0;
#X connect 7 1 9 0;
#X connect 8 0 2 0;
#X connect 8 1 5 0;
#X connect 8 2 6 0;
#X connect 9 0 10 0;
#X connect 10 0 11 2;
#X connect 11 0 13 0;
#X connect 12 0 16 0;
#X connect 13 0 1 0;
#X connect 14 0 11 1;
#X connect 15 0 14 0;
#X connect 16 0 8 0;
#X connect 17 0 16 0;
