#N canvas 0 22 435 235 10;
#X obj 46 93 spigot;
#X obj 46 114 outlet;
#X msg 79 35 1;
#X msg 16 57 0;
#X obj 16 36 t b a;
#X obj 16 16 inlet;
#X obj 79 15 inlet;
#X text 5 137 once: outputs only its first incoming data \, whatever
a bang \, a symbol \, a number or a list. Must be reseted on its right
inlet.;
#X text 279 187 angel Faraldo \, 2007;
#X connect 0 0 1 0;
#X connect 2 0 0 1;
#X connect 3 0 0 1;
#X connect 4 0 3 0;
#X connect 4 1 0 0;
#X connect 5 0 4 0;
#X connect 6 0 2 0;
