#N canvas 166 66 746 798 10;
#X obj 75 422 vline~;
#X msg 75 401 \$1 \, \$2 \$3;
#X obj 75 379 pack f f f;
#X obj 167 307 t f f;
#X obj 118 335 * 44.1;
#X obj 177 225 * 44.1;
#X obj 75 330 t f f;
#X obj 103 357 +;
#X obj 45 265 + 0;
#X obj 72 265 f;
#X obj 75 309 mod;
#X obj 188 442 f;
#X obj 49 109 t b b;
#X obj 75 468 simple_ead~;
#X obj 49 85 sel 1;
#X obj 75 508 outlet~;
#X obj 49 63 r i\$1;
#X obj 120 146 soundfiler;
#X obj 120 81 openpanel;
#X floatatom 177 204 5 0 0 0 - - -, f 5;
#X floatatom 167 285 5 0 0 0 - - -, f 5;
#X obj 120 169 s size\$1;
#X msg 80 31 bang;
#X obj 90 287 r size\$1;
#X text 216 283 duration;
#X obj 167 262 inlet;
#X obj 120 31 inlet;
#X text 235 204 sample increment;
#X obj 120 53 route bang;
#X obj 224 146 loadbang;
#X msg 224 264 50;
#X msg 189 181 10;
#X obj 75 443 tabread4~ sound\$1;
#X msg 120 124 read -resize \$1 sound\$2;
#X obj 120 102 pack s \$1;
#X obj 303 364 adc~ 1;
#X obj 286 461 tabwrite~ sound\$1;
#X obj 338 417 bng 15 250 50 0 empty empty empty 17 7 0 10 -262144
-1 -1;
#X obj 128 508 table sound\$1 88200;
#X msg 372 255 normalize;
#X obj 358 297 s sound\$1;
#X connect 0 0 32 0;
#X connect 1 0 0 0;
#X connect 2 0 1 0;
#X connect 3 0 4 0;
#X connect 3 1 2 2;
#X connect 3 1 11 1;
#X connect 4 0 7 1;
#X connect 5 0 8 0;
#X connect 6 0 2 0;
#X connect 6 1 7 0;
#X connect 7 0 2 1;
#X connect 8 0 9 0;
#X connect 8 0 10 0;
#X connect 9 0 8 1;
#X connect 10 0 6 0;
#X connect 11 0 13 1;
#X connect 12 0 11 0;
#X connect 12 1 8 0;
#X connect 13 0 15 0;
#X connect 14 0 12 0;
#X connect 16 0 14 0;
#X connect 17 0 21 0;
#X connect 18 0 34 0;
#X connect 19 0 5 0;
#X connect 20 0 3 0;
#X connect 22 0 18 0;
#X connect 23 0 10 1;
#X connect 25 0 20 0;
#X connect 26 0 28 0;
#X connect 28 0 18 0;
#X connect 28 1 19 0;
#X connect 29 0 30 0;
#X connect 29 0 31 0;
#X connect 30 0 20 0;
#X connect 31 0 19 0;
#X connect 32 0 13 0;
#X connect 33 0 17 0;
#X connect 34 0 33 0;
#X connect 35 0 36 0;
#X connect 37 0 36 0;
#X connect 39 0 40 0;
