#N canvas 43 23 1068 720 10;
#X obj 3 -11 cnv 15 30 600 empty empty empty 20 12 0 14 -112925 -66577
0;
#N canvas 483 23 820 617 patch 1;
#X obj 677 451 /;
#X msg 677 430 60000 \$1;
#X floatatom 677 411 5 0 0 0 - - -;
#X obj 626 494 tgl 15 0 empty empty empty 17 7 0 10 -262144 -1 -1 0
1;
#X obj 626 537 s clock;
#X floatatom 683 472 5 0 0 0 - - -;
#X obj 451 101 until;
#X obj 451 143 f 0;
#X obj 481 143 + 1;
#X msg 466 122 0;
#X obj 451 164 t f f;
#X obj 451 67 t f b;
#X obj 451 4 loadbang;
#X obj 451 409 & 8;
#X obj 481 409 & 4;
#X obj 511 408 & 2;
#X obj 541 408 & 1;
#X obj 542 431 > 0;
#X obj 512 431 > 0;
#X obj 482 431 > 0;
#X obj 452 431 > 0;
#X obj 482 453 s i3;
#X obj 452 453 s i4;
#X obj 512 453 s i2;
#X obj 542 453 s i1;
#X text 674 391 TEMPO (BPM);
#X obj 451 261 r clock;
#X obj 451 282 f 0;
#X obj 481 282 + 1;
#X obj 451 353 tabread sequence;
#X obj 451 377 t f f f f;
#X obj 451 302 mod 32;
#X obj 451 213 int;
#X msg 451 47 32;
#X obj 451 184 tabread sequence;
#X obj 451 236 tabwrite sequence;
#X obj 677 491 / 4;
#X floatatom 695 514 5 0 0 0 - - -;
#X floatatom 113 87 5 0 0 0 - - -;
#X floatatom 69 80 5 0 0 0 - - -;
#X obj 46 54 bng 15 250 50 0 empty empty empty 17 7 0 10 -262144 -1
-1;
#X floatatom 153 167 5 0 0 0 - - -;
#X floatatom 109 160 5 0 0 0 - - -;
#X obj 86 134 bng 15 250 50 0 empty empty empty 17 7 0 10 -262144 -1
-1;
#X floatatom 224 249 5 0 0 0 - - -;
#X floatatom 180 242 5 0 0 0 - - -;
#X obj 157 216 bng 15 250 50 0 empty empty empty 17 7 0 10 -262144
-1 -1;
#X floatatom 264 329 5 0 0 0 - - -;
#X floatatom 220 322 5 0 0 0 - - -;
#X obj 197 296 bng 15 250 50 0 empty empty empty 17 7 0 10 -262144
-1 -1;
#X obj 53 473 dac~;
#X obj 46 114 instrument 1;
#X obj 458 324 s position;
#X obj 626 514 metro 500;
#X obj 451 25 metro 200;
#X obj 553 47 bng 15 250 50 0 empty empty empty 17 7 0 10 -262144 -1
-1;
#X obj 60 435 *~ 0.1;
#X floatatom 165 447 5 0 100 0 - - -;
#X obj 170 517 dbtorms;
#X obj 231 442;
#X obj 197 356 instrument 4;
#X obj 86 194 instrument 2;
#X obj 157 276 instrument 3;
#X connect 0 0 5 0;
#X connect 0 0 36 0;
#X connect 1 0 0 0;
#X connect 2 0 1 0;
#X connect 3 0 53 0;
#X connect 6 0 7 0;
#X connect 7 0 8 0;
#X connect 7 0 10 0;
#X connect 8 0 7 1;
#X connect 9 0 7 1;
#X connect 10 0 34 0;
#X connect 10 1 35 1;
#X connect 11 0 6 0;
#X connect 11 1 9 0;
#X connect 12 0 54 0;
#X connect 13 0 20 0;
#X connect 14 0 19 0;
#X connect 15 0 18 0;
#X connect 16 0 17 0;
#X connect 17 0 24 0;
#X connect 18 0 23 0;
#X connect 19 0 21 0;
#X connect 20 0 22 0;
#X connect 26 0 27 0;
#X connect 27 0 28 0;
#X connect 27 0 31 0;
#X connect 28 0 27 1;
#X connect 29 0 30 0;
#X connect 30 0 13 0;
#X connect 30 1 14 0;
#X connect 30 2 15 0;
#X connect 30 3 16 0;
#X connect 31 0 29 0;
#X connect 31 0 52 0;
#X connect 32 0 35 0;
#X connect 33 0 11 0;
#X connect 34 0 32 0;
#X connect 36 0 37 0;
#X connect 36 0 53 1;
#X connect 38 0 51 1;
#X connect 39 0 51 0;
#X connect 40 0 51 0;
#X connect 41 0 61 1;
#X connect 42 0 61 0;
#X connect 43 0 61 0;
#X connect 44 0 62 1;
#X connect 45 0 62 0;
#X connect 46 0 62 0;
#X connect 47 0 60 1;
#X connect 48 0 60 0;
#X connect 49 0 60 0;
#X connect 51 0 56 0;
#X connect 53 0 4 0;
#X connect 54 0 33 0;
#X connect 55 0 54 0;
#X connect 56 0 50 0;
#X connect 56 0 50 1;
#X connect 57 0 58 0;
#X connect 58 0 56 1;
#X connect 60 0 56 0;
#X connect 61 0 56 0;
#X connect 62 0 56 0;
#X restore 3 646 pd patch;
#X obj 34 -11 cnv 15 30 600 empty empty empty 20 12 0 14 -146341 -66577
0;
#X obj 65 -11 cnv 15 30 600 empty empty empty 20 12 0 14 -167209 -66577
0;
#X obj 96 -11 cnv 15 30 600 empty empty empty 20 12 0 14 -192304 -66577
0;
#X obj 127 -11 cnv 15 30 600 empty empty empty 20 12 0 14 -112925 -66577
0;
#X obj 158 -11 cnv 15 30 600 empty empty empty 20 12 0 14 -146341 -66577
0;
#X obj 189 -11 cnv 15 30 600 empty empty empty 20 12 0 14 -167209 -66577
0;
#X obj 220 -11 cnv 15 30 600 empty empty empty 20 12 0 14 -192304 -66577
0;
#X obj 251 -11 cnv 15 30 600 empty empty empty 20 12 0 14 -112925 -66577
0;
#X obj 282 -11 cnv 15 30 600 empty empty empty 20 12 0 14 -146341 -66577
0;
#X obj 313 -11 cnv 15 30 600 empty empty empty 20 12 0 14 -167209 -66577
0;
#X obj 344 -11 cnv 15 30 600 empty empty empty 20 12 0 14 -192304 -66577
0;
#X obj 375 -11 cnv 15 30 600 empty empty empty 20 12 0 14 -112925 -66577
0;
#X obj 406 -11 cnv 15 30 600 empty empty empty 20 12 0 14 -146341 -66577
0;
#X obj 437 -11 cnv 15 30 600 empty empty empty 20 12 0 14 -167209 -66577
0;
#X obj 468 -11 cnv 15 30 600 empty empty empty 20 12 0 14 -192304 -66577
0;
#X obj 499 -11 cnv 15 30 600 empty empty empty 20 12 0 14 -112925 -66577
0;
#X obj 530 -11 cnv 15 30 600 empty empty empty 20 12 0 14 -146341 -66577
0;
#X obj 561 -11 cnv 15 30 600 empty empty empty 20 12 0 14 -167209 -66577
0;
#X obj 592 -11 cnv 15 30 600 empty empty empty 20 12 0 14 -192304 -66577
0;
#X obj 623 -11 cnv 15 30 600 empty empty empty 20 12 0 14 -112925 -66577
0;
#X obj 654 -11 cnv 15 30 600 empty empty empty 20 12 0 14 -146341 -66577
0;
#X obj 685 -11 cnv 15 30 600 empty empty empty 20 12 0 14 -167209 -66577
0;
#X obj 716 -11 cnv 15 30 600 empty empty empty 20 12 0 14 -192304 -66577
0;
#X obj 747 -11 cnv 15 30 600 empty empty empty 20 12 0 14 -112925 -66577
0;
#X obj 778 -11 cnv 15 30 600 empty empty empty 20 12 0 14 -146341 -66577
0;
#X obj 809 -11 cnv 15 30 600 empty empty empty 20 12 0 14 -167209 -66577
0;
#X obj 840 -11 cnv 15 30 600 empty empty empty 20 12 0 14 -192304 -66577
0;
#X obj 871 -11 cnv 15 30 600 empty empty empty 20 12 0 14 -112925 -66577
0;
#X obj 902 -11 cnv 15 30 600 empty empty empty 20 12 0 14 -146341 -66577
0;
#X obj 933 -11 cnv 15 30 600 empty empty empty 20 12 0 14 -167209 -66577
0;
#X obj 964 -11 cnv 15 30 600 empty empty empty 20 12 0 14 -192304 -66577
0;
#X obj 3 592 hsl 987 15 0 32 0 1 asd position empty -2 -8 0 10 -262144
-1 -1 80112 1;
#N canvas 0 22 450 278 (subpatch) 0;
#X array sequence 32 float 3;
#A 0 13 15 1 0 0 0 1 4 7 0 0 0 1 1 2 0 0 0 0 0 0 7 13 11 9 8 0 0 1
12 5 14;
#X coords 0 16.5 32 -0.5 992 600 1 0 0;
#X restore 3 -11 graph;
#X obj 3 570 cnv 15 991 3 empty empty empty 20 12 0 14 -233017 -66577
0;
#X obj 3 535 cnv 15 991 3 empty empty empty 20 12 0 14 -233017 -66577
0;
#X obj 3 499 cnv 15 991 3 empty empty empty 20 12 0 14 -233017 -66577
0;
#X obj 3 464 cnv 15 991 3 empty empty empty 20 12 0 14 -233017 -66577
0;
#X obj 3 429 cnv 15 991 3 empty empty empty 20 12 0 14 -233017 -66577
0;
#X obj 3 393 cnv 15 991 3 empty empty empty 20 12 0 14 -233017 -66577
0;
#X obj 3 358 cnv 15 991 3 empty empty empty 20 12 0 14 -233017 -66577
0;
#X obj 3 323 cnv 15 991 3 empty empty empty 20 12 0 14 -233017 -66577
0;
#X obj 3 288 cnv 15 991 3 empty empty empty 20 12 0 14 -233017 -66577
0;
#X obj 3 252 cnv 15 991 3 empty empty empty 20 12 0 14 -233017 -66577
0;
#X obj 3 5 cnv 15 991 3 empty empty empty 20 12 0 14 -233017 -66577
0;
#X obj 3 40 cnv 15 991 3 empty empty empty 20 12 0 14 -233017 -66577
0;
#X obj 3 111 cnv 15 991 3 empty empty empty 20 12 0 14 -233017 -66577
0;
#X obj 3 76 cnv 15 991 3 empty empty empty 20 12 0 14 -233017 -66577
0;
#X obj 3 146 cnv 15 991 3 empty empty empty 20 12 0 14 -233017 -66577
0;
#X obj 3 182 cnv 15 991 3 empty empty empty 20 12 0 14 -233017 -66577
0;
#X obj 3 217 cnv 15 991 3 empty empty empty 20 12 0 14 -233017 -66577
0;
