#N canvas 75 23 1087 709 10;
#X obj 8 73 soundfiler;
#X obj 8 29 openpanel;
#X obj 8 10 bng 15 250 50 0 empty empty empty 17 7 0 10 -262144 -1
-1;
#X obj 8 96 s size;
#N canvas 0 22 450 278 (subpatch) 0;
#X array sound1 88200 float 2;
#X coords 0 1 88200 -1 200 140 1;
#X restore 190 24 graph;
#X msg 8 51 read -resize \$1 sound1;
#X obj 219 687 dac~;
#X obj 544 443 /;
#X msg 544 422 60000 \$1;
#X floatatom 544 403 5 0 0 0 - - -;
#X obj 517 506 metro;
#X obj 517 486 tgl 15 0 empty empty empty 17 7 0 10 -262144 -1 -1 0
1;
#X obj 517 529 s clock;
#X obj 241 594 tabread4~ sound1;
#X obj 241 573 vline~;
#X floatatom 73 90 10 0 0 0 - - -;
#X obj 215 233 r clock;
#X floatatom 550 464 5 0 0 0 - - -;
#X obj 544 483 / 4;
#X obj 215 254 f 0;
#X obj 245 254 + 1;
#X obj 570 530 s tick_length;
#X msg 241 552 \$1 \, \$2 \$3;
#X obj 191 191 s increment;
#X floatatom 191 170 5 0 0 0 - - -;
#X floatatom 271 170 5 0 0 0 - - -;
#X obj 271 191 s duration;
#X obj 241 530 pack f f f;
#X obj 323 367 r duration;
#X obj 251 367 r increment;
#X obj 323 388 t f f;
#X obj 323 409 * 44.1;
#X obj 251 389 * 44.1;
#X obj 241 481 t f f;
#X obj 308 508 +;
#X obj 241 416 + 0;
#X obj 266 416 f;
#X obj 241 460 mod;
#X obj 256 438 r size;
#X obj 215 274 mod 16;
#X floatatom 353 291 5 0 0 0 - - -;
#X obj 215 316 sel 1 2;
#X obj 241 619 ead~;
#X obj 344 557 f;
#X obj 215 340 t b b;
#X obj 215 295 tabread sequence-hihat;
#X obj 473 42 sequencer hihat;
#X connect 0 0 3 0;
#X connect 0 0 15 0;
#X connect 1 0 5 0;
#X connect 2 0 1 0;
#X connect 5 0 0 0;
#X connect 7 0 17 0;
#X connect 7 0 18 0;
#X connect 8 0 7 0;
#X connect 9 0 8 0;
#X connect 10 0 12 0;
#X connect 11 0 10 0;
#X connect 13 0 42 0;
#X connect 14 0 13 0;
#X connect 16 0 19 0;
#X connect 18 0 10 1;
#X connect 18 0 21 0;
#X connect 19 0 20 0;
#X connect 19 0 39 0;
#X connect 20 0 19 1;
#X connect 22 0 14 0;
#X connect 24 0 23 0;
#X connect 25 0 26 0;
#X connect 27 0 22 0;
#X connect 28 0 30 0;
#X connect 29 0 32 0;
#X connect 30 0 31 0;
#X connect 30 1 27 2;
#X connect 30 1 43 1;
#X connect 31 0 34 1;
#X connect 32 0 35 0;
#X connect 33 0 27 0;
#X connect 33 1 34 0;
#X connect 34 0 27 1;
#X connect 35 0 36 0;
#X connect 35 0 37 0;
#X connect 36 0 35 1;
#X connect 37 0 33 0;
#X connect 38 0 37 1;
#X connect 39 0 40 0;
#X connect 39 0 45 0;
#X connect 41 0 44 0;
#X connect 41 1 44 0;
#X connect 42 0 6 1;
#X connect 42 0 6 0;
#X connect 43 0 42 1;
#X connect 44 0 43 0;
#X connect 44 1 35 0;
#X connect 45 0 41 0;
