#N canvas 404 55 450 300 10;
#X obj 152 171 +~;
#X obj 165 202 *~ 0.1;
#X obj 198 180 inlet;
#X obj 167 123 inlet;
#X obj 152 98 inlet~;
#X obj 167 147 delread~ delayLine-\$0 500;
#X obj 165 224 delwrite~ delayLine-\$0 1000;
#X obj 152 251 outlet~;
#X connect 0 0 1 0;
#X connect 0 0 7 0;
#X connect 1 0 6 0;
#X connect 2 0 1 1;
#X connect 3 0 5 0;
#X connect 4 0 0 0;
#X connect 5 0 0 1;
