#N canvas 973 211 266 455 10;
#X obj 2 2 cnv 15 260 450 empty empty empty 20 12 0 14 -33289 -66577
0;
#X obj 63 316 vu 15 120 outRight empty -1 -8 0 10 -33289 -262144 1
0;
#X obj 13 316 vu 15 120 outLeft empty -1 -8 0 10 -33289 -262144 1 0
;
#X obj 122 47 tgl 50 0 input empty INPUT_BYPASS 0 -15 0 12 -128992
-4034 -262144 0 1;
#X obj 63 17 vu 15 120 inRight empty -1 -8 0 10 -33289 -262144 1 0
;
#X obj 13 17 vu 15 120 inLeft empty -1 -8 0 10 -33289 -262144 1 0;
#X obj 14 204 hsl 128 15 100 4000 0 0 delayTime delayInit DELAY -2
-12 0 12 -99865 -4034 -262144 12700 1;
#X obj 14 244 hsl 128 15 0 99 0 0 feedbackPercentage feedbackInit FEEDBACK
-2 -12 0 12 -99865 -4034 -262144 5773 1;
#X obj 145 244 nbx 2 15 -1e+37 1e+37 0 0 empty feedbackPercentage %
35 8 0 12 -99865 -4034 -262144 45 256;
#X obj 145 204 nbx 4 15 -1e+37 1e+37 0 0 empty delayTime ms. 55 8 0
12 -99865 -4034 -262144 4000 256;
#X obj 145 284 nbx 5 15 -1e+37 1e+37 0 0 empty outLevel dB 65 8 0 12
-99865 -4034 -262144 -12 256;
#X obj 144 164 nbx 5 15 -1e+37 1e+37 0 0 empty inLevel dB 65 8 0 12
-99865 -4034 -262144 -6 256;
#X obj 14 284 hsl 128 15 -100 0 0 0 outLevel outInit OUTPUT -2 -12
0 12 -99865 -4034 -262144 11176 1;
#X obj 14 164 hsl 128 15 -100 0 0 0 inLevel inInit INPUT -2 -12 0 12
-99865 -4034 -262144 11938 1;
#N canvas 1262 186 532 834 guts&notes 1;
#X obj 63 230 hip~ 5;
#X obj 108 230 hip~ 5;
#X obj 108 617 delwrite~ \$0-delayRight 4000;
#X obj 63 639 delwrite~ \$0-delayLeft 4000;
#X obj 236 275 delread~ \$0-delayLeft 4000;
#X obj 266 295 delread~ \$0-delayRight 4000;
#X obj 108 76 *~;
#X obj 123 51 line~;
#X obj 63 76 *~;
#X msg 123 30 \$1 20;
#X obj 108 536 +~;
#X obj 63 536 +~;
#X obj 306 442 *~;
#X obj 261 442 *~;
#X obj 261 595 dac~ 1 2;
#X obj 321 414 line~;
#X msg 321 393 \$1 20;
#X obj 321 352 + 100;
#X obj 321 372 dbtorms;
#X msg 138 456 \$1 20;
#X obj 138 477 line~;
#X obj 123 512 *~;
#X obj 78 512 *~;
#X obj 138 435 / 100;
#X text 64 708 THIS DELAY UNIT IS MEANT TO BE USED AS A STEREO PROCESSOR
UNIT \, RECEIVING 2 AUXILIARY SENDS (post-fader) AND THEN RETURNING
ITS OUTPUT TO THE MIXER FOR LATER MIX WITH THE ORIGINAL SIGNAL. IN
OTHER WORDS: the output of this unit is only the WET (delayed) signal!
;
#X text 65 661 NOTE: a decay of 30 to 40 seconds is pursued with a
feedback percentage of between 40 to 50 percent. the value per default
is 45%.;
#X text 64 776 ángel faraldo \, march 2010;
#X obj 316 595 s outRight;
#X obj 198 595 s outLeft;
#X obj 123 10 r input;
#X obj 306 463 hip~ 5;
#X obj 261 463 hip~ 5;
#X obj 10 375 s inLeft;
#X obj 115 375 s inRight;
#X obj 316 552 env~ 4096;
#X obj 115 353 - 95.3;
#X obj 10 354 - 95.3;
#X obj 316 574 - 95.3;
#X obj 198 574 - 95.3;
#X obj 63 10 adc~ 1 2;
#X obj 266 246 r delayTime;
#X obj 386 522 loadbang;
#X obj 138 412 r feedbackPercentage;
#X obj 321 329 r outLevel;
#X obj 108 207 *~;
#X obj 123 181 line~;
#X obj 63 207 *~;
#X msg 123 160 \$1 20;
#X obj 123 100 r inLevel;
#X obj 123 120 + 100;
#X obj 123 140 dbtorms;
#X obj 10 332 env~ 4096;
#X obj 115 331 env~ 4096;
#X obj 198 552 env~ 4096;
#X msg 386 543 \; LimThreshold 0 \; LimLevel 0 \; inInit -6 \; delayInit
4000 \; feedbackInit 45 \; outInit -12 \; pd dsp 1;
#X obj 63 277 a.monoLimiter;
#X obj 108 253 a.monoLimiter;
#X obj 306 484 a.monoLimiter;
#X obj 261 511 a.monoLimiter;
#X connect 0 0 55 0;
#X connect 1 0 56 0;
#X connect 4 0 13 1;
#X connect 4 0 22 0;
#X connect 5 0 21 0;
#X connect 5 0 12 0;
#X connect 6 0 44 0;
#X connect 7 0 6 1;
#X connect 7 0 8 1;
#X connect 8 0 46 0;
#X connect 9 0 7 0;
#X connect 10 0 2 0;
#X connect 11 0 3 0;
#X connect 12 0 30 0;
#X connect 13 0 31 0;
#X connect 15 0 12 1;
#X connect 15 0 13 0;
#X connect 16 0 15 0;
#X connect 17 0 18 0;
#X connect 18 0 16 0;
#X connect 19 0 20 0;
#X connect 20 0 21 1;
#X connect 20 0 22 1;
#X connect 21 0 10 1;
#X connect 22 0 11 1;
#X connect 23 0 19 0;
#X connect 29 0 9 0;
#X connect 30 0 57 0;
#X connect 31 0 58 0;
#X connect 34 0 37 0;
#X connect 35 0 33 0;
#X connect 36 0 32 0;
#X connect 37 0 27 0;
#X connect 38 0 28 0;
#X connect 39 0 8 0;
#X connect 39 1 6 0;
#X connect 40 0 4 0;
#X connect 40 0 5 0;
#X connect 41 0 54 0;
#X connect 42 0 23 0;
#X connect 43 0 17 0;
#X connect 44 0 1 0;
#X connect 45 0 44 1;
#X connect 45 0 46 1;
#X connect 46 0 0 0;
#X connect 47 0 45 0;
#X connect 48 0 49 0;
#X connect 49 0 50 0;
#X connect 50 0 47 0;
#X connect 51 0 36 0;
#X connect 52 0 35 0;
#X connect 53 0 38 0;
#X connect 55 0 51 0;
#X connect 55 0 11 0;
#X connect 56 0 52 0;
#X connect 56 0 10 0;
#X connect 57 0 34 0;
#X connect 57 0 14 1;
#X connect 58 0 53 0;
#X connect 58 0 14 0;
#X restore 124 102 pd guts&notes;
