#N canvas 42 481 765 253 12;
#N canvas 9 66 1339 765 sendTrig2Python 1;
#X obj 120 490 netsend -u -b;
#X floatatom 120 520 5 0 0 0 - - -;
#X obj 120 277 list prepend send;
#X obj 120 304 list trim;
#X text 274 337 converts list to message;
#X obj 203 338 oscparse;
#X obj 203 384 print reassembled;
#N canvas 421 389 541 310 midi_clock 0;
#X text 9 -1 1:start \, 0:stop;
#X obj 126 40 inlet;
#X obj 9 26 inlet;
#X obj 290 246 outlet;
#X obj 48 244 outlet;
#X text 94 244 clock bang;
#X obj 47 160 /;
#X obj 47 100 loadbang;
#X obj 93 134 t b f;
#X obj 48 201 metro;
#X floatatom 290 202 5 0 0 0 - - -;
#X msg 47 121 60000;
#X text 126 13 BPM*PPQ;
#X text 339 241 sec per quarter;
#X connect 1 0 8 0;
#X connect 2 0 9 0;
#X connect 6 0 9 1;
#X connect 6 0 10 0;
#X connect 7 0 11 0;
#X connect 8 0 6 0;
#X connect 8 1 6 1;
#X connect 9 0 4 0;
#X connect 10 0 3 0;
#X connect 11 0 6 0;
#X restore 507 344 pd midi_clock;
#X obj 507 292 tgl 15 0 empty empty empty 17 7 0 10 -262144 -1 -1 0
1;
#X floatatom 605 260 5 0 0 0 - - -;
#X obj 508 375 bng 15 250 50 0 empty empty empty 17 7 0 10 -262144
-1 -1;
#X floatatom 829 229 5 0 0 0 - - -;
#X obj 662 303 *;
#X msg 178 116 0;
#X obj 179 90 loadbang;
#X obj 215 145 bng 15 250 50 0 empty empty empty 17 7 0 10 -262144
-1 -1;
#X obj 176 168 i;
#X obj 217 170 + 1;
#X floatatom 175 206 5 0 0 0 - - -;
#X obj 754 265 t b b f;
#X text 596 402 resolution per beat (2ms), f 12;
#X floatatom 598 379 5 0 0 0 - - -;
#X text 506 424 trigger per quarted, f 9;
#X obj 508 402 s trigger;
#X obj 228 120 r trigger;
#X text 879 230 PPQ (Pulses Per Quarter);
#X obj 828 183 inlet;
#X obj 606 232 inlet;
#X text 577 239 BPM;
#X obj 507 252 inlet;
#X text 514 231 Run, f 7;
#X obj 158 41 inlet;
#X text 141 22 reset bang;
#X obj 158 62 bng 15 250 50 0 empty empty empty 17 7 0 10 -262144 -1
-1;
#X obj 235 491 outlet;
#X text 290 492 current Tick Position;
#X obj 38 61 inlet;
#X obj 120 241 oscformat /clock/tick;
#X connect 0 0 1 0;
#X connect 2 0 3 0;
#X connect 3 0 0 0;
#X connect 7 0 10 0;
#X connect 7 1 21 0;
#X connect 8 0 7 0;
#X connect 9 0 12 0;
#X connect 10 0 23 0;
#X connect 11 0 19 0;
#X connect 12 0 7 1;
#X connect 13 0 16 0;
#X connect 14 0 13 0;
#X connect 15 0 16 0;
#X connect 16 0 17 0;
#X connect 16 0 18 0;
#X connect 17 0 16 1;
#X connect 18 0 34 0;
#X connect 18 0 37 0;
#X connect 19 0 9 0;
#X connect 19 1 12 0;
#X connect 19 2 12 1;
#X connect 24 0 15 0;
#X connect 26 0 11 0;
#X connect 27 0 9 0;
#X connect 29 0 8 0;
#X connect 31 0 33 0;
#X connect 33 0 13 0;
#X connect 36 0 0 0;
#X connect 37 0 2 0;
#X connect 37 0 5 0;
#X restore 33 154 pd sendTrig2Python;
#X f 76;
#X obj 297 129 tgl 15 0 empty empty empty 17 7 0 10 -262144 -1 -1 0
1;
#X msg 165 127 0;
#X floatatom 33 192 5 0 0 0 - - -;
#X text 74 191 tick_count;
#X text 292 100 Run;
#X text 463 106 BPM;
#X obj 429 80 loadbang;
#X msg 429 103 120;
#X text 603 102 PPQ (Pulses Per Quarter), f 14;
#X floatatom 562 127 5 0 0 0 - - -;
#X floatatom 429 127 5 0 0 0 - - -;
#X obj 562 79 loadbang;
#X msg 33 73 disconnect;
#X text 159 100 Reset;
#X msg 561 103 480;
#X msg 33 44 connect 127.0.0.1 1415;
#X text 33 20 comment;
#X text 93 21 ip;
#X text 159 21 Port;
#X connect 0 0 3 0;
#X connect 1 0 0 2;
#X connect 2 0 0 1;
#X connect 7 0 8 0;
#X connect 8 0 11 0;
#X connect 10 0 0 4;
#X connect 11 0 0 3;
#X connect 12 0 15 0;
#X connect 13 0 0 0;
#X connect 15 0 10 0;
#X connect 16 0 0 0;
