#N canvas 406 57 246 191 16;
#X msg 25 38 bang;
#X obj 11 71 i;
#X obj 58 72 + 1;
#X floatatom 11 109 5 0 0 0 - - -, f 5;
#X msg 11 10 0;
#X text 93 9 reset;
#X text 93 38 increment;
#X obj 11 136 % 8;
#X floatatom 11 164 5 0 0 0 - - -, f 5;
#X text 53 134 modulo operator;
#X connect 0 0 1 0;
#X connect 1 0 2 0;
#X connect 1 0 3 0;
#X connect 2 0 1 1;
#X connect 3 0 7 0;
#X connect 4 0 1 0;
#X connect 7 0 8 0;
