#N canvas 373 84 463 260 16;
#X obj 13 127 i;
#X obj 59 128 + 1;
#X floatatom 13 165 5 0 0 0 - - -, f 5;
#X msg 40 55 0;
#X obj 13 192 % 8;
#X floatatom 13 220 5 0 0 0 - - -, f 5;
#X text 54 190 modulo operator;
#X msg 67 11 stop;
#X msg 13 11 bang;
#X obj 13 86 metro 500;
#X text 121 86 500ms = 120 BPM;
#X text 78 54 resets counter everytime we start;
#X text 121 10 START/STOP metronome;
#X connect 0 0 1 0;
#X connect 0 0 2 0;
#X connect 1 0 0 1;
#X connect 2 0 4 0;
#X connect 3 0 0 1;
#X connect 4 0 5 0;
#X connect 7 0 9 0;
#X connect 8 0 3 0;
#X connect 8 0 9 0;
#X connect 9 0 0 0;
