#N canvas 543 85 405 490 16;
#X floatatom 12 45 5 0 0 0 - - -;
#X obj 141 129 print A;
#X obj 147 228 * 3;
#X obj 199 294 print B;
#X obj 71 292 +;
#X obj 71 333 t f f;
#X obj 11 369 +;
#X msg 12 11 bang;
#X obj 12 73 t f f f b;
#X obj 140 99 print NEW;
#X obj 132 258 t f f f;
#X obj 72 165 t f f f;
#X obj 142 331 print C;
#X obj 71 370 print D;
#X obj 11 403 print E;
#X obj 71 211 +;
#X obj 72 135 + 1;
#X obj 147 200 + 2;
#X obj 132 293 - 4;
#X connect 0 0 8 0;
#X connect 2 0 10 0;
#X connect 4 0 5 0;
#X connect 5 0 13 0;
#X connect 5 1 6 1;
#X connect 6 0 14 0;
#X connect 7 0 0 0;
#X connect 8 0 6 0;
#X connect 8 1 16 0;
#X connect 8 2 1 0;
#X connect 8 3 9 0;
#X connect 10 0 18 0;
#X connect 10 1 15 1;
#X connect 10 2 3 0;
#X connect 11 0 15 0;
#X connect 11 1 17 0;
#X connect 11 2 4 1;
#X connect 15 0 4 0;
#X connect 16 0 11 0;
#X connect 17 0 2 0;
#X connect 18 0 12 0;
