#N canvas 501 89 157 196 16;
#X obj 20 47 metro 100;
#X obj 20 132 % 10;
#X obj 20 76 i;
#X obj 67 77 + 1;
#X floatatom 20 104 5 0 0 0 - - -;
#X floatatom 20 160 5 0 0 0 - - -;
#X msg 73 11 stop;
#X msg 20 11 bang;
#X connect 0 0 2 0;
#X connect 1 0 5 0;
#X connect 2 0 3 0;
#X connect 2 0 4 0;
#X connect 3 0 2 1;
#X connect 4 0 1 0;
#X connect 6 0 0 0;
#X connect 7 0 0 0;
