#N canvas 147 29 700 553 16;
#X obj 13 127 i;
#X obj 59 128 + 1;
#X floatatom 13 160 5 0 0 0 - - -;
#X msg 337 10 0;
#X msg 67 11 stop;
#X msg 13 11 bang;
#X text 121 10 START/STOP metronome;
#X obj 13 248 sel 0;
#X floatatom 13 220 5 0 0 0 - - -;
#X obj 14 282 i;
#X obj 58 282 + 1;
#X floatatom 13 368 5 0 0 0 - - -;
#X obj 14 339 % 60;
#X floatatom 14 310 5 0 0 0 - - -;
#X obj 13 398 sel 0;
#X obj 14 432 i;
#X obj 58 432 + 1;
#X floatatom 14 460 5 0 0 0 - - -;
#X floatatom 14 496 5 0 0 0 - - -;
#X floatatom 72 496 5 0 0 0 - - -;
#X floatatom 131 496 5 0 0 0 - - -;
#X obj 14 192 % 10;
#X obj 13 86 metro 100;
#X text 375 9 resets all counters;
#X text 76 246 if 0 a new second has ellapsed;
#X text 74 396 if 0 a new minute has ellapsed;
#X text 14 521 min;
#X text 69 521 sec;
#X text 128 521 1/10 sec;
#X text 344 37 we don’t need trigger;
#X text 344 52 because the order is not crucial \,;
#X text 344 66 but you can use it if you want;
#X text 109 92 counting 100ms units (1/10s of second);
#X text 68 191 counts until 10 and restarts;
#X text 66 338 counts until 60 and restarts;
#X connect 0 0 1 0;
#X connect 0 0 2 0;
#X connect 1 0 0 1;
#X connect 2 0 21 0;
#X connect 3 0 0 1;
#X connect 3 0 9 1;
#X connect 3 0 15 1;
#X connect 3 0 20 0;
#X connect 3 0 19 0;
#X connect 3 0 18 0;
#X connect 4 0 22 0;
#X connect 5 0 22 0;
#X connect 7 0 9 0;
#X connect 7 0 10 0;
#X connect 8 0 7 0;
#X connect 8 0 20 0;
#X connect 9 0 10 0;
#X connect 9 0 13 0;
#X connect 10 0 9 1;
#X connect 11 0 14 0;
#X connect 11 0 19 0;
#X connect 12 0 11 0;
#X connect 13 0 12 0;
#X connect 14 0 15 0;
#X connect 14 0 16 0;
#X connect 15 0 16 0;
#X connect 15 0 17 0;
#X connect 16 0 15 1;
#X connect 17 0 18 0;
#X connect 21 0 8 0;
#X connect 22 0 0 0;
