#N canvas 0 22 480 431 10;
#X obj 31 129 t b f;
#X obj 31 169 pow 1;
#X msg 31 149 2;
#X obj 31 190 / 2;
#X obj 18 210 *~;
#X obj 17 262 /~;
#X obj 38 85 loadbang;
#X obj 31 32 inlet;
#X obj 18 283 outlet~;
#X obj 17 11 inlet~;
#X obj 17 232 iemlib/round~;
#X text 5 -8 Degrades the bit resolution of a signal.;
#X text 164 40 inlet1: signal \; inlet2: new bit resolution.;
#X text 14 304 angelFaraldo06;
#X obj 38 106 f \$1;
#X connect 0 0 2 0;
#X connect 0 1 1 1;
#X connect 1 0 3 0;
#X connect 2 0 1 0;
#X connect 3 0 4 1;
#X connect 3 0 5 1;
#X connect 4 0 10 0;
#X connect 5 0 8 0;
#X connect 6 0 14 0;
#X connect 7 0 0 0;
#X connect 9 0 4 0;
#X connect 10 0 5 0;
#X connect 14 0 0 0;
