#N canvas 220 22 990 712 10;
#X floatatom 18 165 0 0 0 0 - - -;
#X obj 18 102 cputime;
#X obj 18 13 loadbang;
#X obj 18 79 t b b;
#X text 45 165 CPU load in percent;
#X obj 28 34 tgl 15 0 empty empty empty 17 7 0 10 -262144 -1 -1 0 1
;
#X obj 18 144 * 0.1;
#X obj 18 124 int;
#X msg 639 134 \; pd dsp 1;
#X obj 473 248 monoLimiter;
#X msg 640 82 \; LimThreshold -20 \; LimLevel -20;
#X obj 399 248 monoLimiter;
#X obj 653 50 loadbang;
#X obj 407 132 hip~ 20;
#X obj 359 132 hip~ 20;
#X obj 362 103 adc~ 1 2;
#X obj 359 156 s~ i1;
#X obj 407 157 s~ i2;
#X obj 399 223 catch~ o1;
#X obj 473 223 catch~ o2;
#X obj 428 301 dac~ 1 2;
#N canvas 11 22 139 60 units 1;
#X obj 25 25 unit 0;
#X obj 25 50 unit 1;
#X obj 25 75 unit 2;
#X obj 25 100 unit 3;
#X obj 25 125 unit 4;
#X obj 25 150 unit 5;
#X obj 25 175 unit 6;
#X obj 25 200 unit 7;
#X obj 25 225 unit 8;
#X obj 25 250 unit 9;
#X obj 25 275 unit 10;
#X obj 25 300 unit 11;
#X obj 25 325 unit 12;
#X obj 25 350 unit 13;
#X obj 25 375 unit 14;
#X obj 25 400 unit 15;
#X obj 25 425 unit 16;
#X obj 25 450 unit 17;
#X obj 25 475 unit 18;
#X obj 25 500 unit 19;
#X obj 25 525 unit 20;
#X obj 25 550 unit 21;
#X obj 25 575 unit 22;
#X obj 25 600 unit 23;
#X obj 25 625 unit 24;
#X obj 25 650 unit 25;
#X obj 25 675 unit 26;
#X obj 25 700 unit 27;
#X obj 25 725 unit 28;
#X obj 25 750 unit 29;
#X obj 25 775 unit 30;
#X obj 25 800 unit 31;
#X obj 25 825 unit 32;
#X obj 25 850 unit 33;
#X obj 25 875 unit 34;
#X obj 25 900 unit 35;
#X obj 25 925 unit 36;
#X obj 25 950 unit 37;
#X obj 25 975 unit 38;
#X obj 25 1000 unit 39;
#X restore 694 551 pd units;
#X obj 554 386 f 0;
#X obj 580 385 + 1;
#X msg 693 492 clear;
#X obj 256 171 t f b b;
#X obj 644 432 * 25;
#X obj 644 452 + 25;
#X obj 587 472 pack f s f;
#X obj 217 115 inlet;
#X msg 587 493 obj 25 \$3 \$2 \$1;
#X obj 256 149 f \$2;
#X obj 256 115 loadbang;
#X text 213 224 ARGUMENTS:;
#X text 213 269 2) number of instances;
#X text 213 249 1) name of the object;
#X obj 693 529 s pd-units;
#X msg 588 331 symbol unit;
#X obj 588 354 t b s;
#X obj 693 467 loadbang;
#X msg 738 492 find unit 0 \, cut;
#X obj 361 453 sel 0;
#X obj 554 407 t f f f;
#X obj 588 215 loadbang;
#X obj 271 483 random 1270;
#X obj 271 508 / 10;
#X obj 271 457 bng 15 250 50 0 empty empty empty 17 7 0 10 -262144
-1 -1;
#X obj 271 633 mtof;
#X floatatom 173 667 12 0 0 0 - - -;
#X text 137 567 in tenths of semitone;
#X obj 18 57 metro 1000;
#X obj 361 431 pipe 100;
#X obj 158 361 r ff-2;
#X floatatom 169 406 5 0 0 0 - - -;
#X floatatom 127 410 5 0 0 0 - - -;
#X obj 515 585 makefilename ff-%d;
#X msg 515 606 set \$1;
#X obj 100 362 r ff-1;
#X obj 371 590 +;
#X obj 387 554 * 0.1;
#X obj 388 476 t b;
#X floatatom 369 624 5 0 0 0 - - -;
#X obj 401 590 f;
#X floatatom 232 528 5 0 0 0 - - -;
#X floatatom 435 569 5 0 0 0 - - -;
#X obj 388 510 random 10;
#X obj 388 532 - 5;
#X obj 700 243 tgl 15 0 empty empty empty 17 7 0 10 -262144 -1 -1 0
1;
#X obj 18 192 s cpu;
#X obj 764 243 r cpu;
#X obj 719 320 pack 0 0;
#X msg 700 292 0;
#X obj 719 341 swap;
#X obj 719 368 pack;
#X obj 724 427 bng 15 250 50 0 empty empty empty 17 7 0 10 -262144
-1 -1;
#X obj 748 425 bng 15 250 50 0 empty empty empty 17 7 0 10 -262144
-1 -1;
#X obj 719 392 sel 1 0;
#X text 366 38 different volumes \, fades insouts \, different traces
and starting points;
#X obj 764 295 < 95;
#X obj 700 265 metro 100;
#X obj 271 665 send13 ff-0;
#X connect 0 0 68 0;
#X connect 1 0 7 0;
#X connect 2 0 50 0;
#X connect 3 0 1 0;
#X connect 3 1 1 1;
#X connect 5 0 50 0;
#X connect 6 0 0 0;
#X connect 7 0 6 0;
#X connect 9 0 20 1;
#X connect 11 0 20 0;
#X connect 12 0 10 0;
#X connect 12 0 8 0;
#X connect 13 0 17 0;
#X connect 14 0 16 0;
#X connect 15 0 14 0;
#X connect 15 1 13 0;
#X connect 18 0 11 0;
#X connect 19 0 9 0;
#X connect 22 0 23 0;
#X connect 22 0 42 0;
#X connect 23 0 22 1;
#X connect 24 0 36 0;
#X connect 26 0 27 0;
#X connect 27 0 28 2;
#X connect 28 0 30 0;
#X connect 29 0 31 0;
#X connect 30 0 36 0;
#X connect 31 0 25 0;
#X connect 32 0 31 0;
#X connect 37 0 38 0;
#X connect 38 0 22 0;
#X connect 38 1 28 1;
#X connect 39 0 24 0;
#X connect 40 0 36 0;
#X connect 41 0 44 0;
#X connect 41 1 60 0;
#X connect 42 0 51 0;
#X connect 42 1 28 0;
#X connect 42 2 26 0;
#X connect 42 2 55 0;
#X connect 43 0 37 0;
#X connect 44 0 45 0;
#X connect 45 0 47 0;
#X connect 45 0 58 1;
#X connect 45 0 63 0;
#X connect 46 0 44 0;
#X connect 47 0 48 0;
#X connect 47 0 80 0;
#X connect 50 0 3 0;
#X connect 51 0 41 0;
#X connect 52 0 53 0;
#X connect 55 0 56 0;
#X connect 56 0 80 0;
#X connect 57 0 54 0;
#X connect 58 0 62 0;
#X connect 58 0 61 0;
#X connect 58 0 47 0;
#X connect 59 0 58 0;
#X connect 59 0 64 0;
#X connect 60 0 65 0;
#X connect 62 0 58 1;
#X connect 65 0 66 0;
#X connect 66 0 59 0;
#X connect 67 0 79 0;
#X connect 69 0 78 0;
#X connect 70 0 72 0;
#X connect 71 0 70 0;
#X connect 72 0 73 0;
#X connect 72 1 73 1;
#X connect 73 0 76 0;
#X connect 76 0 74 0;
#X connect 76 0 37 0;
#X connect 76 1 75 0;
#X connect 76 1 40 0;
#X connect 78 0 70 1;
#X connect 79 0 71 0;
