#N canvas 1072 684 689 519 10;
#X obj 115 214 mtof;
#X obj 115 483 throw~ sum;
#X obj 115 233 osc~, f 5;
#X obj 88 16 loadbang;
#X obj 115 463 *~, f 22;
#X obj 248 395 line~;
#X msg 248 374 0 \, \$1 \$2;
#X obj 293 332 pack, f 7;
#X obj 243 419 *~;
#X obj 248 271 delay;
#X obj 248 353 list, f 8;
#X obj 248 250 random 5000;
#X obj 243 440 *~, f 29;
#X msg 382 335 1;
#X obj 415 377 line~;
#X obj 415 312 r \$1-off;
#X msg 415 354 0 500;
#X obj 293 290 * 0.1;
#X obj 293 270 random 10;
#X obj 293 311 + 0.1;
#X obj 337 311 random 3000;
#X obj 115 193 + 28;
#X obj 115 172 random 100;
#X obj 125 129 print \$0-dynamic-osc(\$1);
#X msg 88 59 0;
#X obj 88 38 t b a;
#X obj 115 88 spigot 1;
#X obj 130 297 osc~, f 5;
#X obj 130 337 +~ 0.5;
#X obj 130 317 *~ 0.5;
#X obj 115 438 *~;
#X obj 115 149 t b b b b b b b, f 45;
#X obj 204 248 * 0.1;
#X obj 204 228 random 10;
#X obj 130 256 random 100;
#X obj 130 276 * 0.01;
#X obj 130 361 *~, f 10;
#X obj 130 383 +~, f 12;
#X obj 204 353 -;
#X msg 204 333 1 \$1;
#X msg 125 108 created;
#X obj 460 375 print \$0-dynamic-osc(\$1);
#X msg 460 354 deleted;
#X connect 0 0 2 0;
#X connect 2 0 30 0;
#X connect 3 0 25 0;
#X connect 4 0 1 0;
#X connect 5 0 8 1;
#X connect 5 0 8 0;
#X connect 6 0 5 0;
#X connect 7 0 10 1;
#X connect 8 0 12 0;
#X connect 9 0 10 0;
#X connect 10 0 6 0;
#X connect 11 0 9 0;
#X connect 12 0 4 1;
#X connect 13 0 14 0;
#X connect 14 0 12 1;
#X connect 15 0 16 0;
#X connect 15 0 42 0;
#X connect 16 0 14 0;
#X connect 17 0 19 0;
#X connect 18 0 17 0;
#X connect 19 0 7 0;
#X connect 20 0 7 1;
#X connect 21 0 0 0;
#X connect 22 0 21 0;
#X connect 24 0 26 1;
#X connect 25 0 24 0;
#X connect 25 1 26 0;
#X connect 26 0 40 0;
#X connect 26 0 31 0;
#X connect 27 0 29 0;
#X connect 28 0 36 0;
#X connect 29 0 28 0;
#X connect 30 0 4 0;
#X connect 31 0 22 0;
#X connect 31 1 34 0;
#X connect 31 2 33 0;
#X connect 31 3 11 0;
#X connect 31 4 18 0;
#X connect 31 5 20 0;
#X connect 31 6 13 0;
#X connect 32 0 39 0;
#X connect 32 0 36 1;
#X connect 33 0 32 0;
#X connect 34 0 35 0;
#X connect 35 0 27 0;
#X connect 36 0 37 0;
#X connect 37 0 30 1;
#X connect 38 0 37 1;
#X connect 39 0 38 0;
#X connect 40 0 23 0;
#X connect 42 0 41 0;
