#N canvas 0 36 471 500 10;
#N canvas 599 23 160 555 instances 1;
#X obj 25 25 dynamic-osc 0;
#X obj 25 50 dynamic-osc 1;
#X restore 285 429 pd instances;
#X obj 273 409 s pd-instances;
#X obj 203 126 until;
#X obj 229 176 + 1;
#X msg 273 126 clear;
#X obj 222 103 t f b b, f 9;
#X obj 230 222 * 25;
#X obj 230 242 + 25;
#X obj 173 337 pack f s f;
#X obj 111 10 inlet;
#X msg 173 363 obj 25 \$3 \$2 \$1;
#X obj 201 314 symbol \$1;
#X obj 201 290 loadbang;
#X obj 222 81 f \$2;
#X obj 222 47 loadbang;
#X text 295 43 ARGUMENTS:;
#X text 295 88 2) number of instances;
#X text 295 68 1) name of the object;
#X text 8 429 (new objects are placed inside the subpatch);
#X obj 203 199 t f f f;
#X obj 105 340 sel \$2;
#X obj 105 319 + 1;
#X obj 111 35 t f f;
#X msg 241 126 0;
#X obj 203 177 f 0;
#X msg 105 362 loadbang \, menusave, f 9;
#X text 164 456 angel faraldo 2011 \, updated 2019;
#X connect 2 0 24 0;
#X connect 3 0 24 1;
#X connect 4 0 1 0;
#X connect 5 0 2 0;
#X connect 5 1 23 0;
#X connect 5 2 4 0;
#X connect 6 0 7 0;
#X connect 7 0 8 2;
#X connect 8 0 10 0;
#X connect 9 0 22 0;
#X connect 10 0 1 0;
#X connect 11 0 8 1;
#X connect 12 0 11 0;
#X connect 13 0 5 0;
#X connect 14 0 13 0;
#X connect 19 0 21 0;
#X connect 19 1 8 0;
#X connect 19 2 6 0;
#X connect 20 0 25 0;
#X connect 21 0 20 0;
#X connect 22 0 13 0;
#X connect 22 1 20 1;
#X connect 23 0 24 1;
#X connect 24 0 3 0;
#X connect 24 0 19 0;
#X connect 25 0 1 0;
