#N canvas 41 40 820 430 12;
#X obj 24 146 cyclone/coll sergi;
#C restore;
#X msg 25 76 clear;
#X msg 72 76 open;
#X msg 154 64 merge 20 200;
#X msg 252 64 merge 20 300;
#X msg 367 79 10;
#X msg 402 78 20;
#X text 444 76 inputing a key \, it output the whole list of values
associated with that key;
#X msg 403 99 30;
#X obj 140 259 list length;
#X floatatom 140 281 5 0 0 0 - - -;
#X obj 140 326 random;
#X obj 141 303 t b f;
#X floatatom 140 348 5 0 0 0 - - -;
#X floatatom 24 394 5 0 0 0 - - -;
#X obj 24 369 cyclone/zl nth \$1;
#X obj 24 242 t l l;
#X msg 154 90 merge 10 20;
#X msg 252 90 merge 10 22;
#X obj 50 189 print;
#X text 231 251 once we have a list \, we need to get a random element
from it \, so we calculate its length and generate a random value between
0 and length and we output this nth element;
#X text 152 8 merge adds a new entry to the coll if the first value
(the key) does not exist \, creating a new line with this key otherwise
\, it adds the value to the existing key;
#X connect 0 0 19 0;
#X connect 0 0 16 0;
#X connect 1 0 0 0;
#X connect 2 0 0 0;
#X connect 3 0 0 0;
#X connect 4 0 0 0;
#X connect 5 0 0 0;
#X connect 6 0 0 0;
#X connect 8 0 0 0;
#X connect 9 0 10 0;
#X connect 10 0 12 0;
#X connect 11 0 13 0;
#X connect 12 0 11 0;
#X connect 12 1 11 1;
#X connect 13 0 15 1;
#X connect 15 0 14 0;
#X connect 16 0 15 0;
#X connect 16 1 9 0;
#X connect 17 0 0 0;
#X connect 18 0 0 0;
