#N canvas 702 207 476 492 10;
#X obj 0 261 dac~;
#N canvas 0 0 450 300 (subpatch) 0;
#X array sawtooth 100 float 0;
#X coords 0 1 100 -1 200 100 1;
#X restore 206 160 graph;
#X obj 52 234 tabwrite~ sawtooth;
#X obj 52 144 tgl 15 0 empty empty empty 17 7 0 10 -262144 -1 -1 0
1;
#X obj 52 172 metro 100;
#X obj 3 125 *~ 2;
#X obj 4 164 -~ 1;
#X text 184 151 +1;
#X text 183 246 -1;
#X obj 6 -39 hsl 128 15 0 127 0 0 empty empty empty -2 -8 0 10 -262144
-1 -1 0 1;
#X obj 17 5 mtof~;
#X obj 2 84 phasor~;
#X connect 3 0 4 0;
#X connect 4 0 2 0;
#X connect 5 0 6 0;
#X connect 6 0 0 0;
#X connect 6 0 0 1;
#X connect 6 0 2 0;
#X connect 9 0 10 0;
#X connect 10 0 11 0;
#X connect 11 0 5 0;
