#N canvas 273 533 535 334 10;
#X obj 85 45 phasor~;
#X obj 68 -29 hsl 128 15 0 127 0 0 empty empty empty -2 -8 0 10 -262144
-1 -1 0 1;
#X obj 82 15 mtof~;
#X obj 185 137 tgl 15 0 empty empty empty 17 7 0 10 -262144 -1 -1 0
1;
#X obj 187 164 metro 100;
#X obj 187 227 tabwrite~ square2;
#N canvas 0 0 450 300 (subpatch) 0;
#X array square2 100 float 0;
#X coords 0 1 99 -1 200 140 1;
#X restore 315 104 graph;
#X obj 92 135 -~ 0.5;
#X obj 92 168 /~ 0.5;
#X obj 91 89 expr~ $v1 > $v2;
#X floatatom 210 42 5 50 99 0 - - -;
#X obj 200 69 / 100;
#X text 245 37 impulse in 99;
#X text 247 49 square in 50;
#X obj 92 235 dac~;
#X connect 0 0 9 0;
#X connect 1 0 2 0;
#X connect 2 0 0 0;
#X connect 3 0 4 0;
#X connect 4 0 5 0;
#X connect 7 0 8 0;
#X connect 8 0 5 0;
#X connect 8 0 14 0;
#X connect 8 0 14 1;
#X connect 9 0 7 0;
#X connect 10 0 11 0;
#X connect 11 0 9 1;
