#N canvas 497 0 883 790 10;
#N canvas 0 0 450 300 (subpatch) 0;
#X array envl 4000 float 2;
#X coords 0 1 4000 -1 200 140 1;
#X restore 262 56 graph;
#X msg 724 78 \; pd dsp 1;
#X msg 722 131 \; pd dsp 0;
#X obj 49 285 hsl 128 15 28 64 0 1 empty empty empty -2 -8 0 10 -262144
-1 -1 8100 1;
#X obj 46 341 mtof;
#X obj 46 385 phasor~;
#X obj 46 413 expr~ $v1 > 0.5;
#X obj 47 444 -~ 0.5;
#X obj 48 472 /~ 0.5;
#X obj 46 766 dac~;
#X obj 159 451 tgl 15 0 empty empty empty 17 7 0 10 -262144 -1 -1 0
1;
#X obj 46 539 *~;
#X obj 156 606 metro 100;
#X obj 157 574 tgl 15 0 empty empty empty 17 7 0 10 -262144 -1 -1 0
1;
#X obj 156 641 tabwrite~ envl;
#X floatatom 181 370 5 0 99 0 - - -;
#X obj 181 404 dbtorms;
#X floatatom 222 425 5 0 0 0 - - -;
#X obj 49 501 *~;
#X floatatom 46 315 5 0 0 0 - - -;
#X text 263 377 Control de Intensitat sonora;
#X text 264 501 Envolvent percutiu;
#X text 224 612 Escribim a l'array;
#X text 710 41 Activem o desactivem;
#X obj 491 314 noise~;
#X obj 490 356 *~;
#X obj 587 289 tgl 15 0 empty empty empty 17 7 0 10 -262144 -1 -1 0
1;
#X text 685 329 Envolvent percutiu;
#X obj 587 329 metro 750;
#X obj 489 456 dac~;
#X floatatom 95 358 5 0 0 0 - - -;
#X obj 587 368 ead~ 55 650;
#X text 584 416 Filtrant amb un LPF i un HPF podria aconseguir un so
de caixa;
#X obj 580 481 metro 100;
#X obj 581 449 tgl 15 0 empty empty empty 17 7 0 10 -262144 -1 -1 0
1;
#X obj 580 516 tabwrite~ envl;
#X text 692 470 Escribim a l'array;
#X obj 159 491 metro 750;
#X obj 159 522 ead~ 125 650;
#X text 37 249 NOTA DE BAIX;
#X text 478 247 PERCUSIÓ AMB SOROLL;
#X text 533 12 comment;
#X text 199 283 Si considerem un baix acústic de 4 cordes on podem
escollir entre 3 octaves (E0-E3);
#X obj 102 704 sig~;
#X floatatom 102 671 5 0 0 0 - - -;
#X floatatom 78 644 5 0 0 0 - - -;
#X obj 45 706 vcf~ 1;
#X obj 197 689 hsl 128 15 100 10000 1 1 empty empty empty -2 -8 0 10
-262144 -1 -1 2900 1;
#X floatatom 166 721 5 0 0 0 - - -;
#X text 379 691 BPF;
#X connect 3 0 19 0;
#X connect 4 0 5 0;
#X connect 4 0 30 0;
#X connect 5 0 6 0;
#X connect 6 0 7 0;
#X connect 7 0 8 0;
#X connect 8 0 18 0;
#X connect 10 0 37 0;
#X connect 11 0 14 0;
#X connect 11 0 46 0;
#X connect 12 0 14 0;
#X connect 13 0 12 0;
#X connect 15 0 16 0;
#X connect 16 0 17 0;
#X connect 16 0 18 1;
#X connect 18 0 11 0;
#X connect 19 0 4 0;
#X connect 24 0 25 0;
#X connect 25 0 29 0;
#X connect 25 0 29 1;
#X connect 25 0 35 0;
#X connect 26 0 28 0;
#X connect 28 0 31 0;
#X connect 31 0 25 1;
#X connect 33 0 35 0;
#X connect 34 0 33 0;
#X connect 37 0 38 0;
#X connect 38 0 11 1;
#X connect 43 0 46 1;
#X connect 44 0 43 0;
#X connect 45 0 46 2;
#X connect 46 0 9 0;
#X connect 46 0 9 1;
#X connect 47 0 43 0;
#X connect 47 0 48 0;
