#N canvas 126 23 714 687 10;
#X obj 31 214 noise~;
#X obj 32 344 *~;
#X msg 69 291 bang;
#X obj 161 285 *~;
#X obj 212 501 dac~;
#X msg 191 219 bang;
#X obj 285 279 *~;
#X msg 301 219 bang;
#X msg 475 304 bang;
#X obj 469 348 ead~ 10 100;
#X msg 421 -66 \; pd dsp 1;
#X obj 284 339 *~ 20;
#X obj 284 303 bp~ 100 20;
#X obj 300 247 ead~ 10 200;
#X obj 190 247 ead~ 10 200;
#X obj 105 -130 tgl 15 0 empty empty empty 17 7 0 10 -262144 -1 -1
0 1;
#X floatatom 177 -127 5 0 0 0 - - -, f 5;
#X obj 114 -56 int;
#X obj 171 -53 + 1;
#X floatatom 114 -31 5 0 0 0 - - -, f 5;
#X floatatom 114 30 5 0 0 0 - - -, f 5;
#X obj 111 -95 metro 150;
#X obj 450 375 *~;
#X obj 123 74 select 0 1 2 3 4 5 6 7 8 9 10 11 12 13 14 15;
#X obj 114 -4 % 16;
#X obj 69 316 ead~ 10 150;
#X obj 203 360 *~ 1.5;
#X text 113 283 Hihat;
#X text 209 280 Snare;
#X text 327 275 BD 1;
#X text 504 272 BD 2;
#X obj 402 314 *~;
#X msg 420 -27 \; pd dsp 0;
#X obj 33 380 bp~ 10000 40;
#X obj 349 341 bp~ 8000 20;
#X obj 297 455 *~ 4;
#X obj 315 422 clip~ -0.25 0.25;
#X obj 339 378 *~ 0.1;
#X obj 201 317 bp~ 2000 0.75;
#X obj 133 340 bp~ 250 3;
#X obj 185 406 +~;
#X obj 135 383 *~ 5;
#X obj 452 279 osc~ 60;
#X connect 0 0 1 0;
#X connect 0 0 3 0;
#X connect 0 0 6 0;
#X connect 0 0 31 0;
#X connect 1 0 33 0;
#X connect 2 0 25 0;
#X connect 3 0 38 0;
#X connect 3 0 39 0;
#X connect 5 0 14 0;
#X connect 6 0 12 0;
#X connect 7 0 13 0;
#X connect 8 0 9 0;
#X connect 9 0 22 1;
#X connect 9 0 31 1;
#X connect 11 0 4 0;
#X connect 11 0 4 1;
#X connect 12 0 11 0;
#X connect 13 0 6 1;
#X connect 14 0 3 1;
#X connect 15 0 21 0;
#X connect 16 0 21 1;
#X connect 17 0 18 0;
#X connect 17 0 19 0;
#X connect 18 0 17 1;
#X connect 19 0 24 0;
#X connect 20 0 23 0;
#X connect 21 0 17 0;
#X connect 22 0 36 0;
#X connect 23 0 2 0;
#X connect 23 0 8 0;
#X connect 23 2 8 0;
#X connect 23 2 2 0;
#X connect 23 4 5 0;
#X connect 23 4 2 0;
#X connect 23 6 2 0;
#X connect 23 7 2 0;
#X connect 23 8 2 0;
#X connect 23 8 8 0;
#X connect 23 10 2 0;
#X connect 23 12 2 0;
#X connect 23 12 5 0;
#X connect 23 14 2 0;
#X connect 24 0 20 0;
#X connect 25 0 1 1;
#X connect 26 0 40 1;
#X connect 31 0 34 0;
#X connect 33 0 4 0;
#X connect 33 0 4 1;
#X connect 34 0 37 0;
#X connect 35 0 4 1;
#X connect 35 0 4 0;
#X connect 36 0 35 0;
#X connect 37 0 36 0;
#X connect 38 0 26 0;
#X connect 39 0 41 0;
#X connect 40 0 4 0;
#X connect 40 0 4 1;
#X connect 41 0 40 0;
#X connect 42 0 22 0;
