#N canvas 91 86 1006 588 10;
#X obj 25 73 mtof~;
#X obj 25 23 hsl 128 15 0 127 0 0 empty empty empty -2 -8 0 10 -262144
-1 -1 0 1;
#N canvas 0 22 450 300 (subpatch) 0;
#X array table1 515 float 4 black black;
#X coords 0 1 514 -1 200 140 1;
#X restore 255 186 graph;
#X obj 26 282 dac~;
#X obj 162 214 tgl 15 0 empty empty empty 17 7 0 10 -262144 -1 -1 0
1;
#X obj 129 256 metro 100;
#X obj 129 290 tabwrite~ waveout;
#N canvas 0 22 450 300 (subpatch) 0;
#X array waveout 100 float 4 black black;
#X coords 0 1 99 -1 200 140 1;
#X restore 254 346 graph;
#X floatatom 25 43 5 0 0 0 - - -, f 5;
#N canvas 0 22 450 300 (subpatch) 0;
#X array table2 515 float 4 black black;
#X coords 0 1 514 -1 200 140 1;
#X restore 467 185 graph;
#X msg 64 176 set table1;
#X obj 25 212 tabosc4~ table1;
#X msg 53 154 set table2;
#X msg 184 9 \; table1 sinesum 515 1 0 0.33 0 0.2 0 0.143 0 0.12 0
0.09 0 0.08;
#X msg 184 60 \; table2 sinesum 515 1 0.5 0.33 0.25 0.2 0.167 0.143
0.825 0.12 0 0.09 0 0.08;
#X text 252 138 tables sizes should be 2^N+3 (eg. 515 allows for <=
15 harmonics;
#X connect 0 0 11 0;
#X connect 1 0 8 0;
#X connect 4 0 5 0;
#X connect 5 0 6 0;
#X connect 8 0 0 0;
#X connect 10 0 11 0;
#X connect 11 0 6 0;
#X connect 11 0 3 0;
#X connect 11 0 3 1;
#X connect 12 0 11 0;
