#N canvas 585 471 536 362 10;
#X obj 41 67 osc~;
#X obj 127 205 tgl 15 0 empty empty empty 17 7 0 10 -262144 -1 -1 0
1;
#X obj 129 231 metro 100;
#X obj 40 261 dac~;
#N canvas 0 0 450 300 (subpatch) 0;
#X array square 100 float 4;
#X coords 0 1 99 -1 200 140 1;
#X restore 231 111 graph;
#X obj 132 266 tabwrite~ square;
#X obj 41 141 clip~ -1 1;
#X obj 41 185 *~;
#X obj 124 127 dbtorms;
#X floatatom 167 77 5 0 0 0 - - -;
#X floatatom 106 163 5 0 0 0 - - -;
#X floatatom 84 74 5 0 0 0 - - -;
#X obj 40 108 *~;
#X obj 35 -9 hsl 128 15 0 127 0 0 empty empty empty -2 -8 0 10 -262144
-1 -1 0 1;
#X obj 43 22 mtof~;
#X connect 0 0 12 0;
#X connect 1 0 2 0;
#X connect 2 0 5 0;
#X connect 6 0 7 0;
#X connect 7 0 5 0;
#X connect 7 0 3 0;
#X connect 7 0 3 1;
#X connect 8 0 10 0;
#X connect 8 0 7 1;
#X connect 9 0 8 0;
#X connect 11 0 12 1;
#X connect 12 0 6 0;
#X connect 13 0 14 0;
#X connect 14 0 0 0;
