#N canvas 97 96 1183 402 16;
#X obj 41 41 adc~;
#X obj 41 85 s~ mic;
#X obj 146 38 osc~ 220;
#X obj 146 85 s~ sine;
#X obj 260 35 noise~;
#X obj 260 82 s~ white;
#X obj 119 360 dac~;
#X obj 43 299 r~ mic;
#X obj 198 300 r~ mic;
#X msg 46 211 set mic;
#X msg 59 238 set sine;
#X msg 79 264 set white;
#X msg 203 211 set mic;
#X msg 216 238 set sine;
#X msg 236 264 set white;
#X text 342 230 we can change who to listen;
#X text 3 111 each can be sent to multiple simult listeners;
#X msg 33 182 set mute;
#X msg 182 182 set mute;
#X text 274 298 several can receive the same (r~ can share same name/chan)
;
#X obj 797 244 dac~;
#X obj 732 204 catch~ L;
#X obj 841 203 catch~ R;
#X text 934 201 only 1 catch~ per name;
#X obj 391 160 throw~ L;
#X obj 494 161 throw~ R;
#X obj 595 162 throw~ R;
#X msg 457 30 set L;
#X msg 523 29 set R;
#X msg 507 64 set L;
#X msg 573 63 set R;
#X msg 589 96 set L;
#X msg 655 95 set R;
#X msg 587 29 set off;
#X msg 637 63 set off;
#X msg 720 95 set off;
#X obj 841 156 catch~ off;
#X obj 39 137 s~ mute;
#X msg 841 64 \; pd dsp \$1;
#X obj 840 34 tgl 15 0 empty empty empty 17 7 0 10 -262144 -1 -1 0
1;
#X connect 0 0 1 0;
#X connect 0 0 24 0;
#X connect 0 1 1 0;
#X connect 2 0 3 0;
#X connect 2 0 25 0;
#X connect 4 0 5 0;
#X connect 4 0 26 0;
#X connect 7 0 6 0;
#X connect 8 0 6 1;
#X connect 9 0 7 0;
#X connect 10 0 7 0;
#X connect 11 0 7 0;
#X connect 12 0 8 0;
#X connect 13 0 8 0;
#X connect 14 0 8 0;
#X connect 17 0 7 0;
#X connect 18 0 8 0;
#X connect 21 0 20 0;
#X connect 22 0 20 1;
#X connect 27 0 24 0;
#X connect 28 0 24 0;
#X connect 29 0 25 0;
#X connect 30 0 25 0;
#X connect 31 0 26 0;
#X connect 32 0 26 0;
#X connect 33 0 24 0;
#X connect 34 0 25 0;
#X connect 35 0 26 0;
#X connect 39 0 38 0;
