#N canvas 353 22 640 638 10;
#N canvas 0 22 450 300 (subpatch) 0;
#X array ritmo 3 float 3;
#A 0 0.685719 0.142858 -0.285716;
#X coords 0 2 3 -2 200 140 1;
#X restore -105 -369 graph;
#N canvas 0 22 450 300 (subpatch) 0;
#X array melody 5 float 3;
#A 0 106.584 98.9408 89.7694 82.8909 72.9554;
#X coords 0 127 5 20 200 140 1;
#X restore 105 -369 graph;
#N canvas 0 22 450 300 (subpatch) 0;
#X array dynamics 6 float 3;
#A 0 123.164 28.729 11.1791 17.8648 20.3719 24.5505;
#X coords 0 127 6 10 200 140 1;
#X restore 315 -369 graph;
#X obj 270 81 cnv 15 160 25 empty empty empty 20 12 0 14 -261234 -66577
0;
#X obj 256 -195 cnv 15 80 50 empty empty empty 20 12 0 14 -261234 -66577
0;
#X obj 98 213 cnv 15 320 25 empty empty empty 20 12 0 14 -162280 -66577
0;
#X text 172 217 angelfaraldo@gmail.com - 2008 (rev 2012);
#X obj 104 169 makenote;
#X obj 104 217 s FM.Synth;
#X obj 104 193 pack 0 0;
#X obj 104 -45 tabread melody;
#X obj 104 -111 f 0;
#X obj 132 -111 + 1;
#X obj 249 56 pow 2;
#X floatatom 276 87 5 0 0 1 basic.beat.duration - -;
#X msg 249 33 2 \$1;
#X obj 249 -20 tabread ritmo;
#X obj 249 -87 f 0;
#X obj 277 -87 + 1;
#X obj 276 -65 r r.steps;
#X obj 257 131 s clock;
#X obj 249 152 - 5;
#X obj 131 -89 r m.steps;
#X obj 249 -139 delay;
#X obj 249 -221 r clock;
#X obj 268 -113 s clock.bang;
#X obj 104 -134 r clock.bang;
#X obj 104 -24 int;
#X msg 260 -191 stop;
#X msg 265 -168 0;
#X obj 249 109 * 300;
#X obj 126 90 tabread dynamics;
#X obj 126 25 f 0;
#X obj 154 25 + 1;
#X obj 126 2 r clock.bang;
#X obj 126 111 int;
#X floatatom 256 1 5 0 0 0 - - -;
#X floatatom 165 113 5 0 0 0 - - -;
#X obj 153 47 r d.steps;
#X text 292 -169 play;
#X obj 126 69 mod 6;
#X obj 249 -42 mod 3;
#X obj 104 -67 mod 5;
#X obj -90 -185 cnv 15 100 40 empty empty empty 20 12 0 14 -261234
-66577 0;
#X floatatom -83 -165 5 0 0 2 rythmic.steps - -;
#X msg -83 -119 \; ritmo resize \$1;
#X obj -76 -140 s r.steps;
#X obj -93 -81 cnv 15 100 40 empty empty empty 20 12 0 14 -261234 -66577
0;
#X floatatom -83 -62 5 0 0 2 melodic.steps - -;
#X msg -83 -17 \; melody resize \$1;
#X obj -76 -37 s m.steps;
#X obj -94 29 cnv 15 100 40 empty empty empty 20 12 0 14 -261234 -66577
0;
#X floatatom -82 48 5 0 0 2 dynamic.steps - -;
#X msg -82 92 \; dynamics resize \$1;
#X obj -76 72 s d.steps;
#X connect 7 0 9 0;
#X connect 7 1 9 1;
#X connect 9 0 8 0;
#X connect 10 0 27 0;
#X connect 11 0 12 0;
#X connect 11 0 42 0;
#X connect 12 0 11 1;
#X connect 13 0 30 0;
#X connect 14 0 30 1;
#X connect 15 0 13 0;
#X connect 16 0 36 0;
#X connect 16 0 15 0;
#X connect 17 0 18 0;
#X connect 17 0 41 0;
#X connect 18 0 17 1;
#X connect 19 0 41 1;
#X connect 21 0 7 2;
#X connect 22 0 42 1;
#X connect 23 0 17 0;
#X connect 23 0 25 0;
#X connect 24 0 23 0;
#X connect 26 0 11 0;
#X connect 27 0 7 0;
#X connect 28 0 23 0;
#X connect 29 0 23 0;
#X connect 30 0 20 0;
#X connect 30 0 21 0;
#X connect 31 0 35 0;
#X connect 32 0 33 0;
#X connect 32 0 40 0;
#X connect 33 0 32 1;
#X connect 34 0 32 0;
#X connect 35 0 7 1;
#X connect 35 0 37 0;
#X connect 38 0 40 1;
#X connect 40 0 31 0;
#X connect 41 0 16 0;
#X connect 42 0 10 0;
#X connect 44 0 45 0;
#X connect 44 0 46 0;
#X connect 48 0 49 0;
#X connect 48 0 50 0;
#X connect 52 0 53 0;
#X connect 52 0 54 0;
