#N canvas 421 78 414 351 10;
#X obj 299 161 notein;
#X obj 289 236 pack 0 0 0;
#X obj 289 191 pack 0 0;
#X obj 289 257 s carrier;
#X obj 125 159 a.voiceFM 1;
#X obj 125 179 a.voiceFM 2;
#X obj 125 199 a.voiceFM 3;
#X obj 125 219 a.voiceFM 4;
#X obj 205 219 a.voiceFM 8;
#X obj 205 199 a.voiceFM 7;
#X obj 205 179 a.voiceFM 6;
#X obj 205 159 a.voiceFM 5;
#X obj 289 213 poly 8 1;
#X obj -36 3 cnv 15 400 150 empty empty empty 20 12 0 14 -204786 -66577
0;
#X obj -26 104 poly;
#X obj -26 78 stripnote;
#X obj -26 53 mtof;
#X obj 10 53 ftom;
#X obj -26 26 notein;
#X obj 24 26 ctlin;
#X text 66 26 comunicación entre nuestros Aparatos MIDI y pd;
#X text 44 52 conversiones entre números MIDI y frecuencias.;
#X text 47 78 filtra mensages con note-off (velocity = 0);
#X text 10 97 se encarga del numero de voces y la correcta distribucion
de los mensajes (on/off);
#X text -26 3 Creando un sintetizador polifónico con MIDI;
#X obj -33 158 cnv 15 150 100 empty empty empty 20 12 0 14 -261234
-66577 0;
#X floatatom 18 206 5 0 0 0 1: - ratio;
#X text 21 183 ratio C:M;
#X text -31 161 FM SYNTHESIS CONTROLS;
#X floatatom 18 229 6 0 0 0 index= - index;
#X floatatom 82 209 5 0 0 0 A - A;
#X floatatom 82 229 5 0 0 0 R - R;
#X obj -31 315 cnv 15 290 25 empty empty empty 20 12 0 14 -162280 -66577
0;
#X obj -20 271 catch~ sumOut;
#X obj -26 319 dac~;
#X obj -20 294 *~ 0.1;
#X text 12 318 angelfaraldo@gmail.com - 2008 (rev 2012);
#X connect 0 0 2 0;
#X connect 0 1 2 1;
#X connect 1 0 3 0;
#X connect 2 0 12 0;
#X connect 12 0 1 0;
#X connect 12 1 1 1;
#X connect 12 2 1 2;
#X connect 33 0 35 0;
#X connect 35 0 34 0;
#X connect 35 0 34 1;
