#N canvas 255 52 731 630 24;
#X obj 32 99 phasor~;
#X obj 32 187 *~ 2;
#X obj 32 237 -~ 1;
#X obj 32 142 expr~ $v1>$v2;
#X obj 210 58 osc~;
#X obj 211 98 abs~;
#X obj 32 47 inlet;
#X obj 32 288 outlet~;
#X obj 209 14 inlet;
#X text 27 11 frec oscila;
#X text 293 13 frec moduladora;
#X connect 0 0 3 0;
#X connect 1 0 2 0;
#X connect 2 0 7 0;
#X connect 3 0 1 0;
#X connect 4 0 5 0;
#X connect 5 0 3 1;
#X connect 6 0 0 0;
#X connect 8 0 4 0;
