#N canvas 570 318 450 300 24;
#X obj 84 145 03_PWM;
#X obj 84 94 mtof;
#X floatatom 84 48 5 0 0 0 - - -;
#X obj 172 54 hsl 128 15 0 1 0 0 empty empty empty -2 -8 0 10 -262144
-1 -1 508 1;
#X floatatom 169 93 5 0 0 0 - - -;
#X obj 83 198 dac~;
#X msg 83 5 40;
#X msg 168 7 0.04;
#X connect 0 0 5 0;
#X connect 0 0 5 1;
#X connect 1 0 0 0;
#X connect 2 0 1 0;
#X connect 3 0 4 0;
#X connect 4 0 0 1;
#X connect 6 0 2 0;
#X connect 7 0 3 0;
