#N canvas 122 269 1042 428 24;
#X obj 13 25 noise~;
#X obj 13 228 dac~;
#X floatatom 122 72 5 0 0 0 - - -;
#X obj 13 121 lop~ 100;
#X text 118 29 El segundo inlet del lop~ nos deja cambiar la frecuencia
;
#X text 146 115 lop~ es un filtro de paso bajo simple. Toma como parametro
la frequencia maxima que deja pasar.;
#X connect 0 0 3 0;
#X connect 2 0 3 1;
#X connect 3 0 1 0;
#X connect 3 0 1 1;
