#N canvas 122 269 814 490 24;
#X obj 21 32 noise~;
#X obj 21 219 dac~;
#X floatatom 144 67 8 0 0 0 - - -;
#X obj 21 117 hip~ 3000;
#X obj 148 36 hsl 128 15 0 20000 0 0 empty empty empty -2 -8 0 10 -262144
-1 -1 4500 1;
#X text 124 161 hip~ es un filtro de paso alto simple. Toma como parametro
la frequencia minima que deja pasar.;
#X connect 0 0 3 0;
#X connect 2 0 3 1;
#X connect 3 0 1 0;
#X connect 3 0 1 1;
#X connect 4 0 2 0;
