#N canvas 122 269 882 446 24;
#X obj 24 31 noise~;
#X obj 24 161 dac~;
#X floatatom 176 6 5 0 0 0 - - -;
#X obj 24 91 bp~ 3000 10;
#X floatatom 175 48 5 0 0 0 - - -;
#X text 254 48 Q: aprox. 0-100;
#X text 116 138 bp~ es un filtro de paso banda simple. Toma como parametro
la frequencia central de la banda que deja pasar y el ancho de la banda
\, llamado factor Q.;
#X connect 0 0 3 0;
#X connect 2 0 3 1;
#X connect 3 0 1 0;
#X connect 3 0 1 1;
#X connect 4 0 3 2;
