#N canvas 68 23 703 705 10;
#X obj 172 128 cputime;
#X obj 172 16 loadbang;
#X obj 172 108 t b b;
#X text 257 178 CPU load in percent;
#X obj 276 338 + 1;
#X obj 244 401 t f f, f 10;
#X obj 301 424 * 25;
#X obj 301 444 + 25;
#X obj 244 514 pack f s f;
#X obj 272 467 loadbang;
#X obj 244 296 bng 15 250 50 0 empty empty empty 17 7 0 10 -262144
-1 -1;
#X obj 436 327 catch~ sum;
#X obj 428 611 dac~;
#X obj 244 339 f 1, f 4;
#X msg 265 318 1;
#N canvas 350 23 450 555 instances 0;
#X restore 244 618 pd instances;
#X obj 244 598 s pd-instances;
#X msg 251 577 clear;
#X obj 251 557 r reset;
#X obj 265 296 r reset;
#X obj 33 36 bng 15 250 50 0 empty empty empty 17 7 0 10 -262144 -1
-1;
#X obj 39 56 s reset;
#X obj 33 575 s pd-instances;
#X obj 33 502 * 25;
#X obj 33 522 + 25;
#X floatatom 43 459 5 0 0 0 - - -;
#X obj 65 337 + 1;
#X obj 33 338 f 1, f 4;
#X msg 54 317 1;
#X obj 54 295 r reset;
#X floatatom 42 243 5 0 0 0 - - -;
#X obj 33 272 sel 0 1, f 71;
#X obj 43 479 s deleted;
#X floatatom 255 360 5 0 0 0 - - -;
#X obj 451 460 max 1;
#X obj 255 379 s created;
#X obj 463 392 t b f;
#X obj 463 372 r deleted;
#X obj 451 437 - 0, f 7;
#X obj 451 349 r created;
#X obj 451 539 line~;
#X msg 451 520 \$1 1000;
#X obj 436 560 /~;
#X floatatom 55 202 5 0 0 0 - - -;
#X msg 33 542 vis 1 \, editmode 1 \, mouse 5 5 0 0 \, mouseup \$1 \$1
0 0 \, cut, f 28;
#X obj 33 295 bng 15 250 50 0 empty empty empty 17 7 0 10 -262144 -1
-1;
#X obj 33 381 t f f;
#X msg 60 405 \; \$1-off bang;
#X obj 463 485 nbx 3 24 -1e+37 1e+37 0 0 empty empty empty 0 -8 0 24
-262144 -1 -1 1 256;
#X obj 172 89 metro 1000;
#X obj 33 179 f;
#X obj 172 148 * 0.1;
#X obj 33 122 metro 1000;
#X obj 33 101 tgl 15 0 empty empty empty 17 7 0 10 -262144 -1 -1 0
1;
#X floatatom 90 80 5 0 0 0 - - -;
#X obj 90 101 max 35;
#X obj 172 174 nbx 3 24 -1e+37 1e+37 0 0 empty empty empty 0 -8 0 24
-262144 -1 -1 4 256;
#X msg 33 78 0;
#X obj 33 360 min 1, f 34;
#X msg 504 415 0 0;
#X obj 504 393 r reset;
#X obj 436 580 *~ 0.5;
#X obj 33 222 < 30;
#X obj 33 438 pipe 550;
#X obj 272 491 symbol dynamic-osc;
#X msg 172 35 1 \; pd-instances clear \; reset bang \; pd dsp 1;
#X msg 244 537 obj 25 \$3 \$2 \$1 \, loadbang;
#X connect 0 0 51 0;
#X connect 1 0 65 0;
#X connect 2 0 0 0;
#X connect 2 1 0 1;
#X connect 4 0 13 1;
#X connect 5 0 8 0;
#X connect 5 1 6 0;
#X connect 6 0 7 0;
#X connect 7 0 8 2;
#X connect 8 0 66 0;
#X connect 9 0 64 0;
#X connect 10 0 13 0;
#X connect 11 0 42 0;
#X connect 13 0 4 0;
#X connect 13 0 5 0;
#X connect 13 0 33 0;
#X connect 13 0 58 1;
#X connect 14 0 13 1;
#X connect 17 0 16 0;
#X connect 18 0 17 0;
#X connect 19 0 14 0;
#X connect 20 0 21 0;
#X connect 20 0 57 0;
#X connect 23 0 24 0;
#X connect 24 0 44 0;
#X connect 25 0 32 0;
#X connect 26 0 27 1;
#X connect 27 0 58 0;
#X connect 28 0 27 1;
#X connect 29 0 28 0;
#X connect 31 0 45 0;
#X connect 31 1 10 0;
#X connect 33 0 35 0;
#X connect 34 0 41 0;
#X connect 34 0 48 0;
#X connect 36 0 38 0;
#X connect 36 1 38 1;
#X connect 37 0 36 0;
#X connect 38 0 34 0;
#X connect 39 0 38 0;
#X connect 40 0 42 1;
#X connect 41 0 40 0;
#X connect 42 0 61 0;
#X connect 43 0 62 1;
#X connect 44 0 22 0;
#X connect 45 0 27 0;
#X connect 46 0 63 0;
#X connect 46 1 47 0;
#X connect 49 0 2 0;
#X connect 50 0 62 0;
#X connect 51 0 56 0;
#X connect 51 0 50 1;
#X connect 52 0 50 0;
#X connect 53 0 52 0;
#X connect 54 0 55 0;
#X connect 55 0 52 1;
#X connect 57 0 53 0;
#X connect 58 0 26 0;
#X connect 58 0 46 0;
#X connect 59 0 38 0;
#X connect 60 0 59 0;
#X connect 61 0 12 0;
#X connect 61 0 12 1;
#X connect 62 0 30 0;
#X connect 62 0 31 0;
#X connect 63 0 25 0;
#X connect 63 0 23 0;
#X connect 64 0 8 1;
#X connect 65 0 49 0;
#X connect 66 0 16 0;
