#N canvas 931 465 524 231 10;
#X obj 4 8 cnv 15 210 148 empty empty empty 20 12 0 14 -233017 -66577
0;
#X text 8 12 args:;
#X text 6 53 2 partial number;
#X text 6 33 1 ID;
#X text 6 73 3 frequency variation range (Hz.);
#X text 6 93 4 relative amplitude;
#X text 6 113 5 amplitude variation range (dB.);
#X floatatom 222 11 5 0 0 0 - #0-fundamental_p #0-fundamental;
#X text 257 31 number of partials;
#X floatatom 222 30 5 0 0 0 - #0-numPartials_p #0-numPartials;
#X floatatom 222 49 5 0 0 0 - #0-maxPartials_p #0-maxPartials;
#X floatatom 222 68 5 0 0 0 - #0-mfd_p #0-mfd;
#X floatatom 222 87 5 0 0 2 - #0-pad_p #0-pad;
#X floatatom 222 106 5 0 0 0 - #0-arad_p #0-arad;
#X obj 222 126 bng 30 250 50 0 \$0-create empty empty 17 7 0 10 -262144
-1 -1;
#X text 257 130 create!;
#X text 257 50 highest partial;
#X text 257 107 average relative amplitude deviation (dB);
#X text 257 69 max frequency deviation (Hz);
#X text 257 88 partial/amplitude deviation range;
#N canvas 804 23 564 831 creation 0;
#X obj 12 129 until;
#X obj 35 152 f 0;
#X obj 61 151 + 1;
#X msg 50 129 0;
#X msg 42 626 clear;
#X obj 31 106 t f b b;
#X obj 35 175 * 25;
#X obj 35 195 + 25;
#X obj 35 648 s pd-overtones;
#N canvas 313 135 327 752 overtones 0;
#X obj 25 25 a.overtone 1004 18 1.13245 17.3579 1.24679;
#X obj 25 50 a.overtone 1004 49 0.0159631 46.5456 2.09056;
#X obj 25 75 a.overtone 1004 2 1.71817 5.28567 3.82882;
#X obj 25 100 a.overtone 1004 10 0.405626 6.74193 5.10476;
#X obj 25 125 a.overtone 1004 37 2.18623 40.2933 7.44527;
#X obj 25 150 a.overtone 1004 2 0.96723 2.52334 5.7247;
#X obj 25 175 a.overtone 1004 25 1.42732 18.7688 1.93083;
#X obj 25 200 a.overtone 1004 75 0.218588 71.2383 8.63215;
#X obj 25 225 a.overtone 1004 54 1.50857 56.5969 6.33929;
#X obj 25 250 a.overtone 1004 53 4.07092 50.3599 2.24969;
#X obj 25 275 a.overtone 1004 39 1.07421 38.9306 4.39384;
#X obj 25 300 a.overtone 1004 26 0.0123715 18.2221 1.67073;
#X obj 25 325 a.overtone 1004 84 1.23333 79.4055 1.01786;
#X obj 25 350 a.overtone 1004 18 2.19049 17.8606 3.94529;
#X obj 25 375 a.overtone 1004 11 3.33753 1.74351 3.01208;
#X obj 25 400 a.overtone 1004 12 1.98929 14.2491 5.27828;
#X obj 25 425 a.overtone 1004 38 1.67211 33.9684 5.03957;
#X obj 25 450 a.overtone 1004 39 0.0278325 44.2705 6.23337;
#X obj 25 475 a.overtone 1004 56 0.0124763 57.7467 1.98751;
#X obj 25 500 a.overtone 1004 11 0.0782266 16.8048 1.01872;
#X obj 25 525 a.overtone 1004 61 0.0679019 63.6093 0.927723;
#X obj 25 550 a.overtone 1004 18 0.502611 15.4043 4.06623;
#X obj 25 575 a.overtone 1004 69 2.46799 63.8486 1.7789;
#X obj 25 600 a.overtone 1004 8 0.122593 5.68304 0.406991;
#X obj 25 625 a.overtone 1004 39 3.82913 31.9449 2.21797;
#X obj 25 650 a.overtone 1004 17 2.75849 17.4809 5.67248;
#X obj 25 675 a.overtone 1004 39 3.13701 39.1265 6.55988;
#X obj 25 700 a.overtone 1004 46 1.16007 45.8394 4.3455;
#X obj 25 725 a.overtone 1004 39 1.15723 48.2029 2.94916;
#X obj 25 750 a.overtone 1004 7 3.41754 5.10426 6.39935;
#X obj 25 775 a.overtone 1004 47 4.5106 49.2103 5.25063;
#X obj 25 800 a.overtone 1004 49 0.644539 47.6427 0.304965;
#X obj 25 825 a.overtone 1004 41 0.768547 39.355 2.86992;
#X obj 25 850 a.overtone 1004 40 1.41272 41.563 5.12235;
#X obj 25 875 a.overtone 1004 28 3.49048 25.7996 7.2283;
#X obj 25 900 a.overtone 1004 90 1.89474 95.1231 1.58833;
#X obj 25 925 a.overtone 1004 7 0.0686276 4.99754 1.72191;
#X obj 25 950 a.overtone 1004 45 1.16337 42.3197 2.74024;
#X obj 25 975 a.overtone 1004 7 2.38005 9.14877 0.874;
#X obj 25 1000 a.overtone 1004 18 1.43693 18.9637 5.63438;
#X obj 25 1025 a.overtone 1004 11 4.05782 17.0285 1.61089;
#X obj 25 1050 a.overtone 1004 84 2.24565 89.5868 0.490931;
#X obj 25 1075 a.overtone 1004 45 1.2597 55.835 0.626162;
#X obj 25 1100 a.overtone 1004 2 1.60276 4.07508 2.66448;
#X obj 25 1125 a.overtone 1004 53 4.25682 57.2729 6.40437;
#X obj 25 1150 a.overtone 1004 27 0.590428 30.4979 9.70593;
#X obj 25 1175 a.overtone 1004 29 2.61663 32.1991 9.52528;
#X obj 25 1200 a.overtone 1004 81 3.2438 82.6873 0.324423;
#X obj 25 1225 a.overtone 1004 30 2.73882 26.3416 2.82867;
#X obj 25 1250 a.overtone 1004 28 1.25079 38.245 6.09372;
#X obj 25 1275 a.overtone 1004 19 0.361698 18.536 2.27625;
#X obj 25 1300 a.overtone 1004 34 2.3581 35.3659 0.8946;
#X obj 25 1325 a.overtone 1004 50 0.280203 58.3281 5.74407;
#X obj 25 1350 a.overtone 1004 6 0.216152 8.4295 3.15372;
#X obj 25 1375 a.overtone 1004 6 2.20472 4.99607 3.97866;
#X obj 25 1400 a.overtone 1004 45 0.305868 46.5283 6.38321;
#X obj 25 1425 a.overtone 1004 15 4.16341 14.2879 1.77163;
#X obj 25 1450 a.overtone 1004 89 1.92346 91.7188 8.22042;
#X obj 25 1475 a.overtone 1004 46 2.72136 42.7132 4.78482;
#X obj 25 1500 a.overtone 1004 79 0.891925 77.671 0.0627666;
#X restore 35 668 pd overtones;
#X obj 31 81 f;
#X obj 46 58 r \$0-numPartials;
#X obj 35 216 t f b;
#X obj 77 264 r \$0-maxPartials;
#X obj 62 287 *;
#X obj 62 310 int;
#X obj 62 332 + 1;
#X obj 80 129 s \$0-clear;
#X obj 42 604 r \$0-clear;
#X obj 31 16 r \$0-create;
#X obj 215 367 r \$0-pad;
#X obj 35 562 pack f \$0 0 f f f;
#X obj 62 353 t f b b f;
#X obj 79 489 *;
#X obj 94 459 r \$0-mfd;
#X obj 192 514 r \$0-arad;
#X obj 177 537 *;
#X obj 173 459 t f b;
#X obj 172 434 abs;
#X obj 80 106 loadbang;
#X obj 31 37 delay 50;
#X msg 35 584 obj 25 \$1 a.overtone \$2 \$3 \$4 \$5 \$6;
#X obj 172 409 maxlib/gauss;
#X obj 177 491 maxlib/linear;
#X obj 78 418 maxlib/linear;
#X obj 62 239 maxlib/linear;
#X connect 0 0 1 0;
#X connect 1 0 2 0;
#X connect 1 0 6 0;
#X connect 2 0 1 1;
#X connect 3 0 1 1;
#X connect 4 0 8 0;
#X connect 5 0 0 0;
#X connect 5 1 3 0;
#X connect 5 2 17 0;
#X connect 6 0 7 0;
#X connect 7 0 12 0;
#X connect 10 0 5 0;
#X connect 11 0 10 1;
#X connect 12 0 21 0;
#X connect 12 1 35 0;
#X connect 13 0 14 1;
#X connect 14 0 15 0;
#X connect 15 0 16 0;
#X connect 16 0 22 0;
#X connect 18 0 4 0;
#X connect 19 0 30 0;
#X connect 20 0 32 1;
#X connect 21 0 31 0;
#X connect 22 0 21 2;
#X connect 22 1 34 0;
#X connect 22 2 32 0;
#X connect 22 3 32 2;
#X connect 23 0 21 3;
#X connect 24 0 23 1;
#X connect 25 0 26 1;
#X connect 26 0 21 5;
#X connect 27 0 21 4;
#X connect 27 1 33 0;
#X connect 28 0 27 0;
#X connect 29 0 17 0;
#X connect 30 0 10 0;
#X connect 31 0 8 0;
#X connect 32 0 28 0;
#X connect 33 0 26 0;
#X connect 34 0 23 0;
#X connect 35 0 14 0;
#X restore 66 206 pd creation;
#N canvas 0 23 1101 439 patch 0;
#X obj 567 64 bng 15 250 50 0 empty empty empty 17 7 0 10 -262144 -1
-1;
#X obj 567 83 f \$0;
#X msg 567 104 \; \$1-fundamental_p 33 \; \$1-numPartials_p 60 \; \$1-maxPartials_p
100 \; \$1-mfd_p 5 \; \$1-pad_p 4 \; \$1-arad_p 12;
#X obj 196 56 catch~ \$0-overtoneL;
#X obj 246 79 catch~ \$0-overtoneR;
#X obj 24 187 s \$0-fund;
#X obj 24 256 s \$0-loadbang;
#X obj 212 233 dac~;
#X obj 24 210 r \$0-create;
#X obj 39 142 r \$0-fundamental;
#X obj 24 163 f;
#X obj 24 91 r \$0-create;
#X obj 378 83 dbtorms;
#X obj 378 169 line~;
#X obj 246 201 *~;
#X obj 196 200 *~;
#X obj 378 61 inlet;
#X obj 567 41 loadbang;
#X obj 24 20 r \$0-create;
#X msg 24 42 0;
#X obj 24 65 s \$0-vol;
#X obj 385 125 loadbang;
#X msg 385 147 0;
#X msg 378 103 \$1 10;
#X obj 196 101 *~ 0.1;
#X obj 246 101 *~ 0.1;
#X obj 24 115 delay 200;
#X obj 24 232 delay 500;
#X connect 0 0 1 0;
#X connect 1 0 2 0;
#X connect 3 0 24 0;
#X connect 4 0 25 0;
#X connect 8 0 27 0;
#X connect 9 0 10 1;
#X connect 10 0 5 0;
#X connect 11 0 26 0;
#X connect 12 0 23 0;
#X connect 13 0 14 1;
#X connect 13 0 15 1;
#X connect 14 0 7 1;
#X connect 15 0 7 0;
#X connect 16 0 12 0;
#X connect 17 0 0 0;
#X connect 18 0 19 0;
#X connect 19 0 20 0;
#X connect 21 0 22 0;
#X connect 22 0 13 0;
#X connect 23 0 13 0;
#X connect 24 0 15 0;
#X connect 25 0 14 0;
#X connect 26 0 10 0;
#X connect 27 0 6 0;
#X restore 4 206 pd patch;
#X obj 7 186 hsl 128 15 0 127 0 0 empty \$0-vol VOLUME 8 -8 0 10 -262144
-1 -1 10700 0;
#X text 335 181 angelfaraldo@gmail.com \, 2012;
#X text 257 10 fundamental (Hz);
#X connect 22 0 21 0;
