#N canvas 735 25 392 343 10;
#X floatatom 17 22 5 0 0 0 - #0-fundamental_p #0-fundamental;
#X text 52 21 fundamental;
#X text 52 42 number of partials;
#X floatatom 17 41 5 0 0 0 - #0-numPartials_p #0-numPartials;
#X floatatom 17 60 5 0 0 0 - #0-maxPartials_p #0-maxPartials;
#X floatatom 17 79 5 0 0 0 - #0-mfd_p #0-mfd;
#X floatatom 17 98 5 0 0 2 - #0-pad_p #0-pad;
#X floatatom 17 117 5 0 0 0 - #0-arad_p #0-arad;
#X obj 17 137 bng 30 250 50 0 \$0-create empty empty 17 7 0 10 -262144
-1 -1;
#X text 52 141 create!;
#X text 52 61 highest partial;
#X text 52 118 average relative amplitude deviation (dB);
#X text 52 80 max frequency deviation (Hz);
#X text 52 99 partial/amplitude deviation range;
#N canvas 375 23 396 681 creation 0;
#X obj 36 133 until;
#X obj 59 156 f 0;
#X obj 85 155 + 1;
#X msg 74 133 0;
#X msg 66 570 clear;
#X obj 55 110 t f b b;
#X obj 59 179 * 25;
#X obj 59 199 + 25;
#X obj 59 592 s pd-overtones;
#N canvas 913 23 327 752 overtones 0;
#X obj 25 25 a.overtone4 1003 14 1.06829 12.6135 3.22977;
#X obj 25 50 a.overtone4 1003 28 0.787022 26.8348 2.84544;
#X obj 25 75 a.overtone4 1003 33 1.75927 29.4836 3.39241;
#X obj 25 100 a.overtone4 1003 94 1.79759 97.5312 1.26414;
#X obj 25 125 a.overtone4 1003 70 2.68139 77.657 0.259164;
#X obj 25 150 a.overtone4 1003 24 0.396279 15.3954 1.98106;
#X obj 25 175 a.overtone4 1003 6 1.13837 6.59702 5.32162;
#X obj 25 200 a.overtone4 1003 53 2.92458 55.682 7.89356;
#X obj 25 225 a.overtone4 1003 57 0.127755 57.8079 6.21215;
#X obj 25 250 a.overtone4 1003 25 2.43316 22.3372 10.3206;
#X obj 25 275 a.overtone4 1003 2 1.69328 1.23639 1.49485;
#X obj 25 300 a.overtone4 1003 1 0.390665 3.40452 2.82102;
#X obj 25 325 a.overtone4 1003 55 3.50079 61.3095 0.0649556;
#X obj 25 350 a.overtone4 1003 55 1.40264 55.7869 8.14538;
#X obj 25 375 a.overtone4 1003 28 0.648919 22.5331 8.02318;
#X obj 25 400 a.overtone4 1003 24 1.61736 22.3128 1.09549;
#X obj 25 425 a.overtone4 1003 48 1.59819 45.0995 8.02793;
#X obj 25 450 a.overtone4 1003 17 0.515236 16.8514 10.632;
#X obj 25 475 a.overtone4 1003 61 0.230659 61.1516 3.6319;
#X obj 25 500 a.overtone4 1003 34 1.76738 36.7133 3.71746;
#X obj 25 525 a.overtone4 1003 53 1.64571 55.6511 2.09533;
#X obj 25 550 a.overtone4 1003 88 1.86219 86.6122 2.9449;
#X obj 25 575 a.overtone4 1003 12 4.78103 16.683 1.63572;
#X obj 25 600 a.overtone4 1003 57 2.56555 65.9792 1.37482;
#X obj 25 625 a.overtone4 1003 85 1.12943 80.1514 0.781978;
#X obj 25 650 a.overtone4 1003 54 4.68153 54.4813 3.62127;
#X obj 25 675 a.overtone4 1003 40 0.609863 39.3875 8.64412;
#X obj 25 700 a.overtone4 1003 42 1.84919 43.5842 8.84586;
#X obj 25 725 a.overtone4 1003 9 1.45493 7.80381 2.23004;
#X obj 25 750 a.overtone4 1003 61 3.43955 59.4879 3.89757;
#X obj 25 775 a.overtone4 1003 29 0.631651 33.4119 2.35782;
#X obj 25 800 a.overtone4 1003 24 0.713886 22.1864 1.07881;
#X obj 25 825 a.overtone4 1003 68 0.657813 71.9938 0.200087;
#X obj 25 850 a.overtone4 1003 18 2.79402 16.6515 1.40025;
#X obj 25 875 a.overtone4 1003 6 1.40795 9.25892 9.56836;
#X obj 25 900 a.overtone4 1003 43 4.07087 36.7576 6.79978;
#X obj 25 925 a.overtone4 1003 7 2.52062 2.28869 3.1926;
#X obj 25 950 a.overtone4 1003 20 0.383907 12.8903 2.94899;
#X obj 25 975 a.overtone4 1003 32 0.407725 30.2712 6.3814;
#X obj 25 1000 a.overtone4 1003 16 3.32144 11.2306 0.847023;
#X obj 25 1025 a.overtone4 1003 70 0.176827 72.7679 9.61241;
#X obj 25 1050 a.overtone4 1003 32 1.11052 32.3835 5.23352;
#X obj 25 1075 a.overtone4 1003 33 1.86222 41.4054 2.58784;
#X obj 25 1100 a.overtone4 1003 41 2.99017 46.3688 8.56332;
#X obj 25 1125 a.overtone4 1003 16 1.83727 12.4024 1.5832;
#X obj 25 1150 a.overtone4 1003 18 3.69266 15.5601 1.03015;
#X obj 25 1175 a.overtone4 1003 51 2.60922 40.8466 4.49564;
#X obj 25 1200 a.overtone4 1003 38 3.05702 35.285 1.96788;
#X obj 25 1225 a.overtone4 1003 54 0.667496 47.7395 7.80952;
#X obj 25 1250 a.overtone4 1003 61 0.837061 61.152 3.01062;
#X obj 25 1275 a.overtone4 1003 52 0.500375 54.3961 3.4702;
#X obj 25 1300 a.overtone4 1003 29 1.74772 39.4846 3.07922;
#X obj 25 1325 a.overtone4 1003 80 2.10249 77.2609 7.70244;
#X obj 25 1350 a.overtone4 1003 31 2.98092 30.9511 5.59178;
#X obj 25 1375 a.overtone4 1003 8 1.93966 11.7467 0.920959;
#X obj 25 1400 a.overtone4 1003 16 0.225843 11.5261 3.09577;
#X obj 25 1425 a.overtone4 1003 57 2.93771 55.3287 4.97548;
#X obj 25 1450 a.overtone4 1003 14 1.09591 16.7189 0.831239;
#X obj 25 1475 a.overtone4 1003 10 0.732065 3.6706 2.25447;
#X obj 25 1500 a.overtone4 1003 75 1.78038 80.3108 0.0973566;
#X restore 59 612 pd overtones;
#X obj 55 85 f;
#X obj 70 62 r \$0-numPartials;
#X obj 59 220 t f b;
#X obj 101 268 r \$0-maxPartials;
#X obj 86 291 *;
#X obj 86 314 int;
#X obj 86 336 + 1;
#X obj 104 133 s \$0-clear;
#X obj 66 548 r \$0-clear;
#X obj 55 19 r \$0-create;
#X obj 227 325 r \$0-pad;
#X obj 59 506 pack f \$0 0 f f f;
#X obj 86 357 t f b b f;
#X obj 103 433 *;
#X obj 118 410 r \$0-mfd;
#X obj 256 457 r \$0-arad;
#X obj 241 480 *;
#X obj 214 409 t f b;
#X obj 214 382 abs;
#X obj 104 110 loadbang;
#X obj 55 41 delay 50;
#X msg 59 528 obj 25 \$1 a.overtone4 \$2 \$3 \$4 \$5 \$6;
#X obj 214 357 maxlib/gauss;
#X obj 241 434 maxlib/linear;
#X obj 103 387 maxlib/linear;
#X obj 87 244 maxlib/linear;
#X connect 0 0 1 0;
#X connect 1 0 2 0;
#X connect 1 0 6 0;
#X connect 2 0 1 1;
#X connect 3 0 1 1;
#X connect 4 0 8 0;
#X connect 5 0 0 0;
#X connect 5 1 3 0;
#X connect 5 2 17 0;
#X connect 6 0 7 0;
#X connect 7 0 12 0;
#X connect 10 0 5 0;
#X connect 11 0 10 1;
#X connect 12 0 21 0;
#X connect 12 1 35 0;
#X connect 13 0 14 1;
#X connect 14 0 15 0;
#X connect 15 0 16 0;
#X connect 16 0 22 0;
#X connect 18 0 4 0;
#X connect 19 0 30 0;
#X connect 20 0 32 1;
#X connect 21 0 31 0;
#X connect 22 0 21 2;
#X connect 22 1 34 0;
#X connect 22 2 32 0;
#X connect 22 3 32 2;
#X connect 23 0 21 3;
#X connect 24 0 23 1;
#X connect 25 0 26 1;
#X connect 26 0 21 5;
#X connect 27 0 21 4;
#X connect 27 1 33 0;
#X connect 28 0 27 0;
#X connect 29 0 17 0;
#X connect 30 0 10 0;
#X connect 31 0 8 0;
#X connect 32 0 28 0;
#X connect 33 0 26 0;
#X connect 34 0 23 0;
#X connect 35 0 14 0;
#X restore 79 219 pd creation;
#N canvas 46 46 838 380 patch 0;
#X obj 609 91 bng 15 250 50 0 empty empty empty 17 7 0 10 -262144 -1
-1;
#X obj 609 110 f \$0;
#X msg 609 131 \; \$1-fundamental_p 33 \; \$1-numPartials_p 60 \; \$1-maxPartials_p
100 \; \$1-mfd_p 5 \; \$1-pad_p 4 \; \$1-arad_p 12;
#X obj 75 216 s \$0-fund;
#X obj 75 285 s \$0-loadbang;
#X obj 75 239 r \$0-create;
#X obj 90 171 r \$0-fundamental;
#X obj 75 192 f;
#X obj 75 120 r \$0-create;
#X obj 529 92 dbtorms;
#X obj 529 178 line~;
#X obj 277 210 *~;
#X obj 217 209 *~;
#X obj 529 70 inlet;
#X obj 609 68 loadbang;
#X obj 75 49 r \$0-create;
#X msg 75 71 0;
#X obj 75 94 s \$0-vol;
#X obj 536 134 loadbang;
#X msg 536 156 0;
#X msg 529 112 \$1 10;
#X obj 217 166 *~ 0.1;
#X obj 277 166 *~ 0.1;
#X obj 75 144 delay 200;
#X obj 75 261 delay 500;
#X obj 217 231 dac~ 1;
#X obj 277 231 dac~ 2;
#X obj 337 210 *~;
#X obj 337 166 *~ 0.1;
#X obj 337 231 dac~ 3;
#X obj 397 210 *~;
#X obj 397 167 *~ 0.1;
#X obj 397 231 dac~ 4;
#X obj 217 65 catch~ \$0-overtone1;
#X obj 277 88 catch~ \$0-overtone2;
#X obj 337 112 catch~ \$0-overtone3;
#X obj 397 135 catch~ \$0-overtone4;
#X obj 138 265 bng 15 250 50 0 empty empty empty 17 7 0 10 -262144
-1 -1;
#X connect 0 0 1 0;
#X connect 1 0 2 0;
#X connect 5 0 24 0;
#X connect 6 0 7 1;
#X connect 7 0 3 0;
#X connect 8 0 23 0;
#X connect 9 0 20 0;
#X connect 10 0 11 1;
#X connect 10 0 12 1;
#X connect 10 0 30 1;
#X connect 10 0 27 1;
#X connect 11 0 26 0;
#X connect 12 0 25 0;
#X connect 13 0 9 0;
#X connect 14 0 0 0;
#X connect 15 0 16 0;
#X connect 16 0 17 0;
#X connect 18 0 19 0;
#X connect 19 0 10 0;
#X connect 20 0 10 0;
#X connect 21 0 12 0;
#X connect 22 0 11 0;
#X connect 23 0 7 0;
#X connect 24 0 4 0;
#X connect 27 0 29 0;
#X connect 28 0 27 0;
#X connect 30 0 32 0;
#X connect 31 0 30 0;
#X connect 33 0 21 0;
#X connect 34 0 22 0;
#X connect 35 0 28 0;
#X connect 36 0 31 0;
#X connect 37 0 4 0;
#X restore 17 219 pd patch;
#X obj 18 197 hsl 128 15 0 127 0 0 empty \$0-vol VOLUME 8 -8 0 10 -262144
-1 -1 0 0;
#X text 131 244 angelfaraldo@gmail.com \, 2012;
#X connect 16 0 15 0;
