#N canvas 802 24 432 279 10;
#X obj 126 21 noise~;
#X obj 126 117 samphold~;
#X obj 126 213 s~ \$0-newFreq;
#X obj 197 22 r~ \$0-newFreq;
#X msg 30 43 reset;
#X obj 172 172 *~;
#X obj 172 192 outlet~;
#X obj 187 73 phasor~ 1;
#X obj 133 139 abs~;
#X obj 257 73 phasor~ 1;
#X obj 187 51 abs~;
#X obj 30 24 r \$1-loadbang;
#X obj 257 114 creb/sin~;
#X connect 0 0 1 0;
#X connect 1 0 2 0;
#X connect 1 0 8 0;
#X connect 3 0 9 0;
#X connect 3 0 10 0;
#X connect 4 0 1 0;
#X connect 5 0 6 0;
#X connect 7 0 1 1;
#X connect 8 0 5 0;
#X connect 9 0 12 0;
#X connect 10 0 7 0;
#X connect 11 0 4 0;
#X connect 12 0 5 1;
