#N canvas 546 22 712 565 10;
#N canvas 105 22 933 727 midi 1;
#X text 10 5 FIREFACE REMOTE CONTROL:;
#X text 9 24 Analog 1 out: chan 9 \, cn 102;
#X text 9 44 Analog 2 out: chan 9 \, cn 103;
#X text 9 64 Analog 3 out: chan 9 \, cn 104;
#X text 9 84 Analog 4 out: chan 9 \, cn 105;
#X obj 479 337 metro 100;
#X obj 499 361 f;
#X obj 529 361 + 1;
#X obj 499 384 t f f;
#X msg 433 384 0;
#X obj 526 674 ctlout 104 9;
#X text 305 28 100 = 0 db;
#X text 305 8 127 = +6 db;
#X text 305 48 74 = -6 db;
#X obj 526 493 * 6.28319;
#X obj 530 314 * 1000;
#X text 567 290 resolution of the wheel;
#X obj 526 609 int;
#X obj 526 629 change;
#X floatatom 538 652 5 0 0 0 - - -;
#X obj 526 515 sin;
#X obj 594 451 random 10;
#X obj 594 472 * 0.1;
#X obj 594 494 + 0.1;
#X text 567 270 average duration of the cycle;
#X obj 530 269 + 60;
#X obj 479 199 t b b;
#X obj 530 222 random 21;
#X obj 530 245 + -10;
#X text 305 67 28 = -20 db;
#X obj 526 568 * 36;
#X text 572 566 (midi steps between -20 and 0 dB) / 2;
#X obj 530 292 / 300;
#X obj 526 451 / 300;
#X obj 526 538 * 1;
#X obj 466 414 sel 300;
#X obj 319 337 metro 100;
#X obj 339 361 f;
#X obj 369 361 + 1;
#X obj 339 384 t f f;
#X msg 273 384 0;
#X obj 366 498 * 6.28319;
#X obj 370 314 * 1000;
#X obj 366 609 int;
#X obj 366 629 change;
#X floatatom 378 652 5 0 0 0 - - -;
#X obj 366 520 sin;
#X obj 434 471 random 10;
#X obj 434 492 * 0.1;
#X obj 434 514 + 0.1;
#X obj 370 269 + 60;
#X obj 319 199 t b b;
#X obj 370 222 random 21;
#X obj 370 245 + -10;
#X obj 366 568 * 36;
#X obj 370 292 / 300;
#X obj 366 451 / 300;
#X obj 366 542 * 1;
#X obj 306 414 sel 300;
#X obj 149 337 metro 100;
#X obj 169 361 f;
#X obj 199 361 + 1;
#X obj 169 384 t f f;
#X msg 103 384 0;
#X obj 196 472 * 6.28319;
#X obj 200 314 * 1000;
#X obj 196 589 int;
#X obj 196 609 change;
#X floatatom 208 632 5 0 0 0 - - -;
#X obj 196 495 sin;
#X obj 264 451 random 10;
#X obj 264 472 * 0.1;
#X obj 264 494 + 0.1;
#X obj 200 269 + 60;
#X obj 149 199 t b b;
#X obj 200 222 random 21;
#X obj 200 245 + -10;
#X obj 196 548 * 36;
#X obj 200 292 / 300;
#X obj 196 451 / 300;
#X obj 196 518 * 1;
#X obj 136 414 sel 300;
#X obj 196 654 ctlout 102 9;
#X obj 366 674 ctlout 103 9;
#X obj 526 473 + 0.5;
#X obj 366 474 + 0.75;
#X obj 619 83 ctlout 105 9;
#X floatatom 619 55 5 0 0 0 - - -;
#X text 572 589 represents + 36 dB in the Fireface;
#X obj 526 589 + 77;
#X obj 366 589 + 77;
#X obj 196 569 + 77;
#X obj 149 175 r start;
#X obj 319 175 r start;
#X obj 479 175 r start;
#X connect 5 0 6 0;
#X connect 6 0 7 0;
#X connect 6 0 8 0;
#X connect 7 0 6 1;
#X connect 8 0 35 0;
#X connect 8 1 33 0;
#X connect 9 0 6 1;
#X connect 14 0 20 0;
#X connect 15 0 5 1;
#X connect 17 0 18 0;
#X connect 18 0 10 0;
#X connect 18 0 19 0;
#X connect 20 0 34 0;
#X connect 21 0 22 0;
#X connect 22 0 23 0;
#X connect 23 0 34 1;
#X connect 25 0 32 0;
#X connect 26 0 5 0;
#X connect 26 1 27 0;
#X connect 27 0 28 0;
#X connect 28 0 25 0;
#X connect 30 0 89 0;
#X connect 32 0 15 0;
#X connect 33 0 84 0;
#X connect 34 0 30 0;
#X connect 35 0 9 0;
#X connect 35 0 21 0;
#X connect 35 0 27 0;
#X connect 36 0 37 0;
#X connect 37 0 38 0;
#X connect 37 0 39 0;
#X connect 38 0 37 1;
#X connect 39 0 58 0;
#X connect 39 1 56 0;
#X connect 40 0 37 1;
#X connect 41 0 46 0;
#X connect 42 0 36 1;
#X connect 43 0 44 0;
#X connect 44 0 45 0;
#X connect 44 0 83 0;
#X connect 46 0 57 0;
#X connect 47 0 48 0;
#X connect 48 0 49 0;
#X connect 49 0 57 1;
#X connect 50 0 55 0;
#X connect 51 0 36 0;
#X connect 51 1 52 0;
#X connect 52 0 53 0;
#X connect 53 0 50 0;
#X connect 54 0 90 0;
#X connect 55 0 42 0;
#X connect 56 0 85 0;
#X connect 57 0 54 0;
#X connect 58 0 40 0;
#X connect 58 0 47 0;
#X connect 58 0 52 0;
#X connect 59 0 60 0;
#X connect 60 0 61 0;
#X connect 60 0 62 0;
#X connect 61 0 60 1;
#X connect 62 0 81 0;
#X connect 62 1 79 0;
#X connect 63 0 60 1;
#X connect 64 0 69 0;
#X connect 65 0 59 1;
#X connect 66 0 67 0;
#X connect 67 0 68 0;
#X connect 67 0 82 0;
#X connect 69 0 80 0;
#X connect 70 0 71 0;
#X connect 71 0 72 0;
#X connect 72 0 80 1;
#X connect 73 0 78 0;
#X connect 74 0 59 0;
#X connect 74 1 75 0;
#X connect 75 0 76 0;
#X connect 76 0 73 0;
#X connect 77 0 91 0;
#X connect 78 0 65 0;
#X connect 79 0 64 0;
#X connect 80 0 77 0;
#X connect 81 0 63 0;
#X connect 81 0 70 0;
#X connect 81 0 75 0;
#X connect 84 0 14 0;
#X connect 85 0 41 0;
#X connect 87 0 86 0;
#X connect 89 0 17 0;
#X connect 90 0 43 0;
#X connect 91 0 66 0;
#X connect 92 0 74 0;
#X connect 93 0 51 0;
#X connect 94 0 26 0;
#X restore 3 28 pd midi;
#N canvas 873 206 450 300 init 0;
#X obj 9 7 loadbang;
#X obj 9 239 dirac~;
#X obj 9 215 metro 1000;
#X obj 1 266 dac~;
#X obj 43 130 s start;
#X msg 36 175 0 \; pd dsp 0;
#X obj 9 85 t f b;
#X msg 9 49 1 \; pd dsp 1;
#X obj 9 28 delay 1000;
#X obj 36 108 del 5000;
#X obj 36 152 del 200;
#X connect 0 0 8 0;
#X connect 1 0 3 0;
#X connect 1 0 3 1;
#X connect 2 0 1 0;
#X connect 5 0 2 0;
#X connect 6 0 2 0;
#X connect 6 1 9 0;
#X connect 7 0 6 0;
#X connect 8 0 7 0;
#X connect 9 0 4 0;
#X connect 9 0 10 0;
#X connect 10 0 5 0;
#X restore 3 7 pd init;
