#N canvas 49 73 767 446 10;
#X obj 11 27 moses 1000;
#X floatatom 11 4 10 0 0 1 Frequency(Hz) - -;
#X msg 190 24 1000;
#X obj 190 67 s fc;
#X floatatom 190 46 5 0 0 0 - - -;
#X obj 190 2 loadbang;
#X obj 83 27 r fc;
#X obj 68 69 /;
#X obj 68 91 log;
#X obj 68 112 / 2.30259;
#X text 129 111 log(10);
#X obj 68 133 + 1;
#X obj 68 155 *;
#X obj 83 48 t f f;
#X obj 11 189 f;
#X floatatom 11 212 10 0 0 1 Mel - -;
#X connect 0 0 14 0;
#X connect 0 1 7 0;
#X connect 1 0 0 0;
#X connect 2 0 4 0;
#X connect 4 0 3 0;
#X connect 5 0 2 0;
#X connect 6 0 13 0;
#X connect 7 0 8 0;
#X connect 8 0 9 0;
#X connect 9 0 11 0;
#X connect 11 0 12 0;
#X connect 12 0 14 0;
#X connect 13 0 7 1;
#X connect 13 1 12 1;
#X connect 14 0 15 0;
