#N canvas 206 134 933 476 10;
#N canvas 0 0 450 300 (subpatch) 0;
#X array a 11 float 2;
#X coords 0 1 11 -1 200 140 1 0 0;
#X restore -2061 38 graph;
#X obj -1583 131 length;
#X msg -1603 89 1 0 0 0 0 0 0 0 0 0 0;
#X obj -1610 109 t l l;
#X msg -1583 186 resize \$1;
#X msg -1610 48 0 0.25 0.5 0.75 1 0.75 0.5 0.25 0;
#N canvas 0 0 450 300 (subpatch) 0;
#X array b 10 float 2;
#X coords 0 1 10 -1 200 140 1;
#X restore -2061 209 graph;
#X obj -1368 131 length;
#X obj -1395 109 t l l;
#X msg -1368 176 resize \$1;
#X msg -1610 68 0 1 1 1 1 0;
#N canvas 0 0 450 300 (subpatch) 0;
#X array output 21 float 0;
#X coords 0 1 20 -1 200 140 1 0 0;
#X restore -1845 209 graph;
#X obj -1477 158 t b f;
#X obj -1602 380 s output;
#X msg -1477 253 const 0 \, resize \$1;
#X obj -1477 187 +;
#X obj -1471 231 s conv-size;
#X obj -1447 343 bng 50 250 50 0 empty empty empty 17 7 0 10 -262144
-1 -1;
#N canvas 1343 134 417 411 convolve 1;
#X obj -268 -2854 forloop;
#X obj -247 -2900 r conv-size;
#X obj -268 -2879 f 24;
#X obj -341 -2760 forloop;
#X obj -266 -2651 *;
#X obj -341 -2737 + 1;
#X obj -341 -2715 * -1;
#X obj -187 -2622 + 0;
#X obj -154 -2623 f;
#X obj -187 -2597 tabwrite output;
#X msg -172 -2645 0;
#X obj -268 -2830 t b f b f;
#X obj -341 -2782 f;
#X obj -268 -2923 inlet;
#X obj -341 -2694 tabreadb b;
#X obj -326 -2830 r size-b;
#X obj -251 -2674 tabreadb a;
#X connect 0 0 11 0;
#X connect 1 0 2 1;
#X connect 2 0 0 0;
#X connect 3 0 5 0;
#X connect 4 0 7 0;
#X connect 5 0 6 0;
#X connect 6 0 14 0;
#X connect 7 0 8 0;
#X connect 7 0 9 0;
#X connect 8 0 7 1;
#X connect 10 0 7 1;
#X connect 11 0 12 0;
#X connect 11 1 16 0;
#X connect 11 2 10 0;
#X connect 11 3 9 1;
#X connect 12 0 3 0;
#X connect 13 0 2 0;
#X connect 14 0 4 0;
#X connect 15 0 12 1;
#X connect 16 0 4 1;
#X restore -1458 397 pd convolve;
#X obj -1368 197 s b;
#X obj -1583 207 s a;
#X obj -1610 229 tabset a;
#X obj -1395 220 tabset b;
#X text -1610 25 select source a;
#X obj -1360 155 s size-b;
#X msg -1395 37 0 0.25 0.5 0.75 1 0.75 0.5 0.25 0;
#X text -1400 14 select source b;
#X msg -1384 60 1 0 0 0 0 0 0 0 0 0 0;
#X floatatom -1523 128 5 0 0 0 - - -;
#X floatatom -1467 208 5 0 0 0 - - -;
#X msg -1284 115 1 0 0 0 0 0 0 0 0 0;
#X msg -1378 86 0 1 0 0 0 0 0 0 0 0;
#X connect 1 0 4 0;
#X connect 1 0 15 0;
#X connect 1 0 28 0;
#X connect 2 0 3 0;
#X connect 3 0 21 0;
#X connect 3 1 1 0;
#X connect 4 0 20 0;
#X connect 5 0 3 0;
#X connect 7 0 12 0;
#X connect 7 0 9 0;
#X connect 7 0 24 0;
#X connect 8 0 22 0;
#X connect 8 1 7 0;
#X connect 9 0 19 0;
#X connect 10 0 3 0;
#X connect 12 0 15 0;
#X connect 12 1 15 1;
#X connect 14 0 13 0;
#X connect 15 0 14 0;
#X connect 15 0 16 0;
#X connect 15 0 29 0;
#X connect 17 0 18 0;
#X connect 25 0 8 0;
#X connect 27 0 8 0;
#X connect 30 0 8 0;
#X connect 31 0 8 0;
