#N canvas 709 217 977 506 10;
#N canvas 0 0 450 300 (subpatch) 0;
#X array a 11 float 0;
#X coords 0 1 10 -1 200 140 1 0 0;
#X restore -2061 38 graph;
#X obj -1603 141 length;
#X msg -1630 98 1 0 0 0 0 0 0 0 0 0 0;
#X obj -1630 119 t l l;
#X msg -1603 196 resize \$1;
#X msg -1630 58 0 0.25 0.5 0.75 1 0.75 0.5 0.25 0;
#N canvas 0 0 450 300 (subpatch) 0;
#X array b 11 float 0;
#X coords 0 1 10 -1 200 140 1;
#X restore -1848 39 graph;
#X obj -1388 141 length;
#X obj -1415 119 t l l;
#X msg -1388 186 resize \$1;
#X msg -1630 78 0 1 1 1 1 0;
#N canvas 0 0 450 300 (subpatch) 0;
#X array output 44 float 0;
#X coords 0 1 43 -1 400 140 1 0 0;
#X restore -2054 233 graph;
#X obj -1497 168 t b f;
#X obj -1497 284 s output;
#X msg -1497 263 const 0 \, resize \$1;
#X obj -1497 197 +;
#X obj -1497 217 * 2;
#X obj -1491 241 s conv-size;
#X obj -1636 294 bng 50 250 50 0 empty empty empty 17 7 0 10 -262144
-1 -1;
#X text -1840 730 comment;
#X obj -2053 234 cnv 15 204 138 empty empty empty 20 12 0 14 -233017
-66577 0;
#X text -1858 372 0;
#X text -1672 375 +inf;
#X text -2062 375 -inf;
#N canvas 130 239 417 411 convolve 0;
#X obj -258 -2844 forloop;
#X obj -191 -2912 r conv-size;
#X obj -212 -2891 f 24;
#X obj -351 -2750 forloop;
#X obj -256 -2641 *;
#X obj -241 -2729 -;
#X obj -351 -2727 + 1;
#X obj -351 -2705 * -1;
#X obj -241 -2706 moses 0;
#X msg -241 -2684 0;
#X obj -167 -2602 + 0;
#X obj -134 -2603 f;
#X obj -185 -2844 * 0.5;
#X obj -212 -2870 t f f;
#X obj -167 -2577 tabwrite output;
#X msg -152 -2625 0;
#X obj -258 -2820 t b f b f;
#X obj -351 -2772 f;
#X obj -212 -2935 inlet;
#X obj -351 -2684 tabreadb b;
#X obj -336 -2820 r size-b;
#X obj -202 -2683 tabreadb a;
#X connect 0 0 16 0;
#X connect 1 0 2 1;
#X connect 2 0 13 0;
#X connect 3 0 6 0;
#X connect 4 0 10 0;
#X connect 5 0 8 0;
#X connect 6 0 7 0;
#X connect 7 0 19 0;
#X connect 8 0 9 0;
#X connect 8 1 21 0;
#X connect 9 0 4 1;
#X connect 10 0 11 0;
#X connect 10 0 14 0;
#X connect 11 0 10 1;
#X connect 12 0 5 1;
#X connect 13 0 0 0;
#X connect 13 1 12 0;
#X connect 15 0 10 1;
#X connect 16 0 17 0;
#X connect 16 1 5 0;
#X connect 16 2 15 0;
#X connect 16 3 14 1;
#X connect 17 0 3 0;
#X connect 18 0 2 0;
#X connect 19 0 4 0;
#X connect 20 0 17 1;
#X connect 21 0 4 1;
#X restore -1636 355 pd convolve;
#X obj -1388 207 s b;
#X obj -1603 217 s a;
#X obj -1630 239 tabset a;
#X obj -1415 230 tabset b;
#X text -1630 35 select source a;
#X obj -1380 165 s size-b;
#X floatatom -1329 215 5 0 0 0 - - -;
#X msg -1415 55 0 0.25 0.5 0.75 1 0.75 0.5 0.25 0;
#X text -1420 32 select source b;
#X floatatom -1454 206 5 0 0 0 - - -;
#X floatatom -1443 174 5 0 0 0 - - -;
#X msg -1408 76 1 0 0 0 0 0 0 0 0;
#X msg -1408 96 0 1 0 0 0 0 0 0 0 0 0;
#X connect 1 0 4 0;
#X connect 1 0 15 0;
#X connect 2 0 3 0;
#X connect 3 0 27 0;
#X connect 3 1 1 0;
#X connect 4 0 26 0;
#X connect 5 0 3 0;
#X connect 7 0 12 0;
#X connect 7 0 9 0;
#X connect 7 0 30 0;
#X connect 7 0 31 0;
#X connect 8 0 28 0;
#X connect 8 1 7 0;
#X connect 9 0 25 0;
#X connect 10 0 3 0;
#X connect 12 0 15 0;
#X connect 12 1 15 1;
#X connect 14 0 13 0;
#X connect 15 0 16 0;
#X connect 15 0 35 0;
#X connect 16 0 14 0;
#X connect 16 0 17 0;
#X connect 16 0 34 0;
#X connect 18 0 24 0;
#X connect 32 0 8 0;
#X connect 36 0 8 0;
#X connect 37 0 8 0;
