#N canvas 0 22 191 219 10;
#X obj 14 119 samphold~;
#X obj 14 8 noise~;
#X obj 14 31 *~ 0.5;
#X obj 14 53 +~ 0.5;
#X obj 82 73 phasor~ 1;
#X obj 22 74 loadbang;
#X msg 22 95 reset;
#X obj 14 142 s~ \$0-freq;
#X obj 82 50 r~ \$0-freq;
#X obj 84 143 outlet~;
#X connect 0 0 7 0;
#X connect 1 0 2 0;
#X connect 2 0 3 0;
#X connect 3 0 0 0;
#X connect 4 0 0 1;
#X connect 4 0 9 0;
#X connect 5 0 6 0;
#X connect 6 0 0 0;
#X connect 8 0 4 0;
