#N canvas 0 22 450 300 10;
#X obj 197 66 inlet~;
#X obj 254 66 inlet;
#N canvas 570 149 556 487 square 1;
#X obj 333 89 samplerate~;
#X floatatom 333 110 0 0 0 0 - - -;
#X obj 332 67 bng 15 250 50 0 empty empty empty 17 7 0 10 -262144 -1
-1;
#X obj 70 240 outlet~;
#X obj 69 40 inlet~;
#X obj 70 149 expr~ if($v1 < 0.5 \, -1 \, 1);
#X obj 117 40 inlet;
#X obj 69 123 phasor~;
#X obj 318 24 block~ 64 1 \$1;
#X obj 66 78 *~ \$1;
#X obj 70 180 lop~ 20000;
#X obj 169 183 r lo;
#X connect 0 0 1 0;
#X connect 2 0 0 0;
#X connect 4 0 9 0;
#X connect 5 0 10 0;
#X connect 6 0 7 1;
#X connect 7 0 5 0;
#X connect 9 0 7 0;
#X connect 10 0 3 0;
#X connect 11 0 10 1;
#X restore 197 117 pd square;
#X obj 197 149 outlet~;
#N canvas 415 93 740 538 16x 0;
#X obj 21 269 *~ 0.125;
#X obj 21 292 rzero~ -1;
#X obj 21 315 rzero~ -1;
#X obj 21 338 rzero~ -1;
#X obj 21 66 phasor~;
#X obj 204 29 block~ 1024 1 16;
#X obj 21 31 inlet;
#X obj 21 372 outlet~;
#X obj 20 166 rpole~ 0.87467;
#X obj 20 143 *~ 0.12532;
#X obj 20 189 *~ 0.01668;
#X obj 279 358 buttercoef3;
#X floatatom 279 282 7 0 0 0 - - -;
#X obj 279 332 / 16;
#X floatatom 279 488 7 0 0 0 - - -;
#X obj 279 307 / 22050;
#X floatatom 293 468 7 0 0 0 - - -;
#X floatatom 308 448 7 0 0 0 - - -;
#X floatatom 323 428 7 0 0 0 - - -;
#X floatatom 338 408 7 0 0 0 - - -;
#X floatatom 353 388 7 0 0 0 - - -;
#X text 335 489 normalizer for rpole~;
#X text 352 468 normalizer for cpole~;
#X text 366 449 coef for rpole~;
#X text 382 430 coef for cpole~ real part;
#X text 413 390 coef for cpole~ imag part;
#X text 409 408 (same \, other cpole~);
#X obj 20 212 cpole~ 0.9293 0.10812;
#X obj 20 238 cpole~ 0.9293 -0.10812;
#X msg 279 257 15000;
#X text 329 256 desired cutoff frequency;
#X text 339 308 divide by nyquist frequency of this subpatch \, which
is 22050*16 because of the 16-times oversampling.;
#X text 273 225 Here is how to calculate the filter coefficients:;
#X text 143 123 These objects make a 3-pole \, 3-zero Butterworth low-pass
filter with cutoff at 15kHz (assuming 16x44100 sample rate). The filter
was designed using the "buttercoef3" abstraction introduced in patch
H13.butterworth.pd in this series.;
#X connect 0 0 1 0;
#X connect 1 0 2 0;
#X connect 2 0 3 0;
#X connect 3 0 7 0;
#X connect 4 0 9 0;
#X connect 6 0 4 0;
#X connect 8 0 10 0;
#X connect 9 0 8 0;
#X connect 10 0 27 0;
#X connect 11 0 14 0;
#X connect 11 1 16 0;
#X connect 11 2 17 0;
#X connect 11 3 18 0;
#X connect 11 4 19 0;
#X connect 11 5 20 0;
#X connect 12 0 15 0;
#X connect 13 0 11 0;
#X connect 15 0 13 0;
#X connect 27 0 28 0;
#X connect 27 1 28 1;
#X connect 28 0 0 0;
#X connect 29 0 12 0;
#X restore 39 133 pd 16x;
#X connect 0 0 2 0;
#X connect 1 0 2 1;
#X connect 2 0 3 0;
