#N canvas 306 73 760 616 10;
#X obj 43 275 shell;
#X obj 43 252 prepend say;
#X msg 139 136 Alex;
#X obj 43 232 prepend -v;
#X obj 43 206 list prepend;
#X symbolatom 43 8 80 0 0 0 - - -;
#X obj 169 306 bng 15 250 50 0 empty empty empty 17 7 0 10 -262144
-1 -1;
#X floatatom 52 362 5 0 0 0 - - -;
#X obj 52 329 PRINT;
#X obj 109 52 tgl 15 0 empty empty empty 17 7 0 10 -262144 -1 -1 0
1;
#X obj 112 79 sel 0 1;
#X msg 112 103 Agnes;
#X obj 43 40 t a b;
#X msg 149 166 junior;
#X msg 152 194 victoria;
#X obj 171 49 bng 15 250 50 0 empty empty empty 17 7 0 10 -262144 -1
-1;
#X connect 0 0 7 0;
#X connect 0 0 8 0;
#X connect 0 1 6 0;
#X connect 1 0 0 0;
#X connect 2 0 4 1;
#X connect 3 0 1 0;
#X connect 4 0 3 0;
#X connect 5 0 12 0;
#X connect 9 0 10 0;
#X connect 10 0 11 0;
#X connect 10 1 2 0;
#X connect 11 0 4 1;
#X connect 12 0 4 0;
#X connect 13 0 4 1;
#X connect 14 0 4 1;
#X connect 15 0 5 0;
