#N canvas 500 78 758 441 10;
#X obj 73 275 shell;
#X obj 73 252 prepend say;
#X msg 142 103 Bruce;
#X msg 157 123 Fred;
#X msg 172 143 Junior;
#X msg 187 163 Ralph;
#X msg 202 183 Alex;
#X obj 73 232 prepend -v;
#X obj 73 206 list prepend;
#X obj 142 58 random 5;
#X obj 142 79 sel 0 1 2 3 4;
#X obj 73 31 t a b;
#X symbolatom 73 8 80 0 0 0 - - -;
#X obj 199 306 bng 15 250 50 0 empty empty empty 17 7 0 10 -262144
-1 -1;
#X obj 73 128 fifop;
#X obj 88 68 once;
#X obj 88 91 bng 15 250 50 0 empty empty empty 17 7 0 10 -262144 -1
-1;
#X floatatom 82 362 5 0 0 0 - - -;
#X obj 82 329 PRINT;
#X connect 0 0 17 0;
#X connect 0 0 18 0;
#X connect 0 1 13 0;
#X connect 1 0 0 0;
#X connect 2 0 8 1;
#X connect 3 0 8 1;
#X connect 4 0 8 1;
#X connect 5 0 8 1;
#X connect 6 0 8 1;
#X connect 7 0 1 0;
#X connect 8 0 7 0;
#X connect 9 0 10 0;
#X connect 10 0 2 0;
#X connect 10 1 3 0;
#X connect 10 2 4 0;
#X connect 10 3 5 0;
#X connect 10 4 6 0;
#X connect 11 0 15 0;
#X connect 11 0 14 0;
#X connect 11 1 9 0;
#X connect 12 0 11 0;
#X connect 13 0 14 0;
#X connect 14 0 8 0;
#X connect 15 0 16 0;
#X connect 16 0 14 0;
