#N canvas 440 37 646 663 10;
#X obj 345 361 t3_sig~;
#X msg 345 332 \$1 1;
#X obj 273 179 t3_metro 5;
#X msg 293 80 stop;
#X msg 396 332 \$1 0;
#X msg 273 57 start 0;
#X text 325 57 (number is the initial delay time in msec.);
#X obj 6 42 samplerate~;
#X obj 6 24 bng 15 250 50 0 empty empty empty 17 7 0 10 -262144 -1
-1;
#X obj 6 4 loadbang;
#X obj 6 62 / 1000;
#X obj 6 83 s \$0-msec;
#X obj 451 279 / 44.1;
#X obj 451 213 r \$0-msec;
#X obj 7 206 / 60;
#X obj 7 251 /;
#X msg 7 229 1000 \$1;
#X msg 7 131 60;
#X text 6 111 beats per minute;
#X floatatom 16 184 5 0 0 0 - - -;
#X obj 273 203 t b f;
#X obj 451 235 t b f;
#X obj 335 577 dac~;
#X floatatom 418 492 5 0 0 0 - - -;
#N canvas 0 22 224 276 karplus-strong 0;
#X obj -2 202 outlet~;
#X obj -21 40 inlet;
#X obj -67 40 inlet~;
#X obj -36 203 +~;
#X obj -65 6 block~ 1;
#X obj 72 40 inlet;
#X obj -21 171 *~ 0.98;
#X obj -21 146 lop~ 5000;
#X obj 30 40 inlet;
#X obj -36 227 delwrite~ \$0-delay 100;
#X obj -21 66 delread~ \$0-delay 17;
#X connect 1 0 10 0;
#X connect 2 0 3 0;
#X connect 3 0 9 0;
#X connect 5 0 6 1;
#X connect 6 0 3 1;
#X connect 6 0 0 0;
#X connect 7 0 6 0;
#X connect 8 0 7 1;
#X connect 10 0 7 0;
#X restore 345 549 pd karplus-strong;
#X msg 451 258 1;
#X obj 330 157 r \$0-metro;
#X obj 7 273 s \$0-bpm;
#X obj 258 323 r \$0-bpm;
#X floatatom 258 346 5 0 0 0 - - -;
#X obj 243 369 *;
#X obj 243 300 /;
#X msg 243 279 1 \$1;
#X obj 243 253 + 1;
#X obj 228 445 s \$0-metro;
#X obj 143 170 t3_metro 5;
#X obj 200 148 r \$0-bpm;
#X obj 143 366 t b;
#X obj 228 422 f;
#X obj 243 231 random 3;
#X obj 411 472 + 200;
#X obj 243 393 t f b b;
#X obj 33 460 s globalTempo;
#X floatatom 33 438 5 0 0 0 - - -;
#X obj 16 163 r globalTempo;
#X obj 274 13 r globalStart;
#X obj 274 34 sel 1 0;
#X obj 34 527 s globalStart;
#X obj 34 507 tgl 15 0 empty empty empty 17 7 0 10 -262144 -1 -1 0
1;
#X obj 350 472 random 30;
#X floatatom 414 519 5 0 0 0 - - -;
#X floatatom 370 520 5 0 0 0 - - -;
#X obj 396 304 t3_delay 2;
#X obj 411 449 random 2000;
#X obj 350 494 + 1;
#X connect 0 0 24 0;
#X connect 1 0 0 0;
#X connect 2 0 20 0;
#X connect 3 0 2 0;
#X connect 3 0 35 0;
#X connect 4 0 0 0;
#X connect 5 0 2 0;
#X connect 5 0 35 0;
#X connect 7 0 10 0;
#X connect 8 0 7 0;
#X connect 9 0 8 0;
#X connect 10 0 11 0;
#X connect 12 0 52 1;
#X connect 13 0 21 0;
#X connect 14 0 16 0;
#X connect 15 0 27 0;
#X connect 16 0 15 0;
#X connect 17 0 14 0;
#X connect 19 0 14 0;
#X connect 20 0 39 0;
#X connect 20 1 1 0;
#X connect 20 1 52 0;
#X connect 21 0 25 0;
#X connect 21 1 12 1;
#X connect 23 0 50 0;
#X connect 24 0 22 0;
#X connect 25 0 12 0;
#X connect 26 0 2 1;
#X connect 28 0 29 0;
#X connect 29 0 30 1;
#X connect 30 0 41 0;
#X connect 31 0 30 0;
#X connect 32 0 31 0;
#X connect 33 0 32 0;
#X connect 35 0 37 0;
#X connect 36 0 35 1;
#X connect 37 0 38 0;
#X connect 38 0 34 0;
#X connect 39 0 33 0;
#X connect 40 0 23 0;
#X connect 41 0 38 1;
#X connect 41 1 49 0;
#X connect 41 2 53 0;
#X connect 43 0 42 0;
#X connect 44 0 19 0;
#X connect 45 0 46 0;
#X connect 46 0 5 0;
#X connect 46 1 3 0;
#X connect 48 0 47 0;
#X connect 49 0 54 0;
#X connect 50 0 24 2;
#X connect 51 0 24 1;
#X connect 52 0 4 0;
#X connect 53 0 40 0;
#X connect 54 0 51 0;
