#N canvas 0 22 450 300 10;
#X obj 197 66 inlet~;
#X obj 254 66 inlet;
#N canvas 570 149 450 300 square 1;
#X obj 333 89 samplerate~;
#X floatatom 333 110 0 0 0 0 - - -;
#X obj 332 67 bng 15 250 50 0 empty empty empty 17 7 0 10 -262144 -1
-1;
#X obj 69 200 outlet~;
#X obj 69 40 inlet~;
#X obj 97 158 expr~ if($v1 < 0.5 \, -1 \, 1);
#X obj 117 40 inlet;
#X obj 69 123 phasor~;
#X obj 69 85 *~ \$1;
#X obj 318 24 block~ 64 1 \$1;
#X connect 0 0 1 0;
#X connect 2 0 0 0;
#X connect 4 0 8 0;
#X connect 5 0 3 0;
#X connect 6 0 7 1;
#X connect 7 0 5 0;
#X connect 8 0 7 0;
#X restore 197 117 pd square;
#X obj 197 149 outlet~;
#X connect 0 0 2 0;
#X connect 1 0 2 1;
#X connect 2 0 3 0;
