#N canvas 287 38 646 521 10;
#X msg 66 394 menuclose;
#X obj 66 417 s pd-testClosing;
#X obj 70 28 openpanel;
#X obj 70 10 bng 15 250 50 0 empty empty empty 17 7 0 10 -262144 -1
-1;
#X obj 109 94 list-rev;
#X obj 109 73 strtok /;
#X obj 109 114 list split 1;
#X obj 89 187 strlen;
#X obj 44 187 strlen;
#X obj 70 49 t s s s;
#X obj 74 209 -;
#X obj 7 237 strcut 3;
#X obj 125 297 pack s s;
#X obj 170 275 tosymbol;
#X obj 7 258 tosymbol;
#X msg 125 319 \; pd open \$2 \$1;
#X connect 0 0 1 0;
#X connect 2 0 9 0;
#X connect 3 0 2 0;
#X connect 4 0 6 0;
#X connect 5 0 4 0;
#X connect 6 0 7 0;
#X connect 6 0 13 0;
#X connect 7 0 10 1;
#X connect 8 0 10 0;
#X connect 9 0 11 0;
#X connect 9 1 8 0;
#X connect 9 2 5 0;
#X connect 10 0 11 0;
#X connect 11 0 14 0;
#X connect 12 0 15 0;
#X connect 13 0 12 1;
#X connect 14 0 12 0;
