#N canvas 0 22 1192 646 10;
#X obj 39 128 unitPulse;
#X floatatom 40 46 5 0 0 0 - - -;
#X obj 116 229 unitPulse;
#X floatatom 116 157 5 0 0 0 - - -;
#X obj 570 180 /;
#X obj 562 135 minmax;
#X obj 562 114 pack 0 0;
#X obj 580 91 t b f;
#X floatatom 579 64 5 0 0 0 - - -;
#X floatatom 532 75 5 0 0 0 - - -;
#X obj 568 157 swap;
#X floatatom 570 206 0 0 0 0 - - -;
#X obj 64 306 dac~;
#X msg 593 197;
#X obj 691 269 * 689.625;
#X obj 771 269 * 689.625;
#X obj 705 342 phasor~;
#X floatatom 686 215 5 0 0 0 - - -;
#N canvas 0 0 450 300 (subpatch) 0;
#X array suma 64 float 1;
#A 0 0 0 0 0 0 0 0 0 0 0 0 0 0 0 0 0 0 0 0 0 0 0 0 0 0 0 0 0 0 0 0
0 0 0 0 0 0 0 0 0 0 0 0 0 0 0 0 0 0 0 0 0 0 0 0 0 0 0 0 0 0 0 0 0;
#X coords 0 1 63 -1 200 140 1;
#X restore 215 399 graph;
#X obj 1039 256 metro 400;
#X obj 1047 223 tgl 15 0 empty empty empty 17 7 0 10 -262144 -1 -1
0 1;
#X obj 1020 292 t b b;
#X msg 962 315 0;
#X obj 705 363 sin~;
#X obj 761 348 phasor~;
#X obj 761 369 sin~;
#X floatatom 783 221 5 0 0 0 - - -;
#X obj 714 411 +~;
#X obj 173 311 tabwrite~ suma;
#X obj 354 1 tgl 15 0 empty empty empty 17 7 0 10 -262144 -1 -1 1 1
;
#X obj 327 70 t b b;
#X msg 179 194 0;
#X obj 260 293 bng 15 250 50 0 empty empty empty 17 7 0 10 -262144
-1 -1;
#X obj 346 34 metro 400;
#X obj 50 269 *~ -1;
#X obj 123 287 lop~;
#X floatatom 146 264 5 0 0 0 - - -;
#X connect 0 0 34 0;
#X connect 1 0 0 0;
#X connect 2 0 35 0;
#X connect 3 0 2 0;
#X connect 4 0 11 0;
#X connect 5 0 10 0;
#X connect 5 1 10 1;
#X connect 6 0 5 0;
#X connect 7 0 6 0;
#X connect 7 1 6 1;
#X connect 8 0 7 0;
#X connect 9 0 6 0;
#X connect 10 0 4 0;
#X connect 10 1 4 1;
#X connect 14 0 16 0;
#X connect 15 0 24 0;
#X connect 16 0 23 0;
#X connect 17 0 14 0;
#X connect 19 0 21 0;
#X connect 20 0 19 0;
#X connect 21 0 22 0;
#X connect 22 0 16 1;
#X connect 22 0 24 1;
#X connect 23 0 27 0;
#X connect 24 0 25 0;
#X connect 25 0 27 1;
#X connect 26 0 15 0;
#X connect 29 0 33 0;
#X connect 30 0 28 0;
#X connect 30 1 31 0;
#X connect 31 0 2 1;
#X connect 32 0 28 0;
#X connect 33 0 30 0;
#X connect 36 0 35 1;
