#N canvas 95 23 1242 710 24;
#X obj 15 214 *~;
#X obj 15 258 bp~ 10000 40;
#X obj 17 16 noise~;
#X obj 23 448 dac~;
#X obj 55 143 vline~;
#X msg 54 93 1 10 \, 0 60 10;
#X text 94 217 hihat;
#X obj 257 214 *~;
#X obj 297 144 vline~;
#X msg 296 94 1 10 \, 0 60 10;
#X floatatom 890 453 5 0 0 0 - - -, f 5;
#X floatatom 806 401 5 0 0 0 - - -, f 5;
#X obj 806 447 mtof;
#X obj 806 311 random 24;
#X obj 731 339 *~;
#X obj 770 258 vline~;
#X msg 769 205 1 10 \, 0 60 10;
#X obj 768 154 t b b;
#X obj 767 108 metro 200;
#X obj 767 61 tgl 30 0 empty empty empty 17 7 0 10 -262144 -1 -1 0
1;
#X floatatom 806 491 5 0 0 0 - - -, f 5;
#X obj 806 357 + 60;
#X obj 731 544 bp~ 500 60;
#X obj 731 597 dac~;
#X obj 658 276 noise~;
#X msg 890 391 60;
#X obj 435 225 *~;
#X obj 527 133 vline~;
#X msg 526 90 1 10 \, 0 60 10;
#X obj 435 311 *~ 10;
#X obj 257 261 bp~ 2000 5;
#X obj 435 265 bp~ 100 20;
#X obj 372 437 osc~ 60;
#X obj 493 437 vline~;
#X msg 492 394 1 10 \, 0 60 10;
#X obj 373 486 *~;
#X text 120 9 white noie generator w. vline~ envelope and bandpass
filters for basic drum sounds;
#X text 313 212 snare;
#X text 491 221 kick;
#X text 460 635 tunned noise - the higher the Q the more "tunned";
#X text 425 486 another kick w. osc~;
#X connect 0 0 1 0;
#X connect 1 0 3 0;
#X connect 1 0 3 1;
#X connect 2 0 0 0;
#X connect 2 0 7 0;
#X connect 2 0 26 0;
#X connect 4 0 0 1;
#X connect 5 0 4 0;
#X connect 7 0 30 0;
#X connect 8 0 7 1;
#X connect 9 0 8 0;
#X connect 10 0 22 2;
#X connect 11 0 12 0;
#X connect 12 0 20 0;
#X connect 13 0 21 0;
#X connect 14 0 22 0;
#X connect 15 0 14 1;
#X connect 16 0 15 0;
#X connect 17 0 16 0;
#X connect 17 1 13 0;
#X connect 18 0 17 0;
#X connect 19 0 18 0;
#X connect 20 0 22 1;
#X connect 21 0 11 0;
#X connect 22 0 23 0;
#X connect 22 0 23 1;
#X connect 24 0 14 0;
#X connect 25 0 10 0;
#X connect 26 0 31 0;
#X connect 27 0 26 1;
#X connect 28 0 27 0;
#X connect 29 0 3 1;
#X connect 29 0 3 0;
#X connect 30 0 3 0;
#X connect 30 0 3 1;
#X connect 31 0 29 0;
#X connect 32 0 35 0;
#X connect 33 0 35 1;
#X connect 34 0 33 0;
#X connect 35 0 3 1;
#X connect 35 0 3 0;
