#N canvas 936 71 513 224 10;
#X obj 25 52 send toNetwork;
#X text 120 52 send message straight to multicast on user-specified
port;
#X obj 25 26 receive fromSystem;
#X text 150 27 Here we receive data from the sensors;
#X obj 25 99 receive fromNetwork;
#X text 153 100 Here we update the system settings;
#X obj 25 125 send toSystem;
#X connect 2 0 0 0;
#X connect 4 0 6 0;
