#N canvas 184 376 989 216 10;
#X obj 23 35 receive fromGUI;
#X msg 535 117 list /receiveSlider \$1;
#X obj 23 148 send toNetwork;
#X obj 535 45 receive fromNetwork;
#X obj 535 139 send toGUI;
#X floatatom 23 104 5 0 0 0 - - -;
#X text 119 149 send message straight to multicast on user-specified
port;
#X obj 23 58 list trim;
#X text 125 37 Here we receive data from the GUI;
#X text 155 126 and we route it to the various network possibilities
;
#X msg 23 125 list /touchSlider \$1;
#X text 608 140 Here we update the GUI;
#X text 540 21 Here we update the GUI;
#X obj 23 81 route /touchSlider;
#X text 141 81 route address in the GUI widget;
#X obj 535 71 list trim;
#X obj 535 93 route /receiveSlider;
#X text 680 117 route address in the GUI widget!;
#X text 668 92 OSC address in computer;
#X connect 0 0 7 0;
#X connect 1 0 4 0;
#X connect 3 0 15 0;
#X connect 5 0 10 0;
#X connect 7 0 13 0;
#X connect 10 0 2 0;
#X connect 13 0 5 0;
#X connect 15 0 16 0;
#X connect 16 0 1 0;
