#N canvas 49 23 621 661 10;
#X obj 299 -511 inlet;
#X obj -4 -511 inlet~;
#X obj 299 -445 s \$1-windowSize;
#X obj 309 -488 loadbang;
#X obj 309 -467 f 300;
#X obj -4 -489 s~ in-\$1;
#X obj 14 -198 cnv 15 280 200 empty empty empty 20 12 0 14 -261682
-66577 0;
#X obj 289 -198 cnv 15 280 200 empty empty empty 20 12 0 14 -203904
-66577 0;
#X obj 27 -111 samphold~;
#X obj 73 -84 +~;
#X obj 209 -155 cos~;
#X obj 209 -133 *~ -0.5;
#X obj 209 -112 +~ 0.5;
#X obj 73 -63 tabread4~ \$1-file;
#X obj 117 -262 phasor~ 10;
#X obj 88 -111 *~;
#X obj 194 -32 *~;
#X msg 117 -343 1000 \$1;
#X obj 117 -319 /;
#X obj 117 -366 r \$1-windowSize;
#X obj 103 -132 * 44.1;
#X obj 327 -111 samphold~;
#X obj 373 -84 +~;
#X obj 509 -155 cos~;
#X obj 509 -133 *~ -0.5;
#X obj 509 -112 +~ 0.5;
#X obj 373 -63 tabread4~ \$1-file;
#X obj 388 -111 *~;
#X obj 494 -32 *~;
#X obj 403 -132 * 44.1;
#X obj 331 48 +~;
#X obj 331 70 outlet~;
#X obj 401 -245 +~ 0.5;
#X obj 401 -223 wrap~;
#X obj 27 -156 r~ in-\$1;
#X obj 327 -155 r~ in-\$1;
#X text 223 -181 two identical copies...;
#X msg 96 -451 1 \$1;
#X obj 96 -430 /;
#X msg 96 -409 2 \$1;
#X obj 96 -387 pow;
#X obj 78 -342 pow;
#X obj 75 -365 swap;
#X floatatom 96 -471 5 0 0 0 - - -;
#X text 131 -478 number of equal divisions;
#X text 131 -468 per octave;
#X obj 403 -155 r \$1-windowSize;
#X obj 103 -155 r \$1-windowSize;
#X obj 78 -320 t b f;
#X msg 96 -492 12;
#X obj 96 -514 loadbang;
#X obj 57 -514 inlet;
#X obj 117 -283 * 1;
#X connect 0 0 2 0;
#X connect 1 0 5 0;
#X connect 3 0 4 0;
#X connect 4 0 2 0;
#X connect 8 0 9 0;
#X connect 9 0 13 0;
#X connect 10 0 11 0;
#X connect 11 0 12 0;
#X connect 12 0 16 1;
#X connect 13 0 16 0;
#X connect 14 0 8 1;
#X connect 14 0 10 0;
#X connect 14 0 15 0;
#X connect 14 0 32 0;
#X connect 15 0 9 1;
#X connect 16 0 30 0;
#X connect 17 0 18 0;
#X connect 18 0 52 0;
#X connect 19 0 17 0;
#X connect 20 0 15 1;
#X connect 21 0 22 0;
#X connect 22 0 26 0;
#X connect 23 0 24 0;
#X connect 24 0 25 0;
#X connect 25 0 28 1;
#X connect 26 0 28 0;
#X connect 27 0 22 1;
#X connect 28 0 30 1;
#X connect 29 0 27 1;
#X connect 30 0 31 0;
#X connect 32 0 33 0;
#X connect 33 0 27 0;
#X connect 33 0 21 1;
#X connect 33 0 23 0;
#X connect 34 0 8 0;
#X connect 35 0 21 0;
#X connect 37 0 38 0;
#X connect 38 0 39 0;
#X connect 39 0 40 0;
#X connect 40 0 42 1;
#X connect 41 0 48 0;
#X connect 42 0 41 0;
#X connect 42 1 41 1;
#X connect 43 0 37 0;
#X connect 46 0 29 0;
#X connect 47 0 20 0;
#X connect 48 0 52 0;
#X connect 48 1 52 1;
#X connect 49 0 43 0;
#X connect 50 0 49 0;
#X connect 51 0 42 0;
#X connect 52 0 14 0;
