#N canvas 208 117 815 531 16;
#X obj 136 84 cnv 15 105 30 empty empty empty 20 12 0 14 -4034 -66577
0;
#N canvas 0 23 450 278 (subpatch) 0;
#X array phase 1000 float 0;
#X coords 0 1 999 -1 400 300 1 0 0;
#X restore 343 33 graph;
#X msg 140 87 0;
#X floatatom 33 30 5 0 0 0 - - -;
#X obj 54 179 bng 15 250 50 0 empty empty empty 17 7 0 10 -262144 -1
-1;
#X text 346 391 x = time in samples;
#N canvas 0 23 450 300 ticks 0;
#X obj 16 39 loadbang;
#X msg 16 79 \; phase ylabel -20 1 0 -1 \; phase yticks 0 0.5 2 \;
phase xlabel -1.1 0 250 500 750 1000 \; phase xticks 0 250 2 \;;
#X connect 0 0 1 0;
#X restore 33 244 pd ticks;
#X text 346 418 y = amplitude values in range -1 to 1, f 39;
#X text 96 31 frequency;
#X text 183 86 phase;
#X obj 33 118 phasor~ 100;
#X obj 33 215 tabwrite~ phase;
#X text 76 174 write to table;
#X connect 2 0 10 1;
#X connect 3 0 10 0;
#X connect 4 0 11 0;
#X connect 10 0 11 0;
