#N canvas 481 161 799 752 16;
#N canvas 0 23 434 429 ticks 0;
#X obj 30 30 r filesize;
#X obj 30 100 * 0.25;
#X obj 30 129 t f f f f;
#X obj 31 215 pack f f f f;
#X obj 83 169 * 3;
#X obj 41 170 * 2;
#X obj 129 169 * 4;
#X msg 40 266 \; phase ylabel -20 1 0 -1 \; phase yticks 0 0.5 2 \;
phase xlabel -1.15 0 \$1 \$2 \$3 \$4 \; phase xticks 1 \$1 \$2 \$3
\$4 \;;
#X connect 0 0 1 0;
#X connect 1 0 2 0;
#X connect 2 0 3 0;
#X connect 2 1 5 0;
#X connect 2 2 4 0;
#X connect 2 3 6 0;
#X connect 3 0 7 0;
#X connect 4 0 3 2;
#X connect 5 0 3 1;
#X connect 6 0 3 3;
#X restore 31 296 pd ticks;
#N canvas 0 22 450 278 (subpatch) 0;
#X array phase 88200 float 2;
#X coords 0 1 88200 -1 700 140 1 0 0;
#X restore 31 49 graph;
#N canvas 0 22 450 278 (subpatch) 0;
#X array soundfile 88200 float 2;
#X coords 0 1 88200 -1 700 140 1 0 0;
#X restore 31 49 graph;
#X obj 40 517 cnv 15 55 30 empty empty empty 20 12 0 14 -4034 -66577
0;
#X obj 310 359 cnv 15 150 140 empty empty empty 20 12 0 14 -4034 -66577
0;
#X obj 41 428 samplerate~;
#X msg 41 398 bang;
#X floatatom 41 459 5 0 0 0 - - -;
#X obj 104 615 phasor~;
#X obj 41 675 tabwrite~ phase;
#X obj 121 338 r filesize;
#X obj 41 487 /, f 13;
#X obj 121 368 t b f;
#X obj 41 556 t b f b, f 13;
#X msg 168 585 0, f 1;
#X floatatom 41 520 5 0 0 0 - - -;
#X text 101 521 frequency;
#N canvas 0 23 450 300 load-file 1;
#X obj 44 109 soundfiler;
#X obj 44 50 openpanel;
#X obj 44 157 f;
#X obj 52 137 bng 17 250 50 0 empty empty empty 17 7 0 10 -262144 -1
-1;
#X msg 44 80 read -resize \$1 soundfile;
#X obj 44 248 s filesize;
#X obj 54 218 s phase;
#X msg 54 188 resize \$1;
#X obj 44 21 inlet;
#X connect 0 0 2 0;
#X connect 1 0 4 0;
#X connect 2 0 5 0;
#X connect 2 0 7 0;
#X connect 3 0 2 0;
#X connect 4 0 0 0;
#X connect 7 0 6 0;
#X connect 8 0 1 0;
#X restore 31 265 pd load-file;
#X msg 31 237 bang;
#X obj 352 388 - 3;
#X obj 315 454 +~ 1;
#X obj 315 416 *~ 1;
#X obj 315 506 tabread4~ soundfile;
#X obj 352 361 r filesize;
#X obj 308 567 dac~;
#X obj 111 646 s~ phasor;
#X obj 315 320 r~ phasor;
#X text 467 359 indices start counting on sample n = 1 all the way
to n-2 (due to the interpolation algorithm), f 16;
#X connect 5 0 7 0;
#X connect 6 0 5 0;
#X connect 7 0 11 0;
#X connect 8 0 9 0;
#X connect 8 0 25 0;
#X connect 10 0 12 0;
#X connect 11 0 15 0;
#X connect 12 0 6 0;
#X connect 12 1 11 1;
#X connect 13 0 9 0;
#X connect 13 1 8 0;
#X connect 13 2 14 0;
#X connect 14 0 8 1;
#X connect 15 0 13 0;
#X connect 18 0 17 0;
#X connect 19 0 21 1;
#X connect 20 0 22 0;
#X connect 21 0 20 0;
#X connect 22 0 24 0;
#X connect 22 0 24 1;
#X connect 23 0 19 0;
#X connect 26 0 21 0;
