#N canvas 69 60 1077 942 12;
#X obj 139 550 cnv 15 270 250 empty empty empty 20 12 0 14 -4034 -66577
0;
#X obj 53 259 cnv 15 140 100 empty empty empty 20 12 0 14 -4034 -66577
0;
#N canvas 0 22 450 278 (subpatch) 0;
#X array array1 154510 float 2;
#X coords 0 1 154510 -1 200 140 1 0 0;
#X restore 154 18 graph;
#X obj 48 215 soundfiler;
#X floatatom 48 240 10 0 0 0 - - -;
#X obj 48 109 openpanel;
#X obj 16 88 bng 15 250 50 0 empty empty empty 17 7 0 10 -262144 -1
-1;
#X msg 48 87 bang;
#X text 34 86 =;
#X obj 57 133 print;
#X obj 58 337 send table_size;
#X msg 48 185 read -resize \$1 array1;
#X obj 75 713 phasor~;
#X floatatom 46 502 5 0 0 0 - - -;
#X obj 61 903 dac~;
#X obj 75 865 tabread4~ array1;
#X obj 75 817 +~ 1;
#X obj 75 792 *~;
#X obj 93 768 - 3;
#X obj 66 386 samplerate~;
#X obj 48 409 /;
#X obj 66 363 loadbang;
#X floatatom 46 433 5 0 0 0 - - -;
#X msg 46 457 1 \$1;
#X obj 46 480 /;
#X obj 48 158 symbol;
#X msg 162 663 0;
#X text 192 666 reset phase;
#X obj 69 285 / 16;
#X obj 68 310 send step_length;
#X obj 141 768 *;
#X obj 159 740 r step_length;
#X obj 94 262 r n_steps;
#X obj 75 841 +~ 0, f 7;
#X obj 162 691 bng 15 250 50 0 empty empty empty 17 7 0 10 -262144
-1 -1;
#X obj 76 530 * 16;
#X obj 96 479 r n_steps;
#X obj 48 59 s n_steps;
#X floatatom 16 12 5 0 0 0 - - -;
#X obj 162 609 metro;
#X obj 162 588 tgl 15 0 empty empty empty 17 7 0 10 -262144 -1 -1 1
1;
#X obj 16 35 t b f;
#X obj 96 504 t b f;
#X floatatom 85 559 5 0 0 0 - - -;
#X floatatom 208 610 5 0 0 0 - - -;
#X obj 194 584 /;
#X msg 194 560 1000 \$1;
#X obj 141 711 list-abs/list-wrandom;
#X obj 285 686 array get probs;
#X obj 277 563 r n_steps;
#X obj 277 590 array size probs;
#X obj 162 634 t b b, f 18;
#X obj 243 330 cnv 15 240 180 empty empty empty 20 12 0 14 -4034 -66577
0;
#N canvas 0 22 450 278 (subpatch) 0;
#X array probs 32 float 2;
#X coords 0 1 32 0 200 140 1 0 0;
#X restore 263 353 graph;
#X connect 3 0 4 0;
#X connect 4 0 10 0;
#X connect 4 0 20 0;
#X connect 4 0 28 0;
#X connect 5 0 9 0;
#X connect 5 0 25 0;
#X connect 6 0 25 0;
#X connect 7 0 5 0;
#X connect 11 0 3 0;
#X connect 12 0 17 0;
#X connect 13 0 35 0;
#X connect 15 0 14 0;
#X connect 15 0 14 1;
#X connect 16 0 33 0;
#X connect 17 0 16 0;
#X connect 18 0 17 1;
#X connect 19 0 20 1;
#X connect 20 0 22 0;
#X connect 21 0 19 0;
#X connect 22 0 23 0;
#X connect 23 0 24 0;
#X connect 24 0 13 0;
#X connect 25 0 11 0;
#X connect 26 0 12 1;
#X connect 26 0 34 0;
#X connect 28 0 29 0;
#X connect 30 0 33 1;
#X connect 31 0 30 1;
#X connect 31 0 18 0;
#X connect 32 0 28 1;
#X connect 33 0 15 0;
#X connect 34 0 47 0;
#X connect 35 0 12 0;
#X connect 35 0 43 0;
#X connect 35 0 46 0;
#X connect 36 0 42 0;
#X connect 38 0 41 0;
#X connect 39 0 51 0;
#X connect 40 0 39 0;
#X connect 41 0 6 0;
#X connect 41 1 37 0;
#X connect 42 0 35 0;
#X connect 42 1 35 1;
#X connect 45 0 44 0;
#X connect 45 0 39 1;
#X connect 46 0 45 0;
#X connect 47 0 30 0;
#X connect 48 0 47 1;
#X connect 49 0 50 0;
#X connect 51 0 26 0;
#X connect 51 1 48 0;
