#N canvas 15 23 1133 955 10;
#N canvas 0 22 450 300 (subpatch) 0;
#X array soundfile 492032 float 0;
#X coords 0 1 492031 -1 200 70 1 0 0;
#X restore 24 29 graph;
#X obj 380 95 cnv 15 180 25 empty empty empty 20 12 0 14 -261234 -66577
0;
#X obj 354 148 * 1;
#X obj 390 123 t b f;
#X floatatom 390 100 5 0 0 1 - - -;
#X text 427 100 time stretch factor;
#X obj 24 106 cnv 15 135 25 empty empty empty 20 12 0 14 -261234 -66577
0;
#X obj 28 177 soundfiler;
#X obj 28 135 openpanel;
#X obj 28 111 bng 15 250 50 0 empty empty empty 17 7 0 10 -262144 -1
-1;
#X obj 28 217 f;
#X obj 36 197 bng 17 250 50 0 empty empty empty 17 7 0 10 -262144 -1
-1;
#X text 50 110 open a soundfile;
#X obj 278 318 dac~;
#X msg 28 154 read -resize \$1 soundfile;
#X obj 28 239 s soundfile-size;
#X obj 133 175 loadbang;
#X obj 24 262 cnv 15 200 100 empty empty empty 20 12 0 14 -204786 -66577
0;
#X obj 133 239 s loop-size;
#X text 33 269 the loop-size is the size in miliseconds of the chunk
we are using to loop through the original file. experiment with different
sizes since they have a considerable effect on the audio., f 29;
#X obj 133 217 f 300;
#X obj 288 270 s~ read-point;
#N canvas 17 23 1169 924 time-stretch 0;
#X obj 22 176 cnv 15 280 200 empty empty empty 20 12 0 14 -261682 -66577
0;
#X obj 303 176 cnv 15 280 200 empty empty empty 20 12 0 14 -203904
-66577 0;
#X obj 46 263 samphold~;
#X obj 92 290 +~;
#X obj 228 219 cos~;
#X obj 228 241 *~ -0.5;
#X obj 228 262 +~ 0.5;
#X obj 136 82 phasor~ 10;
#X obj 107 263 *~;
#X obj 213 342 *~;
#X msg 136 39 1000 \$1;
#X obj 136 60 /;
#X obj 122 242 * 44.1;
#X obj 346 263 samphold~;
#X obj 392 290 +~;
#X obj 528 219 cos~;
#X obj 528 241 *~ -0.5;
#X obj 528 262 +~ 0.5;
#X obj 407 263 *~;
#X obj 513 342 *~;
#X obj 422 242 * 44.1;
#X obj 345 400 +~;
#X obj 345 422 outlet~;
#X obj 421 140 wrap~;
#X text 242 178 two identical copies...;
#X obj 422 219 r loop-size;
#X obj 122 220 r loop-size;
#X obj 92 311 tabread4~ soundfile;
#X obj 392 311 tabread4~ soundfile;
#X obj 136 16 r loop-size;
#X obj 46 185 r~ read-point;
#X obj 346 199 r~ read-point;
#X obj 421 118 +~ 0.5;
#X connect 2 0 3 0;
#X connect 3 0 27 0;
#X connect 4 0 5 0;
#X connect 5 0 6 0;
#X connect 6 0 9 1;
#X connect 7 0 2 1;
#X connect 7 0 4 0;
#X connect 7 0 8 0;
#X connect 7 0 32 0;
#X connect 8 0 3 1;
#X connect 9 0 21 0;
#X connect 10 0 11 0;
#X connect 11 0 7 0;
#X connect 12 0 8 1;
#X connect 13 0 14 0;
#X connect 14 0 28 0;
#X connect 15 0 16 0;
#X connect 16 0 17 0;
#X connect 17 0 19 1;
#X connect 18 0 14 1;
#X connect 19 0 21 1;
#X connect 20 0 18 1;
#X connect 21 0 22 0;
#X connect 23 0 18 0;
#X connect 23 0 13 1;
#X connect 23 0 15 0;
#X connect 25 0 20 0;
#X connect 26 0 12 0;
#X connect 27 0 9 0;
#X connect 28 0 19 0;
#X connect 29 0 10 0;
#X connect 30 0 2 0;
#X connect 31 0 13 0;
#X connect 32 0 23 0;
#X restore 288 292 pd time-stretch;
#X floatatom 141 197 5 0 0 1 _ms. - -;
#X obj 328 92 /;
#X obj 288 250 vline~;
#X obj 348 71 samplerate~;
#X obj 309 188 pack f f;
#X obj 288 209 list;
#X msg 288 230 0 0 \, \$1 \$2;
#X obj 309 51 t f f b;
#X obj 328 112 * 1000;
#X obj 264 165 t b b;
#X obj 309 31 r soundfile-size;
#X obj 205 134 cnv 15 80 25 empty empty empty 20 12 0 14 -261234 -66577
0;
#X obj 264 139 bng 15 250 50 0 empty empty empty 17 7 0 10 -262144
-1 -1;
#X text 206 138 play it!;
#X connect 2 0 27 1;
#X connect 3 0 2 0;
#X connect 3 1 2 1;
#X connect 4 0 3 0;
#X connect 7 0 10 0;
#X connect 8 0 14 0;
#X connect 9 0 8 0;
#X connect 10 0 15 0;
#X connect 11 0 10 0;
#X connect 14 0 7 0;
#X connect 16 0 20 0;
#X connect 20 0 18 0;
#X connect 22 0 13 0;
#X connect 22 0 13 1;
#X connect 23 0 20 0;
#X connect 24 0 31 0;
#X connect 25 0 21 0;
#X connect 26 0 24 1;
#X connect 27 0 28 1;
#X connect 28 0 29 0;
#X connect 29 0 25 0;
#X connect 30 0 27 0;
#X connect 30 1 24 0;
#X connect 30 2 26 0;
#X connect 31 0 2 0;
#X connect 32 0 28 0;
#X connect 32 1 27 0;
#X connect 33 0 30 0;
#X connect 35 0 32 0;
