#N canvas 41 23 1232 899 10;
#N canvas 0 22 450 300 (subpatch) 0;
#X array soundfile 492032 float 2;
#X coords 0 1 492032 -1 200 170 1 0 0;
#X restore 32 23 graph;
#X obj 364 258 - 3;
#X obj 343 301 +~ 1;
#X obj 343 280 *~ 1;
#X obj 343 216 phasor~;
#X obj 343 118 /;
#X obj 343 140 f;
#X obj 374 187 cnv 15 180 25 empty empty empty 20 12 0 14 -261234 -66577
0;
#X msg 382 191 0;
#X text 409 191 reset (start file);
#X obj 31 203 cnv 15 135 25 empty empty empty 20 12 0 14 -261234 -66577
0;
#X obj 35 279 soundfiler;
#X obj 35 232 openpanel;
#X obj 35 208 bng 15 250 50 0 empty empty empty 17 7 0 10 -262144 -1
-1;
#X obj 35 319 f;
#X obj 43 299 bng 17 250 50 0 empty empty empty 17 7 0 10 -262144 -1
-1;
#X text 57 207 open a soundfile;
#X obj 245 158 cnv 15 170 25 empty empty empty 20 12 0 14 -204786 -66577
0;
#X obj 340 408 dac~;
#X floatatom 351 161 0 0 0 0 - - -;
#X text 250 161 original speed:;
#X obj 340 353 cnv 15 220 25 empty empty empty 20 12 0 14 -261234 -66577
0;
#X floatatom 350 358 5 0 0 1 - - -;
#X text 388 357 transposition in semitones;
#X msg 35 256 read -resize \$1 soundfile;
#X obj 35 341 s soundfile-size;
#N canvas -4 23 1280 979 pitch-shift 0;
#X obj 13 -95 cnv 15 400 300 empty empty empty 20 12 0 14 -204786 -66577
0;
#X obj 177 325 cnv 15 280 200 empty empty empty 20 12 0 14 -261682
-66577 0;
#X obj 452 325 cnv 15 280 200 empty empty empty 20 12 0 14 -203904
-66577 0;
#X obj 190 412 samphold~;
#X obj 236 439 +~;
#X obj 372 368 cos~;
#X obj 372 390 *~ -0.5;
#X obj 372 411 +~ 0.5;
#X obj 439 224 phasor~ 10;
#X obj 251 412 *~;
#X obj 357 491 *~;
#X msg 439 143 1000 \$1;
#X obj 439 167 /;
#X obj 266 391 * 44.1;
#X obj 490 412 samphold~;
#X obj 536 439 +~;
#X obj 672 368 cos~;
#X obj 672 390 *~ -0.5;
#X obj 672 411 +~ 0.5;
#X obj 551 412 *~;
#X obj 657 491 *~;
#X obj 566 391 * 44.1;
#X obj 494 571 +~;
#X obj 494 593 outlet~;
#X obj 564 278 +~ 0.5;
#X obj 564 300 wrap~;
#X text 386 342 two identical copies...;
#X msg 74 -22 1 \$1;
#X obj 74 -1 /;
#X msg 74 19 2 \$1;
#X obj 74 41 pow;
#X obj 56 86 pow;
#X obj 53 63 swap;
#X floatatom 74 -42 5 0 0 0 - - -;
#X obj 56 108 t b f;
#X msg 74 -63 12;
#X obj 74 -85 loadbang;
#X obj 35 -85 inlet;
#X obj 439 203 * 1;
#X obj 160 357 r~ read-point;
#X obj 470 368 r~ read-point;
#X obj 566 368 r loop-size;
#X obj 266 367 r loop-size;
#X obj 236 460 tabread4~ soundfile;
#X obj 536 460 tabread4~ soundfile;
#X obj 439 122 r loop-size;
#X text 107 -62 number of equal divisions per octave;
#X text 112 60 The pitch shifting exercise is essentially identical...
we just need to change the speed of the phasor~ to transpose the copies
accordingly!;
#X connect 3 0 4 0;
#X connect 4 0 43 0;
#X connect 5 0 6 0;
#X connect 6 0 7 0;
#X connect 7 0 10 1;
#X connect 8 0 3 1;
#X connect 8 0 5 0;
#X connect 8 0 9 0;
#X connect 8 0 24 0;
#X connect 9 0 4 1;
#X connect 10 0 22 0;
#X connect 11 0 12 0;
#X connect 12 0 38 0;
#X connect 13 0 9 1;
#X connect 14 0 15 0;
#X connect 15 0 44 0;
#X connect 16 0 17 0;
#X connect 17 0 18 0;
#X connect 18 0 20 1;
#X connect 19 0 15 1;
#X connect 20 0 22 1;
#X connect 21 0 19 1;
#X connect 22 0 23 0;
#X connect 24 0 25 0;
#X connect 25 0 19 0;
#X connect 25 0 14 1;
#X connect 25 0 16 0;
#X connect 27 0 28 0;
#X connect 28 0 29 0;
#X connect 29 0 30 0;
#X connect 30 0 32 1;
#X connect 31 0 34 0;
#X connect 32 0 31 0;
#X connect 32 1 31 1;
#X connect 33 0 27 0;
#X connect 34 0 38 0;
#X connect 34 1 38 1;
#X connect 35 0 33 0;
#X connect 36 0 35 0;
#X connect 37 0 32 0;
#X connect 38 0 8 0;
#X connect 39 0 3 0;
#X connect 40 0 14 0;
#X connect 41 0 21 0;
#X connect 42 0 13 0;
#X connect 43 0 10 0;
#X connect 44 0 20 0;
#X connect 45 0 11 0;
#X restore 350 382 pd pitch-shift;
#X obj 364 237 r soundfile-size;
#X obj 343 322 s~ read-point;
#X obj 148 286 loadbang;
#X obj 148 350 s loop-size;
#X obj 148 328 f 300;
#X floatatom 156 308 5 0 0 1 _ms. - -;
#X obj 343 94 samplerate~;
#X obj 343 52 r soundfile-size;
#X obj 343 73 t b f;
#X connect 1 0 3 1;
#X connect 2 0 28 0;
#X connect 3 0 2 0;
#X connect 4 0 3 0;
#X connect 5 0 6 0;
#X connect 6 0 19 0;
#X connect 6 0 4 0;
#X connect 8 0 4 1;
#X connect 11 0 14 0;
#X connect 12 0 24 0;
#X connect 13 0 12 0;
#X connect 14 0 25 0;
#X connect 15 0 14 0;
#X connect 22 0 26 0;
#X connect 24 0 11 0;
#X connect 26 0 18 0;
#X connect 26 0 18 1;
#X connect 27 0 1 0;
#X connect 29 0 31 0;
#X connect 31 0 30 0;
#X connect 32 0 31 0;
#X connect 33 0 5 0;
#X connect 34 0 35 0;
#X connect 35 0 33 0;
#X connect 35 1 5 1;
