#N canvas 380 392 442 424 10;
#X obj 14 248 samphold~;
#X obj 60 275 +~;
#X obj 198 193 cos~;
#X obj 198 215 *~ -0.5;
#X obj 198 236 +~ 0.5;
#X obj 183 327 *~;
#X obj 60 296 tabread4~ \$1-file;
#X obj 70 77 phasor~ 10;
#X obj 280 190 samphold~;
#X obj 70 5 sig~ 1000;
#X obj 70 54 /~;
#X obj 90 226 *~ 44.1;
#X obj 75 247 *~;
#X obj 90 203 r~ \$0-windowSize;
#X obj 85 28 r~ \$0-windowSize;
#X obj 280 213 s~ \$0-windowSize;
#X msg 296 151 reset;
#X obj 296 131 loadbang;
#X obj 280 68 r \$1-sigma;
#X obj 373 68 r \$1-mean;
#X obj 14 4 r~ in-\$1;
#X obj 183 376 throw~ out-\$1;
#X obj 183 352 *~ 0.1;
#X obj 280 110 abs~;
#X obj 280 89 a.gauss~ 250 300;
#X connect 0 0 1 0;
#X connect 1 0 6 0;
#X connect 2 0 3 0;
#X connect 3 0 4 0;
#X connect 4 0 5 1;
#X connect 5 0 22 0;
#X connect 6 0 5 0;
#X connect 7 0 0 1;
#X connect 7 0 2 0;
#X connect 7 0 8 1;
#X connect 7 0 12 0;
#X connect 8 0 15 0;
#X connect 9 0 10 0;
#X connect 10 0 7 0;
#X connect 11 0 12 1;
#X connect 12 0 1 1;
#X connect 13 0 11 0;
#X connect 14 0 10 1;
#X connect 16 0 8 0;
#X connect 17 0 16 0;
#X connect 18 0 24 0;
#X connect 19 0 24 1;
#X connect 20 0 0 0;
#X connect 22 0 21 0;
#X connect 23 0 8 0;
#X connect 24 0 23 0;
