#N canvas 806 210 937 613 16;
#X msg 130 89 bang;
#X obj 130 125 t b b b;
#X obj 197 199 random 1000;
#X obj 197 233 / 1000;
#X floatatom 197 266 5 0 0 0 - - -;
#X msg 159 158 -1;
#X obj 131 227 + 1;
#X obj 130 257 t f f;
#X msg 187 403 bang;
#X floatatom 187 469 5 0 0 0 - - -;
#X floatatom 130 338 5 0 0 0 - - -;
#X obj 131 194 f;
#X obj 187 435 f;
#X obj 130 300 tabread 12probabilidades;
#X obj 287 402 table 12probabilidades;
#X obj 110 433 s next;
#X obj 64 159 r next;
#X obj 130 368 moses, f 6;
#X msg 110 404 bang;
#X msg 286 331 \; 12probabilidades 0 0.2 0.25 0.3 0.4 0.45 0.47 0.65
0.7 0.75 0.9 0.95 1;
#X text 192 56 at each bang (new note) we read the table until we find
an index with p[i]>=our random value;
#X text 203 158 reset counter;
#X text 318 199 generate a random value [0-1];
#X text 386 304 the values in this table are already incremental;
#X floatatom 40 271 5 0 0 0 - - -;
#X connect 0 0 1 0;
#X connect 1 0 11 0;
#X connect 1 1 5 0;
#X connect 1 2 2 0;
#X connect 2 0 3 0;
#X connect 3 0 4 0;
#X connect 4 0 17 1;
#X connect 5 0 11 1;
#X connect 6 0 11 1;
#X connect 6 0 7 0;
#X connect 7 0 13 0;
#X connect 7 0 24 0;
#X connect 7 1 12 1;
#X connect 8 0 12 0;
#X connect 10 0 17 0;
#X connect 11 0 6 0;
#X connect 12 0 9 0;
#X connect 13 0 10 0;
#X connect 16 0 11 0;
#X connect 17 0 18 0;
#X connect 17 1 8 0;
#X connect 18 0 15 0;
