#N canvas 141 23 1020 640 12;
#X obj 326 102 inlet;
#X obj 326 178 % 12;
#X text 392 98 entra una nota;
#X obj 359 368 pack 1 1;
#X obj 359 279 i;
#X obj 359 307 + 1;
#X obj 575 102 random 100;
#X msg 577 65 bang;
#X floatatom 667 161 5 0 0 0 - - -;
#X obj 667 79 hradio 20 1 0 12 empty empty empty 0 -8 0 10 -262144
-1 -1 0;
#X floatatom 667 112 5 0 0 0 - - -;
#X obj 521 190 i;
#X obj 521 219 + 1;
#X floatatom 521 249 5 0 0 0 - - -;
#X obj 26 227 s contadores;
#X msg 26 198 0;
#X obj 152 62 loadbang;
#X obj 541 145 r contadores;
#X obj 25 271 table totalnotas;
#X msg 25 100 \; totalnotas resize 12;
#X msg 26 148 \; totalnotas const 0;
#X obj 359 251 tabread totalnotas;
#X obj 359 397 tabwrite totalnotas;
#N canvas 0 115 986 787 sumaynormal 0;
#X obj 125 28 inlet;
#X msg 602 106 0;
#X msg 558 106 1;
#X msg 515 106 2;
#X msg 472 106 3;
#X msg 427 106 4;
#X msg 384 106 5;
#X msg 341 106 6;
#X msg 297 105 7;
#X msg 253 105 8;
#X msg 209 105 9;
#X msg 167 105 10;
#X msg 125 104 11;
#X obj 558 194 +;
#X obj 602 128 tabread totalnotas;
#X obj 558 172 tabread totalnotas;
#X obj 125 55 t b b b b b b b b b b b b;
#X msg 585 237 \$1 1;
#X obj 558 217 t f f;
#X obj 630 215 tabwrite totalnotasinc;
#X obj 602 150 t f f;
#X msg 630 193 \$1 0;
#X obj 585 259 tabwrite totalnotasinc;
#X obj 516 303 +;
#X obj 516 281 tabread totalnotas;
#X obj 516 325 t f f;
#X obj 543 369 tabwrite totalnotasinc;
#X msg 543 347 \$1 2;
#X obj 472 410 +;
#X obj 472 389 tabread totalnotas;
#X obj 472 432 t f f;
#X obj 499 473 tabwrite totalnotasinc;
#X msg 499 452 \$1 3;
#X obj 427 515 +;
#X obj 427 493 tabread totalnotas;
#X obj 427 537 t f f;
#X obj 454 581 tabwrite totalnotasinc;
#X msg 454 560 \$1 4;
#X obj 384 626 +;
#X obj 384 604 tabread totalnotas;
#X obj 384 648 t f f;
#X obj 411 692 tabwrite totalnotasinc;
#X msg 411 671 \$1 5;
#X obj 341 150 +;
#X obj 341 128 tabread totalnotas;
#X obj 341 172 t f f;
#X obj 368 216 tabwrite totalnotasinc;
#X msg 368 195 \$1 6;
#X obj 297 259 +;
#X obj 297 237 tabread totalnotas;
#X obj 297 281 t f f;
#X obj 324 325 tabwrite totalnotasinc;
#X msg 324 304 \$1 7;
#X obj 253 368 +;
#X obj 253 346 tabread totalnotas;
#X obj 253 390 t f f;
#X obj 280 434 tabwrite totalnotasinc;
#X msg 280 413 \$1 8;
#X obj 209 479 +;
#X obj 209 457 tabread totalnotas;
#X obj 209 501 t f f;
#X obj 236 545 tabwrite totalnotasinc;
#X msg 236 524 \$1 9;
#X obj 167 589 +;
#X obj 167 567 tabread totalnotas;
#X obj 167 611 t f f;
#X obj 194 655 tabwrite totalnotasinc;
#X msg 194 634 \$1 10;
#X obj 125 161 +;
#X obj 125 139 tabread totalnotas;
#X obj 152 227 tabwrite totalnotasinc;
#X msg 152 206 \$1 11;
#X msg 125 265 \; totalnotasinc normalize;
#X obj 125 183 t b f;
#X connect 0 0 16 0;
#X connect 1 0 14 0;
#X connect 2 0 15 0;
#X connect 3 0 24 0;
#X connect 4 0 29 0;
#X connect 5 0 34 0;
#X connect 6 0 39 0;
#X connect 7 0 44 0;
#X connect 8 0 49 0;
#X connect 9 0 54 0;
#X connect 10 0 59 0;
#X connect 11 0 64 0;
#X connect 12 0 69 0;
#X connect 13 0 18 0;
#X connect 14 0 20 0;
#X connect 15 0 13 0;
#X connect 16 0 12 0;
#X connect 16 1 11 0;
#X connect 16 2 10 0;
#X connect 16 3 9 0;
#X connect 16 4 8 0;
#X connect 16 5 7 0;
#X connect 16 6 6 0;
#X connect 16 7 5 0;
#X connect 16 8 4 0;
#X connect 16 9 3 0;
#X connect 16 10 2 0;
#X connect 16 11 1 0;
#X connect 17 0 22 0;
#X connect 18 0 23 1;
#X connect 18 1 17 0;
#X connect 20 0 13 1;
#X connect 20 1 21 0;
#X connect 21 0 19 0;
#X connect 23 0 25 0;
#X connect 24 0 23 0;
#X connect 25 0 28 1;
#X connect 25 1 27 0;
#X connect 27 0 26 0;
#X connect 28 0 30 0;
#X connect 29 0 28 0;
#X connect 30 0 33 1;
#X connect 30 1 32 0;
#X connect 32 0 31 0;
#X connect 33 0 35 0;
#X connect 34 0 33 0;
#X connect 35 0 38 1;
#X connect 35 1 37 0;
#X connect 37 0 36 0;
#X connect 38 0 40 0;
#X connect 39 0 38 0;
#X connect 40 0 43 1;
#X connect 40 1 42 0;
#X connect 42 0 41 0;
#X connect 43 0 45 0;
#X connect 44 0 43 0;
#X connect 45 0 48 1;
#X connect 45 1 47 0;
#X connect 47 0 46 0;
#X connect 48 0 50 0;
#X connect 49 0 48 0;
#X connect 50 0 53 1;
#X connect 50 1 52 0;
#X connect 52 0 51 0;
#X connect 53 0 55 0;
#X connect 54 0 53 0;
#X connect 55 0 58 1;
#X connect 55 1 57 0;
#X connect 57 0 56 0;
#X connect 58 0 60 0;
#X connect 59 0 58 0;
#X connect 60 0 63 1;
#X connect 60 1 62 0;
#X connect 62 0 61 0;
#X connect 63 0 65 0;
#X connect 64 0 63 0;
#X connect 65 0 68 1;
#X connect 65 1 67 0;
#X connect 67 0 66 0;
#X connect 68 0 73 0;
#X connect 69 0 68 0;
#X connect 71 0 70 0;
#X connect 73 0 72 0;
#X connect 73 1 71 0;
#X restore 34 427 pd sumaynormal;
#X obj 26 300 table totalnotasinc;
#X msg 163 100 \; totalnotasinc resize 12;
#X msg 164 148 \; totalnotasinc const 0;
#X obj 667 137 tabread totalnotasinc;
#X text 32 447 una vez se ha incrementado el valor actual \, en la
tabla de contadores \, se van añadiendo los valores de cada índice
\, de forma que la última pos (11) contenga la suma de todas las anteriores.
Después normalizamos a 1 (de forma que la última pos. valdrá 1);
#X text 576 218 este pacth utiliza 2 tablas de 12 pos c/u totalnotas
va contando e incrementando totalnotasinc va sumando y normalizando
los 12 valores;
#X obj 326 215 t b f f;
#X obj 326 137 t f b;
#X msg 581 357 bang;
#X floatatom 579 429 5 0 0 0 - - -;
#X obj 581 390 UsaTable12;
#X connect 0 0 31 0;
#X connect 1 0 30 0;
#X connect 3 0 22 0;
#X connect 4 0 5 0;
#X connect 5 0 4 1;
#X connect 5 0 3 0;
#X connect 6 0 31 0;
#X connect 7 0 6 0;
#X connect 9 0 10 0;
#X connect 10 0 27 0;
#X connect 11 0 12 0;
#X connect 12 0 13 0;
#X connect 12 0 11 1;
#X connect 15 0 14 0;
#X connect 16 0 19 0;
#X connect 16 0 20 0;
#X connect 16 0 15 0;
#X connect 16 0 25 0;
#X connect 16 0 26 0;
#X connect 17 0 11 1;
#X connect 17 0 4 1;
#X connect 21 0 4 0;
#X connect 27 0 8 0;
#X connect 30 0 23 0;
#X connect 30 1 21 0;
#X connect 30 2 3 1;
#X connect 31 0 1 0;
#X connect 31 1 11 0;
#X connect 32 0 34 0;
#X connect 34 0 33 0;
