#N canvas 485 70 764 579 10;
#X obj 52 74 until;
#X obj 121 105 i;
#X obj 147 104 + 1;
#X obj 52 127 pack;
#X obj 228 67 until;
#X obj 228 93 i;
#X obj 256 92 + 1;
#X obj 52 150 tabwrite testtable;
#N canvas 0 22 450 278 (subpatch) 0;
#X array testtable 100 float 3;
#A 0 64 86 59 8 38 64 16 89 7 93 42 72 81 99 61 21 31 23 32 5 58 22
67 44 68 69 58 60 44 45 1 23 24 45 17 1 70 73 76 7 40 41 21 50 67 64
91 81 30 65 47 41 24 68 90 13 39 99 89 66 30 85 5 6 90 49 8 26 28 13
10 49 36 91 80 84 66 95 71 66 6 24 45 11 45 72 94 63 58 19 63 40 69
34 76 84 30 70 58 11;
#X coords 0 99 99 0 200 140 1 0 0;
#X restore 51 264 graph;
#X obj 52 104 random 100;
#X obj 228 115 tabread testtable;
#X obj 12 150 print;
#X msg 121 83 -1;
#X msg 52 32 100;
#X msg 268 67 -1;
#X obj 52 52 t f b;
#X msg 228 16 100;
#X obj 366 159 +;
#X obj 228 139 print;
#X obj 228 41 t f b b;
#X msg 381 58 0;
#X obj 366 181 f;
#X floatatom 365 207 5 0 0 0 - - -;
#X obj 366 228 / 100;
#X floatatom 366 250 5 0 0 0 - - -;
#X connect 0 0 1 0;
#X connect 0 0 9 0;
#X connect 1 0 2 0;
#X connect 1 0 3 1;
#X connect 2 0 1 1;
#X connect 3 0 7 0;
#X connect 3 0 11 0;
#X connect 4 0 5 0;
#X connect 5 0 6 0;
#X connect 5 0 10 0;
#X connect 6 0 5 1;
#X connect 9 0 3 0;
#X connect 10 0 18 0;
#X connect 10 0 17 0;
#X connect 12 0 1 0;
#X connect 13 0 15 0;
#X connect 14 0 5 0;
#X connect 15 0 0 0;
#X connect 15 1 12 0;
#X connect 16 0 19 0;
#X connect 17 0 21 0;
#X connect 19 0 4 0;
#X connect 19 1 14 0;
#X connect 19 2 20 0;
#X connect 20 0 17 1;
#X connect 21 0 17 1;
#X connect 21 0 22 0;
#X connect 22 0 23 0;
#X connect 23 0 24 0;
