#N canvas 487 88 714 722 16;
#X text 47 32 para utilizar el patch anterior \, ahora generaremos
un num. aleatorio entre 0 y 1 \, que utilizaremos para determinar que
nota vamos a sacar [0-11];
#X msg 123 124 bang;
#X obj 123 160 t b b b;
#X obj 190 196 random 1000;
#X obj 190 230 / 1000;
#X floatatom 190 263 5 0 0 0 - - -;
#X msg 147 196 -1;
#X obj 124 262 + 1;
#X floatatom 124 326 5 0 0 0 - - -;
#X obj 124 360 t f f;
#X obj 124 454 <;
#X msg 171 550 bang;
#X obj 171 650 outlet;
#X floatatom 171 616 5 0 0 0 - - -;
#X floatatom 124 423 5 0 0 0 - - -;
#X floatatom 124 486 5 0 0 0 - - -;
#X obj 124 518 sel 1;
#X obj 124 229 f;
#X obj 171 582 f;
#X msg 48 250 bang;
#X obj 123 92 inlet;
#X obj 124 393 tabread totalnotasinc;
#X obj 124 294 t f f;
#X connect 1 0 2 0;
#X connect 2 0 17 0;
#X connect 2 1 6 0;
#X connect 2 2 3 0;
#X connect 3 0 4 0;
#X connect 4 0 5 0;
#X connect 5 0 10 1;
#X connect 6 0 17 1;
#X connect 7 0 17 1;
#X connect 7 0 22 0;
#X connect 8 0 9 0;
#X connect 9 0 21 0;
#X connect 9 1 18 1;
#X connect 10 0 15 0;
#X connect 11 0 18 0;
#X connect 13 0 12 0;
#X connect 14 0 10 0;
#X connect 15 0 16 0;
#X connect 16 0 19 0;
#X connect 16 1 11 0;
#X connect 17 0 7 0;
#X connect 18 0 13 0;
#X connect 19 0 17 0;
#X connect 20 0 1 0;
#X connect 21 0 14 0;
#X connect 22 0 8 0;
#X connect 22 1 17 1;
