#N canvas 431 266 886 506 10;
#X text 37 50 Channel messages;
#X text 107 86 Note on/off;
#X text 140 118 Polyphonic Key;
#X text 115 144 Channel pressure;
#X text 105 177 Pitchbend;
#X text 104 207 Program Change;
#X text 104 240 Control Change;
#X text 41 293 System Messages;
#X obj 37 82 noteout 1;
#X obj 37 114 polytouchout 1;
#X obj 38 142 touchout 1;
#X obj 38 175 bendout 1;
#X obj 39 205 pgmout 1;
#X obj 39 239 ctlout 1;
#X obj 43 347 midiout;
#X text 130 22 MIDI output;
#X text 273 50 MIDI utilites;
#X obj 274 81 makenote 64 500;
#X text 398 85 Create noteoff event after spec time;
