#N canvas 533 262 1012 934 24;
#X obj 37 249 notein 1;
#X obj 39 541 ctlin 1;
#X obj 37 483 pgmin 1;
#X obj 36 304 polytouchin 1;
#X text 36 207 Channel messages;
#X text 258 252 Note on/off;
#X text 254 307 Polyphonic Key;
#X text 254 361 Channel pressure;
#X obj 37 421 bendin 1;
#X text 257 423 Pitchbend;
#X text 257 481 Program Change;
#X text 253 539 Control Change;
#X text 521 205 Poly (last outlet is channelnr.);
#X obj 526 365 touchin;
#X obj 526 252 notein;
#X obj 525 307 polytouchin;
#X obj 526 424 bendin;
#X obj 37 362 touchin 1;
#X obj 526 486 pgmin;
#X obj 528 544 ctlin;
#X obj 38 683 sysexin;
#X obj 39 733 midiin;
#X text 35 632 System Messages;
#X text 330 630 MIDI utilities;
#X obj 334 754 stripnote;
#X text 503 754 Remove noteoff from stream;
#X obj 334 816 poly 8;
#X text 445 818 Dynamic voice allocation;
#X obj 336 875 bag;
#X obj 29 67 noteout;
#X msg 29 21 64 120;
#X text 29 142 Other MIDI objects;
#X text 28 169 ============================;
#X text 138 21 format and send a note through MIDI (pitch + velocity)
;
#X obj 334 694 makenote;
#X text 498 690 schedules note-off messages;
#X connect 30 0 29 0;
