#N canvas 1139 389 404 439 12;
#X obj 33 34 tgl 15 0 empty empty empty 17 7 0 10 -262144 -1 -1 0 1
;
#X obj 33 83 random 24;
#X obj 33 334 noteout, f 19;
#X obj 33 109 + 36;
#X floatatom 100 26 5 0 0 0 - - -;
#X obj 163 276 * 0.9;
#X obj 93 186 % 12;
#X obj 33 161 t f f, f 9;
#X text 72 109 midi notes;
#X obj 33 186 div 12;
#X floatatom 100 213 5 0 0 0 - - -;
#X floatatom 42 213 5 0 0 0 - - -;
#X obj 33 242 * 12;
#X obj 33 267 +, f 9;
#X floatatom 41 135 5 0 0 0 - - -;
#X obj 33 57 metro 1000;
#X text 144 181 outputs octave and pitch class [0-11], f 20;
#X obj 33 302 makenote 60 100 500;
#X floatatom 314 186 5 0 0 0 - - -;
#X connect 0 0 15 0;
#X connect 1 0 3 0;
#X connect 3 0 7 0;
#X connect 3 0 14 0;
#X connect 4 0 15 1;
#X connect 4 0 18 0;
#X connect 5 0 17 2;
#X connect 6 0 10 0;
#X connect 6 0 13 1;
#X connect 7 0 9 0;
#X connect 7 1 6 0;
#X connect 9 0 11 0;
#X connect 9 0 12 0;
#X connect 12 0 13 0;
#X connect 13 0 17 0;
#X connect 15 0 1 0;
#X connect 17 0 2 0;
#X connect 17 1 2 1;
#X connect 18 0 5 0;
