#N canvas 1139 389 404 439 12;
#X obj 33 34 tgl 15 0 empty empty empty 17 7 0 10 #fcfcfc #000000 #000000 0 1;
#X obj 33 183 random 24;
#X obj 33 434 noteout, f 19;
#X obj 33 209 + 36;
#X floatatom 100 26 5 0 0 0 - - - 0;
#X obj 163 376 * 0.9;
#X obj 93 286 % 12;
#X obj 33 261 t f f, f 9;
#X text 72 209 midi notes;
#X obj 33 286 div 12;
#X floatatom 100 313 5 0 0 0 - - - 0;
#X floatatom 42 313 5 0 0 0 - - - 0;
#X obj 33 342 * 12;
#X obj 33 367 +, f 9;
#X floatatom 72 236 5 0 0 0 - - - 0;
#X obj 33 57 metro 1000;
#X text 144 281 outputs octave and pitch class [0-11], f 20;
#X obj 33 402 makenote 60 100 500;
#X floatatom 314 286 5 0 0 0 - - - 0;
#X obj 222 42 bng 25 250 50 0 empty empty empty 17 7 0 10 #191919 #e1e1e1 #e1e1e1;
#X connect 0 0 15 0;
#X connect 1 0 3 0;
#X connect 3 0 7 0;
#X connect 3 0 14 0;
#X connect 4 0 15 1;
#X connect 4 0 18 0;
#X connect 5 0 17 2;
#X connect 6 0 10 0;
#X connect 6 0 13 1;
#X connect 7 0 9 0;
#X connect 7 1 6 0;
#X connect 9 0 11 0;
#X connect 9 0 12 0;
#X connect 12 0 13 0;
#X connect 13 0 17 0;
#X connect 15 0 1 0;
#X connect 15 0 19 0;
#X connect 17 0 2 0;
#X connect 17 1 2 1;
#X connect 18 0 5 0;
