#N canvas 83 348 223 335 10;
#X obj 18 161 random;
#X obj 18 13 inlet;
#X obj 99 209 outlet;
#X obj 51 141 - 0;
#X obj 87 104 t b f;
#X obj 99 187 + 0;
#X obj 99 68 + 1;
#X obj 87 22 r \$2-\$1Range;
#X obj 87 43 unpack;
#X connect 0 0 5 0;
#X connect 1 0 0 0;
#X connect 3 0 0 1;
#X connect 4 0 3 0;
#X connect 4 1 3 1;
#X connect 4 1 5 1;
#X connect 5 0 2 0;
#X connect 6 0 3 0;
#X connect 7 0 8 0;
#X connect 8 0 4 0;
#X connect 8 1 6 0;
