#N canvas 14 22 1022 742 12;
#X obj 37 449 catch~ sum;
#X obj 349 274 s frequency;
#X obj 463 274 s duration;
#X floatatom 463 224 0 0 0 0 - - -;
#X obj 463 249 * 100;
#X obj 349 249 mtof;
#X floatatom 349 224 0 0 0 0 - - -;
#X text 82 7 ADDITIVE SYNTHESIS;
#X text 501 214 duration in tenths;
#X text 503 230 of a second;
#X text 387 223 pitch;
#X text 433 518 updated for Pd version 0.37;
#X obj 37 488 output~;
#X text 26 83 Partial takes as arguments an amplitude \, a relative
frequency \, a detuning frequency \, and a relative duration. You set
absolute duration and pitch using the controls below. Hit the trigger
to make sound.;
#X text 27 31 This patch demonstrates using an abstraction \, "partial"
\, to make a simple additive synthesis instrument originally from Jean-Claude
Risset.;
#X obj 349 169 loadbang;
#X msg 349 192 72;
#X msg 463 194 40;
#X obj 352 322 bng 25 250 50 0 empty empty empty 0 -6 0 8 -262144 -1
-1;
#X text 385 324 <-- click to play a note;
#X obj 352 358 s trigger;
#X obj 36 314 partial 1.46 0.25 2 0;
#X obj 36 364 partial 1.33 0.15 3 0;
#X obj 36 168 partial 1 1 0.5 0;
#X obj 36 214 partial 1 0.65 1 0;
#X obj 34 264 partial 2.67 0.325 1 0;
#X obj 35 289 partial 1.67 0.35 2 0;
#X obj 36 339 partial 1.33 0.2 3 0;
#X obj 36 389 partial 1 0.1 4 0;
#X obj 34 240 partial 1.8 0.55 1 0;
#X obj 35 191 partial 0.67 0.9 0.5 0;
#X obj 36 414 partial 1.33 0.075 4 0;
#X obj 703 158 + 60;
#X obj 702 13 tgl 15 0 empty empty empty 17 7 0 10 -262144 -1 -1 1
1;
#X msg 703 128 0;
#X msg 738 128 2;
#X msg 774 128 4;
#X msg 809 128 7;
#X msg 847 128 9;
#X obj 703 40 metro 500;
#X obj 703 185 t b f;
#X obj 703 70 random 7;
#X obj 703 94 sel 0 1 2 3 4;
#X connect 0 0 12 0;
#X connect 0 0 12 1;
#X connect 3 0 4 0;
#X connect 4 0 2 0;
#X connect 5 0 1 0;
#X connect 6 0 5 0;
#X connect 15 0 16 0;
#X connect 15 0 17 0;
#X connect 16 0 6 0;
#X connect 17 0 3 0;
#X connect 18 0 20 0;
#X connect 32 0 40 0;
#X connect 33 0 39 0;
#X connect 34 0 32 0;
#X connect 35 0 32 0;
#X connect 36 0 32 0;
#X connect 37 0 32 0;
#X connect 38 0 32 0;
#X connect 39 0 41 0;
#X connect 41 0 42 0;
#X connect 42 0 34 0;
#X connect 42 1 35 0;
#X connect 42 2 36 0;
#X connect 42 3 37 0;
#X connect 42 4 38 0;
