#N canvas 575 43 435 453 10;
#X obj 14 119 samphold~;
#X obj 14 8 noise~;
#X obj 14 31 *~ 0.5;
#X obj 14 53 +~ 0.5;
#X obj 22 74 loadbang;
#X obj 14 233 s~ \$0-freq;
#X obj 242 48 r~ \$0-freq;
#X obj 242 209 outlet~;
#X obj 14 211 +~ \$1;
#X obj 35 168 - \$1;
#X obj 35 144 f \$2;
#X obj 14 189 *~ 1;
#X obj 242 137 cos~;
#X obj 242 72 phasor~ 0.5;
#X obj 242 95 +~ 0.75;
#X obj 242 116 wrap~;
#X obj 94 119 samphold~;
#X obj 94 8 noise~;
#X obj 94 31 *~ 0.5;
#X obj 94 53 +~ 0.5;
#X obj 94 233 s~ \$0-amp;
#X obj 242 188 *~;
#X obj 257 166 r~ \$0-amp;
#X msg 32 95 reset 1;
#X connect 0 0 11 0;
#X connect 1 0 2 0;
#X connect 2 0 3 0;
#X connect 3 0 0 0;
#X connect 4 0 23 0;
#X connect 4 0 10 0;
#X connect 6 0 13 0;
#X connect 8 0 5 0;
#X connect 9 0 11 1;
#X connect 10 0 9 0;
#X connect 11 0 8 0;
#X connect 12 0 21 0;
#X connect 13 0 14 0;
#X connect 13 0 16 1;
#X connect 13 0 0 1;
#X connect 14 0 15 0;
#X connect 15 0 12 0;
#X connect 16 0 20 0;
#X connect 17 0 18 0;
#X connect 18 0 19 0;
#X connect 19 0 16 0;
#X connect 21 0 7 0;
#X connect 22 0 21 1;
#X connect 23 0 0 0;
#X connect 23 0 16 0;
