#N canvas 912 260 823 538 10;
#N canvas 599 22 160 752 instances 0;
#X obj 25 25 acum 0;
#X obj 25 50 acum 1;
#X obj 25 75 acum 2;
#X obj 25 100 acum 3;
#X obj 25 125 acum 4;
#X obj 25 150 acum 5;
#X obj 25 175 acum 6;
#X obj 25 200 acum 7;
#X obj 25 225 acum 8;
#X obj 25 250 acum 9;
#X obj 25 275 acum 10;
#X obj 25 300 acum 11;
#X obj 25 325 acum 12;
#X obj 25 350 acum 13;
#X obj 25 375 acum 14;
#X obj 25 400 acum 15;
#X obj 25 425 acum 16;
#X obj 25 450 acum 17;
#X obj 25 475 acum 18;
#X obj 25 500 acum 19;
#X obj 25 525 acum 20;
#X obj 25 550 acum 21;
#X obj 25 575 acum 22;
#X obj 25 600 acum 23;
#X obj 25 625 acum 24;
#X obj 25 650 acum 25;
#X obj 25 675 acum 26;
#X obj 25 700 acum 27;
#X obj 25 725 acum 28;
#X obj 25 750 acum 29;
#X obj 25 775 acum 30;
#X obj 25 800 acum 31;
#X obj 25 825 acum 32;
#X obj 25 850 acum 33;
#X obj 25 875 acum 34;
#X obj 25 900 acum 35;
#X obj 25 925 acum 36;
#X obj 25 950 acum 37;
#X obj 25 975 acum 38;
#X obj 25 1000 acum 39;
#X obj 25 1025 acum 40;
#X obj 25 1050 acum 41;
#X obj 25 1075 acum 42;
#X obj 25 1100 acum 43;
#X obj 25 1125 acum 44;
#X obj 25 1150 acum 45;
#X obj 25 1175 acum 46;
#X obj 25 1200 acum 47;
#X obj 25 1225 acum 48;
#X obj 25 1250 acum 49;
#X obj 25 1275 acum 50;
#X obj 25 1300 acum 51;
#X obj 25 1325 acum 52;
#X obj 25 1350 acum 53;
#X obj 25 1375 acum 54;
#X obj 25 1400 acum 55;
#X obj 25 1425 acum 56;
#X obj 25 1450 acum 57;
#X obj 25 1475 acum 58;
#X obj 25 1500 acum 59;
#X obj 25 1525 acum 60;
#X obj 25 1550 acum 61;
#X obj 25 1575 acum 62;
#X obj 25 1600 acum 63;
#X obj 25 1625 acum 64;
#X obj 25 1650 acum 65;
#X obj 25 1675 acum 66;
#X obj 25 1700 acum 67;
#X obj 25 1725 acum 68;
#X obj 25 1750 acum 69;
#X obj 25 1775 acum 70;
#X obj 25 1800 acum 71;
#X obj 25 1825 acum 72;
#X obj 25 1850 acum 73;
#X obj 25 1875 acum 74;
#X obj 25 1900 acum 75;
#X obj 25 1925 acum 76;
#X obj 25 1950 acum 77;
#X obj 25 1975 acum 78;
#X obj 25 2000 acum 79;
#X obj 25 2025 acum 80;
#X obj 25 2050 acum 81;
#X obj 25 2075 acum 82;
#X obj 25 2100 acum 83;
#X obj 25 2125 acum 84;
#X obj 25 2150 acum 85;
#X obj 25 2175 acum 86;
#X obj 25 2200 acum 87;
#X obj 25 2225 acum 88;
#X obj 25 2250 acum 89;
#X obj 25 2275 acum 90;
#X obj 25 2300 acum 91;
#X obj 25 2325 acum 92;
#X obj 25 2350 acum 93;
#X obj 25 2375 acum 94;
#X obj 25 2400 acum 95;
#X obj 25 2425 acum 96;
#X obj 25 2450 acum 97;
#X obj 25 2475 acum 98;
#X obj 25 2500 acum 99;
#X obj 25 2525 acum 100;
#X restore 435 416 pd instances;
#X obj 423 396 s pd-instances;
#X obj 357 107 until;
#X obj 357 158 f 0;
#X obj 383 157 + 1;
#X msg 395 107 0;
#X msg 423 107 clear;
#X obj 357 180 t f f;
#X obj 376 74 t f b b;
#X obj 384 203 * 25;
#X obj 384 223 + 25;
#X obj 323 324 pack f s f;
#X obj 351 273 symbol \$1;
#X obj 351 249 loadbang;
#X floatatom 376 51 5 0 0 0 - - -, f 5;
#X msg 323 349 obj 25 \$3 acum \$1;
#X obj 54 252 s randomD;
#X obj 239 80 s loadbang;
#X msg 247 51 bang;
#X msg 89 305 \; acumule normalize;
#X obj 179 143 s reset;
#X msg 187 120 0;
#X msg 89 346 \; acumule const 0;
#X obj 98 387 table acumule 100;
#X floatatom 112 21 5 0 0 0 - - -, f 5;
#X obj 45 35 until;
#X msg 57 11 1000;
#X obj 594 230 tabread acumule;
#X floatatom 601 200 5 0 0 0 - - -, f 5;
#X floatatom 597 259 5 0 0 0 - - -, f 5;
#X floatatom 61 124 5 0 0 0 - - -, f 5;
#X obj 44 89 maxlib/gauss 1 0;
#X connect 2 0 3 0;
#X connect 3 0 4 0;
#X connect 3 0 7 0;
#X connect 4 0 3 1;
#X connect 5 0 3 1;
#X connect 6 0 1 0;
#X connect 7 0 11 0;
#X connect 7 1 9 0;
#X connect 8 0 2 0;
#X connect 8 1 5 0;
#X connect 8 2 6 0;
#X connect 9 0 10 0;
#X connect 10 0 11 2;
#X connect 11 0 15 0;
#X connect 12 0 11 1;
#X connect 13 0 12 0;
#X connect 14 0 8 0;
#X connect 15 0 1 0;
#X connect 18 0 17 0;
#X connect 21 0 20 0;
#X connect 24 0 31 1;
#X connect 25 0 31 0;
#X connect 26 0 25 0;
#X connect 27 0 29 0;
#X connect 28 0 27 0;
#X connect 31 0 16 0;
#X connect 31 0 30 0;
