#N canvas 503 28 450 300 10;
#X obj 17 105 fexpr~ if ($x1 == $x2 \, $y+1 \, $y);
#X msg 28 80 clear;
#X obj 17 161 snapshot~;
#X obj 28 58 r \$2-reset;
#X obj 206 83 sig~ \$1;
#X obj 17 205 tabwrite \$2-array;
#X obj 17 183 pack f \$1;
#X obj 26 138 r \$2-update;
#X obj 17 36 r~ \$2-signal;
#X connect 0 0 2 0;
#X connect 1 0 0 0;
#X connect 2 0 6 0;
#X connect 3 0 1 0;
#X connect 4 0 0 1;
#X connect 6 0 5 0;
#X connect 7 0 2 0;
#X connect 8 0 0 0;
