#N canvas 167 222 965 487 10;
#X obj 47 142 inlet~;
#N canvas 0 22 450 300 (subpatch) 0;
#X array \$0-array 64 float 1;
#A 0 0 0 0 0 0 0 0 0 0 0 0 0 0 0 0 0 0 0 0 0 0 0 0 0 0 0 0 0 0 0 0
0 0 0 0 0 0 0 0 0 0 0 0 0 0 0 0 0 0 0 0 0 0 0 0 0 0 0 0 0 0 0 0 0;
#X coords 0 1 63 0 200 70 1;
#X restore 10 40 graph;
#X obj 76 263 round~ 1;
#X obj 76 286 s~ \$0-signal;
#X obj 218 36 bang;
#X obj 218 104 s \$0-reset;
#X obj 76 238 *~ 64;
#X obj 695 330 accum.abs 45 \$0;
#X obj 228 217 s \$0-update;
#X obj 201 264 s \$0-array;
#X msg 201 241 normalize;
#X obj 495 5 accum.abs 0 \$0;
#X obj 495 30 accum.abs 1 \$0;
#X obj 495 55 accum.abs 2 \$0;
#X obj 495 80 accum.abs 3 \$0;
#X obj 495 105 accum.abs 4 \$0;
#X obj 495 130 accum.abs 5 \$0;
#X obj 495 155 accum.abs 6 \$0;
#X obj 495 180 accum.abs 7 \$0;
#X obj 495 205 accum.abs 8 \$0;
#X obj 495 230 accum.abs 9 \$0;
#X obj 495 255 accum.abs 10 \$0;
#X obj 495 280 accum.abs 11 \$0;
#X obj 495 305 accum.abs 12 \$0;
#X obj 495 330 accum.abs 13 \$0;
#X obj 495 355 accum.abs 14 \$0;
#X obj 495 380 accum.abs 15 \$0;
#X obj 595 5 accum.abs 16 \$0;
#X obj 595 30 accum.abs 17 \$0;
#X obj 595 55 accum.abs 18 \$0;
#X obj 595 80 accum.abs 19 \$0;
#X obj 595 105 accum.abs 20 \$0;
#X obj 595 130 accum.abs 21 \$0;
#X obj 595 155 accum.abs 22 \$0;
#X obj 595 180 accum.abs 23 \$0;
#X obj 595 205 accum.abs 24 \$0;
#X obj 595 230 accum.abs 25 \$0;
#X obj 595 255 accum.abs 26 \$0;
#X obj 595 280 accum.abs 27 \$0;
#X obj 595 305 accum.abs 28 \$0;
#X obj 595 330 accum.abs 29 \$0;
#X obj 595 355 accum.abs 30 \$0;
#X obj 595 380 accum.abs 31 \$0;
#X obj 695 5 accum.abs 32 \$0;
#X obj 695 30 accum.abs 33 \$0;
#X obj 695 55 accum.abs 34 \$0;
#X obj 695 80 accum.abs 35 \$0;
#X obj 695 105 accum.abs 36 \$0;
#X obj 695 130 accum.abs 37 \$0;
#X obj 695 155 accum.abs 38 \$0;
#X obj 695 180 accum.abs 39 \$0;
#X obj 695 205 accum.abs 40 \$0;
#X obj 695 230 accum.abs 41 \$0;
#X obj 695 255 accum.abs 42 \$0;
#X obj 695 280 accum.abs 43 \$0;
#X obj 695 305 accum.abs 44 \$0;
#X obj 695 355 accum.abs 46 \$0;
#X obj 695 380 accum.abs 47 \$0;
#X obj 795 5 accum.abs 48 \$0;
#X obj 795 30 accum.abs 49 \$0;
#X obj 795 55 accum.abs 50 \$0;
#X obj 795 80 accum.abs 51 \$0;
#X obj 795 105 accum.abs 52 \$0;
#X obj 795 130 accum.abs 53 \$0;
#X obj 795 155 accum.abs 54 \$0;
#X obj 795 180 accum.abs 55 \$0;
#X obj 795 205 accum.abs 56 \$0;
#X obj 795 230 accum.abs 57 \$0;
#X obj 795 255 accum.abs 58 \$0;
#X obj 795 280 accum.abs 59 \$0;
#X obj 795 305 accum.abs 60 \$0;
#X obj 795 330 accum.abs 61 \$0;
#X obj 795 355 accum.abs 62 \$0;
#X obj 795 380 accum.abs 63 \$0;
#X obj 174 143 switch~ 0;
#X obj 226 82 s \$0-array;
#X msg 226 59 const;
#X obj 201 167 metro 100;
#X obj 201 192 t b b;
#X obj 174 120 t f f;
#X obj 174 10 tgl 15 0 empty empty empty 17 7 0 10 -262144 -1 -1 0
1;
#X obj 195 10 bng 15 250 50 0 empty empty empty 17 7 0 10 -262144 -1
-1;
#X obj 97 165 \$2;
#X obj 97 187 - \$1;
#X obj 97 143 loadbang;
#X obj 76 212 /~ 1;
#X floatatom 112 211 5 0 0 0 - - -;
#X obj 47 162 -~ \$1;
#X connect 0 0 87 0;
#X connect 2 0 3 0;
#X connect 4 0 5 0;
#X connect 4 0 76 0;
#X connect 6 0 2 0;
#X connect 10 0 9 0;
#X connect 76 0 75 0;
#X connect 77 0 78 0;
#X connect 78 0 10 0;
#X connect 78 1 8 0;
#X connect 79 0 74 0;
#X connect 79 1 77 0;
#X connect 80 0 79 0;
#X connect 81 0 4 0;
#X connect 82 0 83 0;
#X connect 83 0 85 1;
#X connect 83 0 86 0;
#X connect 84 0 82 0;
#X connect 85 0 6 0;
#X connect 87 0 85 0;
#X coords 0 -1 1 1 200 100 1 10 10;
