#N canvas 0 22 450 300 10;
#X obj 138 159 sel \$1;
#X obj 138 183 f 0;
#X obj 168 183 + 1;
#X obj 138 207 tabwrite acumule;
#X obj 231 182 f \$1;
#X obj 231 161 r loadbang;
#X obj 138 104 r randomD;
#X obj 163 133 r reset;
#X connect 0 0 1 0;
#X connect 1 0 2 0;
#X connect 1 0 3 0;
#X connect 2 0 1 1;
#X connect 4 0 3 1;
#X connect 5 0 4 0;
#X connect 6 0 0 0;
#X connect 7 0 1 1;
