#N canvas 15 23 761 522 10;
#X obj 315 369 t3_sig~;
#X msg 315 340 \$1 1;
#X obj 273 139 t3_metro 5;
#X msg 293 70 stop;
#X msg 352 345 \$1 0;
#X msg 273 47 start 0;
#X text 325 47 (number is the initial delay time in msec.);
#X obj 9 88 samplerate~;
#X obj 9 70 bng 15 250 50 0 empty empty empty 17 7 0 10 -262144 -1
-1;
#X obj 9 50 loadbang;
#X obj 9 108 / 1000;
#X obj 9 129 s \$0-msec;
#X obj 409 302 / 44.1;
#X obj 409 236 r \$0-msec;
#X obj 10 263 / 60;
#X obj 10 308 /;
#X msg 10 286 1000 \$1;
#X msg 10 197 60;
#X text 9 157 beats per minute;
#X floatatom 19 241 5 0 0 0 - - -;
#X obj 273 163 t b f;
#X obj 409 258 t b f;
#X obj 306 488 dac~;
#N canvas 0 22 224 276 karplus-strong 0;
#X obj -2 202 outlet~;
#X obj -21 40 inlet;
#X obj -67 40 inlet~;
#X obj -36 203 +~;
#X obj -65 6 block~ 1;
#X obj 72 40 inlet;
#X obj -21 146 lop~ 5000;
#X obj 30 40 inlet;
#X obj -36 227 delwrite~ \$0-delay 100;
#X obj -21 66 delread~ \$0-delay 17;
#X obj -21 171 *~ 0.999;
#X connect 1 0 9 0;
#X connect 2 0 3 0;
#X connect 3 0 8 0;
#X connect 5 0 10 1;
#X connect 6 0 10 0;
#X connect 7 0 6 1;
#X connect 9 0 6 0;
#X connect 10 0 3 1;
#X connect 10 0 0 0;
#X restore 315 456 pd karplus-strong;
#X msg 409 281 1;
#X obj 330 117 r \$0-metro;
#X obj 10 330 s \$0-bpm;
#X obj 258 340 r \$0-bpm;
#X obj 243 363 *;
#X obj 243 319 /;
#X msg 243 298 1 \$1;
#X obj 243 278 + 1;
#X obj 228 432 s \$0-metro;
#X obj 162 137 t3_metro 5;
#X obj 219 115 r \$0-bpm;
#X obj 162 361 t b;
#X obj 228 409 f;
#X obj 243 258 random 3;
#X obj 243 387 t f b b;
#X obj 8 27 s globalTempo;
#X floatatom 8 6 5 0 0 0 - - -;
#X obj 19 220 r globalTempo;
#X obj 274 3 r globalStart;
#X obj 274 24 sel 1 0;
#X obj 98 57 s globalStart;
#X obj 352 324 t3_delay 2;
#N canvas 0 22 450 300 (subpatch) 0;
#X array \$0-scale 8 float 3;
#A 0 0 2 4 7 9 12 0 7;
#X coords 0 12 8 0 200 140 1;
#X restore 543 114 graph;
#X text 660 421 major;
#X floatatom 414 431 5 0 0 0 - - -;
#N canvas 0 22 642 369 pitch 1;
#X obj 7 -2 mtof;
#X obj 7 41 /;
#X msg 7 20 1000 \$1;
#X obj 7 -173 t b b;
#X obj 34 -151 random 3;
#X obj 34 -126 * 12;
#X obj 34 -105 + 36;
#X obj 7 -25 + 36;
#X obj 7 -194 inlet;
#X obj 6 62 outlet;
#X floatatom 177 15 5 0 0 0 - - -;
#X obj 197 80 outlet;
#X obj 7 -70 random 8;
#X obj 7 -47 tabread \$0-scale;
#X obj 197 59 * 1;
#X obj 212 -192 inlet;
#X obj 177 38 * 10;
#X connect 0 0 2 0;
#X connect 0 0 10 0;
#X connect 1 0 9 0;
#X connect 2 0 1 0;
#X connect 3 0 12 0;
#X connect 3 1 4 0;
#X connect 4 0 5 0;
#X connect 5 0 6 0;
#X connect 6 0 7 1;
#X connect 7 0 0 0;
#X connect 8 0 3 0;
#X connect 10 0 16 0;
#X connect 12 0 13 0;
#X connect 13 0 7 0;
#X connect 14 0 11 0;
#X connect 15 0 14 1;
#X connect 16 0 14 0;
#X restore 348 430 pd pitch;
#X obj 288 238 r \$0-subdivision;
#X obj 11 376 s \$0-subdivision;
#X floatatom 11 353 5 0 0 0 - - -;
#X floatatom 308 260 5 0 0 0 - - -;
#X msg 543 422 0 2 4 5 7 9 11 12;
#X msg 543 342 0 2 4 5 7 9 11 12;
#X msg 543 322 0 2 4 5 7 9 11 12;
#X msg 543 302 0 2 4 5 7 9 11 12;
#X obj 543 448 tabset \$0-scale;
#X obj 10 176 loadbang;
#X floatatom 393 406 5 0 0 0 - - -;
#X msg 98 36 1;
#X msg 128 36 0;
#X msg 543 402 0 7 0 7 0 7 0 7;
#X msg 543 382 0 2 4 7 9 12 0 7;
#X text 654 383 pentatonic;
#X msg 543 362 0 1 2 3 4 5 6 7;
#X msg 543 282 0 1 4 6 7 8 11 12;
#X connect 0 0 23 0;
#X connect 1 0 0 0;
#X connect 2 0 20 0;
#X connect 3 0 2 0;
#X connect 3 0 33 0;
#X connect 4 0 0 0;
#X connect 5 0 2 0;
#X connect 5 0 33 0;
#X connect 7 0 10 0;
#X connect 8 0 7 0;
#X connect 9 0 8 0;
#X connect 10 0 11 0;
#X connect 12 0 45 1;
#X connect 13 0 21 0;
#X connect 14 0 16 0;
#X connect 15 0 26 0;
#X connect 16 0 15 0;
#X connect 17 0 14 0;
#X connect 19 0 14 0;
#X connect 20 0 37 0;
#X connect 20 1 1 0;
#X connect 20 1 45 0;
#X connect 21 0 24 0;
#X connect 21 1 12 1;
#X connect 23 0 22 0;
#X connect 23 0 22 1;
#X connect 24 0 12 0;
#X connect 25 0 2 1;
#X connect 27 0 28 1;
#X connect 28 0 38 0;
#X connect 29 0 28 0;
#X connect 30 0 29 0;
#X connect 31 0 30 0;
#X connect 33 0 35 0;
#X connect 34 0 33 1;
#X connect 35 0 36 0;
#X connect 36 0 32 0;
#X connect 37 0 31 0;
#X connect 38 0 36 1;
#X connect 38 1 49 0;
#X connect 40 0 39 0;
#X connect 41 0 19 0;
#X connect 42 0 43 0;
#X connect 43 0 5 0;
#X connect 43 1 3 0;
#X connect 45 0 4 0;
#X connect 48 0 23 3;
#X connect 49 0 23 1;
#X connect 49 1 23 2;
#X connect 50 0 37 1;
#X connect 50 0 53 0;
#X connect 52 0 51 0;
#X connect 54 0 58 0;
#X connect 55 0 58 0;
#X connect 56 0 58 0;
#X connect 57 0 58 0;
#X connect 59 0 17 0;
#X connect 60 0 49 1;
#X connect 61 0 44 0;
#X connect 62 0 44 0;
#X connect 63 0 58 0;
#X connect 64 0 58 0;
#X connect 66 0 58 0;
#X connect 67 0 58 0;
