#N canvas 38 33 1060 553 10;
#X obj 11 23 gcanvas 200 250;
#X floatatom 11 280 5 0 0 0 - - -;
#X floatatom 107 279 5 0 0 0 - - -;
#X text 13 3 control 2D;
#X text 9 347 esta ventana se ha creado con el objeto [gcanvas 200
250] donde el 1er argumento (200) es el número de pixels horizontales
\, y el 2o (250) el número de pixels verticales;
#X floatatom 408 46 5 0 0 0 - - -;
#X text 478 23 nos permite saber si estamos clickando;
#X obj 408 67 sel 0;
#X obj 408 23 MouseState;
#X obj 408 177 vsl 15 128 0 1 0 0 empty empty empty 0 -9 0 10 -262144
-1 -1 6350 1;
#X floatatom 407 314 5 0 0 0 - - -;
#X obj 408 134 line;
#X obj 408 90 f;
#X msg 408 112 \$1 \, 0.5 100;
#X text 485 111 al soltar el mouse vuelve al centro en 100ms;
#X obj 516 176 vsl 15 128 0 1 0 0 empty toslider empty 0 -9 0 10 -262144
-1 -1 6350 1;
#X floatatom 516 312 5 0 0 0 - - curval;
#X obj 516 73 r curval;
#X obj 517 151 s toslider;
#X text 513 328 versión "elegante" con send/receive;
#X text 407 350 Este fragmento muestra un slider con retorno automático
La versión de la izquierda con cables \, la de la derecha más "mona"
con send/receives;
#X text 10 399 Este fragmento muestra un control 2D. las 2 salidas
son en pixels. Para escalarlas \, bastará con escalar estos valores
(en el ejemplo \, normalizados a 0-1);
#X obj 11 303 / 200;
#X floatatom 11 325 5 0 0 0 - - -;
#X floatatom 107 325 5 0 0 0 - - -;
#X obj 107 302 / 250;
#X connect 0 0 1 0;
#X connect 0 1 2 0;
#X connect 1 0 22 0;
#X connect 2 0 25 0;
#X connect 5 0 7 0;
#X connect 7 0 12 0;
#X connect 8 0 5 0;
#X connect 9 0 10 0;
#X connect 10 0 12 1;
#X connect 11 0 9 0;
#X connect 11 0 18 0;
#X connect 12 0 13 0;
#X connect 13 0 11 0;
#X connect 15 0 16 0;
#X connect 17 0 12 1;
#X connect 22 0 23 0;
#X connect 25 0 24 0;
