#N canvas 834 237 239 269 10;
#X obj 11 176 random 1;
#X obj 65 49 t b f;
#X obj 11 222 +;
#X obj 26 198 t b f;
#X obj 47 93 minmax;
#X obj 47 73 pack f f;
#X obj 56 136 -;
#X obj 53 114 swap;
#X obj 56 156 + 1;
#X obj 11 244 outlet;
#X obj 47 8 r \$1.max;
#X obj 65 29 r \$1.min;
#X obj 11 8 inlet;
#X connect 0 0 2 0;
#X connect 1 0 5 0;
#X connect 1 1 5 1;
#X connect 2 0 9 0;
#X connect 3 0 2 0;
#X connect 3 1 2 1;
#X connect 4 0 7 0;
#X connect 4 0 3 0;
#X connect 4 1 7 1;
#X connect 5 0 4 0;
#X connect 6 0 8 0;
#X connect 7 0 6 0;
#X connect 7 1 6 1;
#X connect 8 0 0 1;
#X connect 10 0 5 0;
#X connect 11 0 1 0;
#X connect 12 0 0 0;
