#N canvas 0 22 833 752 10;
#X obj 373 163 phasor~ 1;
#X obj 373 214 expr~ if ($v1 <$f2 \, $v1/$f2 \, 0);
#X obj 358 351 *~;
#X obj 373 188 *~ 100;
#X obj 373 116 /;
#X obj 373 68 t b f;
#X msg 373 91 1000;
#X obj 40 213 delay;
#X msg 13 183 stop;
#X msg 40 160 bang;
#X obj 373 670 line~;
#X msg 373 649 \$1 10;
#X obj 358 691 *~;
#X obj 373 416 dbtorms;
#X obj 13 137 sel 0;
#X obj 358 514 *~;
#X obj 40 263 t b b;
#X obj 373 492 vline~;
#X obj 373 471 lister;
#X msg 373 438 \$1 5;
#X msg 424 141 0;
#X obj 365 735 pan~;
#X msg 423 442 0 5;
#X obj 40 305 delay 10;
#X obj 23 108 >= \$1;
#X obj 439 667 switch~;
#X obj 412 600 t f f;
#X obj 373 578 moses 1;
#X obj 373 623 pipe 15;
#X obj 373 600 t f f;
#X obj 373 271 expr~ if($v1<$f2 \, $v1*(1/$f2) \, abs(((($v1*(1/$f2))-1)/((1/$f2)-1))-1))
;
#X obj 604 249 / 100;
#X obj 201 14 noise~;
#X obj 201 193 bp~ 400 200;
#X obj 40 327 t b b b b b b b b b;
#X obj 275 193 expr log10($f1);
#X obj 275 239 + 100;
#X obj 275 262 dbtorms;
#X obj 275 217 * 12;
#X obj 264 170 t f f;
#X obj 201 289 *~ 1;
#X obj 232 53 abs.rmm \$2.pitch;
#X obj 264 146 abs.rmm \$2.Qvalue;
#X obj 373 44 abs.rmm \$2.IOT;
#X obj 556 188 abs.rmm \$2.rest;
#X obj 372 395 abs.rmm \$2.amplitude;
#X obj 386 712 abs.rmm \$2.pan;
#X obj 604 229 abs.rmm \$2.env;
#X obj 23 85 r \$2.activator;
#X obj 13 19 r \$2.freeze;
#X obj 48 237 r \$2.phase;
#X obj 40 513 s phase\$1.\$2;
#X obj 53 492 s amplitude\$1.\$2;
#X obj 67 472 s IOT\$1.\$2;
#X obj 81 451 s rest\$1.\$2;
#X obj 95 431 s pitch\$1.\$2;
#X obj 109 411 s pan\$1.\$2;
#X obj 123 391 s env\$1.\$2;
#X obj 137 370 s curve\$1.\$2;
#X obj 151 349 s Qvalue\$1.\$2;
#X obj 67 284 s declick\$1.\$2;
#X obj 232 32 r pitch\$1.\$2;
#X obj 373 22 r IOT\$1.\$2;
#X obj 264 125 r Qvalue\$1.\$2;
#X obj 424 119 r phase\$1.\$2;
#X obj 556 168 r rest\$1.\$2;
#X obj 604 210 r env\$1.\$2;
#X obj 373 375 r amplitude\$1.\$2;
#X obj 423 417 r declick\$1.\$2;
#X obj 373 535 r \$2.activator;
#X obj 386 691 r pan\$1.\$2;
#X obj 373 306 *~;
#X obj 373 329 *~;
#X text 399 307 (envolvente cúbica. para cambiar al cuadrado eliminar
la segunda multiplicación);
#X obj 373 557 >= \$1;
#X obj 13 40 - 1;
#X obj 13 62 abs;
#X obj 201 311 *~ 0.1;
#X obj 386 755 throw~ \$2.output2;
#X obj 365 775 throw~ \$2.output1;
#X connect 0 0 3 0;
#X connect 1 0 30 0;
#X connect 2 0 15 0;
#X connect 3 0 1 0;
#X connect 4 0 0 0;
#X connect 5 0 6 0;
#X connect 5 1 4 1;
#X connect 6 0 4 0;
#X connect 7 0 16 0;
#X connect 8 0 7 0;
#X connect 9 0 7 0;
#X connect 10 0 12 1;
#X connect 11 0 10 0;
#X connect 12 0 21 0;
#X connect 13 0 19 0;
#X connect 14 0 8 0;
#X connect 14 1 9 0;
#X connect 15 0 12 0;
#X connect 16 0 23 0;
#X connect 16 1 60 0;
#X connect 17 0 15 1;
#X connect 18 0 17 0;
#X connect 19 0 18 0;
#X connect 20 0 0 1;
#X connect 21 0 79 0;
#X connect 21 1 78 0;
#X connect 22 0 18 0;
#X connect 23 0 34 0;
#X connect 24 0 14 0;
#X connect 26 0 11 0;
#X connect 26 1 25 0;
#X connect 27 0 29 0;
#X connect 27 1 26 0;
#X connect 28 0 25 0;
#X connect 29 0 28 0;
#X connect 29 1 11 0;
#X connect 30 0 71 1;
#X connect 30 0 71 0;
#X connect 30 0 72 1;
#X connect 31 0 30 1;
#X connect 32 0 33 0;
#X connect 33 0 40 0;
#X connect 34 0 51 0;
#X connect 34 1 52 0;
#X connect 34 2 53 0;
#X connect 34 3 54 0;
#X connect 34 4 55 0;
#X connect 34 5 56 0;
#X connect 34 6 57 0;
#X connect 34 7 58 0;
#X connect 34 8 59 0;
#X connect 35 0 38 0;
#X connect 36 0 37 0;
#X connect 37 0 40 1;
#X connect 38 0 36 0;
#X connect 39 0 33 2;
#X connect 39 1 35 0;
#X connect 40 0 77 0;
#X connect 41 0 33 1;
#X connect 42 0 39 0;
#X connect 43 0 5 0;
#X connect 43 0 7 0;
#X connect 44 0 1 1;
#X connect 45 0 13 0;
#X connect 46 0 21 1;
#X connect 47 0 31 0;
#X connect 48 0 24 0;
#X connect 49 0 75 0;
#X connect 50 0 16 0;
#X connect 61 0 41 0;
#X connect 62 0 43 0;
#X connect 63 0 42 0;
#X connect 64 0 20 0;
#X connect 65 0 44 0;
#X connect 66 0 47 0;
#X connect 67 0 45 0;
#X connect 68 0 22 0;
#X connect 69 0 74 0;
#X connect 70 0 46 0;
#X connect 71 0 72 0;
#X connect 72 0 2 1;
#X connect 74 0 27 0;
#X connect 75 0 76 0;
#X connect 76 0 14 0;
#X connect 77 0 2 0;
