#N canvas 0 22 239 167 10;
#X obj -193 107 dac~;
#X obj -172 84 *~ 0.1;
#X obj -193 35 *~ 0.1;
#X obj -193 13 catch~ \$1.output1;
#X obj -172 62 catch~ \$1.output2;
#X connect 1 0 0 1;
#X connect 2 0 0 0;
#X connect 3 0 2 0;
#X connect 4 0 1 0;
