#N canvas 114 130 465 388 10;
#X obj 1 32 cnv 15 450 320 empty empty controller&display 10 12 0 15
-191407 -66577 0;
#X obj 118 87 nbx 5 18 0 20000 0 0 \$1.pitch.min \$1.gui.pitch.min
pitch.min 0 -8 0 15 -262144 -1 -1 198 256;
#X obj 118 145 nbx 5 18 0 20000 0 0 \$1.pitch.max \$1.gui.pitch.max
pitch.max 0 -8 0 15 -262144 -1 -1 17000 256;
#X obj 226 87 nbx 5 18 0 1e+37 0 0 \$1.IOT.min \$1.gui.IOT.min IOT.min
0 -8 0 15 -262144 -1 -1 1700 256;
#X obj 226 145 nbx 5 18 0 1e+37 0 0 \$1.IOT.max \$1.gui.IOT.max IOT.max
0 -8 0 15 -262144 -1 -1 10000 256;
#X obj 11 215 nbx 5 18 0 100 0 0 \$1.amplitude.min \$1.gui.amplitude.min
amp.min 0 -8 0 15 -262144 -1 -1 80 256;
#X obj 11 273 nbx 5 18 0 100 0 0 \$1.amplitude.max \$1.gui.amplitude.max
amp.max 0 -8 0 15 -262144 -1 -1 97 256;
#X obj 333 87 nbx 5 18 0 100 0 0 \$1.rest.min \$1.gui.rest.min rest.min
0 -8 0 15 -262144 -1 -1 0.1 256;
#X obj 333 145 nbx 5 18 0 100 0 0 \$1.rest.max \$1.gui.rest.max rest.max
0 -8 0 15 -262144 -1 -1 0.3 256;
#X obj 227 215 nbx 5 18 -45 45 0 0 \$1.pan.min \$1.gui.pan.min pan.min
0 -8 0 15 -262144 -1 -1 -45 256;
#X obj 227 273 nbx 5 18 -45 45 0 0 \$1.pan.max \$1.gui.pan.max pan.max
0 -8 0 15 -262144 -1 -1 45 256;
#X obj 11 87 nbx 5 18 0 1e+37 0 0 \$1.Qvalue.min \$1.gui.Qvalue.min
Qvalue.min 0 -8 0 15 -262144 -1 -1 50 256;
#X obj 11 145 nbx 5 18 0 1e+37 0 0 \$1.Qvalue.max \$1.gui.Qvalue.max
Qvalue.max 0 -8 0 15 -262144 -1 -1 113 256;
#X obj 0 1 cnv 15 450 30 empty empty Filtered_Noise_Granulator 10 12
0 16 -156492 -1 0;
#X obj 119 273 nbx 5 18 1 99 0 0 \$1.env.max \$1.gui.env.max env.max
0 -8 0 15 -262144 -1 -1 70 256;
#X obj 333 315 nbx 5 18 0 45 0 0 \$1.activator \$1.gui.activator grains
0 -8 0 15 -262144 -1 -1 0 256;
#X obj 119 213 nbx 5 18 1 99 0 0 \$1.env.min \$1.gui.env.min env.min
0 -8 0 15 -262144 -1 -1 20 256;
#X obj 363 240 tgl 50 1 \$1.freeze \$1.gui.freeze freeze -2 -8 0 15
-262144 -1 -1 0 1;
#N canvas 46 426 1166 308 mapping 0;
#X obj -122 -13 r \$1.score.Qvalue.min;
#X obj -122 -41 s \$1.gui.pitch.min;
#X obj 16 -42 s \$1.gui.pitch.max;
#X obj -122 34 s \$1.gui.Qvalue.min;
#X obj 154 -14 r \$1.score.rest.min;
#X obj 154 -43 s \$1.gui.IOT.min;
#X obj 154 33 s \$1.gui.rest.min;
#X obj 284 34 s \$1.gui.rest.max;
#X obj 284 -13 r \$1.score.rest.max;
#X obj 414 -13 r \$1.score.pan.min;
#X obj 574 -13 r \$1.score.pan.max;
#X obj 574 -40 s \$1.gui.amplitude.max;
#X obj 414 -41 s \$1.gui.amplitude.min;
#X obj 284 -41 s \$1.gui.IOT.max;
#X obj 414 34 s \$1.gui.pan.min;
#X obj 574 34 s \$1.gui.pan.max;
#X obj 16 -14 r \$1.score.Qvalue.max;
#X obj 16 33 s \$1.gui.Qvalue.max;
#X obj 415 116 s \$1.gui.env.min;
#X obj 575 116 s \$1.gui.env.max;
#X obj 16 -89 r \$1.score.pitch.max;
#X obj 154 -89 r \$1.score.IOT.min;
#X obj 284 -88 r \$1.score.IOT.max;
#X obj 414 -88 r \$1.score.amplitude.min;
#X obj 574 -88 r \$1.score.amplitude.max;
#X obj 575 69 r \$1.score.env.max;
#X obj 415 69 r \$1.score.env.min;
#X obj -122 -88 r \$1.score.pitch.min;
#X obj 898 -85 r \$1.score.activator;
#X obj 898 -38 s \$1.gui.activator;
#X obj -122 -65 abs.line.c;
#X obj 16 -66 abs.line.c;
#X obj 154 -67 abs.line.c;
#X obj 284 -65 abs.line.c;
#X obj 414 -65 abs.line.c;
#X obj 574 -65 abs.line.c;
#X obj 898 -62 abs.line.c;
#X obj 574 10 abs.line.c;
#X obj 575 92 abs.line.c;
#X obj 415 92 abs.line.c;
#X obj 414 10 abs.line.c;
#X obj 284 10 abs.line.c;
#X obj 154 9 abs.line.c;
#X obj 16 9 abs.line.c;
#X obj -122 10 abs.line.c;
#X obj 898 40 r \$1.score.freeze;
#X obj 898 65 s \$1.gui.freeze;
#X connect 0 0 44 0;
#X connect 4 0 42 0;
#X connect 8 0 41 0;
#X connect 9 0 40 0;
#X connect 10 0 37 0;
#X connect 16 0 43 0;
#X connect 20 0 31 0;
#X connect 21 0 32 0;
#X connect 22 0 33 0;
#X connect 23 0 34 0;
#X connect 24 0 35 0;
#X connect 25 0 38 0;
#X connect 26 0 39 0;
#X connect 27 0 30 0;
#X connect 28 0 36 0;
#X connect 30 0 1 0;
#X connect 31 0 2 0;
#X connect 32 0 5 0;
#X connect 33 0 13 0;
#X connect 34 0 12 0;
#X connect 35 0 11 0;
#X connect 36 0 29 0;
#X connect 37 0 15 0;
#X connect 38 0 19 0;
#X connect 39 0 18 0;
#X connect 40 0 14 0;
#X connect 41 0 7 0;
#X connect 42 0 6 0;
#X connect 43 0 17 0;
#X connect 44 0 3 0;
#X connect 45 0 46 0;
#X restore 1 360 pd mapping;
#X text 75 360 <- aquí están los parámetros;
#X coords 0 -1 1 1 450 350 1 0 0;
