#N canvas 886 22 209 263 10;
#N canvas 0 22 357 305 audio 0;
#X obj 185 113 tgl 15 0 empty audio_OnOff empty 17 7 0 10 -262144 -1
-1 0 1;
#X obj 55 177 *~;
#X obj 70 156 line~;
#X msg 70 135 \$1 10;
#X text 204 112 AUDIO ON/OFF;
#X obj 111 218 dac~;
#X obj 170 180 *~;
#X obj 185 159 line~;
#X msg 185 138 \$1 10;
#X obj 54 34 catch~ output1;
#X obj 170 34 catch~ output2;
#X obj 170 56 *~ 0.9;
#X obj 54 56 *~ 0.9;
#X obj 170 91 compressor~;
#X obj 117 69 r comp;
#X obj 54 93 compressor~;
#X obj 233 67 r comp;
#X text 226 149 comment;
#X connect 0 0 3 0;
#X connect 0 0 8 0;
#X connect 1 0 5 0;
#X connect 2 0 1 1;
#X connect 3 0 2 0;
#X connect 6 0 5 1;
#X connect 7 0 6 1;
#X connect 8 0 7 0;
#X connect 9 0 12 0;
#X connect 10 0 11 0;
#X connect 11 0 13 0;
#X connect 12 0 15 0;
#X connect 13 0 6 0;
#X connect 14 0 15 1;
#X connect 15 0 1 0;
#X connect 16 0 13 1;
#X restore -90 51 pd audio;
#N canvas 689 146 752 577 score 0;
#X obj 9 209 qlist;
#X msg 37 94 rewind;
#X msg 36 119 next;
#X msg 21 37 bang;
#X obj 36 231 print done;
#X text 54 35 sequence automatically;
#X text 95 63 set relative tempo;
#X text 93 89 go to beginning (and stop);
#X text 93 116 single-step forward;
#X text 178 182 read a file;
#X text 20 277 This outlet gets a list of leading numbers for the next
message \, for you to use in designing your own sequencer.;
#X text 116 220 This outlet gets a bang when you hit the end of the
sequence. In the file "qlist.txt" the end is delayed 1000 milliseconds
after the last message.;
#X text 93 142 single-step forward SUPRESSING MESSAGE-SENDING;
#X msg 36 145 next 1;
#X msg 9 13 print;
#X text 53 12 print contents to Pd window;
#X obj 9 254 PRINT;
#X obj 506 211 tabwrite plot;
#X obj 551 166 f 0;
#X obj 581 166 + 1;
#X obj 506 189 pack 0 0;
#X msg 566 93 0;
#X obj 506 166 f;
#X obj 524 93 t b b;
#X floatatom 548 28 5 0 0 0 - - -;
#X obj 539 72 metro 5;
#X obj 539 49 t f b;
#X obj 607 105 line 0 5;
#X obj 539 6 r metroPlot;
#X msg 506 241 \; plot const 0;
#X obj 607 82 r pitch.min;
#X msg 261 182 read ./qlist1.txt;
#X obj 506 283 r group;
#X obj 506 305 PRINT;
#N canvas 0 22 450 300 (subpatch) 0;
#X array plot 2000 float 0;
#X coords 0 1 1999 0 700 140 1;
#X restore 5 353 graph;
#X msg 38 64 tempo 1;
#X msg 31 182 read ./score10.txt;
#X connect 0 0 16 0;
#X connect 0 1 4 0;
#X connect 1 0 0 0;
#X connect 2 0 0 0;
#X connect 3 0 0 0;
#X connect 13 0 0 0;
#X connect 14 0 0 0;
#X connect 18 0 19 0;
#X connect 18 0 20 1;
#X connect 19 0 18 1;
#X connect 20 0 17 0;
#X connect 21 0 18 1;
#X connect 22 0 20 0;
#X connect 23 0 22 0;
#X connect 23 1 18 0;
#X connect 25 0 23 0;
#X connect 26 0 25 0;
#X connect 26 1 21 0;
#X connect 27 0 22 1;
#X connect 28 0 24 0;
#X connect 28 0 26 0;
#X connect 30 0 27 0;
#X connect 31 0 0 0;
#X connect 32 0 33 0;
#X connect 35 0 0 0;
#X connect 36 0 0 0;
#X restore -90 73 pd score;
#X obj -86 14 tgl 30 0 audio_OnOff empty audio_OnOff 35 15 0 10 -191407
-1 -1 0 1;
#X obj -88 114 noisegran 1 15;
#X obj -88 135 noisegran 2 15;
#X obj -87 220 noisegran 6 15;
#X obj -87 199 noisegran 5 15;
#X obj -87 155 noisegran 3 15;
#X obj -87 177 noisegran 4 15;
