#N canvas 326 354 505 402 10;
#N canvas 453 47 733 440 guts 1;
#X obj -272 205 delay 200;
#X obj 199 -10 until;
#X obj 225 21 + 1;
#X msg 269 -10 clear;
#X obj 199 44 t f f;
#X obj 218 -37 t f b b;
#X obj 226 67 * 25;
#X obj 226 87 + 25;
#X obj 199 22 f 1;
#X msg 237 -10 1;
#X obj 169 132 pack f f f;
#X obj 218 -59 pipe 100;
#X msg 169 153 obj 25 \$3 abs.grain \$1 \$2;
#X floatatom -272 -77 5 0 0 0 - - -;
#X obj -272 -101 sfruit/instance noisegran;
#X obj -272 227 s loadPreset;
#N canvas 572 154 623 471 somePresets 0;
#X text -41 36 PRESET 2;
#X text -210 8 PRESET 1;
#X obj -228 52 \$1;
#X obj -228 9 bng 15 250 50 0 empty empty empty 17 7 0 10 -262144 -1
-1;
#X obj -58 36 bng 15 250 50 0 empty empty empty 17 7 0 10 -262144 -1
-1;
#X obj 141 46 \$1;
#X obj 141 3 bng 15 250 50 0 empty empty empty 17 7 0 10 -262144 -1
-1;
#X text 158 3 PRESET 3;
#X msg 141 70 \; \$1.gui.activator 0 0 1 \; \$1.gui.pitch.min 1000
0 1 \; \$1.gui.pitch.max 2000 0 1 \; \$1.gui.IOT.min 1000 0 1 \; \$1.gui.IOT.max
1000 0 1 \; \$1.gui.rest.min 100 0 1 \; \$1.gui.rest.max 100 0 1 \;
\$1.gui.amplitude.min 80 0 1 \; \$1.gui.amplitude.max 80 0 1 \; \$1.gui.pan.min
0 0 1 \; \$1.gui.pan.max 0 0 1 \; \$1.gui.Qvalue.min 50 0 1 \; \$1.gui.Qvalue.max
50 0 1 \; \$1.gui.env.min 20 0 1 \; \$1.gui.env.max 20 0 1 \; \$1.phase
bang \; \$1.gui.freeze 0;
#X msg -58 103 \; \$1.gui.activator 0 0 1 \; \$1.gui.pitch.min 16000
0 1 \; \$1.gui.pitch.max 17000 0 1 \; \$1.gui.IOT.min 1700 0 1 \; \$1.gui.IOT.max
10000 0 1 \; \$1.gui.rest.min 0.1 0 1 \; \$1.gui.rest.max 0.3 0 1 \;
\$1.gui.amplitude.min 80 0 1 \; \$1.gui.amplitude.max 97 0 1 \; \$1.gui.pan.min
-45 0 1 \; \$1.gui.pan.max 45 0 1 \; \$1.gui.Qvalue.min 50 0 1 \; \$1.gui.Qvalue.max
1000 0 1 \; \$1.gui.env.min 20 0 1 \; \$1.gui.env.max 70 0 1 \; \$1.phase
bang \; \$1.gui.freeze 0;
#X msg -227 73 \; \$1.gui.activator 0 \; \$1.gui.pitch.min 130 \; \$1.gui.pitch.max
135 \; \$1.gui.IOT.min 100 \; \$1.gui.IOT.max 1700 \; \$1.gui.rest.min
10 \; \$1.gui.rest.max 30 \; \$1.gui.amplitude.min 80 \; \$1.gui.amplitude.max
90 \; \$1.gui.pan.min -45 \; \$1.gui.pan.max 45 \; \$1.gui.Qvalue.min
130 \; \$1.gui.Qvalue.max 1000 \; \$1.gui.env.min 20 \; \$1.gui.env.max
70 \; \$1.phase bang \; \$1.gui.freeze 0;
#X obj -58 13 r loadPreset;
#X obj 156 24 r groupId\$0;
#X obj -213 30 r groupId\$0;
#X obj -58 78 \$1;
#X obj -43 56 r groupId\$0;
#X floatatom -28 78 5 0 0 0 - - -;
#X connect 2 0 10 0;
#X connect 3 0 2 0;
#X connect 4 0 14 0;
#X connect 5 0 8 0;
#X connect 6 0 5 0;
#X connect 11 0 4 0;
#X connect 12 0 5 1;
#X connect 13 0 2 1;
#X connect 14 0 9 0;
#X connect 15 0 14 1;
#X connect 15 0 16 0;
#X restore -272 249 pd somePresets;
#X obj 269 189 s pd-instances-\$0;
#N canvas 218 273 154 571 instances-\$0 1;
#X obj 25 50 abs.grain 1 3;
#X obj 25 75 abs.grain 2 3;
#X obj 25 100 abs.grain 3 3;
#X obj 25 125 abs.grain 4 3;
#X obj 25 150 abs.grain 5 3;
#X obj 25 175 abs.grain 6 3;
#X obj 25 200 abs.grain 7 3;
#X obj 25 225 abs.grain 8 3;
#X obj 25 250 abs.grain 9 3;
#X obj 25 275 abs.grain 10 3;
#X obj 25 300 abs.grain 11 3;
#X obj 25 325 abs.grain 12 3;
#X obj 25 350 abs.grain 13 3;
#X obj 25 375 abs.grain 14 3;
#X obj 25 400 abs.grain 15 3;
#X obj 25 425 abs.grain 16 3;
#X obj 25 450 abs.grain 17 3;
#X obj 25 475 abs.grain 18 3;
#X obj 25 500 abs.grain 19 3;
#X obj 25 525 abs.grain 20 3;
#X coords 0 571 1 570 85 60 0;
#X restore 281 209 pd instances-\$0;
#X obj 218 -80 r numberOfGrains\$0;
#X obj 197 110 r groupId\$0;
#X obj -272 -55 pack f \$0 20;
#X text -191 -56 default number of grains 20;
#X msg -272 167 bang \; pd dsp 1;
#N canvas 0 22 132 65 output 1;
#X obj 25 25 abs.output 3;
#X restore -272 271 pd output;
#X obj -222 -5 pack f \$0 20;
#X obj -222 -28 pipe 500;
#X msg -222 16 \; numberOfGrains\$2 \$3;
#X msg -272 56 bang \; groupId\$2 \$1 \; pd dsp 0 \; pd-output clear
\, obj 25 25 abs.output \$1 \; pd-gui clear \, obj 0 0 abs.noisegran.gui
\$1;
#X obj -272 144 delay 1000;
#X connect 0 0 15 0;
#X connect 1 0 8 0;
#X connect 2 0 8 1;
#X connect 3 0 17 0;
#X connect 4 0 10 0;
#X connect 4 1 6 0;
#X connect 5 0 1 0;
#X connect 5 1 9 0;
#X connect 5 2 3 0;
#X connect 6 0 7 0;
#X connect 7 0 10 2;
#X connect 8 0 2 0;
#X connect 8 0 4 0;
#X connect 9 0 8 1;
#X connect 10 0 12 0;
#X connect 11 0 5 0;
#X connect 12 0 17 0;
#X connect 13 0 21 0;
#X connect 13 0 26 0;
#X connect 14 0 13 0;
#X connect 19 0 11 0;
#X connect 20 0 10 1;
#X connect 21 0 28 0;
#X connect 23 0 0 0;
#X connect 25 0 27 0;
#X connect 26 0 25 0;
#X connect 28 0 29 0;
#X connect 29 0 23 0;
#X restore 434 -6 pd guts;
#N canvas 188 80 468 380 gui 0;
#X obj 0 0 abs.noisegran.gui 3;
#X coords 0 -1 1 1 455 355 2 0 0;
#X restore 25 16 pd gui;
