#N canvas 573 23 794 886 16;
#X msg 93 476 disconnect;
#X obj 18 513 netsend -u -b;
#X floatatom 18 539 5 0 0 0 - - -;
#X floatatom 18 64 5 0 0 0 - - -;
#X obj 18 300 list prepend send;
#X obj 18 327 list trim;
#X obj 13 893 oscparse;
#X obj 13 922 list trim;
#X msg 33 709 listen 5000;
#X obj 25 864 print raw;
#X msg 77 388 connect localhost 5000;
#X text 125 861 prints the raw binary packet;
#X obj 13 1064 print pcset;
#X text 390 258 the backslash is not needed to specify OSC protocol
message!, f 34;
#X obj 18 264 oscformat /pcset;
#X text 212 994 route is the regular Pd object \, and should match
the OSC address without a backslash, f 43;
#X obj 13 783 netreceive -u -b 5000;
#X msg 18 91 \$1 home \$1 come;
#X text 191 78 OSC messages can be arbitrarily long and a mixture of
numbers and strings., f 38;
#X msg 43 742 listen 0;
#X msg 23 674 listen 8000;
#X obj 25 834 spigot 0;
#X obj 102 813 tgl 15 0 empty empty empty 17 7 0 10 -262144 -1 -1 0
1;
#X text 140 919 reconstructed OSC message (address followed by one
or more floats or strings., f 28;
#X obj 26 956 print OSC;
#X obj 13 1003 route pcset filter;
#X obj 101 1035 print filter;
#X msg 163 165 set filter;
#X msg 165 136 set volume;
#X text 197 264 ==;
#X obj 227 265 oscformat pcset;
#X text 122 327 converts list to message;
#X text 148 676 from TouchOSC;
#X text 368 444 ipad / touchOSC;
#X msg 13 638 listen 54321;
#X text 148 639 from MobMuPlat;
#X msg 84 415 connect 192.168.43.1 54322;
#X text 13 12 NATIVE OSC CLIENT (Send OSC) ============================
, f 29;
#X text 14 592 NATIVE OSC SERVER (Receive OSC) ===============================
;
#X obj 8 1258 cnv 15 770 30 empty empty empty 20 12 0 14 -233017 -66577
0;
#X text 20 1263 angel.faraldo@upf.edu -- 2019;
#X text 159 708 from localhost (see above);
#X msg 77 360 connect 127.0.0.1 5001;
#X text 13 1129 EXTENDED OSC FUNCTIONALITY CAN BE FOUND IN THE MRPEACH
LIBRARY., f 65;
#X msg 87 445 connect 192.168.1.3 9000;
#X msg 164 193 set /1/fader3;
#X floatatom 36 186 5 0 0 0 - - -;
#X obj 36 157 line;
#X msg 36 127 0 \, 1 10000;
#X connect 0 0 1 0;
#X connect 1 0 2 0;
#X connect 3 0 17 0;
#X connect 4 0 5 0;
#X connect 5 0 1 0;
#X connect 6 0 7 0;
#X connect 7 0 24 0;
#X connect 7 0 25 0;
#X connect 8 0 16 0;
#X connect 10 0 1 0;
#X connect 14 0 4 0;
#X connect 16 0 6 0;
#X connect 16 0 21 0;
#X connect 17 0 14 0;
#X connect 19 0 16 0;
#X connect 20 0 16 0;
#X connect 21 0 9 0;
#X connect 22 0 21 1;
#X connect 25 0 12 0;
#X connect 25 1 26 0;
#X connect 27 0 14 0;
#X connect 28 0 14 0;
#X connect 34 0 16 0;
#X connect 36 0 1 0;
#X connect 42 0 1 0;
#X connect 44 0 1 0;
#X connect 45 0 14 0;
#X connect 46 0 14 0;
#X connect 47 0 46 0;
#X connect 48 0 47 0;
