#N canvas 1128 415 800 600 16;
#X obj 18 180 notein;
#X obj 18 210 noteout;
#X obj 98 180 ctlin;
#X obj 98 210 ctlout;
#X obj 171 181 pgmin;
#X obj 171 210 pgmout;
#X obj 252 212 gspd/midi-sync;
#X obj 252 180 midirealtimein;
#X text 17 637 Joysticks \, gamepads \, etc...;
#X obj 216 675 hidin;
#X text 18 675 WINDOWS external;
#X text 18 705 OSX/linux external;
#X obj 216 705 hid;
#X text 19 809 ARDUINO =======, f 7;
#X text 24 96 MIDI I/O ========, f 8;
#X text 19 589 USB HID's (Human Input Devices) ===============================
;
#X text 19 856 Externals required: comport \, pduino;
#X obj 22 897 comport;
#X text 103 897 interface to the serial port;
#X obj 23 931 pduino/arduino;
#X text 176 931 arduino IO interface for PD;
#X text 18 141 Pd objects support the MIDI protocol;
#X text 13 730 (old architecture!);
#X obj 22 1197 py;
#X text 19 1137 Externals py/pyext (python 2.x) allow to use python
scripts inside pd., f 37;
#X text 24 286 OSC I/O (Open Sound Control) ============================
, f 28;
#X obj 18 370 netsend;
#X obj 17 400 netreceive;
#X obj 138 370 oscparse;
#X obj 138 400 oscformat;
#X text 18 331 Native support since v. 0.46);
#X text 18 441 Extended functionality with mrpeach library;
#X obj 18 480 mrpeach/udpsend;
#X obj 17 510 mrpeach/udpreceive;
#X obj 218 480 mrpeach/packOSC;
#X obj 218 510 mrpeach/unpackOSC;
#X obj 407 478 mrpeach/routeOSC;
#X text 19 1029 PYTHON AND PD =============, f 16;
#X text 19 1081 OSC protocol easily allows to communicate between both.
, f 37;
#X text 18 1275 VISUALS AND PD =============, f 16;
#X text 104 1324 GEM (Graphics Environment for Multimedia);
#X text 26 1355 OpenGL-based external library for image and video processing
somehow similar to max's jitter., f 48;
#X obj 24 1325 gemwin;
#X obj 28 1442 pof;
#X text 78 1444 OpenFrameworks for Pure data;
#X obj 28 1482 ofelia;
#X text 103 1482 yet another OpenFrameworks library for Pure data;
#X text 16 15 ALL THE EXTERNALS IN THIS PATCH CAN BE DOWNLOADED FROM
PD (>=0.47) VIA DEKEN. Just go to Help >> Find Externals \, and type
their name, f 67;
#X obj 8 1818 cnv 15 770 30 empty empty empty 20 12 0 14 -233017 -66577
0;
#X text 20 1823 angel.faraldo@upf.edu -- 2019;
#X text 18 1555 PD AND AUDIO PLUGINS =============;
#X obj 24 1606 plugin~;
#X text 106 1605 Allows to load LADSPA plugins inside Pd;
#X obj 24 1646 vstplugin~;
#X text 141 1646 Allows to load VST plugins inside Pd;
