#N canvas 860 22 283 324 10;
#X obj 34 32 ctlin;
#X obj 73 71 f;
#X floatatom 73 115 5 0 0 0 - - -;
#X obj 93 139 prepend set;
#X obj 47 140 ==;
#X obj 14 163 spigot;
#X obj 120 204 outlet;
#X obj 168 139 loadbang;
#X obj 93 263 s savePatch;
#X obj 93 161 t b a;
#X obj 73 32 r learn_\$1;
#X obj 14 185 s in_\$1;
#X obj 93 240 spigot 0;
#X obj 168 182 delay 1000;
#X msg 168 204 1;
#X obj 143 33 inlet;
#X connect 0 0 5 0;
#X connect 0 1 1 1;
#X connect 0 1 4 0;
#X connect 1 0 2 0;
#X connect 2 0 3 0;
#X connect 2 0 4 1;
#X connect 3 0 9 0;
#X connect 4 0 5 1;
#X connect 5 0 11 0;
#X connect 7 0 6 0;
#X connect 7 0 13 0;
#X connect 9 0 12 0;
#X connect 9 1 6 0;
#X connect 10 0 1 0;
#X connect 12 0 8 0;
#X connect 13 0 14 0;
#X connect 14 0 12 1;
#X connect 15 0 2 0;
#X coords 0 0 1 1 75 15 0;
