#N canvas 0 22 334 427 10;
#X obj 18 12 r~ input;
#X obj 18 43 delwrite~ \$0-filterDelay 1000;
#X obj 18 93 delread~ \$0-filterDelay 1000;
#X obj 18 70 r \$1-filterDelay;
#X obj 18 384 throw~ filterOut;
#X obj 18 361 *~ 1;
#X obj 39 338 r \$1-filterVol;
#X obj 43 118 r \$1-filterFreq;
#X obj 18 245 bp~ 200 1;
#X obj 69 143 r \$1-filterQ;
#X obj 96 190 expr log10($f1);
#X obj 69 167 t f f;
#X obj 96 236 + 100;
#X obj 96 259 dbtorms;
#X obj 96 214 * 12;
#X obj 96 280 moses 1;
#X obj 18 314 *~ 1;
#X connect 0 0 1 0;
#X connect 2 0 8 0;
#X connect 3 0 2 0;
#X connect 5 0 4 0;
#X connect 6 0 5 1;
#X connect 7 0 8 1;
#X connect 8 0 16 0;
#X connect 9 0 11 0;
#X connect 10 0 14 0;
#X connect 11 0 8 2;
#X connect 11 1 10 0;
#X connect 12 0 13 0;
#X connect 13 0 15 0;
#X connect 14 0 12 0;
#X connect 16 0 5 0;
