#N canvas 478 22 497 716 10;
#X obj 344 31 / 64;
#X obj 344 53 - 1;
#X obj 12 610 tabwrite waveform;
#X obj 344 11 r out_fader\$1;
#X obj 121 37 r timescale;
#X obj 153 126 \$1;
#X obj 153 146 - 1;
#X obj 153 105 loadbang;
#X obj 138 166 *;
#X obj 257 53 - 1;
#X floatatom 264 75 5 0 0 0 - - -;
#X obj 257 11 r out_fader\$2;
#X obj 79 188 until;
#X obj 273 125 -;
#X obj 257 98 t b f;
#X obj 273 230 /;
#X obj 258 292 *;
#X obj 79 218 f 0;
#X obj 107 218 + 1;
#X obj 116 188 f;
#X obj 79 140 t f b f;
#X obj 79 119 f;
#X obj 273 190 f;
#X obj 123 242 -;
#X obj 79 241 t f f;
#X obj 121 61 t f f b f;
#X obj 273 167 abs;
#X obj 273 146 t f f;
#X obj 300 231 < 0;
#X obj 294 425 -;
#X obj 288 403 swap;
#X obj 348 420 +;
#X obj 248 359 route 0 1;
#X obj 248 339 pack f 0;
#X obj 258 313 swap;
#X obj 246 257 t b f;
#X obj 257 31 / 64;
#X obj 328 482 + 0.5;
#X floatatom 199 560 5 0 0 0 - - -;
#X obj 306 509 * 3.14;
#X obj 328 458 * -0.5;
#X obj 193 531 cos;
#X connect 0 0 1 0;
#X connect 1 0 13 0;
#X connect 1 0 30 1;
#X connect 1 0 31 1;
#X connect 3 0 0 0;
#X connect 4 0 25 0;
#X connect 5 0 6 0;
#X connect 6 0 8 1;
#X connect 7 0 5 0;
#X connect 8 0 19 1;
#X connect 8 0 23 1;
#X connect 9 0 10 0;
#X connect 9 0 14 0;
#X connect 11 0 36 0;
#X connect 12 0 17 0;
#X connect 13 0 27 0;
#X connect 14 0 13 0;
#X connect 14 1 13 1;
#X connect 15 0 35 0;
#X connect 16 0 34 0;
#X connect 17 0 18 0;
#X connect 17 0 24 0;
#X connect 18 0 17 1;
#X connect 19 0 17 1;
#X connect 20 0 12 0;
#X connect 20 1 19 0;
#X connect 20 2 8 0;
#X connect 21 0 20 0;
#X connect 22 0 15 0;
#X connect 23 0 16 0;
#X connect 24 0 23 0;
#X connect 24 1 2 1;
#X connect 25 0 21 0;
#X connect 25 1 8 0;
#X connect 25 2 22 0;
#X connect 25 3 15 1;
#X connect 26 0 22 0;
#X connect 27 0 26 0;
#X connect 27 1 28 0;
#X connect 28 0 34 1;
#X connect 29 0 40 0;
#X connect 30 0 29 0;
#X connect 30 1 29 1;
#X connect 31 0 40 0;
#X connect 32 0 30 0;
#X connect 32 1 31 0;
#X connect 33 0 32 0;
#X connect 34 0 33 0;
#X connect 34 1 33 1;
#X connect 35 0 21 0;
#X connect 35 1 16 1;
#X connect 36 0 9 0;
#X connect 37 0 39 0;
#X connect 39 0 41 0;
#X connect 40 0 37 0;
#X connect 41 0 2 0;
#X connect 41 0 38 0;
