#N canvas 88 85 1321 741 10;
#X obj 14 8 cnv 15 400 220 empty empty empty 20 12 0 14 -261234 -66577
0;
#X msg 20 242 bang;
#X floatatom 37 414 5 0 0 0 - - -;
#X obj 20 501 tabread \$0-rand;
#X obj 20 479 t a a;
#X obj 33 313 until;
#X obj 20 526 + 0.001;
#X obj 20 550 tabwrite \$0-rand;
#X msg 43 287 1000;
#X floatatom 89 372 5 0 0 1 length - -;
#N canvas 0 22 450 300 (subpatch) 0;
#X array \$0-rand 12 float 0;
#X coords 0 1 11 0 200 140 1;
#X restore 325 453 graph;
#N canvas 0 22 450 300 (subpatch) 0;
#X array \$0-dist 12 float 0;
#X coords 0 1 11 0 200 140 1;
#X restore 325 453 graph;
#X obj 543 333 t a a;
#N canvas 0 22 450 300 write-to-tables 0;
#X obj 227 103 list-len;
#X obj 308 180 s \$0-rand;
#X obj 112 103 list prepend 0;
#X obj 112 128 s \$0-dist;
#X obj 93 256 s \$0-dist;
#X msg 308 158 resize \$1 \, const 0;
#X msg 93 155 normalize 1;
#X msg 227 159 resize \$1;
#X obj 93 55 t b a a;
#X obj 93 33 inlet;
#X connect 0 0 7 0;
#X connect 0 0 5 0;
#X connect 2 0 3 0;
#X connect 5 0 1 0;
#X connect 6 0 4 0;
#X connect 7 0 4 0;
#X connect 8 0 6 0;
#X connect 8 1 2 0;
#X connect 8 2 0 0;
#X connect 9 0 8 0;
#X restore 570 354 pd write-to-tables;
#X text 154 11 [list-wrandom];
#X msg 33 264 100;
#X text 27 66 Inlets;
#X text 47 121 1: list of random weights. The weigths are used as probabilities
for their positions (zero-based);
#X text 26 158 Outlets:;
#X text 42 178 0: random number;
#X text 42 193 1: size of probability table (for convenience);
#X text 46 88 0: connected to [random] internally. "bang" to make random
choice \, "seed X" to seed;
#X text 17 12 ingrediente principal:;
#X text 17 30 Uses a list as a probability table for weighted random
numbers.;
#X obj 655 144 tabset pitch_histogram;
#N canvas 0 22 450 278 (subpatch) 0;
#X array pitch_histogram 12 float 3;
#A 0 1 0.05 0.25 0.075 0.45 0.6 0.05 0.75 0.1 0.325 0.15 0.225;
#X coords 0 1 12 0 200 140 2 0 0;
#X restore 442 23 graph;
#X msg 655 105 40 2 10 3 18 24 2 30 4 13 6 9 \; pitch_histogram normalize
;
#X text 655 20 -> we can fill a table with content from a list with
the object "tabset";
#X text 657 50 -> Also \, we can normalize the table values so that
the maximum value in the table equals 1 \, by sending a "normalize"
message to the table.;
#X text 425 15 1;
#X text 423 153 0;
#X obj 543 311 tabdump pitch_histogram;
#X msg 543 280 bang;
#X text 582 276 -> Complementarty to "tabset \, " "tabdump" reads the
content of an array (a.k.a. table) and converts it to a list;
#X text 58 239 single random value;
#X text 62 264 100 random values (sequentially);
#X text 79 285 1000 random values (sequentially);
#X text 79 307 OBSERVE IN THE GRAPH HOW THE RANDOM NUMBERS ARE DISTRIBUTED
ACCORDINGLY TO THE RANDOM PROBABILITY DISTRIBUTION!;
#X text 78 415 <-- HERE'S OUR RANDOM NUMBER... USEFUL FOR TONS OF THINGS...
;
#X text 27 459 (this bit is for visualization purposes only);
#X text 545 252 FIRST WE NEED A PROBABILITY DISTRIBUTION!;
#X text 164 357 It should be 12 in our example since we are dealing
with 12 pitch–classes. It will determine the range of the random
generator!;
#X obj 20 350 list-abs/list-wrandom;
#X connect 1 0 42 0;
#X connect 3 0 6 0;
#X connect 4 0 3 0;
#X connect 4 1 7 1;
#X connect 5 0 42 0;
#X connect 6 0 7 0;
#X connect 8 0 5 0;
#X connect 12 0 42 1;
#X connect 12 1 13 0;
#X connect 15 0 5 0;
#X connect 26 0 24 0;
#X connect 31 0 12 0;
#X connect 32 0 31 0;
#X connect 42 0 2 0;
#X connect 42 0 4 0;
#X connect 42 1 9 0;
