#N canvas 167 23 888 675 10;
#X obj 361 259 once;
#X floatatom 12 154 5 0 0 0 - - -;
#X obj 478 213 bng 15 250 50 0 empty empty empty 17 7 0 10 -262144
-1 -1;
#X obj 256 350 i;
#X obj -25 14 mrpeach/midifile;
#X text -21 37 salen las notas en secuencia;
#X text -17 55 primero las reducimos al pc con la información de [key2pc]
;
#X text -15 78 guardamos la primera nota para usar al final.;
#X obj 115 430 pack f f;
#X msg 129 537 \$2 \$1;
#X text 509 216 new midi file;
#X text 330 203 incoming notes;
#X text 287 349 stored here for the last note;
#X obj 184 294 bng 15 250 50 0 empty empty empty 17 7 0 10 -262144
-1 -1;
#X text 150 275 bang when file ends;
#X text 399 31 crear tantas tablas/objetos como "pitch classes";
#X text 490 183 esto viene del sistema de cargar los archivos midi
en el directorio;
#X text 259 444 creamos paquetes en los que el primer valor representa
la tabla en la que escribimos y el segundo la posición que incrementar...
(básicamente es replicar el proceso de creación del histograma simple...).
Observad que el segundo valor pasará a ser el primero de la siguiente
pareja.;
#X obj 17 209 mod 12;
#X obj 162 457 unpack f f;
#X floatatom 200 401 5 0 0 0 - - -;
#X floatatom 220 487 5 0 0 0 - - -;
#X floatatom 159 483 5 0 0 0 - - -;
#X floatatom -9 299 5 0 0 0 - - -;
#X obj 250 541 tgl 15 0 empty empty empty 17 7 0 10 -262144 -1 -1 0
1;
#X obj 129 561 prepend;
#X obj 129 585 route 0 1;
#X obj 129 638 s fill-major;
#X obj 154 608 s fill-minor;
#X text 279 536 from major/minor (0-1) detector...;
#X obj 402 91 pc-tab 2 major;
#X obj 402 51 pc-tab 0 major;
#X obj 499 50 pc-tab 0 minor;
#X obj 402 71 pc-tab 1 major;
#X obj 499 70 pc-tab 1 minor;
#X floatatom 374 290 5 0 0 0 - - -;
#X text 505 108 etcetera...;
#X connect 0 0 3 1;
#X connect 0 0 35 0;
#X connect 1 0 18 0;
#X connect 2 0 0 1;
#X connect 3 0 8 0;
#X connect 8 0 9 0;
#X connect 8 0 19 0;
#X connect 9 0 25 0;
#X connect 13 0 3 0;
#X connect 18 0 0 0;
#X connect 18 0 8 0;
#X connect 18 0 23 0;
#X connect 19 0 8 1;
#X connect 19 0 22 0;
#X connect 19 1 21 0;
#X connect 20 0 8 1;
#X connect 24 0 25 1;
#X connect 25 0 26 0;
#X connect 26 0 27 0;
#X connect 26 1 28 0;
