#N canvas 809 132 552 696 10;
#X declare -path ./abstools;
#X msg -375 -648 refresh;
#X text -316 -649 "refresh" to get list of files and init;
#X obj -363 -628 bng 15 250 50 0 empty empty empty 17 7 0 10 -262144
-1 -1;
#X text -337 -629 "bang" to retrieve ALL FILES!;
#X msg -301 -498 bang;
#X floatatom -232 -213 5 0 0 1 length - -;
#X obj -301 -235 list-wrandom;
#X text -264 -499 single random value;
#X obj -274 -163 + 0;
#X floatatom -259 -184 5 0 0 0 - - -;
#X text -222 -185 transpose (0-11);
#X msg -274 -117 \$1 120;
#X obj -301 -549 metro 300;
#X obj -301 -570 tgl 15 0 empty empty empty 17 7 0 10 -262144 -1 -1
0 1;
#N canvas 203 23 671 719 extract_ground_truth 0;
#X obj -211 -208 mrpeach/midifile;
#X msg -211 -263 read \$1;
#X obj -211 -131 route 144 145 146 147 148 149 150 151 152 153 154
155 156 157 158 159;
#X obj -211 -63 unpack 0 0;
#X obj -118 -185 route bang;
#X floatatom -164 -300 5 0 0 0 - - -;
#X obj -335 -241 list split 1;
#X obj -335 -262 jasch_lib/strtok .;
#X obj -278 -158 length;
#X obj -335 -175 t l l;
#X obj -335 -220 jasch_lib/strtok _;
#X obj -335 -197 list;
#X obj -278 -136 - 1;
#X obj -335 -115 list split;
#X obj -307 -93 key2pc;
#X text -124 -301 number of midi files in folder;
#X obj -201 -232 until;
#X obj -164 58 -;
#X obj -307 -69 t b f;
#X obj -335 -302 t s s;
#X obj -322 -371 f;
#X obj -322 -349 until;
#X obj -392 -429 inlet;
#X obj -392 -407 route bang;
#X obj -171 -3 once;
#X obj -208 30 i;
#X obj -164 130 pack f f;
#X msg -229 162 \$2 \$1;
#X obj -90 149 t f;
#X obj -229 185 list prepend;
#X obj -229 208 route 0 1;
#X obj -229 253 s fill-major;
#X obj -204 230 s fill-minor;
#X obj -164 85 tabread pitchmap;
#X obj -164 109 - 29;
#X text -131 108 make lowest note zero!;
#X obj -335 -325 listdir ../midi_basslines mid;
#X connect 0 0 2 0;
#X connect 0 2 4 0;
#X connect 1 0 0 0;
#X connect 2 0 3 0;
#X connect 2 1 3 0;
#X connect 2 2 3 0;
#X connect 2 3 3 0;
#X connect 2 4 3 0;
#X connect 2 5 3 0;
#X connect 2 6 3 0;
#X connect 2 7 3 0;
#X connect 2 8 3 0;
#X connect 2 9 3 0;
#X connect 2 10 3 0;
#X connect 2 11 3 0;
#X connect 2 12 3 0;
#X connect 2 13 3 0;
#X connect 2 14 3 0;
#X connect 2 15 3 0;
#X connect 3 0 24 0;
#X connect 3 0 17 0;
#X connect 4 0 16 1;
#X connect 4 0 25 0;
#X connect 5 0 20 1;
#X connect 6 0 10 0;
#X connect 7 0 6 0;
#X connect 8 0 12 0;
#X connect 9 0 13 0;
#X connect 9 1 8 0;
#X connect 10 0 11 0;
#X connect 11 0 9 0;
#X connect 12 0 13 1;
#X connect 13 1 14 0;
#X connect 14 0 18 0;
#X connect 14 1 29 1;
#X connect 16 0 0 0;
#X connect 17 0 33 0;
#X connect 18 0 16 0;
#X connect 18 0 24 1;
#X connect 18 1 17 1;
#X connect 19 0 7 0;
#X connect 19 1 1 0;
#X connect 20 0 21 0;
#X connect 21 0 36 0;
#X connect 22 0 23 0;
#X connect 23 0 20 0;
#X connect 23 1 36 0;
#X connect 24 0 25 1;
#X connect 25 0 17 0;
#X connect 26 0 27 0;
#X connect 26 0 28 0;
#X connect 27 0 29 0;
#X connect 28 0 26 1;
#X connect 29 0 30 0;
#X connect 30 0 31 0;
#X connect 30 1 32 0;
#X connect 33 0 34 0;
#X connect 34 0 26 0;
#X connect 36 0 19 0;
#X connect 36 1 5 0;
#X restore -375 -605 pd extract_ground_truth;
#X msg -187 -433 major;
#X msg -232 -369 symbol transition-\$1-\$2;
#X obj -232 -391 pack f s;
#X msg -187 -453 minor;
#X obj -187 -412 tosymbol;
#X msg -232 -346 set \$1 \, bang;
#X floatatom -232 -414 5 0 0 0 - - -;
#X obj -301 -205 t f f;
#X floatatom -250 -573 5 0 0 0 - - -;
#N canvas 399 22 710 458 pitch-map 0;
#X floatatom 77 42 5 0 0 0 - - -;
#N canvas 0 22 450 278 (subpatch) 0;
#X array pitchmap 73 float 3;
#A 0 0 0 0 0 0 0 0 0 0 0 0 0 36 37 38 39 40 29 30 31 32 33 34 35 36
37 38 39 40 29 30 31 32 33 34 35 36 37 38 39 40 41 42 43 44 45 46 47
48 49 50 51 52 53 42 43 44 45 46 47 48 49 50 51 40 41 42 43 44 45 46
47 48;
#X coords 0 73 73 0 200 200 1 0 0;
#X restore 339 -157 graph;
#X obj 70 -97 tabwrite pitchmap;
#X obj 125 -22 tabread pitchmap;
#X floatatom 141 -50 5 0 0 0 - - -;
#X floatatom 141 12 5 0 0 0 - - -;
#X floatatom 74 -204 5 0 0 0 - - -;
#X obj 70 -122 pack;
#X obj 67 -183 t f f;
#X floatatom 122 -133 5 0 0 0 - - -;
#X text 339 51 0 - 72;
#X text 255 86 hemos analizado el rango total de todo el corpus resultando
de 12 a 72;
#X text 256 118 el rango real que usamos es de m.n. 29 (F \, pc 5)
a m.n. 53 (F \, pc 5)... de modo que tengamos notas a ambos lados de
la octava principal de Do a Do (36-48).;
#X obj 60 -160 + 24;
#X connect 3 0 5 0;
#X connect 4 0 3 0;
#X connect 6 0 8 0;
#X connect 7 0 2 0;
#X connect 8 0 13 0;
#X connect 8 1 7 1;
#X connect 13 0 7 0;
#X connect 13 0 9 0;
#X restore -166 -605 pd pitch-map;
#N canvas 14 23 507 291 tables 0;
#X obj 14 -343 pc-tab25 0 major;
#X obj 14 -323 pc-tab25 1 major;
#X obj 14 -303 pc-tab25 2 major;
#X obj 14 -283 pc-tab25 3 major;
#X obj 14 -263 pc-tab25 4 major;
#X obj 14 -243 pc-tab25 5 major;
#X obj 14 -223 pc-tab25 6 major;
#X obj 14 -203 pc-tab25 7 major;
#X obj 14 -183 pc-tab25 8 major;
#X obj 14 -163 pc-tab25 9 major;
#X obj 14 -143 pc-tab25 10 major;
#X obj 14 -123 pc-tab25 11 major;
#X obj 134 -345 pc-tab25 0 minor;
#X obj 134 -323 pc-tab25 1 minor;
#X obj 134 -303 pc-tab25 2 minor;
#X obj 134 -263 pc-tab25 4 minor;
#X obj 134 -283 pc-tab25 3 minor;
#X obj 134 -243 pc-tab25 5 minor;
#X obj 134 -223 pc-tab25 6 minor;
#X obj 134 -203 pc-tab25 7 minor;
#X obj 134 -183 pc-tab25 8 minor;
#X obj 134 -163 pc-tab25 9 minor;
#X obj 134 -143 pc-tab25 10 minor;
#X obj 134 -123 pc-tab25 11 minor;
#X obj 254 -125 pc-tab25 23 major;
#X obj 254 -145 pc-tab25 22 major;
#X obj 254 -165 pc-tab25 21 major;
#X obj 254 -185 pc-tab25 20 major;
#X obj 254 -205 pc-tab25 19 major;
#X obj 254 -225 pc-tab25 18 major;
#X obj 254 -245 pc-tab25 17 major;
#X obj 254 -265 pc-tab25 16 major;
#X obj 254 -305 pc-tab25 14 major;
#X obj 254 -325 pc-tab25 13 major;
#X obj 254 -345 pc-tab25 12 major;
#X obj 254 -285 pc-tab25 15 major;
#X obj 374 -345 pc-tab25 12 minor;
#X obj 374 -325 pc-tab25 13 minor;
#X obj 374 -305 pc-tab25 14 minor;
#X obj 374 -285 pc-tab25 15 minor;
#X obj 374 -265 pc-tab25 16 minor;
#X obj 374 -245 pc-tab25 17 minor;
#X obj 374 -225 pc-tab25 18 minor;
#X obj 374 -205 pc-tab25 19 minor;
#X obj 374 -185 pc-tab25 20 minor;
#X obj 374 -165 pc-tab25 21 minor;
#X obj 374 -145 pc-tab25 22 minor;
#X obj 374 -125 pc-tab25 23 minor;
#X obj 254 -104 pc-tab25 24 major;
#X obj 374 -104 pc-tab25 24 minor;
#X obj 254 -83 pc-tab25 25 major;
#X obj 374 -83 pc-tab25 25 minor;
#X restore -229 -605 pd tables;
#X obj -274 -140 + 29;
#X text -241 -143 add 29 to lowest note (zero)!;
#X obj -187 -476 loadbang;
#X obj -292 -523 r onset;
#X obj -274 -93 makenote 120 120;
#X obj -232 -280 tabdump transition-7-minor;
#X obj -216 -324 loadbang;
#X obj -374 -696 loadbang;
#X obj -374 -675 t b b;
#X obj -216 -303 del 1;
#X obj -249 -63 noteout;
#X obj -232 -258 normalize;
#X obj -375 -718 declare -path ./abstools;
#X text -219 -718 <<- this way we tell Pd to look for patches in this
address!;
#X connect 0 0 14 0;
#X connect 2 0 14 0;
#X connect 4 0 6 0;
#X connect 6 0 22 0;
#X connect 6 1 5 0;
#X connect 8 0 26 0;
#X connect 9 0 8 1;
#X connect 11 0 30 0;
#X connect 12 0 4 0;
#X connect 13 0 12 0;
#X connect 15 0 19 0;
#X connect 16 0 20 0;
#X connect 17 0 16 0;
#X connect 18 0 19 0;
#X connect 19 0 17 1;
#X connect 20 0 31 0;
#X connect 21 0 17 0;
#X connect 22 0 21 0;
#X connect 22 1 8 0;
#X connect 23 0 12 1;
#X connect 26 0 11 0;
#X connect 28 0 18 0;
#X connect 29 0 4 0;
#X connect 30 0 36 0;
#X connect 30 1 36 1;
#X connect 31 0 37 0;
#X connect 32 0 35 0;
#X connect 33 0 34 0;
#X connect 34 0 2 0;
#X connect 34 1 0 0;
#X connect 35 0 31 0;
#X connect 37 0 6 1;
