#N canvas 65 173 934 649 12;
#X text 34 29 A MISLEADING PATCH: ORDER OF CONNECTION;
#X obj 49 175 *;
#X floatatom 49 218 5 0 0 0 - - -, f 5;
#X obj 168 172 *;
#X floatatom 168 216 5 0 0 0 - - -, f 5;
#X obj 286 182 *, f 19;
#X floatatom 286 217 5 0 0 0 - - -, f 5;
#X floatatom 52 125 5 0 0 0 - - -, f 5;
#X floatatom 172 125 5 0 0 0 - - -, f 5;
#X floatatom 352 85 5 0 0 0 - - -, f 5;
#X floatatom 172 70 5 0 0 0 - - -, f 5;
#X floatatom 238 121 5 0 0 0 - - -, f 5;
#X obj 352 113 t b f;
#X connect 1 0 2 0;
#X connect 3 0 4 0;
#X connect 5 0 6 0;
#X connect 7 0 1 1;
#X connect 7 0 1 0;
#X connect 8 0 3 0;
#X connect 8 0 3 1;
#X connect 9 0 12 0;
#X connect 10 0 9 0;
#X connect 10 0 8 0;
#X connect 10 0 7 0;
#X connect 11 0 5 0;
#X connect 12 0 5 0;
#X connect 12 1 5 1;
