#N canvas 0 23 408 479 12;
#X obj 145 368 metro 1000;
#X obj 144 66 tgl 15 0 empty empty empty 17 7 0 10 -262144 -1 -1 0
1;
#X floatatom 212 161 5 0 0 0 - - -;
#X obj 145 399 bng 15 250 50 0 empty empty empty 17 7 0 10 -262144
-1 -1;
#X obj 145 424 print to_console;
#X obj 212 315 /, f 18;
#X obj 212 211 f 60;
#X obj 212 260 * 1000;
#X text 255 160 bmp;
#X text 263 234 seconds;
#X floatatom 223 288 6 0 0 0 - - -;
#X text 272 289 ms;
#X floatatom 221 236 5 0 0 0 - - -;
#X floatatom 228 341 5 0 0 0 - - -;
#X obj 212 186 t b f, f 18;
#X text 270 343 ms / beat;
#X msg 32 65 0;
#X msg 76 65 1;
#X text 120 64 =;
#X floatatom 165 93 5 0 0 0 - - -;
#X text 145 41 toogle;
#X text 148 17 START/STOP METRO TIMER;
#X connect 0 0 3 0;
#X connect 1 0 0 0;
#X connect 1 0 19 0;
#X connect 2 0 14 0;
#X connect 3 0 4 0;
#X connect 5 0 13 0;
#X connect 5 0 0 1;
#X connect 6 0 7 0;
#X connect 6 0 12 0;
#X connect 7 0 10 0;
#X connect 7 0 5 0;
#X connect 14 0 6 0;
#X connect 14 1 5 1;
#X connect 16 0 0 0;
#X connect 17 0 0 0;
