#N canvas 473 140 396 553 12;
#X text 57 46 stick to the shortest desired note!;
#X obj 65 236 metro 1000;
#X obj 65 211 tgl 15 0 empty empty empty 17 7 0 10 -262144 -1 -1 0
1;
#X floatatom 132 83 5 0 0 0 - - -;
#X obj 132 183 /, f 18;
#X obj 132 158 * 1000;
#X text 175 82 bmp;
#X obj 132 133 float 60;
#X obj 132 108 trigger bang float;
#X obj 65 260 int;
#X obj 102 261 + 1;
#X obj 132 208 * 0.25;
#X obj 65 310 hradio 15 1 0 16 empty empty empty 0 -8 0 10 -262144
-1 -1 13;
#X obj 65 285 mod 16;
#X obj 65 337 div 2;
#X obj 65 364 hradio 30 1 0 8 empty empty empty 0 -8 0 10 -262144 -1
-1 6;
#X obj 65 436 hradio 60 1 0 4 empty empty empty 0 -8 0 10 -262144 -1
-1 3;
#X obj 65 408 div 2;
#X text 46 24 MULTIPLE SIMULTANEOUS TIME-RESOLUTIONS;
#X connect 1 0 9 0;
#X connect 2 0 1 0;
#X connect 3 0 8 0;
#X connect 4 0 11 0;
#X connect 5 0 4 0;
#X connect 7 0 5 0;
#X connect 8 0 7 0;
#X connect 8 1 4 1;
#X connect 9 0 10 0;
#X connect 9 0 13 0;
#X connect 10 0 9 1;
#X connect 11 0 1 1;
#X connect 12 0 14 0;
#X connect 13 0 12 0;
#X connect 14 0 15 0;
#X connect 15 0 17 0;
#X connect 17 0 16 0;
