#N canvas 106 23 1157 614 12;
#X obj 39 84 osc~ 440, f 17;
#X floatatom 39 58 5 0 0 0 - - -;
#X obj 29 334 dac~;
#X obj 39 279 *~ 0.1;
#X msg 78 139 0;
#X msg 93 174 0.1;
#X floatatom 113 208 5 0 0 0 - - -;
#X obj 186 154 vsl 15 128 0 1 0 0 empty empty empty 0 -9 0 10 -262144
-1 -1 1500 1;
#X text 41 26 SIMPLE VOLUME CONTROL;
#X obj 262 86 osc~ 440, f 17;
#X floatatom 262 60 5 0 0 0 - - -;
#X obj 251 534 dac~;
#X obj 356 324 line~;
#X obj 262 465 *~;
#X obj 380 412 snapshot~;
#X obj 380 437 nbx 5 28 -1e+37 1e+37 0 0 empty empty empty 0 -8 0 28
-262144 -1 -1 0 256;
#X obj 402 355 tgl 15 0 empty empty empty 17 7 0 10 -262144 -1 -1 0
1;
#X obj 402 381 metro 40;
#X obj 356 147 pack float float;
#X floatatom 465 123 5 0 0 0 - - -;
#X text 288 147 WHERE TO;
#X floatatom 356 122 5 0 0 0 - - -;
#X text 295 466 observe there is no argument here!;
#X text 264 28 SMOOTH VOLUME CONTROL;
#X msg 409 200 where_to in_how_long;
#X text 477 147 IN HOW LONG (ms)?;
#X msg 418 229 0 1000;
#X obj 650 88 osc~ 440, f 17;
#X floatatom 650 62 5 0 0 0 - - -;
#X obj 629 440 dac~;
#X floatatom 689 320 5 0 0 0 - - -;
#X obj 797 206 log;
#X obj 765 231 /, f 5;
#X obj 765 178 log;
#X obj 797 178 float 10;
#X text 861 178 base;
#X obj 765 149 t f b;
#X floatatom 765 318 0 0 0 0 - - -;
#X obj 689 152 rmstodb;
#X floatatom 689 116 0 0 0 0 - - -;
#X obj 689 346 dbtorms;
#X floatatom 689 371 5 0 0 0 - - -;
#X obj 765 264 * 20;
#X obj 765 293 + 100;
#X text 813 294 PD dB RANGE CONVENTION = 100 dBs;
#X obj 650 396 *~ 0.1;
#X text 750 345 must always be converted back to range between 0 and
1, f 29;
#X text 734 319 ==;
#X text 807 264 acoustic pressure level = 20 * log10(input);
#X text 645 30 CONTROL IN DB'S;
#X msg 423 260 0.1 1000;
#X obj 622 143 vsl 15 128 0 1 0 0 empty empty empty 0 -9 0 10 -262144
-1 -1 0 1;
#X connect 0 0 3 0;
#X connect 1 0 0 0;
#X connect 3 0 2 0;
#X connect 3 0 2 1;
#X connect 4 0 3 1;
#X connect 5 0 3 1;
#X connect 6 0 3 1;
#X connect 7 0 18 0;
#X connect 9 0 13 0;
#X connect 10 0 9 0;
#X connect 12 0 13 1;
#X connect 12 0 14 0;
#X connect 13 0 11 0;
#X connect 13 0 11 1;
#X connect 14 0 15 0;
#X connect 16 0 17 0;
#X connect 17 0 14 0;
#X connect 18 0 12 0;
#X connect 19 0 18 1;
#X connect 21 0 18 0;
#X connect 24 0 12 0;
#X connect 26 0 12 0;
#X connect 27 0 45 0;
#X connect 28 0 27 0;
#X connect 30 0 40 0;
#X connect 31 0 32 1;
#X connect 32 0 42 0;
#X connect 33 0 32 0;
#X connect 34 0 31 0;
#X connect 36 0 33 0;
#X connect 36 1 34 0;
#X connect 38 0 30 0;
#X connect 39 0 38 0;
#X connect 39 0 36 0;
#X connect 40 0 41 0;
#X connect 41 0 45 1;
#X connect 42 0 43 0;
#X connect 43 0 37 0;
#X connect 45 0 29 0;
#X connect 45 0 29 1;
#X connect 50 0 12 0;
