#N canvas 3 23 1079 778 12;
#X floatatom 299 77 5 0 0 0 - - -;
#X obj 343 718 dac~;
#X obj 544 656 line~;
#X obj 354 674 *~;
#X msg 544 631 \$1 1000;
#X obj 544 605 dbtorms;
#X obj 547 561 hsl 128 15 0 100 0 0 empty empty empty -2 -8 0 10 -262144
-1 -1 10900 1;
#X floatatom 551 582 5 0 0 0 - - -;
#X text 344 77 hertz;
#X obj 299 106 ftom;
#X text 342 107 freq to midi note values;
#X floatatom 299 136 5 0 0 0 - - -;
#X text 251 216 MIDI TO MUSICAL NOTES:;
#X text 245 242 - 12 notes per octave;
#X text 244 262 - starting at C (midi note 0);
#X text 245 282 - middle C = midi note 60;
#X text 245 302 - standard tuning reference = A4 = 440 Hz = midi note
69;
#X text 345 136 midi note number;
#X obj 676 310 hradio 30 1 0 12 empty empty empty 0 -8 0 10 -262144
-1 -1 3;
#X obj 676 225 mod 12;
#X text 686 288 c;
#X text 744 289 d;
#X text 808 288 e;
#X text 837 289 f;
#X text 894 288 g;
#X text 958 290 a;
#X text 1016 289 b;
#X obj 98 222 div 12;
#X obj 112 250 - 1;
#X floatatom 98 303 5 0 0 0 - - -;
#X floatatom 113 276 5 0 0 0 - - -;
#X text 684 350 0;
#X text 714 350 1;
#X text 746 350 2;
#X text 776 350 3;
#X text 807 350 4;
#X text 836 350 5;
#X text 865 350 6;
#X text 896 350 7;
#X text 926 350 8;
#X text 957 350 9;
#X text 981 350 10;
#X text 1013 350 11;
#X text 153 277 standard;
#X text 141 304 american;
#X text 24 254 OCTAVE INDEX:, f 6;
#X floatatom 365 383 5 0 0 0 - - -;
#X obj 354 446 +;
#X obj 324 383 * 12;
#X obj 365 406 t b f;
#X text 683 265 musical note names;
#X text 679 373 pitch classes;
#X floatatom 354 473 5 0 0 0 - - -;
#X text 406 473 midi note number;
#X obj 354 497 mtof;
#X text 397 498 midi note to hertz!;
#X text 239 23 SIMPLE CONVERSIONS;
#X obj 354 523 osc~ 200, f 17;
#X connect 0 0 9 0;
#X connect 2 0 3 1;
#X connect 3 0 1 0;
#X connect 3 0 1 1;
#X connect 4 0 2 0;
#X connect 5 0 4 0;
#X connect 6 0 5 0;
#X connect 6 0 7 0;
#X connect 9 0 11 0;
#X connect 11 0 19 0;
#X connect 11 0 27 0;
#X connect 18 0 46 0;
#X connect 19 0 18 0;
#X connect 27 0 28 0;
#X connect 27 0 29 0;
#X connect 28 0 30 0;
#X connect 29 0 48 0;
#X connect 46 0 49 0;
#X connect 47 0 52 0;
#X connect 48 0 47 0;
#X connect 49 0 47 0;
#X connect 49 1 47 1;
#X connect 52 0 54 0;
#X connect 54 0 57 0;
#X connect 57 0 3 0;
