#N canvas 8 22 420 689 10;
#X obj -280 -18 noise~;
#X obj -280 48 round~;
#X obj -255 290 mirrorWall~ 65536;
#X obj -255 313 /~ 32768;
#X obj -255 336 -~ 1;
#X obj -255 223 *~;
#X obj -255 173 *~;
#X obj 31 386 switch~;
#X obj 31 342 loadbang;
#X msg 31 364 0;
#X obj -95 276 tgl 15 0 empty empty empty 17 7 0 10 -262144 -1 -1 0
1;
#X obj -95 252 inlet;
#X msg -56 389 clear \, set 0;
#X obj -255 419 *~;
#X obj -240 399 line~;
#X obj -95 318 moses 1;
#X obj -95 348 pipe 200;
#X msg -240 378 \$1 100;
#X obj -240 526 snapshot~;
#X obj -255 617 *~;
#X obj -240 596 line~;
#X msg -240 575 \$1 100;
#X obj -255 72 tabread~ pesos;
#X obj -236 98 expr~ if ($v1 == 16 \, 16 \, if ($v2 == 16 \, 16 \,
0));
#X obj -240 460 expr~ if($v1 == 16 \, 0 \, 1);
#X obj -280 4 *~ 32768;
#X obj -280 26 +~ 32768;
#X obj 43 74 *~ 0;
#X obj -240 553 change;
#X obj -233 503 metro 200;
#X obj -195 554 sel 1;
#X obj -240 151 expr~ if($v1 >=32768 \, 1 \, -1);
#X obj -255 638 throw~ \$1;
#X obj 43 32 r~ feed5\$1;
#X obj 64 53 r switch5\$1;
#X obj -236 123 s~ feed5\$1;
#X obj -228 179 r reset5\$1;
#X obj -240 358 r switch5\$1;
#X obj -240 439 r~ feed5\$1;
#X obj -233 482 r switch5\$1;
#X obj -88 295 s switch5\$1;
#X obj -56 411 s reset5\$1;
#X obj -240 202 fexpr~ $x[0]+$y[-1];
#X obj -160 578 s trigger\$1;
#X obj -168 605 s ty5\$1;
#X connect 0 0 25 0;
#X connect 1 0 22 0;
#X connect 1 0 31 0;
#X connect 2 0 3 0;
#X connect 3 0 4 0;
#X connect 4 0 13 0;
#X connect 5 0 2 0;
#X connect 6 0 5 0;
#X connect 6 0 42 0;
#X connect 8 0 9 0;
#X connect 9 0 7 0;
#X connect 10 0 15 0;
#X connect 10 0 40 0;
#X connect 11 0 10 0;
#X connect 12 0 41 0;
#X connect 13 0 19 0;
#X connect 14 0 13 1;
#X connect 15 0 16 0;
#X connect 15 1 12 0;
#X connect 15 1 7 0;
#X connect 16 0 7 0;
#X connect 17 0 14 0;
#X connect 18 0 28 0;
#X connect 19 0 32 0;
#X connect 20 0 19 1;
#X connect 21 0 20 0;
#X connect 22 0 6 0;
#X connect 22 0 23 0;
#X connect 23 0 35 0;
#X connect 24 0 18 0;
#X connect 25 0 26 0;
#X connect 26 0 1 0;
#X connect 27 0 23 1;
#X connect 28 0 21 0;
#X connect 28 0 30 0;
#X connect 29 0 18 0;
#X connect 30 1 43 0;
#X connect 30 1 44 0;
#X connect 31 0 6 1;
#X connect 33 0 27 0;
#X connect 34 0 27 1;
#X connect 36 0 42 0;
#X connect 37 0 17 0;
#X connect 38 0 24 0;
#X connect 39 0 29 0;
#X connect 42 0 5 1;
