#N canvas 515 67 631 630 10;
#X obj 154 243 cos~;
#X text 192 189 range;
#X obj 154 268 *~ -0.5;
#X text 205 267 inverted cos;
#X text 201 291 scaled between 0-1;
#X obj 154 291 +~ 0.5;
#X text 260 378 range;
#X text 183 166 divides in 2 to use only the rising half of the cycle
;
#X obj 218 401 outlet~;
#X obj 154 189 /~ \$1;
#X obj 218 378 *~ \$1;
#X obj 154 166 /~ 2;
#X obj 154 136 inlet~;
#X text 317 80 (pi/4);
#X obj 356 289 tabread4~ correction;
#X obj 354 237 *~ 100;
#X obj 363 345 snaps~;
#X obj 58 428 snaps~;
#X obj 30 332 snaps~;
#X obj 115 105 sig~;
#X floatatom 127 78 5 0 0 0 - - -;
#X floatatom 157 55 5 0 0 0 - - -;
#X obj 235 435 snaps~;
#X obj -2 282 snaps~;
#X obj 55 134 sig~;
#X floatatom 67 107 5 0 0 0 - - -;
#X obj 103 203 /~ 100;
#X obj 206 538 tabwrite~ cos;
#X obj 263 501 metro 100;
#X obj 292 469 bng 15 250 50 0 empty empty empty 17 7 0 10 -262144
-1 -1;
#X obj 219 98 phasor~;
#X floatatom 242 63 5 0 0 0 - - -;
#X obj 156 355 -~;
#X connect 0 0 2 0;
#X connect 0 0 23 0;
#X connect 2 0 5 0;
#X connect 5 0 18 0;
#X connect 5 0 32 0;
#X connect 10 0 8 0;
#X connect 10 0 22 0;
#X connect 11 0 9 0;
#X connect 12 0 11 0;
#X connect 14 0 16 0;
#X connect 14 0 32 1;
#X connect 15 0 14 0;
#X connect 19 0 11 0;
#X connect 20 0 19 0;
#X connect 25 0 24 0;
#X connect 28 0 27 0;
#X connect 29 0 28 0;
#X connect 30 0 26 0;
#X connect 30 0 0 0;
#X connect 30 0 15 0;
#X connect 31 0 30 0;
#X connect 32 0 10 0;
#X connect 32 0 17 0;
#X connect 32 0 27 0;
