#N canvas 389 22 854 704 10;
#X obj -200 2 noise~;
#X obj -200 88 round~;
#X obj -177 449 mirrorWall~ 65536;
#X obj -177 472 /~ 32768;
#X obj -177 495 -~ 1;
#X obj -177 426 *~;
#X obj -175 193 *~;
#X obj -200 24 *~ 32768;
#X obj -200 46 +~ 32768;
#X obj -160 171 expr~ if($v1 >=32768 \, 1 \, -1);
#X obj -134 360 fexpr~ $x[0]-$y[-1];
#X text -132 33 rango de 2^16;
#X obj -200 67 -~ 1;
#X obj -7 27 table weights;
#X obj -175 92 tabread~ weights;
#X msg -62 289 clear;
#X obj -188 527 dac~;
#X obj 170 411 print~;
#X msg 170 375 1;
#X obj 247 238 snaps~;
#X msg -162 279 set 1;
#N canvas 0 22 450 300 block 1;
#X obj 95 172 outlet~;
#X obj 94 112 inlet~;
#X obj 94 146 +~ 1;
#X obj 255 122 block~ 1;
#X connect 1 0 2 0;
#X connect 2 0 0 0;
#X restore 164 165 pd block;
#X obj 164 141 r~ signal;
#X obj 188 292 s~ signal;
#X connect 0 0 7 0;
#X connect 1 0 9 0;
#X connect 1 0 14 0;
#X connect 2 0 3 0;
#X connect 3 0 4 0;
#X connect 4 0 16 1;
#X connect 4 0 16 0;
#X connect 5 0 2 0;
#X connect 7 0 8 0;
#X connect 8 0 12 0;
#X connect 9 0 6 1;
#X connect 10 0 5 1;
#X connect 12 0 1 0;
#X connect 14 0 6 0;
#X connect 15 0 10 0;
#X connect 18 0 17 0;
#X connect 20 0 10 0;
#X connect 21 0 19 0;
#X connect 21 0 17 0;
#X connect 22 0 21 0;
