#N canvas 270 22 576 587 10;
#X obj 194 410 samplerate~;
#X msg 122 328 1;
#X obj 194 438 / 1000;
#X obj 194 463 *;
#N canvas 0 22 450 300 (subpatch) 0;
#X array \$0-signal 8820 float 0;
#X coords 0 1 8819 -1 200 140 1;
#X restore 69 81 graph;
#X obj 194 540 s \$0-signal;
#X obj 56 504 tabwrite~ \$0-signal;
#X obj 56 241 tgl 35 0 empty empty empty 17 7 0 10 -262144 -1 -1 1
1;
#X obj 56 476 metro 100;
#X obj 13 476 inlet~;
#X obj 13 525 outlet~;
#X obj 194 355 t b f f;
#X obj 194 484 pack 0 0;
#X obj 239 465 * -2;
#X msg 194 506 resize \$1 \, xticks 0 \$1 1 \, yticks 0 0.5 1 \, xlabel
-1.15 0 \$1 \, ylabel \$2 -1 0 1;
#X obj 106 242 hradio 22 1 0 8 empty empty empty 0 -8 0 10 -262144
-228856 -1 7;
#X obj 129 297 sel 0 1 2 3 4 5 6 7;
#X msg 152 328 2;
#X msg 182 328 5;
#X msg 212 328 10;
#X msg 242 328 20;
#X msg 272 328 50;
#X msg 302 328 100;
#X msg 332 328 200;
#X obj 253 380 s \$0-ms;
#X floatatom 243 269 3 0 0 1 ms. #0-ms -;
#X text 164 268 display size;
#X obj 272 298 loadbang;
#X obj 107 447 clip 100 200;
#X connect 0 0 2 0;
#X connect 1 0 11 0;
#X connect 2 0 3 0;
#X connect 3 0 12 0;
#X connect 7 0 8 0;
#X connect 8 0 6 0;
#X connect 9 0 10 0;
#X connect 9 0 6 0;
#X connect 11 0 0 0;
#X connect 11 1 3 1;
#X connect 11 1 28 0;
#X connect 11 2 13 0;
#X connect 11 2 24 0;
#X connect 12 0 14 0;
#X connect 13 0 12 1;
#X connect 14 0 5 0;
#X connect 15 0 16 0;
#X connect 16 0 1 0;
#X connect 16 1 17 0;
#X connect 16 2 18 0;
#X connect 16 3 19 0;
#X connect 16 4 20 0;
#X connect 16 5 21 0;
#X connect 16 6 22 0;
#X connect 16 7 23 0;
#X connect 17 0 11 0;
#X connect 18 0 11 0;
#X connect 19 0 11 0;
#X connect 20 0 11 0;
#X connect 21 0 11 0;
#X connect 22 0 11 0;
#X connect 23 0 11 0;
#X connect 27 0 21 0;
#X connect 28 0 8 1;
#X coords 0 -1 1 1 237 240 1 50 50;
