#N canvas 659 23 941 630 10;
#X obj 30 60 openpanel;
#X obj 30 38 bng 15 250 50 0 empty empty empty 17 7 0 10 -262144 -1
-1;
#X msg 30 83 read \$1;
#X obj 30 450 noteout;
#X msg 160 83 loop \$1;
#X obj 160 62 tgl 15 0 empty empty empty 17 7 0 10 -262144 -1 -1 0
1;
#X obj 99 62 tgl 15 0 empty empty empty 17 7 0 10 -262144 -1 -1 0 1
;
#X msg 100 83 play \$1;
#X msg 162 114 flush;
#X text 31 13 higher level midi-file player based on mrpeach/midifile
;
#X msg 162 144 panic;
#X floatatom 193 250 5 0 0 0 - - -;
#X floatatom 127 270 5 0 0 0 - - -;
#X text 202 114 outputs all midi notes in no-time;
#X text 202 144 all notes off;
#X text 30 472 angel.faraldo@upf.edu --- 2015;
#X obj 75 407 tgl 15 0 empty empty empty 17 7 0 10 -262144 -1 -1 0
1;
#X text 96 405 send notes to synthesizer;
#X obj 40 359 spigot 0;
#X obj 85 337 tgl 15 0 empty empty empty 17 7 0 10 -262144 -1 -1 0
1;
#X obj 40 380 print midi_content;
#X text 106 335 print midi notes in the console;
#X text 178 212 info about midi track....;
#X text 232 249 tempo (bpm);
#X text 164 271 length (in midi "ticks");
#X obj 93 213 unpack 0 0 0;
#X floatatom 93 301 5 0 0 0 - - -;
#X obj 30 429 spigot 1;
#X text 130 302 length (in quarter notes);
#X obj 30 190 midiplayer2;
#X connect 0 0 2 0;
#X connect 1 0 0 0;
#X connect 2 0 29 0;
#X connect 4 0 29 0;
#X connect 5 0 4 0;
#X connect 6 0 7 0;
#X connect 7 0 29 0;
#X connect 8 0 29 0;
#X connect 10 0 29 0;
#X connect 16 0 27 1;
#X connect 18 0 20 0;
#X connect 19 0 18 1;
#X connect 25 0 26 0;
#X connect 25 1 12 0;
#X connect 25 2 11 0;
#X connect 27 0 3 0;
#X connect 29 0 18 0;
#X connect 29 0 27 0;
#X connect 29 1 25 0;
