#N canvas 128 128 1122 807 10;
#X obj -312 14 noise~;
#X obj -312 36 *~ 500;
#X obj -312 58 +~ 500;
#X obj -280 105 tabread~ weights;
#X obj -265 184 expr~ if($v1 >=500 \, 1 \, -1);
#X obj -280 328 mirrorWall~ 65536;
#X obj -280 352 /~ 32768;
#X obj -280 374 -~ 1;
#X obj -280 256 *~;
#X obj -280 206 *~;
#X obj -280 305 fexpr~ $x[0]+$y[-1];
#X obj 75 15 noise~;
#X obj 75 37 *~ 500;
#X obj 75 59 +~ 500;
#X obj 100 105 tabread~ weights;
#X obj 115 184 expr~ if($v1 >=500 \, 1 \, -1);
#X obj 100 328 mirrorWall~ 65536;
#X obj 100 352 /~ 32768;
#X obj 100 374 -~ 1;
#X obj 100 256 *~;
#X obj 100 206 *~;
#X obj 100 305 fexpr~ $x[0]+$y[-1];
#X obj 367 418 switch~;
#X obj 367 374 loadbang;
#X msg 367 396 0;
#X obj 234 327 tgl 15 0 empty empty empty 17 7 0 10 -262144 -1 -1 1
1;
#X obj 234 306 inlet;
#X msg 273 425 clear \, set 0;
#X obj -265 235 fexpr~ $x[0]-$y[-1];
#X obj 115 235 fexpr~ $x[0]-$y[-1];
#X obj -280 522 throw~ L;
#X obj 100 522 throw~ R;
#X obj -280 451 *~;
#X obj 100 451 *~;
#X obj 115 427 line~;
#X obj 234 354 moses 1;
#X obj 234 384 pipe 200;
#X msg 115 406 \$1 100;
#X obj 273 447 s reset1;
#X obj -253 212 r reset1;
#X obj -273 283 r reset1;
#X obj 107 283 r reset1;
#X obj 127 212 r reset1;
#X obj -259 133 expr~ if ($v1 == 10 \, 0 \, if ($v2 == 0 \, 0 \, 1))
;
#X obj -259 158 s~ feed1a;
#X obj 2 109 r~ feed1a;
#X obj 115 474 r~ feed1a;
#X obj 119 128 expr~ if ($v1 == 10 \, 0 \, if ($v2 == 0 \, 0 \, 1))
;
#X obj 119 156 s~ feed1b;
#X obj 380 107 r~ feed1b;
#X obj 100 498 *~;
#X obj -265 474 r~ feed1a;
#X obj -280 498 *~;
#X obj -173 156 snaps~;
#X floatatom -197 59 5 0 0 0 - - -, f 5;
#X obj 75 81 cyclone/round~;
#X obj -312 80 cyclone/round~;
#X connect 0 0 1 0;
#X connect 1 0 2 0;
#X connect 2 0 56 0;
#X connect 3 0 9 0;
#X connect 3 0 43 0;
#X connect 4 0 9 1;
#X connect 5 0 6 0;
#X connect 6 0 7 0;
#X connect 7 0 32 0;
#X connect 8 0 10 0;
#X connect 9 0 8 0;
#X connect 9 0 28 0;
#X connect 10 0 5 0;
#X connect 11 0 12 0;
#X connect 12 0 13 0;
#X connect 13 0 55 0;
#X connect 14 0 20 0;
#X connect 14 0 47 0;
#X connect 15 0 20 1;
#X connect 16 0 17 0;
#X connect 17 0 18 0;
#X connect 18 0 33 0;
#X connect 19 0 21 0;
#X connect 20 0 19 0;
#X connect 20 0 29 0;
#X connect 21 0 16 0;
#X connect 23 0 24 0;
#X connect 24 0 22 0;
#X connect 25 0 35 0;
#X connect 25 0 37 0;
#X connect 26 0 25 0;
#X connect 27 0 38 0;
#X connect 28 0 8 1;
#X connect 29 0 19 1;
#X connect 32 0 52 0;
#X connect 33 0 50 0;
#X connect 34 0 32 1;
#X connect 34 0 33 1;
#X connect 35 0 36 0;
#X connect 35 1 27 0;
#X connect 35 1 22 0;
#X connect 36 0 22 0;
#X connect 37 0 34 0;
#X connect 39 0 28 0;
#X connect 40 0 10 0;
#X connect 41 0 21 0;
#X connect 42 0 29 0;
#X connect 43 0 44 0;
#X connect 43 0 53 0;
#X connect 45 0 43 1;
#X connect 46 0 50 1;
#X connect 47 0 48 0;
#X connect 49 0 47 1;
#X connect 50 0 31 0;
#X connect 51 0 52 1;
#X connect 52 0 30 0;
#X connect 54 0 3 0;
#X connect 55 0 14 0;
#X connect 55 0 15 0;
#X connect 56 0 3 0;
#X connect 56 0 4 0;
