#N canvas 47 26 467 566 10;
#X obj -330 123 osc~;
#X obj -297 83 * \$2;
#X obj -330 389 *~;
#X obj -265 268 log;
#X obj -265 289 / 0.693147;
#X obj -286 351 +~ 0;
#X obj -286 372 dbtorms~;
#X obj -265 248 /;
#X msg -265 227 1 \$1;
#X obj -265 331 + 100;
#X obj -135 1 cnv 15 210 140 empty empty empty 20 12 0 14 -233017 -66577
0;
#X text -131 5 args:;
#X text -133 46 2 partial number;
#X text -133 26 1 ID;
#X obj -309 41 f \$3;
#X obj -265 309 * 10;
#X obj -330 61 *~ 0;
#X obj -330 103 +~ 400;
#X obj -330 460 *~;
#X obj -207 460 *~;
#X obj -330 479 throw~ \$1-overtoneL;
#X obj -207 479 throw~ \$1-overtoneR;
#X obj -192 437 abs~;
#X obj -192 418 -~ 1;
#X text -133 66 3 frequency variation range (Hz.);
#X text -133 86 4 relative amplitude;
#X text -133 106 5 amplitude variation range (dB.);
#X obj -265 207 f \$4;
#X obj -286 147 *~ \$5;
#X obj -192 396 +~ 0.5;
#X obj -192 375 *~ 0.5;
#X obj -297 63 r \$1-fund;
#X obj -265 187 r \$1-loadbang;
#X obj -309 21 r \$1-loadbang;
#X obj -192 353 a.noiscillator~ \$1;
#X obj -286 125 a.noiscillator~ \$1;
#X obj -330 -7 a.noiscillator~ \$1;
#X connect 0 0 2 0;
#X connect 1 0 17 1;
#X connect 2 0 18 0;
#X connect 2 0 19 0;
#X connect 3 0 4 0;
#X connect 4 0 15 0;
#X connect 5 0 6 0;
#X connect 6 0 2 1;
#X connect 7 0 3 0;
#X connect 8 0 7 0;
#X connect 9 0 5 1;
#X connect 14 0 16 1;
#X connect 15 0 9 0;
#X connect 16 0 17 0;
#X connect 17 0 0 0;
#X connect 18 0 20 0;
#X connect 19 0 21 0;
#X connect 22 0 19 1;
#X connect 23 0 22 0;
#X connect 27 0 8 0;
#X connect 28 0 5 0;
#X connect 29 0 23 0;
#X connect 29 0 18 1;
#X connect 30 0 29 0;
#X connect 31 0 1 0;
#X connect 32 0 27 0;
#X connect 33 0 14 0;
#X connect 34 0 30 0;
#X connect 35 0 28 0;
#X connect 36 0 16 0;
