#N canvas 47 26 263 583 10;
#X obj -127 42 osc~;
#X obj -94 2 * \$2;
#X obj -127 308 *~;
#X obj -62 187 log;
#X obj -62 208 / 0.693147;
#X obj -83 270 +~ 0;
#X obj -83 291 dbtorms~;
#X obj -62 167 /;
#X msg -62 146 1 \$1;
#X obj -62 250 + 100;
#X obj -106 -40 f \$3;
#X obj -62 228 * 10;
#X obj -127 -20 *~ 0;
#X obj -127 22 +~ 400;
#X obj -62 126 f \$4;
#X obj -83 66 *~ \$5;
#X obj -94 -18 r \$1-fund;
#X obj -62 106 r \$1-loadbang;
#X obj -106 -60 r \$1-loadbang;
#X obj -127 418 throw~ \$1-overtone1;
#X obj -100 398 throw~ \$1-overtone2;
#X obj -73 378 throw~ \$1-overtone3;
#X obj -46 359 throw~ \$1-overtone4;
#X obj -127 -88 a.noiscillator~ \$1;
#X obj -83 44 a.noiscillator~ \$1;
#X obj -46 316 a.noiscillator~ \$1;
#X obj -127 338 a.circularPan~;
#X connect 0 0 2 0;
#X connect 1 0 13 1;
#X connect 2 0 26 0;
#X connect 3 0 4 0;
#X connect 4 0 11 0;
#X connect 5 0 6 0;
#X connect 6 0 2 1;
#X connect 7 0 3 0;
#X connect 8 0 7 0;
#X connect 9 0 5 1;
#X connect 10 0 12 1;
#X connect 11 0 9 0;
#X connect 12 0 13 0;
#X connect 13 0 0 0;
#X connect 14 0 8 0;
#X connect 15 0 5 0;
#X connect 16 0 1 0;
#X connect 17 0 14 0;
#X connect 18 0 10 0;
#X connect 23 0 12 0;
#X connect 24 0 15 0;
#X connect 25 0 26 1;
#X connect 26 0 19 0;
#X connect 26 1 20 0;
#X connect 26 2 21 0;
#X connect 26 3 22 0;
