#N canvas 181 53 1563 956 12;
#N canvas 0 22 450 278 (subpatch) 0;
#X array waveform 259 float 0;
#X coords 0 1.5 258 -1.5 400 280 2 0 0;
#X restore 842 238 graph;
#X obj 446 137 tabosc4~ waveform;
#X obj 15 264 cnv 15 100 60 empty empty empty 20 12 0 14 -233017 -66577
0;
#X obj 24 296 /;
#X msg 24 269 1 \$1;
#X text 31 364 amplitude = 1/h;
#X text 30 329 SAWTOOTH;
#X text 31 346 even and odd harmonics;
#X obj 436 206 dac~;
#X msg 621 137 0;
#X obj 212 269 cnv 15 100 130 empty empty empty 20 12 0 14 -233017
-66577 0;
#X obj 401 264 cnv 15 100 190 empty empty empty 20 12 0 14 -233017
-66577 0;
#X obj 219 371 /;
#X msg 219 346 1 \$1;
#X text 214 403 SQUARE;
#X text 214 422 only odd harmonics;
#X obj 251 298 mod 2;
#X obj 219 271 t f f;
#X obj 219 322 *, f 5;
#X text 213 441 amplitude = odd(1/h);
#X obj 417 420 /;
#X msg 417 395 1 \$1;
#X obj 446 290 mod 2;
#X obj 414 316 *, f 5;
#X obj 417 370 *;
#X obj 414 266 t f f;
#X text 633 526 TRIANGLE;
#X text 406 475 amplitude = odd(1/hn^2);
#X obj 414 344 t f f;
#X obj 446 111 mtof;
#X obj 446 43 loadbang;
#X msg 446 67 48;
#X floatatom 446 90 5 0 0 0 - - -;
#N canvas 542 108 246 467 create-waveform 0;
#X obj 31 406 send waveform;
#X obj 89 121 t l;
#X obj 31 203 list length;
#X obj 31 274 list, f 13;
#X obj 31 180 t l l, f 13;
#X obj 31 227 ==, f 21;
#X obj 31 250 sel 1;
#X obj 31 380 list trim;
#X obj 31 151 list prepend;
#X obj 31 356 list append, f 16;
#X obj 31 298 t b l, f 16;
#X obj 31 45 inlet;
#X obj 143 71 t b f;
#X obj 143 44 receive nh;
#X msg 31 328 sinesum 256;
#X connect 1 0 8 1;
#X connect 2 0 5 0;
#X connect 3 0 10 0;
#X connect 4 0 2 0;
#X connect 4 1 3 1;
#X connect 5 0 6 0;
#X connect 6 0 3 0;
#X connect 7 0 0 0;
#X connect 8 0 1 0;
#X connect 8 0 4 0;
#X connect 9 0 7 0;
#X connect 10 0 14 0;
#X connect 10 1 9 1;
#X connect 11 0 8 0;
#X connect 12 0 8 1;
#X connect 12 1 5 1;
#X connect 13 0 12 0;
#X connect 14 0 9 0;
#X restore 24 571 pd create-waveform;
#X obj 24 236 route saw square triang_1 triang_2, f 112;
#X text 632 545 amplitude = odd(1/hn^2);
#X obj 604 263 cnv 15 150 260 empty empty empty 20 12 0 14 -233017
-66577 0;
#X obj 612 420 /;
#X msg 612 395 1 \$1;
#X obj 641 290 mod 2;
#X obj 609 316 *, f 5;
#X obj 612 370 *;
#X obj 609 266 t f f;
#X obj 609 344 t f f f;
#X obj 664 384 mod 4;
#X obj 665 410 == 1;
#X obj 634 492 * -1;
#X obj 665 434 sel 1 0;
#X msg 661 459 -1;
#X msg 701 459 1;
#X text 632 564 only odd harmonics \, with phase shift;
#X text 405 458 only odd harmonics;
#X msg 197 13 saw;
#X obj 175 115 symbol;
#X msg 207 60 triang_1;
#X msg 211 85 triang_2;
#X msg 202 36 square;
#X msg 24 116 20;
#N canvas 0 23 279 304 number-of-harmonics 0;
#X obj 48 95 until;
#X msg 66 142 1;
#X obj 49 70 t f b f, f 18;
#X obj 48 168 f 1;
#X obj 89 167 + 1;
#X obj 49 13 inlet;
#X obj 48 200 outlet;
#X obj 172 200 send nh;
#X obj 49 43 f;
#X obj 174 12 inlet;
#X connect 0 0 3 0;
#X connect 1 0 3 1;
#X connect 2 0 0 0;
#X connect 2 1 1 0;
#X connect 2 2 7 0;
#X connect 3 0 4 0;
#X connect 3 0 6 0;
#X connect 4 0 3 1;
#X connect 5 0 8 0;
#X connect 8 0 2 0;
#X connect 9 0 8 0;
#X restore 24 163 pd number-of-harmonics;
#X floatatom 24 142 5 0 0 0 - - -;
#X obj 24 90 loadbang;
#X obj 24 187 pack f s, f 26;
#X msg 24 211 \$2 \$1;
#X msg 583 137 0.3;
#X obj 446 172 *~ 0.3, f 20;
#X obj 175 138 t b s;
#X obj 1013 585 openpanel;
#X obj 1013 561 bng 15 250 50 0 empty empty empty 17 7 0 10 -262144
-1 -1;
#X msg 1013 627 read -resize \$1 waveform;
#X obj 1013 651 soundfiler;
#X msg 1317 370 \; waveform read clarinet.txt \; waveform normalize
;
#X msg 1280 506 \; waveform read violin.txt \; waveform normalize;
#X connect 1 0 64 0;
#X connect 3 0 33 0;
#X connect 4 0 3 0;
#X connect 9 0 64 1;
#X connect 12 0 33 0;
#X connect 13 0 12 0;
#X connect 16 0 18 1;
#X connect 17 0 18 0;
#X connect 17 1 16 0;
#X connect 18 0 13 0;
#X connect 20 0 33 0;
#X connect 21 0 20 0;
#X connect 22 0 23 1;
#X connect 23 0 28 0;
#X connect 24 0 21 0;
#X connect 25 0 23 0;
#X connect 25 1 22 0;
#X connect 28 0 24 0;
#X connect 28 1 24 1;
#X connect 29 0 1 0;
#X connect 30 0 31 0;
#X connect 31 0 32 0;
#X connect 32 0 29 0;
#X connect 34 0 4 0;
#X connect 34 1 17 0;
#X connect 34 2 25 0;
#X connect 34 3 42 0;
#X connect 37 0 46 0;
#X connect 38 0 37 0;
#X connect 39 0 40 1;
#X connect 40 0 43 0;
#X connect 41 0 38 0;
#X connect 42 0 40 0;
#X connect 42 1 39 0;
#X connect 43 0 41 0;
#X connect 43 1 41 1;
#X connect 43 2 44 0;
#X connect 44 0 45 0;
#X connect 45 0 47 0;
#X connect 46 0 33 0;
#X connect 47 0 48 0;
#X connect 47 1 49 0;
#X connect 48 0 46 1;
#X connect 49 0 46 1;
#X connect 52 0 53 0;
#X connect 53 0 65 0;
#X connect 54 0 53 0;
#X connect 55 0 53 0;
#X connect 56 0 53 0;
#X connect 57 0 59 0;
#X connect 58 0 61 0;
#X connect 59 0 58 0;
#X connect 60 0 57 0;
#X connect 61 0 62 0;
#X connect 62 0 34 0;
#X connect 63 0 64 1;
#X connect 64 0 8 0;
#X connect 64 0 8 1;
#X connect 65 0 58 1;
#X connect 65 1 61 1;
#X connect 66 0 68 0;
#X connect 67 0 66 0;
#X connect 68 0 69 0;
