#N canvas 674 524 212 278 10;
#X obj 48 17 key;
#X obj 48 38 sel \$1;
#X obj 112 38 sel \$1;
#X obj 112 17 keyup;
#X obj 112 105 delay 30;
#X msg 112 128 0;
#X msg 48 125 1;
#X obj 48 60 t b b;
#X msg 75 80 stop;
#X obj 48 161 change;
#X obj 48 182 swap \$1;
#X obj 48 205 pack, f 7;
#X obj 48 228 s polykeyboard;
#X connect 0 0 1 0;
#X connect 1 0 7 0;
#X connect 2 0 4 0;
#X connect 3 0 2 0;
#X connect 4 0 5 0;
#X connect 5 0 9 0;
#X connect 6 0 9 0;
#X connect 7 0 6 0;
#X connect 7 1 8 0;
#X connect 8 0 4 0;
#X connect 9 0 10 0;
#X connect 10 0 11 0;
#X connect 10 1 11 1;
#X connect 11 0 12 0;
