#N canvas 1367 354 581 224 10;
#X obj 23 31 key;
#X obj 106 25 keyup;
#X obj 23 53 pack 0 1;
#X obj 45 141 route 97 98 99 100;
#X obj 45 165 print;
#X obj 106 49 pack 0 0;
#X text 174 71 A good idea is to make a "package" of two numbers \,
the first one containing the note number (you need to assimilate or
convert ASCII numbers to MIDI note numbers \, That can be done with
a CONSTANT SUBTRACTION. The second number simply indicates the state
of the note \, ON (1) or OFF (0).;
#X connect 0 0 2 0;
#X connect 1 0 5 0;
#X connect 2 0 3 0;
#X connect 3 0 4 0;
#X connect 5 0 3 0;
