#N canvas 1855 841 657 430 10;
#X obj 71 207 osc~;
#X obj 107 379 dac~;
#X obj 118 333 *~;
#X obj 67 178 mtof;
#X obj 33 73 inlet;
#X obj 222 72 inlet;
#X text 25 25 we are supposed to have two values \, the first one representing
the midi note number... and the second one the state of the note (on/off)
;
#X obj 209 302 line~;
#X text 270 147 the whole difficulty of the exercise is to separate
the ON (1) and OFF (0) messages to assign different ATTACK and RELEASE
times \, respectively;
#X obj 214 171 sel 1 0;
#X msg 212 215 ?? ??;
#X msg 278 244 ?? ??, f 6;
#X text 342 234 and write different amplitudes and time durations to
make your desired envelope, f 38;
#X connect 0 0 2 0;
#X connect 2 0 1 0;
#X connect 2 0 1 1;
#X connect 3 0 0 0;
#X connect 4 0 3 0;
#X connect 5 0 9 0;
#X connect 7 0 2 1;
#X connect 9 0 10 0;
#X connect 9 1 11 0;
#X connect 10 0 7 0;
#X connect 11 0 7 0;
