#N canvas 652 54 450 605 12;
#X obj 59 89 fiddle~ 2048;
#X obj 127 112 unpack;
#X obj 127 136 moses 1;
#X obj 210 168 mtof;
#N canvas 0 0 446 202 (subpatch) 0;
#X obj 261 30 tgl 15 0 empty empty empty 0 -6 0 8 -262144 -1 -1 0 1
;
#X obj 100 20 inlet~;
#X obj 99 87 *~;
#X obj 98 159 outlet~;
#X text 381 181 corner;
#X connect 0 0 2 1;
#X connect 1 0 2 0;
#X connect 2 0 3 0;
#X coords 0 0 100 100 40 18 1;
#X restore 89 486 pd;
#N canvas 0 0 446 202 (subpatch) 0;
#X obj 261 30 tgl 15 0 empty empty empty 0 -6 0 8 -262144 -1 -1 0 1
;
#X obj 100 20 inlet~;
#X obj 99 87 *~;
#X obj 98 159 outlet~;
#X text 381 181 corner;
#X connect 0 0 2 1;
#X connect 1 0 2 0;
#X connect 2 0 3 0;
#X coords 0 0 100 100 40 18 1;
#X restore 43 486 pd;
#X obj 43 512 +~, f 7;
#X obj 242 240 samplerate~;
#X obj 210 216 t f b;
#X obj 89 458 +~;
#X obj 212 341 +;
#X obj 210 191 expr 500/$f1;
#X obj 212 393 line~;
#X obj 212 370 pack 0 20;
#X obj 242 266 expr 2048000/$f1;
#X obj 35 544 dac~;
#X obj 29 31 adc~;
#X obj 60 64 delwrite~ delline 100;
#X obj 69 303 delread~ delline;
#X obj 107 434 vd~ delline;
#X text 314 190 A;
#X text 365 268 B;
#X text 191 304 C;
#X text 142 491 E;
#X text 197 432 D;
#X text 184 99 F;
#X connect 0 2 1 0;
#X connect 1 0 2 0;
#X connect 2 1 3 0;
#X connect 3 0 11 0;
#X connect 4 0 6 1;
#X connect 5 0 6 0;
#X connect 6 0 15 0;
#X connect 6 0 15 1;
#X connect 7 0 14 0;
#X connect 8 0 10 0;
#X connect 8 1 7 0;
#X connect 9 0 4 0;
#X connect 10 0 13 0;
#X connect 11 0 8 0;
#X connect 12 0 19 0;
#X connect 13 0 12 0;
#X connect 14 0 10 1;
#X connect 14 0 18 0;
#X connect 16 0 0 0;
#X connect 16 0 5 0;
#X connect 16 0 17 0;
#X connect 18 0 9 0;
#X connect 19 0 9 1;
