#N canvas 632 22 619 570 10;
#X obj 63 155 s reset;
#X obj 12 226 dac~;
#N canvas 449 22 450 300 quantize 0;
#N canvas 0 22 450 278 (subpatch) 0;
#X array quantization 16 float 3;
#A 0 1 1.25 1.5 1.75 2 2.25 2.5 2.75 3 3.25 3.5 3.75 4 4.25 4.5 4.75
;
#X coords 0 5 16 1 350 140 2 0 0;
#X restore 54 -83 graph;
#X msg 52 -157 1 1.25 1.5 1.75 2 2.25 2.5 2.75 3 3.25 3.5 3.75 4 4.25
4.5 4.75;
#X obj 52 -179 loadbang;
#X obj 52 -121 tabset quantization;
#X connect 1 0 3 0;
#X connect 2 0 1 0;
#X restore 10 6 pd quantize;
#X obj 10 50 bng 15 250 50 0 empty empty empty 17 7 0 10 -262144 -1
-1;
#X obj 10 28 loadbang;
#X obj 12 176 catch~ L;
#X floatatom 10 133 5 0 0 0 - set_tempo -;
#X obj 10 155 s tempo;
#X obj 279 69 unit;
#X obj 33 196 catch~ R;
#X msg 63 134 bang;
#X msg 10 70 \; set_tempo 120 \; reset bang \; pd dsp 1;
#X obj 279 89 unit;
#X obj 309 69 unit;
#X obj 309 89 unit;
#N canvas 672 22 295 573 core 1;
#X obj 104 196 phasor~;
#X obj 124 320 snapshot~;
#X obj 22 379 samphold~;
#X obj 124 218 *~ 16;
#X obj 104 16 / 60;
#X obj 143 156 r reset;
#X obj 22 355 +~ 1;
#X obj 22 507 change;
#X obj 124 340 change;
#X obj 132 300 metro 10;
#X obj 73 335 wrap~;
#X obj 73 357 +~ 0.1;
#X obj 104 36 * 0.25;
#X obj 131 116 * 1000;
#X msg 131 76 1 \$1;
#X obj 131 96 /;
#X obj 104 56 t f f;
#X obj 22 486 snapshot~;
#X obj 37 466 metro 10;
#X obj 124 360 s sequence;
#X obj 124 240 tabread~ quantization;
#X obj 104 -4 r tempo;
#X obj 131 136 s barDur;
#X obj 200 259 r barDur;
#X obj 132 280 r reset;
#X obj 22 196 r~ counts~;
#X obj 32 401 s~ counts~;
#X obj 37 435 r reset;
#X obj 22 528 s counts;
#X msg 143 176 0;
#X obj 200 279 / 32;
#X connect 0 0 3 0;
#X connect 0 0 10 0;
#X connect 1 0 8 0;
#X connect 2 0 17 0;
#X connect 2 0 26 0;
#X connect 3 0 20 0;
#X connect 4 0 12 0;
#X connect 5 0 29 0;
#X connect 6 0 2 0;
#X connect 7 0 28 0;
#X connect 8 0 19 0;
#X connect 9 0 1 0;
#X connect 10 0 11 0;
#X connect 11 0 2 1;
#X connect 12 0 16 0;
#X connect 13 0 22 0;
#X connect 14 0 15 0;
#X connect 15 0 13 0;
#X connect 16 0 0 0;
#X connect 16 1 14 0;
#X connect 17 0 7 0;
#X connect 18 0 17 0;
#X connect 20 0 1 0;
#X connect 21 0 4 0;
#X connect 23 0 30 0;
#X connect 24 0 9 0;
#X connect 25 0 6 0;
#X connect 27 0 18 0;
#X connect 29 0 0 1;
#X connect 30 0 9 1;
#X connect 30 0 18 1;
#X restore 83 6 pd core;
#X connect 3 0 11 0;
#X connect 4 0 3 0;
#X connect 5 0 1 0;
#X connect 6 0 7 0;
#X connect 9 0 1 1;
#X connect 10 0 0 0;
