#N canvas 0 22 450 300 10;
#X obj 112 152 tabwrite %;
#X obj 73 85 inlet;
#X obj 92 173 s normalize;
#X obj 112 129 pack 0 \$1;
#X obj 73 236 * 100;
#X obj 73 215 tabread %;
#X obj 73 195 f \$1;
#X obj 73 108 t b b f;
#X obj 73 258 outlet;
#X connect 1 0 7 0;
#X connect 3 0 0 0;
#X connect 4 0 8 0;
#X connect 5 0 4 0;
#X connect 6 0 5 0;
#X connect 7 0 6 0;
#X connect 7 1 2 0;
#X connect 7 2 3 0;
