#N canvas 597 187 525 562 10;
#X obj -137 -133 vradio 15 1 0 4 empty \$0-set_grid1 STRAIGHT 0 -8
0 10 -262144 -1 -1 3;
#X text -115 -89 16th;
#X text -109 -104 8th;
#X text -109 -120 4th;
#X text -109 -135 2nd;
#X floatatom -77 -133 5 0 0 0 - #0-set_events -;
#X obj -137 -26 pow;
#X msg -137 -47 2 \$1;
#X obj -137 -68 + 1;
#X obj -125 84 min;
#X obj -137 18 t b f;
#X obj -137 61 f;
#X obj 143 14 /;
#X msg 143 -7 16 \$1;
#X obj 65 -53 until;
#X obj 65 -74 f 1;
#X obj 65 103 list-extend;
#X obj 14 146 list-find;
#X obj 65 62 * 0.25;
#X obj 65 40 * 8;
#X obj 14 200 dirac~;
#X obj 65 82 + 1;
#X obj -127 -4 s \$0-grid1;
#X obj -77 -112 s \$0-events/bar;
#X obj -125 104 s \$0-events;
#X obj -130 40 r \$0-events/bar;
#X obj 80 -95 r \$0-events;
#X obj 116 -49 r \$0-grid1;
#X obj -125 170 \$0;
#X obj -125 150 bng 15 250 50 0 empty empty empty 17 7 0 10 -262144
-1 -1;
#X obj -125 128 loadbang;
#X obj 65 -7 zexy/urn;
#X obj 65 125 sort;
#X obj 116 -29 t f f;
#X msg 73 -31 clear;
#X obj 14 293 throw~ L;
#X msg -125 193 \; \$1-set_grid1 2 \; \$1-set_events 3 \;;
#X obj 54 -139 r counts;
#X obj -3 40 r sequence;
#X obj 14 253 pan~;
#X obj 57 200 random 90;
#X obj 57 222 - 45;
#X obj 35 273 throw~ R;
#X obj 54 -117 t b b b b;
#X obj 252 104 switch~;
#X obj 252 54 tgl 15 0 empty empty empty 17 7 0 10 -262144 -1 -1 1
1;
#X obj 14 169 t b b;
#X connect 0 0 8 0;
#X connect 5 0 23 0;
#X connect 6 0 22 0;
#X connect 6 0 10 0;
#X connect 7 0 6 0;
#X connect 8 0 7 0;
#X connect 9 0 24 0;
#X connect 10 0 11 0;
#X connect 10 1 9 1;
#X connect 11 0 9 0;
#X connect 12 0 19 1;
#X connect 13 0 12 0;
#X connect 14 0 31 0;
#X connect 15 0 14 0;
#X connect 16 0 32 0;
#X connect 17 0 46 0;
#X connect 18 0 21 0;
#X connect 19 0 18 0;
#X connect 20 0 39 0;
#X connect 21 0 16 0;
#X connect 25 0 11 0;
#X connect 26 0 15 1;
#X connect 27 0 33 0;
#X connect 28 0 36 0;
#X connect 29 0 28 0;
#X connect 30 0 29 0;
#X connect 31 0 19 0;
#X connect 32 0 17 1;
#X connect 33 0 31 1;
#X connect 33 1 13 0;
#X connect 34 0 31 0;
#X connect 37 0 43 0;
#X connect 38 0 17 0;
#X connect 39 0 35 0;
#X connect 39 1 42 0;
#X connect 40 0 41 0;
#X connect 41 0 39 1;
#X connect 43 0 15 0;
#X connect 43 1 34 0;
#X connect 43 2 16 1;
#X connect 45 0 44 0;
#X connect 46 0 20 0;
#X connect 46 1 40 0;
