#N canvas 123 92 978 581 16;
#X obj 223 228 cnv 15 60 90 empty empty empty 20 12 0 14 -4034 -66577
0;
#X obj 21 59 cnv 15 370 100 empty empty empty 20 12 0 14 -4034 -66577
0;
#X msg 48 173 0;
#X obj 48 430 bng 15 250 50 0 empty empty empty 17 7 0 10 -262144 -1
-1;
#X obj 28 65 samplerate~;
#X msg 28 32 bang;
#X floatatom 28 97 5 0 0 0 - - -;
#X text 72 422 write an snapshot to the table;
#X text 94 171 phase;
#X obj 48 357 t b f;
#X floatatom 227 231 5 0 0 0 - - -;
#X text 533 523 y = amplitude values in range -1 to 1, f 39;
#X obj 28 128 / 1000;
#X text 101 130 size of the table in points;
#X text 533 496 x = time in samples / points;
#X msg 64 202 0.25;
#X msg 84 262 0.75;
#X msg 74 232 0.5;
#X obj 28 454 tabwrite~ phase;
#X obj 28 388 phasor~;
#N canvas 0 23 450 300 ticks 0;
#X obj 16 39 loadbang;
#X msg 16 79 \; phase ylabel -20 1 0 -1 \; phase yticks 0 0.5 2 \;
phase xlabel -1.1 0 250 500 750 1000 \; phase xticks 0 250 2 \;;
#X connect 0 0 1 0;
#X restore 28 483 pd ticks;
#X obj 422 374 cnv 15 550 70 empty empty empty 20 12 0 14 -4034 -66577
0;
#N canvas 0 22 450 278 (subpatch) 0;
#X array phase 1000 float 0;
#X coords 0 1 999 -1 400 300 1 0 0;
#X restore 539 33 graph;
#X text 632 376 90;
#X text 722 376 180;
#X text 822 376 270;
#X text 927 376 360;
#X text 532 399 0;
#X text 732 399 pi;
#X text 612 399 pi/2;
#X text 927 399 2pi;
#X text 782 399 3(pi/2);
#X text 439 350 points:;
#X text 429 373 degrees:;
#X text 429 396 radians:;
#X text 532 376 0;
#X text 439 419 phasor:;
#X text 532 422 0;
#X text 612 422 0.25;
#X text 722 422 0.5;
#X text 812 422 0.75;
#X text 947 422 1;
#X obj 227 260 wrap;
#X floatatom 227 291 5 0 0 0 - - -;
#X connect 2 0 9 0;
#X connect 3 0 18 0;
#X connect 4 0 6 0;
#X connect 5 0 4 0;
#X connect 6 0 12 0;
#X connect 9 0 3 0;
#X connect 9 1 19 1;
#X connect 10 0 9 0;
#X connect 10 0 42 0;
#X connect 12 0 19 0;
#X connect 15 0 9 0;
#X connect 16 0 9 0;
#X connect 17 0 9 0;
#X connect 19 0 18 0;
#X connect 42 0 43 0;
