#N canvas 151 104 979 718 16;
#X obj 25 364 cnv 15 80 60 empty empty empty 20 12 0 14 -4034 -66577
0;
#X msg 48 152 0;
#N canvas 0 23 450 300 ticks 0;
#X obj 16 39 loadbang;
#X msg 15 69 \; phase ylabel -20 1 0 -1 \; phase yticks 0 0.5 2 \;
phase xlabel -1.15 0 250 500 750 1000 \; phase xticks 0 250 2 \;;
#X connect 0 0 1 0;
#X restore 28 491 pd ticks;
#X obj 28 49 samplerate~;
#X msg 28 19 bang;
#X floatatom 28 80 5 0 0 0 - - -;
#X text 94 150 phase;
#X obj 48 337 t b f;
#X floatatom 98 291 5 0 0 0 - - -;
#N canvas 0 22 450 278 (subpatch) 0;
#X array phase 1000 float 0;
#X array cos 1000 float 0;
#X coords 0 1 999 -1 400 300 1 0 0;
#X restore 539 43 graph;
#X text 533 513 y = amplitude values in range -1 to 1, f 39;
#X obj 28 114 / 1000;
#X text 101 116 size of the table in points;
#X text 533 486 x = time in samples / points;
#X msg 64 181 0.25;
#X msg 84 241 0.75;
#X msg 74 211 0.5;
#X text 632 386 90;
#X text 722 386 180;
#X text 822 386 270;
#X text 927 386 360;
#X text 532 409 0;
#X text 732 409 pi;
#X text 612 409 pi/2;
#X text 927 409 2pi;
#X text 782 409 3(pi/2);
#X text 439 360 points:;
#X text 429 383 degrees:;
#X text 429 406 radians:;
#X text 532 386 0;
#X text 439 429 phasor:;
#X text 532 432 0;
#X text 612 432 0.25;
#X text 722 432 0.5;
#X text 812 432 0.75;
#X text 947 432 1;
#X obj 28 367 phasor~;
#X obj 59 397 cos~;
#X floatatom 232 683 0 0 0 0 - - -;
#X floatatom 97 684 0 0 0 0 - - -;
#X obj 27 654 sin;
#X floatatom 27 554 0 0 0 0 - - -;
#X floatatom 27 682 0 0 0 0 - - -;
#X obj 27 611 * 6.28319;
#X obj 27 583 / 360;
#X obj 96 656 cos;
#X obj 232 655 tan;
#X text 142 573 Pd offers the mathematical functions sin \, cos \,
tan \, atan \, atan2 \, sqrt \, log \, exp \, abs \, and wrap. Unlike
the signal version cos~ \, control-rate trig functions take inputs
in radians:, f 72;
#X obj 59 432 tabwrite~ cos;
#X obj 28 462 tabwrite~ phase;
#X connect 1 0 7 0;
#X connect 3 0 5 0;
#X connect 4 0 3 0;
#X connect 5 0 11 0;
#X connect 7 0 49 0;
#X connect 7 0 48 0;
#X connect 7 1 36 1;
#X connect 8 0 7 0;
#X connect 11 0 36 0;
#X connect 14 0 7 0;
#X connect 15 0 7 0;
#X connect 16 0 7 0;
#X connect 36 0 37 0;
#X connect 36 0 49 0;
#X connect 37 0 48 0;
#X connect 40 0 42 0;
#X connect 41 0 44 0;
#X connect 43 0 40 0;
#X connect 43 0 45 0;
#X connect 43 0 46 0;
#X connect 44 0 43 0;
#X connect 45 0 39 0;
#X connect 46 0 38 0;
