#N canvas 636 51 843 788 16;
#X obj 195 235 cnv 15 250 30 empty empty empty 20 12 0 14 -4034 -66577
0;
#X obj 222 595 cnv 15 500 30 empty empty empty 20 12 0 14 -4034 -66577
0;
#N canvas 0 23 434 429 ticks 0;
#X obj 30 30 r filesize;
#X obj 30 100 * 0.25;
#X obj 30 129 t f f f f;
#X obj 31 215 pack f f f f;
#X obj 83 169 * 3;
#X obj 41 170 * 2;
#X obj 129 169 * 4;
#X msg 40 266 \; phase ylabel -20 1 0 -1 \; phase yticks 0 0.5 2 \;
phase xlabel -1.15 0 \$1 \$2 \$3 \$4 \; phase xticks 1 \$1 \$2 \$3
\$4 \;;
#X connect 0 0 1 0;
#X connect 1 0 2 0;
#X connect 2 0 3 0;
#X connect 2 1 5 0;
#X connect 2 2 4 0;
#X connect 2 3 6 0;
#X connect 3 0 7 0;
#X connect 4 0 3 2;
#X connect 5 0 3 1;
#X connect 6 0 3 3;
#X restore 33 296 pd ticks;
#N canvas 0 22 450 278 (subpatch) 0;
#X array phase 492032 float 2;
#X coords 0 1 492032 -1 700 140 1 0 0;
#X restore 33 49 graph;
#N canvas 0 22 450 278 (subpatch) 0;
#X array soundfile 492032 float 2;
#X coords 0 1 492032 -1 700 140 1 0 0;
#X restore 33 49 graph;
#N canvas 0 23 574 444 load-file 0;
#X obj 47 114 soundfiler;
#X obj 47 55 openpanel;
#X obj 47 162 f;
#X obj 55 142 bng 17 250 50 0 empty empty empty 17 7 0 10 -262144 -1
-1;
#X msg 47 85 read -resize \$1 soundfile;
#X obj 47 253 s filesize;
#X obj 57 223 s phase;
#X msg 57 193 resize \$1;
#X obj 47 26 inlet;
#X obj 356 115 samplerate~;
#X msg 356 85 bang;
#X floatatom 356 146 5 0 0 0 - - -;
#X obj 419 330 phasor~;
#X obj 356 371 tabwrite~ phase;
#X obj 436 25 r filesize;
#X obj 356 174 /, f 13;
#X obj 436 55 t b f;
#X obj 356 271 t b f b, f 13;
#X msg 483 300 0, f 1;
#X floatatom 369 207 5 0 0 0 - - -;
#X text 428 207 frequency;
#X obj 369 239 s frequency;
#X connect 0 0 2 0;
#X connect 1 0 4 0;
#X connect 2 0 5 0;
#X connect 2 0 7 0;
#X connect 3 0 2 0;
#X connect 4 0 0 0;
#X connect 7 0 6 0;
#X connect 8 0 1 0;
#X connect 9 0 11 0;
#X connect 10 0 9 0;
#X connect 11 0 15 0;
#X connect 12 0 13 0;
#X connect 14 0 16 0;
#X connect 15 0 17 0;
#X connect 15 0 19 0;
#X connect 16 0 10 0;
#X connect 16 1 15 1;
#X connect 17 0 13 0;
#X connect 17 1 12 0;
#X connect 17 2 18 0;
#X connect 18 0 12 1;
#X connect 19 0 21 0;
#X restore 33 265 pd load-file;
#X msg 33 237 bang;
#X obj 226 655 tabread4~ soundfile;
#X obj 210 694 dac~;
#X obj 226 626 line~;
#X obj 263 540 pack 0 0;
#X obj 263 304 r filesize;
#X obj 296 426 /, f 4;
#X obj 330 366 samplerate~;
#X floatatom 330 397 5 0 0 0 - - -;
#X obj 296 456 * 1000;
#X obj 226 569 list;
#X obj 200 239 bng 15 250 50 0 empty empty empty 17 7 0 10 -262144
-1 -1;
#X msg 226 597 0 0 \, \$1 \$2;
#X obj 263 334 t f f b;
#X text 224 234 one-shot trigger!;
#X text 342 598 final sample (\$1) duration in ms (\$2);
#X obj 200 453 t b b;
#X obj 378 504 cnv 15 370 30 empty empty empty 20 12 0 14 -4034 -66577
0;
#X floatatom 386 508 5 0 0 0 - - -;
#X text 445 509 set the total duration in ms!;
#X connect 6 0 5 0;
#X connect 7 0 8 0;
#X connect 7 0 8 1;
#X connect 9 0 7 0;
#X connect 10 0 16 1;
#X connect 11 0 19 0;
#X connect 12 0 15 0;
#X connect 13 0 14 0;
#X connect 14 0 12 1;
#X connect 15 0 10 1;
#X connect 16 0 18 0;
#X connect 17 0 22 0;
#X connect 18 0 9 0;
#X connect 19 0 10 0;
#X connect 19 1 12 0;
#X connect 19 2 13 0;
#X connect 22 0 16 0;
#X connect 22 1 10 0;
#X connect 24 0 10 1;
