#N canvas 414 23 1303 1107 12;
#X obj 67 253 cnv 15 140 100 empty empty empty 20 12 0 14 -4034 -66577
0;
#N canvas 0 22 450 278 (subpatch) 0;
#X array array1 65559 float 2;
#X coords 0 1 65559 -1 200 140 1 0 0;
#X restore 175 26 graph;
#X obj 62 209 soundfiler;
#X floatatom 62 234 10 0 0 0 - - -;
#X obj 62 112 openpanel;
#X obj 30 91 bng 15 250 50 0 empty empty empty 17 7 0 10 -262144 -1
-1;
#X msg 62 90 bang;
#X text 48 89 =;
#X obj 71 136 print;
#X obj 72 331 send table_size;
#X msg 62 188 read -resize \$1 array1;
#X floatatom 72 496 5 0 0 0 - - -;
#X obj 80 380 samplerate~;
#X obj 62 403 /;
#X obj 80 357 loadbang;
#X floatatom 62 427 5 0 0 0 - - -;
#X text 107 428 duration in seconds!;
#X msg 62 451 1 \$1;
#X obj 62 474 /;
#X obj 62 161 symbol;
#X obj 83 279 / 16;
#X obj 82 304 send step_length;
#X obj 108 256 r n_steps;
#X obj 62 64 s n_steps;
#X floatatom 30 19 5 0 0 0 - - -;
#X obj 30 42 t b f;
#X obj 62 517 s period-hz;
#X obj 464 122 cnv 15 140 250 empty empty empty 20 12 0 14 -4034 -66577
0;
#X obj 398 249 phasor~;
#X obj 384 457 dac~;
#X obj 398 419 tabread4~ array1;
#X obj 398 371 +~ 1;
#X obj 398 346 *~;
#X obj 416 322 - 3;
#X msg 484 199 0;
#X text 519 199 reset phase;
#X obj 464 322 *;
#X obj 482 294 r step_length;
#X obj 464 249 random 16;
#X obj 524 224 r n_steps;
#X obj 398 395 +~ 0, f 7;
#X obj 484 226 bng 15 250 50 0 empty empty empty 17 7 0 10 -262144
-1 -1;
#X floatatom 476 272 5 0 0 0 - - -;
#X floatatom 498 324 0 0 0 0 - - -;
#X obj 398 96 * 16;
#X obj 418 45 r n_steps;
#X obj 484 175 metro;
#X obj 484 154 tgl 15 0 empty empty empty 17 7 0 10 -262144 -1 -1 0
1;
#X obj 418 70 t b f;
#X floatatom 407 125 5 0 0 0 - - -;
#X floatatom 530 176 5 0 0 0 - - -;
#X obj 516 150 /;
#X msg 516 126 1000 \$1;
#X floatatom 479 348 0 0 0 0 - - -;
#X obj 398 23 r period-hz;
#X connect 2 0 3 0;
#X connect 3 0 9 0;
#X connect 3 0 13 0;
#X connect 3 0 20 0;
#X connect 4 0 8 0;
#X connect 4 0 19 0;
#X connect 5 0 19 0;
#X connect 6 0 4 0;
#X connect 10 0 2 0;
#X connect 12 0 13 1;
#X connect 13 0 15 0;
#X connect 14 0 12 0;
#X connect 15 0 17 0;
#X connect 17 0 18 0;
#X connect 18 0 11 0;
#X connect 18 0 26 0;
#X connect 19 0 10 0;
#X connect 20 0 21 0;
#X connect 22 0 20 1;
#X connect 24 0 25 0;
#X connect 25 0 5 0;
#X connect 25 1 23 0;
#X connect 28 0 32 0;
#X connect 30 0 29 0;
#X connect 30 0 29 1;
#X connect 31 0 40 0;
#X connect 32 0 31 0;
#X connect 33 0 32 1;
#X connect 34 0 28 1;
#X connect 34 0 41 0;
#X connect 36 0 40 1;
#X connect 36 0 53 0;
#X connect 37 0 36 1;
#X connect 37 0 43 0;
#X connect 37 0 33 0;
#X connect 38 0 36 0;
#X connect 38 0 42 0;
#X connect 39 0 38 1;
#X connect 40 0 30 0;
#X connect 41 0 38 0;
#X connect 44 0 28 0;
#X connect 44 0 49 0;
#X connect 44 0 52 0;
#X connect 45 0 48 0;
#X connect 46 0 34 0;
#X connect 47 0 46 0;
#X connect 48 0 44 0;
#X connect 48 1 44 1;
#X connect 51 0 50 0;
#X connect 51 0 46 1;
#X connect 52 0 51 0;
#X connect 54 0 44 0;
