#N canvas 689 23 1455 1274 10;
#N canvas 0 22 450 300 (subpatch) 0;
#X array \$0-file 88200 float 2;
#X coords 0 1 88200 -1 200 170 1;
#X restore 25 24 graph;
#X obj 380 80 cnv 15 180 25 empty empty empty 20 12 0 14 -261234 -66577
0;
#X obj 359 285 r \$0-size;
#X obj 359 306 - 3;
#X obj 338 349 +~ 1;
#X obj 338 328 *~ 1;
#X obj 343 221 phasor~;
#X obj 358 35 loadbang;
#X obj 358 58 samplerate~;
#X obj 343 79 /;
#X obj 343 15 r \$0-size;
#X msg 343 99 1 \$1;
#X obj 343 119 /;
#X obj 343 141 f;
#X obj 343 198 * 1;
#X obj 390 153 t b f;
#X obj 390 131 /;
#X floatatom 390 84 5 0 0 1 - - -;
#X msg 390 109 1 \$1;
#X obj 272 255 samphold~;
#X obj 328 285 *~;
#X obj 374 192 cnv 15 180 25 empty empty empty 20 12 0 14 -261234 -66577
0;
#X msg 382 196 0;
#X text 409 196 reset (start file);
#X text 427 84 time stretch factor;
#X obj 267 204 cnv 15 60 25 empty empty empty 20 12 0 14 -261234 -66577
0;
#X obj 272 209 tgl 15 0 empty empty empty 17 7 0 10 -262144 -1 -1 1
1;
#X text 291 209 loop?;
#X obj 272 232 sig~ 0;
#X obj 344 369 cnv 15 360 40 empty empty empty 20 12 0 14 -204786 -66577
0;
#X text 355 371 all we've done so far is reading the array from left
to right..;
#X obj 25 205 cnv 15 135 25 empty empty empty 20 12 0 14 -261234 -66577
0;
#X obj 29 301 soundfiler;
#X obj 29 363 s \$0-size;
#X obj 29 234 openpanel;
#X msg 29 278 read -resize \$1 \$2-file;
#X obj 29 256 pack s \$0;
#X obj 29 210 bng 15 250 50 0 empty empty empty 17 7 0 10 -262144 -1
-1;
#X obj 29 341 f;
#X obj 37 321 bng 17 250 50 0 empty empty empty 17 7 0 10 -262144 -1
-1;
#X text 51 209 open a soundfile;
#X obj 14 474 cnv 15 320 25 empty empty empty 20 12 0 14 -204786 -66577
0;
#X text 25 476 click on the object to see the guts of the patch:;
#X obj 386 414 cnv 15 200 25 empty empty empty 20 12 0 14 -261234 -66577
0;
#X floatatom 390 420 5 0 0 1 - - -;
#X obj 338 478 a.stretch-async \$0;
#X obj 436 446 cnv 15 150 25 empty empty empty 20 12 0 14 -261234 -66577
0;
#X text 426 418 size deviation (sigma);
#X floatatom 443 452 5 0 0 1 - - -;
#X text 480 451 window size mean;
#X obj 338 573 *~;
#X obj 353 552 line~;
#X msg 353 530 \$1 20;
#X obj 323 596 cnv 15 220 25 empty empty empty 20 12 0 14 -162280 -66577
0;
#X obj 356 505 hsl 128 15 0.01 4 1 0 empty empty empty -2 -8 0 10 -262144
-1 -1 24600 1;
#X text 490 504 volume compensation;
#X text 361 599 angelfaraldo@gmail.com - 2012;
#X obj 328 599 dac~;
#X floatatom 451 153 5 0 0 0 - - -;
#X connect 2 0 3 0;
#X connect 3 0 5 1;
#X connect 4 0 45 0;
#X connect 5 0 4 0;
#X connect 6 0 19 1;
#X connect 6 0 20 1;
#X connect 7 0 8 0;
#X connect 8 0 9 1;
#X connect 9 0 11 0;
#X connect 10 0 9 0;
#X connect 11 0 12 0;
#X connect 12 0 13 0;
#X connect 13 0 14 0;
#X connect 14 0 6 0;
#X connect 15 0 14 0;
#X connect 15 1 14 1;
#X connect 16 0 15 0;
#X connect 16 0 58 0;
#X connect 17 0 18 0;
#X connect 18 0 16 0;
#X connect 19 0 20 0;
#X connect 20 0 5 0;
#X connect 22 0 6 1;
#X connect 26 0 28 0;
#X connect 28 0 19 0;
#X connect 32 0 38 0;
#X connect 34 0 36 0;
#X connect 35 0 32 0;
#X connect 36 0 35 0;
#X connect 37 0 34 0;
#X connect 38 0 33 0;
#X connect 39 0 38 0;
#X connect 44 0 45 1;
#X connect 45 0 50 0;
#X connect 48 0 45 2;
#X connect 50 0 57 0;
#X connect 50 0 57 1;
#X connect 51 0 50 1;
#X connect 52 0 51 0;
#X connect 54 0 52 0;
