#N canvas 194 34 409 885 10;
#X obj 9 16 noise~;
#X obj 19 36 noise~;
#X obj 29 56 noise~;
#X obj 13 289 +~;
#X obj 39 76 noise~;
#X obj 49 96 noise~;
#X obj 59 116 noise~;
#X obj 69 136 noise~;
#X obj 79 156 noise~;
#X obj 89 176 noise~;
#X obj 99 196 noise~;
#X obj 109 216 noise~;
#X obj 119 236 noise~;
#X obj 13 416 outlet~;
#X obj 13 317 /~ 12;
#X obj 131 313 inlet;
#X obj 57 313 inlet;
#X obj 13 358 *~ \$1, f 8;
#X obj 13 388 +~ \$2, f 20;
#X connect 0 0 3 0;
#X connect 1 0 3 0;
#X connect 2 0 3 0;
#X connect 3 0 14 0;
#X connect 4 0 3 0;
#X connect 5 0 3 0;
#X connect 6 0 3 0;
#X connect 7 0 3 0;
#X connect 8 0 3 0;
#X connect 9 0 3 0;
#X connect 10 0 3 0;
#X connect 11 0 3 0;
#X connect 12 0 3 0;
#X connect 14 0 17 0;
#X connect 15 0 18 1;
#X connect 16 0 17 1;
#X connect 17 0 18 0;
#X connect 18 0 13 0;
