#N canvas 493 333 862 371 10;
#X obj -83 17 inlet;
#X obj 97 17 inlet;
#X obj 28 300 list prepend;
#X obj 248 246 symbol \$1;
#X obj 576 41 loadbang;
#X obj 474 21 inlet;
#X obj 248 277 pack s f;
#X obj 374 221 sel 0;
#X obj 374 260 1000;
#X msg 248 304 \; \$1 resize \$2;
#X obj -83 317 s \$1;
#X obj 248 20 inlet;
#X obj 248 42 t b f b;
#X obj 474 43 t b b f;
#X obj 97 149 * \$3;
#X text 470 1 (x dimension: number of elements of each vector);
#X text 247 1 (y dimension: size of the table);
#X obj 374 164 f \$2;
#X obj 513 132 f \$3;
#X obj 374 191 *;
#X text 94 -2 (y);
#X text -83 0 (list or element);
#X obj -83 72 unpack f f f;
#X text 527 290 element (y \, x \, float);
#X obj -83 257 pack;
#X obj -83 43 route element clear;
#X msg -28 300 const 0;
#X obj -83 178 +;
#X obj -83 149 * \$3;
#X obj 167 212 moses;
#X obj 174 237 moses;
#X msg 151 341 error: element outside of matrix bounds;
#X obj 151 317 b;
#X text 153 181 TODO!!!!!!;
#X obj 513 165 s x.\$1;
#X obj 558 165 v x.\$1.v;
#X obj 575 65 t b b b;
#X connect 0 0 25 0;
#X connect 1 0 14 0;
#X connect 2 0 10 0;
#X connect 3 0 6 0;
#X connect 4 0 36 0;
#X connect 5 0 13 0;
#X connect 6 0 9 0;
#X connect 7 0 8 0;
#X connect 7 1 6 1;
#X connect 8 0 6 1;
#X connect 11 0 12 0;
#X connect 12 0 3 0;
#X connect 12 1 17 0;
#X connect 12 2 18 0;
#X connect 13 0 3 0;
#X connect 13 1 17 0;
#X connect 13 2 18 0;
#X connect 14 0 2 1;
#X connect 17 0 19 0;
#X connect 17 0 29 1;
#X connect 18 0 14 1;
#X connect 18 0 19 1;
#X connect 18 0 28 1;
#X connect 18 0 30 1;
#X connect 18 0 34 0;
#X connect 18 0 35 0;
#X connect 19 0 7 0;
#X connect 22 0 28 0;
#X connect 22 1 27 1;
#X connect 22 2 24 1;
#X connect 24 0 10 0;
#X connect 25 0 22 0;
#X connect 25 1 26 0;
#X connect 25 2 2 0;
#X connect 26 0 10 0;
#X connect 27 0 24 0;
#X connect 28 0 27 0;
#X connect 29 1 32 0;
#X connect 30 1 32 0;
#X connect 32 0 31 0;
#X connect 36 0 3 0;
#X connect 36 1 17 0;
#X connect 36 2 18 0;
