#N canvas 528 22 454 350 10;
#X obj 39 224 tabread \$1;
#X obj 39 118 until;
#X obj 39 251 list prepend;
#X obj 131 268 t l;
#X obj 22 281 list;
#X obj 22 308 outlet;
#X obj 22 10 inlet;
#X obj 68 145 + 1;
#X obj 22 62 t b b f b;
#X obj 39 201 +;
#X obj 127 128 0;
#X obj 39 145 f 0;
#X obj 115 75 r x.\$1;
#X obj 168 75 value x.\$1.v;
#X obj 39 92 f;
#X obj 61 171 *;
#X obj 168 52 loadbang;
#X connect 0 0 2 0;
#X connect 1 0 11 0;
#X connect 2 0 3 0;
#X connect 2 0 4 1;
#X connect 3 0 2 1;
#X connect 4 0 5 0;
#X connect 6 0 8 0;
#X connect 7 0 11 1;
#X connect 8 0 4 0;
#X connect 8 1 14 0;
#X connect 8 2 15 0;
#X connect 8 3 2 1;
#X connect 8 3 10 0;
#X connect 9 0 0 0;
#X connect 10 0 11 1;
#X connect 11 0 7 0;
#X connect 11 0 9 0;
#X connect 12 0 14 1;
#X connect 12 0 15 1;
#X connect 13 0 14 1;
#X connect 13 0 15 1;
#X connect 14 0 1 0;
#X connect 15 0 9 1;
#X connect 16 0 13 0;
