#N canvas 205 122 569 495 10;
#X obj 110 -106 inlet;
#N canvas 0 22 450 300 \$0-plot 0;
#X coords 0 0 200 200 200 200 2 100 100;
#X restore 100 120 pd \$0-plot;
#N canvas 44 22 554 340 squareDimen 0;
#X obj -365 106 pack;
#X obj -344 83 + 20;
#X obj -434 214 s pd-\$0-plot;
#X obj -473 -70 inlet;
#X obj -365 150 s \$0-2dPlot;
#X msg -365 128 donecanvasdialog 1 -1 1 0 -1 1 1 \$1 \$2 100 100 \,
dirty 1;
#X obj -473 26 moses 1;
#X obj -473 3 unpack;
#X obj -383 20 moses 1;
#X obj -434 169 pack;
#X msg -434 192 donecanvasdialog 1 -1 1 0 0 \$1 \$2 \$1 \$2 100 100
\, dirty 1;
#X obj -473 -47 t l l;
#X obj -289 -30 unpack;
#X obj -289 -3 - 2;
#X obj -256 4 - 2;
#X obj -289 21 pack;
#X msg -289 44 vis_size \$1 \$2;
#X obj -289 67 s \$0-background;
#N canvas 0 22 450 300 init 0;
#X obj -118 -68 loadbang;
#X obj -118 -42 t b b;
#X obj -118 -14 \$1;
#X obj -118 38 200;
#X obj -118 12 sel 0;
#X obj -118 64 pack;
#X obj -77 37 200;
#X obj -77 11 sel 0;
#X obj -118 89 outlet;
#X obj -77 -15 \$2;
#X connect 0 0 1 0;
#X connect 1 0 2 0;
#X connect 1 1 9 0;
#X connect 2 0 4 0;
#X connect 3 0 5 0;
#X connect 4 0 3 0;
#X connect 5 0 8 0;
#X connect 6 0 5 1;
#X connect 7 0 6 0;
#X connect 9 0 7 0;
#X restore -417 -64 pd init;
#X connect 0 0 5 0;
#X connect 1 0 0 1;
#X connect 3 0 11 0;
#X connect 5 0 4 0;
#X connect 6 1 9 0;
#X connect 6 1 0 0;
#X connect 7 0 6 0;
#X connect 7 1 8 0;
#X connect 8 1 9 1;
#X connect 8 1 1 0;
#X connect 9 0 10 0;
#X connect 10 0 2 0;
#X connect 11 0 7 0;
#X connect 11 1 12 0;
#X connect 12 0 13 0;
#X connect 12 1 14 0;
#X connect 13 0 15 0;
#X connect 14 0 15 1;
#X connect 15 0 16 0;
#X connect 16 0 17 0;
#X connect 18 0 11 0;
#X restore 314 -50 pd squareDimen;
#X obj 390 -106 namecanvas \$0-2dPlot;
#N canvas 149 310 473 237 plotPoints 0;
#X obj -38 139 pointer;
#N canvas 234 165 486 132 pt-template 0;
#X obj 14 49 filledpolygon -x color color 0 -1 -1 1 -1 1 1 -1 1 -1
-1;
#X obj 6 8 struct \$0-pt float x float y float color;
#X restore 157 11 pd pt-template;
#X obj -199 12 inlet;
#X obj -38 85 \$0;
#X msg -38 112 traverse pd-\$1-plot \, bang;
#X obj -38 8 r \$0-reset;
#X obj -199 156 append \$0-pt color x y;
#X connect 0 0 6 3;
#X connect 2 0 6 0;
#X connect 3 0 4 0;
#X connect 4 0 0 0;
#X connect 5 0 3 0;
#X restore 110 57 pd plotPoints;
#X obj 479 1 drawsymbol;
#X obj 474 50 drawnumber;
#N canvas 149 310 473 237 plotCurves 0;
#X obj 151 -50 pointer;
#X obj 151 -96 \$0;
#N canvas 264 22 769 355 curveStruct 0;
#X obj 29 200 drawcurve -x color 2 r(0:100)(0:100) 0 r(0:100)(0:71)
r(0:100)(0:71) 0 r(0:100)(0:100) r(0:100)(0:-71) r(0:100)(0:71) r(0:100)(0:-100)
0 r(0:100)(0:-71) r(0:100)(0:-71) 0 r(0:100)(0:-100) r(0:100)(0:71)
r(0:100)(0:-71) r(0:100)(0:100) 0;
#X obj 396 199 filledcurve -x color r(0:100)(0:100) 0 r(0:100)(0:71)
r(0:100)(0:71) 0 r(0:100)(0:100) r(0:100)(0:-71) r(0:100)(0:71) r(0:100)(0:-100)
0 r(0:100)(0:-71) r(0:100)(0:-71) 0 r(0:100)(0:-100) r(0:100)(0:71)
r(0:100)(0:-71) r(0:100)(0:100) 0;
#X obj 29 125 struct \$0-curve float x float y float r float color
;
#X obj 395 118 struct \$0-filledCurve float x float y float r float
color;
#X restore -39 -3 pd curveStruct;
#X obj -39 -148 inlet;
#X msg 151 -73 traverse pd-\$1-plot \, bang;
#X obj 151 -152 r \$0-reset;
#X obj -39 -33 append \$0-curve color x y r;
#X connect 0 0 6 4;
#X connect 1 0 4 0;
#X connect 3 0 6 0;
#X connect 4 0 0 0;
#X connect 5 0 1 0;
#X restore 161 30 pd plotCurves;
#X obj 101 121 cnv 15 198 198 empty \$0-background empty 20 12 0 14
-233017 -66577 0;
#X obj 110 -77 route point circle filledCircle clear dimen;
#N canvas 149 310 473 237 plotCurves 0;
#X obj 176 -50 pointer;
#X obj 176 -96 \$0;
#X obj -39 -148 inlet;
#X msg 176 -73 traverse pd-\$1-plot \, bang;
#X obj 176 -152 r \$0-reset;
#X obj -39 -33 append \$0-filledCurve color x y r;
#X connect 0 0 5 4;
#X connect 1 0 3 0;
#X connect 2 0 5 0;
#X connect 3 0 0 0;
#X connect 4 0 1 0;
#X restore 212 4 pd plotCurves;
#N canvas 341 109 194 285 clear 0;
#X msg -792 29 clear;
#X obj -792 52 s pd-\$0-plot;
#X obj -805 116 loadbang;
#X obj -819 144 s \$0-reset;
#X obj -819 3 t b b;
#X obj -819 -21 inlet;
#X connect 0 0 1 0;
#X connect 2 0 3 0;
#X connect 4 0 3 0;
#X connect 4 1 0 0;
#X connect 5 0 4 0;
#X restore 263 -24 pd clear;
#X connect 0 0 9 0;
#X connect 9 0 4 0;
#X connect 9 1 7 0;
#X connect 9 2 10 0;
#X connect 9 3 11 0;
#X connect 9 4 2 0;
#X coords 0 -1 1 1 200 220 1 100 100;
