#N canvas 124 22 610 464 10;
#X obj 3 -34 cnv 15 600 60 empty empty 2dPlot 20 12 0 14 -233017 -66577
0;
#X text 454 6 2013 Gilberto Bernardes;
#X msg 281 50 square;
#X msg 376 130 rectangle;
#X msg 365 66 filledSquare;
#X msg 372 97 filledRectangle;
#X obj 35 129 2dPlot 200 200;
#X msg 170 81 circle 999 100 23 10;
#X msg 189 41 clear;
#X msg 35 84 dimen 300 100;
#X msg 82 53 point 400 200 20;
#X msg 178 104 filledCircle 999 100 23 10;
#N canvas 420 330 494 344 META 0;
#X text 12 45 LICENSE GPL v3;
#X text 12 178 RELEASE_DATE 2013;
#X text 12 158 WEBSITE https://sites.google.com/site/eargram/;
#X text 12 138 AUTHOR Gilberto Bernardes;
#X text 12 25 KEYWORDS;
#X text 12 118 LIBRARY earGram_abs;
#X text 12 65 DESCRIPTION plots geometric figures in a plan;
#X text 12 84 INLET_0 clear dimen point circle filledCircle square
filledSquare rectangle filled rectangle;
#X restore 548 396 pd META;
#X text 23 7 plots geometric figures in a plan;
#X text 468 44 in development...;
#X text 249 236 filledCircle <color> <x> <y> <radius>;
#X text 249 250 circle <color> <x> <y> <radius>;
#X text 250 265 point <color> <x> <y>;
#X text 248 297 square <color> <x> <y> (of top left point) <width>
<height>;
#X text 249 280 square <color> <x> <y> (of top left point) <width>
<height>;
#X connect 7 0 6 0;
#X connect 8 0 6 0;
#X connect 9 0 6 0;
#X connect 10 0 6 0;
#X connect 11 0 6 0;
