#N canvas 0 22 482 391 10;
#X obj 167 84 inlet;
#X obj 167 203 +;
#X obj 166 234 / 11;
#X obj 166 297 outlet;
#X obj 198 147 f;
#X obj 198 174 * 10;
#X obj 167 124 t f b;
#X obj 271 69 loadbang;
#X obj 271 109 f \$1;
#X obj 239 173 + 1;
#X obj 225 72 inlet;
#X connect 0 0 6 0;
#X connect 1 0 2 0;
#X connect 2 0 3 0;
#X connect 2 0 4 1;
#X connect 4 0 5 0;
#X connect 5 0 1 1;
#X connect 6 0 1 0;
#X connect 6 1 4 0;
#X connect 7 0 8 0;
#X connect 8 0 5 1;
#X connect 8 0 9 0;
#X connect 9 0 2 1;
#X connect 10 0 8 0;
