#N canvas 0 22 519 396 10;
#X floatatom 122 265 5 0 0 0 - - -;
#X obj 8 10 cnv 15 500 60 empty empty bagFifo 20 12 0 14 -233017 -66577
0;
#X obj 229 181 random 100;
#X obj 229 157 metro 200;
#X floatatom 229 206 5 0 0 0 - - -;
#X obj 229 132 tgl 15 0 empty empty empty 17 7 0 10 -262144 -1 -1 0
1;
#N canvas 610 335 494 344 META 0;
#X text 12 45 LICENSE GPL v3;
#X text 12 207 RELEASE_DATE 2013;
#X text 12 187 WEBSITE https://sites.google.com/site/eargram/;
#X text 12 167 AUTHOR Gilberto Bernardes;
#X text 12 25 KEYWORDS;
#X text 12 85 INLET_0 float reset;
#X text 12 147 LIBRARY earGram_abs;
#X text 12 108 OUTLET_0 float (average);
#X text 13 128 OUTLET_1 float (nr of occurences);
#X text 12 65 DESCRIPTION calculates the average of a stream of floats
;
#X restore 461 366 pd META;
#X text 356 50 2013 Gilberto Bernardes;
#X obj 122 222 bagFifo;
#X msg 146 182 clear;
#X obj 122 129 bng 15 250 50 0 empty empty empty 17 7 0 10 -262144
-1 -1;
#X text 24 50 stores a stream of floats and outputs them in order;
#X obj 161 265 bng 15 250 50 0 empty empty end 17 7 0 10 -262144 -1
-1;
#X connect 2 0 4 0;
#X connect 3 0 2 0;
#X connect 4 0 8 1;
#X connect 5 0 3 0;
#X connect 8 0 0 0;
#X connect 8 1 12 0;
#X connect 9 0 8 0;
#X connect 10 0 8 0;
