#N canvas 175 207 577 340 10;
#X obj 362 32 inlet;
#X obj 362 147 list prepend;
#X obj 450 164 t l;
#X obj 102 164 list;
#X obj 102 223 list split 1;
#X obj 102 29 inlet;
#X obj 102 55 route bang clear;
#X obj 102 289 outlet;
#X obj 148 91 bng 15 250 50 0 empty empty empty 17 7 0 10 -262144 -1
-1;
#X obj 192 288 outlet;
#X text 239 287 (end);
#X obj 102 192 route list float bang;
#X connect 0 0 1 0;
#X connect 1 0 2 0;
#X connect 1 0 3 1;
#X connect 2 0 1 1;
#X connect 3 0 11 0;
#X connect 4 0 7 0;
#X connect 4 1 3 1;
#X connect 4 1 1 1;
#X connect 5 0 6 0;
#X connect 6 0 3 0;
#X connect 6 1 8 0;
#X connect 8 0 1 1;
#X connect 8 0 3 1;
#X connect 11 0 4 0;
#X connect 11 1 4 0;
#X connect 11 2 9 0;
