#N struct 1561-template4 float x float y float w float h float q;
#N canvas 307 22 510 467 10;
#X obj -1 5 cnv 15 500 60 empty empty barGraph 20 12 0 14 -233017 -66577
0;
#X text 349 45 2013 Gilberto Bernardes;
#X msg 66 193 10 30 50 100 30 90 20;
#X msg 56 167 30 40 100 60 30;
#X floatatom 23 116 5 0 100 0 - - -;
#X msg 42 141 35 80;
#X text 15 46 bar graph;
#X floatatom 346 177 5 1 999 0 - - -;
#X msg 78 250 element 4 \$1;
#X floatatom 78 228 5 0 100 0 - - -;
#X obj 346 118 tgl 15 0 empty empty empty 17 7 0 10 -262144 -1 -1 1
1;
#X msg 343 85 size 200 70;
#X msg 346 141 values \$1;
#X text 415 141 default: on;
#X floatatom 387 177 5 0 0 0 - - -;
#X msg 346 228 bgcolor \$1 \$2 \$3;
#X obj 346 202 pack f f f;
#X floatatom 431 177 5 0 0 0 - - -;
#X msg 347 307 barscolor \$1 \$2 \$3;
#X floatatom 346 260 5 1 999 0 - - -;
#X floatatom 387 260 5 0 0 0 - - -;
#X obj 346 285 pack f f f;
#X floatatom 431 260 5 0 0 0 - - -;
#X obj 18 340 barGraph;
#N canvas 355 414 494 344 META 0;
#X text 12 45 LICENSE GPL v3;
#X text 12 165 RELEASE_DATE 2013;
#X text 12 145 WEBSITE https://sites.google.com/site/eargram/;
#X text 12 125 AUTHOR Gilberto Bernardes;
#X text 12 25 KEYWORDS;
#X text 12 105 LIBRARY earGram_abs;
#X text 12 65 DESCRIPTION bar graph;
#X text 12 84 INLET_0 float list element size values bgcolor barcolor
;
#X restore 451 440 pd META;
#X connect 2 0 23 0;
#X connect 3 0 23 0;
#X connect 4 0 23 0;
#X connect 5 0 23 0;
#X connect 7 0 16 0;
#X connect 8 0 23 0;
#X connect 9 0 8 0;
#X connect 10 0 12 0;
#X connect 11 0 23 0;
#X connect 12 0 23 0;
#X connect 14 0 16 1;
#X connect 15 0 23 0;
#X connect 16 0 15 0;
#X connect 17 0 16 2;
#X connect 18 0 23 0;
#X connect 19 0 21 0;
#X connect 20 0 21 1;
#X connect 21 0 18 0;
#X connect 22 0 21 2;
