#N struct 1694-template4 float x float y float w float h float q;
#N canvas 201 22 477 342 10;
#N canvas 182 163 476 288 surfaceViz 0;
#X obj 15 -55 inlet;
#N canvas 640 381 374 304 changeColor 0;
#X obj 47 -39 inlet;
#X obj 47 62 until;
#X obj 176 120 \$0;
#X obj 47 -12 t b f b;
#X msg 176 143 traverse pd-\$1-shuffGraph;
#X msg 131 143 next;
#X obj 47 36 f;
#X obj 176 181 pointer;
#X obj 47 99 f;
#X obj 75 99 + 1;
#X obj 108 82 0;
#X obj 47 198 set \$0-template4 q;
#X obj 47 162 f;
#X obj 47 126 t b b;
#X obj 62 14 r \$0-graphLength;
#X connect 0 0 3 0;
#X connect 1 0 8 0;
#X connect 2 0 4 0;
#X connect 3 0 6 0;
#X connect 3 1 12 1;
#X connect 3 2 2 0;
#X connect 3 2 10 0;
#X connect 4 0 7 0;
#X connect 5 0 7 0;
#X connect 6 0 1 0;
#X connect 7 0 11 1;
#X connect 8 0 9 0;
#X connect 8 0 13 0;
#X connect 9 0 8 1;
#X connect 10 0 8 1;
#X connect 12 0 11 0;
#X connect 13 0 12 0;
#X connect 13 1 5 0;
#X connect 14 0 6 1;
#X restore 15 174 pd changeColor;
#N canvas 400 506 370 198 changeElement 0;
#X obj 47 -39 inlet;
#X obj 68 43 until;
#X obj 176 30 \$0;
#X msg 176 53 traverse pd-\$1-shuffGraph;
#X msg 68 67 next;
#X obj 176 84 pointer;
#X obj 47 101 set \$0-template4 h;
#X obj 47 -14 swap;
#X obj 68 13 t f b;
#X connect 0 0 7 0;
#X connect 1 0 4 0;
#X connect 2 0 3 0;
#X connect 3 0 5 0;
#X connect 4 0 5 0;
#X connect 5 0 6 1;
#X connect 7 0 6 0;
#X connect 7 1 8 0;
#X connect 8 0 1 0;
#X connect 8 1 2 0;
#X restore 63 141 pd changeElement;
#N canvas 97 210 819 423 resize 0;
#X obj 39 14 loadbang;
#X obj 39 37 t b b;
#X obj 103 14 inlet;
#X obj 39 60 \$1;
#X obj 66 60 \$2;
#X obj 39 129 pack;
#X obj 39 294 s pd-\$0-shuffGraph;
#X obj 429 335 s \$0-barGraph;
#X obj 427 147 s \$0-background.r;
#X msg 427 121 vis_size \$1 \$2;
#X obj 429 190 unpack;
#X obj 429 273 pack;
#X obj 462 215 + 20;
#X obj 103 121 t l l;
#X msg 39 256 donecanvasdialog 1 -1 1 0 100 200 0 \$1 \$2 100 100 \,
dirty 1;
#X obj 169 204 list;
#X obj 568 97 r \$0-values;
#X obj 522 198 * 20;
#X obj 167 178 b;
#X obj 570 161 clip 0 1;
#X msg 429 298 donecanvasdialog 1 -1 1 0 100 200 0 \$1 \$2 100 100
\, dirty 1;
#X obj 567 126 t b f;
#X obj 39 82 sel 0;
#X obj 39 105 200;
#X obj 78 82 sel 0;
#X obj 78 105 100;
#X obj 423 35 unpack;
#X obj 424 61 - 2;
#X obj 455 61 - 2;
#X obj 423 91 pack;
#X connect 0 0 1 0;
#X connect 1 0 3 0;
#X connect 1 1 4 0;
#X connect 2 0 13 0;
#X connect 3 0 22 0;
#X connect 4 0 24 0;
#X connect 5 0 13 0;
#X connect 9 0 8 0;
#X connect 10 0 11 0;
#X connect 10 1 12 0;
#X connect 11 0 20 0;
#X connect 12 0 11 1;
#X connect 13 0 14 0;
#X connect 13 0 10 0;
#X connect 13 1 15 1;
#X connect 13 1 26 0;
#X connect 14 0 6 0;
#X connect 15 0 13 0;
#X connect 16 0 21 0;
#X connect 17 0 12 1;
#X connect 18 0 15 0;
#X connect 19 0 17 0;
#X connect 20 0 7 0;
#X connect 21 0 18 0;
#X connect 21 1 19 0;
#X connect 22 0 23 0;
#X connect 22 1 5 0;
#X connect 23 0 5 0;
#X connect 24 0 25 0;
#X connect 24 1 5 1;
#X connect 25 0 5 1;
#X connect 26 0 27 0;
#X connect 26 1 28 0;
#X connect 27 0 29 0;
#X connect 28 0 29 1;
#X connect 29 0 9 0;
#X restore 112 111 pd resize;
#N canvas 446 141 496 403 drawListElements 0;
#N canvas 100 436 480 284 template4 0;
#X text 22 45 five numeric ("float") fields;
#X text 25 100 drawing a rectangle \, interior color q \, border black
and one unit thick \, through the points (0 \, 0) \, (w \, 0) \, (w
\, h) \, and (0 \, h). Note that the three points containing variables
become hot spots for mouse dragging.;
#X text 25 219 Draw the value of q as an Araboc numeral \, at (0 \,
0) \, in black.;
#X obj 25 68 filledpolygon -x q 0 1 0 0 w 0 w h(0:100)(0:100) 0 h(0:100)(0:100)
;
#X obj 27 202 drawnumber h 0 0 0;
#X obj 24 19 struct \$0-template4 float x float y float w float h float
q;
#X obj 27 178 r \$0-values;
#X connect 6 0 4 0;
#X restore 34 358 pd template4;
#X obj 253 312 pointer;
#X msg 115 175 0;
#X obj 153 175 expr 200/$f1;
#X obj 61 192 +;
#X obj 34 192 f 0;
#X obj 80 248 f;
#X obj 57 221 0;
#X obj 103 274 i;
#X obj 176 61 \$0;
#X msg 253 289 traverse pd-\$1-shuffGraph \, bang;
#X obj 253 266 \$0;
#X msg 176 84 \; pd-\$1-shuffGraph clear;
#X obj 34 161 t b b b f;
#X obj 34 329 append \$0-template4 x y w h q;
#X obj 34 44 t l l b b;
#X obj 51 80 list length;
#X obj 34 136 list-drip;
#X obj 34 304 pack f f f f 900;
#X obj 51 102 s \$0-graphLength;
#X obj 153 151 r \$0-graphLength;
#X obj 34 0 inlet;
#X obj 345 110 r \$0-barscolor;
#X obj 345 134 t b f;
#X obj 191 17 list;
#X connect 1 0 14 5;
#X connect 2 0 5 1;
#X connect 3 0 6 1;
#X connect 3 0 4 1;
#X connect 4 0 5 1;
#X connect 5 0 4 0;
#X connect 5 0 18 0;
#X connect 6 0 18 2;
#X connect 7 0 18 1;
#X connect 8 0 18 3;
#X connect 9 0 12 0;
#X connect 10 0 1 0;
#X connect 11 0 10 0;
#X connect 13 0 5 0;
#X connect 13 1 7 0;
#X connect 13 2 6 0;
#X connect 13 3 8 0;
#X connect 15 0 17 0;
#X connect 15 1 16 0;
#X connect 15 2 11 0;
#X connect 15 2 2 0;
#X connect 15 3 9 0;
#X connect 16 0 19 0;
#X connect 17 0 13 0;
#X connect 18 0 14 0;
#X connect 20 0 3 0;
#X connect 21 0 15 0;
#X connect 21 0 24 1;
#X connect 22 0 23 0;
#X connect 23 0 24 0;
#X connect 23 1 18 4;
#X connect 24 0 15 0;
#X restore 306 0 pd drawListElements;
#N canvas 826 490 450 300 valuesOnOff 0;
#X obj 33 19 inlet;
#X obj 33 44 s \$0-values;
#X connect 0 0 1 0;
#X restore 257 26 pd valuesOnOff;
#X obj 15 -28 route color element size bgcolor barscolor values;
#N canvas 749 109 450 300 bgcolor 0;
#X obj 24 16 inlet;
#X msg 24 103 color \$1;
#X obj 24 128 s \$0-background.r;
#X obj 24 76 rgb2pd;
#X connect 0 0 3 0;
#X connect 1 0 2 0;
#X connect 3 0 1 0;
#X restore 160 82 pd bgcolor;
#N canvas 749 109 455 247 barscolor 0;
#X obj 24 16 inlet;
#X obj 24 44 unpack f f f;
#X obj 24 84 clip 0 255;
#X obj 166 84 clip 0 255;
#X obj 309 84 clip 0 255;
#X obj 24 183 s \$0-barscolor;
#X obj 24 125 expr rint(($f1*9/255)*100)+rint(($f2*9/255)*10)+ rint($f3*9/255)
;
#X connect 0 0 1 0;
#X connect 1 0 2 0;
#X connect 1 1 3 0;
#X connect 1 2 4 0;
#X connect 2 0 6 0;
#X connect 3 0 6 1;
#X connect 4 0 6 2;
#X connect 6 0 5 0;
#X restore 209 53 pd barscolor;
#X connect 0 0 6 0;
#X connect 6 0 1 0;
#X connect 6 1 2 0;
#X connect 6 2 3 0;
#X connect 6 3 7 0;
#X connect 6 4 8 0;
#X connect 6 5 5 0;
#X connect 6 6 4 0;
#X coords 0 0 1 1 85 60 0;
#X restore 101 49 pd surfaceViz;
#N canvas 0 22 784 549 \$0-shuffGraph 0;
#X scalar 1694-template4 0 0 28.5714 10 900 \;;
#X scalar 1694-template4 28.5714 0 28.5714 30 900 \;;
#X scalar 1694-template4 57.1429 0 28.5714 50 900 \;;
#X scalar 1694-template4 85.7143 0 28.5714 100 900 \;;
#X scalar 1694-template4 114.286 0 28.5714 30 900 \;;
#X scalar 1694-template4 142.857 0 28.5714 90 900 \;;
#X scalar 1694-template4 171.429 0 28.5714 20 900 \;;
#X coords 0 100 200 0 200 100 1 100 100;
#X restore 100 100 pd \$0-shuffGraph;
#X obj 101 101 cnv 15 198 98 \$0-background \$0-background.r empty
20 12 0 14 -262144 -262144 0;
#X obj 101 8 inlet;
#X obj 280 22 namecanvas \$0-barGraph;
#X connect 3 0 0 0;
#X coords 0 100 200 0 200 120 1 100 100;
