#N canvas 58 22 810 483 10;
#X declare -lib iem_tab;
#X obj 38 46 openpanel;
#X obj 38 24 bng 15 250 50 0 empty empty empty 17 7 0 10 -262144 -1
-1;
#X floatatom 38 211 5 0 0 1 ms - -;
#X floatatom 75 181 4 0 0 1 bpm - -;
#X msg 38 70 read \$1;
#X obj -11 -52 cnv 15 800 60 empty empty beatInduction 20 12 0 14 -233017
-66577 0;
#X obj 350 178 cnv 15 320 120 empty empty empty 20 12 0 14 -233017
-66577 0;
#N canvas 0 22 1206 727 (subpatch) 0;
#X array \$0-beatHistogram1 64 float 0;
#X coords 0 1 63 0 420 120 1 0 0;
#X restore 303 178 graph;
#X obj 383 62 \$0;
#X obj 383 35 loadbang;
#X obj 113 129 list prepend 0;
#X obj 113 151 s \$0-beatHistogram1;
#X text 66 22 << open an audio file;
#X obj 38 94 beatInduction;
#X msg 383 89 \; \$1-beatHistogram1 xticks 0 1 1;
#X text 636 -12 2013 Gilberto Bernardes;
#N canvas 510 304 494 344 META 0;
#X text 12 45 LICENSE GPL v3;
#X text 12 215 RELEASE_DATE 2013;
#X text 12 195 WEBSITE https://sites.google.com/site/eargram/;
#X text 12 175 AUTHOR Gilberto Bernardes;
#X text 12 25 KEYWORDS;
#X text 12 155 LIBRARY earGram_abs;
#X text 14 102 OUTLET_0 float (ms);
#X text 13 119 OUTLET_1 float (bpm);
#X text 14 136 OUTLET_2 list (histogram);
#X text 12 65 DESCRIPTION beat induction for soundfiles (offline);
#X text 12 84 INLET_0 list reset;
#X text 84 199;
#X restore 737 400 pd META;
#X text 9 -12 beat induction for soundfiles (offline);
#X connect 0 0 4 0;
#X connect 1 0 0 0;
#X connect 4 0 13 0;
#X connect 8 0 14 0;
#X connect 9 0 8 0;
#X connect 10 0 11 0;
#X connect 13 0 2 0;
#X connect 13 1 3 0;
#X connect 13 2 10 0;
