#N canvas 136 22 935 568 10;
#X declare -lib iem_tab;
#X obj 196 -3 outlet;
#X obj 711 -341 import iem_tab;
#X obj 147 56 s \$0-beatHisto;
#X msg 411 39 const 0;
#X obj 120 -400 inlet;
#X obj 139 -197 tab_mul \$0-b \$0-b \$0-b;
#X obj 139 -226 tab_mul \$0-a \$0-a \$0-a;
#X obj 139 -110 tab_add \$0-xCorr \$0-beatHisto \$0-beatHisto;
#X obj 120 -53 tab_max_index \$0-beatHisto;
#X msg 147 29 normalize 1;
#N canvas 150 261 416 146 openSample 0;
#X obj 42 64 soundfiler;
#X obj 42 -5 inlet;
#X obj 42 18 pack s \$0;
#X obj 264 -4 table \$0-sample;
#X msg 42 41 read -resize \$1 \$2-sample;
#X obj 42 90 outlet;
#X connect 0 0 5 0;
#X connect 1 0 2 0;
#X connect 2 0 4 0;
#X connect 4 0 0 0;
#X restore 139 -313 pd openSample;
#X obj 120 -371 route read;
#N canvas 0 22 568 473 computeFlux 0;
#X obj 194 -317 loadbang;
#X obj 65 -98 s \$0-flux;
#X obj 65 -122 list prepend 0;
#X obj 46 -444 inlet;
#X obj 46 -252 list prepend;
#X obj 136 -153 list split 1;
#X obj 46 -170 t b l l;
#X obj 46 -52 outlet;
#X msg 194 -295 normalize 0;
#X obj 46 -278 specFlux \$0-sample 128;
#X obj 117 -357 0;
#X obj 46 -340 f;
#X obj 46 -366 until;
#X obj 46 -419 expr rint($f1/1024);
#X obj 76 -340 + 1024;
#X msg 46 -311 analyze \$1 2048;
#X obj 46 -394 t f b;
#X obj 46 -211 list split 128;
#X connect 0 0 8 0;
#X connect 2 0 1 0;
#X connect 3 0 13 0;
#X connect 4 0 17 0;
#X connect 5 1 4 1;
#X connect 6 0 7 0;
#X connect 6 1 2 0;
#X connect 6 2 5 0;
#X connect 8 0 9 0;
#X connect 9 0 4 0;
#X connect 10 0 11 1;
#X connect 11 0 14 0;
#X connect 11 0 15 0;
#X connect 12 0 11 0;
#X connect 13 0 16 0;
#X connect 14 0 11 1;
#X connect 15 0 9 0;
#X connect 16 0 12 0;
#X connect 16 1 10 0;
#X connect 16 1 4 1;
#X connect 17 0 6 0;
#X connect 17 2 4 1;
#X restore 139 -284 pd computeFlux;
#X obj 120 -342 t b a b;
#X msg 120 -81 10 44;
#X obj 120 -24 t b b;
#X obj 283 -3 outlet;
#X obj 139 -168 tab_add \$0-a \$0-b \$0-c;
#X obj 418 72 tabdump \$0-beatHisto;
#X obj 418 121 outlet;
#X obj 139 -255 tab_rfft \$0-flux \$0-a \$0-b 128;
#X obj 139 -139 tab_rifft \$0-c \$0-d \$0-xCorr 128;
#X obj 711 -314 table \$0-flux 128;
#X obj 711 -287 table \$0-a 128;
#X obj 711 -260 table \$0-b 128;
#X obj 711 -233 table \$0-c 128;
#X obj 711 -206 table \$0-d 128;
#X obj 711 -179 table \$0-xCorr 128;
#X obj 711 -152 table \$0-beatHisto 128;
#X obj 418 96 list split 64;
#X text 245 -289 << compute the spectral flux and output the last 128
values;
#X text 337 -258 << compute the fft (real:\$0-a imag:\$0-b);
#X text 290 -228 << real^2 (some algorithm refer the sqrt also);
#X text 294 -196 << imag^2 (some algorithm refer the sqrt also);
#X text 297 -169 << real+imag (some algorithm multiply instead of adding
booth tables!);
#X text 348 -140 << inverse transform (the imaginary part is atable
filled with zeros);
#X text 402 -112 << histogram;
#N canvas 140 395 450 300 binsToBpm&ms 0;
#X obj 26 25 inlet;
#X obj 26 131 t f f;
#X obj 70 148 expr rint(60000/$f1);
#X obj 26 206 outlet;
#X obj 26 84 / 44.1;
#X obj 70 206 outlet;
#X text 75 55 OR 512???;
#X obj 26 55 * 512;
#X connect 0 0 7 0;
#X connect 1 0 3 0;
#X connect 1 1 2 0;
#X connect 2 0 5 0;
#X connect 4 0 1 0;
#X connect 7 0 4 0;
#X restore 196 -27 pd binsToBpm&ms;
#X text 288 -54 << find the corresponding index of the max value \,
which is the lag time of the tempo;
#X connect 3 0 2 0;
#X connect 4 0 11 0;
#X connect 5 0 17 0;
#X connect 6 0 5 0;
#X connect 8 0 15 0;
#X connect 8 1 37 0;
#X connect 9 0 2 0;
#X connect 10 0 12 0;
#X connect 11 0 13 0;
#X connect 12 0 20 0;
#X connect 13 0 14 0;
#X connect 13 1 10 0;
#X connect 13 2 3 0;
#X connect 14 0 8 0;
#X connect 15 0 18 0;
#X connect 15 1 9 0;
#X connect 17 0 21 0;
#X connect 18 0 29 0;
#X connect 20 0 6 0;
#X connect 21 0 7 0;
#X connect 29 0 19 0;
#X connect 37 0 0 0;
#X connect 37 1 16 0;
