#N canvas 923 278 782 617 10;
#X obj 254 97 loadbang;
#X obj 254 177 s \$0-bus;
#X obj 254 131 \$1;
#X msg 254 153 label Bus\$1;
#X obj 315 114 1;
#X obj 320 256 pack \$1 \$2;
#X obj 513 142 s \$2-bus.button+;
#X obj 395 118 \$1;
#X obj 513 118 \$1;
#X obj 395 142 s \$2-bus.buttonx;
#N canvas 851 245 436 441 cables&outlet 0;
#X obj 70 192 + 1;
#X obj 142 233 f;
#X obj 43 216 t f b;
#X obj 43 250 pack;
#X obj 24 42 pack \$1 \$2;
#X obj 189 216 1;
#X obj 43 192 f 2;
#X obj 43 298 s pd-\$1-effects;
#X obj 24 18 inlet;
#X obj 189 17 inlet;
#X obj 189 175 2;
#X obj 227 17 inlet;
#X obj 24 152 t b b a;
#X obj 24 334 outlet;
#X msg 24 96 obj 0 270 bus.output \$1 \$2;
#X msg 43 274 connect \$2 0 \$1 0 \, connect \$2 1 \$1 1;
#X connect 0 0 6 1;
#X connect 1 0 3 1;
#X connect 2 0 3 0;
#X connect 2 0 1 1;
#X connect 2 1 1 0;
#X connect 3 0 15 0;
#X connect 4 0 14 0;
#X connect 5 0 1 1;
#X connect 6 0 0 0;
#X connect 6 0 2 0;
#X connect 8 0 4 0;
#X connect 9 0 5 0;
#X connect 9 0 10 0;
#X connect 10 0 6 1;
#X connect 11 0 6 0;
#X connect 12 0 13 0;
#X connect 12 1 6 0;
#X connect 12 2 7 0;
#X connect 14 0 12 0;
#X connect 15 0 7 0;
#X restore 260 432 pd cables&outlet;
#X obj 212 566 s \$2-bus.\$1.gain;
#X obj 223 22 r \$2-bus.\$1.vu;
#X obj 260 514 f;
#N canvas 756 22 490 465 effect.1 0;
#X obj 91 85 unpack f s;
#X obj 24 230 sel Empty;
#X obj 64 60 t b a;
#X obj 64 329 outlet;
#X obj 148 329 outlet;
#X obj 308 335 s pd-\$1-effects;
#X obj 24 36 inlet;
#X obj 308 264 pack s 0 \$1 \$2;
#X msg 308 309 obj 0 \$2 \$1 \$3 \$4 1;
#X obj 148 247 t b b s;
#X obj 203 299 s \$2-p.\$1.1.r;
#X obj 203 277 list;
#X obj 24 208 symbol Empty;
#X obj 64 35 r \$2-bus\$1.1;
#N canvas 293 218 691 385 initParameters 0;
#X obj 12 12 inlet;
#X msg 12 80 0.3 0.5 0.2 0.8;
#X msg 61 104 10 1.5 0.8;
#X msg 110 127 0.85 0.8 0.4 1;
#X msg 159 150 40 0.6 0.24 0.8;
#X msg 209 178 0.5 0.4 0.8;
#X msg 258 206 1 1 1 1;
#X msg 307 236 -85 2.5;
#X msg 349 265 100 10 1 0;
#X msg 439 323 10 1;
#X msg 398 294 0.8 0.7 0.5;
#X obj 12 39 sel Flanger~ Chorus~ Revs2s~ Revm2s~ DelayFb~ EQ~ Compand~
Morph~ bCrush~ Freeze~ Drev~;
#X obj 11 383 outlet;
#X msg 480 354 0.6 0.8 0.7;
#X connect 0 0 11 0;
#X connect 1 0 12 0;
#X connect 2 0 12 0;
#X connect 3 0 12 0;
#X connect 4 0 12 0;
#X connect 5 0 12 0;
#X connect 6 0 12 0;
#X connect 7 0 12 0;
#X connect 8 0 12 0;
#X connect 9 0 12 0;
#X connect 10 0 12 0;
#X connect 11 0 1 0;
#X connect 11 1 2 0;
#X connect 11 2 3 0;
#X connect 11 3 4 0;
#X connect 11 4 5 0;
#X connect 11 5 6 0;
#X connect 11 6 7 0;
#X connect 11 7 8 0;
#X connect 11 8 10 0;
#X connect 11 9 9 0;
#X connect 11 10 13 0;
#X connect 13 0 12 0;
#X restore 224 192 pd initParameters;
#X obj 148 111 t s s;
#X connect 0 1 15 0;
#X connect 1 1 9 0;
#X connect 2 0 3 0;
#X connect 2 1 0 0;
#X connect 6 0 12 0;
#X connect 7 0 8 0;
#X connect 8 0 5 0;
#X connect 9 0 4 0;
#X connect 9 1 11 0;
#X connect 9 2 7 0;
#X connect 11 0 10 0;
#X connect 12 0 1 0;
#X connect 13 0 2 0;
#X connect 14 0 11 1;
#X connect 15 0 12 1;
#X connect 15 1 14 0;
#X restore 305 360 pd effect.1;
#N canvas 335 427 617 403 effect.2 1;
#X obj 101 95 unpack f s;
#X obj 34 240 sel Empty;
#X obj 74 70 t b a;
#X obj 74 339 outlet;
#X obj 158 339 outlet;
#X obj 318 345 s pd-\$1-effects;
#X obj 34 46 inlet;
#X obj 158 257 t b b s;
#X obj 213 287 list;
#X msg 318 319 obj 0 \$2 \$1 \$3 \$4 2;
#X obj 213 309 s \$2-p.\$1.2.r;
#X obj 34 218 symbol Empty;
#X obj 74 46 r \$2-bus\$1.2;
#X obj 318 274 pack s 90 \$1 \$2;
#X obj 158 121 t s s;
#N canvas 351 216 644 426 initParameters 0;
#X obj 22 22 inlet;
#X msg 22 90 0.3 0.5 0.2 0.8;
#X obj 22 350 outlet;
#X msg 71 114 10 1.5 0.8;
#X msg 120 137 0.85 0.8 0.4 1;
#X msg 169 160 40 0.6 0.24 0.8;
#X msg 219 188 0.5 0.4 0.8;
#X msg 268 216 1 1 1 1;
#X msg 317 246 -85 2.5;
#X msg 359 275 100 10 1 0;
#X msg 449 333 10 1;
#X msg 408 304 0.8 0.7 0.5;
#X obj 22 49 sel Flanger~ Chorus~ Revs2s~ Revm2s~ DelayFb~ EQ~ Compand~
Morph~ bCrush~ Freeze~ Drev~;
#X msg 498 356 0.6 0.8 0.7;
#X connect 0 0 12 0;
#X connect 1 0 2 0;
#X connect 3 0 2 0;
#X connect 4 0 2 0;
#X connect 5 0 2 0;
#X connect 6 0 2 0;
#X connect 7 0 2 0;
#X connect 8 0 2 0;
#X connect 9 0 2 0;
#X connect 10 0 2 0;
#X connect 11 0 2 0;
#X connect 12 0 1 0;
#X connect 12 1 3 0;
#X connect 12 2 4 0;
#X connect 12 3 5 0;
#X connect 12 4 6 0;
#X connect 12 5 7 0;
#X connect 12 6 8 0;
#X connect 12 7 9 0;
#X connect 12 8 11 0;
#X connect 12 9 10 0;
#X connect 12 10 13 0;
#X connect 13 0 2 0;
#X restore 234 210 pd initParameters;
#X connect 0 1 14 0;
#X connect 1 1 7 0;
#X connect 2 0 3 0;
#X connect 2 1 0 0;
#X connect 6 0 11 0;
#X connect 7 0 4 0;
#X connect 7 1 8 0;
#X connect 7 2 13 0;
#X connect 8 0 10 0;
#X connect 9 0 5 0;
#X connect 11 0 1 0;
#X connect 12 0 2 0;
#X connect 13 0 9 0;
#X connect 14 0 11 1;
#X connect 14 1 15 0;
#X connect 15 0 8 1;
#X restore 290 383 pd effect.2;
#N canvas 0 22 523 416 effect.3 1;
#X obj 111 105 unpack f s;
#X obj 44 250 sel Empty;
#X obj 84 80 t b a;
#X obj 84 349 outlet;
#X obj 168 349 outlet;
#X obj 328 355 s pd-\$1-effects;
#X obj 44 56 inlet;
#X obj 168 267 t b b s;
#X obj 223 297 list;
#X msg 328 329 obj 0 \$2 \$1 \$3 \$4 3;
#X obj 223 319 s \$2-p.\$1.3.r;
#X obj 44 228 symbol Empty;
#X obj 84 56 r \$2-bus\$1.3;
#X obj 328 284 pack s 180 \$1 \$2;
#X obj 168 131 t s s;
#N canvas 351 216 612 429 initParameters 1;
#X obj 32 32 inlet;
#X msg 32 100 0.3 0.5 0.2 0.8;
#X obj 32 360 outlet;
#X msg 81 124 10 1.5 0.8;
#X msg 130 147 0.85 0.8 0.4 1;
#X msg 179 170 40 0.6 0.24 0.8;
#X msg 229 198 0.5 0.4 0.8;
#X msg 278 226 1 1 1 1;
#X msg 327 256 -85 2.5;
#X msg 369 285 100 10 1 0;
#X msg 459 343 10 1;
#X msg 418 314 0.8 0.7 0.5;
#X obj 32 59 sel Flanger~ Chorus~ Revs2s~ Revm2s~ DelayFb~ EQ~ Compand~
Morph~ bCrush~ Freeze~ Drev~;
#X msg 500 374 0.85 0.8 0.4 1;
#X connect 0 0 12 0;
#X connect 1 0 2 0;
#X connect 3 0 2 0;
#X connect 4 0 2 0;
#X connect 5 0 2 0;
#X connect 6 0 2 0;
#X connect 7 0 2 0;
#X connect 8 0 2 0;
#X connect 9 0 2 0;
#X connect 10 0 2 0;
#X connect 11 0 2 0;
#X connect 12 0 1 0;
#X connect 12 1 3 0;
#X connect 12 2 4 0;
#X connect 12 3 5 0;
#X connect 12 4 6 0;
#X connect 12 5 7 0;
#X connect 12 6 8 0;
#X connect 12 7 9 0;
#X connect 12 8 11 0;
#X connect 12 9 10 0;
#X connect 12 10 13 0;
#X connect 13 0 2 0;
#X restore 244 226 pd initParameters;
#X connect 0 1 14 0;
#X connect 1 1 7 0;
#X connect 2 0 3 0;
#X connect 2 1 0 0;
#X connect 6 0 11 0;
#X connect 7 0 4 0;
#X connect 7 1 8 0;
#X connect 7 2 13 0;
#X connect 8 0 10 0;
#X connect 9 0 5 0;
#X connect 11 0 1 0;
#X connect 12 0 2 0;
#X connect 13 0 9 0;
#X connect 14 0 11 1;
#X connect 14 1 15 0;
#X connect 15 0 8 1;
#X restore 275 406 pd effect.3;
#X obj 320 332 s pd-\$1-effects;
#X msg 21 29 clear;
#X obj 338 45 list prepend add;
#X obj 338 67 list trim;
#X obj 260 231 t b b b b b b;
#X msg 340 552 tof/menubutton 90 25 \$2-bus\$1.1 \$2-bus\$1.1.r 1 grey
grey grey grey 0;
#X obj 109 125 tof/menubutton 90 24 \$2-bus\$1.1 \$2-bus\$1.1.r 1 grey
grey grey grey 0 \, Empty \, bCrush~ \, Compand~ \, Chorus~ \, DelayFb~
\, EQ~ \, Flanger~ \, Freeze~ \, Morph~ \, Revs2s~ \, Revm2s~ \, Drev~
;
#X obj 109 150 tof/menubutton 90 24 \$2-bus\$1.2 \$2-bus\$1.2.r 1 grey
grey grey grey 0 \, Empty \, bCrush~ \, Compand~ \, Chorus~ \, DelayFb~
\, EQ~ \, Flanger~ \, Freeze~ \, Morph~ \, Revs2s~ \, Revm2s~ \, Drev~
;
#X obj 109 175 tof/menubutton 90 24 \$2-bus\$1.3 \$2-bus\$1.3.r 1 grey
grey grey grey 0 \, Empty \, bCrush~ \, Compand~ \, Chorus~ \, DelayFb~
\, EQ~ \, Flanger~ \, Freeze~ \, Morph~ \, Revs2s~ \, Revm2s~ \, Drev~
;
#X obj 100 100 cnv 15 135 386 empty empty empty 20 12 0 14 -1 -66577
0;
#X obj 101 101 cnv 15 133 19 empty \$0-bus Bus0 10 10 0 14 -162280
-262144 0;
#X obj 200 103 bng 15 250 50 0 empty empty x 3 7 0 15 -1 -162280 -258113
;
#X obj 218 103 bng 15 250 50 0 empty empty + 3 7 0 16 -1 -162280 -191407
;
#N canvas 917 22 469 420 \$1-effects 0;
#X obj 0 0 cnv 15 109 270 0-bus.cnv 0-bus.cnv.r fx 30 125 0 40 -166441
-195568 0;
#X obj 0 -18 bus.input 0 1002;
#X obj 0 0 Drev~ 0 1002 1;
#X obj 0 270 bus.output 0 1002;
#X connect 1 0 2 0;
#X connect 1 1 2 1;
#X connect 2 0 3 0;
#X connect 2 1 3 1;
#X coords 0 -1 1 1 109 270 1 0 0;
#X restore 101 215 pd \$1-effects;
#X obj 101 122 cnv 15 109 91 empty empty empty 20 12 0 14 -191407 -66577
0;
#X obj 224 124 vu 10 360 empty empty -1 -8 0 10 -1 -1 0 0;
#X obj 212 124 vsl 10 359 0 1.5 0 0 empty empty empty 2 10 0 10 -1
-228856 -128992 16800 1;
#X msg 320 280 clear \, obj 0 0 cnv 15 109 270 \$1-bus.cnv \$1-bus.cnv.r
fx 30 125 0 40 31 20 \, obj 0 -18 bus.input \$1 \$2;
#X msg 338 8 Empty \, bCrush~ \, Compand~ \, Chorus~ \, DelayFb~ \,
EQ~ \, Flanger~ \, Freeze~ \, Morph~ \, Revs2s~ \, Revm2s~ \, Drev~
;
#X connect 0 0 2 0;
#X connect 0 0 4 0;
#X connect 2 0 3 0;
#X connect 3 0 1 0;
#X connect 4 0 33 0;
#X connect 5 0 34 0;
#X connect 7 0 9 0;
#X connect 8 0 6 0;
#X connect 10 0 13 0;
#X connect 12 0 32 0;
#X connect 13 0 33 0;
#X connect 14 0 21 0;
#X connect 14 1 10 2;
#X connect 15 0 21 0;
#X connect 15 1 10 2;
#X connect 16 0 21 0;
#X connect 16 1 10 2;
#X connect 18 0 23 0;
#X connect 18 0 24 0;
#X connect 18 0 25 0;
#X connect 19 0 20 0;
#X connect 20 0 23 0;
#X connect 20 0 24 0;
#X connect 20 0 25 0;
#X connect 21 0 10 0;
#X connect 21 1 16 0;
#X connect 21 2 15 0;
#X connect 21 3 14 0;
#X connect 21 4 5 0;
#X connect 21 5 10 1;
#X connect 28 0 7 0;
#X connect 29 0 8 0;
#X connect 33 0 11 0;
#X connect 33 0 13 1;
#X connect 34 0 17 0;
#X connect 35 0 19 0;
#X coords 0 -1 1 1 135 386 1 100 100;
