#N canvas 0 22 570 191 10;
#X obj 29 -7 inlet~;
#X obj 29 58 *~;
#X msg 347 17 \$1 50;
#X obj 347 41 line~;
#X obj 347 -7 r \$2-bus.\$1.gain;
#X obj 455 75 env~;
#X obj 455 124 s \$2-bus.\$1.vu;
#X obj 455 100 - 100;
#X obj 175 -7 inlet~;
#X obj 175 58 *~;
#X obj 29 84 throw~ \$2-signalL;
#X obj 175 84 throw~ \$2-signalR;
#X connect 0 0 1 0;
#X connect 1 0 5 0;
#X connect 1 0 10 0;
#X connect 2 0 3 0;
#X connect 3 0 1 1;
#X connect 3 0 9 1;
#X connect 4 0 2 0;
#X connect 5 0 7 0;
#X connect 7 0 6 0;
#X connect 8 0 9 0;
#X connect 9 0 11 0;
#X connect 9 0 5 0;
