#N canvas 398 22 919 753 10;
#X obj 44 409 translateXYZ;
#X obj 44 482 alpha;
#X obj 252 135 spigot;
#X obj 205 135 spigot;
#X msg 136 532 0;
#X obj 44 310 gemhead 3000;
#X obj 42 51 r \$1-plot.similarities;
#X obj 205 41 r \$1-gemMouse;
#X obj 205 69 unpack f f f;
#X text 171 195 (sets the size to 0);
#X obj 301 245 once;
#X obj 462 462 once;
#X obj 134 218 change;
#X obj 332 43 r \$1-collection.nr;
#X obj 290 100 * 0;
#X obj 332 72 == \$2;
#X obj 134 195 == 1;
#X obj 603 567 r \$1-numUnitsConstr;
#X obj 640 153 \$2;
#X obj 493 29 gemhead 4000;
#X obj 493 145 translateXYZ 0 0 0;
#X msg 640 182 text \$1;
#X obj 640 127 loadbang;
#X obj 493 199 text2d;
#X obj 493 108 alpha;
#X obj 599 53 loadbang;
#X msg 599 89 1;
#X obj 638 90 50;
#X obj 301 279 maxlib/scale 0 400 -4 4;
#X obj 462 485 maxlib/scale 0 400 4 -4;
#X obj 233 382 -;
#X obj 233 407 abs;
#X obj 231 560 expr $f2+$f1;
#X obj 397 520 expr $f2-$f1;
#X obj 493 56 color 0 0 0 0.45;
#X obj 253 283 once;
#X obj 234 430 maxlib/scale 0 400 0 4;
#X obj 224 343 expr if($f1<$f2 \, $f2 \, $f1);
#X obj 360 110 sel 1;
#X obj 380 181 line;
#X msg 371 240 0 250;
#X obj 363 214 delay 250;
#X obj 410 102 0;
#X msg 380 159 0 \, 400 250;
#X obj 44 537 square 0;
#X obj 347 556 f;
#X obj 134 244 sel 1 0;
#X obj 653 271 0;
#X obj 44 452 color \$3 \$4 \$5 0.6;
#X obj 348 584 maxlib/scale 0 400 0 10;
#X obj 495 614 maxlib/scale 0 400 0 10;
#X obj 348 679 pack;
#X obj 348 704 list prepend \$2;
#X obj 348 728 outlet;
#X obj 348 639 expr rint($f1)-rint($f2) \; rint($f2);
#X connect 0 0 48 0;
#X connect 1 0 44 0;
#X connect 2 0 11 0;
#X connect 3 0 10 0;
#X connect 3 0 35 0;
#X connect 3 0 37 0;
#X connect 3 0 45 1;
#X connect 4 0 44 1;
#X connect 5 0 0 0;
#X connect 6 0 5 0;
#X connect 6 0 46 0;
#X connect 7 0 8 0;
#X connect 8 0 3 0;
#X connect 8 1 2 0;
#X connect 8 2 14 0;
#X connect 10 0 28 0;
#X connect 11 0 29 0;
#X connect 12 0 46 0;
#X connect 13 0 15 0;
#X connect 14 0 3 1;
#X connect 14 0 2 1;
#X connect 14 0 16 0;
#X connect 15 0 14 1;
#X connect 15 0 38 0;
#X connect 16 0 12 0;
#X connect 17 0 49 4;
#X connect 17 0 50 4;
#X connect 18 0 21 0;
#X connect 19 0 34 0;
#X connect 20 0 23 0;
#X connect 21 0 23 0;
#X connect 22 0 18 0;
#X connect 24 0 20 0;
#X connect 25 0 26 0;
#X connect 25 0 27 0;
#X connect 26 0 24 1;
#X connect 26 0 24 0;
#X connect 27 0 23 1;
#X connect 28 0 32 1;
#X connect 29 0 33 1;
#X connect 30 0 31 0;
#X connect 31 0 23 1;
#X connect 31 0 36 0;
#X connect 32 0 0 1;
#X connect 32 0 20 1;
#X connect 33 0 0 2;
#X connect 33 0 20 2;
#X connect 34 0 24 0;
#X connect 35 0 37 1;
#X connect 35 0 30 1;
#X connect 35 0 50 0;
#X connect 36 0 32 0;
#X connect 36 0 33 0;
#X connect 36 0 44 1;
#X connect 37 0 30 0;
#X connect 38 0 43 0;
#X connect 38 0 41 0;
#X connect 38 0 42 0;
#X connect 38 0 4 0;
#X connect 39 0 23 1;
#X connect 40 0 39 0;
#X connect 41 0 40 0;
#X connect 42 0 20 1;
#X connect 42 0 20 2;
#X connect 43 0 39 0;
#X connect 45 0 49 0;
#X connect 46 0 10 1;
#X connect 46 0 11 1;
#X connect 46 0 4 0;
#X connect 46 0 35 1;
#X connect 46 0 47 0;
#X connect 46 1 45 0;
#X connect 47 0 23 1;
#X connect 48 0 1 0;
#X connect 49 0 54 0;
#X connect 50 0 54 1;
#X connect 51 0 52 0;
#X connect 52 0 53 0;
#X connect 54 0 51 0;
#X connect 54 1 51 1;
