#N canvas 416 22 939 763 10;
#X msg 719 273 nopoll;
#X obj 725 233 sel 0;
#X msg 610 260 zero \, poll;
#X msg 769 260 1;
#X obj 607 162 spigot 1;
#X msg 692 192 0;
#X obj 625 386 +;
#X obj 608 227 t b b f;
#X obj 450 706 s \$0label;
#X obj 511 349 f;
#X msg 563 165 20;
#X msg 544 258 30;
#X obj 332 264 t b f;
#X obj 628 429 moses 30;
#X obj 623 470 / 30;
#X obj 511 375 pack f f f;
#X obj 552 336 unpack;
#X obj 542 308 t b a;
#X obj 680 489 / 30;
#X obj 627 407 clip 0 60;
#X msg 621 498 1 \$1;
#X msg 681 522 \$1 1;
#X obj 720 560 -;
#X msg 752 562 2 \$1;
#X obj 431 653 pack;
#X msg 424 681 color \$1 \$2;
#X obj 468 536 * -1;
#X msg 392 325 50;
#X obj 283 697 outlet pd_color;
#X obj 302 629 t a a;
#X obj 146 496 t a a a a;
#X obj 468 510 - 1;
#X obj 689 299 cyclone/MouseState;
#X obj 141 537 s \$1;
#X obj 158 568 outlet float_RGB;
#N canvas 0 22 721 616 rgbToNum 0;
#X obj 261 378 +;
#X obj 197 450 +;
#X obj 110 333 * -65536;
#X obj 216 339 * -256;
#X obj 330 347 * -1;
#X obj 197 481 - 1;
#X obj 278 532 outlet;
#X obj 105 301 int 0;
#X obj 216 290 int 0;
#X obj 363 292 int 0;
#X obj 38 53 inlet float_RGB;
#X obj 47 133 unpack f f f;
#X obj 37 174 * 255;
#X obj 92 172 * 255;
#X obj 139 170 * 255;
#X obj 86 253 clip 0 255;
#X obj 248 250 clip 0 255;
#X obj 349 250 clip 0 255;
#X connect 0 0 1 1;
#X connect 1 0 5 0;
#X connect 2 0 1 0;
#X connect 3 0 0 0;
#X connect 4 0 0 1;
#X connect 5 0 6 0;
#X connect 7 0 2 0;
#X connect 8 0 3 0;
#X connect 9 0 4 0;
#X connect 10 0 11 0;
#X connect 11 0 12 0;
#X connect 11 1 13 0;
#X connect 11 2 14 0;
#X connect 12 0 15 0;
#X connect 13 0 16 0;
#X connect 14 0 17 0;
#X connect 15 0 7 0;
#X connect 16 0 8 0;
#X connect 17 0 9 0;
#X restore 296 581 pd rgbToNum;
#N canvas 750 189 450 300 rgbToNum 0;
#X obj 261 378 +;
#X obj 197 450 +;
#X obj 110 333 * -65536;
#X obj 216 339 * -256;
#X obj 330 347 * -1;
#X obj 197 481 - 1;
#X obj 278 532 outlet;
#X obj 105 301 int 0;
#X obj 216 290 int 0;
#X obj 363 292 int 0;
#X obj 38 53 inlet float_RGB;
#X obj 47 133 unpack f f f;
#X obj 37 174 * 255;
#X obj 92 172 * 255;
#X obj 139 170 * 255;
#X obj 86 253 clip 0 255;
#X obj 248 250 clip 0 255;
#X obj 349 250 clip 0 255;
#X connect 0 0 1 1;
#X connect 1 0 5 0;
#X connect 2 0 1 0;
#X connect 3 0 0 0;
#X connect 4 0 0 1;
#X connect 5 0 6 0;
#X connect 7 0 2 0;
#X connect 8 0 3 0;
#X connect 9 0 4 0;
#X connect 10 0 11 0;
#X connect 11 0 12 0;
#X connect 11 1 13 0;
#X connect 11 2 14 0;
#X connect 12 0 15 0;
#X connect 13 0 16 0;
#X connect 14 0 17 0;
#X connect 15 0 7 0;
#X connect 16 0 8 0;
#X connect 17 0 9 0;
#X restore 447 610 pd rgbToNum;
#N canvas 305 96 748 712 hsvToRgb 0;
#X obj 207 104 route 0;
#X msg 207 76 \$2 \$3 \$1;
#X obj 251 131 unpack 0 0 0;
#X text 270 91 svh;
#X obj 207 48 inlet hsv;
#X obj 201 686 outlet rgb;
#X obj 421 169 * 6;
#X obj 400 216 % 6;
#X obj 370 193 t f f;
#X msg 370 169 0;
#X text 426 216 i;
#X obj 370 239 -;
#X obj 251 237 *;
#X obj 251 198 - 1;
#X obj 251 218 * -1;
#X obj 283 350 *;
#X obj 283 311 - 1;
#X obj 283 331 * -1;
#X obj 283 289 *;
#X obj 370 260 t f f;
#X obj 400 282 - 1;
#X obj 400 303 * -1;
#X obj 322 376 *;
#X obj 322 337 - 1;
#X obj 322 357 * -1;
#X obj 322 315 *;
#X obj 251 171 t f f f;
#X obj 258 431 pack 0 0 0 0;
#N canvas 388 287 646 315 select 0;
#X obj 290 37 inlet;
#X obj 16 247 outlet;
#X obj 92 104 t b l;
#X obj 125 128 unpack 0 0 0 0;
#X obj 89 43 inlet p q t v;
#X obj 92 128 i;
#X obj 92 151 select 0 1 2 3 4 5;
#X obj 16 223 pack 0 0 0;
#X obj 16 203 f;
#X obj 96 223 pack 0 0 0;
#X obj 96 203 f;
#X obj 176 223 pack 0 0 0;
#X obj 176 203 f;
#X obj 256 223 pack 0 0 0;
#X obj 256 203 f;
#X obj 336 223 pack 0 0 0;
#X obj 336 203 f;
#X obj 416 223 pack 0 0 0;
#X obj 416 203 f;
#X connect 0 0 5 1;
#X connect 2 0 5 0;
#X connect 2 1 3 0;
#X connect 3 0 7 2;
#X connect 3 0 9 2;
#X connect 3 0 12 1;
#X connect 3 0 14 1;
#X connect 3 0 15 1;
#X connect 3 0 17 1;
#X connect 3 1 10 1;
#X connect 3 1 13 1;
#X connect 3 1 17 2;
#X connect 3 2 7 1;
#X connect 3 2 11 2;
#X connect 3 2 16 1;
#X connect 3 3 8 1;
#X connect 3 3 9 1;
#X connect 3 3 11 1;
#X connect 3 3 13 2;
#X connect 3 3 15 2;
#X connect 3 3 18 1;
#X connect 4 0 2 0;
#X connect 5 0 6 0;
#X connect 6 0 8 0;
#X connect 6 1 10 0;
#X connect 6 2 12 0;
#X connect 6 3 14 0;
#X connect 6 4 16 0;
#X connect 6 5 18 0;
#X connect 7 0 1 0;
#X connect 8 0 7 0;
#X connect 9 0 1 0;
#X connect 10 0 9 0;
#X connect 11 0 1 0;
#X connect 12 0 11 0;
#X connect 13 0 1 0;
#X connect 14 0 13 0;
#X connect 15 0 1 0;
#X connect 16 0 15 0;
#X connect 17 0 1 0;
#X connect 18 0 17 0;
#X restore 263 476 pd select;
#X msg 207 498 \$1 \$1 \$1;
#X obj 146 457 clip 0 1;
#X obj 251 151 clip 0 1;
#X obj 290 193 clip 0 1;
#X obj 370 129 clip 0 1;
#X obj 370 149 select 1;
#X msg 159 377 \$1;
#X obj 209 393 abs;
#X obj 248 372 abs;
#X obj 291 406 abs;
#X connect 0 0 35 0;
#X connect 0 1 2 0;
#X connect 1 0 0 0;
#X connect 2 0 31 0;
#X connect 2 1 32 0;
#X connect 2 2 33 0;
#X connect 4 0 1 0;
#X connect 6 0 8 0;
#X connect 7 0 11 1;
#X connect 7 0 28 1;
#X connect 8 0 11 0;
#X connect 8 1 7 0;
#X connect 9 0 8 0;
#X connect 11 0 19 0;
#X connect 12 0 36 0;
#X connect 13 0 14 0;
#X connect 14 0 12 0;
#X connect 15 0 37 0;
#X connect 16 0 17 0;
#X connect 17 0 15 0;
#X connect 18 0 16 0;
#X connect 19 0 18 1;
#X connect 19 1 20 0;
#X connect 20 0 21 0;
#X connect 21 0 25 1;
#X connect 22 0 38 0;
#X connect 23 0 24 0;
#X connect 24 0 22 0;
#X connect 25 0 23 0;
#X connect 26 0 13 0;
#X connect 26 1 18 0;
#X connect 26 2 25 0;
#X connect 27 0 28 0;
#X connect 28 0 5 0;
#X connect 29 0 5 0;
#X connect 30 0 29 0;
#X connect 31 0 26 0;
#X connect 32 0 12 1;
#X connect 32 0 27 3;
#X connect 32 0 15 1;
#X connect 32 0 22 1;
#X connect 33 0 34 0;
#X connect 34 0 9 0;
#X connect 34 1 6 0;
#X connect 35 0 30 0;
#X connect 36 0 27 0;
#X connect 37 0 27 1;
#X connect 38 0 27 2;
#X restore 308 434 pd hsvToRgb;
#X obj 380 531 list-map;
#X obj 100 100 cnv 15 205 100 empty \$0label empty 12 14 0 16 -184307
-77838 0;
#X obj 109 107 cnv 15 187 85 empty empty empty 20 12 0 14 -233017 -66577
0;
#X obj 110 108 cnv 15 185 20 empty empty empty 3 11 0 18 -1 -262144
0;
#X obj 114 150 hsl 179 20 0 1 0 0 empty empty empty -2 -6 0 8 -262144
-1 -1 6800 0;
#X obj 114 129 hsl 179 20 0 1 0 0 empty empty empty -2 -6 0 8 -262144
-1 -1 11600 0;
#X obj 110 150 cnv 15 20 20 empty empty empty 20 12 0 14 -258049 -66577
0;
#X obj 110 129 cnv 15 20 20 \$0cnv_s \$0cnv_r empty 20 12 0 14 -131073
-66577 0;
#X obj 167 150 cnv 15 35 20 empty empty empty 20 12 0 14 -24198 -66577
0;
#X obj 167 129 cnv 15 35 20 empty empty empty 20 12 0 14 -22726 -66577
0;
#X obj 275 150 cnv 15 20 20 empty empty empty 20 12 0 14 -258049 -66577
0;
#X obj 275 129 cnv 15 20 20 empty empty empty 20 12 0 14 -131073 -66577
0;
#X obj 131 150 cnv 15 35 20 empty empty empty 20 12 0 14 -241291 -66577
0;
#X obj 131 129 cnv 15 35 20 empty empty empty 20 12 0 14 -166411 -66577
0;
#X obj 203 129 cnv 15 35 20 empty empty empty 20 12 0 14 -32 -66577
0;
#X obj 203 150 cnv 15 35 20 empty empty empty 20 12 0 14 -64 -66577
0;
#X obj 239 150 cnv 15 35 20 empty empty empty 20 12 0 14 -258112 -66577
0;
#X obj 239 129 cnv 15 35 20 empty empty empty 20 12 0 14 -135202 -66577
0;
#X obj 113 171 hsl 179 20 0 1 0 0 empty empty empty -2 -6 0 8 -262144
-1 -1 6700 0;
#X obj 110 171 cnv 15 20 20 empty empty empty 20 12 0 14 -261689 -66577
0;
#X obj 167 171 cnv 15 35 20 empty empty empty 20 12 0 14 -225271 -66577
0;
#X obj 275 171 cnv 15 20 20 empty empty empty 20 12 0 14 -261689 -66577
0;
#X obj 131 171 cnv 15 35 20 empty empty empty 20 12 0 14 -262131 -66577
0;
#X obj 203 171 cnv 15 35 20 empty empty empty 20 12 0 14 -228992 -66577
0;
#X obj 239 171 cnv 15 35 20 empty empty empty 20 12 0 14 -257472 -66577
0;
#X obj 481 126 t b f;
#X obj 446 195 t b f;
#X msg 538 659 31 22;
#X obj 531 632 loadbang;
#X connect 0 0 32 0;
#X connect 1 0 0 0;
#X connect 1 0 3 0;
#X connect 2 0 32 0;
#X connect 3 0 4 1;
#X connect 4 0 7 0;
#X connect 5 0 4 1;
#X connect 6 0 19 0;
#X connect 7 0 2 0;
#X connect 7 1 5 0;
#X connect 7 2 6 1;
#X connect 9 0 15 0;
#X connect 10 0 4 0;
#X connect 11 0 4 0;
#X connect 12 0 27 0;
#X connect 12 1 9 1;
#X connect 13 0 14 0;
#X connect 13 1 18 0;
#X connect 14 0 20 0;
#X connect 15 0 37 0;
#X connect 16 0 15 1;
#X connect 16 1 15 2;
#X connect 17 0 9 0;
#X connect 17 1 16 0;
#X connect 18 0 23 0;
#X connect 19 0 13 0;
#X connect 20 0 17 0;
#X connect 21 0 17 0;
#X connect 22 0 21 0;
#X connect 23 0 22 0;
#X connect 24 0 25 0;
#X connect 25 0 8 0;
#X connect 26 0 38 1;
#X connect 27 0 4 0;
#X connect 29 0 28 0;
#X connect 29 1 24 0;
#X connect 30 0 33 0;
#X connect 30 1 34 0;
#X connect 30 2 35 0;
#X connect 30 3 38 0;
#X connect 31 0 26 0;
#X connect 32 0 1 0;
#X connect 32 2 6 0;
#X connect 35 0 29 0;
#X connect 36 0 24 1;
#X connect 37 0 30 0;
#X connect 38 0 36 0;
#X connect 38 1 31 0;
#X connect 42 0 64 0;
#X connect 43 0 63 0;
#X connect 56 0 12 0;
#X connect 63 0 10 0;
#X connect 63 1 9 1;
#X connect 64 0 11 0;
#X connect 64 1 9 1;
#X connect 65 0 25 0;
#X connect 66 0 65 0;
#X coords 0 -1 1 1 205 100 1 100 100;
