#N canvas 555 242 641 530 10;
#X obj 54 16 inlet;
#X obj 24 364 +;
#X obj 54 364 f;
#X obj 54 179 0;
#X obj 159 226 runningAverage;
#X obj 139 185 t f f;
#X obj 233 177 t f f;
#X obj 9 466 outlet;
#X msg 81 209 reset;
#X obj 139 347 expr ($f1-$f2)*($f3-$f4);
#X obj 159 281 t f b;
#X obj 186 310 f 0;
#X obj 280 226 runningAverage;
#X obj 9 430 /;
#X obj 185 466 outlet;
#X obj 327 466 outlet;
#X text 372 465 (mean of y);
#X text 241 465 (mean of x);
#X text 56 465 (covariance);
#X obj 488 466 outlet;
#X text 533 465 (n);
#X obj 217 16 inlet;
#X obj 139 94 list-drip2;
#X obj 9 395 f;
#X obj 45 413 - 1;
#X text 302 43 c_n = c_(n-1) + (x_n - mx_(n-1))*(y_n - my_n) / (n-1)
;
#X obj 54 47 t a b;
#X obj 196 64 list;
#X obj 185 401 f;
#X obj 327 395 f;
#X obj 488 401 f;
#X obj 196 119 t b b b b;
#X connect 0 0 26 0;
#X connect 1 0 2 0;
#X connect 1 0 23 1;
#X connect 2 0 1 1;
#X connect 3 0 2 0;
#X connect 4 0 10 0;
#X connect 4 0 28 1;
#X connect 5 0 9 0;
#X connect 5 1 4 0;
#X connect 6 0 9 2;
#X connect 6 1 12 0;
#X connect 8 0 4 0;
#X connect 8 0 12 0;
#X connect 9 0 1 0;
#X connect 10 0 11 1;
#X connect 10 1 11 0;
#X connect 11 0 9 1;
#X connect 12 0 9 3;
#X connect 12 0 29 1;
#X connect 12 1 24 0;
#X connect 12 1 30 1;
#X connect 13 0 7 0;
#X connect 21 0 27 1;
#X connect 22 0 5 0;
#X connect 22 1 6 0;
#X connect 22 2 31 0;
#X connect 23 0 13 0;
#X connect 24 0 13 1;
#X connect 26 0 22 0;
#X connect 26 1 3 0;
#X connect 26 1 8 0;
#X connect 26 1 27 0;
#X connect 27 0 22 1;
#X connect 28 0 14 0;
#X connect 29 0 15 0;
#X connect 30 0 19 0;
#X connect 31 0 23 0;
#X connect 31 1 28 0;
#X connect 31 2 29 0;
#X connect 31 3 30 0;
