#N canvas 865 22 519 407 10;
#X declare -lib iemmatrix;
#X obj -65 180 covariance;
#X floatatom -65 277 15 0 0 0 - - -;
#X msg -8 152 2 3 5 20;
#X msg -65 124 2 2 4 10;
#X obj -4 376 runningCovariance;
#X obj 113 376 mahalanobisDist;
#X obj -131 376 pooledCovarianceMtx;
#X text -200 375 see also:;
#X floatatom -46 254 15 0 0 0 - - -;
#X floatatom -27 230 15 0 0 0 - - -;
#X floatatom -8 207 15 0 0 0 - - -;
#X obj -209 8 cnv 15 500 60 empty empty covariance 20 12 0 14 -233017
-66577 0;
#X text 141 45 2013 Gilberto Bernardes;
#X text 90 205 nr of occurences;
#X text 71 231 mean of y;
#X text 54 254 mean of x;
#X text -190 45 calculates the covariance between sets of point;
#X text 2 121 x-coordinates;
#X text 60 150 y-coordinates;
#X text 34 278 covariance;
#N canvas 917 234 494 344 META 0;
#X text 12 45 LICENSE GPL v3;
#X text 12 248 RELEASE_DATE 2013;
#X text 12 228 WEBSITE https://sites.google.com/site/eargram/;
#X text 12 208 AUTHOR Gilberto Bernardes;
#X text 12 25 KEYWORDS;
#X text 12 188 LIBRARY earGram_abs;
#X text 12 65 DESCRIPTION calculates the covariance between sets of
point;
#X text 12 86 INLET_0 list clear;
#X text 12 105 OUTLET_0 float (covariance);
#X text 13 125 OUTLET_1 float (mean of x);
#X text 14 145 OUTLET_2 float (mean of y);
#X text 14 166 OUTLET_3 float (nr of occurrences);
#X restore 252 375 pd META;
#X connect 0 0 1 0;
#X connect 0 1 8 0;
#X connect 0 2 9 0;
#X connect 0 3 10 0;
#X connect 2 0 0 1;
#X connect 3 0 0 0;
