#N canvas 129 22 729 732 10;
#N canvas 0 22 450 300 \$0-sort 0;
#X restore 463 101 pd \$0-sort;
#X msg 505 161 clear;
#X obj 505 185 s pd-\$0-sort;
#X obj 153 222 s pd-\$0-sort;
#X msg 153 202 sort;
#X obj 114 63 inlet;
#X obj 243 497 pointer;
#X msg 304 497 next;
#X obj 243 524 t b p;
#X obj 236 699 outlet;
#X obj 139 373 bng 15 250 50 0 empty empty empty 17 7 0 10 -262144
-1 -1;
#X obj 243 449 \$0;
#X msg 243 473 traverse pd-\$1-sort \, next;
#N canvas 0 22 450 300 struct-\$0-f 0;
#X obj 22 22 struct \$0-f float x;
#X restore 463 71 pd struct-\$0-f;
#X obj 114 316 s pd-\$0-sort;
#X obj 114 267 list prepend scalar \$0-f;
#X obj 308 629 list prepend;
#X obj 439 631 list append;
#X obj 114 88 route float sort dump clear;
#X obj 180 168 s \$0-direction;
#X obj 234 659 list;
#X obj 233 122 s \$0-clear;
#X obj 504 136 r \$0-clear;
#N canvas 0 22 608 319 outputMode 0;
#X obj 271 3 r \$0-direction;
#X obj 143 182 spigot;
#X obj 61 22 inlet;
#X obj 337 180 spigot;
#X obj 268 36 route asc desc;
#X obj 146 216 outlet;
#X obj 339 217 outlet;
#X obj 17 196 outlet;
#X obj 395 5 r \$0-clear;
#X obj 14 162 spigot 1;
#X msg 267 62 0 1 0;
#X obj 268 91 unpack f f f;
#X msg 333 61 0 0 1;
#X msg 400 58 1 0 0;
#X connect 0 0 4 0;
#X connect 1 0 5 0;
#X connect 2 0 1 0;
#X connect 2 0 3 0;
#X connect 2 0 9 0;
#X connect 3 0 6 0;
#X connect 4 0 10 0;
#X connect 4 1 12 0;
#X connect 8 0 13 0;
#X connect 9 0 7 0;
#X connect 10 0 11 0;
#X connect 11 0 9 1;
#X connect 11 1 1 1;
#X connect 11 2 3 1;
#X connect 12 0 11 0;
#X connect 13 0 11 0;
#X restore 270 596 pd outputMode;
#X obj 224 403 t b b b b;
#X obj 392 648 t l;
#X obj 521 648 t l;
#X obj 456 504 s pd-\$0-sort;
#X msg 456 478 sort;
#X obj 455 453 spigot;
#X obj 488 404 1;
#X obj 153 133 t b a b;
#X obj 469 175 0;
#X obj 270 561 get \$0-f x;
#X obj 114 294 list trim;
#X connect 1 0 2 0;
#X connect 4 0 3 0;
#X connect 5 0 18 0;
#X connect 6 0 8 0;
#X connect 7 0 6 0;
#X connect 8 0 7 0;
#X connect 8 1 33 0;
#X connect 10 0 11 0;
#X connect 11 0 12 0;
#X connect 12 0 6 0;
#X connect 15 0 34 0;
#X connect 16 0 20 1;
#X connect 16 0 25 0;
#X connect 17 0 20 1;
#X connect 17 0 26 0;
#X connect 18 0 15 0;
#X connect 18 1 31 0;
#X connect 18 2 24 0;
#X connect 18 3 21 0;
#X connect 20 0 9 0;
#X connect 22 0 1 0;
#X connect 22 0 32 0;
#X connect 23 0 16 0;
#X connect 23 1 16 0;
#X connect 23 2 17 0;
#X connect 24 0 20 0;
#X connect 24 1 11 0;
#X connect 24 2 16 1;
#X connect 24 2 17 1;
#X connect 24 3 29 0;
#X connect 25 0 16 1;
#X connect 26 0 17 1;
#X connect 28 0 27 0;
#X connect 29 0 28 0;
#X connect 30 0 29 1;
#X connect 31 0 4 0;
#X connect 31 1 19 0;
#X connect 31 2 30 0;
#X connect 32 0 29 1;
#X connect 33 0 23 0;
#X connect 34 0 14 0;
