#N canvas 126 430 614 348 10;
#X msg 150 242 dump;
#X msg 84 225 clear;
#X obj 34 282 print;
#X obj 34 259 depot;
#X msg 54 199 sort;
#X obj 6 8 cnv 15 600 60 empty empty depot 20 12 0 14 -233017 -66577
0;
#X text 451 47 2013 Gilberto Bernardes;
#X text 22 45 stores collection of floats (optional: sorts the collection)
;
#X obj 34 144 random 100;
#X obj 34 120 metro 200;
#X floatatom 34 169 5 0 0 0 - - -;
#X obj 34 95 tgl 15 0 empty empty empty 17 7 0 10 -262144 -1 -1 0 1
;
#N canvas 464 540 494 344 META 0;
#X text 12 45 LICENSE GPL v3;
#X text 12 197 RELEASE_DATE 2013;
#X text 12 177 WEBSITE https://sites.google.com/site/eargram/;
#X text 12 157 AUTHOR Gilberto Bernardes;
#X text 12 137 LIBRARY earGram_abs;
#X text 12 65 DESCRIPTION stores collection of floats (optional: sorts
the collection);
#X text 12 96 INLET_0 float sort clear dump;
#X text 12 116 OUTLET_0 list;
#X restore 558 322 pd META;
#X connect 0 0 3 0;
#X connect 1 0 3 0;
#X connect 3 0 2 0;
#X connect 4 0 3 0;
#X connect 8 0 10 0;
#X connect 9 0 8 0;
#X connect 10 0 3 0;
#X connect 11 0 9 0;
