#N canvas 344 22 606 667 10;
#X obj 77 108 gemhead;
#X obj 92 237 separator;
#X obj 119 293 f 0;
#X obj 148 293 + 1;
#X msg 146 504 \$2 \$1 0;
#X obj 146 528 t l l b;
#X obj 146 480 pack 0 0;
#X obj 119 318 t f f;
#X obj 390 50 loadbang;
#X msg 390 96 -4;
#X text 415 95 x offset;
#X floatatom 390 129 5 0 0 0 - - -;
#X obj 382 610 pack f f f;
#X obj 483 53 loadbang;
#X floatatom 483 126 5 0 0 0 - - -;
#X text 509 98 y width;
#X msg 483 99 4;
#X obj 77 53 inlet;
#X obj 92 265 t a b;
#X obj 201 328 r frame-start;
#X obj 134 265 0;
#X obj 146 345 +;
#X obj 248 377 r frame-start;
#X obj 275 403 r num-frames;
#X obj 275 436 +;
#X obj 221 463 maxlib/scale 0 400 -4 4;
#X obj 146 453 * 4;
#X obj 146 368 t f f;
#X obj 173 394 + 1;
#X obj 28 154 0;
#X obj 264 501 loadbang;
#X obj 146 427 tabread \$1;
#X obj 261 50 inlet;
#X msg 261 80 set \$1;
#X obj 127 16 r set.nr.features;
#X obj 92 644 polygon 2;
#X msg 264 563 width \$1 \, draw line;
#X obj 231 627 list;
#X obj 153 48 r num-frames;
#X obj 92 164 f 300;
#X obj 92 189 until;
#X obj 92 213 gemlist;
#X obj 77 137 t b b a b b;
#X obj 92 569 color \$2 \$3 \$4 \$5;
#X obj 264 533 \$6;
#X connect 0 0 42 0;
#X connect 1 0 18 0;
#X connect 2 0 7 0;
#X connect 3 0 2 1;
#X connect 4 0 5 0;
#X connect 5 0 35 1;
#X connect 5 1 37 1;
#X connect 5 2 37 0;
#X connect 6 0 4 0;
#X connect 7 0 3 0;
#X connect 7 1 21 0;
#X connect 8 0 9 0;
#X connect 9 0 11 0;
#X connect 11 0 12 0;
#X connect 11 0 25 3;
#X connect 12 0 37 1;
#X connect 13 0 16 0;
#X connect 14 0 26 1;
#X connect 14 0 25 4;
#X connect 16 0 14 0;
#X connect 17 0 0 0;
#X connect 18 0 43 0;
#X connect 18 1 2 0;
#X connect 19 0 21 1;
#X connect 20 0 2 1;
#X connect 21 0 27 0;
#X connect 22 0 24 1;
#X connect 22 0 25 1;
#X connect 23 0 24 0;
#X connect 24 0 25 2;
#X connect 25 0 6 1;
#X connect 26 0 6 0;
#X connect 27 0 31 0;
#X connect 27 1 28 0;
#X connect 28 0 25 0;
#X connect 29 0 0 0;
#X connect 30 0 44 0;
#X connect 31 0 26 0;
#X connect 32 0 33 0;
#X connect 33 0 31 0;
#X connect 34 0 0 0;
#X connect 36 0 35 0;
#X connect 37 0 35 2;
#X connect 38 0 39 1;
#X connect 39 0 40 0;
#X connect 40 0 41 0;
#X connect 41 0 1 0;
#X connect 42 0 29 0;
#X connect 42 1 39 0;
#X connect 42 2 41 1;
#X connect 42 3 20 0;
#X connect 42 4 12 0;
#X connect 43 0 35 0;
#X connect 44 0 36 0;
