#N canvas 490 200 475 528 10;
#X obj 16 14 inlet;
#X obj 136 408 pack f \$1;
#X obj 331 331 switch~;
#X obj 16 41 t a b;
#X obj 284 314 1;
#X obj 244 314 0;
#X msg 136 431 set \$2-signals.\$1L;
#X msg 273 425 set \$2-signals.\$1R;
#X obj 16 475 throw~ \$1-signals.0L;
#X obj 148 475 throw~ \$1-signals.0R;
#N canvas 0 22 450 300 equalPan 0;
#X obj 78 53 inlet~;
#X obj 99 188 cos~;
#X obj 78 219 *~;
#X obj 245 109 *~ 0.25;
#X obj 189 188 cos~;
#X obj 168 219 *~;
#X obj 242 142 -~ 0.25;
#X obj 78 258 outlet~;
#X obj 168 258 outlet~;
#X obj 245 23 inlet;
#X obj 245 49 clip 0 1;
#X obj 245 87 sig~;
#X connect 0 0 2 0;
#X connect 0 0 5 0;
#X connect 1 0 2 1;
#X connect 2 0 7 0;
#X connect 3 0 1 0;
#X connect 3 0 6 0;
#X connect 4 0 5 1;
#X connect 5 0 8 0;
#X connect 6 0 4 0;
#X connect 9 0 10 0;
#X connect 10 0 11 0;
#X connect 11 0 3 0;
#X restore 16 436 pd equalPan;
#X obj 16 348 *~;
#X obj 16 297 wavestretch~ \$1-sample;
#X obj 16 85 unpack f f f f f f f f f f;
#X obj 16 266 pack f f f f f f f;
#X connect 0 0 3 0;
#X connect 1 0 6 0;
#X connect 1 0 7 0;
#X connect 3 0 13 0;
#X connect 3 1 4 0;
#X connect 4 0 2 0;
#X connect 5 0 2 0;
#X connect 6 0 8 0;
#X connect 7 0 9 0;
#X connect 10 0 8 0;
#X connect 10 1 9 0;
#X connect 11 0 10 0;
#X connect 12 0 11 0;
#X connect 12 1 5 0;
#X connect 13 0 14 0;
#X connect 13 1 14 1;
#X connect 13 2 14 2;
#X connect 13 3 14 3;
#X connect 13 4 1 0;
#X connect 13 5 11 1;
#X connect 13 6 10 1;
#X connect 13 7 14 4;
#X connect 13 8 14 5;
#X connect 13 9 14 6;
#X connect 14 0 12 0;
