#N canvas 179 125 532 362 10;
#X obj -34 2 inlet;
#X obj -34 58 i;
#X obj 266 2 inlet;
#X obj -34 212 sel 1;
#X obj 176 341 outlet;
#X obj 28 342 outlet;
#X obj 305 71 list split 6;
#X obj 305 93 s stratification-divisors;
#N canvas 518 206 369 246 inside 0;
#X obj 28 23 inlet;
#X obj 173 20 inlet;
#X obj 301 24 inlet;
#X obj 28 198 outlet;
#X obj 28 70 t b f b;
#X obj 43 129 +;
#X obj 72 129 f;
#X obj 72 106 0;
#X obj 28 154 f;
#X obj 154 87 TIE.6 0;
#X obj 154 112 TIE.6 3;
#X obj 208 87 TIE.6 1;
#X obj 262 112 TIE.6 5;
#X obj 262 87 TIE.6 2;
#X obj 208 112 TIE.6 4;
#X connect 0 0 4 0;
#X connect 1 0 9 1;
#X connect 1 0 10 1;
#X connect 1 0 11 1;
#X connect 1 0 12 1;
#X connect 1 0 13 1;
#X connect 1 0 14 1;
#X connect 2 0 9 2;
#X connect 2 0 10 2;
#X connect 2 0 11 2;
#X connect 2 0 12 2;
#X connect 2 0 13 2;
#X connect 2 0 14 2;
#X connect 4 0 8 0;
#X connect 4 1 9 0;
#X connect 4 1 10 0;
#X connect 4 1 11 0;
#X connect 4 1 12 0;
#X connect 4 1 13 0;
#X connect 4 1 14 0;
#X connect 4 2 7 0;
#X connect 5 0 6 0;
#X connect 5 0 8 1;
#X connect 6 0 5 1;
#X connect 7 0 6 0;
#X connect 8 0 3 0;
#X connect 9 0 5 0;
#X connect 10 0 5 0;
#X connect 11 0 5 0;
#X connect 12 0 5 0;
#X connect 13 0 5 0;
#X connect 14 0 5 0;
#X restore 28 195 pd inside;
#X obj 285 116 list length;
#X obj 305 49 list append 1 1 1 1 1;
#X obj 95 342 outlet;
#X obj 95 314 f;
#X obj -34 29 route float dump getpulses;
#X obj 266 27 t b l l;
#X obj 295 233 list prepend;
#X obj 380 235 t l;
#X obj 274 283 spigot;
#X obj 36 91 1;
#X obj 225 241 b;
#X obj 73 231 == 0;
#X obj 274 258 list;
#X obj 28 253 spigot 1;
#X obj 17 52 t b b b;
#N canvas 450 234 343 332 Mod-- 0;
#X obj 27 36 inlet;
#X obj 27 62 - 1;
#X obj 27 150 %;
#X obj 164 38 inlet;
#X obj 164 65 t b b b;
#X obj 122 133 accum;
#X obj 27 193 + 1;
#X obj 27 294 outlet;
#X obj 183 93 Uzi 6;
#N canvas 467 240 319 313 reader 0;
#X obj 14 19 inlet;
#X obj 14 44 t b f;
#X obj 14 72 list;
#X obj 79 55 r stratification-divisors;
#X obj 14 98 zl nth;
#X obj 14 124 route float;
#X obj 77 179 zl len;
#X obj 14 229 outlet;
#X obj 77 152 cyclone/coll psi-functions;
#C restore;
#X connect 0 0 1 0;
#X connect 1 0 2 0;
#X connect 1 1 4 1;
#X connect 2 0 4 0;
#X connect 3 0 2 1;
#X connect 4 0 5 0;
#X connect 5 0 7 0;
#X connect 5 1 8 0;
#X connect 6 0 7 0;
#X connect 8 0 6 0;
#X restore 210 116 pd reader;
#X msg 273 82 set 1;
#X obj 122 294 outlet;
#X obj 75 36 inlet;
#X obj 75 294 outlet;
#X obj 75 150 f;
#X obj 75 172 until;
#X obj 101 219 + 1;
#X obj 75 124 t b b;
#X obj 90 198 1;
#X obj 75 219 f 1;
#X obj 207 236 sel;
#X obj 207 259 0;
#X obj 207 294 outlet;
#X connect 0 0 1 0;
#X connect 1 0 2 0;
#X connect 2 0 6 0;
#X connect 3 0 4 0;
#X connect 4 0 5 0;
#X connect 4 1 8 0;
#X connect 4 2 10 0;
#X connect 5 0 2 1;
#X connect 5 0 11 0;
#X connect 5 0 14 1;
#X connect 5 0 20 1;
#X connect 6 0 7 0;
#X connect 8 2 9 0;
#X connect 9 0 5 2;
#X connect 10 0 5 0;
#X connect 12 0 17 0;
#X connect 14 0 15 0;
#X connect 15 0 19 0;
#X connect 16 0 19 1;
#X connect 17 0 14 0;
#X connect 17 1 18 0;
#X connect 18 0 19 1;
#X connect 19 0 16 0;
#X connect 19 0 13 0;
#X connect 19 0 20 0;
#X connect 20 0 21 0;
#X connect 21 0 22 0;
#X restore -34 92 pd Mod--;
#X obj 308 337 outlet;
#X obj 274 308 list split 1;
#X connect 0 0 13 0;
#X connect 1 0 24 0;
#X connect 2 0 14 0;
#X connect 3 0 4 0;
#X connect 6 0 7 0;
#X connect 8 0 22 0;
#X connect 8 0 15 0;
#X connect 9 0 8 1;
#X connect 10 0 6 0;
#X connect 12 0 11 0;
#X connect 13 0 1 0;
#X connect 13 1 23 0;
#X connect 13 2 12 0;
#X connect 14 0 8 2;
#X connect 14 0 24 2;
#X connect 14 1 9 0;
#X connect 14 2 10 0;
#X connect 15 0 16 0;
#X connect 15 0 21 1;
#X connect 16 0 15 1;
#X connect 17 0 26 0;
#X connect 18 0 15 1;
#X connect 18 0 20 0;
#X connect 18 0 17 1;
#X connect 19 0 21 0;
#X connect 20 0 22 1;
#X connect 21 0 17 0;
#X connect 22 0 5 0;
#X connect 23 0 24 1;
#X connect 23 1 18 0;
#X connect 23 2 15 1;
#X connect 24 0 3 0;
#X connect 24 0 8 0;
#X connect 24 1 8 0;
#X connect 24 2 12 0;
#X connect 24 3 19 0;
#X connect 24 3 20 0;
#X connect 24 3 17 1;
#X connect 26 1 25 0;
