#N struct 1694-template4 float x float y float w float h float q;
#N canvas 274 22 708 502 10;
#X obj 33 240 indispenser;
#X floatatom 88 321 5 0 0 1 nrAccents - -;
#X msg 49 199 dump;
#X obj 33 89 tgl 15 0 empty empty empty 17 7 0 10 -262144 -1 -1 0 1
;
#X obj 33 157 f;
#X obj 60 157 + 1;
#X msg 141 134 3 2;
#X obj 144 356 bng 15 250 50 0 empty empty downbeat 17 7 0 10 -262144
-1 -1;
#X msg 141 157 2 3;
#X msg 140 89 2 2 2 2;
#X msg 142 201 2 2 3;
#X floatatom 33 288 5 0 0 1 indipensability - -;
#X obj 33 134 metro 200;
#X msg 142 179 3 2 2;
#X obj -73 -16 cnv 15 700 60 empty empty indispenser 20 12 0 14 -233017
-66577 0;
#X text 477 23 2013 Gilberto Bernardes;
#N canvas 944 299 450 300 normalize 0;
#X obj 17 17 inlet;
#X obj 17 43 t l l;
#X obj 186 60 list-maximum;
#X obj 18 105 list-map;
#X obj 81 104 expr ($f1/$f2)*100;
#X obj 18 136 outlet;
#X connect 0 0 1 0;
#X connect 1 0 3 0;
#X connect 1 1 2 0;
#X connect 2 0 4 1;
#X connect 3 0 5 0;
#X connect 3 1 4 0;
#X connect 4 0 3 1;
#X restore 244 257 pd normalize;
#N canvas 193 245 1112 541 SYNTH----------- 0;
#N canvas 0 22 720 422 effects 0;
#X obj 0 0 cnv 15 200 100 empty empty output 20 12 0 14 -62784 -66577
0;
#X obj 230 178 outlet~;
#X obj 281 178 outlet~;
#X obj 161 19 vsl 15 64 0 1 0 0 empty empty volume 0 -8 0 8 -241291
-262144 -262144 4410 1;
#X obj 230 134 *~;
#X obj 281 133 *~;
#X msg 161 -45 0.7;
#X obj 161 -66 loadbang;
#X obj 230 21 inlet~;
#X obj 230 88 freeverb~;
#X obj 230 53 *~ 0.3;
#X msg 323 71 dry 1 \, wet 0.8;
#X connect 3 0 4 1;
#X connect 3 0 5 1;
#X connect 4 0 1 0;
#X connect 5 0 2 0;
#X connect 6 0 3 0;
#X connect 7 0 6 0;
#X connect 7 0 11 0;
#X connect 8 0 10 0;
#X connect 9 0 4 0;
#X connect 9 1 5 0;
#X connect 10 0 9 0;
#X connect 10 0 9 1;
#X connect 11 0 9 0;
#X coords 0 0 1 1 200 100 1 0 0;
#X restore 12 251 pd effects;
#N canvas 0 22 569 668 kick 0;
#X obj 0 0 cnv 15 200 100 empty empty kick 20 12 0 14 -260818 -66577
0;
#X obj 244 463 *~;
#X obj 243 538 *~ 0.5;
#X msg 308 385 0;
#X obj 244 348 *~;
#X obj 244 254 inlet;
#X obj 243 587 outlet~;
#X obj 321 607 switch~;
#X obj 320 555 env~;
#X obj 321 580 > 1;
#X msg 352 581 1;
#X obj 244 279 t b f;
#X obj 242 431 osc~;
#X obj 243 375 *~ 11;
#X obj 243 400 +~ 50;
#X obj 191 335 *~;
#X obj 191 432 osc~;
#X obj 191 355 *~;
#X obj 192 376 *~ 22;
#X obj 192 401 +~ 105;
#X obj 322 350 spigot;
#X obj 336 297 > 0.5;
#X obj 391 296 * 200;
#X obj 113 21 vsl 15 64 0 1 0 0 empty empty tone 0 -8 0 8 -260835 -1
-1 3194 1;
#X obj 146 21 vsl 15 64 0 1 0 0 empty empty decay 0 -8 0 8 -261220
-1 -1 2098 1;
#X obj 134 189 * 1000;
#X obj 56 222 * 50;
#X obj 13 222 * 105;
#X obj 54 174 + 0.1;
#X obj 54 193 * 2;
#X obj 134 162 + 0.01;
#X obj 75 20 vsl 15 64 0 1 0 0 empty empty range 0 -8 0 8 -259748 -1
-1 6300 1;
#X obj 300 432 osc~ 30;
#X obj 136 221 * 15;
#X obj 394 318 + 200;
#X obj 23 38 vradio 15 1 0 3 empty empty clip 0 -6 0 8 -240942 -1 -1
2;
#X obj 243 514 *~;
#X msg 195 121 -0.9 0.9 1;
#X obj 293 213 unpack 1 2 3;
#X obj 93 222 * 100;
#X obj 252 80 sel 0 1 2;
#X msg 277 120 -0.5 0.7 1.5;
#X obj 244 490 clip~ -0.8 0.9;
#X msg 378 120 -0.5 0.3 1.7;
#X obj 50 65 tgl 15 0 empty empty mute 0 -6 0 8 -241291 -1 -1 1 1;
#X obj 243 562 *~ 1;
#X msg 240 35 1;
#X msg 271 34 0.507;
#X obj 260 9 loadbang;
#X msg 371 35 2;
#X msg 408 37 1;
#X obj 392 349 vead~ 5 700;
#X obj 244 307 vead~ 7 500;
#X msg 319 36 0.333;
#X connect 1 0 42 0;
#X connect 2 0 8 0;
#X connect 2 0 45 0;
#X connect 3 0 12 1;
#X connect 3 0 16 1;
#X connect 3 0 32 1;
#X connect 4 0 13 0;
#X connect 5 0 11 0;
#X connect 8 0 9 0;
#X connect 9 0 7 0;
#X connect 10 0 7 0;
#X connect 11 0 10 0;
#X connect 11 0 20 0;
#X connect 11 0 51 0;
#X connect 11 0 52 0;
#X connect 11 1 2 1;
#X connect 11 1 21 0;
#X connect 11 1 22 0;
#X connect 12 0 1 0;
#X connect 13 0 14 0;
#X connect 14 0 12 0;
#X connect 15 0 17 0;
#X connect 15 0 17 1;
#X connect 16 0 1 0;
#X connect 17 0 18 0;
#X connect 18 0 19 0;
#X connect 19 0 16 0;
#X connect 20 0 3 0;
#X connect 21 0 20 1;
#X connect 22 0 34 0;
#X connect 23 0 28 0;
#X connect 24 0 30 0;
#X connect 25 0 22 1;
#X connect 26 0 14 1;
#X connect 27 0 19 1;
#X connect 28 0 29 0;
#X connect 29 0 27 0;
#X connect 29 0 26 0;
#X connect 30 0 25 0;
#X connect 31 0 33 0;
#X connect 31 0 39 0;
#X connect 32 0 1 0;
#X connect 33 0 13 1;
#X connect 34 0 51 2;
#X connect 35 0 40 0;
#X connect 36 0 2 0;
#X connect 37 0 38 0;
#X connect 38 0 42 1;
#X connect 38 1 42 2;
#X connect 38 2 36 1;
#X connect 39 0 18 1;
#X connect 40 0 37 0;
#X connect 40 1 41 0;
#X connect 40 2 43 0;
#X connect 41 0 38 0;
#X connect 42 0 36 0;
#X connect 43 0 38 0;
#X connect 44 0 45 1;
#X connect 45 0 6 0;
#X connect 46 0 31 0;
#X connect 47 0 23 0;
#X connect 48 0 46 0;
#X connect 48 0 47 0;
#X connect 48 0 53 0;
#X connect 48 0 49 0;
#X connect 48 0 50 0;
#X connect 49 0 35 0;
#X connect 50 0 44 0;
#X connect 51 0 1 1;
#X connect 52 0 4 0;
#X connect 52 0 4 1;
#X connect 52 0 15 0;
#X connect 52 0 15 1;
#X connect 53 0 24 0;
#X coords 0 0 1 1 200 100 1 0 0;
#X restore 218 84 pd kick;
#N canvas 0 22 749 649 snr 0;
#X obj 368 730 outlet~;
#X obj 293 234 inlet;
#X obj 444 249 noise~;
#X obj 288 384 osc~;
#X obj 354 506 *~;
#X obj 382 373 *~;
#X obj 367 530 *~;
#X obj 424 498 *~;
#X obj 268 306 *~;
#X obj 322 528 *~;
#X obj 268 331 *~ 12;
#X obj 288 407 clip~ -0.8 0.8;
#X obj 420 522 *~ 0.1;
#X obj 308 565 *~ 0.9;
#X obj 294 276 vead~ 1 300;
#X obj 327 469 clip~ -0.9 0.9;
#X obj 325 447 *~ 10000;
#X obj 367 605 *~ 0.35;
#X obj 447 707 switch~;
#X obj 446 655 env~;
#X obj 447 680 > 1;
#X msg 478 681 1;
#X obj 292 255 t b f;
#X obj 269 360 +~ 150;
#X obj 349 321 + 12;
#X obj 349 300 * 20;
#X obj 387 325 *~;
#X obj 399 302 + 0.5;
#X obj 444 323 bp~ 3300 0.4;
#X obj 444 347 lop~ 8000;
#X obj 361 560 clip~ -0.2 1;
#X obj 368 658 bp~ 7000 1;
#X obj 0 0 cnv 15 200 100 empty empty snare 20 12 0 14 -238995 -66577
0;
#X obj 113 20 vsl 15 64 0 1 0 0 empty empty tone 0 -8 0 8 -208528 -1
-1 2797 1;
#X obj 169 20 vsl 15 64 0 1000 0 0 empty empty decay 0 -8 0 8 -236947
-1 -1 2205 1;
#X obj 79 20 vsl 15 64 0 1 0 0 empty empty noise 0 -8 0 8 -244615 -1
-1 5355 1;
#X obj 23 38 vradio 15 1 0 3 empty empty clip 0 -6 0 8 -240942 -1 -1
2;
#X obj 445 277 *~;
#X obj 278 71 * 3000;
#X obj 278 94 + 1000;
#X obj 142 20 vsl 15 64 0 1 0 0 empty empty skin 0 -8 0 8 -216147 -1
-1 3497 1;
#X obj 343 69 * 140;
#X obj 391 91 + 100;
#X obj 391 68 * 100;
#X obj 547 186 unpack 1 2 3;
#X obj 506 53 sel 0 1 2;
#X obj 367 630 *~;
#X msg 449 94 -0.2 1 1;
#X msg 531 93 -0.5 0.7 1.3;
#X msg 628 94 -0.7 0 1.6;
#X obj 50 65 tgl 15 0 empty empty mute 0 -6 0 8 -241291 -1 -1 1 1;
#X obj 368 692 *~ 1;
#X msg 268 41 0.444;
#X msg 312 40 0.555;
#X obj 299 13 loadbang;
#X msg 406 39 2;
#X msg 434 38 1;
#X obj 362 581 *~ 0.1;
#X msg 358 39 350;
#X msg 225 41 0.85;
#X obj 221 599 / 2;
#X connect 1 0 22 0;
#X connect 2 0 37 0;
#X connect 3 0 11 0;
#X connect 4 0 6 0;
#X connect 5 0 6 1;
#X connect 6 0 30 0;
#X connect 7 0 12 0;
#X connect 8 0 9 1;
#X connect 8 0 10 0;
#X connect 9 0 13 0;
#X connect 10 0 23 0;
#X connect 11 0 9 0;
#X connect 11 0 16 0;
#X connect 12 0 17 0;
#X connect 13 0 17 0;
#X connect 14 0 4 1;
#X connect 14 0 8 0;
#X connect 14 0 8 1;
#X connect 14 0 7 1;
#X connect 14 0 26 0;
#X connect 15 0 4 0;
#X connect 16 0 15 0;
#X connect 17 0 46 0;
#X connect 19 0 20 0;
#X connect 20 0 18 0;
#X connect 21 0 18 0;
#X connect 22 0 14 0;
#X connect 22 0 21 0;
#X connect 22 1 17 1;
#X connect 22 1 25 0;
#X connect 22 1 27 0;
#X connect 23 0 3 0;
#X connect 24 0 10 1;
#X connect 25 0 24 0;
#X connect 26 0 5 0;
#X connect 27 0 26 1;
#X connect 28 0 7 0;
#X connect 28 0 29 0;
#X connect 29 0 5 1;
#X connect 30 0 57 0;
#X connect 31 0 19 0;
#X connect 31 0 51 0;
#X connect 33 0 38 0;
#X connect 33 0 43 0;
#X connect 34 0 14 2;
#X connect 35 0 37 1;
#X connect 36 0 45 0;
#X connect 37 0 28 0;
#X connect 38 0 39 0;
#X connect 39 0 28 1;
#X connect 40 0 41 0;
#X connect 41 0 25 1;
#X connect 42 0 23 1;
#X connect 43 0 42 0;
#X connect 44 0 30 1;
#X connect 44 1 30 2;
#X connect 44 2 46 1;
#X connect 45 0 47 0;
#X connect 45 1 48 0;
#X connect 45 2 49 0;
#X connect 46 0 31 0;
#X connect 47 0 44 0;
#X connect 48 0 44 0;
#X connect 49 0 44 0;
#X connect 50 0 60 0;
#X connect 51 0 0 0;
#X connect 52 0 33 0;
#X connect 53 0 40 0;
#X connect 54 0 59 0;
#X connect 54 0 52 0;
#X connect 54 0 53 0;
#X connect 54 0 58 0;
#X connect 54 0 55 0;
#X connect 54 0 56 0;
#X connect 55 0 36 0;
#X connect 56 0 50 0;
#X connect 57 0 17 0;
#X connect 58 0 34 0;
#X connect 59 0 35 0;
#X connect 60 0 51 1;
#X coords 0 0 1 1 200 100 1 0 0;
#X restore 12 84 pd snr;
#N canvas 0 22 791 465 hat 0;
#X obj 364 108 inlet;
#X obj 446 591 outlet~;
#X obj 321 305 *~;
#X obj 468 307 *~;
#X obj 388 337 *~;
#X obj 377 389 +~;
#X obj 385 424 osc~ 5435;
#X obj 388 360 *~ 12000;
#X obj 486 266 osc~ 2441;
#X obj 531 309 noise~;
#X obj 418 452 +~;
#X obj 468 423 clip~ -0.7 0.7;
#X obj 418 478 *~;
#X obj 473 476 *~;
#X obj 483 497 *~ 0.06;
#X obj 415 498 *~ 0.06;
#X obj 316 362 sig~ 7435;
#X obj 466 380 bp~ 12000 12;
#X obj 410 267 osc~ 3283;
#X obj 336 268 osc~ 4109;
#X obj 334 609 switch~;
#X obj 333 557 env~;
#X obj 334 582 > 1;
#X msg 365 583 1;
#X obj 364 133 t b f;
#X obj 444 535 *~ 0.4;
#X obj 417 162 * 1000;
#X obj 261 268 osc~ 4221;
#X obj 0 0 cnv 15 200 100 empty empty hat 20 12 0 14 -237201 -66577
0;
#X obj 113 20 vsl 15 64 0.2 1.1 0 0 empty empty tone 0 -8 0 8 -208528
-1 -1 2800 1;
#X obj 169 20 vsl 15 64 0 1 0 0 empty empty decay 0 -8 0 8 -236947
-1 -1 5670 1;
#X obj 79 20 vsl 15 64 0 2 0 0 empty empty noise 0 -8 0 8 -244615 -1
-1 4797 1;
#X obj 23 38 vradio 15 1 0 3 empty empty edge 0 -6 0 8 -240942 -1 -1
2;
#X obj 142 20 vsl 15 64 0 1 0 0 empty empty bite 0 -8 0 8 -216147 -1
-1 6300 1;
#X obj 502 344 *~;
#X obj 218 135 * 1200;
#X obj 78 130 * 12000;
#X obj 27 200 * 4221;
#X obj 75 199 * 4109;
#X obj 27 223 * 3283;
#X obj 77 222 * 2441;
#X obj 483 517 *~;
#X msg 84 320 5435;
#X msg 134 317 7436;
#X msg 179 317 8000;
#X obj 102 290 sel 0 1 2;
#X obj 53 69 tgl 15 0 empty empty mute 0 -6 0 8 -261681 -1 -1 1 1;
#X obj 445 559 *~ 1;
#X obj 261 1 loadbang;
#X msg 236 31 1.523;
#X msg 291 30 0.6;
#X msg 331 29 1;
#X msg 376 24 0.9;
#X msg 410 23 2;
#X obj 395 231 vead~ 2 100;
#X obj 379 205 vead~ 2 200;
#X connect 0 0 24 0;
#X connect 2 0 4 0;
#X connect 3 0 4 1;
#X connect 4 0 7 0;
#X connect 5 0 6 0;
#X connect 6 0 10 0;
#X connect 7 0 5 1;
#X connect 8 0 3 1;
#X connect 9 0 34 0;
#X connect 10 0 12 0;
#X connect 10 0 13 0;
#X connect 11 0 10 1;
#X connect 12 0 15 0;
#X connect 13 0 14 0;
#X connect 14 0 41 0;
#X connect 15 0 25 0;
#X connect 16 0 5 0;
#X connect 17 0 11 0;
#X connect 18 0 3 0;
#X connect 19 0 2 1;
#X connect 21 0 22 0;
#X connect 22 0 20 0;
#X connect 23 0 20 0;
#X connect 24 0 23 0;
#X connect 24 0 54 0;
#X connect 24 0 55 0;
#X connect 24 1 15 1;
#X connect 24 1 14 1;
#X connect 24 1 26 0;
#X connect 25 0 21 0;
#X connect 25 0 47 0;
#X connect 26 0 55 2;
#X connect 27 0 2 0;
#X connect 29 0 37 0;
#X connect 29 0 38 0;
#X connect 29 0 39 0;
#X connect 29 0 40 0;
#X connect 30 0 35 0;
#X connect 31 0 34 1;
#X connect 31 0 36 0;
#X connect 32 0 45 0;
#X connect 33 0 41 1;
#X connect 34 0 17 0;
#X connect 35 0 26 1;
#X connect 36 0 17 1;
#X connect 37 0 27 0;
#X connect 38 0 19 0;
#X connect 39 0 18 0;
#X connect 40 0 8 0;
#X connect 41 0 25 0;
#X connect 42 0 16 0;
#X connect 43 0 16 0;
#X connect 44 0 16 0;
#X connect 45 0 42 0;
#X connect 45 1 43 0;
#X connect 45 2 44 0;
#X connect 46 0 47 1;
#X connect 47 0 1 0;
#X connect 48 0 49 0;
#X connect 48 0 50 0;
#X connect 48 0 51 0;
#X connect 48 0 52 0;
#X connect 48 0 53 0;
#X connect 49 0 31 0;
#X connect 50 0 29 0;
#X connect 51 0 33 0;
#X connect 51 0 46 0;
#X connect 52 0 30 0;
#X connect 53 0 32 0;
#X connect 54 0 13 1;
#X connect 55 0 12 1;
#X coords 0 0 1 1 200 100 1 0 0;
#X restore 424 84 pd hat;
#X obj 12 -163 inlet;
#X obj 424 43 expr ($f1+50)/100;
#X obj 218 -163 inlet;
#X obj 218 16 expr ($f1+80)/100;
#X obj 218 -87 random 20;
#N canvas 0 26 782 528 hat 0;
#X obj 364 108 inlet;
#X obj 489 607 outlet~;
#X obj 334 609 switch~;
#X obj 333 557 env~;
#X obj 334 582 > 1;
#X msg 365 583 1;
#X obj 364 133 t b f;
#X obj 449 161 * 1000;
#X obj 0 0 cnv 15 200 100 empty empty hat 20 12 0 14 -257985 -66577
0;
#X obj 169 20 vsl 15 64 0 1 0 0 empty empty decay 0 -8 0 8 -236947
-1 -1 3150 1;
#X obj 79 20 vsl 15 64 0 2 0 0 empty empty noise 0 -8 0 8 -244615 -1
-1 315 1;
#X obj 218 135 * 1200;
#X obj 75 143 * 12000;
#X obj 53 69 tgl 15 0 empty empty mute 0 -6 0 8 -261681 -1 -1 0 1;
#X obj 270 33 loadbang;
#X obj 391 211 vead~ 2 200;
#X obj 284 327 bp~ 3000 14;
#X obj 396 326 bp~ 2591 20.2;
#X obj 376 259 noise~;
#X obj 462 474 +~;
#X obj 462 500 *~;
#X obj 526 485 *~;
#X obj 527 512 *~ 0.06;
#X obj 459 520 *~ 0.06;
#X obj 510 402 bp~ 12000 12;
#X obj 546 366 *~;
#X obj 496 327 bp~ 1742 22.1;
#X obj 396 359 *~ 7;
#X obj 284 359 *~ 4;
#X obj 496 360 *~ 5;
#X obj 496 193 vead~ 2 100;
#X obj 512 445 clip~ -0.2 0.2;
#X msg 240 55 0.1;
#X msg 303 62 1;
#X msg 385 56 0.5;
#X obj 527 538 *~ 1;
#X obj 485 559 *~ 0.6;
#X connect 0 0 6 0;
#X connect 3 0 4 0;
#X connect 4 0 2 0;
#X connect 5 0 2 0;
#X connect 6 0 5 0;
#X connect 6 0 15 0;
#X connect 6 0 30 0;
#X connect 6 1 7 0;
#X connect 6 1 23 1;
#X connect 6 1 22 1;
#X connect 7 0 15 2;
#X connect 9 0 11 0;
#X connect 10 0 12 0;
#X connect 10 0 25 1;
#X connect 11 0 7 1;
#X connect 12 0 24 1;
#X connect 14 0 32 0;
#X connect 14 0 34 0;
#X connect 14 0 33 0;
#X connect 15 0 20 1;
#X connect 16 0 28 0;
#X connect 17 0 27 0;
#X connect 18 0 16 0;
#X connect 18 0 17 0;
#X connect 18 0 25 0;
#X connect 18 0 26 0;
#X connect 19 0 20 0;
#X connect 19 0 21 0;
#X connect 20 0 23 0;
#X connect 21 0 22 0;
#X connect 22 0 35 0;
#X connect 23 0 36 0;
#X connect 24 0 31 0;
#X connect 25 0 24 0;
#X connect 26 0 29 0;
#X connect 27 0 19 0;
#X connect 28 0 19 0;
#X connect 29 0 19 0;
#X connect 30 0 21 1;
#X connect 31 0 19 1;
#X connect 32 0 10 0;
#X connect 34 0 9 0;
#X connect 35 0 36 0;
#X connect 36 0 3 0;
#X connect 36 0 1 0;
#X coords 0 0 1 1 200 100 1 0 0;
#X restore 630 84 pd hat;
#X obj 630 43 expr ($f1+50)/100;
#X obj 424 16 random 20;
#X obj 630 16 random 20;
#N canvas 13 218 782 528 hat 0;
#X obj 364 108 inlet;
#X obj 489 607 outlet~;
#X obj 334 609 switch~;
#X obj 333 557 env~;
#X obj 334 582 > 1;
#X msg 365 583 1;
#X obj 364 133 t b f;
#X obj 0 0 cnv 15 200 100 empty empty hat 20 12 0 14 -257985 -66577
0;
#X obj 102 19 vsl 15 64 0 1 0 0 empty empty decay 0 -8 0 8 -236947
-1 -1 4410 1;
#X obj 218 135 * 1200;
#X obj 53 69 tgl 15 0 empty empty mute 0 -6 0 8 -261681 -1 -1 0 1;
#X obj 270 33 loadbang;
#X obj 397 245 noise~;
#X obj 434 549 *~ 0.06;
#X floatatom 263 576 5 0 0 0 - - -;
#X obj 284 327 bp~ 862 32;
#X obj 396 326 bp~ 446 32;
#X obj 396 359 *~ 0.79;
#X obj 522 328 bp~ 587 20.2;
#X obj 540 143 * 1000;
#X obj 410 476 *~;
#X obj 587 229 vead~ 2 100;
#X obj 493 201 vead~ 2 200;
#X obj 522 361 *~ 0.7;
#X msg 385 56 0.7;
#X obj 284 359 *~ 0.65;
#X obj 432 529 *~ 15;
#X obj 650 412 *~;
#X obj 651 439 *~ 0.06;
#X obj 636 372 clip~ -0.2 0.2;
#X obj 651 465 *~ 1;
#X obj 609 486 *~ 0.6;
#X obj 418 503 +~;
#X obj 634 329 bp~ 12000 12;
#X obj 633 307 *~;
#X obj 147 21 vsl 15 64 0 2 0 0 empty empty noise 0 -8 0 8 -244615
-1 -1 0 1;
#X obj 143 144 * 12000;
#X connect 0 0 6 0;
#X connect 3 0 4 0;
#X connect 3 0 14 0;
#X connect 4 0 2 0;
#X connect 5 0 2 0;
#X connect 6 0 5 0;
#X connect 6 0 22 0;
#X connect 6 1 13 1;
#X connect 6 1 19 0;
#X connect 6 1 21 0;
#X connect 8 0 9 0;
#X connect 9 0 19 1;
#X connect 11 0 24 0;
#X connect 12 0 15 0;
#X connect 12 0 16 0;
#X connect 12 0 18 0;
#X connect 12 0 34 0;
#X connect 13 0 1 0;
#X connect 13 0 3 0;
#X connect 15 0 25 0;
#X connect 16 0 17 0;
#X connect 17 0 20 0;
#X connect 18 0 23 0;
#X connect 19 0 22 2;
#X connect 20 0 32 0;
#X connect 21 0 27 1;
#X connect 22 0 20 1;
#X connect 23 0 20 0;
#X connect 24 0 8 0;
#X connect 25 0 20 0;
#X connect 26 0 13 0;
#X connect 27 0 28 0;
#X connect 28 0 30 0;
#X connect 29 0 27 0;
#X connect 30 0 31 0;
#X connect 31 0 32 1;
#X connect 32 0 26 0;
#X connect 33 0 29 0;
#X connect 34 0 33 0;
#X connect 35 0 36 0;
#X connect 35 0 34 1;
#X connect 36 0 33 1;
#X coords 0 0 1 1 200 100 1 0 0;
#X restore 836 84 pd hat;
#X obj 836 43 expr ($f1+50)/100;
#X obj 836 16 random 20;
#X obj 12 53 expr ($f1+20)/100;
#X obj 12 373 dac~;
#X obj 12 -141 t b f;
#X obj 104 -163 inlet;
#X obj 104 -119 expr 100/$f1;
#X obj 89 -95 *;
#X obj 50 -78 <;
#X obj 69 -55 sel 1;
#X obj 69 -28 random 3;
#X obj 69 -1 sel 0 1 2;
#X obj 127 -58 moses 70;
#X obj 352 -124 > 40;
#X obj 352 -102 sel 1;
#X obj 352 -79 drunk 50 5;
#N canvas 431 22 465 501 bass 0;
#X floatatom 15 153 5 0 0 0 - - -;
#X obj 90 12 vsl 15 128 0.5 0.977 0 0 empty leadmuting empty 0 -8 0
10 -262144 -1 -1 12514 1;
#X floatatom 90 149 5 0 0 0 - - -;
#X text 78 160 mute strings;
#N canvas 0 25 491 311 stringunit 0;
#N canvas 0 25 995 656 delay-writer 0;
#X obj 86 220 inlet~;
#X obj 252 739 outlet~;
#X obj 277 455 +~;
#X obj 134 220 inlet;
#X obj 398 319 hip~ 5;
#X obj 400 406 *~ 3;
#X obj 398 299 lop~ 1000;
#X obj 398 280 *~ 0.015;
#X obj 135 376 hip~ 5;
#X obj 136 412 clip~ -1 1;
#X obj 135 343 lop~ 6000;
#X obj 135 313 *~ 0.973;
#X obj 400 431 clip~ -1 1;
#X obj 137 630 *~ 0.11;
#X obj 401 630 *~ 400;
#X obj 256 220 inlet muting;
#X obj 241 359 bp~ 311 50;
#X obj 319 359 bp~ 504 50;
#X obj 399 357 bp~ 767 50;
#X obj 477 357 bp~ 1119 50;
#X obj 562 358 bp~ 1246 50;
#X obj 392 197 block~ 1;
#X obj 253 698 *~ 1;
#X text 44 358 string;
#X text 454 487 it recirculates;
#X text 484 630 output mostly comes from the body;
#X text 488 277 much more energy passed to string than to body;
#X text 649 356 body formant;
#X obj 134 252 delread~ \$0-stringdel1;
#X obj 276 487 delwrite~ \$0-stringdel1 1000;
#X connect 0 0 11 0;
#X connect 2 0 29 0;
#X connect 3 0 28 0;
#X connect 4 0 16 0;
#X connect 4 0 17 0;
#X connect 4 0 18 0;
#X connect 4 0 19 0;
#X connect 4 0 20 0;
#X connect 5 0 12 0;
#X connect 6 0 4 0;
#X connect 7 0 6 0;
#X connect 8 0 9 0;
#X connect 9 0 13 0;
#X connect 9 0 2 0;
#X connect 10 0 8 0;
#X connect 11 0 10 0;
#X connect 12 0 2 1;
#X connect 12 0 14 0;
#X connect 13 0 22 0;
#X connect 14 0 22 0;
#X connect 15 0 11 1;
#X connect 16 0 5 0;
#X connect 17 0 5 0;
#X connect 18 0 5 0;
#X connect 19 0 5 0;
#X connect 20 0 5 0;
#X connect 22 0 1 0;
#X connect 28 0 7 0;
#X connect 28 0 11 0;
#X restore 149 246 pd delay-writer;
#X obj 192 219 expr 1000/$f1;
#X obj 192 200 mtof;
#N canvas 0 25 371 300 gopluckyourself 0;
#X obj -30 199 *~;
#X obj -107 105 hip~ 5;
#X obj -11 97 vline~;
#X obj -16 122 *~;
#X msg -11 76 1 1 0 \, 0 9 1;
#X obj 40 -33 inlet bang;
#X obj -29 222 outlet~;
#X obj 94 205 switch~;
#X obj 94 186 tgl 15 0 empty empty empty 0 -6 0 10 -262144 -1 -1 0
1;
#X msg 79 152 1;
#X msg 110 152 0;
#X floatatom 110 114 5 0 0 0 - - -;
#X obj 110 132 sel 0;
#X obj 40 -11 t b b b;
#X obj -107 85 lop~ 12000;
#X obj -107 65 clip~ -0.3 0.3;
#X obj -137 -9 noise~;
#X obj -138 17 expr~ if ($v1 == 0 \, 0 \, (if ($v1 < 0 \, -1 \, 1)))
;
#X text -91 0 TOTAL DISTORTION;
#X msg 110 76 1 0 \, 0 15;
#X obj 110 95 line 1 15;
#X connect 0 0 6 0;
#X connect 1 0 0 0;
#X connect 2 0 3 0;
#X connect 2 0 3 1;
#X connect 3 0 0 1;
#X connect 4 0 2 0;
#X connect 5 0 13 0;
#X connect 8 0 7 0;
#X connect 9 0 8 0;
#X connect 10 0 8 0;
#X connect 11 0 12 0;
#X connect 12 0 10 0;
#X connect 13 0 19 0;
#X connect 13 1 4 0;
#X connect 13 2 9 0;
#X connect 14 0 1 0;
#X connect 15 0 14 0;
#X connect 16 0 17 0;
#X connect 17 0 15 0;
#X connect 19 0 20 0;
#X connect 20 0 11 0;
#X restore 195 154 pd gopluckyourself;
#X obj 93 5 inlet note;
#X obj 150 282 outlet~;
#X obj 236 5 inlet muting;
#X obj 19 231 tgl 15 0 empty empty empty 0 -6 0 10 -262144 -1 -1 0
1;
#X msg 4 197 1;
#X msg 35 197 0;
#X floatatom 36 162 5 0 0 0 - - -;
#X obj 35 178 sel 0;
#X obj 19 251 switch~ 16;
#X msg 36 124 1 0 \, 0 15000;
#X obj 36 143 line 1 15000;
#X floatatom 93 29 5 0 0 0 - - -;
#N canvas 0 25 1016 656 pick-position 0;
#X obj 81 21 inlet~;
#X obj 80 267 outlet~;
#X obj 171 20 inlet position;
#X obj 81 216 -~;
#X obj 15 21 inlet bang;
#X obj -4 226 tgl 15 0 empty empty empty 0 -6 0 10 -262144 -1 -1 0
1;
#X msg -9 181 1;
#X msg 22 181 0;
#X floatatom 31 135 5 0 0 0 - - -;
#X obj 31 153 sel 0;
#X obj 1 64 t b b;
#X msg 31 97 1 0 \, 0 40;
#X obj 31 116 line 1 40;
#X obj -4 247 switch~ 16;
#X obj 143 87 delwrite~ \$0-pick-position 100;
#X obj 141 116 delread~ \$0-pick-position 3;
#X connect 0 0 3 0;
#X connect 0 0 14 0;
#X connect 2 0 15 0;
#X connect 3 0 1 0;
#X connect 4 0 10 0;
#X connect 5 0 13 0;
#X connect 6 0 5 0;
#X connect 7 0 5 0;
#X connect 8 0 9 0;
#X connect 9 0 7 0;
#X connect 10 0 11 0;
#X connect 10 1 6 0;
#X connect 11 0 12 0;
#X connect 12 0 8 0;
#X connect 15 0 3 1;
#X restore 150 180 pd pick-position;
#X floatatom 243 100 5 0 0 0 - - -;
#N canvas 0 25 251 182 pick-position-delay-calculator 0;
#N canvas 0 22 450 300 midi-to-delay-length 0;
#X obj 33 51 mtof;
#X obj 33 71 expr 1000/$f1;
#X obj 33 31 inlet;
#X obj 33 92 outlet;
#X connect 0 0 1 0;
#X connect 1 0 3 0;
#X connect 2 0 0 0;
#X restore 56 6 pd midi-to-delay-length;
#X obj 56 -34 loadbang;
#X msg 56 -14 40;
#X obj 32 47 / 4;
#X floatatom 5 -59 5 0 0 0 - - -;
#X obj 5 -42 t b f;
#X obj 5 -80 r \$0-pick-location;
#X obj 32 67 outlet pickpositiondelay;
#X connect 0 0 3 0;
#X connect 1 0 2 0;
#X connect 2 0 0 0;
#X connect 3 0 7 0;
#X connect 4 0 5 0;
#X connect 5 0 3 0;
#X connect 5 1 3 1;
#X connect 6 0 4 0;
#X restore 243 54 pd pick-position-delay-calculator;
#X obj 93 50 t b b b f b;
#X text 274 98 pick position delay in ms;
#X connect 0 0 5 0;
#X connect 1 0 0 1;
#X connect 2 0 1 0;
#X connect 3 0 16 1;
#X connect 4 0 15 0;
#X connect 6 0 0 2;
#X connect 7 0 12 0;
#X connect 8 0 7 0;
#X connect 9 0 7 0;
#X connect 10 0 11 0;
#X connect 11 0 9 0;
#X connect 13 0 14 0;
#X connect 14 0 10 0;
#X connect 15 0 19 0;
#X connect 16 0 0 0;
#X connect 17 0 16 2;
#X connect 18 0 17 0;
#X connect 19 0 13 0;
#X connect 19 1 3 0;
#X connect 19 2 16 0;
#X connect 19 3 2 0;
#X connect 19 4 8 0;
#X restore 15 183 pd stringunit;
#X obj 182 123 hsl 128 15 2 50 0 0 \$0-pick-location empty empty -2
-6 0 10 -262144 -1 -1 794 1;
#X text 207 89 pick location;
#X obj 180 61 loadbang;
#X floatatom 179 147 5 0 0 0 - - -;
#X text 163 147 1/;
#X text 212 147 up string from bridge;
#X msg 179 81 5;
#X text 12 136 note;
#X text 330 419 sg 2008;
#X text 115 -64 KARPLUS-STRONG SYNTHESIS WITH BODY FORMANTS;
#X obj 90 -34 loadbang;
#X obj 15 217 outlet~;
#X obj 15 34 inlet;
#X msg 90 -14 0.97;
#X connect 0 0 4 0;
#X connect 1 0 2 0;
#X connect 1 0 4 1;
#X connect 4 0 16 0;
#X connect 5 0 8 0;
#X connect 7 0 11 0;
#X connect 11 0 5 0;
#X connect 15 0 18 0;
#X connect 17 0 0 0;
#X connect 18 0 1 0;
#X restore 352 -33 pd bass;
#X obj 12 -119 random 150;
#X obj 352 -56 + 24;
#X connect 0 0 17 0;
#X connect 0 1 17 1;
#X connect 1 0 0 0;
#X connect 2 0 0 0;
#X connect 3 0 0 0;
#X connect 4 0 18 0;
#X connect 5 0 3 0;
#X connect 6 0 8 0;
#X connect 7 0 1 0;
#X connect 7 0 2 0;
#X connect 8 0 7 0;
#X connect 9 0 0 0;
#X connect 10 0 9 0;
#X connect 11 0 5 0;
#X connect 12 0 10 0;
#X connect 13 0 0 0;
#X connect 14 0 13 0;
#X connect 15 0 14 0;
#X connect 16 0 2 0;
#X connect 18 0 31 0;
#X connect 18 1 21 0;
#X connect 19 0 20 0;
#X connect 20 0 21 1;
#X connect 21 0 22 1;
#X connect 21 0 26 0;
#X connect 21 0 27 0;
#X connect 22 0 23 0;
#X connect 23 0 24 0;
#X connect 24 0 25 0;
#X connect 25 0 11 0;
#X connect 25 1 12 0;
#X connect 25 2 15 0;
#X connect 26 1 16 0;
#X connect 27 0 28 0;
#X connect 28 0 29 0;
#X connect 29 0 32 0;
#X connect 30 0 0 0;
#X connect 31 0 22 0;
#X connect 32 0 30 0;
#X restore 33 398 pd SYNTH-----------;
#X text 181 156 6/8;
#X text 181 136 3/4;
#X msg 141 111 2 2;
#X text 197 89 4/4;
#X text 185 179 3/4;
#X text 186 200 12/8;
#X msg 143 223 5 2;
#X text 175 223 5/4;
#X text 178 114 2/4 or 4/4;
#X floatatom -41 156 5 0 0 0 - - -;
#N canvas 633 455 494 344 META 0;
#X text 12 43 LICENSE GPL v3;
#X text 15 259 RELEASE_DATE 2013;
#X text 15 238 WEBSITE https://sites.google.com/site/eargram/;
#X text 15 218 AUTHOR Gilberto Bernardes;
#X text 12 25 KEYWORDS;
#X text 15 198 LIBRARY earGram_abs;
#X text 12 65 DESCRIPTION indispensability of metrical accents in order
to perceive a given meter;
#X text 12 99 INLET_0 float dump;
#X text 12 118 OUTLET_0 float (indispensability);
#X text 13 138 OUTLET_1 float (nr of accents);
#X text 14 158 OUTLET_2 float (downbeat);
#X text 14 179 OUTLET_3 list;
#X restore 573 453 pd META;
#X text -55 15 indispensability of metrical accents in order to perceive
a given meter;
#X obj 244 284 barGraph 200 100;
#X connect 0 0 11 0;
#X connect 0 1 1 0;
#X connect 0 2 7 0;
#X connect 0 3 16 0;
#X connect 1 0 17 1;
#X connect 2 0 0 0;
#X connect 3 0 12 0;
#X connect 4 0 5 0;
#X connect 4 0 0 0;
#X connect 5 0 4 1;
#X connect 6 0 0 1;
#X connect 7 0 17 2;
#X connect 8 0 0 1;
#X connect 9 0 0 1;
#X connect 10 0 0 1;
#X connect 11 0 17 0;
#X connect 12 0 4 0;
#X connect 13 0 0 1;
#X connect 16 0 30 0;
#X connect 20 0 0 1;
#X connect 24 0 0 1;
#X connect 27 0 0 0;
