#N canvas 0 22 801 474 10;
#X obj 30 -21 inlet;
#X msg 411 202 rewind;
#X obj 411 232 textfile;
#X obj 402 174 until;
#X obj 531 190 loadbang;
#X obj 411 296 list prepend;
#X obj 362 313 list;
#X obj 497 313 t l;
#N canvas 70 329 599 354 decode 0;
#X obj -51 65 inlet;
#X msg 120 238 \$8;
#X obj 120 156 t b f;
#X msg 147 179 set \, adddollar \$1;
#X obj 120 134 + 1;
#X msg 120 201 key C Db/C# D Eb/D# E F F#/Gb G Ab A Bb B/A# c c# d
d#/eb e f f# g g#/ab a bb/a# b;
#X obj 120 294 outlet;
#X obj 18 294 outlet;
#X obj -51 117 list-maximum;
#X connect 0 0 8 0;
#X connect 1 0 6 0;
#X connect 2 0 5 0;
#X connect 2 1 3 0;
#X connect 3 0 1 0;
#X connect 4 0 2 0;
#X connect 5 0 1 0;
#X connect 8 1 4 0;
#X connect 8 1 7 0;
#X restore 30 331 pd decode;
#X msg 51 186 rewind;
#X obj 51 216 textfile;
#X obj 49 155 until;
#X obj 171 174 loadbang;
#X obj 51 280 list prepend;
#X obj 30 305 list;
#X obj 137 297 t l;
#X obj 30 117 t b b b l b;
#X obj 30 92 spigot 1;
#X obj 30 11 route list algorithm;
#X obj 75 67 == 0;
#X obj 439 94 == 1;
#X obj 394 118 spigot 0;
#X msg 171 199 read data/K-K-profiles.txt;
#X msg 531 215 read data/Temperley-profiles.txt;
#X obj 394 143 t b b b l b;
#X obj 30 408 outlet;
#X obj 81 408 outlet;
#X obj 81 377 symbol;
#X obj 51 250 correlate;
#X obj 411 265 list-euclid;
#X connect 0 0 18 0;
#X connect 1 0 2 0;
#X connect 2 0 29 0;
#X connect 2 1 3 1;
#X connect 3 0 2 0;
#X connect 4 0 23 0;
#X connect 5 0 7 0;
#X connect 5 0 6 1;
#X connect 6 0 8 0;
#X connect 7 0 5 1;
#X connect 8 0 25 0;
#X connect 8 1 27 0;
#X connect 9 0 10 0;
#X connect 10 0 28 0;
#X connect 10 1 11 1;
#X connect 11 0 10 0;
#X connect 12 0 22 0;
#X connect 13 0 15 0;
#X connect 13 0 14 1;
#X connect 14 0 8 0;
#X connect 15 0 13 1;
#X connect 16 0 14 0;
#X connect 16 1 11 0;
#X connect 16 2 9 0;
#X connect 16 3 28 1;
#X connect 16 4 13 1;
#X connect 17 0 16 0;
#X connect 18 0 17 0;
#X connect 18 0 21 0;
#X connect 18 1 19 0;
#X connect 18 1 20 0;
#X connect 19 0 17 1;
#X connect 20 0 21 1;
#X connect 21 0 24 0;
#X connect 22 0 10 0;
#X connect 23 0 2 0;
#X connect 24 0 6 0;
#X connect 24 1 3 0;
#X connect 24 2 1 0;
#X connect 24 3 29 1;
#X connect 24 4 5 1;
#X connect 27 0 26 0;
#X connect 28 0 13 0;
#X connect 29 0 5 0;
