#N canvas 58 22 809 483 10;
#X floatatom 38 344 5 0 0 1 meter - -;
#X obj -11 -52 cnv 15 800 60 empty empty meterInduction 20 12 0 14
-233017 -66577 0;
#X text 636 -12 2013 Gilberto Bernardes;
#N canvas 510 304 494 344 META 1;
#X text 12 45 LICENSE GPL v3;
#X text 12 215 RELEASE_DATE 2013;
#X text 12 195 WEBSITE https://sites.google.com/site/eargram/;
#X text 12 175 AUTHOR Gilberto Bernardes;
#X text 12 25 KEYWORDS;
#X text 12 155 LIBRARY earGram_abs;
#X text 14 102 OUTLET_0 float (ms);
#X text 13 119 OUTLET_1 float (bpm);
#X text 14 136 OUTLET_2 list (histogram);
#X text 12 84 INLET_0 list reset;
#X text 84 199 comment;
#X text 12 65 DESCRIPTION meter induction;
#X restore 737 400 pd META;
#X obj 38 99 meterInduction;
#X text 9 -12 meter induction;
#X connect 4 0 0 0;
