#N canvas 591 22 781 833 10;
#X obj -226 -485 inlet;
#X obj -192 -412 until;
#X obj -192 -390 f;
#X obj -158 -344 t f f;
#X obj -165 54 list prepend 0;
#X obj -192 31 t b l;
#X obj -192 77 \$0;
#X obj -192 -188 until;
#X obj -192 -166 f;
#X obj -192 -367 t b f f b;
#X obj -175 -20 list prepend;
#X obj -87 -3 t l;
#X obj -164 -166 + 1;
#X obj -192 6 list;
#X obj -192 -122 t b b f f;
#X obj -175 -92 \$0;
#X obj -33 150 list prepend 0;
#X obj -164 -390 + 1;
#X obj -158 -256 tID/tabletool \$0-flux.meter.temp1;
#X obj -131 -322 + 11;
#X obj -127 -407 0;
#X obj 61 -105 + 11;
#X msg -175 -68 euclid \$1-flux.meter.temp1;
#X obj -175 -44 tID/tabletool \$0-flux.meter.temp2;
#X obj -209 216 tID/tabletool \$0-flux.meter;
#X obj 127 -421 \$0;
#X obj 127 -314 table \$0-flux.meter.temp1 12;
#X obj 127 -291 table \$0-flux.meter.temp2 12;
#X obj -33 174 s \$0-flux.meter;
#X obj -192 125 tID/tabletool \$0-flux.meter;
#X obj -165 78 s \$0-flux.meter.temp3;
#X msg -192 101 add \$1-flux.meter.temp3;
#X msg 127 -393 \; \$1-flux.meter const 0 \; \$1-flux.meter.temp1 const
0 \; \$1-flux.meter.temp2 const 0 \; \$1-flux.meter.temp3 const 0;
#X obj -192 -144 %;
#X obj -175 -232 + 2;
#X obj 127 -245 table \$0-flux.meter 10;
#X obj 127 -268 table \$0-flux.meter.temp3 10;
#X obj -226 272 tabletool \$0-flux.meter;
#X obj 85 -227 - 2;
#X obj -22 381 + 2;
#X obj -192 -210 f;
#X obj 33 -83 pack f f s;
#X obj 245 -487 loadbang;
#X obj 245 -459 symbol \$1;
#X obj -158 -301 pack f f s;
#X obj -22 407 outlet;
#X msg -158 -278 copy_range 0 \$3 \$1 \$2;
#X msg 33 -61 copy_range 0 \$3 \$1 \$2;
#X obj -226 -461 - 24;
#X obj -226 -438 t b b f b f;
#X obj -64 327 outlet;
#X obj -91 299 t l l;
#X obj -91 357 list-maximum;
#X msg -226 248 dump;
#X msg -209 192 invert \, normalize 0 1;
#X connect 0 0 48 0;
#X connect 1 0 2 0;
#X connect 2 0 9 0;
#X connect 2 0 17 0;
#X connect 3 0 44 0;
#X connect 3 1 19 0;
#X connect 4 0 30 0;
#X connect 5 0 6 0;
#X connect 5 1 4 0;
#X connect 6 0 31 0;
#X connect 7 0 8 0;
#X connect 8 0 12 0;
#X connect 8 0 33 0;
#X connect 9 0 40 0;
#X connect 9 1 34 0;
#X connect 9 2 3 0;
#X connect 9 3 10 1;
#X connect 10 0 11 0;
#X connect 10 0 13 1;
#X connect 11 0 10 1;
#X connect 12 0 8 1;
#X connect 13 0 5 0;
#X connect 14 0 13 0;
#X connect 14 1 15 0;
#X connect 14 2 41 0;
#X connect 14 3 21 0;
#X connect 15 0 22 0;
#X connect 16 0 28 0;
#X connect 17 0 2 1;
#X connect 19 0 44 1;
#X connect 20 0 2 1;
#X connect 21 0 41 1;
#X connect 22 0 23 0;
#X connect 23 0 10 0;
#X connect 25 0 32 0;
#X connect 29 1 16 0;
#X connect 31 0 29 0;
#X connect 33 0 14 0;
#X connect 34 0 8 1;
#X connect 37 1 51 0;
#X connect 38 0 40 1;
#X connect 39 0 45 0;
#X connect 40 0 7 0;
#X connect 41 0 47 0;
#X connect 42 0 43 0;
#X connect 43 0 44 2;
#X connect 43 0 41 2;
#X connect 44 0 46 0;
#X connect 46 0 18 0;
#X connect 47 0 23 0;
#X connect 48 0 49 0;
#X connect 49 0 53 0;
#X connect 49 1 54 0;
#X connect 49 2 1 0;
#X connect 49 3 20 0;
#X connect 49 3 25 0;
#X connect 49 4 38 0;
#X connect 49 4 33 1;
#X connect 51 0 52 0;
#X connect 51 1 50 0;
#X connect 52 1 39 0;
#X connect 53 0 37 0;
#X connect 54 0 24 0;
#X coords 0 833 1 832 210 200 0;
