#N canvas 298 22 410 320 10;
#X floatatom 18 204 15 0 0 0 - - -;
#X obj 18 178 gcd;
#X obj 4 7 cnv 15 400 60 empty empty monoPoly 20 12 0 14 -233017 -66577
0;
#X text 225 48 (c) 2012 Gilberto Bernardes;
#N canvas 747 22 410 498 peaks 0;
#X obj 49 10 inlet;
#X obj 49 41 list split 1;
#X obj 83 69 list split 2;
#X obj 49 168 sel 19;
#X obj 49 337 list;
#X obj 100 218 list prepend;
#X obj 193 235 t l;
#X obj 83 97 unpack;
#X obj 49 443 outlet;
#X obj 100 168 spigot;
#X obj 49 367 sort;
#X obj 133 409 list split 1;
#X obj 49 392 t l l;
#X obj 133 443 outlet;
#X obj 133 139 > 0.09;
#X connect 0 0 1 0;
#X connect 1 0 3 0;
#X connect 1 1 2 0;
#X connect 2 0 7 0;
#X connect 3 0 5 1;
#X connect 3 0 4 0;
#X connect 4 0 10 0;
#X connect 5 0 6 0;
#X connect 5 0 4 1;
#X connect 6 0 5 1;
#X connect 7 0 9 0;
#X connect 7 1 14 0;
#X connect 9 0 5 0;
#X connect 10 0 12 0;
#X connect 11 0 13 0;
#X connect 12 0 8 0;
#X connect 12 1 11 0;
#X connect 14 0 9 1;
#X restore 18 154 pd peaks;
#N canvas 395 22 629 337 openSf 0;
#X obj 70 126 soundfiler;
#X obj 70 34 inlet;
#X obj 285 71 table \$0-sample;
#X msg 70 103 read -resize \$1 \$2-sample;
#X obj 70 80 pack s \$0;
#X obj 70 57 openpanel;
#X obj 73 274 outlet;
#X obj 229 -26 inlet;
#X obj 229 -3 t b b;
#X obj 229 165 tabplay~ \$0-sample;
#X obj 73 229 sigmund~ -t -maxfreq 5000 -npeak 20 peaks;
#X obj 229 138 b;
#X obj 393 134 dac~;
#X obj 229 190 sigmund~ -npts 2048 -hop 1024 -maxfreq 5000 -npeak 20
peaks;
#X connect 0 0 11 0;
#X connect 1 0 5 0;
#X connect 3 0 0 0;
#X connect 4 0 3 0;
#X connect 5 0 4 0;
#X connect 7 0 8 0;
#X connect 8 0 5 0;
#X connect 9 0 12 0;
#X connect 9 0 12 1;
#X connect 9 0 13 0;
#X connect 10 0 6 0;
#X connect 11 0 9 0;
#X connect 13 0 6 0;
#X restore 18 104 pd openSf;
#X obj 18 82 bng 15 250 50 0 empty empty offline 17 7 0 10 -262144
-1 -1;
#X obj 237 215 pitchSalience;
#X obj 274 259 print;
#X obj 18 228 expr if ($f1>40 && $f1<$f2 \, 1 \, 0);
#X floatatom 18 259 5 0 0 0 - - -;
#X obj 96 80 bng 15 250 50 0 empty empty online 17 7 0 10 -262144 -1
-1;
#X floatatom 325 247 5 0 0 0 - - -;
#X obj 172 162 print;
#X connect 0 0 9 0;
#X connect 1 0 0 0;
#X connect 4 0 1 0;
#X connect 4 1 9 1;
#X connect 5 0 4 0;
#X connect 6 0 5 0;
#X connect 7 2 8 0;
#X connect 7 2 12 0;
#X connect 9 0 10 0;
#X connect 11 0 5 1;
