#N struct 1015-squareBarkViz float color float x float y;
#N canvas 563 22 1009 692 10;
#X obj 79 132 num2rgb;
#X obj 82 98 hsl 128 15 0 1 0 0 empty empty empty -2 -8 0 10 -262144
-1 -1 12700 1;
#X obj 139 323 cnv 15 100 60 empty \$0-cnvColor empty 20 12 0 14 -258049
-262144 0;
#N canvas 303 403 450 300 rgb2pd 0;
#X obj 82 77 inlet;
#X obj 159 314 +;
#X obj 159 340 +;
#X obj 82 233 * -65536;
#X obj 159 234 * -256;
#X obj 225 234 * -1;
#X obj 159 371 - 1;
#X obj 159 406 outlet;
#X obj 92 278 t f b;
#X obj 82 185 clip 0 255;
#X obj 152 185 clip 0 255;
#X obj 222 185 clip 0 255;
#X obj 82 151 unpack f f f;
#X connect 0 0 12 0;
#X connect 1 0 2 1;
#X connect 2 0 6 0;
#X connect 3 0 8 0;
#X connect 4 0 1 0;
#X connect 5 0 1 1;
#X connect 6 0 7 0;
#X connect 8 0 2 0;
#X connect 8 1 1 0;
#X connect 9 0 3 0;
#X connect 10 0 4 0;
#X connect 11 0 5 0;
#X connect 12 0 9 0;
#X connect 12 1 10 0;
#X connect 12 2 11 0;
#X restore 39 264 pd rgb2pd;
#X floatatom 38 290 5 0 0 0 - - -;
#X obj 35 352 s \$0-cnvColor;
#X msg 31 325 color \$1;
#X floatatom 146 124 5 0 0 0 - - -;
#N canvas 509 275 921 400 (subpatch) 0;
#X obj 569 252 pointer;
#X obj 569 203 \$0;
#X obj 206 269 append \$0-squareBarkViz color x y;
#N canvas 806 178 429 139 structSquareBarkViz 0;
#X obj -5 70 filledpolygon color color 0 0 0 1 0 1 1 0 1;
#X obj -5 33 struct \$0-squareBarkViz float color float x float y;
#X restore 206 292 pd structSquareBarkViz;
#X obj 205 202 t f b b;
#X obj 326 65 0;
#X obj 271 234 f;
#X obj 298 234 + 1;
#X obj 336 233 0;
#N canvas 0 22 450 300 \$0-scaleViz 0;
#X scalar 1015-squareBarkViz 0 0 0 \;;
#X scalar 1015-squareBarkViz 1 1 0 \;;
#X scalar 1015-squareBarkViz 2 2 0 \;;
#X scalar 1015-squareBarkViz 3 3 0 \;;
#X scalar 1015-squareBarkViz 4 4 0 \;;
#X scalar 1015-squareBarkViz 4 5 0 \;;
#X scalar 1015-squareBarkViz 5 6 0 \;;
#X scalar 1015-squareBarkViz 6 7 0 \;;
#X scalar 1015-squareBarkViz 7 8 0 \;;
#X scalar 1015-squareBarkViz 8 9 0 \;;
#X scalar 1015-squareBarkViz 19 10 0 \;;
#X scalar 1015-squareBarkViz 29 11 0 \;;
#X scalar 1015-squareBarkViz 39 12 0 \;;
#X scalar 1015-squareBarkViz 49 13 0 \;;
#X scalar 1015-squareBarkViz 59 14 0 \;;
#X scalar 1015-squareBarkViz 69 15 0 \;;
#X scalar 1015-squareBarkViz 79 16 0 \;;
#X scalar 1015-squareBarkViz 89 17 0 \;;
#X scalar 1015-squareBarkViz 99 18 0 \;;
#X scalar 1015-squareBarkViz 98 19 0 \;;
#X scalar 1015-squareBarkViz 97 20 0 \;;
#X scalar 1015-squareBarkViz 96 21 0 \;;
#X scalar 1015-squareBarkViz 95 22 0 \;;
#X scalar 1015-squareBarkViz 95 23 0 \;;
#X scalar 1015-squareBarkViz 94 24 0 \;;
#X scalar 1015-squareBarkViz 93 25 0 \;;
#X scalar 1015-squareBarkViz 92 26 0 \;;
#X scalar 1015-squareBarkViz 91 27 0 \;;
#X scalar 1015-squareBarkViz 90 28 0 \;;
#X scalar 1015-squareBarkViz 190 29 0 \;;
#X scalar 1015-squareBarkViz 290 30 0 \;;
#X scalar 1015-squareBarkViz 390 31 0 \;;
#X scalar 1015-squareBarkViz 490 32 0 \;;
#X scalar 1015-squareBarkViz 590 33 0 \;;
#X scalar 1015-squareBarkViz 690 34 0 \;;
#X scalar 1015-squareBarkViz 790 35 0 \;;
#X scalar 1015-squareBarkViz 890 36 0 \;;
#X scalar 1015-squareBarkViz 990 37 0 \;;
#X scalar 1015-squareBarkViz 980 38 0 \;;
#X scalar 1015-squareBarkViz 970 39 0 \;;
#X scalar 1015-squareBarkViz 960 40 0 \;;
#X scalar 1015-squareBarkViz 950 41 0 \;;
#X scalar 1015-squareBarkViz 940 42 0 \;;
#X scalar 1015-squareBarkViz 930 43 0 \;;
#X scalar 1015-squareBarkViz 920 44 0 \;;
#X scalar 1015-squareBarkViz 910 45 0 \;;
#X coords 0 1 46 0 150 30 1;
#X restore 0 0 pd \$0-scaleViz;
#X msg 569 227 traverse pd-\$1-scaleViz \, bang;
#X obj 204 -2 t b b b;
#X obj 204 43 until;
#X obj 204 82 f;
#X obj 204 21 46;
#X obj 234 82 + 0.0217391;
#X msg 655 56 clear;
#X obj 655 85 s pd-\$0-scaleViz;
#X obj 204 152 num2rgb;
#X obj 204 177 expr (rint($f1*9)*100)+(rint($f2*9)*10)+(rint($f3*9))
;
#X obj 345 -17 bng 15 250 50 0 empty empty empty 17 7 0 10 -262144
-1 -1;
#X obj 204 -37 loadbang;
#X connect 0 0 2 3;
#X connect 1 0 10 0;
#X connect 4 0 2 0;
#X connect 4 1 6 0;
#X connect 4 2 8 0;
#X connect 5 0 6 1;
#X connect 5 0 13 1;
#X connect 6 0 7 0;
#X connect 6 0 2 1;
#X connect 7 0 6 1;
#X connect 8 0 2 2;
#X connect 10 0 0 0;
#X connect 11 0 14 0;
#X connect 11 1 1 0;
#X connect 11 2 5 0;
#X connect 11 2 16 0;
#X connect 12 0 13 0;
#X connect 13 0 15 0;
#X connect 13 0 18 0;
#X connect 14 0 12 0;
#X connect 15 0 13 1;
#X connect 16 0 17 0;
#X connect 18 0 19 0;
#X connect 19 0 4 0;
#X connect 20 0 11 0;
#X connect 21 0 11 0;
#X coords 0 1 100 -1 150 30 1 0 0;
#X restore 402 38 graph;
#X obj 181 207 expr (rint($f1*9)*100)+(rint($f2*9)*10)+(rint($f3*9))
;
#X obj 191 243 print;
#X obj 80 174 list-math * 256;
#X connect 0 0 11 0;
#X connect 1 0 0 0;
#X connect 1 0 7 0;
#X connect 3 0 4 0;
#X connect 4 0 6 0;
#X connect 6 0 5 0;
#X connect 9 0 3 0;
#X connect 11 0 3 0;
