#N canvas 94 187 427 427 10;
#X obj 35 9 moses 0.2;
#X obj 86 36 moses 0.4;
#X obj 137 64 moses 0.6;
#X obj 188 91 moses 0.8;
#X obj 35 -18 inlet;
#X msg 35 129 0 0 \$1;
#X msg 86 184 0 \$1 1;
#X msg 137 236 0 1 \$1;
#X msg 188 289 \$1 1 0;
#X msg 239 335 1 \$1 0;
#X obj 35 352 outlet;
#X obj 188 266 expr ($f1-0.6)*5;
#X obj 137 213 expr 1-(($f1-0.4)*5);
#X obj 86 159 expr ($f1-0.2)*5;
#X obj 35 104 expr $f1*4.5;
#X obj 239 312 expr 1-(($f1-0.8)*5);
#X connect 0 0 14 0;
#X connect 0 1 1 0;
#X connect 1 0 13 0;
#X connect 1 1 2 0;
#X connect 2 0 12 0;
#X connect 2 1 3 0;
#X connect 3 0 11 0;
#X connect 3 1 15 0;
#X connect 4 0 0 0;
#X connect 5 0 10 0;
#X connect 6 0 10 0;
#X connect 7 0 10 0;
#X connect 8 0 10 0;
#X connect 9 0 10 0;
#X connect 11 0 8 0;
#X connect 12 0 7 0;
#X connect 13 0 6 0;
#X connect 14 0 5 0;
#X connect 15 0 9 0;
