#N canvas 482 22 476 319 10;
#X obj 54 1 inlet;
#N canvas 664 347 469 379 localMax 0;
#X obj 29 28 inlet;
#X obj 29 332 outlet;
#X obj 29 249 f;
#X obj 48 217 1;
#X obj 96 217 0;
#X obj 48 99 local_max;
#X obj 29 55 t b f f b;
#X obj 130 93 local_min;
#X obj 48 129 -;
#X obj 48 184 sel 1;
#X obj 212 25 inlet;
#X obj 48 159 > 0.1;
#X connect 0 0 6 0;
#X connect 2 0 1 0;
#X connect 3 0 2 1;
#X connect 4 0 2 1;
#X connect 5 0 8 0;
#X connect 6 0 2 0;
#X connect 6 1 5 0;
#X connect 6 2 7 0;
#X connect 6 3 4 0;
#X connect 7 0 8 1;
#X connect 8 0 11 0;
#X connect 9 0 3 0;
#X connect 10 0 11 1;
#X connect 11 0 9 0;
#X restore 54 138 pd localMax;
#X obj 54 234 outlet;
#X msg 301 53 reset;
#N canvas 516 236 580 569 medianmeanfilter 1;
#X obj 19 -47 inlet;
#X obj -12 467 outlet;
#X obj 108 347 +;
#X obj 85 -49 inlet;
#X obj 181 305 list-mean;
#X obj 19 134 t l l l;
#X obj 108 315 * 0.7;
#X obj 181 330 * 0.3;
#X obj 55 213 sort;
#X obj 154 89 / 2;
#X obj 154 117 i;
#X obj 62 268 list-nth 1;
#X obj 84 -3 t f f;
#X obj 84 45 until;
#X obj 84 69 0;
#X obj 84 21 - 1;
#X obj 19 102 list-lastx 7;
#X obj -12 367 list-nth 6;
#X obj 85 -25 f 7;
#X obj -6 421 expr $f2-$f1;
#X obj 113 457 outlet;
#X obj 112 412 / 2.5;
#X connect 0 0 16 0;
#X connect 2 0 19 1;
#X connect 2 0 21 0;
#X connect 3 0 18 0;
#X connect 4 0 7 0;
#X connect 5 0 17 0;
#X connect 5 1 8 0;
#X connect 5 2 4 0;
#X connect 6 0 2 0;
#X connect 7 0 2 1;
#X connect 8 0 11 0;
#X connect 9 0 10 0;
#X connect 10 0 11 1;
#X connect 11 0 6 0;
#X connect 12 0 15 0;
#X connect 12 1 9 0;
#X connect 12 1 16 1;
#X connect 13 0 14 0;
#X connect 14 0 16 0;
#X connect 15 0 13 0;
#X connect 15 0 17 1;
#X connect 16 0 5 0;
#X connect 17 0 19 0;
#X connect 18 0 12 0;
#X connect 19 0 1 0;
#X connect 21 0 20 0;
#X restore 54 108 pd medianmeanfilter;
#X obj 175 1 inlet;
#N canvas 218 22 450 300 block 0;
#X obj 69 88 > 0;
#X obj 79 138 &&;
#X obj 106 85 f;
#X obj 105 112 <= 0;
#X obj 129 193 sel 1 0;
#X msg 129 221 1;
#X obj 79 248 outlet;
#X obj 169 30 inlet;
#X obj 69 26 inlet;
#X obj 208 122 loadbang;
#X msg 208 143 1;
#X obj 169 58 expr 1.0/$f1;
#X obj 80 160 t f f;
#X obj 306 19 inlet;
#X obj 136 85 - 0.25;
#X connect 0 0 1 0;
#X connect 1 0 12 0;
#X connect 2 0 3 0;
#X connect 2 0 14 0;
#X connect 3 0 1 1;
#X connect 4 0 5 0;
#X connect 4 1 2 0;
#X connect 5 0 2 0;
#X connect 7 0 11 0;
#X connect 8 0 0 0;
#X connect 9 0 10 0;
#X connect 10 0 1 1;
#X connect 11 0 14 1;
#X connect 12 0 6 0;
#X connect 12 1 4 0;
#X connect 13 0 10 0;
#X connect 14 0 2 1;
#X restore 54 198 pd block;
#X text 341 0 (reset);
#X obj 54 70 iir 5;
#X obj 301 30 b;
#X obj 301 2 inlet;
#X connect 0 0 8 0;
#X connect 1 0 6 0;
#X connect 3 0 8 0;
#X connect 4 0 1 0;
#X connect 4 1 1 1;
#X connect 5 0 6 1;
#X connect 6 0 2 0;
#X connect 8 0 4 0;
#X connect 9 0 3 0;
#X connect 9 0 4 1;
#X connect 9 0 6 2;
#X connect 10 0 9 0;
