#N canvas 569 22 642 342 10;
#X obj -14 -102 inlet;
#X obj 501 -78 table t0_\$0 12000;
#X obj 501 -52 table t1_\$0 12000;
#X msg 383 -26 resize \$1;
#X obj 383 24 s t0_\$0;
#X obj 397 1 s t1_\$0;
#X obj 320 -96 inlet;
#X obj 13 -49 list prepend 0;
#X obj 13 -26 send t0_\$0;
#X obj 383 -54 list length;
#X obj 320 60 list prepend 0;
#X obj 320 83 send t1_\$0;
#X obj 320 -71 t l l;
#X obj -14 -79 t b l;
#X obj -14 138 outlet;
#X obj -14 111 tabletool t0_\$0;
#X msg -14 84 corr t1_\$1;
#X obj -14 56 \$0;
#X text 201 138 if you do not want to use timbreID's tabletool \, please
replace it by the object:;
#X obj 361 160 correlate t0_\$0;
#X text 204 193 however \, tabletool is able to compute correlation
much faster!;
#X connect 0 0 13 0;
#X connect 3 0 4 0;
#X connect 3 0 5 0;
#X connect 6 0 12 0;
#X connect 7 0 8 0;
#X connect 9 0 3 0;
#X connect 10 0 11 0;
#X connect 12 0 10 0;
#X connect 12 1 9 0;
#X connect 13 0 17 0;
#X connect 13 1 7 0;
#X connect 15 0 14 0;
#X connect 16 0 15 0;
#X connect 17 0 16 0;
