#N canvas 6 400 547 365 10;
#N canvas 524 22 687 669 audability 0;
#N canvas 467 109 658 490 partial 0;
#X text -4 361 Eq.4;
#X obj 28 64 inlet;
#X obj 233 167 inlet;
#X obj 152 289 expr $f2 - $f1;
#X obj 125 65 inlet;
#X text 103 112 KHz;
#X obj 125 89 / 1000;
#X text 7 113 KHz;
#X obj 28 88 / 1000;
#X text 214 259 dB;
#X text 38 45 Hz;
#X text 125 30 MASKER;
#X text 135 46 Hz;
#X text 238 142 amp;
#X text 227 128 MASKER;
#X text 122 235 Eq.2;
#X text 286 212 =;
#X obj 125 134 t f f;
#X text 32 112 (f);
#X text 131 111 (f');
#X text -60 329 |Hp(f')-Hp(f)|;
#X obj 29 361 expr $f2 - (12 * $f1);
#N canvas 110 81 518 256 |Hp(f')-Hp(f)| 0;
#X obj 36 122 expr (11.17 * (log(($f1+0.312)/($f1+14.675)))) + 43;
#X text 11 123 ERB;
#X obj 147 63 expr (11.17 * (log(($f1+0.312)/($f1+14.675)))) + 43;
#X text 124 64 ERB;
#X obj 147 21 inlet;
#X obj 35 20 inlet;
#X obj 36 220 outlet;
#X text 349 121 Eq.3;
#X text 461 64 Eq.3;
#X obj 36 180 expr abs($f1 - $f2);
#X text 158 155 Hp(f);
#X text 44 153 Hp(f);
#X connect 0 0 9 0;
#X connect 2 0 9 1;
#X connect 4 0 2 0;
#X connect 5 0 0 0;
#X connect 9 0 6 0;
#X restore 28 156 pd |Hp(f')-Hp(f)|;
#X text 112 330 YL(f');
#X text 125 259 Lth;
#N canvas 196 111 562 375 Lth 0;
#X obj 100 48 inlet;
#X obj 146 310 outlet;
#X obj 122 144 exp;
#X obj 43 207 expr (3.64 * pow($f1 \, -0.8));
#X obj 122 121 expr -0.6 * pow($f1 - 3.3 \, 2);
#X obj 311 120 expr (pow(10 \, -3) * pow($f1 \, 4));
#X obj 101 69 trigger float float float;
#X obj 122 166 * 6.5;
#X obj 146 259 expr $f1 - $f2 + $f3;
#X text 124 287 Lth;
#X connect 0 0 6 0;
#X connect 2 0 7 0;
#X connect 3 0 8 0;
#X connect 4 0 2 0;
#X connect 5 0 8 2;
#X connect 6 0 3 0;
#X connect 6 1 4 0;
#X connect 6 2 5 0;
#X connect 7 0 8 1;
#X connect 8 0 1 0;
#X restore 152 233 pd Lth;
#X text 74 424 dB reduction of maskee's Audible Level [AL(P)] by masker.
;
#X obj 29 425 outlet;
#X text -27 397 ml(f \, f');
#X text 28 29 MASKEE;
#X obj 301 214 expr 20 * (log($f1 / pow(10 \, -5))/log(10));
#X obj 233 213 rmstodb;
#X connect 1 0 8 0;
#X connect 2 0 31 0;
#X connect 3 0 21 1;
#X connect 4 0 6 0;
#X connect 6 0 17 0;
#X connect 8 0 22 0;
#X connect 17 0 22 1;
#X connect 17 1 25 0;
#X connect 21 0 27 0;
#X connect 22 0 21 0;
#X connect 25 0 3 0;
#X connect 31 0 3 1;
#X restore 39 121 pd partial masking level (ml);
#N canvas 635 22 680 575 slice 0;
#X obj 178 157 list split 1;
#X obj 212 187 list;
#X obj 117 204 list;
#X obj 265 170 list split 1;
#X obj 215 268 list split 1;
#X obj 249 329 drip;
#X obj 117 170 until;
#X obj 316 483 outlet;
#X obj 18 -7 inlet;
#X obj 415 203 list split 1;
#X obj 449 228 list;
#X obj 342 253 list;
#X obj 502 225 list split 1;
#X obj 363 -7 inlet;
#X obj 501 303 list split 1;
#X obj 544 350 drip;
#X obj 544 470 outlet;
#X obj 544 428 fifop;
#X obj 144 112 - 1;
#X text 351 505 Hz;
#X text 311 505 MASKER;
#X text 552 507 amp;
#X text 541 493 MASKER;
#X text 465 363 maskee amp;
#X obj 249 355 trigger bang float bang;
#X obj 117 294 trigger bang bang;
#X obj 474 325 float;
#X obj 18 18 trigger bang list;
#X obj 117 229 trigger bang list list list float bang;
#X obj 249 385 float;
#X obj 342 277 trigger bang list list list;
#X obj 117 40 t list list;
#X obj 249 484 outlet;
#X text 239 503 maskee;
#X text 279 502 Hz;
#X obj 249 419 t f f;
#X obj 144 132 s \$0-howmuchtocount;
#X obj 18 40 s \$0-finalbang;
#X obj 276 443 s \$0-f(P);
#X obj 474 348 s \$0-dB(P);
#X obj 117 66 list length;
#X obj 117 90 t f f;
#X obj 245 91 b;
#X obj 274 118 s \$0-initbang;
#X connect 0 1 1 0;
#X connect 1 0 2 1;
#X connect 2 0 28 0;
#X connect 3 0 1 1;
#X connect 4 1 5 0;
#X connect 5 0 24 0;
#X connect 6 0 2 0;
#X connect 8 0 27 0;
#X connect 9 1 10 0;
#X connect 10 0 11 1;
#X connect 11 0 30 0;
#X connect 12 0 10 1;
#X connect 13 0 11 1;
#X connect 14 0 26 1;
#X connect 14 1 15 0;
#X connect 15 0 17 0;
#X connect 17 0 16 0;
#X connect 18 0 36 0;
#X connect 24 0 29 0;
#X connect 24 1 7 0;
#X connect 24 2 17 0;
#X connect 25 1 26 0;
#X connect 26 0 39 0;
#X connect 27 0 37 0;
#X connect 27 1 31 0;
#X connect 28 0 25 0;
#X connect 28 1 0 0;
#X connect 28 2 3 0;
#X connect 28 3 4 0;
#X connect 28 4 29 1;
#X connect 28 5 11 0;
#X connect 29 0 35 0;
#X connect 30 1 9 0;
#X connect 30 2 12 0;
#X connect 30 3 14 0;
#X connect 31 0 40 0;
#X connect 31 1 2 1;
#X connect 35 0 32 0;
#X connect 35 1 38 0;
#X connect 40 0 41 0;
#X connect 41 0 6 0;
#X connect 41 1 18 0;
#X connect 41 1 42 0;
#X connect 42 0 43 0;
#X restore 39 70 pd slice;
#X obj 39 42 inlet;
#X obj 84 43 inlet;
#X text 225 120 Eq.4;
#X text 228 180 Eq.5;
#N canvas 42 70 265 339 Audibility 0;
#X text 15 62 Eq.7;
#X obj 47 86 exp;
#X obj 47 34 inlet;
#X obj 47 140 outlet;
#X obj 47 115 expr 1 - $f1;
#X obj 47 62 expr (($f1 * -1)/15);
#X connect 1 0 4 0;
#X connect 2 0 5 0;
#X connect 4 0 3 0;
#X connect 5 0 1 0;
#X restore 39 288 pd Audibility Ap(P);
#X text 179 233 Eq.6;
#X text 165 290 Eq.7;
#X obj 66 338 moses 1e-38;
#X obj 144 446 ftom;
#X obj 144 423 * 1000;
#X obj 144 469 expr int($f1 + 0.5);
#X text 158 501 Pcat;
#X obj 129 532 swap;
#X obj 129 502 f;
#X obj 144 399 r \$0-FreqinKhz;
#X msg 291 80 const 0;
#X obj 291 60 t b;
#X obj 39 570 outlet;
#X obj 315 108 s \$0-Ap-p;
#X obj 312 132 s \$0-Ac-p;
#X obj 303 153 s \$0-AP;
#X obj 291 176 s \$0-SP;
#X obj 129 560 tabwrite \$0-Ap-p;
#X obj 462 30 table \$0-Ap-p 121;
#X obj 39 313 t f f;
#N canvas 228 379 495 233 overallMaskingLevel 0;
#X obj 35 128 expr max(20*(log($f1)/log(10)) \, 0);
#X text 246 128 Convert Back to Levels;
#X obj 35 69 expr pow(10 \, $f1/20);
#X text 167 69 Convert to Amplitudes;
#X obj 35 33 inlet;
#X obj 35 150 outlet;
#N canvas 84 80 302 446 Sum 0;
#X obj 54 404 outlet;
#X obj 41 69 inlet;
#X text 102 404 the accumulated value;
#X text 38 50 floats;
#X text 175 47 # of floats to sum;
#X floatatom 140 48 5 0 0 0 - - -;
#X obj 125 122 sel 1;
#X msg 125 146 0;
#X obj 146 192 + 1;
#X obj 54 354 f;
#X floatatom 54 382 5 0 0 0 - - -;
#X msg 28 178 0;
#X obj 69 303 +;
#X obj 69 276 f;
#X floatatom 69 329 5 0 0 0 - - -;
#X obj 125 93 >=;
#X obj 140 70 - 1;
#X obj 28 153 t b b;
#X obj 98 170 float;
#X obj 41 94 t b f;
#X obj 68 220 trigger b f;
#X obj 140 25 r \$0-howmuchtocount;
#X connect 1 0 19 0;
#X connect 5 0 16 0;
#X connect 6 0 7 0;
#X connect 6 0 17 0;
#X connect 7 0 18 1;
#X connect 8 0 18 1;
#X connect 9 0 10 0;
#X connect 10 0 0 0;
#X connect 11 0 13 1;
#X connect 11 0 20 0;
#X connect 12 0 14 0;
#X connect 13 0 12 0;
#X connect 14 0 9 1;
#X connect 14 0 13 1;
#X connect 15 0 6 0;
#X connect 16 0 15 1;
#X connect 17 0 11 0;
#X connect 17 1 9 0;
#X connect 18 0 8 0;
#X connect 18 0 15 0;
#X connect 19 0 18 0;
#X connect 19 1 20 0;
#X connect 20 0 13 0;
#X connect 20 1 12 1;
#X connect 21 0 5 0;
#X restore 35 100 pd Sum;
#X connect 0 0 5 0;
#X connect 2 0 6 0;
#X connect 4 0 2 0;
#X connect 6 0 0 0;
#X restore 39 179 pd overallMaskingLevel ML(f);
#N canvas 38 161 765 558 audibleLevel 0;
#X text 385 304 Eq. 6) AL(P) = max |YL(P) - ML(P)|;
#X obj 240 305 expr max(($f1-$f2) \, 0);
#X obj 377 233 inlet;
#X obj 240 424 outlet;
#X obj 93 116 f;
#X obj 108 79 / 1000;
#X obj 224 108 expr 20 * (log($f1 / pow(10 \, -5))/log(10));
#X obj 144 223 expr $f2 - $f1;
#X text 202 107 dB;
#N canvas 196 111 562 375 L(th) 0;
#X obj 100 48 inlet;
#X obj 145 285 outlet;
#X text 199 290 L(TH);
#X obj 122 144 exp;
#X obj 43 207 expr (3.64 * pow($f1 \, -0.8));
#X obj 122 121 expr -0.6 * pow($f1 - 3.3 \, 2);
#X obj 311 120 expr (pow(10 \, -3) * pow($f1 \, 4));
#X obj 101 69 trigger float float float;
#X obj 122 166 * 6.5;
#X obj 146 259 expr $f1 - $f2 + $f3;
#X connect 0 0 7 0;
#X connect 3 0 8 0;
#X connect 4 0 9 0;
#X connect 5 0 3 0;
#X connect 6 0 9 2;
#X connect 7 0 4 0;
#X connect 7 1 5 0;
#X connect 7 2 6 0;
#X connect 8 0 9 1;
#X connect 9 0 1 0;
#X restore 144 197 pd L(th);
#X obj 197 68 t b f;
#X obj 93 142 t f f;
#X text 237 222 YL(P);
#X text 418 232 ML;
#X obj 139 169 s \$0-FreqinKhz;
#X obj 197 44 r \$0-dB(P);
#X obj 108 50 r \$0-f(P);
#X connect 1 0 3 0;
#X connect 2 0 1 1;
#X connect 4 0 11 0;
#X connect 5 0 4 1;
#X connect 6 0 7 1;
#X connect 7 0 1 0;
#X connect 9 0 7 0;
#X connect 10 0 4 0;
#X connect 10 1 6 0;
#X connect 11 0 9 0;
#X connect 11 1 14 0;
#X connect 15 0 10 0;
#X connect 16 0 5 0;
#X restore 39 232 pd audibleLevel AL(P);
#X obj 129 367 t b f;
#X text 32 20 (freq-list);
#X text 110 20 (amp-list);
#X obj 39 541 pack f f f;
#X connect 0 0 27 0;
#X connect 1 0 0 0;
#X connect 1 1 0 1;
#X connect 1 2 0 2;
#X connect 2 0 1 0;
#X connect 3 0 1 1;
#X connect 3 0 18 0;
#X connect 6 0 26 0;
#X connect 9 1 29 0;
#X connect 10 0 12 0;
#X connect 11 0 10 0;
#X connect 12 0 15 1;
#X connect 14 0 24 0;
#X connect 14 1 24 1;
#X connect 15 0 14 0;
#X connect 15 0 32 1;
#X connect 16 0 11 0;
#X connect 17 0 20 0;
#X connect 17 0 21 0;
#X connect 17 0 22 0;
#X connect 17 0 23 0;
#X connect 18 0 17 0;
#X connect 26 0 32 0;
#X connect 26 1 9 0;
#X connect 27 0 28 0;
#X connect 28 0 6 0;
#X connect 29 0 15 0;
#X connect 29 1 14 1;
#X connect 29 1 32 2;
#X connect 32 0 19 0;
#X restore 42 121 pd audability;
#N canvas 353 22 954 772 pitchWeight 0;
#X obj 89 429 pow 2;
#X obj 89 450 / 3;
#X text 221 457 Eq.10 Ac(P1);
#X obj 89 472 t b f;
#X obj 89 523 sel 120;
#X obj 89 497 f;
#X obj 182 480 t f f;
#X text 662 7 Eq.10;
#X obj 237 583 bng 15 250 50 0 empty empty empty 17 7 0 10 -261682
-1 -1;
#X obj 313 494 fifop;
#X obj 340 540 unpack f f;
#X obj 313 517 t b l;
#X obj 361 612 max;
#X obj 340 564 t f f;
#X obj 340 635 swap;
#X text 389 614 Eq. 11;
#X obj 89 546 t b b b;
#X obj 89 664 outlet;
#X obj 50 100 list split 1;
#X obj 622 694 outlet;
#X obj 50 73 inlet;
#X obj 340 661 tabwrite \$0-AP;
#X obj 367 587 tabread \$0-Ac-p;
#X obj 116 502 tabwrite \$0-Ac-p;
#X obj 704 8 table \$0-Ac-p 121;
#X obj 706 34 table \$0-AP 121;
#X obj 622 667 pack;
#X msg 643 593 max;
#X obj 643 618 tabletool \$0-AP;
#X obj 643 641 * 0.2;
#X obj 50 208 t f b b;
#X obj 128 622 tabletool \$0-AP;
#X msg 128 600 copy \$1-Ac-p;
#X obj 128 577 \$0;
#N canvas 360 149 313 378 PureTonalness(quadraticSum) 0;
#X obj 25 27 r \$0-finalbang;
#X obj 217 89 r \$0-initbang;
#X obj 28 191 f;
#X obj 220 116 0;
#X obj 77 156 f;
#X obj 45 157 +;
#X obj 58 70 inlet;
#X obj 28 263 outlet;
#X obj 50 128 pow 2;
#X obj 30 218 expr 0.5 * sqrt($f1);
#X connect 0 0 2 0;
#X connect 1 0 3 0;
#X connect 2 0 9 0;
#X connect 3 0 4 0;
#X connect 4 0 5 1;
#X connect 5 0 4 0;
#X connect 5 0 2 1;
#X connect 6 0 8 0;
#X connect 8 0 5 0;
#X connect 9 0 7 0;
#X restore 50 152 pd PureTonalness(quadraticSum);
#N canvas 724 22 479 384 template-sweep 0;
#X obj 90 47 inlet;
#X obj 158 189 f;
#X obj 186 189 + 1;
#X obj 89 172 t l b;
#X obj 89 121 until;
#X obj 89 147 list;
#X msg 161 130 0 12 19 24 28 31 34 36 38 40;
#X obj 161 106 loadbang;
#X msg 173 163 0;
#X msg 90 98 121;
#X obj 158 297 outlet;
#X obj 90 73 t b b;
#X obj 158 213 t f f;
#X obj 185 263 outlet;
#X obj 184 58 bng 15 250 50 0 empty empty empty 17 7 0 10 -262144 -1
-1;
#N canvas 0 22 450 300 list-math 0;
#X obj 65 68 inlet;
#X obj 65 245 outlet;
#X obj 65 177 + 0;
#X obj 158 68 inlet;
#X obj 65 201 moses 121;
#X obj 65 146 list-drip;
#X obj 10 247 outlet;
#X connect 0 0 5 0;
#X connect 2 0 4 0;
#X connect 3 0 2 1;
#X connect 4 0 1 0;
#X connect 5 0 2 0;
#X connect 5 1 6 0;
#X restore 89 236 pd list-math;
#X obj 89 322 outlet;
#X connect 0 0 11 0;
#X connect 1 0 2 0;
#X connect 1 0 12 0;
#X connect 2 0 1 1;
#X connect 3 0 15 0;
#X connect 3 1 1 0;
#X connect 4 0 5 0;
#X connect 5 0 3 0;
#X connect 6 0 5 1;
#X connect 7 0 6 0;
#X connect 8 0 1 1;
#X connect 9 0 4 0;
#X connect 11 0 9 0;
#X connect 11 1 8 0;
#X connect 12 0 15 1;
#X connect 12 1 13 0;
#X connect 14 0 11 0;
#X connect 15 0 16 0;
#X connect 15 1 10 0;
#X restore 89 234 pd template-sweep;
#X obj 138 279 tabread \$0-Ap-p;
#X obj 301 323 + 1;
#X obj 268 322 f;
#X obj 138 305 t f b;
#X obj 283 251 b;
#X obj 138 339 /;
#X obj 138 361 sqrt;
#X obj 138 387 +;
#X obj 166 387 f;
#X obj 89 404 f;
#X obj 283 276 1;
#X obj 198 370 0;
#X connect 0 0 1 0;
#X connect 1 0 3 0;
#X connect 3 0 5 0;
#X connect 3 1 23 0;
#X connect 4 0 16 0;
#X connect 5 0 4 0;
#X connect 6 0 5 1;
#X connect 6 1 23 1;
#X connect 8 0 9 0;
#X connect 9 0 11 0;
#X connect 10 0 13 0;
#X connect 10 1 12 1;
#X connect 11 0 8 0;
#X connect 11 1 10 0;
#X connect 12 0 14 1;
#X connect 13 0 14 0;
#X connect 13 1 22 0;
#X connect 14 0 21 0;
#X connect 14 1 21 1;
#X connect 16 0 17 0;
#X connect 16 1 8 0;
#X connect 16 2 33 0;
#X connect 18 0 34 0;
#X connect 18 1 9 0;
#X connect 20 0 18 0;
#X connect 22 0 12 0;
#X connect 26 0 19 0;
#X connect 27 0 28 0;
#X connect 28 0 29 0;
#X connect 29 0 26 1;
#X connect 30 0 26 0;
#X connect 30 1 27 0;
#X connect 30 2 35 0;
#X connect 32 0 31 0;
#X connect 33 0 32 0;
#X connect 34 0 30 0;
#X connect 35 0 45 0;
#X connect 35 1 36 0;
#X connect 35 2 6 0;
#X connect 35 2 40 0;
#X connect 36 0 39 0;
#X connect 37 0 38 1;
#X connect 38 0 37 0;
#X connect 38 0 41 1;
#X connect 39 0 41 0;
#X connect 39 1 38 0;
#X connect 40 0 46 0;
#X connect 40 0 47 0;
#X connect 41 0 42 0;
#X connect 42 0 43 0;
#X connect 43 0 44 0;
#X connect 43 0 45 1;
#X connect 44 0 43 1;
#X connect 45 0 0 0;
#X connect 46 0 38 1;
#X connect 47 0 44 0;
#X restore 42 145 pd pitchWeight;
#N canvas 54 22 587 594 pitchSalience 0;
#X obj 65 179 expr (1/$f1) * $f2;
#X text 184 179 Eq14 M';
#X obj 65 249 /;
#X obj 65 202 t f f;
#X obj 65 224 pow 0.5;
#X text 292 300 Eq 16;
#X obj 28 60 inlet;
#X obj 115 539 outlet;
#X obj 335 380 outlet;
#X obj 142 493 outlet;
#X obj 115 517 tabdump \$0-SP;
#X obj 399 55 table \$0-SP 121;
#X obj 170 108 symbol \$0-AP;
#X obj 170 132 expr sum("$s1");
#X text 119 223 Eq. 15;
#X msg 65 125 max;
#X obj 65 149 tabletool \$0-AP;
#X obj 28 91 trigger b b b;
#X obj 65 324 tabletool \$0-SP;
#X msg 65 300 copy \$2-AP \, normalize 0 1 \, scale \$1;
#X obj 65 275 pack f \$0;
#X text 383 378 Eq. 15 (result);
#X obj 28 414 tabletool \$0-SP;
#X obj 115 441 mtof;
#X obj 115 466 t b f;
#X msg 28 387 max;
#X connect 0 0 3 0;
#X connect 2 0 20 0;
#X connect 3 0 4 0;
#X connect 3 1 2 1;
#X connect 4 0 2 0;
#X connect 4 0 8 0;
#X connect 6 0 17 0;
#X connect 10 0 7 0;
#X connect 12 0 13 0;
#X connect 13 0 0 1;
#X connect 15 0 16 0;
#X connect 16 0 0 0;
#X connect 17 0 25 0;
#X connect 17 1 15 0;
#X connect 17 2 12 0;
#X connect 19 0 18 0;
#X connect 20 0 19 0;
#X connect 22 1 23 0;
#X connect 23 0 24 0;
#X connect 24 0 10 0;
#X connect 24 1 9 0;
#X connect 25 0 22 0;
#X restore 42 169 pd pitchSalience;
#X obj 117 39 inlet;
#X obj 42 241 outlet;
#X obj 42 39 inlet;
#X obj 88 241 outlet;
#X obj 135 241 outlet;
#X obj 183 241 outlet;
#X obj 234 241 outlet;
#X obj 183 209 unpack;
#X text 35 272 (pitch salience \, root \, multicpliciity \, tonalness
pure \, tonalness complex);
#X connect 0 0 1 0;
#X connect 1 0 2 0;
#X connect 1 1 10 0;
#X connect 2 0 4 0;
#X connect 2 1 6 0;
#X connect 2 2 7 0;
#X connect 3 0 0 1;
#X connect 5 0 0 0;
#X connect 10 0 8 0;
#X connect 10 1 9 0;
