#N canvas 0 22 465 322 10;
#X obj 180 182 / 2;
#X obj 149 212 >;
#X obj 67 229 +;
#X obj 67 256 *;
#X obj 217 212 t a;
#X obj 67 129 t a a;
#X obj 67 182 /;
#X obj 67 205 int;
#X obj 146 130 t a a a a;
#X obj 67 37 inlet;
#X obj 67 282 outlet;
#X obj 147 36 loadbang;
#X text 213 169 if remainder is > 1/2 \,;
#X text 214 183 quantize to next snappoint;
#X text 202 177 <;
#N canvas 0 22 230 281 fmod 0;
#X obj 62 46 inlet;
#X obj 62 265 outlet;
#X obj 120 46 inlet;
#X obj 62 74 / \$1;
#X obj 62 240 * \$1;
#X obj 92 132 int;
#X obj 62 106 t f f;
#X obj 62 158 -;
#X obj 62 185 moses 0;
#X obj 62 213 + 1;
#X connect 0 0 3 0;
#X connect 2 0 3 1;
#X connect 2 0 4 1;
#X connect 3 0 6 0;
#X connect 4 0 1 0;
#X connect 5 0 7 1;
#X connect 6 0 7 0;
#X connect 6 1 5 0;
#X connect 7 0 8 0;
#X connect 8 0 9 0;
#X connect 8 1 4 0;
#X connect 9 0 4 0;
#X restore 123 182 pd fmod;
#X obj 147 67 t b b;
#X obj 246 113 1;
#X obj 147 96 \$1;
#X obj 255 27 inlet;
#X connect 0 0 1 1;
#X connect 1 0 2 1;
#X connect 2 0 3 0;
#X connect 3 0 10 0;
#X connect 4 0 3 1;
#X connect 5 0 6 0;
#X connect 5 1 15 0;
#X connect 6 0 7 0;
#X connect 7 0 2 0;
#X connect 8 0 6 1;
#X connect 8 1 15 1;
#X connect 8 2 0 0;
#X connect 8 3 4 0;
#X connect 9 0 5 0;
#X connect 11 0 16 0;
#X connect 15 0 1 0;
#X connect 16 0 18 0;
#X connect 16 1 17 0;
#X connect 17 0 8 0;
#X connect 18 0 8 0;
#X connect 19 0 8 0;
