#N canvas 0 22 611 340 10;
#X obj 77 153 quantize 2;
#X floatatom 77 120 5 0 0 0 - - -;
#X floatatom 77 189 5 0 0 0 - - -;
#X obj -1 7 cnv 15 600 60 empty empty quantize 20 12 0 14 -233017 -66577
0;
#X text 450 44 2013 Gilberto Bernardes;
#X text 254 132 arg:;
#X text 16 35 limits a stream of floats to values that are integral
multiples of a basic unit;
#X text 255 150 basic unit;
#X floatatom 134 120 5 0 0 0 - - -;
#N canvas 464 540 494 344 META 0;
#X text 12 45 LICENSE GPL v3;
#X text 12 207 RELEASE_DATE 2013;
#X text 12 187 WEBSITE https://sites.google.com/site/eargram/;
#X text 12 167 AUTHOR Gilberto Bernardes;
#X text 12 147 LIBRARY earGram_abs;
#X text 12 96 INLET_0 float;
#X text 12 126 OUTLET_0 float;
#X text 12 65 DESCRIPTION limits a stream of floats to values that
are integral multiples of a basic unit;
#X text 12 111 INLET_1 float (basic unit);
#X restore 549 310 pd META;
#X connect 0 0 2 0;
#X connect 1 0 0 0;
#X connect 8 0 0 1;
