#N canvas 0 22 391 397 10;
#X obj 144 227 +;
#X obj 66 244 +;
#X obj 66 194 * -65536;
#X obj 144 194 * -256;
#X obj 226 210 * -1;
#X obj 66 275 - 1;
#X obj 66 313 outlet;
#X obj 66 162 int 0;
#X obj 144 162 int 0;
#X obj 226 162 int 0;
#X obj 66 81 unpack f f f;
#X obj 66 121 clip 0 255;
#X obj 144 121 clip 0 255;
#X obj 226 121 clip 0 255;
#X text 109 28 (0-255);
#X obj 66 30 inlet;
#X connect 0 0 1 1;
#X connect 1 0 5 0;
#X connect 2 0 1 0;
#X connect 3 0 0 0;
#X connect 4 0 0 1;
#X connect 5 0 6 0;
#X connect 7 0 2 0;
#X connect 8 0 3 0;
#X connect 9 0 4 0;
#X connect 10 0 11 0;
#X connect 10 1 12 0;
#X connect 10 2 13 0;
#X connect 11 0 7 0;
#X connect 12 0 8 0;
#X connect 13 0 9 0;
#X connect 15 0 10 0;
