#N canvas 382 56 693 296 10;
#X obj 55 177 pack f f f;
#X obj 134 16 inlet;
#X obj 55 241 outlet;
#X obj 571 56 inlet;
#X obj 134 160 average \$1;
#X obj 281 160 average \$1;
#X obj 421 160 average \$1;
#N canvas 0 22 450 300 once 0;
#X obj 130 68 inlet;
#X obj 125 207 spigot 1;
#X obj 130 124 t b f;
#X msg 145 171 0;
#X msg 185 119 1;
#X obj 181 67 inlet;
#X obj 106 254 outlet;
#X obj 184 95 b;
#X obj 128 96 i;
#X msg 107 232 reset \$1;
#X connect 0 0 8 0;
#X connect 1 0 9 0;
#X connect 2 0 3 0;
#X connect 2 1 1 0;
#X connect 3 0 1 1;
#X connect 4 0 1 1;
#X connect 5 0 7 0;
#X connect 7 0 4 0;
#X connect 8 0 2 0;
#X connect 9 0 6 0;
#X restore 499 143 pd once;
#N canvas 0 22 450 300 once 0;
#X obj 130 68 inlet;
#X obj 125 207 spigot 1;
#X obj 130 124 t b f;
#X msg 145 171 0;
#X msg 185 119 1;
#X obj 181 67 inlet;
#X obj 111 258 outlet;
#X obj 184 95 b;
#X obj 128 96 i;
#X msg 112 233 reset \$1;
#X connect 0 0 8 0;
#X connect 1 0 9 0;
#X connect 2 0 3 0;
#X connect 2 1 1 0;
#X connect 3 0 1 1;
#X connect 4 0 1 1;
#X connect 5 0 7 0;
#X connect 7 0 4 0;
#X connect 8 0 2 0;
#X connect 9 0 6 0;
#X restore 356 143 pd once;
#N canvas 0 22 450 300 once 0;
#X obj 130 68 inlet;
#X obj 125 207 spigot 1;
#X obj 130 124 t b f;
#X msg 145 171 0;
#X msg 185 119 1;
#X obj 181 67 inlet;
#X obj 106 254 outlet;
#X obj 184 95 b;
#X obj 128 96 i;
#X msg 113 231 reset \$1;
#X connect 0 0 8 0;
#X connect 1 0 9 0;
#X connect 2 0 3 0;
#X connect 2 1 1 0;
#X connect 3 0 1 1;
#X connect 4 0 1 1;
#X connect 5 0 7 0;
#X connect 7 0 4 0;
#X connect 8 0 2 0;
#X connect 9 0 6 0;
#X restore 212 143 pd once;
#X obj 134 52 unpack f f f;
#X obj 134 126 t f f;
#X obj 281 126 t f f;
#X obj 421 126 t f f;
#X msg 571 143 clear;
#X obj 55 212 expr (rint($f1)*100)+(rint($f2)*10)+rint($f3);
#X obj 421 99 int;
#X obj 281 100 int;
#X obj 134 99 int;
#X connect 0 0 15 0;
#X connect 1 0 10 0;
#X connect 3 0 7 1;
#X connect 3 0 8 1;
#X connect 3 0 9 1;
#X connect 3 0 14 0;
#X connect 4 0 0 0;
#X connect 5 0 0 1;
#X connect 6 0 0 2;
#X connect 7 0 6 0;
#X connect 8 0 5 0;
#X connect 9 0 4 0;
#X connect 10 0 18 0;
#X connect 10 1 17 0;
#X connect 10 2 16 0;
#X connect 11 0 4 0;
#X connect 11 1 9 0;
#X connect 12 0 5 0;
#X connect 12 1 8 0;
#X connect 13 0 6 0;
#X connect 13 1 7 0;
#X connect 14 0 6 0;
#X connect 14 0 5 0;
#X connect 14 0 4 0;
#X connect 15 0 2 0;
#X connect 16 0 13 0;
#X connect 17 0 12 0;
#X connect 18 0 11 0;
