#N canvas 561 22 244 176 10;
#X obj 34 19 inlet;
#X obj 103 20 inlet;
#X text 23 -1 freq-list;
#X text 95 -2 amp-list;
#N canvas 711 22 696 306 storeList 0;
#X obj 33 10 inlet;
#X obj 389 27 inlet;
#X obj 52 131 sort;
#X obj 389 154 s \$0-amp;
#X obj 389 131 list prepend 0;
#X obj 555 26 table \$0-amp;
#X obj 389 51 t l l;
#X obj 416 75 list length;
#X msg 416 99 resize \$1;
#X obj 554 49 table \$0-ampSorted;
#X obj 199 221 tabread \$0-amp;
#X obj 199 246 tabwrite \$0-ampSorted;
#X obj 199 172 drip;
#X obj 199 196 t f b;
#X obj 322 213 f;
#X obj 351 213 + 1;
#X obj 199 148 t l b;
#X obj 337 165 0;
#N canvas 123 22 446 369 hztocbrz 0;
#X obj -16 28 inlet;
#X obj 5 185 expr 13.3*atan(3*$f1/4000);
#X obj 80 133 expr ((26.81*$f1)/(1960+$f1))-0.53;
#X obj 5 105 moses 219.501;
#X obj 80 159 expr if ($f1>20.1 \, $f1+(0.22*($f1-20.1)) \, $f1);
#X obj -16 276 outlet;
#X text -15 312 Clarence's Combination of Terhardt (1979) & Traunmuller
(1990) (MusiQuantics Book);
#X obj 5 78 drip;
#X obj 5 224 list prepend;
#X obj 94 241 t l;
#X obj -16 251 list;
#X obj -16 52 t b l b;
#X connect 0 0 11 0;
#X connect 1 0 8 0;
#X connect 2 0 4 0;
#X connect 3 0 1 0;
#X connect 3 1 2 0;
#X connect 4 0 8 0;
#X connect 7 0 3 0;
#X connect 8 0 9 0;
#X connect 8 0 10 1;
#X connect 9 0 8 1;
#X connect 10 0 5 0;
#X connect 11 0 10 0;
#X connect 11 1 7 0;
#X connect 11 2 8 1;
#X restore 52 156 pd hztocbrz;
#X obj 556 3 table \$0-freq;
#X obj 72 57 list length;
#X msg 72 80 resize \$1;
#X obj 72 103 s \$0-freq;
#X obj 52 179 list prepend 0;
#X obj 52 203 s \$0-freq;
#X obj 33 34 t b l l;
#X obj 33 236 f;
#X obj 33 263 outlet;
#X obj 501 116 s \$0-ampSorted;
#X connect 0 0 25 0;
#X connect 1 0 6 0;
#X connect 2 0 18 0;
#X connect 2 1 16 0;
#X connect 4 0 3 0;
#X connect 6 0 4 0;
#X connect 6 1 7 0;
#X connect 7 0 8 0;
#X connect 8 0 3 0;
#X connect 8 0 28 0;
#X connect 10 0 11 0;
#X connect 12 0 13 0;
#X connect 13 0 10 0;
#X connect 13 1 14 0;
#X connect 14 0 15 0;
#X connect 14 0 11 1;
#X connect 15 0 14 1;
#X connect 16 0 12 0;
#X connect 16 1 17 0;
#X connect 17 0 14 1;
#X connect 18 0 23 0;
#X connect 20 0 21 0;
#X connect 20 0 26 1;
#X connect 21 0 22 0;
#X connect 23 0 24 0;
#X connect 25 0 26 0;
#X connect 25 1 2 0;
#X connect 25 2 20 0;
#X connect 26 0 27 0;
#X restore 34 63 pd storeList;
#N canvas 829 22 562 634 iterativeCompasrison 0;
#X obj 22 224 tabread \$0-freq;
#X obj 121 224 tabread \$0-freq;
#X obj 22 339 expr pow((4*2.71828*$f1)/ pow(2.71828 \, 4*$f1) \, 2)
;
#X text 327 339 PARNCUTT;
#X obj 22 366 *;
#X obj -14 -106 inlet;
#X obj 5 -8 until;
#X obj 260 254 *;
#X obj 5 15 f;
#X obj 22 390 +;
#X obj 55 390 f;
#X obj 7 414 f;
#X obj 7 438 +;
#X obj 40 438 f;
#X obj -14 464 f;
#X obj -14 488 outlet;
#X obj -14 -83 t b f b;
#X obj 395 224 tabread \$0-ampSorted;
#X obj 260 224 tabread \$0-ampSorted;
#X obj 142 421 0;
#X obj 73 293 b;
#X obj 73 315 0;
#X obj 22 271 moses 1.2;
#X obj 32 15 + 1;
#X obj 22 90 until;
#X obj 22 116 f;
#X obj 51 116 + 1;
#X obj 96 373 0;
#X obj 5 -33 t f f;
#X obj 22 139 t f f;
#X obj 70 -2 0;
#X obj 22 66 expr $f2-$f1;
#X obj 22 248 expr abs($f2-$f1);
#X obj 5 -57 - 0;
#X obj 5 41 t b f b f;
#X connect 0 0 32 0;
#X connect 1 0 32 1;
#X connect 2 0 4 0;
#X connect 4 0 9 0;
#X connect 5 0 16 0;
#X connect 6 0 8 0;
#X connect 7 0 4 1;
#X connect 8 0 23 0;
#X connect 8 0 34 0;
#X connect 9 0 10 0;
#X connect 9 0 11 1;
#X connect 10 0 9 1;
#X connect 11 0 12 0;
#X connect 12 0 13 0;
#X connect 12 0 14 1;
#X connect 13 0 12 1;
#X connect 14 0 15 0;
#X connect 16 0 14 0;
#X connect 16 1 33 0;
#X connect 16 2 19 0;
#X connect 16 2 30 0;
#X connect 17 0 7 1;
#X connect 18 0 7 0;
#X connect 19 0 13 0;
#X connect 20 0 21 0;
#X connect 20 0 24 1;
#X connect 21 0 9 0;
#X connect 22 0 2 0;
#X connect 22 1 20 0;
#X connect 23 0 8 1;
#X connect 24 0 25 0;
#X connect 25 0 26 0;
#X connect 25 0 29 0;
#X connect 26 0 25 1;
#X connect 27 0 10 0;
#X connect 28 0 6 0;
#X connect 28 1 31 1;
#X connect 29 0 0 0;
#X connect 29 1 18 0;
#X connect 30 0 8 1;
#X connect 31 0 24 0;
#X connect 32 0 22 0;
#X connect 33 0 28 0;
#X connect 34 0 11 0;
#X connect 34 1 31 0;
#X connect 34 2 27 0;
#X connect 34 3 1 0;
#X connect 34 3 17 0;
#X connect 34 3 25 1;
#X restore 34 91 pd iterativeCompasrison;
#X obj 34 118 outlet;
#X connect 0 0 4 0;
#X connect 1 0 4 1;
#X connect 4 0 5 0;
#X connect 5 0 6 0;
