#N canvas 0 22 772 407 10;
#X obj 56 226 expr ($f1-$f2)*($f4-$f5)/($f2-$f3)+$f4;
#X obj 112 184 f \$1;
#X obj 281 184 f \$4;
#X obj 224 184 f \$3;
#X obj 168 184 f \$2;
#X obj 112 136 inlet;
#X obj 168 136 inlet;
#X obj 224 136 inlet;
#X obj 281 136 inlet;
#X obj 56 27 inlet;
#X obj 56 267 outlet;
#X text 590 139 ARGS;
#X text 590 158 1: input_low_border;
#X text 590 180 2: input_high_border;
#X text 590 206 3: output_low_border;
#X text 590 228 4: output_high_border;
#X text 98 24 scale [from_low \, from_hi] to [to_low \, to_hi];
#X obj 377 167 loadbang;
#X text 588 255 TODO: linear or logarithmic;
#X connect 0 0 10 0;
#X connect 1 0 0 1;
#X connect 2 0 0 4;
#X connect 3 0 0 3;
#X connect 4 0 0 2;
#X connect 5 0 1 0;
#X connect 6 0 4 0;
#X connect 7 0 3 0;
#X connect 8 0 2 0;
#X connect 9 0 0 0;
#X connect 17 0 1 0;
#X connect 17 0 3 0;
#X connect 17 0 4 0;
#X connect 17 0 2 0;
