#N canvas 521 103 829 779 10;
#X obj 19 20 inlet;
#X obj 19 49 route add clear dimensions nrCases;
#X obj 602 38 table \$0-featureVectors;
#X obj 602 66 table \$0-distances;
#X obj 19 561 list-euclid;
#X obj 69 182 s \$0-clear;
#X obj 119 147 s \$0-dimensions;
#X obj 169 115 s \$0-nrCases;
#X obj 109 240 f;
#X obj 138 240 + 1;
#X obj 167 201 r \$0-clear;
#X obj 167 223 0;
#X obj 180 249 r \$0-nrCases;
#X obj 251 277 r \$0-dimensions;
#X obj 19 223 t b l b;
#X obj 19 337 f;
#X obj 153 700 r \$0-nrCases;
#X obj 19 662 list trim;
#X obj 19 638 list prepend element;
#X obj 19 614 list prepend;
#X obj 112 572 swap;
#X obj 112 597 pack;
#X obj 19 408 until;
#X obj 19 362 t f b f;
#X obj 19 435 f;
#X obj 48 435 + 1;
#X obj 92 418 0;
#X obj 19 463 t f f;
#X obj 178 621 list prepend;
#X obj 271 604 pack;
#X msg 601 126 const 0;
#X obj 601 150 s \$0-distances;
#X obj 601 101 r \$0-clear;
#X obj 334 25 inlet;
#X obj 334 103 outlet;
#X obj 257 47 loadbang;
#X obj 82 485 2d.tabread \$0-featureVectors;
#X obj 257 71 t b b;
#X obj 257 98 \$1;
#X obj 284 130 \$2;
#X obj 38 302 2d.tabwrite \$0-featureVectors 1000 5;
#X obj 19 731 2d.tabwrite \$0-distances 1000 1000;
#X obj 334 74 2d.tabread \$0-distances;
#X obj 19 530 2d.tabread \$0-featureVectors;
#X obj 579 174 s \$0-featureVectors;
#X connect 0 0 1 0;
#X connect 1 0 14 0;
#X connect 1 1 5 0;
#X connect 1 2 6 0;
#X connect 1 3 7 0;
#X connect 4 0 19 0;
#X connect 4 0 28 0;
#X connect 8 0 9 0;
#X connect 8 0 15 1;
#X connect 8 0 40 1;
#X connect 9 0 8 1;
#X connect 10 0 11 0;
#X connect 11 0 8 1;
#X connect 12 0 40 2;
#X connect 13 0 40 3;
#X connect 14 0 15 0;
#X connect 14 1 40 0;
#X connect 14 2 8 0;
#X connect 15 0 23 0;
#X connect 16 0 41 2;
#X connect 16 0 41 3;
#X connect 17 0 41 0;
#X connect 18 0 17 0;
#X connect 19 0 18 0;
#X connect 20 0 21 0;
#X connect 20 1 21 1;
#X connect 21 0 19 1;
#X connect 22 0 24 0;
#X connect 23 0 22 0;
#X connect 23 1 26 0;
#X connect 23 2 20 1;
#X connect 23 2 29 1;
#X connect 23 2 36 0;
#X connect 24 0 25 0;
#X connect 24 0 27 0;
#X connect 25 0 24 1;
#X connect 26 0 24 1;
#X connect 27 0 43 0;
#X connect 27 1 20 0;
#X connect 27 1 29 0;
#X connect 28 0 18 0;
#X connect 29 0 28 1;
#X connect 30 0 31 0;
#X connect 30 0 44 0;
#X connect 32 0 30 0;
#X connect 33 0 42 0;
#X connect 35 0 37 0;
#X connect 36 0 4 1;
#X connect 37 0 38 0;
#X connect 37 1 39 0;
#X connect 38 0 7 0;
#X connect 39 0 6 0;
#X connect 42 0 34 0;
#X connect 43 0 4 0;
