#N canvas 164 22 278 763 10;
#X obj 100 100 cnv 15 84 420 empty empty empty 20 12 0 14 -233017 -66577
0;
#X text 102 471 pan;
#X text 102 365 pitch;
#X text 102 264 gain;
#X text 102 161 density/;
#X text 102 174 random pos;
#X coords 0 -1 1 1 84 420 1 100 100;
