#N canvas 122 224 1000 262 10;
#X obj 100 100 cnv 15 740 42 empty empty empty 20 12 0 14 -233017 -66577
0;
#X obj 118 116 nbx 5 14 -1e+37 1e+37 0 0 empty empty length(pix) 60
7 0 10 -1 -262144 -1 200 256;
#X obj 261 116 nbx 5 14 -1e+37 1e+37 0 0 empty empty duration(sec)
60 7 0 10 -1 -262144 -1 10 256;
#X obj 549 113 bng 15 250 50 0 \$0-clearSpaceMapAuto \$0-clearSpaceMapAuto.r
clear 20 7 0 10 -1 -262144 -1;
#X obj 118 20 r \$1-automationsLength.r;
#X obj 261 45 r \$1-automationsDur.r;
#X obj 261 172 s \$1-automationsDur;
#X obj 118 172 s \$1-automationsLength;
#X obj 415 116 nbx 5 14 -1e+37 1e+37 0 0 empty empty pointerPos 60
7 0 10 -1 -262144 -1 0 256;
#X obj 415 174 s \$1-automationsPos;
#X obj 415 64 r \$1-automationsPos.r;
#X obj 611 114 cnv 15 65 15 empty empty (s) 5 8 0 14 -228856 -258113
0;
#X obj 685 114 cnv 15 65 15 empty empty (o) 5 8 0 14 -233017 -258113
0;
#X text 639 113 tart;
#X text 676 113 st;
#X text 714 113 p;
#X obj 549 175 s \$1-clearSpaceMapAuto;
#X connect 1 0 7 0;
#X connect 2 0 6 0;
#X connect 3 0 16 0;
#X connect 4 0 1 0;
#X connect 5 0 2 0;
#X connect 8 0 9 0;
#X connect 10 0 8 0;
#X coords 0 -1 1 1 740 42 1 100 100;
