#N struct 1458-starDiagram float a float b;
#N struct 1458-starParallel float color float a float b float c float
d;
#N struct 1932-starParallel float color float a float b float c float
d;
#N canvas 177 22 744 323 10;
#N canvas 194 302 450 300 structStarParallel 0;
#X obj 29 63 struct \$0-starParallel float color float a float b float
c float d;
#X obj 33 123 drawpolygon color 2 a b c d;
#X restore 450 101 pd structStarParallel;
#N canvas 506 22 450 300 structStarDiagram 0;
#X obj 31 36 struct \$0-starDiagram float a float b;
#X obj 31 74 drawpolygon 999 1 0 0 a b;
#X restore 596 101 pd structStarDiagram;
#N canvas 692 22 450 300 appendStarDiagram 0;
#X obj 195 333 pointer;
#X obj 195 284 \$0;
#X obj 26 350 append \$0-starDiagram a b;
#X obj 17 12 loadbang;
#X obj 14 112 until;
#X msg 308 154 clear;
#X obj 308 183 s pd-\$0-unitViz;
#X msg 195 308 traverse pd-\$1-unitViz \, bang;
#N canvas 0 22 450 300 degree2rad 0;
#X obj 89 96 inlet;
#X obj 89 182 outlet;
#X obj 161 137 / 45;
#X obj 161 71 loadbang;
#X obj 89 130 f;
#X obj 161 114 atan;
#X msg 161 93 1;
#X obj 89 154 *;
#X connect 0 0 4 0;
#X connect 2 0 7 1;
#X connect 3 0 6 0;
#X connect 4 0 7 0;
#X connect 5 0 2 0;
#X connect 6 0 5 0;
#X connect 7 0 1 0;
#X restore 81 229 pd degree2rad;
#N canvas 0 22 461 345 pol2cart 0;
#X text 304 151 x=r*cos(phi);
#X text 305 166 y=r*sin(phi);
#X obj 109 92 inlet r;
#X obj 189 92 inlet phi;
#X obj 92 341 outlet x;
#X obj 189 341 outlet y;
#X obj 148 170 t f f;
#X obj 148 194 cos;
#X obj 178 194 sin;
#X obj 92 211 t f f;
#X obj 92 247 * 1;
#X obj 122 246 * 0;
#X text 73 36 convert polar to cartesian coordinates;
#X connect 2 0 9 0;
#X connect 3 0 6 0;
#X connect 6 0 7 0;
#X connect 6 1 8 0;
#X connect 7 0 10 1;
#X connect 8 0 11 1;
#X connect 9 0 10 0;
#X connect 9 1 11 0;
#X connect 10 0 4 0;
#X connect 11 0 5 0;
#X restore 18 256 pd pol2cart;
#X obj 151 158 0;
#X obj 204 187 expr 360/$f1;
#X obj 81 204 *;
#X obj 81 175 f;
#X obj 111 175 + 1;
#X obj 14 174 100;
#X obj 13 140 t b b;
#X obj 15 64 t f b b f;
#X obj 17 35 f \$1;
#X obj 115 23 r \$0-dimensions;
#X obj 85 2 r \$0-clear;
#X connect 0 0 2 2;
#X connect 1 0 7 0;
#X connect 3 0 18 0;
#X connect 4 0 16 0;
#X connect 5 0 6 0;
#X connect 7 0 0 0;
#X connect 8 0 9 1;
#X connect 9 0 2 0;
#X connect 9 1 2 1;
#X connect 10 0 13 1;
#X connect 11 0 12 1;
#X connect 12 0 8 0;
#X connect 13 0 14 0;
#X connect 13 0 12 0;
#X connect 14 0 13 1;
#X connect 15 0 9 0;
#X connect 16 0 15 0;
#X connect 16 1 13 0;
#X connect 17 0 4 0;
#X connect 17 1 1 0;
#X connect 17 2 5 0;
#X connect 17 2 10 0;
#X connect 17 3 11 0;
#X connect 18 0 17 0;
#X connect 19 0 18 1;
#X connect 20 0 18 0;
#X restore 596 75 pd appendStarDiagram;
#N canvas 109 313 696 539 appendStarParallel 0;
#X obj 416 348 pointer;
#X obj 416 299 \$0;
#X msg 302 -28 clear;
#X obj 23 92 list split 2;
#X obj 23 67 t l b;
#X obj -37 226 list append;
#X obj 23 116 unpack;
#N canvas 0 22 450 300 findCoordinate 0;
#N canvas 0 22 450 300 degree2rad 0;
#X obj 89 96 inlet;
#X obj 89 182 outlet;
#X obj 161 137 / 45;
#X obj 161 71 loadbang;
#X obj 89 130 f;
#X obj 161 114 atan;
#X msg 161 93 1;
#X obj 89 154 *;
#X connect 0 0 4 0;
#X connect 2 0 7 1;
#X connect 3 0 6 0;
#X connect 4 0 7 0;
#X connect 5 0 2 0;
#X connect 6 0 5 0;
#X connect 7 0 1 0;
#X restore 115 179 pd degree2rad;
#N canvas 0 22 461 345 pol2cart 0;
#X text 304 151 x=r*cos(phi);
#X text 305 166 y=r*sin(phi);
#X obj 109 92 inlet r;
#X obj 189 92 inlet phi;
#X obj 92 341 outlet x;
#X obj 189 341 outlet y;
#X obj 148 170 t f f;
#X obj 148 194 cos;
#X obj 178 194 sin;
#X obj 92 211 t f f;
#X obj 92 247 * 1;
#X obj 122 246 * 0;
#X text 73 36 convert polar to cartesian coordinates;
#X connect 2 0 9 0;
#X connect 3 0 6 0;
#X connect 6 0 7 0;
#X connect 6 1 8 0;
#X connect 7 0 10 1;
#X connect 8 0 11 1;
#X connect 9 0 10 0;
#X connect 9 1 11 0;
#X connect 10 0 4 0;
#X connect 11 0 5 0;
#X restore 52 206 pd pol2cart;
#X obj 145 96 0;
#X obj 222 137 expr 360/$f1;
#X obj 115 154 *;
#X obj 115 125 f;
#X obj 52 42 t f b;
#X obj 145 17 inlet;
#X obj 52 17 inlet;
#X obj 222 111 inlet;
#X obj 52 234 outlet;
#X obj 115 234 outlet;
#X obj 145 125 + 1;
#X connect 0 0 1 1;
#X connect 1 0 10 0;
#X connect 1 1 11 0;
#X connect 2 0 12 0;
#X connect 3 0 4 1;
#X connect 4 0 0 0;
#X connect 5 0 4 0;
#X connect 5 0 12 0;
#X connect 6 0 1 0;
#X connect 6 1 5 0;
#X connect 7 0 2 0;
#X connect 8 0 6 0;
#X connect 9 0 3 0;
#X connect 12 0 5 1;
#X restore 46 270 pd findCoordinate;
#N canvas 0 22 450 300 findCoordinate 0;
#N canvas 0 22 450 300 degree2rad 0;
#X obj 89 96 inlet;
#X obj 89 182 outlet;
#X obj 161 137 / 45;
#X obj 161 71 loadbang;
#X obj 89 130 f;
#X obj 161 114 atan;
#X msg 161 93 1;
#X obj 89 154 *;
#X connect 0 0 4 0;
#X connect 2 0 7 1;
#X connect 3 0 6 0;
#X connect 4 0 7 0;
#X connect 5 0 2 0;
#X connect 6 0 5 0;
#X connect 7 0 1 0;
#X restore 115 179 pd degree2rad;
#N canvas 0 22 461 345 pol2cart 0;
#X text 304 151 x=r*cos(phi);
#X text 305 166 y=r*sin(phi);
#X obj 109 92 inlet r;
#X obj 189 92 inlet phi;
#X obj 92 341 outlet x;
#X obj 189 341 outlet y;
#X obj 148 170 t f f;
#X obj 148 194 cos;
#X obj 178 194 sin;
#X obj 92 211 t f f;
#X obj 92 247 * 1;
#X obj 122 246 * 0;
#X text 73 36 convert polar to cartesian coordinates;
#X connect 2 0 9 0;
#X connect 3 0 6 0;
#X connect 6 0 7 0;
#X connect 6 1 8 0;
#X connect 7 0 10 1;
#X connect 8 0 11 1;
#X connect 9 0 10 0;
#X connect 9 1 11 0;
#X connect 10 0 4 0;
#X connect 11 0 5 0;
#X restore 52 206 pd pol2cart;
#X obj 222 137 expr 360/$f1;
#X obj 115 154 *;
#X obj 115 125 f;
#X obj 52 42 t f b;
#X obj 145 17 inlet;
#X obj 52 17 inlet;
#X obj 222 111 inlet;
#X obj 52 234 outlet;
#X obj 115 234 outlet;
#X obj 145 96 1;
#X obj 145 125 + 1;
#X connect 0 0 1 1;
#X connect 1 0 9 0;
#X connect 1 1 10 0;
#X connect 2 0 3 1;
#X connect 3 0 0 0;
#X connect 4 0 3 0;
#X connect 4 0 12 0;
#X connect 5 0 1 0;
#X connect 5 1 4 0;
#X connect 6 0 11 0;
#X connect 7 0 5 0;
#X connect 8 0 2 0;
#X connect 11 0 12 0;
#X connect 12 0 4 1;
#X restore 216 275 pd findCoordinate;
#X msg 416 323 traverse pd-\$1-starParallelViz \, bang;
#X obj 302 1 s pd-\$0-starParallelViz;
#X obj 23 141 t b f;
#X obj 23 167 f;
#X obj 23 41 list append 0;
#X obj 23 7 t l l;
#X msg 164 24 \$1;
#X obj 315 180 loadbang;
#X obj 23 -45 t l b b;
#X obj 23 -71 inlet;
#X obj 315 209 f \$1;
#X obj 183 365 append \$0-starParallel color a b c d;
#X obj 46 294 t b f;
#N canvas 0 22 457 420 color 0;
#X obj 15 -3 inlet;
#X obj 32 55 f;
#X obj 62 56 + 1;
#X obj 51 276 90;
#X obj 65 250 88;
#X obj 79 225 838;
#X obj 93 198 830;
#X obj 10 149 sel 0 1 2 3 4 5 6 7;
#X obj 119 376 outlet;
#X obj 10 359 900;
#X obj 23 332 990;
#X obj 37 303 209;
#X obj 107 174 306;
#X obj 149 16 r \$0-clear;
#X obj 149 38 0;
#X obj 7 101 f;
#X obj 64 -2 inlet;
#X connect 0 0 15 0;
#X connect 1 0 2 0;
#X connect 1 0 15 1;
#X connect 2 0 1 1;
#X connect 3 0 8 0;
#X connect 4 0 8 0;
#X connect 5 0 8 0;
#X connect 6 0 8 0;
#X connect 7 0 9 0;
#X connect 7 1 10 0;
#X connect 7 2 11 0;
#X connect 7 3 3 0;
#X connect 7 4 4 0;
#X connect 7 5 5 0;
#X connect 7 6 6 0;
#X connect 7 7 12 0;
#X connect 9 0 8 0;
#X connect 10 0 8 0;
#X connect 11 0 8 0;
#X connect 12 0 8 0;
#X connect 13 0 14 0;
#X connect 14 0 1 1;
#X connect 15 0 7 0;
#X connect 16 0 1 0;
#X restore 59 338 pd color;
#X obj 263 -99 r \$0-clear;
#X obj 263 -74 t b b b;
#X obj 394 192 r \$0-dimensions;
#X connect 0 0 20 5;
#X connect 1 0 9 0;
#X connect 2 0 10 0;
#X connect 3 0 6 0;
#X connect 3 1 5 1;
#X connect 4 0 3 0;
#X connect 4 1 7 1;
#X connect 4 1 8 1;
#X connect 5 0 3 0;
#X connect 6 0 11 0;
#X connect 6 1 8 0;
#X connect 6 1 12 1;
#X connect 7 0 21 0;
#X connect 7 1 20 2;
#X connect 8 0 20 3;
#X connect 8 1 20 4;
#X connect 9 0 0 0;
#X connect 11 0 12 0;
#X connect 11 1 7 0;
#X connect 12 0 5 0;
#X connect 13 0 4 0;
#X connect 14 0 13 0;
#X connect 14 1 15 0;
#X connect 15 0 13 1;
#X connect 16 0 19 0;
#X connect 17 0 14 0;
#X connect 17 1 1 0;
#X connect 17 2 22 1;
#X connect 18 0 17 0;
#X connect 19 0 8 2;
#X connect 19 0 7 2;
#X connect 21 0 22 0;
#X connect 21 1 20 1;
#X connect 22 0 20 0;
#X connect 23 0 24 0;
#X connect 24 0 19 0;
#X connect 24 1 1 0;
#X connect 24 2 2 0;
#X connect 25 0 19 1;
#X restore 450 75 pd appendStarParallel;
#X obj 100 120 cnv 15 150 130 empty empty empty 20 12 0 14 -1 -66577
0;
#N canvas 0 22 586 428 \$0-unitViz 0;
#X scalar 1458-starDiagram 100 0 \;;
#X scalar 1458-starDiagram 70.7107 70.7107 \;;
#X scalar 1458-starDiagram -4.37114e-06 100 \;;
#X scalar 1458-starDiagram -70.7107 70.7107 \;;
#X scalar 1458-starDiagram -100 -8.74228e-06 \;;
#X scalar 1458-starDiagram -70.7107 -70.7107 \;;
#X scalar 1458-starDiagram 1.19249e-06 -100 \;;
#X scalar 1458-starDiagram 70.7107 -70.7107 \;;
#X coords -100 -100 100 100 150 130 1 0 0;
#X restore 100 120 pd \$0-unitViz;
#N canvas 0 22 949 524 \$0-starParallelViz 0;
#X scalar 1458-starParallel 90 32.5269 32.5269 -2.01072e-06 46 \;;
#X scalar 1458-starParallel 209 33.234 33.234 -2.05444e-06 47 \;;
#X scalar 1458-starParallel 990 41.7193 41.7193 -2.57897e-06 59 \;
;
#X scalar 1458-starParallel 900 55.8614 55.8614 -3.4532e-06 79 \;;
#X scalar 1932-starParallel 90 67.8822 67.8822 -3.0598e-06 70 \;;
#X scalar 1932-starParallel 90 -3.0598e-06 70 -21.9203 21.9203 \;;
#X scalar 1932-starParallel 90 -21.9203 21.9203 -2 -1.74846e-07 \;
;
#X scalar 1932-starParallel 90 -2 -1.74846e-07 -61.5183 -61.5183 \;
;
#X scalar 1932-starParallel 90 -61.5183 -61.5183 1.14479e-06 -96 \;
;
#X scalar 1932-starParallel 90 1.14479e-06 -96 52.3259 -52.3259 \;
;
#X scalar 1932-starParallel 90 52.3259 -52.3259 18 3.14722e-06 \;;
#X scalar 1932-starParallel 90 18 3.14722e-06 67.8822 67.8822 \;;
#X coords -100 -100 100 100 150 130 1 0 0;
#X restore 100 120 pd \$0-starParallelViz;
#X obj 281 33 inlet;
#X obj 281 58 route clear dimensions;
#X obj 281 167 s \$0-clear;
#X obj 372 167 s \$0-dimensions;
#X obj 345 129 t b f;
#X obj 385 112 \$1;
#X obj 385 88 loadbang;
#X connect 7 0 8 0;
#X connect 8 0 9 0;
#X connect 8 1 11 0;
#X connect 8 2 3 0;
#X connect 11 0 9 0;
#X connect 11 1 10 0;
#X connect 12 0 11 0;
#X connect 13 0 12 0;
#X coords 0 -1 1 1 150 150 1 100 100;
