#N struct 1648-pt float x float y;
#N canvas 20 22 518 442 10;
#X obj 7 -6 cnv 15 500 60 empty empty starPlot 20 12 0 14 -233017 -66577
0;
#X msg 150 140 dimensions \$1;
#N canvas 0 22 629 468 listRandom 0;
#X obj 84 4 inlet;
#X msg 83 121 seed \$1;
#X obj 171 362 list prepend;
#X obj 264 363 t a;
#X obj 171 266 until;
#X obj 148 119 t b b b;
#X obj 148 383 list;
#X obj 266 41 inlet;
#X obj 83 96 route seed;
#X obj 148 416 outlet;
#X text 84 -22 seed/bang;
#X text 267 17 length;
#X obj 171 245 f 1;
#X obj 266 140 max 1;
#X obj 84 45 until;
#X obj 171 332 + 1;
#X obj 171 300 random 98;
#X connect 0 0 14 0;
#X connect 1 0 16 0;
#X connect 2 0 3 0;
#X connect 2 0 6 1;
#X connect 3 0 2 1;
#X connect 4 0 16 0;
#X connect 5 0 6 0;
#X connect 5 1 12 0;
#X connect 5 2 2 1;
#X connect 6 0 9 0;
#X connect 7 0 13 0;
#X connect 8 0 1 0;
#X connect 8 1 5 0;
#X connect 12 0 4 0;
#X connect 13 0 12 1;
#X connect 14 0 8 0;
#X connect 15 0 2 0;
#X connect 16 0 15 0;
#X restore 42 131 pd listRandom;
#X floatatom 150 115 5 0 0 1 - - -;
#X floatatom 42 106 5 0 0 2 number_of_cases - -;
#X msg 262 140 clear;
#X msg 340 142 dimen \$1 \$2;
#X obj 340 117 pack;
#X floatatom 400 77 5 0 0 0 - - -;
#X floatatom 340 78 5 0 0 0 - - -;
#X obj 400 100 t b f;
#X obj 42 191 starPlot 4 200 200;
#X text 357 31 2013 Gilberto Bernardes;
#X text 25 31 plots and adapts the results of a star coordinates;
#N canvas 449 357 494 344 META 0;
#X text 12 45 LICENSE GPL v3;
#X text 12 175 RELEASE_DATE 2013;
#X text 12 155 WEBSITE https://sites.google.com/site/eargram/;
#X text 12 135 AUTHOR Gilberto Bernardes;
#X text 12 25 KEYWORDS;
#X text 12 115 LIBRARY earGram_abs;
#X text 12 65 DESCRIPTION plots and adapts the results of a star coordinates
;
#X text 12 96 INLET_0 list dimensions clear dimen;
#X restore 463 405 pd META;
#X connect 1 0 11 0;
#X connect 2 0 11 0;
#X connect 3 0 1 0;
#X connect 3 0 2 1;
#X connect 4 0 2 0;
#X connect 5 0 11 0;
#X connect 6 0 11 0;
#X connect 7 0 6 0;
#X connect 8 0 10 0;
#X connect 9 0 7 0;
#X connect 10 0 7 0;
#X connect 10 1 7 1;
