#N canvas 140 22 552 570 10;
#N canvas 149 310 531 367 plotGraphics 0;
#X obj -38 139 pointer;
#X obj -38 45 t b b;
#N canvas 234 165 486 132 pt-template 0;
#X obj 14 49 filledpolygon 900 900 0 -1 -1 1 -1 1 1 -1 1 -1 -1;
#X obj 6 8 struct \$0-pt float x float y;
#X restore 157 11 pd pt-template;
#X obj -199 12 inlet;
#X msg 11 62 clear;
#X obj 11 85 s pd-\$0-plot;
#X obj -38 85 \$0;
#X obj 11 28 loadbang;
#X obj -199 156 append \$0-pt x y;
#X msg -38 112 traverse pd-\$1-plot \, bang;
#X obj -38 8 r \$0-clear;
#X obj -199 60 t l l;
#N canvas 0 22 468 437 squareBounds 0;
#X obj 225 169 t f;
#X obj 68 163 t f;
#X obj 27 99 unpack;
#X obj 27 69 inlet;
#X obj 163 73 r \$0-clear;
#X obj 163 98 0;
#X obj 184 152 max 0;
#X obj 27 146 max 0;
#X obj 305 169 t f;
#X obj 147 167 t f;
#X obj 106 150 min 0;
#X obj 264 152 min 0;
#X obj 44 289 t b f;
#X obj 87 287 t b f;
#X obj 128 289 t b f;
#X obj 26 351 s \$0-bounds;
#X obj 26 320 pack 1 -1 1 -1;
#X msg 272 99 1 -1 1 -1;
#X obj 26 230 + 5;
#X obj 64 232 - 5;
#X obj 156 222 + 5;
#X obj 223 242 - 5;
#X connect 0 0 6 1;
#X connect 1 0 7 1;
#X connect 2 0 7 0;
#X connect 2 0 10 0;
#X connect 2 1 6 0;
#X connect 2 1 11 0;
#X connect 3 0 2 0;
#X connect 4 0 5 0;
#X connect 4 0 17 0;
#X connect 5 0 6 1;
#X connect 5 0 7 1;
#X connect 5 0 11 1;
#X connect 5 0 10 1;
#X connect 6 0 0 0;
#X connect 6 0 20 0;
#X connect 7 0 1 0;
#X connect 7 0 18 0;
#X connect 8 0 11 1;
#X connect 9 0 10 1;
#X connect 10 0 9 0;
#X connect 10 0 19 0;
#X connect 11 0 8 0;
#X connect 11 0 21 0;
#X connect 12 0 16 0;
#X connect 12 1 16 1;
#X connect 13 0 16 0;
#X connect 13 1 16 2;
#X connect 14 0 16 0;
#X connect 14 1 16 3;
#X connect 16 0 15 0;
#X connect 17 0 16 0;
#X connect 18 0 16 0;
#X connect 19 0 12 0;
#X connect 20 0 13 0;
#X connect 21 0 14 0;
#X restore -172 83 pd squareBounds;
#X connect 0 0 8 2;
#X connect 1 0 6 0;
#X connect 1 1 4 0;
#X connect 3 0 11 0;
#X connect 4 0 5 0;
#X connect 6 0 9 0;
#X connect 7 0 1 0;
#X connect 9 0 0 0;
#X connect 10 0 1 0;
#X connect 11 0 8 0;
#X connect 11 1 12 0;
#X restore 199 -33 pd plotGraphics;
#X obj 199 -59 starCoordinates \$1;
#X obj 100 -116 inlet;
#N canvas 0 22 450 300 \$0-plot 0;
#X coords 0 0 1 1 100 100 1;
#X restore 100 120 pd \$0-plot;
#N canvas 0 22 923 398 squareDimen 1;
#X obj -538 -70 loadbang;
#X obj -538 -21 \$2;
#X obj -367 -30 \$3;
#X obj -538 -47 t b b;
#X obj -137 88 pack;
#X obj -116 65 + 20;
#X obj -538 137 s pd-\$0-plot;
#X obj -473 -70 inlet;
#X obj -137 135 s \$0-starPlot;
#X obj -538 4 expr if ($f1<=100 \, 100 \, $f1) \; if ($f2<=100 \, 100
\, $f2);
#X obj -538 87 pack f f f f f f;
#X obj -226 -70 r \$0-bounds;
#X obj -226 -47 unpack f f f f;
#X obj -300 -29 t b f;
#X obj -300 -50 speedlim 500;
#X msg -538 113 donecanvasdialog 1 -1 1 \$4 \$5 \$3 \$6 \$1 \$2 100
100 \, dirty 0;
#X msg -137 111 donecanvasdialog 1 -1 1 0 -1 1 1 \$1 \$2 100 100 \,
dirty 0;
#X connect 0 0 3 0;
#X connect 1 0 9 0;
#X connect 2 0 9 1;
#X connect 3 0 1 0;
#X connect 3 1 2 0;
#X connect 4 0 16 0;
#X connect 5 0 4 1;
#X connect 7 0 9 0;
#X connect 9 0 4 0;
#X connect 9 0 10 0;
#X connect 9 1 5 0;
#X connect 9 1 10 1;
#X connect 10 0 15 0;
#X connect 11 0 12 0;
#X connect 12 0 14 0;
#X connect 12 1 10 3;
#X connect 12 2 10 4;
#X connect 12 3 10 5;
#X connect 13 0 10 0;
#X connect 13 1 10 2;
#X connect 14 0 13 0;
#X connect 15 0 6 0;
#X connect 16 0 8 0;
#X restore 149 -3 pd squareDimen;
#X obj 100 28 s \$0-clear;
#X obj 100 -87 route clear dimen;
#X obj 380 -116 namecanvas \$0-starPlot;
#X connect 1 0 0 0;
#X connect 2 0 6 0;
#X connect 6 0 5 0;
#X connect 6 1 4 0;
#X connect 6 2 1 0;
#X coords 0 -1 1 1 100 120 1 100 100;
