#N struct 1458-starDiagram float a float b;
#N struct 1458-starParallel float color float a float b float c float
d;
#N canvas 146 231 557 369 10;
#X obj 1 4 cnv 15 550 60 empty empty starDiagram 20 12 0 14 -233017
-66577 0;
#X msg 200 154 dimensions \$1;
#N canvas 0 22 629 468 listRandom 0;
#X obj 84 4 inlet;
#X msg 83 121 seed \$1;
#X obj 171 362 list prepend;
#X obj 264 363 t a;
#X obj 171 266 until;
#X obj 148 119 t b b b;
#X obj 148 383 list;
#X obj 266 41 inlet;
#X obj 148 416 outlet;
#X text 84 -22 seed/bang;
#X text 267 17 length;
#X obj 171 245 f 1;
#X obj 266 140 max 1;
#X obj 171 332 + 1;
#X obj 171 300 random 98;
#X obj 125 65 until;
#X obj 84 36 route bang float seed;
#X connect 0 0 16 0;
#X connect 1 0 14 0;
#X connect 2 0 3 0;
#X connect 2 0 6 1;
#X connect 3 0 2 1;
#X connect 4 0 14 0;
#X connect 5 0 6 0;
#X connect 5 1 11 0;
#X connect 5 2 2 1;
#X connect 6 0 8 0;
#X connect 7 0 12 0;
#X connect 11 0 4 0;
#X connect 12 0 11 1;
#X connect 13 0 2 0;
#X connect 14 0 13 0;
#X connect 15 0 5 0;
#X connect 16 0 5 0;
#X connect 16 1 15 0;
#X connect 16 2 1 0;
#X restore 20 129 pd listRandom;
#X obj 20 79 bng 15 250 50 0 empty empty empty 17 7 0 10 -262144 -1
-1;
#X floatatom 42 79 5 0 0 1 nrCases - -;
#X floatatom 200 113 5 0 0 1 dimensions - -;
#X obj 20 171 starDiagram 8;
#X msg 346 154 clear;
#X text 402 42 2013 Gilberto Bernardes;
#X text 208 217 arg:;
#X text 208 238 dimensions;
#N canvas 449 357 494 344 META 0;
#X text 12 45 LICENSE GPL v3;
#X text 12 163 RELEASE_DATE 2013;
#X text 12 143 WEBSITE https://sites.google.com/site/eargram/;
#X text 12 123 AUTHOR Gilberto Bernardes;
#X text 12 25 KEYWORDS;
#X text 12 103 LIBRARY earGram_abs;
#X text 12 65 DESCRIPTION plots multidimensional points in a star diagram
;
#X text 12 84 INLET_0 list dimensions clear;
#X restore 497 340 pd META;
#X text 18 44 plots multidimensional points in a star diagram;
#X connect 1 0 6 0;
#X connect 2 0 6 0;
#X connect 3 0 2 0;
#X connect 4 0 2 0;
#X connect 5 0 1 0;
#X connect 5 0 2 1;
#X connect 7 0 6 0;
