#N canvas 471 325 498 314 10;
#X obj 14 -5 inlet;
#X obj 168 -5 inlet;
#X obj 195 99 expr if($f2 > ($f1-1) \, 0 \, 1);
#X obj 168 58 t f f;
#X obj 430 2 loadbang;
#X obj 430 31 \$1;
#N canvas 55 365 450 300 Total-internal-equation.6 1;
#X obj 31 28 inlet;
#X obj 86 28 inlet;
#X obj 236 33 inlet;
#X obj 221 85 -;
#X obj 221 112 i;
#N canvas 53 74 450 300 Inner-Equation.5 0;
#X obj 23 17 inlet;
#X obj 119 16 inlet;
#X obj 176 16 inlet;
#X obj 23 43 - 2;
#X obj 23 128 %;
#X obj 23 154 /;
#X obj 23 178 + 1;
#X obj 23 204 %;
#X obj 23 228 + 1;
#X obj 23 254 outlet;
#N canvas 534 241 450 300 Pof_(Qj)(j=1toz).2 0;
#X obj 43 14 inlet;
#X obj 43 39 t f b;
#X obj 43 67 Uzi;
#X obj 43 96 counter 0 0 0;
#X obj 118 72 - 1;
#X msg 200 56 set 1;
#X obj 43 122 + 1;
#N canvas 467 240 319 313 reader 1;
#X obj 14 19 inlet;
#X obj 14 44 t b f;
#X obj 14 72 list;
#X obj 79 55 r stratification-divisors;
#X obj 14 98 zl nth;
#X obj 14 124 route float;
#X obj 77 179 zl len;
#X obj 14 229 outlet;
#X obj 77 152 coll data/psi-functions.txt;
#C restore;
#X connect 0 0 1 0;
#X connect 1 0 2 0;
#X connect 1 1 4 1;
#X connect 2 0 4 0;
#X connect 3 0 2 1;
#X connect 4 0 5 0;
#X connect 5 0 7 0;
#X connect 5 1 8 0;
#X connect 6 0 7 0;
#X connect 8 0 6 0;
#X restore 43 147 pd reader;
#X obj 4 193 accum 1;
#X obj 4 220 outlet;
#X connect 0 0 1 0;
#X connect 1 0 2 0;
#X connect 1 0 4 0;
#X connect 1 1 5 0;
#X connect 2 0 3 0;
#X connect 2 1 8 0;
#X connect 3 0 6 0;
#X connect 4 0 3 4;
#X connect 5 0 8 0;
#X connect 6 0 7 0;
#X connect 7 0 8 2;
#X connect 8 0 9 0;
#X restore 119 68 pd Pof_(Qj)(j=1toz).2;
#N canvas 223 254 313 318 Pof_(Qz+1-k)(k=0tor).2 0;
#X obj 27 16 inlet;
#X obj 155 15 inlet;
#X obj 27 47 t b f;
#X obj 27 99 t f b;
#X obj 27 74 i;
#X obj 27 123 + 1;
#X obj 27 148 Uzi;
#X obj 27 175 counter 0 0 0;
#X msg 141 116 set 1;
#X obj 7 253 accum 1;
#N canvas 497 298 232 170 Qz+1-k2 0;
#X obj 32 27 inlet;
#X obj 131 22 inlet;
#X obj 32 61 expr $f2 + 1 -$f1;
#N canvas 467 240 319 313 reader 1;
#X obj 14 19 inlet;
#X obj 14 44 t b f;
#X obj 14 72 list;
#X obj 79 55 r stratification-divisors;
#X obj 14 98 zl nth;
#X obj 14 124 route float;
#X obj 77 179 zl len;
#X obj 14 229 outlet;
#X obj 77 152 coll data/psi-functions.txt;
#C restore;
#X connect 0 0 1 0;
#X connect 1 0 2 0;
#X connect 1 1 4 1;
#X connect 2 0 4 0;
#X connect 3 0 2 1;
#X connect 4 0 5 0;
#X connect 5 0 7 0;
#X connect 5 1 8 0;
#X connect 6 0 7 0;
#X connect 8 0 6 0;
#X restore 32 91 pd reader;
#X obj 32 121 outlet;
#X connect 0 0 2 0;
#X connect 1 0 2 1;
#X connect 2 0 3 0;
#X connect 3 0 4 0;
#X restore 27 199 pd Qz+1-k2;
#X obj 7 277 outlet;
#X connect 0 0 2 0;
#X connect 1 0 4 1;
#X connect 2 0 4 0;
#X connect 2 1 10 1;
#X connect 3 0 5 0;
#X connect 3 0 7 4;
#X connect 3 1 8 0;
#X connect 4 0 3 0;
#X connect 5 0 6 0;
#X connect 6 0 7 0;
#X connect 6 1 9 0;
#X connect 7 0 10 0;
#X connect 8 0 9 0;
#X connect 9 0 11 0;
#X connect 10 0 9 2;
#X restore 254 67 pd Pof_(Qz+1-k)(k=0tor).2;
#N canvas 524 294 450 300 Qz-r2 0;
#X obj 60 80 -;
#X obj 44 36 inlet;
#X obj 112 35 inlet;
#N canvas 467 240 319 313 reader 1;
#X obj 14 19 inlet;
#X obj 14 44 t b f;
#X obj 14 72 list;
#X obj 79 55 r stratification-divisors;
#X obj 14 98 zl nth;
#X obj 14 124 route float;
#X obj 77 179 zl len;
#X obj 14 229 outlet;
#X obj 77 152 coll data/psi-functions.txt;
#C restore;
#X connect 0 0 1 0;
#X connect 1 0 2 0;
#X connect 1 1 4 1;
#X connect 2 0 4 0;
#X connect 3 0 2 1;
#X connect 4 0 5 0;
#X connect 5 0 7 0;
#X connect 5 1 8 0;
#X connect 6 0 7 0;
#X connect 8 0 6 0;
#X restore 59 118 pd reader;
#X obj 60 151 outlet;
#X connect 0 0 3 0;
#X connect 1 0 0 0;
#X connect 2 0 0 1;
#X connect 3 0 4 0;
#X restore 158 187 pd Qz-r2;
#X obj 119 254 outlet;
#X obj 119 42 t f f f;
#X obj 176 42 t f f;
#X connect 0 0 3 0;
#X connect 1 0 14 0;
#X connect 2 0 15 0;
#X connect 3 0 4 0;
#X connect 4 0 5 0;
#X connect 5 0 6 0;
#X connect 6 0 7 0;
#X connect 7 0 8 0;
#X connect 8 0 9 0;
#X connect 10 0 4 1;
#X connect 10 0 13 0;
#X connect 11 0 5 1;
#X connect 12 0 7 1;
#X connect 14 0 10 0;
#X connect 14 1 11 0;
#X connect 14 2 12 0;
#X connect 15 0 11 1;
#X connect 15 1 12 1;
#X restore 31 120 pd Inner-Equation.5;
#N canvas 571 218 311 224 reader2 0;
#X obj 31 33 inlet;
#X obj 31 94 list;
#X obj 81 77 r stratification-divisors;
#X obj 31 122 zl nth;
#X obj 31 154 outlet;
#X obj 31 63 t b f;
#X connect 0 0 5 0;
#X connect 1 0 3 0;
#X connect 2 0 1 1;
#X connect 3 0 4 0;
#X connect 5 0 1 0;
#X connect 5 1 3 1;
#X restore 221 142 pd reader2;
#X obj 31 258 outlet;
#X obj 142 264 outlet;
#X msg 31 194 nth \$2 \$1;
#X obj 31 159 list append;
#X obj 31 227 coll data/psi-functions.txt;
#C restore;
#X connect 0 0 5 0;
#X connect 1 0 3 0;
#X connect 1 0 5 1;
#X connect 2 0 3 1;
#X connect 2 0 5 2;
#X connect 3 0 4 0;
#X connect 4 0 6 0;
#X connect 5 0 10 0;
#X connect 5 1 8 0;
#X connect 6 0 10 1;
#X connect 9 0 11 0;
#X connect 10 0 9 0;
#X connect 11 0 7 0;
#X restore 14 195 pd Total-internal-equation.6;
#X obj 14 229 *;
#X obj 195 121 t f f f;
#X obj 213 -5 inlet;
#X obj 213 17 b;
#X obj 168 34 f;
#X obj 14 260 outlet;
#N canvas 452 368 335 297 Pof_(Qi)(i=otoz-r-1).2 0;
#X obj 28 18 inlet;
#X obj 133 19 inlet;
#X obj 28 58 expr $f1 - $f2 - 1;
#X obj 28 85 t f b;
#X obj 28 111 + 1;
#X obj 28 137 Uzi;
#X obj 28 163 counter 0 0 0;
#N canvas 467 239 319 313 reader 1;
#X obj 14 19 inlet;
#X obj 14 44 t b f;
#X obj 14 72 list;
#X obj 79 55 r stratification-divisors;
#X obj 14 98 zl nth;
#X obj 14 124 route float;
#X obj 77 179 zl len;
#X obj 14 229 outlet;
#X obj 77 152 coll data/psi-functions.txt;
#C restore;
#X connect 0 0 1 0;
#X connect 1 0 2 0;
#X connect 1 1 4 1;
#X connect 2 0 4 0;
#X connect 3 0 2 1;
#X connect 4 0 5 0;
#X connect 5 0 7 0;
#X connect 5 1 8 0;
#X connect 6 0 7 0;
#X connect 8 0 6 0;
#X restore 28 189 pd reader;
#X obj -11 226 accum 1;
#X msg 179 102 set 1;
#X obj -11 252 outlet;
#X connect 0 0 2 0;
#X connect 1 0 2 1;
#X connect 2 0 3 0;
#X connect 3 0 4 0;
#X connect 3 0 6 4;
#X connect 3 1 9 0;
#X connect 4 0 5 0;
#X connect 5 0 6 0;
#X connect 5 1 8 0;
#X connect 6 0 7 0;
#X connect 7 0 8 2;
#X connect 8 0 10 0;
#X connect 9 0 8 0;
#X restore 283 212 pd Pof_(Qi)(i=otoz-r-1).2;
#X obj 179 266 outlet;
#X obj 14 138 spigot;
#X obj 96 138 spigot;
#X obj 283 138 spigot;
#X connect 0 0 15 0;
#X connect 1 0 11 0;
#X connect 2 0 8 0;
#X connect 3 0 16 0;
#X connect 3 0 17 0;
#X connect 3 1 2 0;
#X connect 4 0 5 0;
#X connect 5 0 2 1;
#X connect 5 0 6 2;
#X connect 5 0 13 1;
#X connect 6 0 7 0;
#X connect 6 1 14 0;
#X connect 7 0 12 0;
#X connect 8 0 15 1;
#X connect 8 1 16 1;
#X connect 8 2 17 1;
#X connect 9 0 10 0;
#X connect 10 0 11 0;
#X connect 11 0 3 0;
#X connect 13 0 7 1;
#X connect 15 0 6 0;
#X connect 16 0 6 1;
#X connect 17 0 13 0;
