#N struct 1479-block float bordercolor float color float xx float yy
;
#N canvas 623 67 676 348 10;
#N canvas 306 304 689 386 runtime-movable-box 1;
#X obj -165 277 outlet;
#X obj -141 55 filledpolygon color bordercolor 4 xx(0:100)(0:100) yy(0:100)(0:100)
xx(0:100)(6:106) yy(0:100)(0:100) xx(0:100)(6:106) yy(0:100)(6:106)
xx(0:100)(0:100) yy(0:100)(6:106);
#X obj -165 18 struct \$0-block float bordercolor float color float
xx float yy;
#X msg 323 203 next;
#X obj 285 288 pointer;
#X obj 265 19 inlet;
#X obj 284 203 \$0;
#X msg 285 232 traverse pd-\$1-display \, next;
#X obj 265 45 list split 1;
#X obj 284 100 until;
#X obj 284 128 f;
#X obj 313 128 + 1;
#X obj 349 111 0;
#X obj 284 153 moses 1;
#X obj 180 239 list;
#X obj 284 177 b;
#X obj 265 74 t b f b;
#X obj 323 177 b;
#X obj -165 140 route change click;
#N canvas 579 377 507 306 setBorderColor 0;
#X obj 21 193 set \$0-block bordercolor;
#X obj 21 151 expr if ($f1==999 \, $f2 \, 999);
#X obj 21 34 inlet;
#X obj 21 65 t a a;
#X obj 21 106 get \$0-block bordercolor color xx yy;
#X text 291 219 (color \, onOff \, xPos \, yPos);
#X obj 214 222 pack f f f f;
#X obj 214 195 swap;
#X obj 214 168 expr if($f1==999 \, 0 \, 1);
#X obj 214 249 outlet;
#X connect 1 0 0 0;
#X connect 1 0 8 0;
#X connect 2 0 3 0;
#X connect 3 0 4 0;
#X connect 3 1 0 1;
#X connect 4 0 1 0;
#X connect 4 1 1 1;
#X connect 4 1 7 1;
#X connect 4 2 6 2;
#X connect 4 3 6 3;
#X connect 6 0 9 0;
#X connect 7 0 6 0;
#X connect 7 1 6 1;
#X connect 8 0 7 0;
#X restore -113 198 pd setBorderColor;
#N canvas 0 22 450 300 doubleClick 0;
#X obj 59 106 < 250;
#X obj 26 26 inlet;
#X obj 26 206 outlet;
#X obj 26 50 t a b b;
#X obj 59 84 timer;
#X obj 26 153 spigot;
#X obj 59 128 == 1;
#X obj 26 179 list split 1;
#X connect 0 0 6 0;
#X connect 1 0 3 0;
#X connect 3 0 5 0;
#X connect 3 1 4 0;
#X connect 3 2 4 1;
#X connect 4 0 0 0;
#X connect 5 0 7 0;
#X connect 6 0 5 1;
#X connect 7 0 2 0;
#X restore -113 170 pd doubleClick;
#N canvas 422 480 450 300 trackMovement 0;
#X obj 2 32 get \$0-block bordercolor color xx yy;
#X text 79 114 (color \, onOff \, xPos \, yPos);
#X obj 2 117 pack f f f f;
#X obj 2 90 swap;
#X obj 2 58 expr if($f1==999 \, 0 \, 1);
#X obj 2 8 inlet;
#X obj 2 146 outlet;
#X connect 0 0 4 0;
#X connect 0 1 3 1;
#X connect 0 2 2 2;
#X connect 0 3 2 3;
#X connect 2 0 6 0;
#X connect 3 0 2 0;
#X connect 3 1 2 1;
#X connect 4 0 3 0;
#X connect 5 0 0 0;
#X restore -165 250 pd trackMovement;
#X obj 180 315 set \$0-block xx yy;
#X text 313 17 -- init --;
#X connect 2 0 18 0;
#X connect 3 0 4 0;
#X connect 4 0 22 2;
#X connect 5 0 8 0;
#X connect 6 0 7 0;
#X connect 7 0 4 0;
#X connect 8 0 16 0;
#X connect 8 1 14 1;
#X connect 9 0 10 0;
#X connect 10 0 11 0;
#X connect 10 0 13 0;
#X connect 11 0 10 1;
#X connect 12 0 10 1;
#X connect 13 0 15 0;
#X connect 13 1 17 0;
#X connect 14 0 22 0;
#X connect 15 0 6 0;
#X connect 16 0 14 0;
#X connect 16 1 9 0;
#X connect 16 2 12 0;
#X connect 17 0 3 0;
#X connect 18 0 21 0;
#X connect 18 1 20 0;
#X connect 19 0 0 0;
#X connect 20 0 19 0;
#X connect 21 0 0 0;
#X restore -199 264 pd runtime-movable-box;
#X msg -125 219 clear;
#X obj -199 291 outlet;
#X obj -318 11 inlet;
#X obj 0 0 cnv 15 200 200 empty \$0-cnvBox empty 20 12 0 14 -1 -66577
0;
#N canvas 220 23 1080 747 \$0-display 0;
#X scalar 1479-block 999 555 33.685 17.115 \;;
#X scalar 1479-block 999 900 58.535 56.24 \;;
#X scalar 1479-block 999 990 43.32 44.455 \;;
#X scalar 1479-block 999 209 77.78 28.54 \;;
#X coords -3 -3 108 108 200 200 1 0 0;
#X restore 0 0 pd \$0-display;
#X obj -318 236 s pd-\$0-display;
#X obj -270 11 namecanvas \$0-triggerBox;
#X obj -125 195 loadbang;
#X obj -318 64 route float;
#X obj -255 112 list trim;
#X obj -255 89 list prepend \$0;
#X msg -255 137 scalar \$1-block 999 \$2 \$3 \$4;
#X obj -318 162 list prepend \$0;
#X obj -318 186 list trim;
#X msg -318 210 scalar \$1-block 999 \$2 50 50;
#N canvas 458 22 689 311 resize 0;
#X obj 30 21 inlet;
#X obj 30 210 s pd-\$0-display;
#X obj 30 148 pack;
#X obj 30 123 t f f;
#X obj 392 195 s \$0-cnvBox;
#X msg 392 165 vis_size \$1 \$2;
#X obj 30 45 moses 100;
#X obj 30 69 b;
#X obj 30 93 100;
#X obj 49 236 s \$0-triggerBox;
#X msg 30 173 donecanvasdialog 1 -1 1 -3 -3 108 108 \$1 \$2 0 0 \,
dirty 0;
#X connect 0 0 6 0;
#X connect 2 0 10 0;
#X connect 2 0 5 0;
#X connect 3 0 2 0;
#X connect 3 1 2 1;
#X connect 5 0 4 0;
#X connect 6 0 7 0;
#X connect 6 1 3 0;
#X connect 7 0 8 0;
#X connect 8 0 3 0;
#X connect 10 0 1 0;
#X connect 10 0 9 0;
#X restore -239 64 pd resize;
#X obj -318 39 route newBox clear size pos;
#X connect 0 0 2 0;
#X connect 1 0 6 0;
#X connect 3 0 17 0;
#X connect 8 0 1 0;
#X connect 9 0 13 0;
#X connect 9 1 11 0;
#X connect 10 0 12 0;
#X connect 11 0 10 0;
#X connect 12 0 6 0;
#X connect 13 0 14 0;
#X connect 14 0 15 0;
#X connect 15 0 6 0;
#X connect 17 0 9 0;
#X connect 17 1 1 0;
#X connect 17 2 16 0;
#X connect 17 3 0 0;
#X coords -3 -3 108 108 200 200 1 0 0;
