#N struct 2028-squareWav float x float y float a float b float c float
d;
#N struct 2028-pointer float x float y;
#N canvas 339 316 999 464 10;
#N canvas 31 517 399 243 guts 1;
#X obj 5 -37 inlet;
#X obj 140 50 s \$0-clear;
#N canvas 768 22 516 503 plotWav 0;
#X obj 51 -265 inlet;
#X msg 243 -162 set \$1;
#X obj 51 -204 symbol;
#X obj 108 105 outlet;
#N canvas 0 22 477 406 scrolling 0;
#X obj 167 115 r \$0-scroll>;
#X obj 76 115 r \$0-scroll<;
#X obj 314 100 r \$0-currentTabSize;
#X obj 76 203 + 0;
#X obj 314 124 / 2;
#X obj 76 172 * -1;
#X obj 167 141 f;
#X obj 76 141 f;
#X obj 127 205 r \$0-tabSize;
#X obj 76 230 clip 0 50;
#X obj 76 254 i;
#X obj 76 278 change;
#X obj 76 301 t b f;
#X obj 103 325 s \$0-initSample;
#X obj 76 359 outlet;
#X obj 246 261 inlet;
#X obj 37 37 inlet;
#X connect 0 0 6 0;
#X connect 1 0 7 0;
#X connect 2 0 4 0;
#X connect 3 0 9 0;
#X connect 4 0 6 1;
#X connect 4 0 7 1;
#X connect 5 0 3 0;
#X connect 6 0 3 0;
#X connect 7 0 5 0;
#X connect 8 0 9 2;
#X connect 9 0 3 1;
#X connect 9 0 10 0;
#X connect 10 0 11 0;
#X connect 11 0 12 0;
#X connect 12 0 14 0;
#X connect 12 1 13 0;
#X connect 15 0 11 0;
#X connect 16 0 9 0;
#X restore 51 47 pd scrolling;
#N canvas 652 22 586 519 zooming 0;
#X obj 211 228 f;
#X obj 226 202 r \$0-tabSize;
#X obj 142 51 -1;
#X obj 270 59 1;
#X obj 142 76 + 0;
#X obj 142 25 r \$0-zoom-;
#X obj 270 34 r \$0-zoom+;
#X obj 142 253 expr $f2/$f1;
#X obj 142 161 clip 1 50;
#X obj 193 306 s \$0-currentTabSize;
#X obj 159 383 outlet;
#X obj 142 467 outlet;
#X obj 9 25 inlet;
#X obj 384 20 inlet;
#X obj 142 126 f 0;
#X text 426 20 (set table);
#X text 47 25 (bng: plot);
#X obj 181 109 r \$0-initLenght;
#N canvas 462 22 475 628 meanValues 0;
#X obj 22 91 until;
#X obj 22 118 f;
#X obj 53 118 + 1;
#X obj 110 101 0;
#X obj 22 16 inlet;
#X obj 22 40 t b f b;
#X obj 22 594 outlet;
#X obj 37 360 tabread;
#X obj 37 334 +;
#X obj 52 310 r \$0-initSample;
#X obj 37 256 until;
#X obj 37 286 f;
#X obj 68 287 + 1;
#X obj 391 23 inlet;
#X obj 37 232 i 1;
#X obj 37 450 runningAverage;
#X obj 22 200 t b b f;
#X obj 37 423 moses 0;
#X obj 134 450 runningAverage;
#X msg 274 433 reset;
#X obj 49 478 f;
#X obj 22 395 t b b;
#X obj 22 570 pack f f f;
#X obj 22 478 f;
#X obj 23 549 i;
#X obj 58 548 i;
#X obj 22 145 t f f b;
#X obj 22 173 expr rint($f1*$f2);
#X obj 146 215 clip 1 50;
#X obj 22 515 * 800;
#X obj 63 514 * 800;
#X obj 137 532 * 200;
#X obj 22 66 1000;
#X obj 146 156 / 1000;
#X connect 0 0 1 0;
#X connect 1 0 2 0;
#X connect 1 0 26 0;
#X connect 2 0 1 1;
#X connect 3 0 1 1;
#X connect 4 0 5 0;
#X connect 5 0 32 0;
#X connect 5 1 33 0;
#X connect 5 2 3 0;
#X connect 7 0 17 0;
#X connect 8 0 7 0;
#X connect 9 0 8 1;
#X connect 10 0 11 0;
#X connect 11 0 12 0;
#X connect 11 0 8 0;
#X connect 12 0 11 1;
#X connect 13 0 7 0;
#X connect 14 0 10 0;
#X connect 15 0 23 1;
#X connect 16 0 21 0;
#X connect 16 1 14 0;
#X connect 16 2 11 1;
#X connect 17 0 15 0;
#X connect 17 1 18 0;
#X connect 18 0 20 1;
#X connect 19 0 18 0;
#X connect 19 0 15 0;
#X connect 20 0 30 0;
#X connect 21 0 23 0;
#X connect 21 1 20 0;
#X connect 22 0 6 0;
#X connect 23 0 29 0;
#X connect 24 0 22 0;
#X connect 25 0 22 1;
#X connect 26 0 27 0;
#X connect 26 1 31 0;
#X connect 26 2 19 0;
#X connect 27 0 16 0;
#X connect 28 0 14 1;
#X connect 29 0 24 0;
#X connect 30 0 25 0;
#X connect 31 0 22 2;
#X connect 32 0 0 0;
#X connect 33 0 27 1;
#X connect 33 0 28 0;
#X restore 142 418 pd meanValues;
#X obj 176 338 s \$0-clear;
#X obj 142 211 t f b;
#X obj 142 281 t f b b f;
#X connect 0 0 7 1;
#X connect 1 0 0 1;
#X connect 2 0 4 0;
#X connect 3 0 4 0;
#X connect 4 0 14 0;
#X connect 5 0 2 0;
#X connect 6 0 3 0;
#X connect 7 0 21 0;
#X connect 8 0 4 1;
#X connect 8 0 20 0;
#X connect 12 0 14 0;
#X connect 13 0 18 1;
#X connect 14 0 8 0;
#X connect 17 0 14 1;
#X connect 18 0 11 0;
#X connect 20 0 7 0;
#X connect 20 1 0 0;
#X connect 21 0 18 0;
#X connect 21 1 10 0;
#X connect 21 2 19 0;
#X connect 21 3 9 0;
#X restore 51 75 pd zooming;
#X obj 70 -4 s \$0-initSample;
#X msg 120 24 set -1;
#X obj 51 -133 0;
#X obj 238 32 s \$0-initLenght;
#X obj 238 8 i;
#X obj 238 -16 / 200000;
#X obj 70 -157 s \$0-clear;
#N canvas 32 210 542 488 plotWave 0;
#X obj 295 29 pointer;
#X obj 295 -20 \$0;
#X obj 378 -84 loadbang;
#X msg 322 -42 clear;
#X obj 295 -67 t b b;
#N canvas 119 175 429 139 structWav 0;
#X obj -3 81 r \$0-wav;
#X obj -5 33 struct \$0-squareWav float x float y float a float b float
c float d;
#X obj -3 108 filledpolygon 900 900 0 0 a 0 b 200 c 200 d;
#X connect 0 0 2 0;
#X restore 350 -370 pd structWav;
#X obj 351 -344 cnv 15 100 60 empty empty empty 20 12 0 14 -233017
-66577 0;
#X text 354 -345 b;
#X text 355 -301 a;
#X text 438 -346 c;
#X text 440 -302 d;
#X msg 295 4 traverse pd-\$1-wavData \, bang;
#X obj 322 -21 s pd-\$0-wavData;
#X obj 116 -108 t l;
#X obj 24 -125 list append;
#X obj 116 -84 list split 3;
#X obj 24 -96 list split 6;
#X msg 24 19 \$3 -11 \$4 \$5 \$2 \$1;
#X obj 24 46 append \$0-squareWav x y a b c d;
#X obj 295 -99 r \$0-clear;
#X obj 24 -156 inlet;
#X obj 87 -156 r \$0-clear;
#X connect 0 0 18 6;
#X connect 1 0 11 0;
#X connect 2 0 4 0;
#X connect 3 0 12 0;
#X connect 4 0 1 0;
#X connect 11 0 0 0;
#X connect 13 0 15 0;
#X connect 14 0 13 0;
#X connect 14 0 16 0;
#X connect 15 0 14 1;
#X connect 16 0 17 0;
#X connect 17 0 18 0;
#X connect 19 0 4 0;
#X connect 20 0 14 0;
#X connect 21 0 14 1;
#X restore 51 130 pd plotWave;
#X obj -70 -122 r \$0-newInitPoint;
#X obj 51 -105 t f f b;
#X obj 238 -40 once;
#X obj 259 -64 r \$0-clear;
#X obj 90 -57 expr size("$s1");
#X obj 90 -33 s \$0-tabSize;
#X obj 90 -81 symbol;
#X obj 51 -179 t b b s;
#X connect 0 0 2 0;
#X connect 1 0 5 1;
#X connect 2 0 21 0;
#X connect 4 0 5 0;
#X connect 5 0 13 0;
#X connect 5 1 3 0;
#X connect 7 0 4 1;
#X connect 8 0 15 0;
#X connect 10 0 9 0;
#X connect 11 0 10 0;
#X connect 14 0 15 0;
#X connect 15 0 4 0;
#X connect 15 1 7 0;
#X connect 15 1 6 0;
#X connect 15 2 20 0;
#X connect 16 0 11 0;
#X connect 17 0 16 1;
#X connect 18 0 19 0;
#X connect 18 0 16 0;
#X connect 20 0 18 0;
#X connect 21 0 8 0;
#X connect 21 1 12 0;
#X connect 21 2 1 0;
#X connect 21 2 20 1;
#X restore 5 120 pd plotWav;
#N canvas 301 99 907 506 plotSegmentsMarkers 0;
#X obj 524 -39 inlet;
#X obj 100 309 pack f \$0;
#X msg 100 334 scalar \$2-waveSegment \$1;
#X obj 100 360 s pd-\$0-barkSeg;
#X obj 628 336 pointer;
#X obj 628 287 \$0;
#X msg 628 311 traverse pd-\$1-barkSeg \, bang;
#X obj 357 353 append \$0-squareBarkSeg color x y w h;
#N canvas 534 22 608 445 colorSequencePosition 0;
#X obj 219 172 num2rgb;
#X obj 30 417 outlet;
#X obj 240 21 inlet;
#X obj 219 144 list-drip;
#X obj 219 228 t f b;
#X obj 219 116 t l b;
#X obj 246 252 f;
#X obj 274 252 + 1;
#X obj 23 19 inlet;
#X obj 91 19 inlet;
#X obj 219 91 list;
#X obj 23 46 t b f;
#X obj 219 201 expr (rint($f1*9)*100)+(rint($f2*9)*10)+(rint($f3*9))
;
#X text 129 387 (color \, x \, y \, w \, h);
#X obj 328 235 0;
#X obj 30 389 pack f f f f 1;
#X connect 0 0 12 0;
#X connect 2 0 10 1;
#X connect 3 0 0 0;
#X connect 4 0 15 0;
#X connect 4 1 6 0;
#X connect 5 0 3 0;
#X connect 5 1 14 0;
#X connect 6 0 7 0;
#X connect 6 0 15 2;
#X connect 7 0 6 1;
#X connect 8 0 11 0;
#X connect 9 0 15 3;
#X connect 10 0 5 0;
#X connect 11 0 10 0;
#X connect 11 1 15 1;
#X connect 12 0 4 0;
#X connect 14 0 6 1;
#X connect 15 0 1 0;
#X restore 357 330 pd colorSequencePosition;
#X obj 628 183 loadbang;
#N canvas 119 175 429 139 structSquareBark 0;
#X obj -3 108 filledpolygon color color 0 0 0 w 0 w h 0 h;
#X obj -5 33 struct \$0-squareBarkSeg float color float x float y float
w float h;
#X obj -3 81 r \$0-spec;
#X connect 2 0 0 0;
#X restore 709 -56 pd structSquareBark;
#N canvas 833 22 450 300 structLineSeg 0;
#X obj 17 142 route change click;
#X obj 69 169 list split 1;
#X obj 17 221 get \$0-waveSegment xx;
#X obj 17 20 struct \$0-waveSegment float xx float idx;
#X obj 45 86 drawpolygon 444 1 xx(0:20000)(0:20000) 0 xx(0:20000)(0:20000)
23;
#X obj 45 59 r \$0-markers;
#X connect 0 0 2 0;
#X connect 0 1 1 0;
#X connect 1 0 2 0;
#X connect 3 0 0 0;
#X connect 5 0 4 0;
#X restore 709 -77 pd structLineSeg;
#X obj 655 286 s pd-\$0-barkSeg;
#X msg 655 265 clear;
#X obj 100 218 list split 2;
#N canvas 0 22 461 345 initPositionLenght 0;
#X obj 40 73 unpack;
#X obj 40 10 inlet;
#X obj 171 284 outlet;
#X obj 286 288 outlet;
#X text 339 286 length;
#X text 217 283 initPos;
#X obj 171 241 t f f;
#X obj 286 258 expr $f2-$f1;
#X obj 290 71 r \$0-currentTabSize;
#X obj 95 29 r \$0-initSample;
#X obj 290 99 +;
#X obj 186 57 t b f;
#X obj 40 216 moses 0;
#X obj 79 279 outlet;
#X obj 40 174 t f f;
#X obj 224 123 maxlib/scale 0 44100 0 1000;
#X obj 355 228 clip 0 1000;
#X obj 171 206 clip 0 1000;
#X obj 40 123 maxlib/scale 0 44100 0 1000;
#X obj 40 149 expr rint($f1);
#X obj 224 147 expr rint($f1);
#X connect 0 0 18 0;
#X connect 0 1 15 0;
#X connect 1 0 0 0;
#X connect 6 0 2 0;
#X connect 6 1 7 0;
#X connect 7 0 3 0;
#X connect 8 0 10 0;
#X connect 9 0 11 0;
#X connect 9 0 15 1;
#X connect 9 0 18 1;
#X connect 10 0 15 2;
#X connect 10 0 18 2;
#X connect 11 0 10 0;
#X connect 11 1 10 1;
#X connect 12 1 13 0;
#X connect 14 0 12 0;
#X connect 14 1 17 0;
#X connect 15 0 20 0;
#X connect 16 0 7 1;
#X connect 17 0 6 0;
#X connect 18 0 19 0;
#X connect 19 0 14 0;
#X connect 20 0 16 0;
#X restore 100 253 pd initPositionLenght;
#X obj 709 -35 table \$0-storedData;
#N canvas 0 22 496 301 storedData 0;
#X obj 185 110 r \$0-tabSize;
#X obj 59 72 t l b;
#X obj 122 89 f;
#X obj 150 89 + 1;
#X obj 187 72 0;
#X obj 59 30 inlet;
#X obj 170 190 s \$0-nrSeg;
#X obj 187 30 r \$0-clear;
#X obj 59 134 2d.tabwrite \$0-storedData 100 25;
#X text 272 136 (seg start \, seg end \, barkSpec);
#X connect 0 0 8 2;
#X connect 1 0 8 0;
#X connect 1 1 2 0;
#X connect 2 0 3 0;
#X connect 2 0 6 0;
#X connect 2 0 8 1;
#X connect 3 0 2 1;
#X connect 4 0 2 1;
#X connect 5 0 1 0;
#X connect 7 0 4 0;
#X restore 524 1 pd storedData;
#X obj 211 88 r \$0-currentTabSize;
#X obj 100 -100 inlet;
#X obj 153 -63 r \$0-nrSeg;
#X obj 100 -20 until;
#X obj 100 7 f;
#X obj 136 7 + 1;
#X obj 100 -73 t b b;
#X obj 100 -46 f;
#X obj 647 210 r \$0-clear;
#X obj 182 -10 0;
#X obj 211 141 +;
#X obj 147 66 r \$0-initSample;
#X obj 147 88 t b f;
#X obj 155 192 list-bounds 1 0 100;
#X obj 628 240 t b b;
#X obj 100 166 list-bounds 0 0 100;
#X obj 100 34 2d.tabread \$0-storedData 25;
#X connect 0 0 17 0;
#X connect 0 0 33 0;
#X connect 1 0 2 0;
#X connect 2 0 3 0;
#X connect 4 0 7 5;
#X connect 5 0 6 0;
#X connect 6 0 4 0;
#X connect 8 0 7 0;
#X connect 9 0 32 0;
#X connect 13 0 12 0;
#X connect 14 0 15 0;
#X connect 14 1 8 2;
#X connect 15 0 1 0;
#X connect 15 1 8 0;
#X connect 15 2 8 1;
#X connect 18 0 28 0;
#X connect 19 0 24 0;
#X connect 20 0 25 1;
#X connect 21 0 22 0;
#X connect 22 0 23 0;
#X connect 22 0 34 0;
#X connect 23 0 22 1;
#X connect 24 0 25 0;
#X connect 24 1 27 0;
#X connect 25 0 21 0;
#X connect 26 0 32 0;
#X connect 27 0 22 1;
#X connect 28 0 31 3;
#X connect 28 0 33 3;
#X connect 29 0 30 0;
#X connect 30 0 28 0;
#X connect 30 1 28 1;
#X connect 30 1 31 2;
#X connect 30 1 33 2;
#X connect 31 0 14 0;
#X connect 32 0 5 0;
#X connect 32 1 13 0;
#X connect 33 0 14 0;
#X connect 33 1 31 0;
#X connect 34 0 33 0;
#X restore 5 147 pd plotSegmentsMarkers;
#N canvas 359 22 645 456 pointer 0;
#X obj -75 93 r \$0-currentTabSize;
#X obj -75 129 +;
#X obj -107 33 r \$0-initSample;
#X obj -136 -14 inlet;
#X obj 242 378 pointer;
#X obj 242 329 \$0;
#X obj 291 265 loadbang;
#X msg 295 299 clear;
#X msg 242 353 traverse pd-\$1-wavData \, bang;
#X obj 295 322 s pd-\$0-wavData;
#X obj 208 250 r \$0-clear;
#N canvas 0 22 450 300 structPointer 0;
#X obj 5 43 struct \$0-pointer float x float y;
#X obj 7 118 filledpolygon 990 990 0 0 0 0 2000 300 2000 300 2;
#X restore 341 45 pd structPointer;
#X obj 225 434 append \$0-pointer x y;
#X msg 225 407 0 -1000;
#X obj -22 347 pointer;
#X obj -138 364 set \$0-pointer x;
#X obj 208 282 t b b b b;
#X obj -22 299 \$0;
#X msg -22 323 traverse pd-\$1-wavData \, next;
#X obj -138 155 maxlib/scale 0 100 0 200000;
#X obj -138 184 clip 0 200000;
#X obj 57 26 expr if($f1>$f2 || $f1<$f3 \, $f1 \, -1);
#X obj 57 50 moses 0;
#X obj 97 75 s \$0-newInitPoint;
#X obj -136 9 t f f;
#X obj -107 59 t f f;
#N canvas 249 403 450 300 old 0;
#X obj 58 181 >;
#X obj 58 254 s \$0-scroll>;
#X obj 58 204 sel 1;
#X obj 147 117 sel 1;
#X obj 147 165 s \$0-scroll<;
#X obj 148 94 <;
#X obj 58 231 speedlim 1000;
#X obj 147 142 speedlim 1000;
#X obj 73 110 * 0.9;
#X obj 163 61 * 0.9;
#X obj 73 142 +;
#X connect 0 0 2 0;
#X connect 2 0 6 0;
#X connect 3 0 7 0;
#X connect 5 0 3 0;
#X connect 6 0 1 0;
#X connect 7 0 4 0;
#X connect 8 0 10 0;
#X connect 9 0 5 1;
#X connect 10 0 0 1;
#X restore 273 133 pd old;
#X obj 83 120 * 0.9;
#X obj 83 147 +;
#X obj 138 120 * 0.9;
#X connect 0 0 1 0;
#X connect 0 0 27 0;
#X connect 1 0 19 2;
#X connect 2 0 25 0;
#X connect 3 0 24 0;
#X connect 4 0 12 2;
#X connect 5 0 8 0;
#X connect 6 0 16 0;
#X connect 7 0 9 0;
#X connect 8 0 4 0;
#X connect 10 0 16 0;
#X connect 13 0 12 0;
#X connect 14 0 15 1;
#X connect 16 0 17 0;
#X connect 16 1 13 0;
#X connect 16 2 5 0;
#X connect 16 3 7 0;
#X connect 17 0 18 0;
#X connect 18 0 14 0;
#X connect 19 0 20 0;
#X connect 20 0 15 0;
#X connect 21 0 22 0;
#X connect 22 1 23 0;
#X connect 24 0 19 0;
#X connect 24 1 21 0;
#X connect 25 0 19 1;
#X connect 25 1 1 1;
#X connect 25 1 28 1;
#X connect 25 1 29 0;
#X connect 27 0 28 0;
#X connect 28 0 21 1;
#X connect 29 0 21 2;
#X restore 95 75 pd pointer;
#N canvas 279 22 450 300 plot 0;
#X obj 21 20 inlet;
#X obj 21 45 route waveform markers spec float;
#X obj 167 81 pack f \$0;
#X msg 167 104 \; \$2-spec.r \$1 \; \$2-markers.r \$1 \; \$2-wav.r
\$1;
#X obj 118 172 s \$0-spec.r;
#X obj 69 201 s \$0-markers.r;
#X obj 21 228 s \$0-wav.r;
#X connect 0 0 1 0;
#X connect 1 0 6 0;
#X connect 1 1 5 0;
#X connect 1 2 4 0;
#X connect 1 3 2 0;
#X connect 2 0 3 0;
#X restore 185 21 pd plot;
#X obj 5 -8 route array segment pointer clear plot;
#X connect 0 0 6 0;
#X connect 2 0 3 0;
#X connect 6 0 2 0;
#X connect 6 1 3 1;
#X connect 6 2 4 0;
#X connect 6 3 1 0;
#X connect 6 4 5 0;
#X restore 11 137 pd guts;
#X obj 11 102 inlet;
#X obj 100 100 cnv 15 722 260 empty empty empty 20 12 0 14 -1 -66577
0;
#N canvas 442 350 723 393 \$0-barkSeg 0;
#X coords -0.1 23.1 1000.1 -0.1 700 200 1;
#X restore 112 113 pd \$0-barkSeg;
#X obj 112 320 cnv 15 27 27 empty empty empty 20 12 0 14 -233017 -66577
0;
#X obj 113 321 bng 25 250 50 0 \$0-zoom+ empty <+> 1 10 0 14 -1 -191407
-262144;
#X obj 143 320 cnv 15 27 27 empty empty empty 20 12 0 14 -233017 -66577
0;
#X obj 144 321 bng 25 250 50 0 \$0-zoom- empty <-> 1 10 0 14 -1 -191407
-262144;
#X obj 174 320 cnv 15 27 27 empty empty empty 20 12 0 14 -233017 -66577
0;
#X obj 175 321 bng 25 250 50 0 \$0-scroll> empty >> 5 10 0 14 -1 -191407
-262144;
#X obj 205 320 cnv 15 27 27 empty empty empty 20 12 0 14 -233017 -66577
0;
#X obj 206 321 bng 25 250 50 0 \$0-scroll< empty << 5 10 0 14 -1 -191407
-262144;
#X obj 267 320 cnv 15 27 27 empty empty empty 20 12 0 14 -233017 -66577
0;
#X obj 268 321 tgl 25 0 \$0-markers \$0-markers.r m 8 11 0 18 -1 -262144
-262144 1 1;
#X obj 298 320 cnv 15 27 27 empty empty empty 20 12 0 14 -233017 -66577
0;
#X obj 299 321 tgl 25 0 \$0-spec \$0-spec.r s 8 11 0 18 -1 -262144
-262144 1 1;
#X obj 236 320 cnv 15 27 27 empty empty empty 20 12 0 14 -233017 -66577
0;
#X obj 237 321 tgl 25 0 \$0-wav \$0-wav.r w 8 11 0 18 -1 -262144 -262144
1 1;
#N canvas 190 22 1128 509 \$0-wavData 0;
#X scalar 2028-squareWav 200 -11 0 0 0 0 \;;
#X scalar 2028-squareWav 400 -11 0 0 0 0 \;;
#X scalar 2028-squareWav 600 -11 0 0 0 0 \;;
#X scalar 2028-squareWav 800 -11 0 0 0 0 \;;
#X scalar 2028-squareWav 1000 -11 0 0 0 0 \;;
#X scalar 2028-squareWav 1200 -11 0 0 0 0 \;;
#X scalar 2028-squareWav 1400 -11 0 0 0 0 \;;
#X scalar 2028-squareWav 1600 -11 0 0 0 0 \;;
#X scalar 2028-squareWav 1800 -11 0 0 0 0 \;;
#X scalar 2028-squareWav 2000 -11 0 0 0 0 \;;
#X scalar 2028-squareWav 2200 -11 0 0 0 0 \;;
#X scalar 2028-squareWav 2400 -11 0 0 0 0 \;;
#X scalar 2028-squareWav 2600 -11 0 0 0 0 \;;
#X scalar 2028-squareWav 2800 -11 0 0 0 0 \;;
#X scalar 2028-squareWav 3000 -11 0 0 0 0 \;;
#X scalar 2028-squareWav 3200 -11 0 0 0 0 \;;
#X scalar 2028-squareWav 3400 -11 0 0 0 0 \;;
#X scalar 2028-squareWav 3600 -11 0 0 0 0 \;;
#X scalar 2028-squareWav 3800 -11 0 0 0 0 \;;
#X scalar 2028-squareWav 4000 -11 0 0 0 0 \;;
#X scalar 2028-squareWav 4200 -11 0 0 0 0 \;;
#X scalar 2028-squareWav 4400 -11 0 0 0 0 \;;
#X scalar 2028-squareWav 4600 -11 0 0 0 0 \;;
#X scalar 2028-squareWav 4800 -11 0 0 0 0 \;;
#X scalar 2028-squareWav 5000 -11 0 0 0 0 \;;
#X scalar 2028-squareWav 5200 -11 0 0 0 0 \;;
#X scalar 2028-squareWav 5400 -11 0 0 0 0 \;;
#X scalar 2028-squareWav 5600 -11 0 0 0 0 \;;
#X scalar 2028-squareWav 5800 -11 0 0 150 -265 \;;
#X scalar 2028-squareWav 6000 -11 -265 150 164 -262 \;;
#X scalar 2028-squareWav 6200 -11 -262 164 153 -227 \;;
#X scalar 2028-squareWav 6400 -11 -227 153 157 -170 \;;
#X scalar 2028-squareWav 6600 -11 -170 157 154 -201 \;;
#X scalar 2028-squareWav 6800 -11 -201 154 128 -184 \;;
#X scalar 2028-squareWav 7000 -11 -184 128 110 -153 \;;
#X scalar 2028-squareWav 7200 -11 -153 110 101 -169 \;;
#X scalar 2028-squareWav 7400 -11 -169 101 105 -109 \;;
#X scalar 2028-squareWav 7600 -11 -109 105 103 -47 \;;
#X scalar 2028-squareWav 7800 -11 -47 103 125 -59 \;;
#X scalar 2028-squareWav 8000 -11 -59 125 136 -37 \;;
#X scalar 2028-squareWav 8200 -11 -37 136 111 -27 \;;
#X scalar 2028-squareWav 8400 -11 -27 111 106 -40 \;;
#X scalar 2028-squareWav 8600 -11 -40 106 129 -61 \;;
#X scalar 2028-squareWav 8800 -11 -61 129 151 -66 \;;
#X scalar 2028-squareWav 9000 -11 -66 151 164 -50 \;;
#X scalar 2028-squareWav 9200 -11 -50 164 178 -54 \;;
#X scalar 2028-squareWav 9400 -11 -54 178 164 -41 \;;
#X scalar 2028-squareWav 9600 -11 -41 164 162 -56 \;;
#X scalar 2028-squareWav 9800 -11 -56 162 173 -50 \;;
#X scalar 2028-squareWav 10000 -11 -50 173 192 -83 \;;
#X scalar 2028-squareWav 10200 -11 -83 192 211 -72 \;;
#X scalar 2028-squareWav 10400 -11 -72 211 209 -114 \;;
#X scalar 2028-squareWav 10600 -11 -114 209 249 -192 \;;
#X scalar 2028-squareWav 10800 -11 -192 249 246 -206 \;;
#X scalar 2028-squareWav 11000 -11 -206 246 195 -209 \;;
#X scalar 2028-squareWav 11200 -11 -209 195 175 -207 \;;
#X scalar 2028-squareWav 11400 -11 -207 175 142 -171 \;;
#X scalar 2028-squareWav 11600 -11 -171 142 47 -152 \;;
#X scalar 2028-squareWav 11800 -11 -152 47 38 -136 \;;
#X scalar 2028-squareWav 12000 -11 -136 38 150 -160 \;;
#X scalar 2028-squareWav 12200 -11 -160 150 143 -188 \;;
#X scalar 2028-squareWav 12400 -11 -188 143 248 -229 \;;
#X scalar 2028-squareWav 12600 -11 -229 248 232 -248 \;;
#X scalar 2028-squareWav 12800 -11 -248 232 199 -254 \;;
#X scalar 2028-squareWav 13000 -11 -254 199 174 -207 \;;
#X scalar 2028-squareWav 13200 -11 -207 174 115 -136 \;;
#X scalar 2028-squareWav 13400 -11 -136 115 91 -48 \;;
#X scalar 2028-squareWav 13600 -11 -48 91 72 -34 \;;
#X scalar 2028-squareWav 13800 -11 -34 72 124 -73 \;;
#X scalar 2028-squareWav 14000 -11 -73 124 99 -48 \;;
#X scalar 2028-squareWav 14200 -11 -48 99 108 -65 \;;
#X scalar 2028-squareWav 14400 -11 -65 108 133 -99 \;;
#X scalar 2028-squareWav 14600 -11 -99 133 119 -120 \;;
#X scalar 2028-squareWav 14800 -11 -120 119 154 -104 \;;
#X scalar 2028-squareWav 15000 -11 -104 154 194 -146 \;;
#X scalar 2028-squareWav 15200 -11 -146 194 119 -165 \;;
#X scalar 2028-squareWav 15400 -11 -165 119 80 -197 \;;
#X scalar 2028-squareWav 15600 -11 -197 80 78 -177 \;;
#X scalar 2028-squareWav 15800 -11 -177 78 188 -191 \;;
#X scalar 2028-squareWav 16000 -11 -191 188 187 -256 \;;
#X scalar 2028-squareWav 16200 -11 -256 187 198 -289 \;;
#X scalar 2028-squareWav 16400 -11 -289 198 197 -284 \;;
#X scalar 2028-squareWav 16600 -11 -284 197 164 -250 \;;
#X scalar 2028-squareWav 16800 -11 -250 164 170 -255 \;;
#X scalar 2028-squareWav 17000 -11 -255 170 204 -211 \;;
#X scalar 2028-squareWav 17200 -11 -211 204 194 -236 \;;
#X scalar 2028-squareWav 17400 -11 -236 194 199 -279 \;;
#X scalar 2028-squareWav 17600 -11 -279 199 234 -227 \;;
#X scalar 2028-squareWav 17800 -11 -227 234 230 -237 \;;
#X scalar 2028-squareWav 18000 -11 -237 230 205 -222 \;;
#X scalar 2028-squareWav 18200 -11 -222 205 153 -236 \;;
#X scalar 2028-squareWav 18400 -11 -236 153 139 -254 \;;
#X scalar 2028-squareWav 18600 -11 -254 139 161 -254 \;;
#X scalar 2028-squareWav 18800 -11 -254 161 170 -238 \;;
#X scalar 2028-squareWav 19000 -11 -238 170 151 -253 \;;
#X scalar 2028-squareWav 19200 -11 -253 151 146 -273 \;;
#X scalar 2028-squareWav 19400 -11 -273 146 170 -262 \;;
#X scalar 2028-squareWav 19600 -11 -262 170 172 -264 \;;
#X scalar 2028-squareWav 19800 -11 -264 172 211 -243 \;;
#X scalar 2028-squareWav 20000 -11 -243 211 203 -286 \;;
#X scalar 2028-squareWav 20200 -11 -286 203 170 -313 \;;
#X scalar 2028-squareWav 20400 -11 -313 170 181 -301 \;;
#X scalar 2028-squareWav 20600 -11 -301 181 181 -308 \;;
#X scalar 2028-squareWav 20800 -11 -308 181 163 -313 \;;
#X scalar 2028-squareWav 21000 -11 -313 163 144 -273 \;;
#X scalar 2028-squareWav 21200 -11 -273 144 178 -271 \;;
#X scalar 2028-squareWav 21400 -11 -271 178 224 -286 \;;
#X scalar 2028-squareWav 21600 -11 -286 224 206 -179 \;;
#X scalar 2028-squareWav 21800 -11 -179 206 176 -225 \;;
#X scalar 2028-squareWav 22000 -11 -225 176 163 -148 \;;
#X scalar 2028-squareWav 22200 -11 -148 163 184 -138 \;;
#X scalar 2028-squareWav 22400 -11 -138 184 185 -144 \;;
#X scalar 2028-squareWav 22600 -11 -144 185 198 -131 \;;
#X scalar 2028-squareWav 22800 -11 -131 198 153 -144 \;;
#X scalar 2028-squareWav 23000 -11 -144 153 189 -76 \;;
#X scalar 2028-squareWav 23200 -11 -76 189 164 -107 \;;
#X scalar 2028-squareWav 23400 -11 -107 164 186 -126 \;;
#X scalar 2028-squareWav 23600 -11 -126 186 197 -138 \;;
#X scalar 2028-squareWav 23800 -11 -138 197 178 -153 \;;
#X scalar 2028-squareWav 24000 -11 -153 178 186 -187 \;;
#X scalar 2028-squareWav 24200 -11 -187 186 191 -153 \;;
#X scalar 2028-squareWav 24400 -11 -153 191 131 -133 \;;
#X scalar 2028-squareWav 24600 -11 -133 131 174 -181 \;;
#X scalar 2028-squareWav 24800 -11 -181 174 166 -245 \;;
#X scalar 2028-squareWav 25000 -11 -245 166 146 -228 \;;
#X scalar 2028-squareWav 25200 -11 -228 146 154 -281 \;;
#X scalar 2028-squareWav 25400 -11 -281 154 184 -255 \;;
#X scalar 2028-squareWav 25600 -11 -255 184 168 -234 \;;
#X scalar 2028-squareWav 25800 -11 -234 168 158 -244 \;;
#X scalar 2028-squareWav 26000 -11 -244 158 170 -263 \;;
#X scalar 2028-squareWav 26200 -11 -263 170 159 -284 \;;
#X scalar 2028-squareWav 26400 -11 -284 159 239 -285 \;;
#X scalar 2028-squareWav 26600 -11 -285 239 203 -292 \;;
#X scalar 2028-squareWav 26800 -11 -292 203 204 -282 \;;
#X scalar 2028-squareWav 27000 -11 -282 204 190 -242 \;;
#X scalar 2028-squareWav 27200 -11 -242 190 203 -306 \;;
#X scalar 2028-squareWav 27400 -11 -306 203 218 -325 \;;
#X scalar 2028-squareWav 27600 -11 -325 218 200 -317 \;;
#X scalar 2028-squareWav 27800 -11 -317 200 224 -279 \;;
#X scalar 2028-squareWav 28000 -11 -279 224 208 -195 \;;
#X scalar 2028-squareWav 28200 -11 -195 208 194 -187 \;;
#X scalar 2028-squareWav 28400 -11 -187 194 131 -165 \;;
#X scalar 2028-squareWav 28600 -11 -165 131 113 -96 \;;
#X scalar 2028-squareWav 28800 -11 -96 113 101 -70 \;;
#X scalar 2028-squareWav 29000 -11 -70 101 58 -66 \;;
#X scalar 2028-squareWav 29200 -11 -66 58 68 -36 \;;
#X scalar 2028-squareWav 29400 -11 -36 68 38 -33 \;;
#X scalar 2028-squareWav 29600 -11 -33 38 15 -60 \;;
#X scalar 2028-squareWav 29800 -11 -60 15 15 -65 \;;
#X scalar 2028-squareWav 30000 -11 -65 15 15 -51 \;;
#X scalar 2028-squareWav 30200 -11 -51 15 8 -34 \;;
#X scalar 2028-squareWav 30400 -11 -34 8 3 -18 \;;
#X scalar 2028-squareWav 30600 -11 -18 3 16 -22 \;;
#X scalar 2028-squareWav 30800 -11 -22 16 20 -24 \;;
#X scalar 2028-squareWav 31000 -11 -24 20 19 -15 \;;
#X scalar 2028-squareWav 31200 -11 -15 19 20 -19 \;;
#X scalar 2028-squareWav 31400 -11 -19 20 17 -16 \;;
#X scalar 2028-squareWav 31600 -11 -16 17 17 -27 \;;
#X scalar 2028-squareWav 31800 -11 -27 17 9 -19 \;;
#X scalar 2028-squareWav 32000 -11 -19 9 6 -10 \;;
#X scalar 2028-squareWav 32200 -11 -10 6 16 -29 \;;
#X scalar 2028-squareWav 32400 -11 -29 16 11 -18 \;;
#X scalar 2028-squareWav 32600 -11 -18 11 7 -7 \;;
#X scalar 2028-squareWav 32800 -11 -7 7 9 -3 \;;
#X scalar 2028-squareWav 33000 -11 -3 9 20 -13 \;;
#X scalar 2028-squareWav 33200 -11 -13 20 7 -8 \;;
#X scalar 2028-squareWav 33400 -11 -8 7 14 -8 \;;
#X scalar 2028-squareWav 33600 -11 -8 14 12 -6 \;;
#X scalar 2028-squareWav 33800 -11 -6 12 11 -8 \;;
#X scalar 2028-squareWav 34000 -11 -8 11 6 -15 \;;
#X scalar 2028-squareWav 34200 -11 -15 6 3 -12 \;;
#X scalar 2028-squareWav 34400 -11 -12 3 6 -13 \;;
#X scalar 2028-squareWav 34600 -11 -13 6 6 -8 \;;
#X scalar 2028-squareWav 34800 -11 -8 6 5 -9 \;;
#X scalar 2028-squareWav 35000 -11 -9 5 4 -7 \;;
#X scalar 2028-squareWav 35200 -11 -7 4 0 -8 \;;
#X scalar 2028-squareWav 35400 -11 -8 0 2 -7 \;;
#X scalar 2028-squareWav 35600 -11 -7 2 6 -8 \;;
#X scalar 2028-squareWav 35800 -11 -8 6 3 -9 \;;
#X scalar 2028-squareWav 36000 -11 -9 3 1 -6 \;;
#X scalar 2028-squareWav 36200 -11 -6 1 3 -3 \;;
#X scalar 2028-squareWav 36400 -11 -3 3 2 -3 \;;
#X scalar 2028-squareWav 36600 -11 -3 2 4 -4 \;;
#X scalar 2028-squareWav 36800 -11 -4 4 3 -2 \;;
#X scalar 2028-squareWav 37000 -11 -2 3 5 -2 \;;
#X scalar 2028-squareWav 37200 -11 -2 5 7 -3 \;;
#X scalar 2028-squareWav 37400 -11 -3 7 3 -1 \;;
#X scalar 2028-squareWav 37600 -11 -1 3 4 -1 \;;
#X scalar 2028-squareWav 37800 -11 -1 4 1 -2 \;;
#X scalar 2028-squareWav 38000 -11 -2 1 2 -3 \;;
#X scalar 2028-squareWav 38200 -11 -3 2 2 -1 \;;
#X scalar 2028-squareWav 38400 -11 -1 2 1 0 \;;
#X scalar 2028-squareWav 38600 -11 0 1 1 -1 \;;
#X scalar 2028-squareWav 38800 -11 -1 1 0 -1 \;;
#X scalar 2028-squareWav 39000 -11 -1 0 0 0 \;;
#X scalar 2028-squareWav 39200 -11 0 0 1 -1 \;;
#X scalar 2028-squareWav 39400 -11 -1 1 0 0 \;;
#X scalar 2028-squareWav 39600 -11 0 0 0 -1 \;;
#X scalar 2028-squareWav 39800 -11 -1 0 0 -2 \;;
#X scalar 2028-squareWav 40000 -11 -2 0 0 -1 \;;
#X scalar 2028-squareWav 40200 -11 -1 0 1 -1 \;;
#X scalar 2028-squareWav 40400 -11 -1 1 1 0 \;;
#X scalar 2028-squareWav 40600 -11 0 1 1 -1 \;;
#X scalar 2028-squareWav 40800 -11 -1 1 0 0 \;;
#X scalar 2028-squareWav 41000 -11 0 0 1 0 \;;
#X scalar 2028-squareWav 41200 -11 0 1 1 0 \;;
#X scalar 2028-squareWav 41400 -11 0 1 1 0 \;;
#X scalar 2028-squareWav 41600 -11 0 1 0 0 \;;
#X scalar 2028-squareWav 41800 -11 0 0 0 0 \;;
#X scalar 2028-squareWav 42000 -11 0 0 0 0 \;;
#X scalar 2028-squareWav 42200 -11 0 0 1 -1 \;;
#X scalar 2028-squareWav 42400 -11 -1 1 0 0 \;;
#X scalar 2028-squareWav 42600 -11 0 0 0 0 \;;
#X scalar 2028-squareWav 42800 -11 0 0 0 0 \;;
#X scalar 2028-squareWav 43000 -11 0 0 0 0 \;;
#X scalar 2028-squareWav 43200 -11 0 0 0 0 \;;
#X scalar 2028-squareWav 43400 -11 0 0 0 -1 \;;
#X scalar 2028-squareWav 43600 -11 -1 0 1 -2 \;;
#X scalar 2028-squareWav 43800 -11 -2 1 18 -6 \;;
#X scalar 2028-squareWav 44000 -11 -6 18 133 -110 \;;
#X scalar 2028-squareWav 44200 -11 -110 133 31 -49 \;;
#X scalar 2028-squareWav 44400 -11 -49 31 77 -204 \;;
#X scalar 2028-squareWav 44600 -11 -204 77 44 -27 \;;
#X scalar 2028-squareWav 44800 -11 -27 44 160 -288 \;;
#X scalar 2028-squareWav 45000 -11 -288 160 62 -73 \;;
#X scalar 2028-squareWav 45200 -11 -73 62 182 -211 \;;
#X scalar 2028-squareWav 45400 -11 -211 182 65 -54 \;;
#X scalar 2028-squareWav 45600 -11 -54 65 316 -376 \;;
#X scalar 2028-squareWav 45800 -11 -376 316 44 -120 \;;
#X scalar 2028-squareWav 46000 -11 -120 44 315 -257 \;;
#X scalar 2028-squareWav 46200 -11 -257 315 113 -92 \;;
#X scalar 2028-squareWav 46400 -11 -92 113 178 -258 \;;
#X scalar 2028-squareWav 46600 -11 -258 178 132 -99 \;;
#X scalar 2028-squareWav 46800 -11 -99 132 268 -84 \;;
#X scalar 2028-squareWav 47000 -11 -84 268 163 -66 \;;
#X scalar 2028-squareWav 47200 -11 -66 163 250 -241 \;;
#X scalar 2028-squareWav 47400 -11 -241 250 115 -367 \;;
#X scalar 2028-squareWav 47600 -11 -367 115 178 -173 \;;
#X scalar 2028-squareWav 47800 -11 -173 178 310 -332 \;;
#X scalar 2028-squareWav 48000 -11 -332 310 145 -158 \;;
#X scalar 2028-squareWav 48200 -11 -158 145 193 -302 \;;
#X scalar 2028-squareWav 48400 -11 -302 193 174 -96 \;;
#X scalar 2028-squareWav 48600 -11 -96 174 237 -103 \;;
#X scalar 2028-squareWav 48800 -11 -103 237 185 -33 \;;
#X scalar 2028-squareWav 49000 -11 -33 185 221 -194 \;;
#X scalar 2028-squareWav 49200 -11 -194 221 175 -422 \;;
#X scalar 2028-squareWav 49400 -11 -422 175 83 -69 \;;
#X scalar 2028-squareWav 49600 -11 -69 83 295 -307 \;;
#X scalar 2028-squareWav 49800 -11 -307 295 119 -158 \;;
#X scalar 2028-squareWav 50000 -11 -158 119 108 -227 \;;
#X scalar 2028-squareWav 50200 -11 -227 108 124 -85 \;;
#X scalar 2028-squareWav 50400 -11 -85 124 231 -88 \;;
#X scalar 2028-squareWav 50600 -11 -88 231 98 -30 \;;
#X scalar 2028-squareWav 50800 -11 -30 98 286 -184 \;;
#X scalar 2028-squareWav 51000 -11 -184 286 90 -184 \;;
#X scalar 2028-squareWav 51200 -11 -184 90 155 -167 \;;
#X scalar 2028-squareWav 51400 -11 -167 155 64 -213 \;;
#X scalar 2028-squareWav 51600 -11 -213 64 129 -158 \;;
#X scalar 2028-squareWav 51800 -11 -158 129 83 -446 \;;
#X scalar 2028-squareWav 52000 -11 -446 83 150 -47 \;;
#X scalar 2028-squareWav 52200 -11 -47 150 174 -371 \;;
#X scalar 2028-squareWav 52400 -11 -371 174 78 -90 \;;
#X scalar 2028-squareWav 52600 -11 -90 78 312 -406 \;;
#X scalar 2028-squareWav 52800 -11 -406 312 93 -128 \;;
#X scalar 2028-squareWav 53000 -11 -128 93 299 -168 \;;
#X scalar 2028-squareWav 53200 -11 -168 299 85 -121 \;;
#X scalar 2028-squareWav 53400 -11 -121 85 310 -179 \;;
#X scalar 2028-squareWav 53600 -11 -179 310 161 -152 \;;
#X scalar 2028-squareWav 53800 -11 -152 161 111 -143 \;;
#X scalar 2028-squareWav 54000 -11 -143 111 199 -176 \;;
#X scalar 2028-squareWav 54200 -11 -176 199 101 -169 \;;
#X scalar 2028-squareWav 54400 -11 -169 101 127 -130 \;;
#X scalar 2028-squareWav 54600 -11 -130 127 161 -156 \;;
#X scalar 2028-squareWav 54800 -11 -156 161 171 -138 \;;
#X scalar 2028-squareWav 55000 -11 -138 171 277 -162 \;;
#X scalar 2028-squareWav 55200 -11 -162 277 120 -89 \;;
#X scalar 2028-squareWav 55400 -11 -89 120 313 -246 \;;
#X scalar 2028-squareWav 55600 -11 -246 313 163 -105 \;;
#X scalar 2028-squareWav 55800 -11 -105 163 219 -247 \;;
#X scalar 2028-squareWav 56000 -11 -247 219 197 -474 \;;
#X scalar 2028-squareWav 56200 -11 -474 197 234 -126 \;;
#X scalar 2028-squareWav 56400 -11 -126 234 434 -430 \;;
#X scalar 2028-squareWav 56600 -11 -430 434 37 -105 \;;
#X scalar 2028-squareWav 56800 -11 -105 37 322 -246 \;;
#X scalar 2028-squareWav 57000 -11 -246 322 103 -64 \;;
#X scalar 2028-squareWav 57200 -11 -64 103 125 -274 \;;
#X scalar 2028-squareWav 57400 -11 -274 125 115 -42 \;;
#X scalar 2028-squareWav 57600 -11 -42 115 184 -58 \;;
#X scalar 2028-squareWav 57800 -11 -58 184 181 -99 \;;
#X scalar 2028-squareWav 58000 -11 -99 181 282 -166 \;;
#X scalar 2028-squareWav 58200 -11 -166 282 232 -161 \;;
#X scalar 2028-squareWav 58400 -11 -161 232 239 -303 \;;
#X scalar 2028-squareWav 58600 -11 -303 239 217 -409 \;;
#X scalar 2028-squareWav 58800 -11 -409 217 270 -210 \;;
#X scalar 2028-squareWav 59000 -11 -210 270 476 -372 \;;
#X scalar 2028-squareWav 59200 -11 -372 476 177 -138 \;;
#X scalar 2028-squareWav 59400 -11 -138 177 316 -290 \;;
#X scalar 2028-squareWav 59600 -11 -290 316 105 -39 \;;
#X scalar 2028-squareWav 59800 -11 -39 105 249 -322 \;;
#X scalar 2028-squareWav 60000 -11 -322 249 151 -67 \;;
#X scalar 2028-squareWav 60200 -11 -67 151 316 -109 \;;
#X scalar 2028-squareWav 60400 -11 -109 316 221 -169 \;;
#X scalar 2028-squareWav 60600 -11 -169 221 362 -336 \;;
#X scalar 2028-squareWav 60800 -11 -336 362 178 -302 \;;
#X scalar 2028-squareWav 61000 -11 -302 178 178 -223 \;;
#X scalar 2028-squareWav 61200 -11 -223 178 374 -438 \;;
#X scalar 2028-squareWav 61400 -11 -438 374 72 -159 \;;
#X scalar 2028-squareWav 61600 -11 -159 72 298 -305 \;;
#X scalar 2028-squareWav 61800 -11 -305 298 62 -54 \;;
#X scalar 2028-squareWav 62000 -11 -54 62 244 -190 \;;
#X scalar 2028-squareWav 62200 -11 -190 244 236 -106 \;;
#X scalar 2028-squareWav 62400 -11 -106 236 315 -157 \;;
#X scalar 2028-squareWav 62600 -11 -157 315 145 -68 \;;
#X scalar 2028-squareWav 62800 -11 -68 145 256 -233 \;;
#X scalar 2028-squareWav 63000 -11 -233 256 177 -435 \;;
#X scalar 2028-squareWav 63200 -11 -435 177 230 -249 \;;
#X scalar 2028-squareWav 63400 -11 -249 230 354 -315 \;;
#X scalar 2028-squareWav 63600 -11 -315 354 147 -145 \;;
#X scalar 2028-squareWav 63800 -11 -145 147 236 -204 \;;
#X scalar 2028-squareWav 64000 -11 -204 236 282 -161 \;;
#X scalar 2028-squareWav 64200 -11 -161 282 346 -212 \;;
#X scalar 2028-squareWav 64400 -11 -212 346 217 -187 \;;
#X scalar 2028-squareWav 64600 -11 -187 217 297 -280 \;;
#X scalar 2028-squareWav 64800 -11 -280 297 216 -417 \;;
#X scalar 2028-squareWav 65000 -11 -417 216 308 -182 \;;
#X scalar 2028-squareWav 65200 -11 -182 308 361 -236 \;;
#X scalar 2028-squareWav 65400 -11 -236 361 45 -87 \;;
#X scalar 2028-squareWav 65600 -11 -87 45 207 -296 \;;
#X scalar 2028-squareWav 65800 -11 -296 207 51 -54 \;;
#X scalar 2028-squareWav 66000 -11 -54 51 158 -172 \;;
#X scalar 2028-squareWav 66200 -11 -172 158 130 -44 \;;
#X scalar 2028-squareWav 66400 -11 -44 130 296 -57 \;;
#X scalar 2028-squareWav 66600 -11 -57 296 186 -143 \;;
#X scalar 2028-squareWav 66800 -11 -143 186 307 -389 \;;
#X scalar 2028-squareWav 67000 -11 -389 307 161 -105 \;;
#X scalar 2028-squareWav 67200 -11 -105 161 233 -333 \;;
#X scalar 2028-squareWav 67400 -11 -333 233 155 -459 \;;
#X scalar 2028-squareWav 67600 -11 -459 155 237 -179 \;;
#X scalar 2028-squareWav 67800 -11 -179 237 221 -373 \;;
#X scalar 2028-squareWav 68000 -11 -373 221 249 -145 \;;
#X scalar 2028-squareWav 68200 -11 -145 249 333 -230 \;;
#X scalar 2028-squareWav 68400 -11 -230 333 64 -163 \;;
#X scalar 2028-squareWav 68600 -11 -163 64 261 -294 \;;
#X scalar 2028-squareWav 68800 -11 -294 261 78 -27 \;;
#X scalar 2028-squareWav 69000 -11 -27 78 187 -159 \;;
#X scalar 2028-squareWav 69200 -11 -159 187 106 -16 \;;
#X scalar 2028-squareWav 69400 -11 -16 106 262 -76 \;;
#X scalar 2028-squareWav 69600 -11 -76 262 217 -213 \;;
#X scalar 2028-squareWav 69800 -11 -213 217 347 -320 \;;
#X scalar 2028-squareWav 70000 -11 -320 347 234 -389 \;;
#X scalar 2028-squareWav 70200 -11 -389 234 194 -258 \;;
#X scalar 2028-squareWav 70400 -11 -258 194 429 -433 \;;
#X scalar 2028-squareWav 70600 -11 -433 429 118 -120 \;;
#X scalar 2028-squareWav 70800 -11 -120 118 277 -213 \;;
#X scalar 2028-squareWav 71000 -11 -213 277 154 -124 \;;
#X scalar 2028-squareWav 71200 -11 -124 154 156 -163 \;;
#X scalar 2028-squareWav 71400 -11 -163 156 239 -136 \;;
#X scalar 2028-squareWav 71600 -11 -136 239 337 -169 \;;
#X scalar 2028-squareWav 71800 -11 -169 337 114 -55 \;;
#X scalar 2028-squareWav 72000 -11 -55 114 196 -241 \;;
#X scalar 2028-squareWav 72200 -11 -241 196 137 -403 \;;
#X scalar 2028-squareWav 72400 -11 -403 137 174 -163 \;;
#X scalar 2028-squareWav 72600 -11 -163 174 296 -256 \;;
#X scalar 2028-squareWav 72800 -11 -256 296 117 -128 \;;
#X scalar 2028-squareWav 73000 -11 -128 117 224 -249 \;;
#X scalar 2028-squareWav 73200 -11 -249 224 56 -26 \;;
#X scalar 2028-squareWav 73400 -11 -26 56 126 -48 \;;
#X scalar 2028-squareWav 73600 -11 -48 126 47 -48 \;;
#X scalar 2028-squareWav 73800 -11 -48 47 71 -17 \;;
#X scalar 2028-squareWav 74000 -11 -17 71 46 -59 \;;
#X scalar 2028-squareWav 74200 -11 -59 46 19 -40 \;;
#X scalar 2028-squareWav 74400 -11 -40 19 19 -63 \;;
#X scalar 2028-squareWav 74600 -11 -63 19 19 -48 \;;
#X scalar 2028-squareWav 74800 -11 -48 19 26 -28 \;;
#X scalar 2028-squareWav 75000 -11 -28 26 50 -56 \;;
#X scalar 2028-squareWav 75200 -11 -56 50 48 -57 \;;
#X scalar 2028-squareWav 75400 -11 -57 48 16 -16 \;;
#X scalar 2028-squareWav 75600 -11 -16 16 40 -16 \;;
#X scalar 2028-squareWav 75800 -11 -16 40 24 -13 \;;
#X scalar 2028-squareWav 76000 -11 -13 24 28 -10 \;;
#X scalar 2028-squareWav 76200 -11 -10 28 19 -5 \;;
#X scalar 2028-squareWav 76400 -11 -5 19 17 -14 \;;
#X scalar 2028-squareWav 76600 -11 -14 17 11 -3 \;;
#X scalar 2028-squareWav 76800 -11 -3 11 1 -12 \;;
#X scalar 2028-squareWav 77000 -11 -12 1 12 -23 \;;
#X scalar 2028-squareWav 77200 -11 -23 12 9 -28 \;;
#X scalar 2028-squareWav 77400 -11 -28 9 19 -18 \;;
#X scalar 2028-squareWav 77600 -11 -18 19 17 -17 \;;
#X scalar 2028-squareWav 77800 -11 -17 17 16 -9 \;;
#X scalar 2028-squareWav 78000 -11 -9 16 26 -11 \;;
#X scalar 2028-squareWav 78200 -11 -11 26 15 -11 \;;
#X scalar 2028-squareWav 78400 -11 -11 15 21 -12 \;;
#X scalar 2028-squareWav 78600 -11 -12 21 18 -20 \;;
#X scalar 2028-squareWav 78800 -11 -20 18 6 -10 \;;
#X scalar 2028-squareWav 79000 -11 -10 6 15 -19 \;;
#X scalar 2028-squareWav 79200 -11 -19 15 16 -22 \;;
#X scalar 2028-squareWav 79400 -11 -22 16 5 -8 \;;
#X scalar 2028-squareWav 79600 -11 -8 5 15 -11 \;;
#X scalar 2028-squareWav 79800 -11 -11 15 2 -1 \;;
#X scalar 2028-squareWav 80000 -11 -1 2 6 -9 \;;
#X scalar 2028-squareWav 80200 -11 -9 6 3 -5 \;;
#X scalar 2028-squareWav 80400 -11 -5 3 3 -3 \;;
#X scalar 2028-squareWav 80600 -11 -3 3 3 -2 \;;
#X scalar 2028-squareWav 80800 -11 -2 3 12 -4 \;;
#X scalar 2028-squareWav 81000 -11 -4 12 3 -5 \;;
#X scalar 2028-squareWav 81200 -11 -5 3 5 -10 \;;
#X scalar 2028-squareWav 81400 -11 -10 5 5 -4 \;;
#X scalar 2028-squareWav 81600 -11 -4 5 9 -5 \;;
#X scalar 2028-squareWav 81800 -11 -5 9 5 -5 \;;
#X scalar 2028-squareWav 82000 -11 -5 5 4 -9 \;;
#X scalar 2028-squareWav 82200 -11 -9 4 5 -3 \;;
#X scalar 2028-squareWav 82400 -11 -3 5 2 -1 \;;
#X scalar 2028-squareWav 82600 -11 -1 2 4 -4 \;;
#X scalar 2028-squareWav 82800 -11 -4 4 3 -3 \;;
#X scalar 2028-squareWav 83000 -11 -3 3 1 -2 \;;
#X scalar 2028-squareWav 83200 -11 -2 1 2 -4 \;;
#X scalar 2028-squareWav 83400 -11 -4 2 3 -4 \;;
#X scalar 2028-squareWav 83600 -11 -4 3 2 -1 \;;
#X scalar 2028-squareWav 83800 -11 -1 2 2 -3 \;;
#X scalar 2028-squareWav 84000 -11 -3 2 2 0 \;;
#X scalar 2028-squareWav 84200 -11 0 2 3 -2 \;;
#X scalar 2028-squareWav 84400 -11 -2 3 1 -1 \;;
#X scalar 2028-squareWav 84600 -11 -1 1 4 -4 \;;
#X scalar 2028-squareWav 84800 -11 -4 4 2 -2 \;;
#X scalar 2028-squareWav 85000 -11 -2 2 5 -4 \;;
#X scalar 2028-squareWav 85200 -11 -4 5 3 -3 \;;
#X scalar 2028-squareWav 85400 -11 -3 3 4 -5 \;;
#X scalar 2028-squareWav 85600 -11 -5 4 4 -16 \;;
#X scalar 2028-squareWav 85800 -11 -16 4 76 -436 \;;
#X scalar 2028-squareWav 86000 -11 -436 76 110 -44 \;;
#X scalar 2028-squareWav 86200 -11 -44 110 252 -228 \;;
#X scalar 2028-squareWav 86400 -11 -228 252 202 -272 \;;
#X scalar 2028-squareWav 86600 -11 -272 202 106 -361 \;;
#X scalar 2028-squareWav 86800 -11 -361 106 228 -140 \;;
#X scalar 2028-squareWav 87000 -11 -140 228 314 -305 \;;
#X scalar 2028-squareWav 87200 -11 -305 314 61 -223 \;;
#X scalar 2028-squareWav 87400 -11 -223 61 378 -371 \;;
#X scalar 2028-squareWav 87600 -11 -371 378 167 -161 \;;
#X scalar 2028-squareWav 87800 -11 -161 167 315 -283 \;;
#X scalar 2028-squareWav 88000 -11 -283 315 323 -141 \;;
#X scalar 2028-squareWav 88200 -11 -141 323 146 -244 \;;
#X scalar 2028-squareWav 88400 -11 -244 146 278 -369 \;;
#X scalar 2028-squareWav 88600 -11 -369 278 234 -140 \;;
#X scalar 2028-squareWav 88800 -11 -140 234 339 -320 \;;
#X scalar 2028-squareWav 89000 -11 -320 339 303 -146 \;;
#X scalar 2028-squareWav 89200 -11 -146 303 206 -343 \;;
#X scalar 2028-squareWav 89400 -11 -343 206 175 -356 \;;
#X scalar 2028-squareWav 89600 -11 -356 175 225 -212 \;;
#X scalar 2028-squareWav 89800 -11 -212 225 362 -243 \;;
#X scalar 2028-squareWav 90000 -11 -243 362 304 -96 \;;
#X scalar 2028-squareWav 90200 -11 -96 304 308 -299 \;;
#X scalar 2028-squareWav 90400 -11 -299 308 42 -365 \;;
#X scalar 2028-squareWav 90600 -11 -365 42 315 -190 \;;
#X scalar 2028-squareWav 90800 -11 -190 315 395 -264 \;;
#X scalar 2028-squareWav 91000 -11 -264 395 188 -89 \;;
#X scalar 2028-squareWav 91200 -11 -89 188 363 -270 \;;
#X scalar 2028-squareWav 91400 -11 -270 363 226 -508 \;;
#X scalar 2028-squareWav 91600 -11 -508 226 359 -332 \;;
#X scalar 2028-squareWav 91800 -11 -332 359 353 -378 \;;
#X scalar 2028-squareWav 92000 -11 -378 353 63 -213 \;;
#X scalar 2028-squareWav 92200 -11 -213 63 324 -323 \;;
#X scalar 2028-squareWav 92400 -11 -323 324 263 -269 \;;
#X scalar 2028-squareWav 92600 -11 -269 263 338 -318 \;;
#X scalar 2028-squareWav 92800 -11 -318 338 234 -82 \;;
#X scalar 2028-squareWav 93000 -11 -82 234 308 -265 \;;
#X scalar 2028-squareWav 93200 -11 -265 308 177 -432 \;;
#X scalar 2028-squareWav 93400 -11 -432 177 417 -294 \;;
#X scalar 2028-squareWav 93600 -11 -294 417 335 -315 \;;
#X scalar 2028-squareWav 93800 -11 -315 335 101 -246 \;;
#X scalar 2028-squareWav 94000 -11 -246 101 332 -268 \;;
#X scalar 2028-squareWav 94200 -11 -268 332 251 -279 \;;
#X scalar 2028-squareWav 94400 -11 -279 251 376 -331 \;;
#X scalar 2028-squareWav 94600 -11 -331 376 280 -154 \;;
#X scalar 2028-squareWav 94800 -11 -154 280 120 -291 \;;
#X scalar 2028-squareWav 95000 -11 -291 120 380 -351 \;;
#X scalar 2028-squareWav 95200 -11 -351 380 311 -353 \;;
#X scalar 2028-squareWav 95400 -11 -353 311 387 -346 \;;
#X scalar 2028-squareWav 95600 -11 -346 387 290 -109 \;;
#X scalar 2028-squareWav 95800 -11 -109 290 114 -300 \;;
#X scalar 2028-squareWav 96000 -11 -300 114 384 -356 \;;
#X scalar 2028-squareWav 96200 -11 -356 384 253 -323 \;;
#X scalar 2028-squareWav 96400 -11 -323 253 386 -305 \;;
#X scalar 2028-squareWav 96600 -11 -305 386 309 -304 \;;
#X scalar 2028-squareWav 96800 -11 -304 309 83 -210 \;;
#X scalar 2028-squareWav 97000 -11 -210 83 378 -330 \;;
#X scalar 2028-squareWav 97200 -11 -330 378 239 -355 \;;
#X scalar 2028-squareWav 97400 -11 -355 239 399 -339 \;;
#X scalar 2028-squareWav 97600 -11 -339 399 384 -433 \;;
#X scalar 2028-squareWav 97800 -11 -433 384 176 -263 \;;
#X scalar 2028-squareWav 98000 -11 -263 176 411 -155 \;;
#X scalar 2028-squareWav 98200 -11 -155 411 433 -359 \;;
#X scalar 2028-squareWav 98400 -11 -359 433 483 -483 \;;
#X scalar 2028-squareWav 98600 -11 -483 483 275 -455 \;;
#X scalar 2028-squareWav 98800 -11 -455 275 429 -135 \;;
#X scalar 2028-squareWav 99000 -11 -135 429 407 -282 \;;
#X scalar 2028-squareWav 99200 -11 -282 407 242 -334 \;;
#X scalar 2028-squareWav 99400 -11 -334 242 516 -414 \;;
#X scalar 2028-squareWav 99600 -11 -414 516 222 -383 \;;
#X scalar 2028-squareWav 99800 -11 -383 222 345 -106 \;;
#X scalar 2028-squareWav 100000 -11 -106 345 361 -226 \;;
#X scalar 2028-squareWav 100200 -11 -226 361 151 -451 \;;
#X scalar 2028-squareWav 100400 -11 -451 151 411 -319 \;;
#X scalar 2028-squareWav 100600 -11 -319 411 251 -322 \;;
#X scalar 2028-squareWav 100800 -11 -322 251 122 -285 \;;
#X scalar 2028-squareWav 101000 -11 -285 122 388 -153 \;;
#X scalar 2028-squareWav 101200 -11 -153 388 216 -579 \;;
#X scalar 2028-squareWav 101400 -11 -579 216 277 -151 \;;
#X scalar 2028-squareWav 101600 -11 -151 277 359 -320 \;;
#X scalar 2028-squareWav 101800 -11 -320 359 100 -339 \;;
#X scalar 2028-squareWav 102000 -11 -339 100 414 -125 \;;
#X scalar 2028-squareWav 102200 -11 -125 414 203 -605 \;;
#X scalar 2028-squareWav 102400 -11 -605 203 265 -148 \;;
#X scalar 2028-squareWav 102600 -11 -148 265 413 -225 \;;
#X scalar 2028-squareWav 102800 -11 -225 413 178 -262 \;;
#X scalar 2028-squareWav 103000 -11 -262 178 330 -166 \;;
#X scalar 2028-squareWav 103200 -11 -166 330 40 -270 \;;
#X scalar 2028-squareWav 103400 -11 -270 40 292 -193 \;;
#X scalar 2028-squareWav 103600 -11 -193 292 212 -75 \;;
#X scalar 2028-squareWav 103800 -11 -75 212 181 -61 \;;
#X scalar 2028-squareWav 104000 -11 -61 181 90 -207 \;;
#X scalar 2028-squareWav 104200 -11 -207 90 105 -104 \;;
#X scalar 2028-squareWav 104400 -11 -104 105 96 -120 \;;
#X scalar 2028-squareWav 104600 -11 -120 96 127 -27 \;;
#X scalar 2028-squareWav 104800 -11 -27 127 51 -47 \;;
#X scalar 2028-squareWav 105000 -11 -47 51 14 -143 \;;
#X scalar 2028-squareWav 105200 -11 -143 14 143 -91 \;;
#X scalar 2028-squareWav 105400 -11 -91 143 3 -51 \;;
#X scalar 2028-squareWav 105600 -11 -51 3 52 -1 \;;
#X scalar 2028-squareWav 105800 -11 -1 52 69 -73 \;;
#X scalar 2028-squareWav 106000 -11 -73 69 24 -56 \;;
#X scalar 2028-squareWav 106200 -11 -56 24 60 -32 \;;
#X scalar 2028-squareWav 106400 -11 -32 60 7 -22 \;;
#X scalar 2028-squareWav 106600 -11 -22 7 27 -29 \;;
#X scalar 2028-squareWav 106800 -11 -29 27 66 -63 \;;
#X scalar 2028-squareWav 107000 -11 -63 66 9 -15 \;;
#X scalar 2028-squareWav 107200 -11 -15 9 49 -29 \;;
#X scalar 2028-squareWav 107400 -11 -29 49 19 -57 \;;
#X scalar 2028-squareWav 107600 -11 -57 19 25 -20 \;;
#X scalar 2028-squareWav 107800 -11 -20 25 22 -12 \;;
#X scalar 2028-squareWav 108000 -11 -12 22 23 -46 \;;
#X scalar 2028-squareWav 108200 -11 -46 23 76 -75 \;;
#X scalar 2028-squareWav 108400 -11 -75 76 48 -52 \;;
#X scalar 2028-squareWav 108600 -11 -52 48 25 -31 \;;
#X scalar 2028-squareWav 108800 -11 -31 25 19 -18 \;;
#X scalar 2028-squareWav 109000 -11 -18 19 4 -17 \;;
#X scalar 2028-squareWav 109200 -11 -17 4 23 -25 \;;
#X scalar 2028-squareWav 109400 -11 -25 23 31 -33 \;;
#X scalar 2028-squareWav 109600 -11 -33 31 13 -20 \;;
#X scalar 2028-squareWav 109800 -11 -20 13 9 -6 \;;
#X scalar 2028-squareWav 110000 -11 -6 9 7 -17 \;;
#X scalar 2028-squareWav 110200 -11 -17 7 13 -22 \;;
#X scalar 2028-squareWav 110400 -11 -22 13 25 -26 \;;
#X scalar 2028-squareWav 110600 -11 -26 25 11 -18 \;;
#X scalar 2028-squareWav 110800 -11 -18 11 14 -11 \;;
#X scalar 2028-squareWav 111000 -11 -11 14 8 -7 \;;
#X scalar 2028-squareWav 111200 -11 -7 8 5 -2 \;;
#X scalar 2028-squareWav 111400 -11 -2 5 15 -12 \;;
#X scalar 2028-squareWav 111600 -11 -12 15 12 -6 \;;
#X scalar 2028-squareWav 111800 -11 -6 12 2 -5 \;;
#X scalar 2028-squareWav 112000 -11 -5 2 7 -5 \;;
#X scalar 2028-squareWav 112200 -11 -5 7 5 -7 \;;
#X scalar 2028-squareWav 112400 -11 -7 5 4 -3 \;;
#X scalar 2028-squareWav 112600 -11 -3 4 2 -4 \;;
#X scalar 2028-squareWav 112800 -11 -4 2 4 -4 \;;
#X scalar 2028-squareWav 113000 -11 -4 4 6 -3 \;;
#X scalar 2028-squareWav 113200 -11 -3 6 2 -3 \;;
#X scalar 2028-squareWav 113400 -11 -3 2 7 -6 \;;
#X scalar 2028-squareWav 113600 -11 -6 7 14 -16 \;;
#X scalar 2028-squareWav 113800 -11 -16 14 14 -13 \;;
#X scalar 2028-squareWav 114000 -11 -13 14 18 -19 \;;
#X scalar 2028-squareWav 114200 -11 -19 18 15 -13 \;;
#X scalar 2028-squareWav 114400 -11 -13 15 6 -8 \;;
#X scalar 2028-squareWav 114600 -11 -8 6 4 -6 \;;
#X scalar 2028-squareWav 114800 -11 -6 4 4 -4 \;;
#X scalar 2028-squareWav 115000 -11 -4 4 6 -6 \;;
#X scalar 2028-squareWav 115200 -11 -6 6 4 -1 \;;
#X scalar 2028-squareWav 115400 -11 -1 4 2 -2 \;;
#X scalar 2028-squareWav 115600 -11 -2 2 0 -11 \;;
#X scalar 2028-squareWav 115800 -11 -11 0 11 -8 \;;
#X scalar 2028-squareWav 116000 -11 -8 11 12 -5 \;;
#X scalar 2028-squareWav 116200 -11 -5 12 2 -5 \;;
#X scalar 2028-squareWav 116400 -11 -5 2 10 -1 \;;
#X scalar 2028-squareWav 116600 -11 -1 10 4 -1 \;;
#X scalar 2028-squareWav 116800 -11 -1 4 4 -8 \;;
#X scalar 2028-squareWav 117000 -11 -8 4 4 -12 \;;
#X scalar 2028-squareWav 117200 -11 -12 4 4 -3 \;;
#X scalar 2028-squareWav 117400 -11 -3 4 3 -2 \;;
#X scalar 2028-squareWav 117600 -11 -2 3 9 -10 \;;
#X scalar 2028-squareWav 117800 -11 -10 9 7 -5 \;;
#X scalar 2028-squareWav 118000 -11 -5 7 3 -1 \;;
#X scalar 2028-squareWav 118200 -11 -1 3 2 -2 \;;
#X scalar 2028-squareWav 118400 -11 -2 2 7 0 \;;
#X scalar 2028-squareWav 118600 -11 0 7 10 -9 \;;
#X scalar 2028-squareWav 118800 -11 -9 10 5 -5 \;;
#X scalar 2028-squareWav 119000 -11 -5 5 11 -10 \;;
#X scalar 2028-squareWav 119200 -11 -10 11 5 -7 \;;
#X scalar 2028-squareWav 119400 -11 -7 5 5 -11 \;;
#X scalar 2028-squareWav 119600 -11 -11 5 15 -13 \;;
#X scalar 2028-squareWav 119800 -11 -13 15 50 -57 \;;
#X scalar 2028-squareWav 120000 -11 -57 50 74 -78 \;;
#X scalar 2028-squareWav 120200 -11 -78 74 73 -72 \;;
#X scalar 2028-squareWav 120400 -11 -72 73 83 -100 \;;
#X scalar 2028-squareWav 120600 -11 -100 83 142 -158 \;;
#X scalar 2028-squareWav 120800 -11 -158 142 258 -224 \;;
#X scalar 2028-squareWav 121000 -11 -224 258 374 -315 \;;
#X scalar 2028-squareWav 121200 -11 -315 374 392 -423 \;;
#X scalar 2028-squareWav 121400 -11 -423 392 476 -485 \;;
#X scalar 2028-squareWav 121600 -11 -485 476 466 -458 \;;
#X scalar 2028-squareWav 121800 -11 -458 466 482 -404 \;;
#X scalar 2028-squareWav 122000 -11 -404 482 405 -378 \;;
#X scalar 2028-squareWav 122200 -11 -378 405 343 -347 \;;
#X scalar 2028-squareWav 122400 -11 -347 343 238 -227 \;;
#X scalar 2028-squareWav 122600 -11 -227 238 137 -120 \;;
#X scalar 2028-squareWav 122800 -11 -120 137 83 -90 \;;
#X scalar 2028-squareWav 123000 -11 -90 83 50 -46 \;;
#X scalar 2028-squareWav 123200 -11 -46 50 51 -54 \;;
#X scalar 2028-squareWav 123400 -11 -54 51 39 -36 \;;
#X scalar 2028-squareWav 123600 -11 -36 39 22 -25 \;;
#X scalar 2028-squareWav 123800 -11 -25 22 59 -63 \;;
#X scalar 2028-squareWav 124000 -11 -63 59 39 -44 \;;
#X scalar 2028-squareWav 124200 -11 -44 39 50 -46 \;;
#X scalar 2028-squareWav 124400 -11 -46 50 39 -42 \;;
#X scalar 2028-squareWav 124600 -11 -42 39 49 -54 \;;
#X scalar 2028-squareWav 124800 -11 -54 49 32 -29 \;;
#X scalar 2028-squareWav 125000 -11 -29 32 48 -46 \;;
#X scalar 2028-squareWav 125200 -11 -46 48 32 -37 \;;
#X scalar 2028-squareWav 125400 -11 -37 32 16 -17 \;;
#X scalar 2028-squareWav 125600 -11 -17 16 32 -27 \;;
#X scalar 2028-squareWav 125800 -11 -27 32 30 -32 \;;
#X scalar 2028-squareWav 126000 -11 -32 30 18 -21 \;;
#X scalar 2028-squareWav 126200 -11 -21 18 17 -15 \;;
#X scalar 2028-squareWav 126400 -11 -15 17 8 -10 \;;
#X scalar 2028-squareWav 126600 -11 -10 8 19 -17 \;;
#X scalar 2028-squareWav 126800 -11 -17 19 19 -18 \;;
#X scalar 2028-squareWav 127000 -11 -18 19 26 -28 \;;
#X scalar 2028-squareWav 127200 -11 -28 26 11 -10 \;;
#X scalar 2028-squareWav 127400 -11 -10 11 23 -19 \;;
#X scalar 2028-squareWav 127600 -11 -19 23 4 -4 \;;
#X scalar 2028-squareWav 127800 -11 -4 4 9 -8 \;;
#X scalar 2028-squareWav 128000 -11 -8 9 2 -2 \;;
#X scalar 2028-squareWav 128200 -11 -2 2 1 -1 \;;
#X scalar 2028-squareWav 128400 -11 -1 1 5 -7 \;;
#X scalar 2028-squareWav 128600 -11 -7 5 19 -21 \;;
#X scalar 2028-squareWav 128800 -11 -21 19 24 -22 \;;
#X scalar 2028-squareWav 129000 -11 -22 24 18 -16 \;;
#X scalar 2028-squareWav 129200 -11 -16 18 14 -15 \;;
#X scalar 2028-squareWav 129400 -11 -15 14 14 -14 \;;
#X scalar 2028-squareWav 129600 -11 -14 14 25 -21 \;;
#X scalar 2028-squareWav 129800 -11 -21 25 60 -55 \;;
#X scalar 2028-squareWav 130000 -11 -55 60 131 -139 \;;
#X scalar 2028-squareWav 130200 -11 -139 131 198 -200 \;;
#X scalar 2028-squareWav 130400 -11 -200 198 281 -263 \;;
#X scalar 2028-squareWav 130600 -11 -263 281 351 -326 \;;
#X scalar 2028-squareWav 130800 -11 -326 351 412 -418 \;;
#X scalar 2028-squareWav 131000 -11 -418 412 460 -461 \;;
#X scalar 2028-squareWav 131200 -11 -461 460 503 -545 \;;
#X scalar 2028-squareWav 131400 -11 -545 503 568 -552 \;;
#X scalar 2028-squareWav 131600 -11 -552 568 566 -532 \;;
#X scalar 2028-squareWav 131800 -11 -532 566 525 -570 \;;
#X scalar 2028-squareWav 132000 -11 -570 525 567 -489 \;;
#X scalar 2028-squareWav 132200 -11 -489 567 518 -531 \;;
#X scalar 2028-squareWav 132400 -11 -531 518 566 -507 \;;
#X scalar 2028-squareWav 132600 -11 -507 566 580 -541 \;;
#X scalar 2028-squareWav 132800 -11 -541 580 549 -486 \;;
#X scalar 2028-squareWav 133000 -11 -486 549 443 -438 \;;
#X scalar 2028-squareWav 133200 -11 -438 443 313 -372 \;;
#X scalar 2028-squareWav 133400 -11 -372 313 206 -243 \;;
#X scalar 2028-squareWav 133600 -11 -243 206 99 -89 \;;
#X scalar 2028-squareWav 133800 -11 -89 99 9 -10 \;;
#X scalar 2028-squareWav 134000 -11 -10 9 50 -50 \;;
#X scalar 2028-squareWav 134200 -11 -50 50 71 -71 \;;
#X scalar 2028-squareWav 134400 -11 -71 71 94 -85 \;;
#X scalar 2028-squareWav 134600 -11 -85 94 92 -97 \;;
#X scalar 2028-squareWav 134800 -11 -97 92 84 -82 \;;
#X scalar 2028-squareWav 135000 -11 -82 84 69 -72 \;;
#X scalar 2028-squareWav 135200 -11 -72 69 59 -60 \;;
#X scalar 2028-squareWav 135400 -11 -60 59 49 -44 \;;
#X scalar 2028-squareWav 135600 -11 -44 49 28 -31 \;;
#X scalar 2028-squareWav 135800 -11 -31 28 15 -14 \;;
#X scalar 2028-squareWav 136000 -11 -14 15 22 -20 \;;
#X scalar 2028-squareWav 136200 -11 -20 22 38 -36 \;;
#X scalar 2028-squareWav 136400 -11 -36 38 52 -49 \;;
#X scalar 2028-squareWav 136600 -11 -49 52 55 -62 \;;
#X scalar 2028-squareWav 136800 -11 -62 55 51 -60 \;;
#X scalar 2028-squareWav 137000 -11 -60 51 55 -52 \;;
#X scalar 2028-squareWav 137200 -11 -52 55 61 -55 \;;
#X scalar 2028-squareWav 137400 -11 -55 61 55 -57 \;;
#X scalar 2028-squareWav 137600 -11 -57 55 50 -48 \;;
#X scalar 2028-squareWav 137800 -11 -48 50 40 -41 \;;
#X scalar 2028-squareWav 138000 -11 -41 40 32 -32 \;;
#X scalar 2028-squareWav 138200 -11 -32 32 25 -26 \;;
#X scalar 2028-squareWav 138400 -11 -26 25 15 -16 \;;
#X scalar 2028-squareWav 138600 -11 -16 15 14 -13 \;;
#X scalar 2028-squareWav 138800 -11 -13 14 11 -11 \;;
#X scalar 2028-squareWav 139000 -11 -11 11 10 -9 \;;
#X scalar 2028-squareWav 139200 -11 -9 10 8 -12 \;;
#X scalar 2028-squareWav 139400 -11 -12 8 15 -14 \;;
#X scalar 2028-squareWav 139600 -11 -14 15 44 -46 \;;
#X scalar 2028-squareWav 139800 -11 -46 44 100 -99 \;;
#X scalar 2028-squareWav 140000 -11 -99 100 180 -200 \;;
#X scalar 2028-squareWav 140200 -11 -200 180 303 -289 \;;
#X scalar 2028-squareWav 140400 -11 -289 303 392 -353 \;;
#X scalar 2028-squareWav 140600 -11 -353 392 441 -406 \;;
#X scalar 2028-squareWav 140800 -11 -406 441 505 -539 \;;
#X scalar 2028-squareWav 141000 -11 -539 505 525 -515 \;;
#X scalar 2028-squareWav 141200 -11 -515 525 568 -588 \;;
#X scalar 2028-squareWav 141400 -11 -588 568 606 -570 \;;
#X scalar 2028-squareWav 141600 -11 -570 606 558 -571 \;;
#X scalar 2028-squareWav 141800 -11 -571 558 585 -602 \;;
#X scalar 2028-squareWav 142000 -11 -602 585 534 -563 \;;
#X scalar 2028-squareWav 142200 -11 -563 534 502 -483 \;;
#X scalar 2028-squareWav 142400 -11 -483 502 430 -426 \;;
#X scalar 2028-squareWav 142600 -11 -426 430 355 -360 \;;
#X scalar 2028-squareWav 142800 -11 -360 355 310 -282 \;;
#X scalar 2028-squareWav 143000 -11 -282 310 188 -166 \;;
#X scalar 2028-squareWav 143200 -11 -166 188 75 -85 \;;
#X scalar 2028-squareWav 143400 -11 -85 75 24 -22 \;;
#X scalar 2028-squareWav 143600 -11 -22 24 41 -37 \;;
#X scalar 2028-squareWav 143800 -11 -37 41 61 -60 \;;
#X scalar 2028-squareWav 144000 -11 -60 61 73 -72 \;;
#X scalar 2028-squareWav 144200 -11 -72 73 77 -72 \;;
#X scalar 2028-squareWav 144400 -11 -72 77 60 -50 \;;
#X scalar 2028-squareWav 144600 -11 -50 60 64 -77 \;;
#X scalar 2028-squareWav 144800 -11 -77 64 98 -89 \;;
#X scalar 2028-squareWav 145000 -11 -89 98 78 -79 \;;
#X scalar 2028-squareWav 145200 -11 -79 78 69 -71 \;;
#X scalar 2028-squareWav 145400 -11 -71 69 44 -44 \;;
#X scalar 2028-squareWav 145600 -11 -44 44 18 -18 \;;
#X scalar 2028-squareWav 145800 -11 -18 18 24 -23 \;;
#X scalar 2028-squareWav 146000 -11 -23 24 36 -35 \;;
#X scalar 2028-squareWav 146200 -11 -35 36 40 -40 \;;
#X scalar 2028-squareWav 146400 -11 -40 40 38 -37 \;;
#X scalar 2028-squareWav 146600 -11 -37 38 25 -23 \;;
#X scalar 2028-squareWav 146800 -11 -23 25 24 -22 \;;
#X scalar 2028-squareWav 147000 -11 -22 24 20 -20 \;;
#X scalar 2028-squareWav 147200 -11 -20 20 24 -24 \;;
#X scalar 2028-squareWav 147400 -11 -24 24 27 -25 \;;
#X scalar 2028-squareWav 147600 -11 -25 27 26 -27 \;;
#X scalar 2028-squareWav 147800 -11 -27 26 40 -35 \;;
#X scalar 2028-squareWav 148000 -11 -35 40 51 -48 \;;
#X scalar 2028-squareWav 148200 -11 -48 51 44 -40 \;;
#X scalar 2028-squareWav 148400 -11 -40 44 43 -37 \;;
#X scalar 2028-squareWav 148600 -11 -37 43 32 -31 \;;
#X scalar 2028-squareWav 148800 -11 -31 32 25 -26 \;;
#X scalar 2028-squareWav 149000 -11 -26 25 53 -55 \;;
#X scalar 2028-squareWav 149200 -11 -55 53 82 -91 \;;
#X scalar 2028-squareWav 149400 -11 -91 82 123 -125 \;;
#X scalar 2028-squareWav 149600 -11 -125 123 137 -126 \;;
#X scalar 2028-squareWav 149800 -11 -126 137 191 -192 \;;
#X scalar 2028-squareWav 150000 -11 -192 191 204 -226 \;;
#X scalar 2028-squareWav 150200 -11 -226 204 235 -233 \;;
#X scalar 2028-squareWav 150400 -11 -233 235 256 -265 \;;
#X scalar 2028-squareWav 150600 -11 -265 256 247 -258 \;;
#X scalar 2028-squareWav 150800 -11 -258 247 240 -258 \;;
#X scalar 2028-squareWav 151000 -11 -258 240 220 -219 \;;
#X scalar 2028-squareWav 151200 -11 -219 220 162 -152 \;;
#X scalar 2028-squareWav 151400 -11 -152 162 110 -89 \;;
#X scalar 2028-squareWav 151600 -11 -89 110 92 -86 \;;
#X scalar 2028-squareWav 151800 -11 -86 92 61 -61 \;;
#X scalar 2028-squareWav 152000 -11 -61 61 52 -56 \;;
#X scalar 2028-squareWav 152200 -11 -56 52 67 -69 \;;
#X scalar 2028-squareWav 152400 -11 -69 67 55 -59 \;;
#X scalar 2028-squareWav 152600 -11 -59 55 44 -39 \;;
#X scalar 2028-squareWav 152800 -11 -39 44 24 -22 \;;
#X scalar 2028-squareWav 153000 -11 -22 24 15 -13 \;;
#X scalar 2028-squareWav 153200 -11 -13 15 14 -15 \;;
#X scalar 2028-squareWav 153400 -11 -15 14 23 -24 \;;
#X scalar 2028-squareWav 153600 -11 -24 23 22 -24 \;;
#X scalar 2028-squareWav 153800 -11 -24 22 21 -20 \;;
#X scalar 2028-squareWav 154000 -11 -20 21 18 -18 \;;
#X scalar 2028-squareWav 154200 -11 -18 18 18 -15 \;;
#X scalar 2028-squareWav 154400 -11 -15 18 19 -17 \;;
#X scalar 2028-squareWav 154600 -11 -17 19 20 -18 \;;
#X scalar 2028-squareWav 154800 -11 -18 20 21 -20 \;;
#X scalar 2028-squareWav 155000 -11 -20 21 24 -23 \;;
#X scalar 2028-squareWav 155200 -11 -23 24 25 -23 \;;
#X scalar 2028-squareWav 155400 -11 -23 25 19 -19 \;;
#X scalar 2028-squareWav 155600 -11 -19 19 14 -15 \;;
#X scalar 2028-squareWav 155800 -11 -15 14 9 -10 \;;
#X scalar 2028-squareWav 156000 -11 -10 9 4 -4 \;;
#X scalar 2028-squareWav 156200 -11 -4 4 3 -2 \;;
#X scalar 2028-squareWav 156400 -11 -2 3 8 -8 \;;
#X scalar 2028-squareWav 156600 -11 -8 8 8 -9 \;;
#X scalar 2028-squareWav 156800 -11 -9 8 7 -7 \;;
#X scalar 2028-squareWav 157000 -11 -7 7 3 -4 \;;
#X scalar 2028-squareWav 157200 -11 -4 3 2 -2 \;;
#X scalar 2028-squareWav 157400 -11 -2 2 4 -3 \;;
#X scalar 2028-squareWav 157600 -11 -3 4 8 -8 \;;
#X scalar 2028-squareWav 157800 -11 -8 8 11 -9 \;;
#X scalar 2028-squareWav 158000 -11 -9 11 23 -23 \;;
#X scalar 2028-squareWav 158200 -11 -23 23 98 -110 \;;
#X scalar 2028-squareWav 158400 -11 -110 98 199 -216 \;;
#X scalar 2028-squareWav 158600 -11 -216 199 276 -300 \;;
#X scalar 2028-squareWav 158800 -11 -300 276 342 -312 \;;
#X scalar 2028-squareWav 159000 -11 -312 342 353 -358 \;;
#X scalar 2028-squareWav 159200 -11 -358 353 425 -387 \;;
#X scalar 2028-squareWav 159400 -11 -387 425 424 -419 \;;
#X scalar 2028-squareWav 159600 -11 -419 424 399 -440 \;;
#X scalar 2028-squareWav 159800 -11 -440 399 464 -427 \;;
#X scalar 2028-squareWav 160000 -11 -427 464 452 -454 \;;
#X scalar 2028-squareWav 160200 -11 -454 452 432 -405 \;;
#X scalar 2028-squareWav 160400 -11 -405 432 421 -394 \;;
#X scalar 2028-squareWav 160600 -11 -394 421 343 -317 \;;
#X scalar 2028-squareWav 160800 -11 -317 343 284 -301 \;;
#X scalar 2028-squareWav 161000 -11 -301 284 324 -347 \;;
#X scalar 2028-squareWav 161200 -11 -347 324 434 -391 \;;
#X scalar 2028-squareWav 161400 -11 -391 434 414 -398 \;;
#X scalar 2028-squareWav 161600 -11 -398 414 348 -374 \;;
#X scalar 2028-squareWav 161800 -11 -374 348 307 -300 \;;
#X scalar 2028-squareWav 162000 -11 -300 307 183 -192 \;;
#X scalar 2028-squareWav 162200 -11 -192 183 44 -36 \;;
#X scalar 2028-squareWav 162400 -11 -36 44 146 -142 \;;
#X scalar 2028-squareWav 162600 -11 -142 146 139 -136 \;;
#X scalar 2028-squareWav 162800 -11 -136 139 34 -33 \;;
#X scalar 2028-squareWav 163000 -11 -33 34 56 -60 \;;
#X scalar 2028-squareWav 163200 -11 -60 56 64 -70 \;;
#X scalar 2028-squareWav 163400 -11 -70 64 71 -70 \;;
#X scalar 2028-squareWav 163600 -11 -70 71 114 -121 \;;
#X scalar 2028-squareWav 163800 -11 -121 114 69 -72 \;;
#X scalar 2028-squareWav 164000 -11 -72 69 26 -23 \;;
#X scalar 2028-squareWav 164200 -11 -23 26 2 -1 \;;
#X scalar 2028-squareWav 164400 -11 -1 2 21 -18 \;;
#X scalar 2028-squareWav 164600 -11 -18 21 35 -30 \;;
#X scalar 2028-squareWav 164800 -11 -30 35 46 -45 \;;
#X scalar 2028-squareWav 165000 -11 -45 46 36 -35 \;;
#X scalar 2028-squareWav 165200 -11 -35 36 36 -34 \;;
#X scalar 2028-squareWav 165400 -11 -34 36 68 -65 \;;
#X scalar 2028-squareWav 165600 -11 -65 68 59 -64 \;;
#X scalar 2028-squareWav 165800 -11 -64 59 32 -33 \;;
#X scalar 2028-squareWav 166000 -11 -33 32 24 -27 \;;
#X scalar 2028-squareWav 166200 -11 -27 24 28 -26 \;;
#X scalar 2028-squareWav 166400 -11 -26 28 41 -42 \;;
#X scalar 2028-squareWav 166600 -11 -42 41 40 -37 \;;
#X scalar 2028-squareWav 166800 -11 -37 40 11 -13 \;;
#X scalar 2028-squareWav 167000 -11 -13 11 22 -25 \;;
#X scalar 2028-squareWav 167200 -11 -25 22 37 -34 \;;
#X scalar 2028-squareWav 167400 -11 -34 37 38 -36 \;;
#X scalar 2028-squareWav 167600 -11 -36 38 47 -44 \;;
#X scalar 2028-squareWav 167800 -11 -44 47 29 -25 \;;
#X scalar 2028-squareWav 168000 -11 -25 29 20 -19 \;;
#X scalar 2028-squareWav 168200 -11 -19 20 26 -25 \;;
#X scalar 2028-squareWav 168400 -11 -25 26 9 -10 \;;
#X scalar 2028-squareWav 168600 -11 -10 9 15 -14 \;;
#X scalar 2028-squareWav 168800 -11 -14 15 17 -19 \;;
#X scalar 2028-squareWav 169000 -11 -19 17 10 -11 \;;
#X scalar 2028-squareWav 169200 -11 -11 10 8 -8 \;;
#X scalar 2028-squareWav 169400 -11 -8 8 5 -5 \;;
#X scalar 2028-squareWav 169600 -11 -5 5 6 -5 \;;
#X scalar 2028-squareWav 169800 -11 -5 6 3 -4 \;;
#X scalar 2028-squareWav 170000 -11 -4 3 12 -11 \;;
#X scalar 2028-squareWav 170200 -11 -11 12 10 -12 \;;
#X scalar 2028-squareWav 170400 -11 -12 10 9 -9 \;;
#X scalar 2028-squareWav 170600 -11 -9 9 7 -8 \;;
#X scalar 2028-squareWav 170800 -11 -8 7 1 -2 \;;
#X scalar 2028-squareWav 171000 -11 -2 1 3 -4 \;;
#X scalar 2028-squareWav 171200 -11 -4 3 7 -7 \;;
#X scalar 2028-squareWav 171400 -11 -7 7 4 -3 \;;
#X scalar 2028-squareWav 171600 -11 -3 4 2 -2 \;;
#X scalar 2028-squareWav 171800 -11 -2 2 0 0 \;;
#X scalar 2028-squareWav 172000 -11 0 0 4 -4 \;;
#X scalar 2028-squareWav 172200 -11 -4 4 8 -8 \;;
#X scalar 2028-squareWav 172400 -11 -8 8 8 -8 \;;
#X scalar 2028-squareWav 172600 -11 -8 8 8 -7 \;;
#X scalar 2028-squareWav 172800 -11 -7 8 3 -4 \;;
#X scalar 2028-squareWav 173000 -11 -4 3 4 -5 \;;
#X scalar 2028-squareWav 173200 -11 -5 4 8 -9 \;;
#X scalar 2028-squareWav 173400 -11 -9 8 6 -5 \;;
#X scalar 2028-squareWav 173600 -11 -5 6 3 -3 \;;
#X scalar 2028-squareWav 173800 -11 -3 3 1 -2 \;;
#X scalar 2028-squareWav 174000 -11 -2 1 4 -4 \;;
#X scalar 2028-squareWav 174200 -11 -4 4 3 -4 \;;
#X scalar 2028-squareWav 174400 -11 -4 3 2 -2 \;;
#X scalar 2028-squareWav 174600 -11 -2 2 1 -1 \;;
#X scalar 2028-squareWav 174800 -11 -1 1 2 -2 \;;
#X scalar 2028-squareWav 175000 -11 -2 2 1 -2 \;;
#X scalar 2028-squareWav 175200 -11 -2 1 2 -2 \;;
#X scalar 2028-squareWav 175400 -11 -2 2 3 -3 \;;
#X scalar 2028-squareWav 175600 -11 -3 3 2 -2 \;;
#X scalar 2028-squareWav 175800 -11 -2 2 0 -1 \;;
#X scalar 2028-squareWav 176000 -11 -1 0 2 -2 \;;
#X scalar 2028-squareWav 176200 -11 -2 2 2 -2 \;;
#X scalar 2028-squareWav 176400 -11 -2 2 1 -1 \;;
#X scalar 2028-squareWav 176600 -11 -1 1 0 0 \;;
#X scalar 2028-squareWav 176800 -11 0 0 1 0 \;;
#X scalar 2028-squareWav 177000 -11 0 1 9 -9 \;;
#X scalar 2028-squareWav 177200 -11 -9 9 2 -2 \;;
#X scalar 2028-squareWav 177400 -11 -2 2 1 -1 \;;
#X scalar 2028-squareWav 177600 -11 -1 1 1 -1 \;;
#X scalar 2028-squareWav 177800 -11 -1 1 1 -1 \;;
#X scalar 2028-squareWav 178000 -11 -1 1 1 0 \;;
#X scalar 2028-squareWav 178200 -11 0 1 0 0 \;;
#X scalar 2028-squareWav 178400 -11 0 0 0 0 \;;
#X scalar 2028-squareWav 178600 -11 0 0 0 0 \;;
#X scalar 2028-squareWav 178800 -11 0 0 0 0 \;;
#X scalar 2028-squareWav 179000 -11 0 0 1 -1 \;;
#X scalar 2028-squareWav 179200 -11 -1 1 0 0 \;;
#X scalar 2028-squareWav 179400 -11 0 0 0 0 \;;
#X scalar 2028-squareWav 179600 -11 0 0 15 -23 \;;
#X scalar 2028-squareWav 179800 -11 -23 15 0 0 \;;
#X scalar 2028-squareWav 180000 -11 0 0 1 -1 \;;
#X scalar 2028-squareWav 180200 -11 -1 1 1 0 \;;
#X scalar 2028-squareWav 180400 -11 0 1 0 0 \;;
#X scalar 2028-squareWav 180600 -11 0 0 0 0 \;;
#X scalar 2028-squareWav 180800 -11 0 0 1 -1 \;;
#X scalar 2028-squareWav 181000 -11 -1 1 1 -1 \;;
#X scalar 2028-squareWav 181200 -11 -1 1 1 0 \;;
#X scalar 2028-squareWav 181400 -11 0 1 0 0 \;;
#X scalar 2028-squareWav 181600 -11 0 0 0 0 \;;
#X scalar 2028-squareWav 181800 -11 0 0 0 -1 \;;
#X scalar 2028-squareWav 182000 -11 -1 0 0 0 \;;
#X scalar 2028-squareWav 182200 -11 0 0 0 0 \;;
#X scalar 2028-squareWav 182400 -11 0 0 0 0 \;;
#X scalar 2028-squareWav 182600 -11 0 0 0 0 \;;
#X scalar 2028-squareWav 182800 -11 0 0 0 0 \;;
#X scalar 2028-squareWav 183000 -11 0 0 0 0 \;;
#X scalar 2028-squareWav 183200 -11 0 0 0 0 \;;
#X scalar 2028-squareWav 183400 -11 0 0 0 0 \;;
#X scalar 2028-squareWav 183600 -11 0 0 0 0 \;;
#X scalar 2028-squareWav 183800 -11 0 0 0 0 \;;
#X scalar 2028-squareWav 184000 -11 0 0 0 0 \;;
#X scalar 2028-squareWav 184200 -11 0 0 0 0 \;;
#X scalar 2028-squareWav 184400 -11 0 0 0 0 \;;
#X scalar 2028-squareWav 184600 -11 0 0 0 0 \;;
#X scalar 2028-squareWav 184800 -11 0 0 0 0 \;;
#X scalar 2028-squareWav 185000 -11 0 0 0 0 \;;
#X scalar 2028-squareWav 185200 -11 0 0 0 0 \;;
#X scalar 2028-squareWav 185400 -11 0 0 0 0 \;;
#X scalar 2028-squareWav 185600 -11 0 0 0 0 \;;
#X scalar 2028-squareWav 185800 -11 0 0 0 0 \;;
#X scalar 2028-squareWav 186000 -11 0 0 0 0 \;;
#X scalar 2028-squareWav 186200 -11 0 0 0 0 \;;
#X scalar 2028-squareWav 186400 -11 0 0 0 0 \;;
#X scalar 2028-squareWav 186600 -11 0 0 0 0 \;;
#X scalar 2028-squareWav 186800 -11 0 0 0 0 \;;
#X scalar 2028-squareWav 187000 -11 0 0 0 0 \;;
#X scalar 2028-squareWav 187200 -11 0 0 0 0 \;;
#X scalar 2028-squareWav 187400 -11 0 0 0 0 \;;
#X scalar 2028-squareWav 187600 -11 0 0 0 0 \;;
#X scalar 2028-squareWav 187800 -11 0 0 0 0 \;;
#X scalar 2028-squareWav 188000 -11 0 0 0 0 \;;
#X scalar 2028-squareWav 188200 -11 0 0 0 0 \;;
#X scalar 2028-squareWav 188400 -11 0 0 0 0 \;;
#X scalar 2028-squareWav 188600 -11 0 0 0 0 \;;
#X scalar 2028-squareWav 188800 -11 0 0 0 0 \;;
#X scalar 2028-squareWav 189000 -11 0 0 0 0 \;;
#X scalar 2028-squareWav 189200 -11 0 0 0 0 \;;
#X scalar 2028-squareWav 189400 -11 0 0 0 0 \;;
#X scalar 2028-squareWav 189600 -11 0 0 0 0 \;;
#X scalar 2028-squareWav 189800 -11 0 0 0 0 \;;
#X scalar 2028-squareWav 190000 -11 0 0 0 0 \;;
#X scalar 2028-squareWav 190200 -11 0 0 0 0 \;;
#X scalar 2028-squareWav 190400 -11 0 0 0 0 \;;
#X scalar 2028-squareWav 190600 -11 0 0 0 0 \;;
#X scalar 2028-squareWav 190800 -11 0 0 0 0 \;;
#X scalar 2028-squareWav 191000 -11 0 0 0 0 \;;
#X scalar 2028-squareWav 191200 -11 0 0 0 0 \;;
#X scalar 2028-squareWav 191400 -11 0 0 0 0 \;;
#X scalar 2028-squareWav 191600 -11 0 0 0 0 \;;
#X scalar 2028-squareWav 191800 -11 0 0 0 0 \;;
#X scalar 2028-squareWav 192000 -11 0 0 0 0 \;;
#X scalar 2028-squareWav 192200 -11 0 0 0 0 \;;
#X scalar 2028-squareWav 192400 -11 0 0 0 0 \;;
#X scalar 2028-squareWav 192600 -11 0 0 0 0 \;;
#X scalar 2028-squareWav 192800 -11 0 0 0 0 \;;
#X scalar 2028-squareWav 193000 -11 0 0 0 0 \;;
#X scalar 2028-squareWav 193200 -11 0 0 0 0 \;;
#X scalar 2028-squareWav 193400 -11 0 0 0 0 \;;
#X scalar 2028-squareWav 193600 -11 0 0 0 0 \;;
#X scalar 2028-squareWav 193800 -11 0 0 0 0 \;;
#X scalar 2028-squareWav 194000 -11 0 0 0 0 \;;
#X scalar 2028-squareWav 194200 -11 0 0 0 0 \;;
#X scalar 2028-squareWav 194400 -11 0 0 0 0 \;;
#X scalar 2028-squareWav 194600 -11 0 0 0 0 \;;
#X scalar 2028-squareWav 194800 -11 0 0 0 0 \;;
#X scalar 2028-squareWav 195000 -11 0 0 0 0 \;;
#X scalar 2028-squareWav 195200 -11 0 0 0 0 \;;
#X scalar 2028-squareWav 195400 -11 0 0 0 0 \;;
#X scalar 2028-squareWav 195600 -11 0 0 0 0 \;;
#X scalar 2028-squareWav 195800 -11 0 0 0 0 \;;
#X scalar 2028-squareWav 196000 -11 0 0 0 0 \;;
#X scalar 2028-squareWav 196200 -11 0 0 0 0 \;;
#X scalar 2028-squareWav 196400 -11 0 0 0 0 \;;
#X scalar 2028-squareWav 196600 -11 0 0 0 0 \;;
#X scalar 2028-squareWav 196800 -11 0 0 0 0 \;;
#X scalar 2028-squareWav 197000 -11 0 0 0 0 \;;
#X scalar 2028-squareWav 197200 -11 0 0 0 0 \;;
#X scalar 2028-squareWav 197400 -11 0 0 0 0 \;;
#X scalar 2028-squareWav 197600 -11 0 0 0 0 \;;
#X scalar 2028-squareWav 197800 -11 0 0 0 0 \;;
#X scalar 2028-squareWav 198000 -11 0 0 0 0 \;;
#X scalar 2028-squareWav 198200 -11 0 0 0 0 \;;
#X scalar 2028-squareWav 198400 -11 0 0 0 0 \;;
#X scalar 2028-squareWav 198600 -11 0 0 0 0 \;;
#X scalar 2028-squareWav 198800 -11 0 0 0 0 \;;
#X scalar 2028-squareWav 199000 -11 0 0 0 0 \;;
#X scalar 2028-squareWav 199200 -11 0 0 0 0 \;;
#X scalar 2028-squareWav 199400 -11 0 0 0 0 \;;
#X scalar 2028-squareWav 199600 -11 0 0 0 0 \;;
#X scalar 2028-squareWav 199800 -11 0 0 0 0 \;;
#X scalar 2028-pointer 42168.2 -1000 \;;
#X coords 0 -1000 200000 1000 702 202 1;
#X restore 111 112 pd \$0-wavData;
#X obj 62 120 r \$2;
#X connect 1 0 0 0;
#X connect 19 0 0 0;
#X coords 0 -1 100000 1 722 260 1 100 100;
