#N canvas 347 236 728 592 10;
#X msg 8 34 set \$1;
#X obj 8 -271 inlet;
#X obj 217 -73 loop~;
#X obj 217 24 *~;
#X obj 202 211 hip~ 5;
#X obj 202 234 outlet~;
#X obj 217 51 tabread4~ \$1;
#X obj 488 -74 ftom;
#X obj 488 -110 *;
#X obj 503 -182 loadbang;
#X obj 503 -134 mtof;
#X msg 503 -158 60;
#X text 255 -75 (sample size);
#X obj 202 187 *~;
#X obj 107 -116 delay;
#X obj 134 -176 / 44.1;
#X obj 107 -90 0;
#X obj 390 212 outlet;
#X text 436 212 (done);
#X obj 217 -127 /;
#X obj 217 90 *~;
#X obj 261 90 *~;
#X obj 488 -6 sel 0;
#X obj 516 16 t b f;
#X obj 400 36 0;
#X obj 400 73 == 0;
#X obj 447 33 1;
#X obj 8 -247 route set;
#X obj 488 -29 expr $f2-$f1;
#X obj 217 -186 swap;
#X obj 107 -230 t b b l;
#X obj 261 170 pitchShift~;
#X obj 217 -15 expr~ abs($v1-$f2);
#X obj 217 -213 unpack 0 0 0 0 0 0 0;
#N canvas 115 378 559 442 envelope 0;
#X obj 91 78 -~ 0.5;
#X obj 91 179 clip~ -0.5 0.5;
#X obj 91 204 cos~;
#X obj 91 103 wrap~;
#X obj 91 132 -~ 0.5;
#X obj 91 252 *~ -0.5;
#X obj 91 227 -~ 1;
#X text 145 75 subtracting 0.5 and wrapping produces a sawtooth wave
180 degrees out of phase from the original.;
#X text 140 126 as before we subtract 1/2 again to center the sawtooth
from -1/2 to 1/2.;
#X obj 91 52 inlet~;
#X obj 91 389 outlet~;
#X obj 228 281 inlet;
#X obj 91 157 *~ 20;
#X obj 91 309 *~;
#X obj 371 325 vline~;
#X obj 371 348 sqrt~;
#X obj 371 372 *~;
#X obj 425 355 == 0;
#X msg 371 300 1 50 \, 0 50 \$1;
#X obj 371 218 inlet;
#X obj 421 218 inlet;
#X obj 371 277 expr ($f1-5000)/44.1;
#X obj 371 256 * 1;
#X connect 0 0 3 0;
#X connect 1 0 2 0;
#X connect 2 0 6 0;
#X connect 3 0 4 0;
#X connect 4 0 12 0;
#X connect 5 0 13 0;
#X connect 6 0 5 0;
#X connect 9 0 0 0;
#X connect 11 0 13 1;
#X connect 11 0 17 0;
#X connect 12 0 1 0;
#X connect 13 0 10 0;
#X connect 14 0 15 0;
#X connect 15 0 16 0;
#X connect 16 0 10 0;
#X connect 17 0 16 1;
#X connect 18 0 14 0;
#X connect 19 0 22 0;
#X connect 20 0 22 1;
#X connect 21 0 18 0;
#X connect 22 0 21 0;
#X restore 73 170 pd envelope;
#X connect 0 0 6 0;
#X connect 1 0 27 0;
#X connect 2 0 32 0;
#X connect 2 0 34 0;
#X connect 2 1 3 1;
#X connect 3 0 6 0;
#X connect 4 0 5 0;
#X connect 6 0 20 0;
#X connect 6 0 21 0;
#X connect 7 0 28 0;
#X connect 8 0 7 0;
#X connect 9 0 11 0;
#X connect 10 0 8 1;
#X connect 11 0 10 0;
#X connect 13 0 4 0;
#X connect 14 0 16 0;
#X connect 15 0 14 1;
#X connect 16 0 2 0;
#X connect 16 0 17 0;
#X connect 19 0 8 0;
#X connect 19 0 2 0;
#X connect 20 0 13 1;
#X connect 21 0 31 0;
#X connect 22 0 24 0;
#X connect 22 1 23 0;
#X connect 23 0 26 0;
#X connect 23 1 31 1;
#X connect 24 0 21 1;
#X connect 24 0 25 0;
#X connect 25 0 20 1;
#X connect 26 0 25 0;
#X connect 26 0 21 1;
#X connect 27 0 0 0;
#X connect 27 1 30 0;
#X connect 28 0 22 0;
#X connect 29 0 19 0;
#X connect 29 1 6 1;
#X connect 30 0 14 0;
#X connect 30 1 2 0;
#X connect 30 2 33 0;
#X connect 31 0 13 1;
#X connect 32 0 3 0;
#X connect 33 0 29 0;
#X connect 33 1 29 1;
#X connect 33 2 34 1;
#X connect 33 3 2 1;
#X connect 33 3 19 1;
#X connect 33 3 15 0;
#X connect 33 3 34 2;
#X connect 33 4 28 1;
#X connect 33 5 32 1;
#X connect 33 6 34 3;
#X connect 34 0 13 0;
