#N struct 1988-squareWav float x float y float a float b float c float
d;
#N struct 1988-pointer float x float y;
#N canvas 97 409 911 425 10;
#X obj 16 45 waveformDisplay;
#N canvas 964 500 230 283 openSample 0;
#X obj 18 20 inlet;
#X obj 18 108 soundfiler;
#X obj 18 64 pack s \$0;
#X msg 18 86 read -resize \$1 \$2-sample;
#X obj 91 42 table \$0-sample;
#X obj 18 42 openpanel;
#X obj 45 155 s \$0-sampleLenght;
#X obj 18 132 t b f;
#X obj 18 177 \$0;
#X obj 18 225 outlet;
#X msg 18 200 array \$1-sample;
#X connect 0 0 5 0;
#X connect 1 0 7 0;
#X connect 2 0 3 0;
#X connect 3 0 1 0;
#X connect 5 0 2 0;
#X connect 7 0 8 0;
#X connect 7 1 6 0;
#X connect 8 0 10 0;
#X connect 10 0 9 0;
#X restore 16 4 pd openSample;
#X obj 16 -17 bng 15 250 50 0 empty empty empty 17 7 0 10 -262144 -1
-1;
#N canvas 0 22 329 356 segmentSample 0;
#X obj 158 210 barkSpec \$0-sample 1;
#X obj 179 112 -;
#X obj 11 95 t l l;
#X obj 11 121 swap;
#X obj 11 146 t f f;
#X obj 158 163 pack;
#X obj 11 174 pack;
#X obj 11 227 list append;
#X obj 11 303 outlet;
#X obj 26 17 r \$0-sampleLenght;
#X obj 11 41 f;
#X obj 11 -11 inlet;
#X obj 11 253 list prepend segment;
#X obj 11 277 list trim;
#X msg 158 186 analyze \$1 2048;
#N canvas 108 29 524 517 onsetsDetectionFunction 0;
#X obj 11 116 until;
#X obj 11 211 specFlux \$0-sample;
#X obj 11 140 f;
#X obj 245 123 0;
#X obj 11 454 list-lastx 2;
#X obj 11 164 t f f;
#X obj 11 402 sel 1;
#X obj 11 425 f;
#X obj 11 64 t f b b;
#X obj 11 92 / 2048;
#X obj 40 140 + 2048;
#X obj 42 335 loadbang;
#X obj 42 357 3;
#X msg 11 187 analyze \$1 2048;
#X obj 11 39 inlet;
#X obj 11 480 outlet;
#X obj 291 231 sigmund~ -t env;
#X obj 291 181 pack f \$0;
#X obj 11 272 *;
#X msg 291 206 list \$2-sample 2048 \$1 44100 0;
#X obj 291 255 > 55;
#X obj 11 379 onsetDetect;
#X connect 0 0 2 0;
#X connect 1 0 18 0;
#X connect 2 0 5 0;
#X connect 2 0 10 0;
#X connect 3 0 2 1;
#X connect 3 0 4 0;
#X connect 4 0 15 0;
#X connect 5 0 13 0;
#X connect 5 1 7 1;
#X connect 5 1 17 0;
#X connect 6 0 7 0;
#X connect 7 0 4 0;
#X connect 8 0 9 0;
#X connect 8 1 3 0;
#X connect 8 2 4 1;
#X connect 8 2 21 2;
#X connect 9 0 0 0;
#X connect 10 0 2 1;
#X connect 11 0 12 0;
#X connect 12 0 21 1;
#X connect 13 0 1 0;
#X connect 14 0 8 0;
#X connect 16 0 20 0;
#X connect 17 0 19 0;
#X connect 18 0 21 0;
#X connect 19 0 16 0;
#X connect 20 0 18 1;
#X connect 21 0 6 0;
#X restore 11 68 pd onsetsDetectionFunction;
#X connect 0 0 7 1;
#X connect 1 0 5 1;
#X connect 2 0 3 0;
#X connect 2 1 1 0;
#X connect 3 0 4 0;
#X connect 3 1 6 1;
#X connect 4 0 6 0;
#X connect 4 1 5 0;
#X connect 5 0 14 0;
#X connect 6 0 7 0;
#X connect 7 0 12 0;
#X connect 9 0 10 1;
#X connect 10 0 15 0;
#X connect 11 0 10 0;
#X connect 12 0 13 0;
#X connect 13 0 8 0;
#X connect 14 0 0 0;
#X connect 15 0 2 0;
#X restore 121 4 pd segmentSample;
#X obj 121 -19 bng 15 250 50 0 empty empty empty 17 7 0 10 -262144
-1 -1;
#X msg 249 4 clear;
#X obj 5 -92 cnv 15 900 60 empty empty waveformDisplay 20 12 0 14 -233017
-66577 0;
#X floatatom 317 -18 5 0 0 0 - - -;
#X msg 317 4 pointer \$1;
#X text 755 -53 2013 Gilberto Bernardes;
#X text 762 46 arg:;
#X text 762 68 table name;
#X text 762 90 ...;
#N canvas 742 22 494 344 META 0;
#X text 12 45 LICENSE GPL v3;
#X text 12 177 RELEASE_DATE 2013;
#X text 12 157 WEBSITE https://sites.google.com/site/eargram/;
#X text 12 137 AUTHOR Gilberto Bernardes;
#X text 12 25 KEYWORDS;
#X text 12 117 LIBRARY earGram_abs;
#X text 12 65 DESCRIPTION plots a waveform and additional layers of
analysis (bark spec and segments);
#X text 12 98 INLET_0 array segment pointer plot zoom clear;
#X restore 854 303 pd META;
#X msg 423 4 zoom +;
#X msg 487 4 zoom -;
#X text 22 -63 plots a waveform and additional layers of analysis (bark
spec and segments);
#X obj 772 -2 tgl 15 0 empty empty empty 17 7 0 10 -262144 -1 -1 0
1;
#X msg 756 16 plot \$1;
#X msg 606 -15 plot markers \$1;
#X obj 731 -17 tgl 15 0 empty empty empty 17 7 0 10 -262144 -1 -1 0
1;
#X msg 562 4 plot waveform \$1;
#X msg 670 9 plot spec \$1;
#X connect 1 0 0 0;
#X connect 2 0 1 0;
#X connect 3 0 0 0;
#X connect 4 0 3 0;
#X connect 5 0 0 0;
#X connect 7 0 8 0;
#X connect 8 0 0 0;
#X connect 14 0 0 0;
#X connect 17 0 18 0;
#X connect 18 0 0 0;
#X connect 19 0 0 0;
#X connect 20 0 19 0;
#X coords 0 0 1 1 805 140 0;
