#N canvas 1199 629 692 697 12;
#X msg 30 48 listen 0;
#X msg 17 16 listen 8000;
#X obj 17 74 netreceive -u -b 8000;
#X obj 17 100 oscparse;
#X obj 17 126 list trim;
#X obj 17 153 route time;
#X obj 17 178 route str;
#X obj 28 517 print reaper-clock;
#X obj 207 255 list fromsymbol;
#X obj 283 319 list length;
#X floatatom 230 212 5 0 0 0 - - - 0;
#X obj 312 524 print;
#X floatatom 343 344 5 0 0 0 - - - 0;
#X obj 312 187 symbol;
#X obj 217 402 list split;
#X obj 207 280 t l l;
#X obj 255 446 list tosymbol;
#X obj 416 361 - 4;
#X connect 0 0 2 0;
#X connect 1 0 2 0;
#X connect 2 0 3 0;
#X connect 3 0 4 0;
#X connect 4 0 5 0;
#X connect 5 0 6 0;
#X connect 6 0 13 0;
#X connect 8 0 15 0;
#X connect 9 0 12 0;
#X connect 9 0 17 0;
#X connect 13 0 8 0;
#X connect 14 0 16 0;
#X connect 15 0 14 0;
#X connect 15 1 9 0;
#X connect 16 0 11 0;
#X connect 17 0 14 1;
