#N canvas 820 22 450 300 10;
#X declare -path ./_externals -path ./_abs;
#X obj 3 6 nanoKontrol2;
#N canvas 108 22 437 496 sound_processing 1;
#X obj -1 8 adc~ 1 2;
#X text 59 8 <- Canales de entrada. Para hacer pruebas con archivos
de sonido en lugar de micrófonos \, vete a 'Pd' -> 'Preferences' ->
'Audio Settings' y selecciona 'Soundflower (2ch)' como tu interfaz
de entrada. El interfaz de salida debe ser el que está conectado a
tus altavoces \, bien el 'Built-in' del ordenador o un interfaz externo.
A parte \, en las preferencias generales del sistema \, debes seleccionar
'Soundflower (2ch)' como interfaz de SALIDA. De este modo \, todo el
audio del sistema (iTunes \, Quicktime...) servirá como entrada de
Pd (y por tanto no lo oirás hasta que tengas Pd activado y computando
audio.;
#X obj -1 315 dac~ 1 2;
#X text 63 313 <- Canales de salida. Envía el sonido irectamente a
las salidas L y R de tu tarjeta de sonido.;
#N canvas 0 22 566 319 procc 1;
#X obj 16 17 inlet~;
#X obj 76 17 inlet~;
#X obj 16 263 outlet~;
#X obj 76 263 outlet~;
#X obj 53 67 +~;
#X obj 54 92 s~ input;
#X obj 14 175 catch~ filterOut;
#X obj 441 188 abs.filter 1;
#X obj 441 208 abs.filter 2;
#X connect 0 0 4 0;
#X connect 1 0 4 1;
#X connect 4 0 5 0;
#X connect 6 0 2 0;
#X connect 6 0 3 0;
#X restore -1 224 pd procc;
#X connect 0 0 4 0;
#X connect 0 1 4 1;
#X connect 4 0 2 0;
#X connect 4 1 2 1;
#X restore 3 51 pd sound_processing;
#X text 84 4 <- click to see GUI;
#N canvas 334 22 755 377 maps 1;
#X obj 8 7 r out_track-;
#X obj 37 28 r out_track+;
#X obj 8 137 + 1;
#X msg 37 106 1;
#X msg 8 106 -1;
#X obj 8 263 s controlGate;
#X obj 72 51 r init_controlGate;
#X obj 72 78 t b f;
#X obj 14 205 tosymbol;
#X msg 14 227 \; scene label \$1;
#X obj 8 159 mod 3;
#X obj 8 182 + 1;
#X text 46 158 number of Scenes;
#X obj 34 137 f 1;
#X obj 312 100 r out_fader1;
#X floatatom 312 128 5 0 0 0 - - -;
#X obj 323 213 / 127;
#X floatatom 323 233 5 0 0 0 - - -;
#X obj 326 261 s 1-filterVol;
#X obj 416 261 s 1-filterFreq;
#X floatatom 415 236 5 0 0 0 - - -;
#X floatatom 514 212 5 0 0 0 - - -;
#X obj 515 261 s 1-filterQ;
#X floatatom 604 236 5 0 0 0 - - -;
#X obj 605 261 s 1-filterDelay;
#X floatatom 323 283 5 0 0 0 - - -;
#X floatatom 415 286 5 0 0 0 - - -;
#X floatatom 514 286 5 0 0 0 - - -;
#X floatatom 604 286 5 0 0 0 - - -;
#X obj 326 312 s 2-filterVol;
#X obj 416 311 s 2-filterFreq;
#X obj 515 311 s 2-filterQ;
#X obj 605 311 s 2-filterDelay;
#X obj 17 294;
#X connect 0 0 4 0;
#X connect 1 0 3 0;
#X connect 2 0 10 0;
#X connect 2 0 13 0;
#X connect 3 0 2 0;
#X connect 4 0 2 0;
#X connect 6 0 7 0;
#X connect 7 0 3 0;
#X connect 7 1 13 0;
#X connect 8 0 9 0;
#X connect 10 0 11 0;
#X connect 11 0 8 0;
#X connect 11 0 5 0;
#X connect 13 0 2 1;
#X connect 14 0 15 0;
#X connect 15 0 16 0;
#X connect 16 0 17 0;
#X connect 17 0 18 0;
#X connect 20 0 19 0;
#X connect 21 0 22 0;
#X connect 23 0 24 0;
#X connect 25 0 29 0;
#X connect 26 0 30 0;
#X connect 27 0 31 0;
#X connect 28 0 32 0;
#X restore 3 28 pd maps;
