#N canvas 571 -768 546 682 10;
#X obj 143 370 phasor~ 10;
#X obj 176 533 *~;
#X msg 143 330 1000 \$1;
#X obj 143 350 /;
#X obj 143 310 r \$1-windowSize;
#X obj 348 475 cos~;
#X obj 348 497 *~ -0.5;
#X obj 348 518 +~ 0.5;
#X obj 333 539 *~;
#X obj 176 556 +~;
#X obj 298 387 +~ 0.5;
#X obj 298 409 wrap~;
#X obj 247 475 vd~ \$1-delay 10;
#X obj 92 468 vd~ \$1-delay 10;
#X obj 191 468 cos~;
#X obj 191 490 *~ -0.5;
#X obj 191 511 +~ 0.5;
#X obj 42 385 vline~;
#X obj 92 447 samphold~;
#X obj 247 452 samphold~;
#X obj 42 341 pack 0 0 0;
#X obj 42 290 t b f f;
#X msg 42 363 \$1 \, \$2 \$3;
#X msg 114 257 1 \$1;
#X obj 114 277 /;
#X obj 42 240 t f f;
#X obj 114 299 + 1;
#X obj 42 218 - 1;
#X obj -78 449 cos~;
#X obj -78 471 *~ -0.5;
#X obj -78 492 +~ 0.5;
#X obj 99 320 * 1;
#X obj 42 269 * 1000;
#X obj 42 197 f 2;
#X obj 213 -6 gauss 1 2;
#X obj 213 15 max 1;
#X obj 57 175 r \$1-stretchRatio;
#X obj 61 44 gauss 1 2;
#X obj 186 175 max 1;
#X obj 42 -23 t b b b;
#X obj 225 252 delay;
#X obj 225 274 s \$0-loop;
#X obj 225 175 r \$1-switch;
#X obj 225 197 sel 0;
#X msg 225 221 stop;
#X obj 42 -43 r \$0-loop;
#X obj 112 21 r \$1-GDen.m;
#X obj 238 -45 r \$1-GDur.d;
#X obj 264 -26 r \$1-GDur.m;
#X obj 161 575 *~;
#X obj 220 35 s \$0-GDur;
#X obj -78 427 vline~;
#X obj -21 363 r \$0-GDur;
#X msg -78 406 \$1 \, \$2 \$3;
#X obj 85 230 r \$0-GDur;
#X obj -78 385 pack 0 1 1;
#X obj 161 595 throw~ \$1-out\$2;
#X obj 300 175 * \$2;
#X obj 312 201 -;
#X obj 300 155 t f f;
#X obj 201 114 r \$1-voices;
#X obj 86 0 r \$1-GDen.d;
#X floatatom -39 98 5 0 0 0 - - -;
#X msg 61 64 1000 \$1;
#X obj 61 86 /;
#X floatatom 89 86 5 0 0 0 - - -;
#X obj 186 155 * 6;
#X floatatom 255 17 5 0 0 0 - - -;
#X obj 61 108 t f f;
#X text -28 -4 tal vez un /6 aqui;
#X obj 291 224 pipe;
#X obj -34 31 / 6;
#X floatatom 283 120 5 0 0 0 - - -;
#X connect 0 0 10 0;
#X connect 0 0 14 0;
#X connect 0 0 18 1;
#X connect 1 0 9 0;
#X connect 2 0 3 0;
#X connect 3 0 0 0;
#X connect 4 0 2 0;
#X connect 5 0 6 0;
#X connect 6 0 7 0;
#X connect 7 0 8 1;
#X connect 8 0 9 1;
#X connect 9 0 49 1;
#X connect 10 0 11 0;
#X connect 11 0 5 0;
#X connect 11 0 19 1;
#X connect 12 0 8 0;
#X connect 13 0 1 0;
#X connect 14 0 15 0;
#X connect 15 0 16 0;
#X connect 16 0 1 1;
#X connect 17 0 18 0;
#X connect 17 0 19 0;
#X connect 18 0 13 0;
#X connect 19 0 12 0;
#X connect 20 0 22 0;
#X connect 21 0 20 0;
#X connect 21 0 55 0;
#X connect 21 1 20 1;
#X connect 21 2 31 0;
#X connect 22 0 17 0;
#X connect 23 0 24 0;
#X connect 24 0 26 0;
#X connect 25 0 32 0;
#X connect 25 1 23 0;
#X connect 26 0 31 1;
#X connect 27 0 25 0;
#X connect 28 0 29 0;
#X connect 29 0 30 0;
#X connect 30 0 49 0;
#X connect 31 0 20 2;
#X connect 32 0 21 0;
#X connect 33 0 27 0;
#X connect 34 0 35 0;
#X connect 35 0 38 1;
#X connect 35 0 50 0;
#X connect 35 0 67 0;
#X connect 36 0 33 1;
#X connect 37 0 62 0;
#X connect 37 0 63 0;
#X connect 38 0 40 0;
#X connect 39 0 33 0;
#X connect 39 1 37 0;
#X connect 39 2 34 0;
#X connect 40 0 41 0;
#X connect 42 0 43 0;
#X connect 43 0 44 0;
#X connect 43 1 70 0;
#X connect 44 0 40 0;
#X connect 45 0 39 0;
#X connect 46 0 37 2;
#X connect 47 0 34 1;
#X connect 48 0 34 2;
#X connect 49 0 56 0;
#X connect 51 0 28 0;
#X connect 52 0 55 2;
#X connect 53 0 51 0;
#X connect 54 0 32 1;
#X connect 55 0 53 0;
#X connect 57 0 58 0;
#X connect 58 0 70 1;
#X connect 59 0 57 0;
#X connect 59 1 58 1;
#X connect 60 0 66 1;
#X connect 61 0 71 0;
#X connect 63 0 64 0;
#X connect 64 0 65 0;
#X connect 64 0 68 0;
#X connect 66 0 38 0;
#X connect 66 0 72 0;
#X connect 68 0 66 0;
#X connect 68 1 59 0;
#X connect 70 0 40 0;
#X connect 71 0 37 1;
