#N canvas 331 38 574 360 10;
#X obj 156 26 delwrite~ \$0-delay 100000;
#X obj -16 191 catch~ \$0-out1;
#X obj 2 211 catch~ \$0-out2;
#X obj 21 231 catch~ \$0-out3;
#X obj 39 251 catch~ \$0-out4;
#X obj 141 84 *~ 0.1;
#X obj -16 45 \$0;
#X obj -16 25 bng 15 250 50 0 empty empty empty 17 7 0 10 -262144 -1
-1;
#X obj -16 4 loadbang;
#X obj -16 313 dac~ 1 2 3 4 5 6;
#X obj 58 271 catch~ \$0-out5;
#X obj 77 291 catch~ \$0-out6;
#X obj 174 46 tgl 15 0 empty empty empty 17 7 0 10 -262144 -1 -1 0
1;
#X obj 141 4 adc~ 1;
#X obj 188 140 cnv 15 300 180 empty empty empty 20 12 0 14 -261682
-66577 0;
#X obj 202 225 s \$0-windowSize;
#X floatatom 202 202 5 0 0 0 - - -, f 5;
#X floatatom 203 251 5 0 0 0 - - -, f 5;
#X obj 203 274 s \$0-stretchRatio;
#X floatatom 316 201 5 0 0 0 - - -, f 5;
#X floatatom 316 251 5 0 0 0 - - -, f 5;
#X floatatom 396 251 5 0 0 0 - - -, f 5;
#X obj 201 175 s \$0-switch;
#X obj 201 155 tgl 15 0 empty empty empty 17 7 0 10 -262144 -1 -1 0
1;
#X obj 316 274 s \$0-GDur.d;
#X obj 316 224 s \$0-GDur.m;
#X obj 396 224 s \$0-GDen.m;
#X obj 396 274 s \$0-GDen.d;
#X floatatom 396 202 5 0 0 0 - - -, f 5;
#X text 203 294 (var1*2);
#X obj 415 8 a.tsv \$0 1;
#X obj 141 104 throw~ \$0-out1;
#X obj 259 61 phasor~ 1;
#X obj 323 91 osc~;
#X obj 260 89 *~ 200;
#X obj 262 113 +~ 200;
#X obj 174 64 * 0.1;
#X obj 328 118 *~ 0.5;
#X msg -16 66 \; \$1-switch 0 \; \$1-windowSize 5 \; \$1-voices 6 \;
\$1-stretchRatio 2.1 \; \$1-GDur.m 23 \; \$1-GDur.d 0 \; \$1-GDen.m
15 \; \$1-GDen.d 0;
#X obj 415 28 a.tsv \$0 2;
#X obj 416 49 a.tsv \$0 3;
#X obj 416 69 a.tsv \$0 4;
#X obj 416 89 a.tsv \$0 5;
#X obj 416 109 a.tsv \$0 6;
#X connect 1 0 9 0;
#X connect 2 0 9 1;
#X connect 3 0 9 2;
#X connect 4 0 9 3;
#X connect 5 0 31 0;
#X connect 6 0 38 0;
#X connect 7 0 6 0;
#X connect 8 0 7 0;
#X connect 10 0 9 4;
#X connect 11 0 9 5;
#X connect 12 0 36 0;
#X connect 13 0 0 0;
#X connect 16 0 15 0;
#X connect 17 0 18 0;
#X connect 19 0 25 0;
#X connect 20 0 24 0;
#X connect 21 0 27 0;
#X connect 23 0 22 0;
#X connect 28 0 26 0;
#X connect 32 0 34 0;
#X connect 33 0 37 0;
#X connect 34 0 35 0;
#X connect 35 0 33 0;
#X connect 36 0 5 1;
#X connect 37 0 0 0;
#X connect 37 0 5 0;
