#N canvas 1089 349 656 445 10;
#X obj 202 217 bng 15 250 50 0 empty empty empty 17 7 0 10 -262144
-1 -1;
#X obj 202 294 s new-chord;
#X obj 202 260 \$2 \$3 \$4 \$5 \$6 \$7 \$8 \$9 \$10 \$11;
#X obj 85 264 symbol \$1;
#X obj 85 294 cyclone/fromsymbol;
#X obj 85 323 print type;
#X connect 0 0 2 0;
#X connect 0 0 3 0;
#X connect 2 0 1 0;
#X connect 3 0 4 0;
#X connect 4 0 5 0;
#X coords 0 -1 1 1 85 36 1 200 200;
