#N canvas 395 313 283 544 10;
#X obj 106 489 throw~ suma;
#X obj 107 278 *~;
#X obj 121 256 line~;
#X msg 121 235 \$1 10;
#X obj 121 165 r chord-length;
#X obj 121 212 >= \$1;
#X obj 35 34 r chord;
#X obj 42 77 r root;
#X obj 35 56 packel \$1;
#X obj 35 122 + 60;
#X obj 42 99 t b f;
#X obj 35 238 osc~;
#X obj 121 302 r chord-length;
#X obj 35 146 mtof;
#X obj 121 443 line~;
#X obj 121 368 t f b, f 8;
#X obj 106 464 *~;
#X obj 121 346 /;
#X msg 121 324 1 \$1;
#X obj 121 392 pipe 10;
#X obj 35 189 t f b;
#X msg 56 213 0;
#X msg 166 418 0 5;
#X obj 121 187 pipe 6;
#X obj 35 166 pipe 6, f 7;
#X msg 121 415 \$1 20;
#X connect 1 0 16 0;
#X connect 2 0 1 1;
#X connect 3 0 2 0;
#X connect 4 0 23 0;
#X connect 5 0 3 0;
#X connect 6 0 8 0;
#X connect 7 0 10 0;
#X connect 8 0 9 0;
#X connect 9 0 13 0;
#X connect 10 0 9 0;
#X connect 10 1 9 1;
#X connect 11 0 1 0;
#X connect 12 0 18 0;
#X connect 13 0 24 0;
#X connect 14 0 16 1;
#X connect 15 0 19 0;
#X connect 15 1 22 0;
#X connect 16 0 0 0;
#X connect 17 0 15 0;
#X connect 18 0 17 0;
#X connect 19 0 25 0;
#X connect 20 0 11 0;
#X connect 20 1 21 0;
#X connect 21 0 11 1;
#X connect 22 0 14 0;
#X connect 23 0 5 0;
#X connect 24 0 20 0;
#X connect 25 0 14 0;
