#N canvas 651 137 1236 798 10;
#X obj 68 510 length;
#X obj 68 532 s chord-length;
#X floatatom 13 105 5 0 0 0 - - -, f 5;
#X obj 13 124 s root;
#X msg 13 83 60;
#X obj 13 62 loadbang;
#X obj 41 487 t l l;
#X obj 41 555 s chord;
#X obj 13 148 chord-voice 1;
#X obj 13 352 catch~ suma;
#X obj 13 380 *~ 0.1;
#X obj 13 402 dac~;
#X obj 13 188 chord-voice 3;
#X obj 13 308 chord-voice 9;
#X obj 13 168 chord-voice 2;
#X obj 13 208 chord-voice 4;
#X obj 13 228 chord-voice 5;
#X obj 13 248 chord-voice 6;
#X obj 13 268 chord-voice 7;
#X obj 13 288 chord-voice 8;
#X obj 13 328 chord-voice 10;
#X obj 41 464 r new-chord;
#X obj 66 383 tgl 15 0 empty empty empty 17 7 0 10 -262144 -1 -1 0
1;
#X obj 505 237 chord minor 0 3 7;
#X obj 505 277 chord major 0 4 7;
#X obj 365 237 chord dim 0 3 6;
#X obj 615 277 chord aug 0 4 8;
#X obj 505 316 chord sus4 0 5 7;
#X obj 733 277 chord minor1 0 4 9;
#X obj 849 277 chord 7omit5 0 4 10;
#X obj 988 277 chord M7omit5 0 4 11;
#X obj 365 277 chord add11omit5 0 4 5;
#X obj 615 237 chord major1 0 3 8;
#X obj 732 237 chord dim1 0 3 9;
#X obj 848 237 chord m7omit5 0 3 10;
#X obj 988 237 chord mM7omit5 0 3 11;
#X obj 505 356 chord sus4 0 6 7;
#X obj 505 157 chord x 0 1 7;
#X obj 505 197 chord x 0 2 7;
#X obj 615 197 chord x 0 2 8;
#X obj 732 197 chord x 0 2 9;
#X obj 988 197 chord x 0 2 11;
#X obj 847 197 chord x 0 2 10;
#X connect 0 0 1 0;
#X connect 2 0 3 0;
#X connect 4 0 2 0;
#X connect 5 0 4 0;
#X connect 6 0 7 0;
#X connect 6 1 0 0;
#X connect 9 0 10 0;
#X connect 10 0 11 0;
#X connect 10 0 11 1;
#X connect 21 0 6 0;
