#N canvas 541 92 739 544 10;
#X msg 30 43 0.748 0.06 0.488 0.082 0.67 0.46 0.096 0.715 0.104 0.366
0.057 0.4;
#X msg 38 104 0.712 0.084 0.474 0.618 0.049 0.46 0.105 0.747 0.404
0.067 0.133 0.33;
#X text 37 86 Temperley 2007 \, minor (kotska);
#X text 28 23 Temperley 2007 \, major (kotska);
#N canvas 0 22 450 278 (subpatch) 0;
#X array major 12 float 1;
#A 0 0.748 0.06 0.488 0.082 0.67 0.46 0.096 0.715 0.104 0.366 0.057
0.4;
#X coords -1 1 12 0 200 140 1 0 0;
#X restore 40 215 graph;
#X obj 302 323 tabread major;
#X floatatom 302 403 7 0 0 0 - - -;
#X obj 302 249 list-abs/list-sieve;
#X obj 413 322 tabread major;
#X floatatom 413 412 7 0 0 0 - - -;
#X obj 394 172 t b a b;
#X msg 303 206 12;
#X obj 413 363 -;
#X msg 413 342 1 \$1;
#X obj 302 350 * 1;
#X obj 332 350 f;
#X obj 413 384 * 1;
#X obj 443 384 f;
#X msg 443 249 1;
#X obj 354 448 f;
#X obj 309 445 f;
#X obj 341 487 *;
#X floatatom 341 509 6 0 0 0 - - -;
#X obj 251 409 bng 15 250 50 0 empty empty empty 17 7 0 10 -262144
-1 -1;
#X msg 394 150 0 4 7;
#X obj 437 462 print;
#X obj 30 167 zexy/tabset major;
#X obj 303 227 gspd/forloop;
#X connect 0 0 26 0;
#X connect 1 0 26 0;
#X connect 5 0 14 0;
#X connect 6 0 20 1;
#X connect 7 0 5 0;
#X connect 7 1 8 0;
#X connect 8 0 13 0;
#X connect 9 0 19 1;
#X connect 9 0 25 0;
#X connect 10 0 11 0;
#X connect 10 1 7 1;
#X connect 10 2 18 0;
#X connect 11 0 27 0;
#X connect 12 0 16 0;
#X connect 13 0 12 0;
#X connect 14 0 6 0;
#X connect 14 0 15 0;
#X connect 15 0 14 1;
#X connect 16 0 9 0;
#X connect 16 0 17 0;
#X connect 17 0 16 1;
#X connect 18 0 17 0;
#X connect 18 0 15 0;
#X connect 19 0 21 1;
#X connect 20 0 21 0;
#X connect 21 0 22 0;
#X connect 23 0 20 0;
#X connect 23 0 19 0;
#X connect 24 0 10 0;
#X connect 27 0 7 0;
