#N canvas 288 23 659 653 16;
#X obj 253 16 cnv 15 380 400 empty empty empty 20 12 0 14 -4034 -66577
0;
#N canvas 0 23 434 429 ticks 0;
#X obj 30 30 r filesize;
#X obj 30 100 * 0.25;
#X obj 30 129 t f f f f;
#X obj 31 215 pack f f f f;
#X obj 83 169 * 3;
#X obj 41 170 * 2;
#X obj 129 169 * 4;
#X msg 40 266 \; phase ylabel -20 1 0 -1 \; phase yticks 0 0.5 2 \;
phase xlabel -1.15 0 \$1 \$2 \$3 \$4 \; phase xticks 1 \$1 \$2 \$3
\$4 \;;
#X connect 0 0 1 0;
#X connect 1 0 2 0;
#X connect 2 0 3 0;
#X connect 2 1 5 0;
#X connect 2 2 4 0;
#X connect 2 3 6 0;
#X connect 3 0 7 0;
#X connect 4 0 3 2;
#X connect 5 0 3 1;
#X connect 6 0 3 3;
#X restore 24 68 pd ticks;
#X obj 34 158 samplerate~;
#X msg 34 128 bang;
#X floatatom 34 189 5 0 0 0 - - -;
#X obj 114 68 r filesize;
#X obj 34 217 /, f 13;
#X obj 114 98 t b f;
#N canvas 0 23 1483 799 load-file 0;
#X obj 44 109 soundfiler;
#X obj 44 50 openpanel;
#X obj 44 157 f;
#X obj 52 137 bng 17 250 50 0 empty empty empty 17 7 0 10 -262144 -1
-1;
#X msg 44 80 read -resize \$1 soundfile;
#X obj 44 248 s filesize;
#X obj 54 218 s phase;
#X msg 54 188 resize \$1;
#X obj 44 21 inlet;
#N canvas 0 22 450 278 (subpatch) 0;
#X array phase 88200 float 2;
#X coords 0 1 88200 -1 700 140 1 0 0;
#X restore 43 336 graph;
#N canvas 0 22 450 278 (subpatch) 0;
#X array soundfile 88200 float 2;
#X coords 0 1 88200 -1 700 140 1 0 0;
#X restore 43 336 graph;
#X connect 0 0 2 0;
#X connect 1 0 4 0;
#X connect 2 0 5 0;
#X connect 2 0 7 0;
#X connect 3 0 2 0;
#X connect 4 0 0 0;
#X connect 7 0 6 0;
#X connect 8 0 1 0;
#X restore 24 37 pd load-file;
#X msg 24 9 bang;
#X obj 296 482 - 3;
#X obj 259 542 +~ 1;
#X obj 259 511 *~ 1;
#X obj 259 576 tabread4~ soundfile;
#X obj 296 453 r filesize;
#X obj 244 615 dac~;
#X obj 259 359 * 1;
#X msg 293 88 1 \$1;
#X obj 293 118 /;
#X msg 293 149 2 \$1;
#X obj 293 180 pow;
#X floatatom 293 210 0 0 0 0 - - -;
#X obj 259 270 pow;
#X floatatom 259 299 5 0 0 0 - - -;
#X obj 256 239 swap;
#X obj 259 327 t b f;
#X floatatom 256 24 5 0 0 0 - - -;
#X floatatom 293 56 5 0 0 0 - - -;
#X text 356 45 number of equal divisions per octave, f 21;
#X obj 259 422 phasor~;
#X text 348 138 2 represents the "octave" ratio (= doubling frequency)
, f 28;
#X floatatom 270 389 5 0 0 0 - - -;
#X text 321 20 TRANSPOSITION IN SEMITONES!;
#X connect 2 0 4 0;
#X connect 3 0 2 0;
#X connect 4 0 6 0;
#X connect 5 0 7 0;
#X connect 6 0 16 0;
#X connect 7 0 3 0;
#X connect 7 1 6 1;
#X connect 9 0 8 0;
#X connect 10 0 12 1;
#X connect 11 0 13 0;
#X connect 12 0 11 0;
#X connect 13 0 15 0;
#X connect 13 0 15 1;
#X connect 14 0 10 0;
#X connect 16 0 29 0;
#X connect 16 0 31 0;
#X connect 17 0 18 0;
#X connect 18 0 19 0;
#X connect 19 0 20 0;
#X connect 20 0 21 0;
#X connect 21 0 24 1;
#X connect 22 0 23 0;
#X connect 23 0 25 0;
#X connect 24 0 22 0;
#X connect 24 1 22 1;
#X connect 25 0 16 0;
#X connect 25 1 16 1;
#X connect 26 0 24 0;
#X connect 27 0 17 0;
#X connect 29 0 12 0;
