#N canvas 262 85 788 587 16;
#X obj 99 324 soundfiler;
#X obj 99 265 openpanel;
#X obj 99 243 bng 15 250 50 0 empty empty empty 17 7 0 10 -262144 -1
-1;
#X obj 99 372 f;
#X obj 107 352 bng 17 250 50 0 empty empty empty 17 7 0 10 -262144
-1 -1;
#X msg 99 295 read -resize \$1 soundfile;
#X obj 99 463 s filesize;
#X obj 109 433 s phase;
#X msg 109 403 resize \$1;
#N canvas 0 23 434 429 ticks 0;
#X obj 30 30 r filesize;
#X obj 30 100 * 0.25;
#X obj 30 129 t f f f f;
#X obj 31 215 pack f f f f;
#X obj 83 169 * 3;
#X obj 41 170 * 2;
#X obj 129 169 * 4;
#X msg 40 266 \; phase ylabel -20 1 0 -1 \; phase yticks 0 0.5 2 \;
phase xlabel -1.15 0 \$1 \$2 \$3 \$4 \; phase xticks 1 \$1 \$2 \$3
\$4 \;;
#X connect 0 0 1 0;
#X connect 1 0 2 0;
#X connect 2 0 3 0;
#X connect 2 1 5 0;
#X connect 2 2 4 0;
#X connect 2 3 6 0;
#X connect 3 0 7 0;
#X connect 4 0 3 2;
#X connect 5 0 3 1;
#X connect 6 0 3 3;
#X restore 99 495 pd ticks;
#N canvas 0 22 450 278 (subpatch) 0;
#X array phase 65559 float 2;
#X coords 0 1 65559 -1 700 140 1 0 0;
#X restore 29 36 graph;
#N canvas 0 22 450 278 (subpatch) 0;
#X array soundfile 65559 float 2;
#X coords 0 1 65559 -1 700 140 1 0 0;
#X restore 29 36 graph;
#X obj 453 416 cnv 15 55 30 empty empty empty 20 12 0 14 -4034 -66577
0;
#X obj 519 234 cnv 15 110 30 empty empty empty 20 12 0 14 -4034 -66577
0;
#X obj 441 327 samplerate~;
#X msg 441 297 bang;
#X floatatom 441 358 5 0 0 0 - - -;
#X obj 504 514 phasor~;
#X obj 441 544 tabwrite~ phase;
#X obj 521 237 r filesize;
#X obj 441 386 /, f 13;
#X obj 521 267 t b f;
#X obj 441 455 t b f b, f 13;
#X msg 568 484 0, f 1;
#X floatatom 454 419 5 0 0 0 - - -;
#X text 514 420 frequency;
#X connect 0 0 3 0;
#X connect 1 0 5 0;
#X connect 2 0 1 0;
#X connect 3 0 6 0;
#X connect 3 0 8 0;
#X connect 4 0 3 0;
#X connect 5 0 0 0;
#X connect 8 0 7 0;
#X connect 14 0 16 0;
#X connect 15 0 14 0;
#X connect 16 0 20 0;
#X connect 17 0 18 0;
#X connect 19 0 21 0;
#X connect 20 0 22 0;
#X connect 20 0 24 0;
#X connect 21 0 15 0;
#X connect 21 1 20 1;
#X connect 22 0 18 0;
#X connect 22 1 17 0;
#X connect 22 2 23 0;
#X connect 23 0 17 1;
