#N canvas 138 25 900 819 16;
#N canvas 0 23 434 429 ticks 0;
#X obj 30 30 r filesize;
#X obj 30 100 * 0.25;
#X obj 30 129 t f f f f;
#X obj 31 215 pack f f f f;
#X obj 83 169 * 3;
#X obj 41 170 * 2;
#X obj 129 169 * 4;
#X msg 40 266 \; phase ylabel -20 1 0 -1 \; phase yticks 0 0.5 2 \;
phase xlabel -1.15 0 \$1 \$2 \$3 \$4 \; phase xticks 1 \$1 \$2 \$3
\$4 \;;
#X msg 313 109 \; pd dsp 1;
#X obj 315 76 loadbang;
#X connect 0 0 1 0;
#X connect 1 0 2 0;
#X connect 2 0 3 0;
#X connect 2 1 5 0;
#X connect 2 2 4 0;
#X connect 2 3 6 0;
#X connect 3 0 7 0;
#X connect 4 0 3 2;
#X connect 5 0 3 1;
#X connect 6 0 3 3;
#X connect 9 0 8 0;
#X restore 747 109 pd ticks;
#N canvas 0 22 450 278 (subpatch) 0;
#X array phase 330750 float 2;
#X coords 0 1 330750 -1 700 140 1 0 0;
#X restore 36 51 graph;
#N canvas 0 22 450 278 (subpatch) 0;
#X array soundfile 330750 float 2;
#X coords 0 1 330750 -1 700 140 1 0 0;
#X restore 36 51 graph;
#N canvas 0 23 360 399 load-file 0;
#X obj 47 111 soundfiler;
#X obj 47 52 openpanel;
#X obj 47 159 f;
#X obj 55 139 bng 17 250 50 0 empty empty empty 17 7 0 10 -262144 -1
-1;
#X msg 47 82 read -resize \$1 soundfile;
#X obj 47 317 s filesize;
#X obj 57 287 s phase;
#X msg 56 190 resize \$1;
#X obj 47 23 inlet;
#X obj 68 257 s window;
#X obj 81 223 s output;
#X connect 0 0 2 0;
#X connect 1 0 4 0;
#X connect 2 0 5 0;
#X connect 2 0 7 0;
#X connect 3 0 2 0;
#X connect 4 0 0 0;
#X connect 7 0 6 0;
#X connect 7 0 9 0;
#X connect 7 0 10 0;
#X connect 8 0 1 0;
#X restore 747 78 pd load-file;
#X msg 747 50 bang;
#N canvas 0 22 450 278 (subpatch) 0;
#X array window 330750 float 2;
#X coords 0 1 330750 -1 700 140 1 0 0;
#X restore 36 51 graph;
#N canvas 0 22 450 278 (subpatch) 0;
#X array output 330750 float 2;
#X coords 0 1 330750 -1 700 140 1 0 0;
#X restore 36 251 graph;
#X obj 330 493 cnv 15 100 100 empty empty empty 20 12 0 14 -4034 -66577
0;
#X obj 43 497 samplerate~;
#X msg 44 467 bang;
#X floatatom 44 528 5 0 0 0 - - -;
#X obj 107 646 phasor~;
#X obj 44 710 tabwrite~ phase;
#X obj 124 407 r filesize;
#X obj 44 556 /, f 13;
#X obj 124 437 t b f;
#X obj 44 586 t b f b, f 13;
#X msg 171 615 0, f 1;
#X obj 114 676 s~ phasor;
#X obj 270 642 tabwrite~ window;
#X obj 537 471 - 3;
#X obj 500 537 +~ 1;
#X obj 500 499 *~ 1;
#X obj 500 574 tabread4~ soundfile;
#X obj 537 444 r filesize;
#X obj 456 718 dac~;
#X text 553 528 starts on sample n = 1 (due to the interpolation algorithm)
, f 30;
#X obj 500 408 r~ phasor;
#X obj 344 501 cos~;
#X obj 344 531 *~ -0.5;
#X obj 344 561 +~ 0.5;
#X obj 473 643 *~;
#X obj 274 720 tabwrite~ output;
#X connect 4 0 3 0;
#X connect 8 0 10 0;
#X connect 9 0 8 0;
#X connect 10 0 14 0;
#X connect 11 0 12 0;
#X connect 11 0 18 0;
#X connect 13 0 15 0;
#X connect 14 0 16 0;
#X connect 15 0 9 0;
#X connect 15 1 14 1;
#X connect 16 0 12 0;
#X connect 16 1 11 0;
#X connect 16 2 17 0;
#X connect 16 2 19 0;
#X connect 16 2 32 0;
#X connect 17 0 11 1;
#X connect 20 0 22 1;
#X connect 21 0 23 0;
#X connect 22 0 21 0;
#X connect 23 0 31 1;
#X connect 24 0 20 0;
#X connect 27 0 22 0;
#X connect 27 0 28 0;
#X connect 28 0 29 0;
#X connect 29 0 30 0;
#X connect 30 0 31 0;
#X connect 30 0 19 0;
#X connect 31 0 25 0;
#X connect 31 0 25 1;
#X connect 31 0 32 0;
