#N canvas 942 186 603 246 10;
#X obj 2 2 cnv 15 598 238 empty empty LWM_Music_QWERTY_MIDI_Keyboard
20 12 0 14 -1 -191407 0;
#X obj 7 21 cnv 15 588 213 empty empty empty 20 12 0 14 -191407 -66577
0;
#N canvas 260 108 673 539 key 0;
#X obj 301 151 cnv 15 38 138 empty \$0-key-a-recv a 17 100 0 14 -262144
-33289 0;
#X obj 123 78 key;
#X floatatom 123 103 5 0 0 0 - - -;
#X obj 123 128 sel 97;
#X obj 123 155 t b b b b;
#X obj 301 414 s \$0-key-a-recv;
#X msg 329 362 0;
#X floatatom 408 88 5 0 0 0 - - -;
#X obj 408 113 sel 97;
#X obj 408 140 t b b b b;
#X obj 408 63 keyup;
#X obj 29 152 * 12;
#X floatatom 29 130 5 0 0 0 - - -;
#X floatatom 29 177 5 0 0 0 - - -;
#X obj 123 260 f;
#X obj 149 238 f;
#X obj 525 95 r \$0-velocity;
#X obj 31 105 r \$0-octave;
#X floatatom 525 119 5 0 0 0 - - -;
#X obj 123 372 spigot 1;
#X obj 186 372 spigot 1;
#X obj 123 302 makenote;
#X obj 123 331 stripnote;
#X msg 204 335 0;
#X obj 204 304 delay 10;
#X msg 272 334 1;
#X msg 301 392 color \$1 252;
#X obj 409 260 f;
#X msg 427 236 0;
#X obj 302 473 noteout;
#X obj 523 350 r \$0-channel;
#X floatatom 523 378 5 0 0 0 - - -;
#X msg 301 360 1;
#X connect 1 0 2 0;
#X connect 2 0 3 0;
#X connect 3 0 4 0;
#X connect 4 0 14 0;
#X connect 4 1 15 0;
#X connect 4 2 24 0;
#X connect 4 3 32 0;
#X connect 6 0 26 0;
#X connect 7 0 8 0;
#X connect 8 0 9 0;
#X connect 9 0 27 0;
#X connect 9 1 28 0;
#X connect 9 2 25 0;
#X connect 9 3 6 0;
#X connect 10 0 7 0;
#X connect 11 0 13 0;
#X connect 12 0 11 0;
#X connect 13 0 14 1;
#X connect 13 0 27 1;
#X connect 14 0 21 0;
#X connect 15 0 21 1;
#X connect 16 0 18 0;
#X connect 17 0 12 0;
#X connect 18 0 15 1;
#X connect 19 0 29 0;
#X connect 20 0 29 1;
#X connect 21 0 22 0;
#X connect 21 1 22 1;
#X connect 22 0 19 0;
#X connect 22 1 20 0;
#X connect 23 0 20 1;
#X connect 23 0 19 1;
#X connect 24 0 23 0;
#X connect 25 0 20 1;
#X connect 25 0 19 1;
#X connect 26 0 5 0;
#X connect 27 0 29 0;
#X connect 28 0 29 1;
#X connect 30 0 31 0;
#X connect 31 0 29 2;
#X connect 32 0 26 0;
#X coords 0 -1 1 1 40 140 2 300 150;
#X restore 70 28 pd key;
#N canvas 118 68 649 401 channel 0;
#X obj 301 151 cnv 15 48 48 empty empty empty 20 12 0 14 -99865 -66577
0;
#X obj 307 209 s \$0-channel;
#X obj 307 170 nbx 2 25 1 16 0 0 empty empty Channel -3 -8 0 10 -191407
-1 -1 1 256;
#X obj 308 89 loadbang;
#X msg 308 114 1;
#X connect 2 0 1 0;
#X connect 3 0 4 0;
#X connect 4 0 2 0;
#X coords 0 -1 1 1 50 50 2 300 150;
#X restore 16 32 pd channel;
#N canvas 260 108 673 539 key 0;
#X obj 301 151 cnv 15 38 138 empty \$0-key-s-recv s 17 100 0 14 -262144
-33289 0;
#X obj 123 78 key;
#X floatatom 123 103 5 0 0 0 - - -;
#X obj 123 155 t b b b b;
#X msg 329 362 0;
#X floatatom 408 88 5 0 0 0 - - -;
#X obj 408 140 t b b b b;
#X obj 408 63 keyup;
#X obj 29 152 * 12;
#X floatatom 29 130 5 0 0 0 - - -;
#X floatatom 29 199 5 0 0 0 - - -;
#X obj 123 260 f;
#X obj 149 238 f;
#X obj 525 95 r \$0-velocity;
#X obj 31 105 r \$0-octave;
#X floatatom 525 119 5 0 0 0 - - -;
#X obj 122 372 spigot 1;
#X obj 183 372 spigot 1;
#X obj 123 302 makenote;
#X obj 123 331 stripnote;
#X msg 204 335 0;
#X obj 204 304 delay 10;
#X msg 272 334 1;
#X msg 301 392 color \$1 252;
#X obj 409 260 f;
#X msg 427 236 0;
#X obj 302 473 noteout;
#X obj 523 350 r \$0-channel;
#X floatatom 523 378 5 0 0 0 - - -;
#X obj 123 128 sel 115;
#X obj 408 113 sel 115;
#X obj 29 177 + 2;
#X obj 301 414 s \$0-key-s-recv;
#X msg 301 360 1;
#X connect 1 0 2 0;
#X connect 2 0 29 0;
#X connect 3 0 11 0;
#X connect 3 1 12 0;
#X connect 3 2 21 0;
#X connect 3 3 33 0;
#X connect 4 0 23 0;
#X connect 5 0 30 0;
#X connect 6 0 24 0;
#X connect 6 1 25 0;
#X connect 6 2 22 0;
#X connect 6 3 4 0;
#X connect 7 0 5 0;
#X connect 8 0 31 0;
#X connect 9 0 8 0;
#X connect 10 0 11 1;
#X connect 10 0 24 1;
#X connect 11 0 18 0;
#X connect 12 0 18 1;
#X connect 13 0 15 0;
#X connect 14 0 9 0;
#X connect 15 0 12 1;
#X connect 16 0 26 0;
#X connect 17 0 26 1;
#X connect 18 0 19 0;
#X connect 18 1 19 1;
#X connect 19 0 16 0;
#X connect 19 1 17 0;
#X connect 20 0 17 1;
#X connect 20 0 16 1;
#X connect 21 0 20 0;
#X connect 22 0 17 1;
#X connect 22 0 16 1;
#X connect 23 0 32 0;
#X connect 24 0 26 0;
#X connect 25 0 26 1;
#X connect 27 0 28 0;
#X connect 28 0 26 2;
#X connect 29 0 3 0;
#X connect 30 0 6 0;
#X connect 31 0 10 0;
#X connect 33 0 23 0;
#X coords 0 -1 1 1 40 140 2 300 150;
#X restore 114 29 pd key;
#N canvas 260 108 673 539 key 0;
#X obj 301 151 cnv 15 38 78 empty \$0-key-w-recv w 17 40 0 14 -33289
-262144 0;
#X obj 123 78 key;
#X floatatom 123 103 5 0 0 0 - - -;
#X obj 123 155 t b b b b;
#X floatatom 408 88 5 0 0 0 - - -;
#X obj 408 140 t b b b b;
#X obj 408 63 keyup;
#X obj 29 152 * 12;
#X floatatom 29 130 5 0 0 0 - - -;
#X floatatom 29 199 5 0 0 0 - - -;
#X obj 123 260 f;
#X obj 149 238 f;
#X obj 525 95 r \$0-velocity;
#X obj 31 105 r \$0-octave;
#X floatatom 525 119 5 0 0 0 - - -;
#X obj 122 372 spigot 1;
#X obj 183 372 spigot 1;
#X obj 123 302 makenote;
#X obj 123 331 stripnote;
#X msg 204 335 0;
#X obj 204 304 delay 10;
#X msg 272 334 1;
#X obj 409 260 f;
#X msg 427 236 0;
#X obj 302 473 noteout;
#X obj 523 350 r \$0-channel;
#X floatatom 523 378 5 0 0 0 - - -;
#X obj 123 128 sel 119;
#X obj 29 177 + 1;
#X obj 408 113 sel 119;
#X obj 301 414 s \$0-key-w-recv;
#X msg 329 362 42;
#X msg 301 392 color \$1 0;
#X msg 301 360 1;
#X connect 1 0 2 0;
#X connect 2 0 27 0;
#X connect 3 0 10 0;
#X connect 3 1 11 0;
#X connect 3 2 20 0;
#X connect 3 3 33 0;
#X connect 4 0 29 0;
#X connect 5 0 22 0;
#X connect 5 1 23 0;
#X connect 5 2 21 0;
#X connect 5 3 31 0;
#X connect 6 0 4 0;
#X connect 7 0 28 0;
#X connect 8 0 7 0;
#X connect 9 0 10 1;
#X connect 9 0 22 1;
#X connect 10 0 17 0;
#X connect 11 0 17 1;
#X connect 12 0 14 0;
#X connect 13 0 8 0;
#X connect 14 0 11 1;
#X connect 15 0 24 0;
#X connect 16 0 24 1;
#X connect 17 0 18 0;
#X connect 17 1 18 1;
#X connect 18 0 15 0;
#X connect 18 1 16 0;
#X connect 19 0 16 1;
#X connect 19 0 15 1;
#X connect 20 0 19 0;
#X connect 21 0 16 1;
#X connect 21 0 15 1;
#X connect 22 0 24 0;
#X connect 23 0 24 1;
#X connect 25 0 26 0;
#X connect 26 0 24 2;
#X connect 27 0 3 0;
#X connect 28 0 9 0;
#X connect 29 0 5 0;
#X connect 31 0 32 0;
#X connect 32 0 30 0;
#X connect 33 0 32 0;
#X coords 0 -1 1 1 40 80 2 300 150;
#X restore 97 28 pd key;
#N canvas 500 154 673 539 key 1;
#X obj 301 151 cnv 15 38 138 empty \$0-key-d-recv d 17 100 0 14 -262144
-33289 0;
#X obj 123 78 key;
#X floatatom 123 103 5 0 0 0 - - -;
#X obj 123 155 t b b b b;
#X msg 329 362 0;
#X floatatom 408 88 5 0 0 0 - - -;
#X obj 408 140 t b b b b;
#X obj 408 63 keyup;
#X obj 29 152 * 12;
#X floatatom 29 130 5 0 0 0 - - -;
#X floatatom 29 199 5 0 0 0 - - -;
#X obj 123 260 f;
#X obj 149 238 f;
#X obj 535 133 r \$0-velocity;
#X obj 31 105 r \$0-octave;
#X floatatom 535 157 5 0 0 0 - - -;
#X obj 122 372 spigot 1;
#X obj 183 372 spigot 1;
#X obj 123 302 makenote;
#X obj 123 331 stripnote;
#X msg 204 335 0;
#X obj 204 304 delay 10;
#X msg 272 334 1;
#X msg 301 392 color \$1 252;
#X obj 409 260 f;
#X msg 427 236 0;
#X obj 302 473 noteout;
#X obj 523 350 r \$0-channel;
#X floatatom 523 378 5 0 0 0 - - -;
#X msg 301 360 1;
#X obj 124 128 sel 100;
#X obj 408 113 sel 100;
#X obj 301 415 s \$0-key-d-recv;
#X obj 29 177 + 4;
#X connect 1 0 2 0;
#X connect 2 0 30 0;
#X connect 3 0 11 0;
#X connect 3 1 12 0;
#X connect 3 2 21 0;
#X connect 3 3 29 0;
#X connect 4 0 23 0;
#X connect 5 0 31 0;
#X connect 6 0 24 0;
#X connect 6 1 25 0;
#X connect 6 2 22 0;
#X connect 6 3 4 0;
#X connect 7 0 5 0;
#X connect 8 0 33 0;
#X connect 9 0 8 0;
#X connect 10 0 11 1;
#X connect 10 0 24 1;
#X connect 11 0 18 0;
#X connect 12 0 18 1;
#X connect 13 0 15 0;
#X connect 14 0 9 0;
#X connect 15 0 12 1;
#X connect 16 0 26 0;
#X connect 17 0 26 1;
#X connect 18 0 19 0;
#X connect 18 1 19 1;
#X connect 19 0 16 0;
#X connect 19 1 17 0;
#X connect 20 0 17 1;
#X connect 20 0 16 1;
#X connect 21 0 20 0;
#X connect 22 0 17 1;
#X connect 22 0 16 1;
#X connect 23 0 32 0;
#X connect 24 0 26 0;
#X connect 25 0 26 1;
#X connect 27 0 28 0;
#X connect 28 0 26 2;
#X connect 29 0 23 0;
#X connect 30 0 3 0;
#X connect 31 0 6 0;
#X connect 33 0 10 0;
#X coords 0 -1 1 1 40 140 2 300 150;
#X restore 158 29 pd key;
#N canvas 260 108 673 539 key 0;
#X obj 301 151 cnv 15 38 78 empty \$0-key-e-recv e 17 40 0 14 -33289
-262144 0;
#X obj 123 78 key;
#X floatatom 123 103 5 0 0 0 - - -;
#X obj 123 155 t b b b b;
#X floatatom 408 88 5 0 0 0 - - -;
#X obj 408 140 t b b b b;
#X obj 408 63 keyup;
#X obj 29 152 * 12;
#X floatatom 29 130 5 0 0 0 - - -;
#X floatatom 29 199 5 0 0 0 - - -;
#X obj 123 260 f;
#X obj 149 238 f;
#X obj 525 95 r \$0-velocity;
#X obj 31 105 r \$0-octave;
#X floatatom 525 119 5 0 0 0 - - -;
#X obj 122 372 spigot 1;
#X obj 183 372 spigot 1;
#X obj 123 302 makenote;
#X obj 123 331 stripnote;
#X msg 204 335 0;
#X obj 204 304 delay 10;
#X msg 272 334 1;
#X obj 409 260 f;
#X msg 427 236 0;
#X obj 302 473 noteout;
#X obj 523 350 r \$0-channel;
#X floatatom 523 378 5 0 0 0 - - -;
#X msg 329 362 42;
#X msg 301 392 color \$1 0;
#X msg 301 360 1;
#X obj 123 128 sel 101;
#X obj 408 113 sel 101;
#X obj 301 414 s \$0-key-e-recv;
#X obj 29 177 + 3;
#X connect 1 0 2 0;
#X connect 2 0 30 0;
#X connect 3 0 10 0;
#X connect 3 1 11 0;
#X connect 3 2 20 0;
#X connect 3 3 29 0;
#X connect 4 0 31 0;
#X connect 5 0 22 0;
#X connect 5 1 23 0;
#X connect 5 2 21 0;
#X connect 5 3 27 0;
#X connect 6 0 4 0;
#X connect 7 0 33 0;
#X connect 8 0 7 0;
#X connect 9 0 10 1;
#X connect 9 0 22 1;
#X connect 10 0 17 0;
#X connect 11 0 17 1;
#X connect 12 0 14 0;
#X connect 13 0 8 0;
#X connect 14 0 11 1;
#X connect 15 0 24 0;
#X connect 16 0 24 1;
#X connect 17 0 18 0;
#X connect 17 1 18 1;
#X connect 18 0 15 0;
#X connect 18 1 16 0;
#X connect 19 0 16 1;
#X connect 19 0 15 1;
#X connect 20 0 19 0;
#X connect 21 0 16 1;
#X connect 21 0 15 1;
#X connect 22 0 24 0;
#X connect 23 0 24 1;
#X connect 25 0 26 0;
#X connect 26 0 24 2;
#X connect 27 0 28 0;
#X connect 28 0 32 0;
#X connect 29 0 28 0;
#X connect 30 0 3 0;
#X connect 31 0 5 0;
#X connect 33 0 9 0;
#X coords 0 -1 1 1 40 80 2 300 150;
#X restore 142 28 pd key;
#N canvas 162 136 673 539 key 0;
#X obj 301 151 cnv 15 38 138 empty \$0-key-f-recv f 17 100 0 14 -262144
-33289 0;
#X obj 123 78 key;
#X floatatom 123 103 5 0 0 0 - - -;
#X obj 123 155 t b b b b;
#X msg 329 362 0;
#X floatatom 408 88 5 0 0 0 - - -;
#X obj 408 140 t b b b b;
#X obj 408 63 keyup;
#X obj 29 152 * 12;
#X floatatom 29 130 5 0 0 0 - - -;
#X floatatom 29 199 5 0 0 0 - - -;
#X obj 123 260 f;
#X obj 149 238 f;
#X obj 525 95 r \$0-velocity;
#X obj 31 105 r \$0-octave;
#X floatatom 525 119 5 0 0 0 - - -;
#X obj 122 372 spigot 1;
#X obj 183 372 spigot 1;
#X obj 123 302 makenote;
#X obj 123 331 stripnote;
#X msg 204 335 0;
#X obj 204 304 delay 10;
#X msg 272 334 1;
#X msg 301 392 color \$1 252;
#X obj 409 260 f;
#X msg 427 236 0;
#X obj 302 473 noteout;
#X obj 523 350 r \$0-channel;
#X floatatom 523 378 5 0 0 0 - - -;
#X msg 301 360 1;
#X obj 124 128 sel 102;
#X obj 29 177 + 5;
#X obj 408 113 sel 102;
#X obj 301 415 s \$0-key-f-recv;
#X connect 1 0 2 0;
#X connect 2 0 30 0;
#X connect 3 0 11 0;
#X connect 3 1 12 0;
#X connect 3 2 21 0;
#X connect 3 3 29 0;
#X connect 4 0 23 0;
#X connect 5 0 32 0;
#X connect 6 0 24 0;
#X connect 6 1 25 0;
#X connect 6 2 22 0;
#X connect 6 3 4 0;
#X connect 7 0 5 0;
#X connect 8 0 31 0;
#X connect 9 0 8 0;
#X connect 10 0 11 1;
#X connect 10 0 24 1;
#X connect 11 0 18 0;
#X connect 12 0 18 1;
#X connect 13 0 15 0;
#X connect 14 0 9 0;
#X connect 15 0 12 1;
#X connect 16 0 26 0;
#X connect 17 0 26 1;
#X connect 18 0 19 0;
#X connect 18 1 19 1;
#X connect 19 0 16 0;
#X connect 19 1 17 0;
#X connect 20 0 17 1;
#X connect 20 0 16 1;
#X connect 21 0 20 0;
#X connect 22 0 17 1;
#X connect 22 0 16 1;
#X connect 23 0 33 0;
#X connect 24 0 26 0;
#X connect 25 0 26 1;
#X connect 27 0 28 0;
#X connect 28 0 26 2;
#X connect 29 0 23 0;
#X connect 30 0 3 0;
#X connect 31 0 10 0;
#X connect 32 0 6 0;
#X coords 0 -1 1 1 40 140 2 300 150;
#X restore 202 31 pd key;
#N canvas 118 68 649 401 channel 0;
#X obj 301 151 cnv 15 82 48 empty empty empty 20 12 0 14 -99865 -66577
0;
#X obj 319 171 nbx 2 25 1 11 0 0 empty empty -z-Octave+x+ -20 -8 0
10 -191407 -1 -1 5 256;
#X obj 151 72 key;
#X floatatom 151 98 5 0 0 0 - - -;
#X obj 151 122 sel 122;
#X obj 151 199 - 1;
#X floatatom 151 226 5 0 0 0 - - -;
#X obj 151 171 f;
#X obj 319 213 t f f f;
#X msg 318 119 5;
#X obj 318 92 loadbang;
#X obj 342 294 s \$0-octave;
#X obj 502 74 key;
#X floatatom 502 100 5 0 0 0 - - -;
#X floatatom 502 228 5 0 0 0 - - -;
#X obj 502 173 f;
#X obj 502 124 sel 120;
#X obj 502 201 + 1;
#X connect 1 0 8 0;
#X connect 2 0 3 0;
#X connect 3 0 4 0;
#X connect 4 0 7 0;
#X connect 5 0 6 0;
#X connect 6 0 1 0;
#X connect 7 0 5 0;
#X connect 8 0 7 1;
#X connect 8 1 11 0;
#X connect 8 2 15 1;
#X connect 9 0 1 0;
#X connect 10 0 9 0;
#X connect 12 0 13 0;
#X connect 13 0 16 0;
#X connect 14 0 1 0;
#X connect 15 0 17 0;
#X connect 16 0 15 0;
#X connect 17 0 14 0;
#X coords 0 -1 1 1 84 50 2 300 150;
#X restore 71 176 pd channel;
#N canvas 162 136 673 539 key 0;
#X obj 301 151 cnv 15 38 138 empty \$0-key-g-recv g 17 100 0 14 -262144
-33289 0;
#X obj 123 78 key;
#X floatatom 123 103 5 0 0 0 - - -;
#X obj 123 155 t b b b b;
#X msg 329 362 0;
#X floatatom 408 88 5 0 0 0 - - -;
#X obj 408 140 t b b b b;
#X obj 408 63 keyup;
#X obj 29 152 * 12;
#X floatatom 29 130 5 0 0 0 - - -;
#X floatatom 29 199 5 0 0 0 - - -;
#X obj 123 260 f;
#X obj 149 238 f;
#X obj 525 95 r \$0-velocity;
#X obj 31 105 r \$0-octave;
#X floatatom 525 119 5 0 0 0 - - -;
#X obj 122 372 spigot 1;
#X obj 183 372 spigot 1;
#X obj 123 302 makenote;
#X obj 123 331 stripnote;
#X msg 204 335 0;
#X obj 204 304 delay 10;
#X msg 272 334 1;
#X msg 301 392 color \$1 252;
#X obj 409 260 f;
#X msg 427 236 0;
#X obj 302 473 noteout;
#X obj 523 350 r \$0-channel;
#X floatatom 523 378 5 0 0 0 - - -;
#X msg 301 360 1;
#X obj 124 128 sel 103;
#X obj 408 113 sel 103;
#X obj 29 177 + 7;
#X obj 301 415 s \$0-key-g-recv;
#X connect 1 0 2 0;
#X connect 2 0 30 0;
#X connect 3 0 11 0;
#X connect 3 1 12 0;
#X connect 3 2 21 0;
#X connect 3 3 29 0;
#X connect 4 0 23 0;
#X connect 5 0 31 0;
#X connect 6 0 24 0;
#X connect 6 1 25 0;
#X connect 6 2 22 0;
#X connect 6 3 4 0;
#X connect 7 0 5 0;
#X connect 8 0 32 0;
#X connect 9 0 8 0;
#X connect 10 0 11 1;
#X connect 10 0 24 1;
#X connect 11 0 18 0;
#X connect 12 0 18 1;
#X connect 13 0 15 0;
#X connect 14 0 9 0;
#X connect 15 0 12 1;
#X connect 16 0 26 0;
#X connect 17 0 26 1;
#X connect 18 0 19 0;
#X connect 18 1 19 1;
#X connect 19 0 16 0;
#X connect 19 1 17 0;
#X connect 20 0 17 1;
#X connect 20 0 16 1;
#X connect 21 0 20 0;
#X connect 22 0 17 1;
#X connect 22 0 16 1;
#X connect 23 0 33 0;
#X connect 24 0 26 0;
#X connect 25 0 26 1;
#X connect 27 0 28 0;
#X connect 28 0 26 2;
#X connect 29 0 23 0;
#X connect 30 0 3 0;
#X connect 31 0 6 0;
#X connect 32 0 10 0;
#X coords 0 -1 1 1 40 140 2 300 150;
#X restore 246 32 pd key;
#N canvas 260 108 673 539 key 0;
#X obj 301 151 cnv 15 38 138 empty \$0-key-h-recv h 17 100 0 14 -262144
-33289 0;
#X obj 123 78 key;
#X floatatom 123 103 5 0 0 0 - - -;
#X obj 123 155 t b b b b;
#X msg 329 362 0;
#X floatatom 408 88 5 0 0 0 - - -;
#X obj 408 140 t b b b b;
#X obj 408 63 keyup;
#X obj 29 152 * 12;
#X floatatom 29 130 5 0 0 0 - - -;
#X floatatom 29 207 5 0 0 0 - - -;
#X obj 123 260 f;
#X obj 149 238 f;
#X obj 525 95 r \$0-velocity;
#X obj 31 105 r \$0-octave;
#X floatatom 525 119 5 0 0 0 - - -;
#X obj 122 372 spigot 1;
#X obj 183 372 spigot 1;
#X obj 123 302 makenote;
#X obj 123 331 stripnote;
#X msg 204 335 0;
#X obj 204 304 delay 10;
#X msg 272 334 1;
#X msg 301 392 color \$1 252;
#X obj 409 260 f;
#X msg 427 236 0;
#X obj 302 473 noteout;
#X obj 523 350 r \$0-channel;
#X floatatom 523 378 5 0 0 0 - - -;
#X msg 301 360 1;
#X obj 123 128 sel 104;
#X obj 29 180 + 9;
#X obj 408 113 sel 104;
#X obj 301 414 s \$0-key-h-recv;
#X connect 1 0 2 0;
#X connect 2 0 30 0;
#X connect 3 0 11 0;
#X connect 3 1 12 0;
#X connect 3 2 21 0;
#X connect 3 3 29 0;
#X connect 4 0 23 0;
#X connect 5 0 32 0;
#X connect 6 0 24 0;
#X connect 6 1 25 0;
#X connect 6 2 22 0;
#X connect 6 3 4 0;
#X connect 7 0 5 0;
#X connect 8 0 31 0;
#X connect 9 0 8 0;
#X connect 10 0 11 1;
#X connect 10 0 24 1;
#X connect 11 0 18 0;
#X connect 12 0 18 1;
#X connect 13 0 15 0;
#X connect 14 0 9 0;
#X connect 15 0 12 1;
#X connect 16 0 26 0;
#X connect 17 0 26 1;
#X connect 18 0 19 0;
#X connect 18 1 19 1;
#X connect 19 0 16 0;
#X connect 19 1 17 0;
#X connect 20 0 17 1;
#X connect 20 0 16 1;
#X connect 21 0 20 0;
#X connect 22 0 17 1;
#X connect 22 0 16 1;
#X connect 23 0 33 0;
#X connect 24 0 26 0;
#X connect 25 0 26 1;
#X connect 27 0 28 0;
#X connect 28 0 26 2;
#X connect 29 0 23 0;
#X connect 30 0 3 0;
#X connect 31 0 10 0;
#X connect 32 0 6 0;
#X coords 0 -1 1 1 40 140 2 300 150;
#X restore 290 32 pd key;
#N canvas 260 108 673 539 key 0;
#X obj 301 151 cnv 15 38 138 empty \$0-key-j-recv j 17 100 0 14 -262144
-33289 0;
#X obj 123 78 key;
#X floatatom 123 103 5 0 0 0 - - -;
#X obj 123 155 t b b b b;
#X msg 329 362 0;
#X floatatom 408 88 5 0 0 0 - - -;
#X obj 408 140 t b b b b;
#X obj 408 63 keyup;
#X obj 29 152 * 12;
#X floatatom 29 130 5 0 0 0 - - -;
#X floatatom 29 199 5 0 0 0 - - -;
#X obj 123 260 f;
#X obj 149 238 f;
#X obj 525 95 r \$0-velocity;
#X obj 31 105 r \$0-octave;
#X floatatom 525 119 5 0 0 0 - - -;
#X obj 122 372 spigot 1;
#X obj 183 372 spigot 1;
#X obj 123 302 makenote;
#X obj 123 331 stripnote;
#X msg 204 335 0;
#X obj 204 304 delay 10;
#X msg 272 334 1;
#X msg 301 392 color \$1 252;
#X obj 409 260 f;
#X msg 427 236 0;
#X obj 302 473 noteout;
#X obj 523 350 r \$0-channel;
#X floatatom 523 378 5 0 0 0 - - -;
#X msg 301 360 1;
#X obj 123 128 sel 106;
#X obj 408 113 sel 106;
#X obj 29 177 + 11;
#X obj 301 414 s \$0-key-j-recv;
#X connect 1 0 2 0;
#X connect 2 0 30 0;
#X connect 3 0 11 0;
#X connect 3 1 12 0;
#X connect 3 2 21 0;
#X connect 3 3 29 0;
#X connect 4 0 23 0;
#X connect 5 0 31 0;
#X connect 6 0 24 0;
#X connect 6 1 25 0;
#X connect 6 2 22 0;
#X connect 6 3 4 0;
#X connect 7 0 5 0;
#X connect 8 0 32 0;
#X connect 9 0 8 0;
#X connect 10 0 11 1;
#X connect 10 0 24 1;
#X connect 11 0 18 0;
#X connect 12 0 18 1;
#X connect 13 0 15 0;
#X connect 14 0 9 0;
#X connect 15 0 12 1;
#X connect 16 0 26 0;
#X connect 17 0 26 1;
#X connect 18 0 19 0;
#X connect 18 1 19 1;
#X connect 19 0 16 0;
#X connect 19 1 17 0;
#X connect 20 0 17 1;
#X connect 20 0 16 1;
#X connect 21 0 20 0;
#X connect 22 0 17 1;
#X connect 22 0 16 1;
#X connect 23 0 33 0;
#X connect 24 0 26 0;
#X connect 25 0 26 1;
#X connect 27 0 28 0;
#X connect 28 0 26 2;
#X connect 29 0 23 0;
#X connect 30 0 3 0;
#X connect 31 0 6 0;
#X connect 32 0 10 0;
#X coords 0 -1 1 1 40 140 2 300 150;
#X restore 334 32 pd key;
#N canvas 162 136 673 539 key 0;
#X obj 301 151 cnv 15 38 138 empty \$0-key-k-recv k 17 100 0 14 -262144
-33289 0;
#X obj 123 78 key;
#X floatatom 123 103 5 0 0 0 - - -;
#X obj 123 155 t b b b b;
#X msg 329 362 0;
#X floatatom 408 88 5 0 0 0 - - -;
#X obj 408 140 t b b b b;
#X obj 408 63 keyup;
#X obj 29 152 * 12;
#X floatatom 29 130 5 0 0 0 - - -;
#X floatatom 29 199 5 0 0 0 - - -;
#X obj 123 260 f;
#X obj 149 238 f;
#X obj 525 95 r \$0-velocity;
#X obj 31 105 r \$0-octave;
#X floatatom 525 119 5 0 0 0 - - -;
#X obj 122 372 spigot 1;
#X obj 183 372 spigot 1;
#X obj 123 302 makenote;
#X obj 123 331 stripnote;
#X msg 204 335 0;
#X obj 204 304 delay 10;
#X msg 272 334 1;
#X msg 301 392 color \$1 252;
#X obj 409 260 f;
#X msg 427 236 0;
#X obj 302 473 noteout;
#X obj 523 350 r \$0-channel;
#X floatatom 523 378 5 0 0 0 - - -;
#X msg 301 360 1;
#X obj 124 128 sel 107;
#X obj 408 113 sel 107;
#X obj 301 415 s \$0-key-k-recv;
#X obj 29 177 + 12;
#X connect 1 0 2 0;
#X connect 2 0 30 0;
#X connect 3 0 11 0;
#X connect 3 1 12 0;
#X connect 3 2 21 0;
#X connect 3 3 29 0;
#X connect 4 0 23 0;
#X connect 5 0 31 0;
#X connect 6 0 24 0;
#X connect 6 1 25 0;
#X connect 6 2 22 0;
#X connect 6 3 4 0;
#X connect 7 0 5 0;
#X connect 8 0 33 0;
#X connect 9 0 8 0;
#X connect 10 0 11 1;
#X connect 10 0 24 1;
#X connect 11 0 18 0;
#X connect 12 0 18 1;
#X connect 13 0 15 0;
#X connect 14 0 9 0;
#X connect 15 0 12 1;
#X connect 16 0 26 0;
#X connect 17 0 26 1;
#X connect 18 0 19 0;
#X connect 18 1 19 1;
#X connect 19 0 16 0;
#X connect 19 1 17 0;
#X connect 20 0 17 1;
#X connect 20 0 16 1;
#X connect 21 0 20 0;
#X connect 22 0 17 1;
#X connect 22 0 16 1;
#X connect 23 0 32 0;
#X connect 24 0 26 0;
#X connect 25 0 26 1;
#X connect 27 0 28 0;
#X connect 28 0 26 2;
#X connect 29 0 23 0;
#X connect 30 0 3 0;
#X connect 31 0 6 0;
#X connect 33 0 10 0;
#X coords 0 -1 1 1 40 140 2 300 150;
#X restore 378 32 pd key;
#N canvas 162 136 673 539 key 0;
#X obj 301 151 cnv 15 38 138 empty \$0-key-l-recv l 17 100 0 14 -262144
-33289 0;
#X obj 123 78 key;
#X floatatom 123 103 5 0 0 0 - - -;
#X obj 123 155 t b b b b;
#X msg 329 362 0;
#X floatatom 408 88 5 0 0 0 - - -;
#X obj 408 140 t b b b b;
#X obj 408 63 keyup;
#X floatatom 29 130 5 0 0 0 - - -;
#X floatatom 29 199 5 0 0 0 - - -;
#X obj 123 260 f;
#X obj 149 238 f;
#X obj 525 95 r \$0-velocity;
#X obj 31 105 r \$0-octave;
#X floatatom 525 119 5 0 0 0 - - -;
#X obj 122 372 spigot 1;
#X obj 183 372 spigot 1;
#X obj 123 302 makenote;
#X obj 123 331 stripnote;
#X msg 204 335 0;
#X obj 204 304 delay 10;
#X msg 272 334 1;
#X msg 301 392 color \$1 252;
#X obj 409 260 f;
#X msg 427 236 0;
#X obj 302 473 noteout;
#X obj 523 350 r \$0-channel;
#X floatatom 523 378 5 0 0 0 - - -;
#X msg 301 360 1;
#X obj 124 128 sel 108;
#X obj 408 113 sel 108;
#X obj 301 415 s \$0-key-l-recv;
#X obj 29 177 + 14;
#X obj 29 152 * 12;
#X connect 1 0 2 0;
#X connect 2 0 29 0;
#X connect 3 0 10 0;
#X connect 3 1 11 0;
#X connect 3 2 20 0;
#X connect 3 3 28 0;
#X connect 4 0 22 0;
#X connect 5 0 30 0;
#X connect 6 0 23 0;
#X connect 6 1 24 0;
#X connect 6 2 21 0;
#X connect 6 3 4 0;
#X connect 7 0 5 0;
#X connect 8 0 33 0;
#X connect 9 0 10 1;
#X connect 9 0 23 1;
#X connect 10 0 17 0;
#X connect 11 0 17 1;
#X connect 12 0 14 0;
#X connect 13 0 8 0;
#X connect 14 0 11 1;
#X connect 15 0 25 0;
#X connect 16 0 25 1;
#X connect 17 0 18 0;
#X connect 17 1 18 1;
#X connect 18 0 15 0;
#X connect 18 1 16 0;
#X connect 19 0 16 1;
#X connect 19 0 15 1;
#X connect 20 0 19 0;
#X connect 21 0 16 1;
#X connect 21 0 15 1;
#X connect 22 0 31 0;
#X connect 23 0 25 0;
#X connect 24 0 25 1;
#X connect 26 0 27 0;
#X connect 27 0 25 2;
#X connect 28 0 22 0;
#X connect 29 0 3 0;
#X connect 30 0 6 0;
#X connect 32 0 9 0;
#X connect 33 0 32 0;
#X coords 0 -1 1 1 40 140 2 300 150;
#X restore 422 33 pd key;
#N canvas 162 136 673 539 key 0;
#X obj 301 151 cnv 15 38 138 empty \$0-key-sc-recv sc 10 100 0 14 -262144
-33289 0;
#X obj 123 78 key;
#X floatatom 123 103 5 0 0 0 - - -;
#X obj 123 155 t b b b b;
#X msg 329 362 0;
#X floatatom 408 88 5 0 0 0 - - -;
#X obj 408 140 t b b b b;
#X obj 408 63 keyup;
#X obj 29 152 * 12;
#X floatatom 29 130 5 0 0 0 - - -;
#X floatatom 29 199 5 0 0 0 - - -;
#X obj 123 260 f;
#X obj 149 238 f;
#X obj 525 95 r \$0-velocity;
#X obj 31 105 r \$0-octave;
#X floatatom 525 119 5 0 0 0 - - -;
#X obj 122 372 spigot 1;
#X obj 183 372 spigot 1;
#X obj 123 302 makenote;
#X obj 123 331 stripnote;
#X msg 204 335 0;
#X obj 204 304 delay 10;
#X msg 272 334 1;
#X msg 301 392 color \$1 252;
#X obj 409 260 f;
#X msg 427 236 0;
#X obj 302 473 noteout;
#X obj 523 350 r \$0-channel;
#X floatatom 523 378 5 0 0 0 - - -;
#X msg 301 360 1;
#X obj 29 177 + 16;
#X obj 124 128 sel 59;
#X obj 408 113 sel 59;
#X obj 301 415 s \$0-key-sc-recv;
#X connect 1 0 2 0;
#X connect 2 0 31 0;
#X connect 3 0 11 0;
#X connect 3 1 12 0;
#X connect 3 2 21 0;
#X connect 3 3 29 0;
#X connect 4 0 23 0;
#X connect 5 0 32 0;
#X connect 6 0 24 0;
#X connect 6 1 25 0;
#X connect 6 2 22 0;
#X connect 6 3 4 0;
#X connect 7 0 5 0;
#X connect 8 0 30 0;
#X connect 9 0 8 0;
#X connect 10 0 11 1;
#X connect 10 0 24 1;
#X connect 11 0 18 0;
#X connect 12 0 18 1;
#X connect 13 0 15 0;
#X connect 14 0 9 0;
#X connect 15 0 12 1;
#X connect 16 0 26 0;
#X connect 17 0 26 1;
#X connect 18 0 19 0;
#X connect 18 1 19 1;
#X connect 19 0 16 0;
#X connect 19 1 17 0;
#X connect 20 0 17 1;
#X connect 20 0 16 1;
#X connect 21 0 20 0;
#X connect 22 0 17 1;
#X connect 22 0 16 1;
#X connect 23 0 33 0;
#X connect 24 0 26 0;
#X connect 25 0 26 1;
#X connect 27 0 28 0;
#X connect 28 0 26 2;
#X connect 29 0 23 0;
#X connect 30 0 10 0;
#X connect 31 0 3 0;
#X connect 32 0 6 0;
#X coords 0 -1 1 1 40 140 2 300 150;
#X restore 466 34 pd key;
#N canvas 118 68 649 401 channel 0;
#X obj 301 151 cnv 15 82 48 empty empty empty 20 12 0 14 -99865 -66577
0;
#X obj 319 171 nbx 3 25 0 127 0 0 empty empty -.-Velocity+/+ -20 -8
0 10 -191407 -1 -1 100 256;
#X obj 151 72 key;
#X floatatom 151 98 5 0 0 0 - - -;
#X obj 151 199 - 1;
#X floatatom 151 226 5 0 0 0 - - -;
#X obj 151 171 f;
#X obj 319 213 t f f f;
#X obj 318 92 loadbang;
#X obj 502 74 key;
#X floatatom 502 100 5 0 0 0 - - -;
#X floatatom 502 228 5 0 0 0 - - -;
#X obj 502 173 f;
#X obj 502 201 + 1;
#X obj 151 122 sel 46;
#X obj 502 124 sel 47;
#X msg 318 119 100;
#X obj 342 294 s \$0-velocity;
#X connect 1 0 7 0;
#X connect 2 0 3 0;
#X connect 3 0 14 0;
#X connect 4 0 5 0;
#X connect 5 0 1 0;
#X connect 6 0 4 0;
#X connect 7 0 6 1;
#X connect 7 1 17 0;
#X connect 7 2 12 1;
#X connect 8 0 16 0;
#X connect 9 0 10 0;
#X connect 10 0 15 0;
#X connect 11 0 1 0;
#X connect 12 0 13 0;
#X connect 13 0 11 0;
#X connect 14 0 6 0;
#X connect 15 0 12 0;
#X connect 16 0 1 0;
#X coords 0 -1 1 1 84 50 2 300 150;
#X restore 420 179 pd channel;
#N canvas 0 50 848 430 space 0;
#X obj 301 151 cnv 15 248 48 empty \$0-key-space-recv space 110 20
0 14 -262144 -33289 0;
#X obj 442 338 s \$0-key-space-recv;
#X msg 442 312 color \$1 252;
#X msg 442 288 2;
#X obj 233 130 key;
#X floatatom 233 156 5 0 0 0 - - -;
#X obj 233 182 sel 32;
#X floatatom 562 156 5 0 0 0 - - -;
#X obj 562 182 sel 32;
#X obj 562 130 keyup;
#X obj 233 356 ctlout 64 1;
#X msg 233 268 1;
#X obj 233 326 spigot;
#X msg 272 267 0;
#X obj 253 237 delay 10;
#X msg 476 289 0;
#X msg 303 270 1;
#X msg 341 271 0;
#X obj 585 246 delay 10;
#X obj 233 208 t b b b;
#X obj 562 210 t b b b;
#X obj 684 221 r \$0-channel;
#X floatatom 684 248 5 0 0 0 - - -;
#X connect 2 0 1 0;
#X connect 3 0 2 0;
#X connect 4 0 5 0;
#X connect 5 0 6 0;
#X connect 6 0 19 0;
#X connect 7 0 8 0;
#X connect 8 0 20 0;
#X connect 9 0 7 0;
#X connect 11 0 12 0;
#X connect 12 0 10 0;
#X connect 13 0 12 1;
#X connect 14 0 13 0;
#X connect 15 0 2 0;
#X connect 16 0 12 1;
#X connect 17 0 12 0;
#X connect 18 0 17 0;
#X connect 19 0 11 0;
#X connect 19 1 14 0;
#X connect 19 2 3 0;
#X connect 20 0 16 0;
#X connect 20 1 18 0;
#X connect 20 2 15 0;
#X connect 21 0 22 0;
#X connect 22 0 10 2;
#X coords 0 -1 1 1 250 50 2 300 150;
#X restore 163 178 pd space;
#N canvas 260 108 673 539 key 0;
#X obj 301 151 cnv 15 38 78 empty \$0-key-t-recv t 17 40 0 14 -33289
-262144 0;
#X obj 123 78 key;
#X floatatom 123 103 5 0 0 0 - - -;
#X obj 123 155 t b b b b;
#X floatatom 408 88 5 0 0 0 - - -;
#X obj 408 140 t b b b b;
#X obj 408 63 keyup;
#X obj 29 152 * 12;
#X floatatom 29 130 5 0 0 0 - - -;
#X floatatom 29 199 5 0 0 0 - - -;
#X obj 123 260 f;
#X obj 149 238 f;
#X obj 525 95 r \$0-velocity;
#X obj 31 105 r \$0-octave;
#X floatatom 525 119 5 0 0 0 - - -;
#X obj 122 372 spigot 1;
#X obj 183 372 spigot 1;
#X obj 123 302 makenote;
#X obj 123 331 stripnote;
#X msg 204 335 0;
#X obj 204 304 delay 10;
#X msg 272 334 1;
#X obj 409 260 f;
#X msg 427 236 0;
#X obj 302 473 noteout;
#X obj 523 350 r \$0-channel;
#X floatatom 523 378 5 0 0 0 - - -;
#X msg 329 362 42;
#X msg 301 392 color \$1 0;
#X msg 301 360 1;
#X obj 123 128 sel 116;
#X obj 408 113 sel 116;
#X obj 29 177 + 6;
#X obj 301 414 s \$0-key-t-recv;
#X connect 1 0 2 0;
#X connect 2 0 30 0;
#X connect 3 0 10 0;
#X connect 3 1 11 0;
#X connect 3 2 20 0;
#X connect 3 3 29 0;
#X connect 4 0 31 0;
#X connect 5 0 22 0;
#X connect 5 1 23 0;
#X connect 5 2 21 0;
#X connect 5 3 27 0;
#X connect 6 0 4 0;
#X connect 7 0 32 0;
#X connect 8 0 7 0;
#X connect 9 0 10 1;
#X connect 9 0 22 1;
#X connect 10 0 17 0;
#X connect 11 0 17 1;
#X connect 12 0 14 0;
#X connect 13 0 8 0;
#X connect 14 0 11 1;
#X connect 15 0 24 0;
#X connect 16 0 24 1;
#X connect 17 0 18 0;
#X connect 17 1 18 1;
#X connect 18 0 15 0;
#X connect 18 1 16 0;
#X connect 19 0 16 1;
#X connect 19 0 15 1;
#X connect 20 0 19 0;
#X connect 21 0 16 1;
#X connect 21 0 15 1;
#X connect 22 0 24 0;
#X connect 23 0 24 1;
#X connect 25 0 26 0;
#X connect 26 0 24 2;
#X connect 27 0 28 0;
#X connect 28 0 33 0;
#X connect 29 0 28 0;
#X connect 30 0 3 0;
#X connect 31 0 5 0;
#X connect 32 0 9 0;
#X coords 0 -1 1 1 40 80 2 300 150;
#X restore 223 31 pd key;
#N canvas 260 108 673 539 key 0;
#X obj 301 151 cnv 15 38 78 empty \$0-key-y-recv y 17 40 0 14 -33289
-262144 0;
#X obj 123 78 key;
#X floatatom 123 103 5 0 0 0 - - -;
#X obj 123 155 t b b b b;
#X floatatom 408 88 5 0 0 0 - - -;
#X obj 408 140 t b b b b;
#X obj 408 63 keyup;
#X obj 29 152 * 12;
#X floatatom 29 130 5 0 0 0 - - -;
#X floatatom 29 199 5 0 0 0 - - -;
#X obj 123 260 f;
#X obj 149 238 f;
#X obj 525 95 r \$0-velocity;
#X obj 31 105 r \$0-octave;
#X floatatom 525 119 5 0 0 0 - - -;
#X obj 122 372 spigot 1;
#X obj 183 372 spigot 1;
#X obj 123 302 makenote;
#X obj 123 331 stripnote;
#X msg 204 335 0;
#X obj 204 304 delay 10;
#X msg 272 334 1;
#X obj 409 260 f;
#X msg 427 236 0;
#X obj 302 473 noteout;
#X obj 523 350 r \$0-channel;
#X floatatom 523 378 5 0 0 0 - - -;
#X msg 329 362 42;
#X msg 301 392 color \$1 0;
#X msg 301 360 1;
#X obj 123 128 sel 121;
#X obj 408 113 sel 121;
#X obj 29 177 + 8;
#X obj 301 414 s \$0-key-y-recv;
#X connect 1 0 2 0;
#X connect 2 0 30 0;
#X connect 3 0 10 0;
#X connect 3 1 11 0;
#X connect 3 2 20 0;
#X connect 3 3 29 0;
#X connect 4 0 31 0;
#X connect 5 0 22 0;
#X connect 5 1 23 0;
#X connect 5 2 21 0;
#X connect 5 3 27 0;
#X connect 6 0 4 0;
#X connect 7 0 32 0;
#X connect 8 0 7 0;
#X connect 9 0 10 1;
#X connect 9 0 22 1;
#X connect 10 0 17 0;
#X connect 11 0 17 1;
#X connect 12 0 14 0;
#X connect 13 0 8 0;
#X connect 14 0 11 1;
#X connect 15 0 24 0;
#X connect 16 0 24 1;
#X connect 17 0 18 0;
#X connect 17 1 18 1;
#X connect 18 0 15 0;
#X connect 18 1 16 0;
#X connect 19 0 16 1;
#X connect 19 0 15 1;
#X connect 20 0 19 0;
#X connect 21 0 16 1;
#X connect 21 0 15 1;
#X connect 22 0 24 0;
#X connect 23 0 24 1;
#X connect 25 0 26 0;
#X connect 26 0 24 2;
#X connect 27 0 28 0;
#X connect 28 0 33 0;
#X connect 29 0 28 0;
#X connect 30 0 3 0;
#X connect 31 0 5 0;
#X connect 32 0 9 0;
#X coords 0 -1 1 1 40 80 2 300 150;
#X restore 268 31 pd key;
#N canvas 260 108 673 539 key 0;
#X obj 301 151 cnv 15 38 78 empty \$0-key-u-recv u 17 40 0 14 -33289
-262144 0;
#X obj 123 78 key;
#X floatatom 123 103 5 0 0 0 - - -;
#X obj 123 155 t b b b b;
#X floatatom 408 88 5 0 0 0 - - -;
#X obj 408 140 t b b b b;
#X obj 408 63 keyup;
#X obj 29 152 * 12;
#X floatatom 29 130 5 0 0 0 - - -;
#X floatatom 29 199 5 0 0 0 - - -;
#X obj 123 260 f;
#X obj 149 238 f;
#X obj 525 95 r \$0-velocity;
#X obj 31 105 r \$0-octave;
#X floatatom 525 119 5 0 0 0 - - -;
#X obj 122 372 spigot 1;
#X obj 183 372 spigot 1;
#X obj 123 302 makenote;
#X obj 123 331 stripnote;
#X msg 204 335 0;
#X obj 204 304 delay 10;
#X msg 272 334 1;
#X obj 409 260 f;
#X msg 427 236 0;
#X obj 302 473 noteout;
#X obj 523 350 r \$0-channel;
#X floatatom 523 378 5 0 0 0 - - -;
#X msg 329 362 42;
#X msg 301 392 color \$1 0;
#X msg 301 360 1;
#X obj 123 128 sel 117;
#X obj 408 113 sel 117;
#X obj 30 177 + 10;
#X obj 301 414 s \$0-key-u-recv;
#X connect 1 0 2 0;
#X connect 2 0 30 0;
#X connect 3 0 10 0;
#X connect 3 1 11 0;
#X connect 3 2 20 0;
#X connect 3 3 29 0;
#X connect 4 0 31 0;
#X connect 5 0 22 0;
#X connect 5 1 23 0;
#X connect 5 2 21 0;
#X connect 5 3 27 0;
#X connect 6 0 4 0;
#X connect 7 0 32 0;
#X connect 8 0 7 0;
#X connect 9 0 10 1;
#X connect 9 0 22 1;
#X connect 10 0 17 0;
#X connect 11 0 17 1;
#X connect 12 0 14 0;
#X connect 13 0 8 0;
#X connect 14 0 11 1;
#X connect 15 0 24 0;
#X connect 16 0 24 1;
#X connect 17 0 18 0;
#X connect 17 1 18 1;
#X connect 18 0 15 0;
#X connect 18 1 16 0;
#X connect 19 0 16 1;
#X connect 19 0 15 1;
#X connect 20 0 19 0;
#X connect 21 0 16 1;
#X connect 21 0 15 1;
#X connect 22 0 24 0;
#X connect 23 0 24 1;
#X connect 25 0 26 0;
#X connect 26 0 24 2;
#X connect 27 0 28 0;
#X connect 28 0 33 0;
#X connect 29 0 28 0;
#X connect 30 0 3 0;
#X connect 31 0 5 0;
#X connect 32 0 9 0;
#X coords 0 -1 1 1 40 80 2 300 150;
#X restore 313 32 pd key;
#N canvas 260 108 673 539 key 0;
#X obj 301 151 cnv 15 38 78 empty \$0-key-o-recv o 17 40 0 14 -33289
-262144 0;
#X obj 123 78 key;
#X floatatom 123 103 5 0 0 0 - - -;
#X obj 123 155 t b b b b;
#X floatatom 408 88 5 0 0 0 - - -;
#X obj 408 140 t b b b b;
#X obj 408 63 keyup;
#X obj 29 152 * 12;
#X floatatom 29 130 5 0 0 0 - - -;
#X floatatom 29 199 5 0 0 0 - - -;
#X obj 123 260 f;
#X obj 149 238 f;
#X obj 525 95 r \$0-velocity;
#X obj 31 105 r \$0-octave;
#X floatatom 525 119 5 0 0 0 - - -;
#X obj 122 372 spigot 1;
#X obj 183 372 spigot 1;
#X obj 123 302 makenote;
#X obj 123 331 stripnote;
#X msg 204 335 0;
#X obj 204 304 delay 10;
#X msg 272 334 1;
#X obj 409 260 f;
#X msg 427 236 0;
#X obj 302 473 noteout;
#X obj 523 350 r \$0-channel;
#X floatatom 523 378 5 0 0 0 - - -;
#X msg 329 362 42;
#X msg 301 392 color \$1 0;
#X msg 301 360 1;
#X obj 123 128 sel 111;
#X obj 408 113 sel 111;
#X obj 29 177 + 13;
#X obj 301 414 s \$0-key-o-recv;
#X connect 1 0 2 0;
#X connect 2 0 30 0;
#X connect 3 0 10 0;
#X connect 3 1 11 0;
#X connect 3 2 20 0;
#X connect 3 3 29 0;
#X connect 4 0 31 0;
#X connect 5 0 22 0;
#X connect 5 1 23 0;
#X connect 5 2 21 0;
#X connect 5 3 27 0;
#X connect 6 0 4 0;
#X connect 7 0 32 0;
#X connect 8 0 7 0;
#X connect 9 0 10 1;
#X connect 9 0 22 1;
#X connect 10 0 17 0;
#X connect 11 0 17 1;
#X connect 12 0 14 0;
#X connect 13 0 8 0;
#X connect 14 0 11 1;
#X connect 15 0 24 0;
#X connect 16 0 24 1;
#X connect 17 0 18 0;
#X connect 17 1 18 1;
#X connect 18 0 15 0;
#X connect 18 1 16 0;
#X connect 19 0 16 1;
#X connect 19 0 15 1;
#X connect 20 0 19 0;
#X connect 21 0 16 1;
#X connect 21 0 15 1;
#X connect 22 0 24 0;
#X connect 23 0 24 1;
#X connect 25 0 26 0;
#X connect 26 0 24 2;
#X connect 27 0 28 0;
#X connect 28 0 33 0;
#X connect 29 0 28 0;
#X connect 30 0 3 0;
#X connect 31 0 5 0;
#X connect 32 0 9 0;
#X coords 0 -1 1 1 40 80 2 300 150;
#X restore 401 31 pd key;
#N canvas 260 108 673 539 key 0;
#X obj 301 151 cnv 15 38 78 empty \$0-key-p-recv p 17 40 0 14 -33289
-262144 0;
#X obj 123 78 key;
#X floatatom 123 103 5 0 0 0 - - -;
#X obj 123 155 t b b b b;
#X floatatom 408 88 5 0 0 0 - - -;
#X obj 408 140 t b b b b;
#X obj 408 63 keyup;
#X obj 29 152 * 12;
#X floatatom 29 130 5 0 0 0 - - -;
#X floatatom 29 199 5 0 0 0 - - -;
#X obj 123 260 f;
#X obj 149 238 f;
#X obj 525 95 r \$0-velocity;
#X obj 31 105 r \$0-octave;
#X floatatom 525 119 5 0 0 0 - - -;
#X obj 122 372 spigot 1;
#X obj 183 372 spigot 1;
#X obj 123 302 makenote;
#X obj 123 331 stripnote;
#X msg 204 335 0;
#X obj 204 304 delay 10;
#X msg 272 334 1;
#X obj 409 260 f;
#X msg 427 236 0;
#X obj 302 473 noteout;
#X obj 523 350 r \$0-channel;
#X floatatom 523 378 5 0 0 0 - - -;
#X msg 329 362 42;
#X msg 301 392 color \$1 0;
#X msg 301 360 1;
#X obj 123 128 sel 112;
#X obj 408 113 sel 112;
#X obj 29 177 + 15;
#X obj 301 414 s \$0-key-p-recv;
#X connect 1 0 2 0;
#X connect 2 0 30 0;
#X connect 3 0 10 0;
#X connect 3 1 11 0;
#X connect 3 2 20 0;
#X connect 3 3 29 0;
#X connect 4 0 31 0;
#X connect 5 0 22 0;
#X connect 5 1 23 0;
#X connect 5 2 21 0;
#X connect 5 3 27 0;
#X connect 6 0 4 0;
#X connect 7 0 32 0;
#X connect 8 0 7 0;
#X connect 9 0 10 1;
#X connect 9 0 22 1;
#X connect 10 0 17 0;
#X connect 11 0 17 1;
#X connect 12 0 14 0;
#X connect 13 0 8 0;
#X connect 14 0 11 1;
#X connect 15 0 24 0;
#X connect 16 0 24 1;
#X connect 17 0 18 0;
#X connect 17 1 18 1;
#X connect 18 0 15 0;
#X connect 18 1 16 0;
#X connect 19 0 16 1;
#X connect 19 0 15 1;
#X connect 20 0 19 0;
#X connect 21 0 16 1;
#X connect 21 0 15 1;
#X connect 22 0 24 0;
#X connect 23 0 24 1;
#X connect 25 0 26 0;
#X connect 26 0 24 2;
#X connect 27 0 28 0;
#X connect 28 0 33 0;
#X connect 29 0 28 0;
#X connect 30 0 3 0;
#X connect 31 0 5 0;
#X connect 32 0 9 0;
#X coords 0 -1 1 1 40 80 2 300 150;
#X restore 446 33 pd key;
#N canvas 118 68 649 401 channel 0;
#X obj 301 151 cnv 15 48 48 empty empty empty 20 12 0 14 -99865 -66577
0;
#X obj 304 169 nbx 3 25 0 127 0 0 empty empty Pan 3 -8 0 10 -191407
-1 -1 63 256;
#X obj 454 117 r \$0-channel;
#X floatatom 454 146 5 0 0 0 - - -;
#X obj 307 235 ctlout 10 1;
#X obj 304 101 loadbang;
#X msg 304 124 63;
#X connect 1 0 4 0;
#X connect 2 0 3 0;
#X connect 3 0 4 2;
#X connect 5 0 6 0;
#X connect 6 0 1 0;
#X coords 0 -1 1 1 50 50 2 300 150;
#X restore 511 33 pd channel;
#N canvas 118 68 649 401 channel 0;
#X obj 301 151 cnv 15 48 48 empty empty empty 20 12 0 14 -99865 -66577
0;
#X obj 305 169 nbx 3 25 0 127 0 0 empty empty Volume 3 -8 0 10 -191407
-1 -1 100 256;
#X obj 454 117 r \$0-channel;
#X floatatom 454 146 5 0 0 0 - - -;
#X obj 307 235 ctlout 7 1;
#X obj 304 91 loadbang;
#X msg 304 122 100;
#X connect 1 0 4 0;
#X connect 2 0 3 0;
#X connect 3 0 4 2;
#X connect 5 0 6 0;
#X connect 6 0 1 0;
#X coords 0 -1 1 1 50 50 2 300 150;
#X restore 511 89 pd channel;
