#N canvas 619 122 361 423 10;
#N canvas 1120 22 132 842 instances 1;
#X obj 25 25 a.row 0 24;
#X obj 25 50 a.row 1 24;
#X obj 25 75 a.row 2 24;
#X obj 25 100 a.row 3 24;
#X obj 25 125 a.row 4 24;
#X obj 25 150 a.row 5 24;
#X obj 25 175 a.row 6 24;
#X obj 25 200 a.row 7 24;
#X obj 25 225 a.row 8 24;
#X obj 25 250 a.row 9 24;
#X obj 25 275 a.row 10 24;
#X obj 25 300 a.row 11 24;
#X obj 25 325 a.row 12 24;
#X obj 25 350 a.row 13 24;
#X obj 25 375 a.row 14 24;
#X obj 25 400 a.row 15 24;
#X obj 25 425 a.row 16 24;
#X obj 25 450 a.row 17 24;
#X obj 25 475 a.row 18 24;
#X obj 25 500 a.row 19 24;
#X obj 25 525 a.row 20 24;
#X obj 25 550 a.row 21 24;
#X obj 25 575 a.row 22 24;
#X obj 25 600 a.row 23 24;
#X restore 136 382 pd instances;
#X obj 124 362 s pd-instances;
#X obj 58 113 until;
#X obj 84 163 + 1;
#X msg 124 113 clear;
#X obj 58 186 t f f;
#X obj 77 80 t f b b;
#X obj 85 209 * 25;
#X obj 85 229 + 25;
#X obj 77 56 inlet;
#X obj 62 274 symbol \$1;
#X obj 62 252 loadbang;
#X text 180 20 ARGUMENTS:;
#X text 180 65 2) number of instances;
#X text 180 45 1) name of the object;
#X msg 39 332 obj 25 \$3 \$2 \$1 \$4;
#X obj 133 273 inlet;
#X obj 39 306 pack f s f f;
#X obj 58 164 f 0;
#X msg 96 113 0;
#X connect 2 0 18 0;
#X connect 3 0 18 1;
#X connect 4 0 1 0;
#X connect 5 0 17 0;
#X connect 5 1 7 0;
#X connect 6 0 2 0;
#X connect 6 1 19 0;
#X connect 6 2 4 0;
#X connect 7 0 8 0;
#X connect 8 0 17 2;
#X connect 9 0 6 0;
#X connect 10 0 17 1;
#X connect 11 0 10 0;
#X connect 15 0 1 0;
#X connect 16 0 17 3;
#X connect 17 0 15 0;
#X connect 18 0 3 0;
#X connect 18 0 5 0;
#X connect 19 0 18 1;
