#N canvas 0 22 1280 752 10;
#X obj -56 -530 cnv 15 500 475 empty empty empty 20 12 0 14 -233017
-66577 0;
#X obj -50 -342 +~;
#X obj 136 -383 *~ 0.98;
#X msg 21 -506 1000 \$1;
#X obj 21 -484 /;
#X obj 161 -187 *~ 1;
#X obj 182 -209 dbtorms;
#X obj 218 -332 t f f;
#X obj 189 -382 *;
#X obj 79 -575 t f f;
#X obj 375 -223 env~;
#X obj 375 -200 change;
#X obj 330 -83 s \$0-more;
#X obj 51 -874 r \$0-more;
#X obj 149 -497 moses 1;
#X obj 202 -106 sqrt;
#X obj 181 -82 *~ 1;
#X obj 226 -82 *~ 1;
#X obj 247 -105 sqrt;
#X obj 247 -126 abs;
#X obj 247 -146 - 1;
#X obj -50 -319 delwrite~ d\$0 100;
#X obj 390 -131 s \$0-zero;
#X obj 189 -359 sig~;
#X obj 161 -309 vcf~ 100 1;
#X obj 182 -232 + 100;
#X obj 182 -255 * 10;
#X obj 245 -310 log;
#X obj 182 -277 / 2.30259;
#X obj 79 -596 mtof;
#X obj 375 -176 == 0;
#X obj 330 -524 r \$2-trigger;
#X obj 330 -258 sel \$1;
#X obj 180 -19 throw~ L;
#X obj 242 -19 throw~ R;
#X obj -50 -524 a.unitpulse;
#X obj 21 -461 delread~ d\$0 10;
#N canvas 701 352 194 208 trigger 0;
#X obj -190 179 outlet;
#X obj -163 132 switch~ 0;
#X obj -153 80 r \$0-zero;
#X obj -190 7 inlet;
#X obj -190 31 t b b;
#X msg -163 55 1;
#X obj -190 157 del 100;
#X msg -153 105 0;
#X connect 2 0 7 0;
#X connect 3 0 4 0;
#X connect 4 0 6 0;
#X connect 4 1 5 0;
#X connect 5 0 1 0;
#X connect 6 0 0 0;
#X connect 7 0 1 0;
#X restore 330 -105 pd trigger \, switch;
#X obj 390 -153 sel 1;
#X obj 330 -129 spigot 1;
#X obj 94 -638 r fundamental;
#X obj 79 -618 +;
#X obj -40 -741 random 3;
#X obj -40 -720 tabread chordType;
#X obj 79 -660 +;
#X obj 94 -686 + 18;
#X obj -40 -677 mod 12;
#X obj -40 -699 - 6;
#X obj 94 -711 * 12;
#X obj 67 -758 t b f;
#X obj 223 -522 a.rand pan;
#X obj 149 -521 a.rmm Harm;
#X obj 68 -788 a.rmm Octave;
#X obj 105 -521 r Fdb;
#X obj 294 -523 r Q;
#X obj 225 -359 sel 0;
#X obj 51 -850 t b b b b;
#X text 116 -872 trigger attack (aquí se captarían los eventos "trigger
attack" disparados en a.synthVoice) ;
#X text 148 -615 En gris \, propio de este sinte. Aquí decidir que
nota suena \, dada una triada. El único valor "genérico" es la salida
de mtof \; los restantes son parámetros de control \, propios de este
sinte...;
#X text 304 -22 salida de audio!!;
#X text 153 -792 calcula una nota aleatoria \, dentro de una triada
dada \, y para una octava dada;
#X connect 1 0 21 0;
#X connect 2 0 1 1;
#X connect 2 0 24 0;
#X connect 3 0 4 0;
#X connect 4 0 36 0;
#X connect 5 0 10 0;
#X connect 5 0 16 0;
#X connect 5 0 17 0;
#X connect 6 0 5 1;
#X connect 7 0 24 2;
#X connect 7 1 27 0;
#X connect 8 0 23 0;
#X connect 9 0 3 0;
#X connect 9 1 8 0;
#X connect 10 0 11 0;
#X connect 11 0 30 0;
#X connect 13 0 56 0;
#X connect 14 1 8 1;
#X connect 15 0 16 1;
#X connect 16 0 33 0;
#X connect 17 0 34 0;
#X connect 18 0 17 1;
#X connect 19 0 18 0;
#X connect 20 0 19 0;
#X connect 23 0 24 1;
#X connect 24 0 5 0;
#X connect 25 0 6 0;
#X connect 26 0 25 0;
#X connect 27 0 28 0;
#X connect 28 0 26 0;
#X connect 29 0 9 0;
#X connect 30 0 38 0;
#X connect 30 0 39 1;
#X connect 31 0 32 0;
#X connect 32 0 39 0;
#X connect 35 0 1 0;
#X connect 36 0 2 0;
#X connect 37 0 12 0;
#X connect 38 0 22 0;
#X connect 39 0 37 0;
#X connect 40 0 41 1;
#X connect 41 0 29 0;
#X connect 42 0 43 0;
#X connect 43 0 47 0;
#X connect 44 0 41 0;
#X connect 45 0 44 1;
#X connect 46 0 44 0;
#X connect 47 0 46 0;
#X connect 48 0 45 0;
#X connect 49 0 42 0;
#X connect 49 1 48 0;
#X connect 50 0 20 0;
#X connect 50 0 15 0;
#X connect 51 0 14 0;
#X connect 52 0 49 0;
#X connect 53 0 2 1;
#X connect 54 0 55 0;
#X connect 55 1 7 0;
#X connect 56 0 35 0;
#X connect 56 1 52 0;
#X connect 56 2 51 0;
#X connect 56 3 50 0;
