#N canvas 182 22 913 746 10;
#X obj 211 20 pow;
#X msg 211 -1 2 \$1;
#X obj 211 -22 + 1;
#X obj 132 85 min;
#X obj 142 37 t b f;
#X obj 238 223 /;
#X msg 238 202 16 \$1;
#X obj 81 167 until;
#X obj 81 146 f 1;
#X obj 81 312 list-extend;
#X obj 29 394 list-find;
#X obj 81 262 * 0.25;
#X obj 81 240 * 8;
#X obj 81 282 + 1;
#X obj 81 213 zexy/urn;
#X obj 81 334 sort;
#X obj 211 119 t f f;
#X msg 98 189 clear;
#X obj 210 260 r sequence;
#X obj 81 -87 t b b b b;
#X obj 30 436 t b;
#X obj 132 -63 a.rmm Events;
#X obj 211 -47 r Subdivision;
#X obj 132 62 f 8;
#X obj 81 -109 r bar;
#X obj 663 -76 a.pulsegrain 2 \$0;
#X obj 38 461 bng 15 250 50 0 empty empty empty 17 7 0 10 -262144 -1
-1;
#X obj 21 491 cnv 15 250 100 empty empty empty 20 12 0 14 -233017 -66577
0;
#X obj 31 565 s \$0-trigger;
#X obj 31 500 f 0;
#X obj 61 499 + 1;
#X obj 31 543 + 1;
#X text 76 521 same as number of voices;
#X obj 31 522 mod 40;
#X floatatom 120 560 5 0 0 0 - - -;
#X text 154 560 parcial.num;
#X obj 663 -102 a.pulsegrain 1 \$0;
#X obj 663 173 a.pulsegrain 12 \$0;
#X obj 663 148 a.pulsegrain 11 \$0;
#X obj 663 198 a.pulsegrain 13 \$0;
#X obj 663 223 a.pulsegrain 14 \$0;
#X obj 663 248 a.pulsegrain 15 \$0;
#X obj 663 273 a.pulsegrain 16 \$0;
#X obj 663 298 a.pulsegrain 17 \$0;
#X obj 663 323 a.pulsegrain 18 \$0;
#X obj 663 348 a.pulsegrain 19 \$0;
#X obj 663 373 a.pulsegrain 20 \$0;
#X obj 663 398 a.pulsegrain 21 \$0;
#X obj 663 423 a.pulsegrain 22 \$0;
#X obj 663 448 a.pulsegrain 23 \$0;
#X obj 663 473 a.pulsegrain 24 \$0;
#X obj 663 499 a.pulsegrain 25 \$0;
#X obj 663 123 a.pulsegrain 10 \$0;
#X obj 663 -52 a.pulsegrain 3 \$0;
#X obj 663 -27 a.pulsegrain 4 \$0;
#X obj 661 -2 a.pulsegrain 5 \$0;
#X obj 663 23 a.pulsegrain 6 \$0;
#X obj 663 48 a.pulsegrain 7 \$0;
#X obj 663 73 a.pulsegrain 8 \$0;
#X obj 663 98 a.pulsegrain 9 \$0;
#X obj 783 223 a.pulsegrain 39 \$0;
#X obj 783 198 a.pulsegrain 38 \$0;
#X obj 783 173 a.pulsegrain 37 \$0;
#X obj 783 148 a.pulsegrain 36 \$0;
#X obj 783 123 a.pulsegrain 35 \$0;
#X obj 783 98 a.pulsegrain 34 \$0;
#X obj 783 73 a.pulsegrain 33 \$0;
#X obj 783 48 a.pulsegrain 32 \$0;
#X obj 783 23 a.pulsegrain 31 \$0;
#X obj 781 -2 a.pulsegrain 30 \$0;
#X obj 783 -27 a.pulsegrain 29 \$0;
#X obj 783 -52 a.pulsegrain 28 \$0;
#X obj 783 -76 a.pulsegrain 27 \$0;
#X obj 783 -102 a.pulsegrain 26 \$0;
#X obj 783 248 a.pulsegrain 40 \$0;
#X floatatom 210 283 5 0 0 0 - - -;
#X obj 115 351 PRINT;
#X text 206 364 aquí tenemos la lista de tiempos de trigger del compás
en curso (este se consigue con el objeto PRINT "mayúsculas" \, de
Pd Extended.;
#X text 23 590 en gris \, propio de este sinte... porqué este sinte
tiene varios parciales separados...;
#X text 57 456 trigger attack (mirar en a.pulsegrain para como se podrían
disparar otros sintes);
#X obj 277 221 cnv 15 375 120 empty empty empty 20 12 0 14 -261682
-66577 0;
#X text 284 232 "sequence" es el contador dentro del compás. si quisieramos
gestionar diferentes voces de dif. formas \, probablemente \, podríamos
partir de este valor de "sequence". eg. hacer un bajo a negras \, un
pad a redondas \, y una melodia a corcheas. Para gestionar las alturas
(eg. bajo toca la fundamental \, pad la triada \, y melodía una nota
de la triada) \, esto se haría después (mirar dentro de a.pulsegrain)
;
#X text 66 413 list-find mira si un valor (en nuestro caso \, el del
instante actual) \, está en una lista (la de instantes donde queremos
notas);
#X connect 0 0 4 0;
#X connect 0 0 16 0;
#X connect 1 0 0 0;
#X connect 2 0 1 0;
#X connect 3 0 8 1;
#X connect 4 0 23 0;
#X connect 4 1 3 1;
#X connect 5 0 12 1;
#X connect 6 0 5 0;
#X connect 7 0 14 0;
#X connect 8 0 7 0;
#X connect 9 0 15 0;
#X connect 10 0 20 0;
#X connect 11 0 13 0;
#X connect 12 0 11 0;
#X connect 13 0 9 0;
#X connect 14 0 12 0;
#X connect 15 0 10 1;
#X connect 15 0 76 0;
#X connect 16 0 14 1;
#X connect 16 1 6 0;
#X connect 17 0 14 0;
#X connect 18 0 10 0;
#X connect 18 0 75 0;
#X connect 19 0 8 0;
#X connect 19 1 17 0;
#X connect 19 2 9 1;
#X connect 19 3 21 0;
#X connect 20 0 26 0;
#X connect 20 0 29 0;
#X connect 21 0 23 0;
#X connect 22 0 2 0;
#X connect 23 0 3 0;
#X connect 24 0 19 0;
#X connect 29 0 30 0;
#X connect 29 0 33 0;
#X connect 30 0 29 1;
#X connect 31 0 28 0;
#X connect 31 0 34 0;
#X connect 33 0 31 0;
