#N canvas 0 22 552 457 10;
#X msg 103 80 343 \$1;
#X obj 103 100 /;
#X floatatom 103 125 5 0 0 0 - - -;
#X obj 103 218 tabosc4~ sound;
#X obj 141 153 outlet;
#X obj 103 59 * 2;
#X obj 184 182 r reset;
#X obj 241 182 r phase;
#X obj 103 151 * 2;
#X obj 103 341 throw~ out;
#X obj 103 38 r \$1;
#X obj 118 268 r \$2;
#X obj 118 297 osc~;
#X floatatom 158 284 5 0 0 0 - - -;
#X obj 103 320 *~;
#X connect 0 0 1 0;
#X connect 1 0 2 0;
#X connect 2 0 4 0;
#X connect 2 0 8 0;
#X connect 3 0 14 0;
#X connect 5 0 0 0;
#X connect 6 0 3 0;
#X connect 6 0 3 1;
#X connect 7 0 3 1;
#X connect 8 0 3 0;
#X connect 10 0 5 0;
#X connect 11 0 13 0;
#X connect 11 0 12 0;
#X connect 12 0 14 1;
#X connect 14 0 9 0;
