#N canvas 0 22 450 300 10;
#X msg 103 80 343 \$1;
#X obj 103 100 /;
#X floatatom 103 125 5 0 0 0 - - -;
#X obj 103 218 tabosc4~ sound;
#X obj 103 38 inlet;
#X obj 103 261 throw~ \$1;
#X obj 141 153 outlet;
#X obj 103 59 * 2;
#X obj 184 182 r reset;
#X obj 241 182 r phase;
#X obj 103 151 * 2;
#X obj 103 240 *~ 0.1;
#X connect 0 0 1 0;
#X connect 1 0 2 0;
#X connect 2 0 6 0;
#X connect 2 0 10 0;
#X connect 3 0 11 0;
#X connect 4 0 7 0;
#X connect 7 0 0 0;
#X connect 8 0 3 0;
#X connect 8 0 3 1;
#X connect 9 0 3 1;
#X connect 10 0 3 0;
#X connect 11 0 5 0;
