#N canvas 706 22 531 331 10;
#X obj 43 -122 knob 200 200 0 127 0 0 \$0-guiKnob1 \$0-midiKnob1 empty
0 -8 192 8 -262144 -1 -1 0 1;
#X obj 293 -122 knob 200 200 0 127 0 0 \$0-guiKnob2 \$0-midiKnob2 empty
0 -8 192 8 -262144 -1 -1 19900 1;
#N canvas 94 22 783 360 control 1;
#X obj 12 144 midilearn;
#X msg 75 144;
#X obj 12 125 bng 15 250 50 0 empty empty empty 17 7 0 10 -262144 -1
-1;
#X obj 401 117 midilearn;
#X msg 464 117 0;
#X obj 401 98 bng 15 250 50 0 empty empty empty 17 7 0 10 -262144 -1
-1;
#X text 11 -4 knob1: Controls speed of change by setting the sampling
rate of knob2. Simultaneously \, sets a proportional random walk step-size
according to the length of the pulse (knob2). Initial position (midi
value 0) sets a no-sampling (continuous tracking of knob2) and no-random-walk
(stable frequency of knob2).;
#X text 398 -7 knob2: Controls the pulse size and therefore the continuum
between frequency and rythhm. Final position (midi value 127) sets
the synthesizer to silence.;
#X text 400 42 La frecuencia de cada una de las posiciones no será
la misma siempre \, sino que se almacenará con el incremento/decremento
del random-walk en la posición correspondiente.;
#X obj 401 204 s \$0-outInitSamps;
#X obj 401 140 s \$0-midiKnob2;
#X obj 401 160 r \$0-guiKnob2;
#X obj 12 167 s \$0-midiKnob1;
#X obj 12 187 r \$0-guiKnob1;
#X obj 401 181 tabread \$0-k2Map;
#X obj 12 289 / 127;
#X obj 12 313 * 2000;
#X obj 12 334 s \$0-clock;
#X obj 21 211 tabread \$0-k2Map;
#X connect 0 0 12 0;
#X connect 0 1 1 0;
#X connect 1 0 0 1;
#X connect 2 0 0 0;
#X connect 3 0 10 0;
#X connect 3 1 4 0;
#X connect 4 0 3 1;
#X connect 5 0 3 0;
#X connect 11 0 14 0;
#X connect 13 0 15 0;
#X connect 13 0 18 0;
#X connect 14 0 9 0;
#X connect 15 0 16 0;
#X connect 16 0 17 0;
#X restore 6 108 pd control;
#N canvas 99 22 709 707 pulsewalk 1;
#X obj 108 4 samplerate~;
#X obj 108 44 /;
#X msg 108 24 1 \$1;
#X obj 12 386 z~;
#X obj 87 64 *~ 1;
#X obj 72 84 /~;
#X obj 87 -36 r~ \$0-freqloop;
#X obj 43 57 sig~ 1;
#X obj 72 104 phasor~ 1;
#X obj 72 147 z~;
#X obj 177 521 *~;
#N canvas 0 22 194 142 pulse 0;
#X obj 7 76 expr~ if($v1 > $v2 \, 0 \, 1);
#X obj 154 53 z~;
#X obj 7 6 inlet~;
#X obj 7 106 outlet~;
#X connect 0 0 3 0;
#X connect 1 0 0 1;
#X connect 2 0 0 0;
#X connect 2 0 1 0;
#X restore 12 408 pd pulse;
#X obj 196 94 *~ 0;
#X obj 196 115 +~ 1;
#N canvas 167 148 725 652 freq 1;
#X obj 66 20 inlet~;
#X obj 15 52 samphold~;
#X obj 15 21 noise~;
#X obj 276 69 z~;
#X obj 15 92 expr~ if($v1 == $v2 \, 0 \, if($v1 >= 0 \, 1 \, -1));
#X msg 262 367 set \$1;
#X obj 145 397 fexpr~ abs($x[0] + $y[-1]);
#X obj 145 468 s~ \$0-freqloop;
#X obj 145 158 *~;
#X obj 160 117 inlet~;
#X obj 153 443 pulseVisInt \$0 visSamps;
#X obj 145 419 +~ 0;
#X obj 262 257 r \$0-outInitSamps;
#X obj 222 303 f;
#X obj 222 230 metro 10;
#X obj 195 141 r \$0-clock;
#X obj 195 184 != 0;
#X obj 195 206 change;
#X obj 195 163 t f f;
#X obj 240 207 sel 0;
#X floatatom 325 158 5 0 0 0 - - -;
#X obj 262 302 spigot;
#X obj 187 232 == 0;
#X obj 331 361 print;
#X obj 262 340 change;
#X connect 0 0 1 1;
#X connect 1 0 3 0;
#X connect 1 0 4 0;
#X connect 2 0 1 0;
#X connect 3 0 4 1;
#X connect 4 0 8 0;
#X connect 5 0 6 0;
#X connect 5 0 23 0;
#X connect 6 0 11 0;
#X connect 8 0 6 0;
#X connect 9 0 8 1;
#X connect 11 0 10 0;
#X connect 11 0 7 0;
#X connect 12 0 21 0;
#X connect 12 0 13 1;
#X connect 13 0 24 0;
#X connect 14 0 13 0;
#X connect 15 0 18 0;
#X connect 15 0 20 0;
#X connect 16 0 17 0;
#X connect 17 0 14 0;
#X connect 17 0 22 0;
#X connect 18 0 16 0;
#X connect 18 1 19 0;
#X connect 19 1 14 1;
#X connect 21 0 24 0;
#X connect 22 0 21 1;
#X connect 24 0 5 0;
#X restore 157 164 pd freq;
#X obj 35 606 *~;
#X obj 35 457 lop~ 12000;
#X obj 35 477 lop~ 12000;
#X obj 35 497 lop~ 12000;
#X obj 35 517 lop~ 12000;
#X obj 539 38 \$0;
#X obj 539 -6 loadbang;
#X obj 549 18 bng 15 250 50 0 empty empty empty 17 7 0 10 -262144 -1
-1;
#X obj 217 27 t f f;
#X obj 217 51 > 1;
#X obj 79 126 s~ \$0-phase;
#X obj 196 -14 r~ \$0-phase;
#X obj 217 6 r \$0-outJumpSamps;
#X obj 539 241 s \$0-metro;
#X obj 539 220 metro 400;
#X obj 108 -16 r \$0-loadbang;
#X obj 50 541 r \$0-outGo;
#X obj 50 584 line~;
#X obj 196 137 mirrorWall~ 0 1;
#X obj 196 73 randWalk;
#X msg 50 562 \$1 20;
#X obj 539 198 r \$0-outSwitchMetro;
#X obj 207 164 pulseVisInt \$0 visSampsMax;
#X obj 538 346 r globalInitSamps;
#X obj 538 368 s \$0-inInitSamps;
#X obj 539 262 r globalGo;
#X obj 539 283 s \$0-inGo;
#X obj 538 304 r globalMonitor;
#X obj 538 325 s \$0-inSwitchMetro;
#X obj 538 389 r globalInitAmp;
#X obj 538 411 s \$0-inInitAmp;
#X obj 538 433 r globalJumpSamps;
#X obj 538 455 s \$0-inJumpSamps;
#X obj 538 476 r globalJumpAmp;
#X obj 538 498 s \$0-inJumpAmp;
#X msg 539 60 \; \$1-loadbang bang \; \$1-inJumpSamps 1 \; \$1-inJumpAmp
1 \; \$1-inJumpPan 1 \; \$1-inInitAmp 100 \; \$1-inInitSamps 100 \;
\$1-inInitPan 0.5 \; \$1-inSwitchMetro 1 \; \$1-inGo 1;
#N canvas 257 257 326 284 amplitude 0;
#X obj 61 -11 inlet~;
#X obj 10 10 samphold~;
#X obj 10 -11 noise~;
#X obj 271 27 z~;
#X obj 10 50 expr~ if($v1 == $v2 \, 0 \, if($v1 >= 0 \, 1 \, -1));
#X obj 116 143 fexpr~ $x[0] + $y[-1];
#X obj 116 240 outlet~;
#X obj 131 76 inlet~;
#X obj 116 98 *~;
#X msg 149 117 set \$1;
#X obj 149 96 r \$0-outInitAmp;
#X obj 116 167 angelAbs/mirrorWall~ -2048 2047;
#X obj 116 218 /~ 2048;
#X text 174 218 <-- 12 bit resolution;
#X obj 126 193 pulseVisInt \$0 visAmp;
#X connect 0 0 1 1;
#X connect 1 0 3 0;
#X connect 1 0 4 0;
#X connect 2 0 1 0;
#X connect 3 0 4 1;
#X connect 4 0 8 0;
#X connect 5 0 11 0;
#X connect 7 0 8 1;
#X connect 8 0 5 0;
#X connect 9 0 5 0;
#X connect 10 0 9 0;
#X connect 11 0 12 0;
#X connect 11 0 14 0;
#X connect 12 0 6 0;
#X restore 192 498 pd amplitude;
#X obj 261 430 *~ 0;
#X obj 261 449 +~ 1;
#X obj 282 362 t f f;
#X obj 282 383 > 1;
#X obj 282 342 r \$0-outJumpAmp;
#X obj 261 473 mirrorWall~ 0 1;
#X obj 261 319 r~ \$0-phase;
#X obj 261 408 randWalk;
#X obj 273 498 pulseVisInt \$0 visAmpMax;
#X text 224 288 amplitude is bypassed;
#X floatatom 230 531 6 -2048 2047 0 amp: #0-inInitAmp #0-outInitAmp
;
#X obj 230 521 bng 8 250 50 0 \$0-learnAmp \$0-nothing empty 17 7 0
10 -228856 -1 -1;
#X floatatom 340 531 6 0 2048 0 Â± #0-inJumpAmp #0-outJumpAmp;
#X obj 340 521 bng 8 250 50 0 \$0-learnAmpJump \$0-nothing empty 17
7 0 10 -228856 -1 -1;
#X floatatom 272 531 6 0 0 0 - #0-visAmp #0-nothing2;
#X floatatom 382 531 6 0 0 0 - #0-visAmpMax #0-nothing2;
#X obj 25 629 dac~;
#X obj 442 -10 tgl 15 0 \$0-outSwitchMetro \$0-inSwitchMetro monitor
20 8 0 10 -228856 -1 -1 1 1;
#X obj 351 -10 bng 8 250 50 0 \$0-learnGo \$0-nothing empty 17 7 0
10 -228856 -1 -1;
#X obj 362 -10 tgl 15 0 \$0-outGo \$0-inGo active 20 8 0 10 -228856
-1 -1 1 1;
#X obj 431 -10 bng 8 250 50 0 \$0-learnMonitor \$0-nothing empty 17
7 0 10 -228856 -1 -1;
#X connect 0 0 2 0;
#X connect 1 0 4 1;
#X connect 2 0 1 0;
#X connect 3 0 11 0;
#X connect 4 0 5 1;
#X connect 5 0 8 0;
#X connect 6 0 4 0;
#X connect 7 0 5 0;
#X connect 8 0 9 0;
#X connect 8 0 25 0;
#X connect 9 0 3 0;
#X connect 9 0 14 0;
#X connect 9 0 51 0;
#X connect 11 0 16 0;
#X connect 12 0 13 0;
#X connect 13 0 33 0;
#X connect 15 0 68 0;
#X connect 15 0 68 1;
#X connect 16 0 17 0;
#X connect 17 0 18 0;
#X connect 18 0 19 0;
#X connect 19 0 15 0;
#X connect 20 0 50 0;
#X connect 21 0 20 0;
#X connect 22 0 20 0;
#X connect 23 0 24 0;
#X connect 23 1 33 2;
#X connect 24 0 12 1;
#X connect 24 0 34 1;
#X connect 26 0 34 0;
#X connect 27 0 23 0;
#X connect 29 0 28 0;
#X connect 30 0 0 0;
#X connect 31 0 35 0;
#X connect 32 0 15 1;
#X connect 33 0 14 1;
#X connect 33 0 37 0;
#X connect 34 0 12 0;
#X connect 35 0 32 0;
#X connect 36 0 29 0;
#X connect 38 0 39 0;
#X connect 40 0 41 0;
#X connect 42 0 43 0;
#X connect 44 0 45 0;
#X connect 46 0 47 0;
#X connect 48 0 49 0;
#X connect 51 0 10 1;
#X connect 52 0 53 0;
#X connect 53 0 57 0;
#X connect 54 0 55 0;
#X connect 54 1 57 2;
#X connect 55 0 52 1;
#X connect 55 0 59 1;
#X connect 56 0 54 0;
#X connect 57 0 51 1;
#X connect 57 0 60 0;
#X connect 58 0 59 0;
#X connect 59 0 52 0;
#X restore 74 108 pd pulsewalk;
#N canvas 0 22 653 493 maps 0;
#N canvas 0 22 450 300 (subpatch) 0;
#X array \$0-k2Map 128 float 3;
#A 0 3 4 5 6 7 8 9 10 11 12 13 14 15 16 17 18 20 21 23 24 26 28 30
32 34 37 39 42 45 49 52 56 60 64 69 74 79 84 91 97 104 111 119 128
137 147 158 169 181 194 208 223 239 256 274 294 315 338 362 388 416
446 478 512 549 588 630 676 724 776 832 891 955 1024 1097 1176 1261
1351 1448 1552 1663 1783 1911 2048 2195 2353 2521 2702 2896 3014 3327
3566 3822 4096 4390 4705 5043 5405 5793 6208 6654 7132 7643 8192 8780
9410 10086 10809 11585 12417 13308 14263 15287 16384 17560 18820 20171
21619 23170 24834 26616 28526 30574 32768 35120 37641 40342 43238;
#X coords 0 44000 128 0 600 200 1;
#X restore 17 -66 graph;
#X obj 16 141 loadbang;
#X msg 16 164 3 4 5 6 7 8 9 10 11 12 13 14 15 16 17 18 20 21 23 24
26 28 30 32 34 37 39 42 45 49 52 56 60 64 69 74 79 84 91 97 104 111
119 128 137 147 158 169 181 194 208 223 239 256 274 294 315 338 362
388 416 446 478 512 549 588 630 676 724 776 832 891 955 1024 1097 1176
1261 1351 1448 1552 1663 1783 1911 2048 2195 2353 2521 2702 2896 3014
3327 3566 3822 4096 4390 4705 5043 5405 5793 6208 6654 7132 7643 8192
8780 9410 10086 10809 11585 12417 13308 14263 15287 16384 17560 18820
20171 21619 23170 24834 26616 28526 30574 32768 35120 37641 40342 43238
;
#X obj 16 304 tabset \$0-k2Map;
#X connect 1 0 2 0;
#X connect 2 0 3 0;
#X restore 154 108 pd maps;
#X floatatom 262 139 6 0 1e+07 0 samp: #0-inInitSamps #0-outInitSamps
;
#X obj 262 129 bng 8 250 50 0 \$0-learnSamps \$0-nothing empty 17 7
0 10 -228856 -1 -1;
#X floatatom 372 139 6 0 100000 0 Â± #0-inJumpSamps #0-outJumpSamps
;
#X obj 372 129 bng 8 250 50 0 \$0-learnSampsJump \$0-nothing empty
17 7 0 10 -228856 -1 -1;
#X text 259 111 INIT;
#X floatatom 304 139 6 0 0 0 - #0-visSamps #0-nothing2;
#X text 369 110 MAX.STEP;
#X floatatom 414 139 6 0 0 0 - #0-visSampsMax #0-nothing2;
