#N canvas 369 22 357 591 10;
#X obj 149 61 unpack 0 0 0;
#X obj 100 161 - 0;
#X obj 184 342 line 0 5;
#X obj 164 255 f;
#X obj 194 255 f;
#X obj 184 364 expr pow($f1 \, $f2);
#X msg 164 318 1 \, 0 \$1;
#X obj 32 273 s \$0-range;
#X obj 32 229 abs;
#X obj 61 230 -;
#X obj 96 124 t f f f;
#X obj 61 251 s \$0-oldValue;
#X obj 209 411 r \$0-newValue;
#X obj 209 475 minmax;
#X obj 209 453 pack;
#X obj 7 123 s \$0-newValue;
#X obj 230 432 r \$0-oldValue;
#X obj 199 387 r \$0-range;
#X obj 184 525 + 0;
#X obj 184 411 * 0;
#X obj 184 546 outlet;
#X obj 140 7 inlet;
#X obj 149 36 pack 0 0 0;
#X obj 177 7 inlet;
#X obj 215 7 inlet;
#X obj 100 190 expr if($f1 < 0 \, -1 \, if($f1 > 0 \, 1 \, 0));
#X obj 100 214 sel -1 0 1;
#X obj 224 255 f;
#X msg 224 276 0 \, 1 \$1;
#X msg 194 296 1;
#X obj 209 498 t b f;
#X connect 0 0 10 0;
#X connect 0 0 15 0;
#X connect 0 1 3 1;
#X connect 0 1 4 1;
#X connect 0 1 27 1;
#X connect 0 2 5 1;
#X connect 1 0 8 0;
#X connect 1 0 9 1;
#X connect 1 0 25 0;
#X connect 2 0 5 0;
#X connect 3 0 6 0;
#X connect 4 0 29 0;
#X connect 5 0 19 0;
#X connect 6 0 2 0;
#X connect 8 0 7 0;
#X connect 9 0 11 0;
#X connect 10 0 9 0;
#X connect 10 1 1 1;
#X connect 10 2 1 0;
#X connect 12 0 14 0;
#X connect 13 0 30 0;
#X connect 14 0 13 0;
#X connect 16 0 14 1;
#X connect 17 0 19 1;
#X connect 18 0 20 0;
#X connect 19 0 18 0;
#X connect 21 0 22 0;
#X connect 22 0 0 0;
#X connect 23 0 22 1;
#X connect 24 0 22 2;
#X connect 25 0 26 0;
#X connect 26 0 3 0;
#X connect 26 1 4 0;
#X connect 26 2 27 0;
#X connect 27 0 28 0;
#X connect 28 0 2 0;
#X connect 29 0 2 0;
#X connect 30 0 18 0;
#X connect 30 1 18 1;
