#N canvas 11 22 294 204 10;
#X msg 24 85 1;
#X obj 24 105 /;
#X obj 24 65 t b f;
#X obj 10 125 pow;
#X obj 1 4 inlet;
#X obj 39 4 inlet;
#X text 88 6 n root of a number;
#X obj 10 146 outlet;
#X obj 1 24 t f b;
#X obj 24 44 \$1;
#X text 1 170 angel faraldo 6;
#X connect 0 0 1 0;
#X connect 1 0 3 1;
#X connect 2 0 0 0;
#X connect 2 1 1 1;
#X connect 3 0 7 0;
#X connect 4 0 8 0;
#X connect 5 0 9 1;
#X connect 8 0 3 0;
#X connect 8 1 9 0;
#X connect 9 0 2 0;
