#N canvas 258 -768 480 782 10;
#X obj 12 22 inlet;
#X obj 96 601 expr pow($f1 \, $f2);
#X obj 201 22 inlet;
#X obj 160 430 /;
#X obj 126 408 pow;
#X msg 160 409 1 \$1;
#X obj 201 384 \$3;
#X text 227 73 \$1: range minimun value;
#X text 227 93 \$2: range maximun value;
#X text 227 113 \$3: curve factor;
#X text 226 50 arguments:;
#X obj 65 59 \$1;
#X obj 106 59 \$2;
#X obj 93 128 minmax;
#X obj 78 221 -;
#X obj 96 264 /;
#X obj 96 22 inlet;
#X obj 55 22 inlet;
#X obj 93 107 pack;
#X obj 111 221 -;
#X obj 106 81 t b f;
#X obj 111 242 abs;
#X obj 22 175 clip \$1 \$2;
#X obj 215 636 *;
#X obj 241 661 +;
#X obj 241 683 outlet;
#X obj 256 305 f;
#X obj 230 329 f;
#X obj 144 22 loadbang;
#X obj 22 58 unpack;
#X obj 96 577 line 0 5;
#X obj -6 175 f;
#X obj 96 493 pack 0 0 0;
#X msg 96 555 \$2 \, \$1 \$3;
#X obj 96 355 t f b;
#X obj 96 461 t f f;
#X obj 52 649 PRINT;
#X floatatom 7 318 5 0 0 0 - - -;
#X floatatom 160 453 5 0 0 0 - - -;
#X floatatom 46 474 5 0 0 0 - - -;
#X floatatom 138 350 5 0 0 0 - - -;
#X obj 101 698 PRINT;
#X obj 264 524 PRINT;
#X text 284 305 (MIN VALUE);
#X floatatom 212 138 5 0 0 0 - - -;
#X text 124 266 (SCALES INPUT IN RANGE 0-1);
#X text 186 433 (MIN VALUE);
#X floatatom 276 352 5 0 0 0 - - -;
#X floatatom 273 434 5 0 0 0 - - -;
#X text 265 613 LINE SIEMPRE TIENE QUE IR DE 0 A 1...;
#X connect 0 0 29 0;
#X connect 1 0 23 0;
#X connect 1 0 36 0;
#X connect 2 0 6 0;
#X connect 3 0 4 1;
#X connect 3 0 38 0;
#X connect 4 0 39 0;
#X connect 5 0 3 0;
#X connect 6 0 5 0;
#X connect 6 0 1 1;
#X connect 11 0 18 0;
#X connect 12 0 20 0;
#X connect 13 0 19 0;
#X connect 13 0 14 1;
#X connect 13 0 22 1;
#X connect 13 0 26 0;
#X connect 13 1 19 1;
#X connect 13 1 22 2;
#X connect 14 0 15 0;
#X connect 15 0 34 0;
#X connect 15 0 40 0;
#X connect 16 0 12 0;
#X connect 17 0 11 0;
#X connect 18 0 13 0;
#X connect 19 0 21 0;
#X connect 20 0 18 0;
#X connect 20 1 18 1;
#X connect 21 0 15 1;
#X connect 21 0 27 0;
#X connect 22 0 14 0;
#X connect 22 0 37 0;
#X connect 23 0 24 0;
#X connect 24 0 25 0;
#X connect 24 0 41 0;
#X connect 26 0 24 1;
#X connect 26 0 47 0;
#X connect 27 0 23 1;
#X connect 27 0 48 0;
#X connect 28 0 12 0;
#X connect 28 0 11 0;
#X connect 29 0 22 0;
#X connect 29 1 31 0;
#X connect 30 0 1 0;
#X connect 31 0 32 2;
#X connect 32 0 33 0;
#X connect 32 0 42 0;
#X connect 33 0 30 0;
#X connect 34 0 4 0;
#X connect 34 0 35 0;
#X connect 34 1 6 0;
#X connect 35 0 32 1;
#X connect 35 1 32 0;
#X connect 44 0 29 0;
