#N canvas 311 87 831 587 10;
#X obj 193 39 inlet;
#X obj 528 533 outlet;
#X obj 528 511 expr pow($f1 \, $f2);
#X obj 615 336 inlet;
#X obj 543 468 /;
#X obj 528 489 pow;
#X obj 528 368 t f b;
#X msg 543 447 1 \$1;
#X text 592 403 curve factor;
#X floatatom 40 40 5 0 0 0 - - -;
#X floatatom 469 540 5 0 0 0 - - -;
#X obj 564 403 \$3;
#X text 583 50 \$1: range minimun value;
#X text 583 70 \$2: range maximun value;
#X text 583 90 \$3: curve factor;
#X text 582 27 arguments:;
#X obj 333 101 \$1;
#X obj 363 101 \$2;
#X obj 333 17 loadbang;
#X obj 391 186 -;
#X obj 395 162 t b f;
#X obj 391 206 abs;
#X floatatom 391 230 5 0 0 0 - - -;
#X obj 497 174 minmax;
#X floatatom 151 104 5 0 0 0 - - -;
#X obj 142 181 -;
#X obj 193 192 clip \$1 \$2;
#X floatatom 261 353 5 0 0 0 - - -;
#X floatatom 148 267 5 0 0 0 - - -;
#X obj 243 288 /;
#X obj 595 249 s \$0-min;
#X obj 595 279 s \$0-max;
#X obj 434 55 inlet;
#X obj 394 55 inlet;
#X floatatom 411 109 5 0 0 0 - - -;
#X floatatom 347 188 5 0 0 0 - - -;
#X obj 498 151 pack;
#X floatatom 530 203 5 0 0 0 - - -;
#X floatatom 492 204 5 0 0 0 - - -;
#X obj 502 239 -;
#X floatatom 508 274 5 0 0 0 - - -;
#X obj 493 112 t b f;
#X connect 0 0 24 0;
#X connect 2 0 1 0;
#X connect 3 0 2 1;
#X connect 3 0 11 1;
#X connect 4 0 5 1;
#X connect 5 0 2 0;
#X connect 5 0 10 0;
#X connect 6 0 5 0;
#X connect 6 1 11 0;
#X connect 7 0 4 0;
#X connect 11 0 7 0;
#X connect 11 0 2 1;
#X connect 16 0 19 0;
#X connect 16 0 25 1;
#X connect 16 0 35 0;
#X connect 16 0 36 0;
#X connect 16 0 26 1;
#X connect 17 0 20 0;
#X connect 17 0 34 0;
#X connect 17 0 41 0;
#X connect 17 0 26 2;
#X connect 18 0 16 0;
#X connect 18 0 17 0;
#X connect 19 0 21 0;
#X connect 20 0 19 0;
#X connect 20 1 19 1;
#X connect 21 0 22 0;
#X connect 21 0 29 1;
#X connect 23 0 38 0;
#X connect 23 1 37 0;
#X connect 24 0 25 0;
#X connect 25 0 26 0;
#X connect 26 0 29 0;
#X connect 29 0 27 0;
#X connect 32 0 17 0;
#X connect 33 0 16 0;
#X connect 36 0 23 0;
#X connect 37 0 39 1;
#X connect 38 0 39 0;
#X connect 39 0 40 0;
#X connect 41 0 36 0;
#X connect 41 1 36 1;
