#N canvas 61 22 836 651 10;
#X obj 39 289 qlist;
#X msg 57 139 rewind;
#X msg 56 164 next;
#X msg 42 75 bang;
#X obj 66 313 print done;
#X text 238 68 sequence automatically;
#X text 240 99 set relative tempo;
#X text 238 125 go to beginning (and stop);
#X text 238 152 single-step forward;
#X text 188 262 read a file;
#X text 51 451 This outlet gets a list of leading numbers for the next
message \, for you to use in designing your own sequencer.;
#X text 146 302 This outlet gets a bang when you hit the end of the
sequence. In the file "qlist.txt" the end is delayed 1000 milliseconds
after the last message.;
#X text 238 178 single-step forward SUPRESSING MESSAGE-SENDING;
#X msg 56 190 next 1;
#X msg 32 50 print;
#X text 237 48 print contents to Pd window;
#X msg 61 263 read ./qlist.txt;
#X obj 40 428 PRINT;
#X obj 600 133 r a;
#X floatatom 75 372 5 0 0 0 - - -;
#X obj 514 73 metro 1000;
#X obj 577 197 bng 15 250 50 0 empty empty empty 17 7 0 10 -262144
-1 -1;
#X obj 600 197 random 1000;
#X floatatom 600 220 5 0 0 0 - - -;
#X obj 680 197 random 1000;
#X floatatom 680 220 5 0 0 0 - - -;
#X obj 760 197 random 1000;
#X floatatom 760 220 5 0 0 0 - - -;
#X obj 760 133 r c;
#X obj 680 133 r b;
#X obj 668 400 r curve;
#X obj 563 423 expr pow($f1 \, $f2);
#X floatatom 573 448 5 0 0 0 - - -;
#X obj 563 397 line 0 20;
#X floatatom 625 162 5 0 0 0 - - -;
#X floatatom 689 160 5 0 0 0 - - -;
#X floatatom 779 162 5 0 0 0 - - -;
#X obj 91 583 textfile;
#X msg 58 109 tempo \$1;
#X floatatom 130 60 5 0 0 0 - - -;
#X obj 613 67 r lista;
#X obj 618 96 PRINT;
#X obj 563 374 r d;
#X obj 531 608 bng 15 250 50 0 empty empty empty 17 7 0 10 -262144
-1 -1;
#X obj 613 294 RPIT;
#X obj 567 546 r a;
#X obj 638 583 print;
#X connect 0 0 17 0;
#X connect 0 0 19 0;
#X connect 0 1 4 0;
#X connect 1 0 0 0;
#X connect 2 0 0 0;
#X connect 3 0 0 0;
#X connect 3 0 20 0;
#X connect 13 0 0 0;
#X connect 14 0 0 0;
#X connect 16 0 0 0;
#X connect 18 0 22 0;
#X connect 18 0 34 0;
#X connect 20 0 21 0;
#X connect 22 0 23 0;
#X connect 24 0 25 0;
#X connect 26 0 27 0;
#X connect 28 0 26 0;
#X connect 28 0 36 0;
#X connect 29 0 24 0;
#X connect 29 0 35 0;
#X connect 30 0 31 1;
#X connect 31 0 32 0;
#X connect 33 0 31 0;
#X connect 38 0 0 0;
#X connect 39 0 38 0;
#X connect 40 0 41 0;
#X connect 42 0 33 0;
#X connect 45 0 46 0;
