#N canvas 6 22 1274 737 10;
#X obj 19 219 qlist;
#X msg 47 104 rewind;
#X msg 46 129 next;
#X msg 19 48 bang;
#X obj 46 241 print done;
#X text 64 42 sequence automatically;
#X msg 46 155 next 1;
#X msg 19 23 print;
#X msg 41 192 read ./qlist.txt;
#X msg 48 74 tempo 1;
#X obj 248 43 r d;
#N canvas 0 22 450 300 (subpatch) 0;
#X array plotLin 2000 float 0;
#X coords 0 100 1999 0 800 140 1;
#X restore 25 588 graph;
#X obj 337 262 tabwrite plot;
#X obj 382 217 f 0;
#X obj 412 217 + 1;
#X obj 337 240 pack 0 0;
#X msg 437 170 0;
#X obj 337 217 f;
#X obj 365 184 t b b;
#X obj 410 150 metro 5;
#X obj 410 127 t f b;
#X obj 410 104 r metroPlot;
#X obj 233 262 tabwrite plotLin;
#X obj 233 240 pack 0 0;
#X obj 233 217 f;
#X obj 248 80 line 0 5;
#X floatatom 362 109 5 0 0 0 - - -;
#X floatatom 352 13 5 0 0 0 - - -;
#X obj 352 53 pack;
#X floatatom 373 33 5 0 0 0 - - -;
#X obj 1373 321 r curve;
#X obj 1352 528 expr pow($f1 \, $f2);
#X obj 1260 307 r d;
#X floatatom 1362 553 5 0 0 0 - - -;
#X obj 1361 716 tabwrite plot;
#X obj 1406 671 f 0;
#X obj 1436 671 + 1;
#X obj 1361 694 pack 0 0;
#X msg 1451 624 0;
#X obj 1361 671 f;
#X obj 1379 638 t b b;
#X obj 1424 604 metro 5;
#X obj 1424 581 t f b;
#X obj 1352 459 n_rt;
#X floatatom 1281 336 5 0 0 0 - - -;
#X obj 1350 501 line 0 5;
#X obj 1275 355 unpack;
#X obj 1424 558 r metroPlot;
#X obj 1248 722 tabwrite plotLin;
#X obj 1248 700 pack 0 0;
#X obj 1248 677 f;
#X obj 1263 554 line 0 5;
#X floatatom 1454 377 5 0 0 0 - - -;
#X floatatom 1300 503 5 0 0 0 - - -;
#X floatatom 1355 368 5 0 0 0 - - -;
#X obj 352 79 scaleCurve 0 1 2;
#X msg 568 111 \; plot const 0 \; plotLin const 0;
#X obj 445 43 r curve;
#N canvas 0 22 450 300 (subpatch) 0;
#X array plot 2000 float 0;
#X coords 0 100 1999 0 800 140 1;
#X restore 25 407 graph;
#X connect 0 1 4 0;
#X connect 1 0 0 0;
#X connect 2 0 0 0;
#X connect 3 0 0 0;
#X connect 6 0 0 0;
#X connect 7 0 0 0;
#X connect 8 0 0 0;
#X connect 9 0 0 0;
#X connect 10 0 25 0;
#X connect 10 0 55 0;
#X connect 13 0 14 0;
#X connect 13 0 15 1;
#X connect 13 0 23 1;
#X connect 14 0 13 1;
#X connect 15 0 12 0;
#X connect 16 0 13 1;
#X connect 17 0 15 0;
#X connect 18 0 17 0;
#X connect 18 0 24 0;
#X connect 18 1 13 0;
#X connect 19 0 18 0;
#X connect 20 0 19 0;
#X connect 20 1 16 0;
#X connect 21 0 20 0;
#X connect 23 0 22 0;
#X connect 24 0 23 0;
#X connect 25 0 24 1;
#X connect 27 0 28 0;
#X connect 28 0 55 0;
#X connect 29 0 28 1;
#X connect 30 0 43 1;
#X connect 31 0 33 0;
#X connect 31 0 39 1;
#X connect 32 0 44 0;
#X connect 32 0 46 0;
#X connect 32 0 51 0;
#X connect 35 0 36 0;
#X connect 35 0 37 1;
#X connect 35 0 49 1;
#X connect 36 0 35 1;
#X connect 37 0 34 0;
#X connect 38 0 35 1;
#X connect 39 0 37 0;
#X connect 40 0 39 0;
#X connect 40 0 50 0;
#X connect 40 1 35 0;
#X connect 41 0 40 0;
#X connect 42 0 41 0;
#X connect 42 1 38 0;
#X connect 43 0 45 0;
#X connect 43 0 53 0;
#X connect 45 0 31 0;
#X connect 46 0 43 0;
#X connect 46 1 45 1;
#X connect 47 0 42 0;
#X connect 49 0 48 0;
#X connect 50 0 49 0;
#X connect 51 0 50 1;
#X connect 52 0 31 1;
#X connect 52 0 43 1;
#X connect 54 0 43 0;
#X connect 55 0 26 0;
#X connect 55 0 17 1;
#X connect 57 0 55 3;
