#N canvas 10 22 969 664 10;
#X obj 19 219 qlist;
#X msg 47 104 rewind;
#X msg 46 129 next;
#X msg 19 48 bang;
#X obj 46 241 print done;
#X text 64 42 sequence automatically;
#X text 105 73 set relative tempo;
#X text 103 99 go to beginning (and stop);
#X text 103 126 single-step forward;
#X text 168 192 read a file;
#X text 30 287 This outlet gets a list of leading numbers for the next
message \, for you to use in designing your own sequencer.;
#X text 126 230 This outlet gets a bang when you hit the end of the
sequence. In the file "qlist.txt" the end is delayed 1000 milliseconds
after the last message.;
#X text 103 152 single-step forward SUPRESSING MESSAGE-SENDING;
#X msg 46 155 next 1;
#X msg 19 23 print;
#X text 63 22 print contents to Pd window;
#X msg 41 192 read ./qlist.txt;
#X obj 19 264 PRINT;
#X msg 48 74 tempo 1;
#N canvas 0 22 450 300 (subpatch) 0;
#X array plot 2000 float 0;
#X coords 0 1 1999 -1 800 140 1;
#X restore 25 498 graph;
#X obj 515 381 tabwrite plot;
#X obj 560 336 f 0;
#X obj 590 336 + 1;
#X obj 515 359 pack 0 0;
#X obj 578 223 r plot;
#X msg 605 289 0;
#X obj 515 336 f;
#X obj 533 303 t b b;
#X floatatom 648 268 5 0 0 0 - - -;
#X obj 578 269 metro 5;
#X obj 578 246 t f b;
#X obj 762 69 r d;
#X obj 787 368 tabwrite plot;
#X obj 832 323 f 0;
#X obj 862 323 + 1;
#X obj 787 346 pack 0 0;
#X obj 850 210 r plot;
#X msg 877 276 0;
#X obj 787 323 f;
#X obj 815 280 t b b;
#X obj 850 256 metro 5;
#X obj 762 132 line 0 5;
#X obj 850 233 t f b;
#X obj 855 157 r curve;
#X floatatom 795 216 5 0 0 0 - - -;
#X floatatom 774 158 5 0 0 0 - - -;
#X floatatom 867 183 5 0 0 0 - - -;
#X floatatom 788 107 5 0 0 0 - - -;
#X obj 762 180 scaleCurve 0 1 1;
#X obj 565 121 expr pow($f1 \, $f2);
#X floatatom 575 146 5 0 0 0 - - -;
#X obj 586 68 r curve;
#X obj 565 89 n_rt;
#X obj 498 178 r d;
#X obj 498 200 line 0 5;
#X connect 0 0 17 0;
#X connect 0 1 4 0;
#X connect 1 0 0 0;
#X connect 2 0 0 0;
#X connect 3 0 0 0;
#X connect 13 0 0 0;
#X connect 14 0 0 0;
#X connect 16 0 0 0;
#X connect 18 0 0 0;
#X connect 21 0 22 0;
#X connect 21 0 23 1;
#X connect 22 0 21 1;
#X connect 23 0 20 0;
#X connect 24 0 28 0;
#X connect 24 0 30 0;
#X connect 25 0 21 1;
#X connect 26 0 23 0;
#X connect 27 0 26 0;
#X connect 27 1 21 0;
#X connect 29 0 27 0;
#X connect 30 0 29 0;
#X connect 30 1 25 0;
#X connect 31 0 41 0;
#X connect 31 0 47 0;
#X connect 33 0 34 0;
#X connect 33 0 35 1;
#X connect 34 0 33 1;
#X connect 35 0 32 0;
#X connect 36 0 42 0;
#X connect 37 0 33 1;
#X connect 38 0 35 0;
#X connect 39 0 38 0;
#X connect 39 1 33 0;
#X connect 40 0 39 0;
#X connect 41 0 45 0;
#X connect 41 0 48 0;
#X connect 42 0 40 0;
#X connect 42 1 37 0;
#X connect 43 0 46 0;
#X connect 43 0 48 3;
#X connect 48 0 38 1;
#X connect 48 0 44 0;
#X connect 49 0 50 0;
#X connect 51 0 52 1;
#X connect 53 0 54 0;
#X connect 54 0 26 1;
