#N canvas 215 22 844 631 10;
#X obj 19 209 qlist;
#X msg 47 94 rewind;
#X msg 46 119 next;
#X msg 19 38 bang;
#X obj 46 231 print done;
#X msg 46 145 next 1;
#N canvas 0 22 450 300 (subpatch) 0;
#X array plotLin 2000 float 0;
#X coords 0 100 1999 0 800 140 1;
#X restore 19 288 graph;
#X obj 337 252 tabwrite plot;
#X obj 382 207 f 0;
#X obj 412 207 + 1;
#X obj 337 230 pack 0 0;
#X msg 437 160 0;
#X obj 337 207 f;
#X obj 365 174 t b b;
#X obj 410 140 metro 5;
#X obj 410 117 t f b;
#X obj 410 94 r metroPlot;
#X obj 233 252 tabwrite plotLin;
#X obj 233 230 pack 0 0;
#X obj 233 207 f;
#X obj 248 70 line 0 5;
#X msg 568 101 \; plot const 0 \; plotLin const 0;
#N canvas 0 22 450 300 (subpatch) 0;
#X array plot 2000 float 0;
#X coords 0 100 1999 0 800 140 1;
#X restore 19 288 graph;
#X obj 248 33 r param;
#X msg 41 182 read ./qlist2.txt;
#X obj 312 70 line.c;
#X msg 108 79 tempo 10;
#X msg 48 64 tempo 1;
#X msg 107 157 read ./qlist3.txt;
#X connect 0 1 4 0;
#X connect 1 0 0 0;
#X connect 2 0 0 0;
#X connect 3 0 0 0;
#X connect 5 0 0 0;
#X connect 8 0 9 0;
#X connect 8 0 10 1;
#X connect 8 0 18 1;
#X connect 9 0 8 1;
#X connect 10 0 7 0;
#X connect 11 0 8 1;
#X connect 12 0 10 0;
#X connect 13 0 12 0;
#X connect 13 0 19 0;
#X connect 13 1 8 0;
#X connect 14 0 13 0;
#X connect 15 0 14 0;
#X connect 15 1 11 0;
#X connect 16 0 15 0;
#X connect 18 0 17 0;
#X connect 19 0 18 0;
#X connect 20 0 19 1;
#X connect 23 0 20 0;
#X connect 23 0 25 0;
#X connect 24 0 0 0;
#X connect 25 0 12 1;
#X connect 26 0 0 0;
#X connect 27 0 0 0;
#X connect 28 0 0 0;
