#N canvas 10 22 969 664 10;
#X obj 19 219 qlist;
#X msg 47 104 rewind;
#X msg 46 129 next;
#X msg 19 48 bang;
#X obj 46 241 print done;
#X text 64 42 sequence automatically;
#X text 105 73 set relative tempo;
#X text 103 99 go to beginning (and stop);
#X text 103 126 single-step forward;
#X text 168 192 read a file;
#X text 30 287 This outlet gets a list of leading numbers for the next
message \, for you to use in designing your own sequencer.;
#X text 126 230 This outlet gets a bang when you hit the end of the
sequence. In the file "qlist.txt" the end is delayed 1000 milliseconds
after the last message.;
#X text 103 152 single-step forward SUPRESSING MESSAGE-SENDING;
#X msg 46 155 next 1;
#X msg 19 23 print;
#X text 63 22 print contents to Pd window;
#X msg 41 192 read ./qlist.txt;
#X obj 19 264 PRINT;
#N canvas 0 22 450 300 (subpatch) 0;
#X array plot 2000 float 0;
#X coords 0 1 1999 0 800 140 1;
#X restore 25 498 graph;
#X obj 603 114 r d;
#X obj 628 353 tabwrite plot;
#X obj 673 308 f 0;
#X obj 703 308 + 1;
#X obj 628 331 pack 0 0;
#X msg 718 261 0;
#X obj 628 308 f;
#X obj 656 265 t b b;
#X obj 691 241 metro 5;
#X obj 691 218 t f b;
#X obj 696 142 r curve;
#X floatatom 636 201 5 0 0 0 - - -;
#X floatatom 708 168 5 0 0 0 - - -;
#X msg 48 74 tempo 1;
#X obj 398 387 line;
#X msg 404 357 2 \, 3 200;
#X floatatom 406 419 5 0 0 0 - - -;
#X obj 603 165 scaleCurve 0 1 2;
#X obj 67 20;
#X obj 691 195 r metroPlot;
#X connect 0 0 17 0;
#X connect 0 1 4 0;
#X connect 1 0 0 0;
#X connect 2 0 0 0;
#X connect 3 0 0 0;
#X connect 13 0 0 0;
#X connect 14 0 0 0;
#X connect 16 0 0 0;
#X connect 19 0 36 0;
#X connect 21 0 22 0;
#X connect 21 0 23 1;
#X connect 22 0 21 1;
#X connect 23 0 20 0;
#X connect 24 0 21 1;
#X connect 25 0 23 0;
#X connect 26 0 25 0;
#X connect 26 1 21 0;
#X connect 27 0 26 0;
#X connect 28 0 27 0;
#X connect 28 1 24 0;
#X connect 29 0 31 0;
#X connect 29 0 36 3;
#X connect 32 0 0 0;
#X connect 33 0 35 0;
#X connect 34 0 33 0;
#X connect 36 0 25 1;
#X connect 36 0 30 0;
#X connect 38 0 28 0;
