#N canvas 280 278 376 516 12;
#X floatatom 35 101 5 0 0 0 - - -;
#X obj 35 122 send freq;
#X obj 26 310 catch~ sum_sines;
#X obj 51 398 line~;
#X obj 26 433 *~, f 4;
#X obj 20 463 dac~;
#X obj 166 28 harmonic 1;
#X msg 52 368 0.1 100;
#X obj 165 72 harmonic 3;
#X obj 165 118 harmonic 4;
#X obj 165 162 harmonic 5;
#X obj 165 208 harmonic 6;
#X obj 165 253 harmonic 7;
#X obj 55 344 hsl 128 15 0 1 0 0 empty empty empty -2 -8 0 10 -262144
-1 -1 6900 1;
#X obj 36 78 mtof;
#X msg 36 54 60;
#X obj 37 32 loadbang;
#X connect 0 0 1 0;
#X connect 2 0 4 0;
#X connect 3 0 4 1;
#X connect 4 0 5 0;
#X connect 4 0 5 1;
#X connect 7 0 3 0;
#X connect 13 0 7 0;
#X connect 14 0 0 0;
#X connect 15 0 14 0;
#X connect 16 0 15 0;
