#N canvas 201 66 465 331 12;
#X obj 159 25 receive freq;
#X obj 159 246 throw~ sum_sines;
#X obj 159 51 * \$1;
#X obj 177 196 line~;
#X msg 177 171 \$1 100;
#X obj 159 221 *~;
#X obj 236 119 hsl 128 15 0 1 0 0 empty empty empty -2 -8 0 10 -261234
-1 -1 0 1;
#X obj 159 76 osc~ 0;
#X obj 233 51 r r_amps;
#X obj 233 76 route \$1;
#X obj 16 25 r vis_fundamental;
#X obj 35 196 line~;
#X msg 35 171 \$1 100;
#X obj 17 221 *~;
#X obj 16 51 * \$1;
#X obj 17 246 throw~ vis_sum;
#X obj 55 51 r zero_phase;
#X obj 16 76 osc~, f 6;
#X connect 0 0 2 0;
#X connect 2 0 7 0;
#X connect 3 0 5 1;
#X connect 4 0 3 0;
#X connect 5 0 1 0;
#X connect 6 0 4 0;
#X connect 6 0 12 0;
#X connect 7 0 5 0;
#X connect 8 0 9 0;
#X connect 9 0 6 0;
#X connect 10 0 14 0;
#X connect 11 0 13 1;
#X connect 12 0 11 0;
#X connect 13 0 15 0;
#X connect 14 0 17 0;
#X connect 16 0 17 1;
#X connect 17 0 13 0;
#X coords 0 -1 1 1 160 40 1 220 100;
