#N canvas 201 66 298 389 12;
#X obj 40 25 receive freq;
#X obj 39 277 throw~ sum_sines;
#X obj 39 51 * \$1;
#X obj 57 226 line~;
#X msg 57 201 \$1 100;
#X obj 39 251 *~;
#X obj 116 119 hsl 128 15 0 1 0 0 empty empty empty -2 -8 0 10 -262144
-1 -1 0 1;
#X obj 39 76 osc~ 0;
#X connect 0 0 2 0;
#X connect 2 0 7 0;
#X connect 3 0 5 1;
#X connect 4 0 3 0;
#X connect 5 0 1 0;
#X connect 6 0 4 0;
#X connect 7 0 5 0;
#X coords 0 -1 1 1 160 40 1 100 100;
