#N canvas 49 23 860 675 10;
#X obj 95 23 inlet;
#X obj 32 23 inlet~;
#X obj 95 89 s \$1-windowSize;
#X obj 105 46 loadbang;
#X obj 105 67 f 300;
#X obj 32 45 s~ in-\$1;
#X obj 25 278 cnv 15 280 200 empty empty empty 20 12 0 14 -261682 -66577
0;
#X obj 306 278 cnv 15 280 200 empty empty empty 20 12 0 14 -203904
-66577 0;
#X obj 49 365 samphold~;
#X obj 95 392 +~;
#X obj 231 321 cos~;
#X obj 231 343 *~ -0.5;
#X obj 231 364 +~ 0.5;
#X obj 95 413 tabread4~ \$1-file;
#X obj 139 204 phasor~ 10;
#X obj 110 365 *~;
#X obj 216 444 *~;
#X msg 139 157 1000 \$1;
#X obj 139 180 /;
#X obj 139 134 r \$1-windowSize;
#X obj 125 344 * 44.1;
#X obj 125 321 r \$1-windowSize;
#X obj 349 365 samphold~;
#X obj 395 392 +~;
#X obj 531 321 cos~;
#X obj 531 343 *~ -0.5;
#X obj 531 364 +~ 0.5;
#X obj 395 413 tabread4~ \$1-file;
#X obj 410 365 *~;
#X obj 516 444 *~;
#X obj 425 344 * 44.1;
#X obj 425 321 r \$1-windowSize;
#X obj 353 534 +~;
#X obj 353 556 outlet~;
#X obj 423 221 +~ 0.5;
#X obj 423 243 wrap~;
#X obj 49 320 r~ in-\$1;
#X obj 349 321 r~ in-\$1;
#X text 245 285 two identical copies...;
#X obj 473 220 cnv 15 360 40 empty empty empty 20 12 0 14 -204786 -66577
0;
#X text 483 224 we shift the phase 180 degrees... \, but don't worry
if you don't understand what that means!;
#X obj 195 56 cnv 15 360 50 empty empty empty 20 12 0 14 -204786 -66577
0;
#X text 203 60 the window size is the size of the chunk we are using
to loop through the original file. experiment with different sizes
since they have a considerable effect on the audio.;
#X connect 0 0 2 0;
#X connect 1 0 5 0;
#X connect 3 0 4 0;
#X connect 4 0 2 0;
#X connect 8 0 9 0;
#X connect 9 0 13 0;
#X connect 10 0 11 0;
#X connect 11 0 12 0;
#X connect 12 0 16 1;
#X connect 13 0 16 0;
#X connect 14 0 8 1;
#X connect 14 0 10 0;
#X connect 14 0 15 0;
#X connect 14 0 34 0;
#X connect 15 0 9 1;
#X connect 16 0 32 0;
#X connect 17 0 18 0;
#X connect 18 0 14 0;
#X connect 19 0 17 0;
#X connect 20 0 15 1;
#X connect 21 0 20 0;
#X connect 22 0 23 0;
#X connect 23 0 27 0;
#X connect 24 0 25 0;
#X connect 25 0 26 0;
#X connect 26 0 29 1;
#X connect 27 0 29 0;
#X connect 28 0 23 1;
#X connect 29 0 32 1;
#X connect 30 0 28 1;
#X connect 31 0 30 0;
#X connect 32 0 33 0;
#X connect 34 0 35 0;
#X connect 35 0 28 0;
#X connect 35 0 22 1;
#X connect 35 0 24 0;
#X connect 36 0 8 0;
#X connect 37 0 22 0;
