#N canvas 931 22 509 820 10;
#X obj 10 583 dac~;
#X obj 22 525 *~;
#X obj 34 505 line~;
#X msg 34 484 \$1 30;
#X obj 22 547 hip~ 5;
#X obj 34 350 vsl 15 128 0 1 0 0 empty empty vol. 0 -9 0 10 -262144
-1 -1 0 0;
#N canvas 0 22 395 241 hanning-window_calculation 1;
#N canvas 0 22 454 304 (subpatch) 0;
#X array hanning 1024 float 2;
#X coords 0 1 1024 0 200 140 1;
#X restore 148 41 graph;
#X obj 15 73 osc~;
#X msg 34 51 0;
#X obj 8 136 tabwrite~ hanning;
#X obj 15 94 *~ -0.5;
#X obj 15 115 +~ 0.5;
#X obj 8 5 loadbang;
#X obj 84 5 bng 15 250 50 0 empty empty empty 17 7 0 10 -262144 -1
-1;
#X obj 15 31 expr 44100/1024;
#X msg 0 157 \; pd dsp 1;
#X connect 1 0 4 0;
#X connect 2 0 1 1;
#X connect 4 0 5 0;
#X connect 5 0 3 0;
#X connect 6 0 2 0;
#X connect 6 0 3 0;
#X connect 6 0 8 0;
#X connect 6 0 9 0;
#X connect 7 0 2 0;
#X connect 7 0 3 0;
#X connect 7 0 8 0;
#X connect 8 0 1 0;
#X restore 10 -21 pd hanning-window_calculation;
#N canvas 799 23 407 445 fast-fourier-transform_analysis_window 0;
#X obj 28 23 inlet~;
#X obj 28 410 outlet~;
#X obj 28 77 rfft~;
#X obj 28 56 *~;
#X obj 28 348 rifft~;
#X obj 28 389 *~;
#X obj 43 368 tabreceive~ hanning;
#X obj 198 14 tabreceive~ hanning;
#X obj 252 33 inlet~;
#X obj 237 76 rfft~;
#X obj 237 55 *~;
#X obj 66 147 tabreceive~ Spectrum;
#X obj 234 107 *~;
#X obj 240 138 +~;
#X obj 261 107 *~;
#X obj 240 161 sqrt~;
#X obj 240 186 tabsend~ Spectrum;
#X obj 262 281 table Spectrum 512;
#X obj 82 410 block~ 1024 16;
#X floatatom 100 182 5 0 0 0 - - -;
#X obj 61 328 *~;
#X obj 28 327 *~;
#X obj 66 202 *~ 0.0001;
#X connect 0 0 3 0;
#X connect 2 0 21 0;
#X connect 2 1 20 0;
#X connect 3 0 2 0;
#X connect 4 0 5 0;
#X connect 5 0 1 0;
#X connect 6 0 5 1;
#X connect 7 0 3 1;
#X connect 7 0 10 0;
#X connect 8 0 10 1;
#X connect 9 0 12 0;
#X connect 9 0 12 1;
#X connect 9 1 14 0;
#X connect 9 1 14 1;
#X connect 10 0 9 0;
#X connect 11 0 22 0;
#X connect 12 0 13 0;
#X connect 13 0 15 0;
#X connect 14 0 13 1;
#X connect 15 0 16 0;
#X connect 19 0 22 1;
#X connect 20 0 4 1;
#X connect 21 0 4 0;
#X connect 22 0 20 1;
#X connect 22 0 21 1;
#X restore 21 311 pd fast-fourier-transform_analysis_window;
#X obj 31 42 adc~ 3;
#X obj 223 185 r~ mono;
#X connect 1 0 4 0;
#X connect 2 0 1 1;
#X connect 3 0 2 0;
#X connect 4 0 0 0;
#X connect 4 0 0 1;
#X connect 5 0 3 0;
#X connect 7 0 1 0;
#X connect 8 0 7 0;
#X connect 9 0 7 1;
