#N canvas 361 -761 896 751 10;
#N canvas 965 103 475 645 autocorrelation_2 0;
#X obj 54 22 inlet~;
#X obj 54 105 rfft~;
#X obj 219 147 *~ -1;
#X obj 54 218 *~;
#X obj 104 218 *~;
#X obj 154 218 *~;
#X obj 204 218 *~;
#X obj 76 246 -~;
#X obj 176 246 +~;
#X obj 69 61 tabreceive~ window;
#X obj 54 82 *~;
#X obj 116 283 rifft~;
#X obj 116 306 tabsend~ autocorrelation_2;
#X obj 251 18 block~ 4096 2;
#X connect 0 0 10 0;
#X connect 1 0 5 1;
#X connect 1 0 3 1;
#X connect 1 0 6 0;
#X connect 1 0 3 0;
#X connect 1 1 2 0;
#X connect 1 1 5 0;
#X connect 1 1 4 0;
#X connect 2 0 6 1;
#X connect 2 0 4 1;
#X connect 3 0 7 0;
#X connect 4 0 7 1;
#X connect 5 0 8 0;
#X connect 6 0 8 1;
#X connect 7 0 11 0;
#X connect 8 0 11 1;
#X connect 9 0 10 1;
#X connect 10 0 1 0;
#X connect 11 0 12 0;
#X restore -205 -509 pd autocorrelation_2;
#N canvas 415 358 158 252 hanning_windowing 0;
#X msg 107 74 0;
#X obj 28 124 osc~;
#X obj 28 76 samplerate~;
#X obj 28 147 *~ -0.5;
#X obj 28 170 +~ 0.5;
#X obj 20 53 bng 15 250 50 0 empty empty empty 0 -6 0 8 -262144 -1
-1;
#X obj 20 30 loadbang;
#X obj 20 195 tabwrite~ window;
#X obj 20 2 table window 4096;
#X obj 28 100 / 4096;
#X connect 0 0 1 1;
#X connect 1 0 3 0;
#X connect 2 0 9 0;
#X connect 3 0 4 0;
#X connect 4 0 7 0;
#X connect 5 0 2 0;
#X connect 5 0 0 0;
#X connect 5 0 7 0;
#X connect 6 0 5 0;
#X connect 9 0 1 0;
#X restore -204 -483 pd hanning_windowing;
#N canvas 0 22 450 300 (subpatch) 0;
#X array autocorrelation_2 128 float 0;
#X coords 0 2000 127 -2000 400 280 1;
#X restore -640 -623 graph;
#X obj -169 -432 tabread~ autocorrelation_2;
#X obj -111 -329 tgl 15 0 empty empty empty 17 7 0 10 -262144 -1 -1
1 1;
#X obj -173 -238 snapshot~;
#X obj -111 -301 metro 100;
#X obj -205 -532 adc~ 2;
#X obj -173 -11 nbx 5 52 -1e+37 1e+37 0 0 empty empty empty 0 -8 0
48 -262144 -1 -1 0.000780664 256;
#X obj -173 -215 abs;
#X floatatom -71 -328 5 0 0 0 - - -;
#X obj -169 -454 sig~ 4;
#X obj -162 -73 nbx 5 52 -1e+37 1e+37 0 0 empty empty empty 0 -8 0
48 -262144 -1 -1 0.00206011 256;
#X obj -142 -155 nbx 5 52 -1e+37 1e+37 0 0 empty empty empty 0 -8 0
48 -262144 -1 -1 0.0018555 256;
#X obj -142 -180 average 100;
#X obj -162 -98 average 33;
#X obj -170 -409 fexpr~ ($x1[0] + $x1[-1] + $x1[-2] + $x1[-3] + $x1[-4]
+ $x1[-5] + $x1[-6] + $x1[-7] + $x1[-8] + $x1[-9] + $x1[-10] + $x1[-11]
+ $x1[-12] + $x1[-13] + $x1[-14] + $x1[-15] + $x1[-16] + $x1[-17] +
$x1[-18] + $x1[-19] + $x1[-20] + $x1[-21] + $x1[-22] + $x1[-23]) /
24;
#X connect 3 0 16 0;
#X connect 4 0 6 0;
#X connect 5 0 9 0;
#X connect 6 0 5 0;
#X connect 7 0 0 0;
#X connect 9 0 8 0;
#X connect 9 0 14 0;
#X connect 9 0 15 0;
#X connect 10 0 6 1;
#X connect 11 0 3 0;
#X connect 14 0 13 0;
#X connect 15 0 12 0;
#X connect 16 0 5 0;
