#N canvas 169 24 206 230 10;
#X obj 3 -15 tgl 200 0 recMsg MIDI_recMsg empty 17 7 0 48 -262144 -1
-1 0 127;
#X obj 3 -15 cnv 15 200 200 empty recStatus REC 37 100 0 72 -258113
-66577 0;
#N canvas 359 64 753 696 grabacion 1;
#X obj -33 120 hip~ 5;
#X msg 237 491 open \$1 \, start;
#X msg 246 619 stop;
#X obj 379 109 time;
#X obj 190 78 t b b;
#X obj 323 163 makefilename 0%d;
#X obj 323 140 moses 10;
#X obj 386 213 makefilename 0%d;
#X obj 386 190 moses 10;
#X obj 449 260 makefilename 0%d;
#X obj 449 237 moses 10;
#X obj 72 211 makefilename 0%d;
#X obj 72 188 moses 10;
#X obj 135 261 makefilename 0%d;
#X obj 135 238 moses 10;
#X obj 198 308 makefilename 0%d;
#X obj 198 285 moses 10;
#X obj 72 356 list append;
#X obj 135 333 list append;
#X obj 190 102 date;
#X obj 72 378 list2symbol -;
#X obj 210 402 list append;
#X obj 210 423 list2symbol @;
#X obj 237 645 s recInstr;
#X obj 246 517 r recMsg;
#X obj 246 538 sel 0;
#X obj 204 10 r recMsg;
#X obj 386 285 list append;
#X obj 323 308 list append;
#X obj 323 330 list2symbol ';
#X obj 193 666 s recFades;
#X obj 210 469 t b s;
#X msg 193 519 0 \, 1 50;
#X obj 246 562 t b b;
#X obj 246 595 delay 55;
#X msg 204 596 0 50;
#X obj -44 73 r recInstr;
#X obj -18 143 r recFades;
#X obj -18 168 line~;
#X obj -33 193 *~;
#X obj -44 218 writesf~;
#X obj -44 33 s MIDI_recMsg;
#X obj -44 12 ctlin 44;
#N canvas 467 29 450 300 layout 0;
#X obj 68 12 r recMsg;
#X obj 7 39 metro 500;
#X obj 7 63 tgl 15 0 empty empty empty 17 7 0 10 -262144 -1 -1 0 1
;
#X obj 7 84 sel 0 1;
#X msg 26 106 symbol STOP;
#X msg 7 126 symbol;
#X obj 68 39 sel 0;
#X msg 68 64 \; recStatus label REC \, label_pos 37 100;
#X msg 7 153 \; recStatus label \$1 \, label_pos 17 100;
#X connect 0 0 1 0;
#X connect 0 0 6 0;
#X connect 1 0 2 0;
#X connect 2 0 3 0;
#X connect 3 0 5 0;
#X connect 3 1 4 0;
#X connect 4 0 8 0;
#X connect 5 0 8 0;
#X connect 6 0 7 0;
#X restore -44 53 pd layout;
#X obj 204 53 sel 1;
#X obj 204 31 != 0;
#X obj 210 448 makefilename ./grabacion_%s.wav;
#X obj -33 96 catch~ record;
#X connect 0 0 39 0;
#X connect 1 0 23 0;
#X connect 2 0 23 0;
#X connect 3 0 6 0;
#X connect 3 1 8 0;
#X connect 3 2 10 0;
#X connect 4 0 19 0;
#X connect 4 1 3 0;
#X connect 5 0 28 0;
#X connect 6 0 5 0;
#X connect 6 1 28 0;
#X connect 7 0 27 0;
#X connect 8 0 7 0;
#X connect 8 1 27 0;
#X connect 9 0 27 1;
#X connect 10 0 9 0;
#X connect 10 1 27 1;
#X connect 11 0 17 0;
#X connect 12 0 11 0;
#X connect 12 1 17 0;
#X connect 13 0 18 0;
#X connect 14 0 13 0;
#X connect 14 1 18 0;
#X connect 15 0 18 1;
#X connect 16 0 15 0;
#X connect 16 1 18 1;
#X connect 17 0 20 0;
#X connect 18 0 17 1;
#X connect 19 0 12 0;
#X connect 19 1 14 0;
#X connect 19 2 16 0;
#X connect 20 0 21 0;
#X connect 21 0 22 0;
#X connect 22 0 46 0;
#X connect 24 0 25 0;
#X connect 25 0 33 0;
#X connect 26 0 45 0;
#X connect 27 0 28 1;
#X connect 28 0 29 0;
#X connect 29 0 21 1;
#X connect 31 0 32 0;
#X connect 31 1 1 0;
#X connect 32 0 30 0;
#X connect 33 0 34 0;
#X connect 33 1 35 0;
#X connect 34 0 2 0;
#X connect 35 0 30 0;
#X connect 36 0 40 0;
#X connect 37 0 38 0;
#X connect 38 0 39 1;
#X connect 39 0 40 0;
#X connect 42 0 41 0;
#X connect 44 0 4 0;
#X connect 45 0 44 0;
#X connect 46 0 31 0;
#X connect 47 0 0 0;
#X restore 4 -36 pd grabacion;
