#N canvas 524 25 1029 471 10;
#X msg 29 70 listen 0;
#X msg 16 18 listen 54321;
#X obj 16 96 netreceive -u -b 54321;
#X obj 16 118 oscparse;
#X text 101 17 MobMuPlat default Output port is 54321;
#X obj 16 140 list trim;
#X text 29 37 If you want to communicate via OSC with your computer \, simply change the broadcast address to your computer's IP;
#X text 163 90 through this object we should see everything that has been connected to [send toNetwork] inside the smartphone patch.;
#X obj 16 360 unpack f f;
#X floatatom 73 382 0 0 0 0 - - - 0;
#X floatatom 16 403 0 0 0 0 - - - 0;
#X floatatom 79 329 0 0 0 0 - - - 0;
#X msg 566 213 connect localhost 54322;
#X obj 551 260 netsend -u -b;
#X obj 551 147 list prepend send;
#X obj 551 172 list trim;
#X msg 560 192 connect 192.168.1.141 54322;
#X msg 573 236 disconnect;
#X text 739 193 IP address of smartphone;
#X text 719 214 MMP listens on port 54322;
#X text 645 256 this way we can send messages to the smartphone patch \, routed via [receive fromNetwork];
#X obj 16 162 route tilts compass location distanceFilter;
#X obj 207 184 print DF;
#X obj 551 13 tgl 15 0 empty empty empty 17 7 0 10 #fcfcfc #000000 #000000 0 1;
#X obj 551 34 oscformat enableLocation;
#X obj 577 120 oscformat getDistanceFilter;
#X obj 567 76 oscformat setDistanceFilter;
#X floatatom 143 298 0 0 0 0 - - - 0;
#X floatatom 224 229 0 0 0 0 - - - 0;
#X floatatom 170 274 0 0 0 0 - - - 0;
#X floatatom 197 251 0 0 0 0 - - - 0;
#X obj 143 207 unpack f f f f;
#X text 194 300 latitude (degrees);
#X text 130 329 Orientation (degrees);
#X text 223 276 longitude (degrees);
#X text 225 252 altitude (meters);
#X text 271 229 position accuracy (m);
#X text 90 405 rotacion lateral l -1 0 1 r;
#X msg 577 98 0;
#X msg 567 55 0;
#X connect 0 0 2 0;
#X connect 1 0 2 0;
#X connect 2 0 3 0;
#X connect 3 0 5 0;
#X connect 5 0 21 0;
#X connect 8 0 10 0;
#X connect 8 1 9 0;
#X connect 12 0 13 0;
#X connect 14 0 15 0;
#X connect 15 0 13 0;
#X connect 16 0 13 0;
#X connect 17 0 13 0;
#X connect 21 0 8 0;
#X connect 21 1 11 0;
#X connect 21 2 31 0;
#X connect 21 3 22 0;
#X connect 23 0 24 0;
#X connect 24 0 14 0;
#X connect 25 0 14 0;
#X connect 26 0 14 0;
#X connect 31 0 27 0;
#X connect 31 1 29 0;
#X connect 31 2 30 0;
#X connect 31 3 28 0;
#X connect 38 0 25 0;
#X connect 39 0 26 0;
