#N canvas 145 101 1063 483 16;
#X obj 19 34 table prueba;
#X msg 245 61 \; prueba resize \$1;
#X msg 245 32 12;
#X msg 244 110 0;
#X msg 244 141 \; prueba const \$1;
#X msg 244 190 \; prueba read mayor.txt;
#X msg 243 243 \; prueba read cromatica.txt;
#X obj 13 200 tabread prueba;
#X floatatom 13 124 5 0 0 0 - - -, f 5;
#X floatatom 12 270 5 0 0 0 - - -, f 5;
#X msg 92 120 set otratabla;
#X obj 478 76 table otratabla;
#X msg 92 163 set prueba;
#X msg 12 82 3;
#X msg 60 81 4;
#X obj 90 271 moses 0;
#X floatatom 87 334 5 0 0 0 - - -, f 5;
#X floatatom 157 335 5 0 0 0 - - -, f 5;
#X msg 478 191 \; prueba read mayorsilencios.txt;
#X obj 549 454 tabwrite prueba;
#X msg 574 408 12 3;
#X text 625 407 al escribir \, el indice va despues;
#X msg 561 366 11 3 \, 11 4;
#X text 680 366 se pueden escribir varios a la vez;
#X obj 549 332 pack 1 1;
#X text 633 331 se pueden escribir por separado;
#X floatatom 549 292 5 0 0 0 - - -, f 5;
#X floatatom 626 292 5 0 0 0 - - -, f 5;
#X text 87 365 ej. para filtrar silencios (-1);
#X msg 477 112 \; otratabla 0 0 0 1 1 1 2 2 3 3 3;
#X text 474 155 tambien se pueden inicializar direactamente;
#X msg 244 297 \; prueba read pentatonica.txt;
#X msg 478 23 \; prueba read menor.txt;
#X connect 2 0 1 0;
#X connect 3 0 4 0;
#X connect 7 0 9 0;
#X connect 7 0 15 0;
#X connect 8 0 7 0;
#X connect 10 0 7 0;
#X connect 12 0 7 0;
#X connect 13 0 8 0;
#X connect 14 0 8 0;
#X connect 15 0 16 0;
#X connect 15 1 17 0;
#X connect 20 0 19 0;
#X connect 22 0 19 0;
#X connect 24 0 19 0;
#X connect 26 0 24 0;
#X connect 27 0 24 1;
