#N canvas 265 22 669 491 10;
#X obj 36 20 notein;
#X text 85 19 NOTE ON messages coming from MIDI IN;
#X floatatom 81 152 5 0 0 0 - - -;
#X obj 36 226 osc~;
#X obj 35 300 *~;
#X obj 72 226 dbtorms;
#X obj 35 326 dac~;
#X obj 36 192 mtof;
#X msg 80 192 100;
#X obj 126 193 print DONE. NO MORE NOTES;
#X obj 72 272 line~;
#X msg 72 249 \$1 10;
#X obj 409 17 cnv 15 250 150 empty empty empty 20 12 0 14 -261234 -66577
0;
#X obj 413 118 openpanel;
#X msg 413 96 bang;
#X msg 413 21 bang;
#X obj 413 43 savepanel;
#X msg 413 140 read \$1;
#X msg 413 65 write \$1;
#X text 453 95 clik to open a saved file;
#X obj 408 170 cnv 15 250 75 empty empty empty 20 12 0 14 -261682 -66577
0;
#X msg 413 198 rewind;
#X msg 413 177 clear;
#X text 464 177 empty the list of notes;
#X text 463 220 trigger next note in the list;
#X msg 413 219 bang;
#X text 465 198 go to the beginning of the list;
#X text 442 22 click to save the seq in a text file;
#X text 132 263 this patch allows to play MIDI notes sequences \, "manually
trigering" each note \, one by one. How to use it: 1) select "clear".
This will empty the NOTEs buffer 2) start playing your MIDI file through
the system (as you already did before) 3) when the file is finished
\, you can play it back \, by selecting "rewind" and then triggering
each note with "bang" 4) you can save and load this converted file
\, using savepanel & openpanel. This will not be a MIDI file anymore
\, but just a text file with a sequence of numbers (MIDI notes) and
no time information (because the time information will be brought to
you in real-time) 5) you can later control the "bang" for triggering
the next note \, with a quick movement of the accelerometer \, a finger
press on your multitouch screen \, etc. etc. sergi.jorda@upf.edu 2013
;
#X obj 79 44 cnv 15 300 100 empty empty empty 20 12 0 14 -204786 -66577
0;
#X obj 81 62 spigot;
#X msg 81 92 add \$1;
#X text 131 91 add this NOTE to a file;
#X obj 81 120 textfile;
#X text 129 63 filter NOTE OFF messages(with velocity 0);
#X connect 0 0 7 0;
#X connect 0 0 30 0;
#X connect 0 1 5 0;
#X connect 0 1 30 1;
#X connect 2 0 7 0;
#X connect 2 0 8 0;
#X connect 3 0 4 0;
#X connect 4 0 6 0;
#X connect 4 0 6 1;
#X connect 5 0 11 0;
#X connect 7 0 3 0;
#X connect 8 0 5 0;
#X connect 10 0 4 1;
#X connect 11 0 10 0;
#X connect 13 0 17 0;
#X connect 14 0 13 0;
#X connect 15 0 16 0;
#X connect 16 0 18 0;
#X connect 17 0 33 0;
#X connect 18 0 33 0;
#X connect 21 0 33 0;
#X connect 22 0 33 0;
#X connect 25 0 33 0;
#X connect 30 0 31 0;
#X connect 31 0 33 0;
#X connect 33 0 2 0;
#X connect 33 1 9 0;
