#N canvas 582 186 981 558 10;
#N canvas 0 22 450 300 (subpatch) 0;
#X array \$0-file 4e+06 float 2;
#X coords 0 1 4e+06 -1 200 170 1;
#X restore 26 39 graph;
#X obj 551 380 r \$0-size;
#X obj 551 401 - 3;
#X obj 530 444 +~ 1;
#X obj 530 423 *~ 1;
#X obj 535 316 phasor~;
#X obj 451 50 loadbang;
#X obj 451 73 samplerate~;
#X obj 436 94 /;
#X obj 436 30 r \$0-size;
#X msg 436 114 1 \$1;
#X obj 436 134 /;
#X obj 436 156 f;
#X obj 436 253 * 1;
#X obj 464 350 samphold~;
#X obj 520 380 *~;
#X obj 566 285 cnv 15 180 25 empty empty empty 20 12 0 14 -261234 -66577
0;
#X msg 574 289 0;
#X obj 459 299 cnv 15 60 25 empty empty empty 20 12 0 14 -261234 -66577
0;
#X obj 464 304 tgl 15 0 empty empty empty 17 7 0 10 -262144 -1 -1 0
1;
#X text 483 304 loop?;
#X obj 464 327 sig~ 0;
#X obj 245 32 cnv 15 135 25 empty empty empty 20 12 0 14 -261234 -66577
0;
#X obj 249 128 soundfiler;
#X obj 249 190 s \$0-size;
#X obj 249 61 openpanel;
#X msg 249 105 read -resize \$1 \$2-file;
#X obj 249 83 pack s \$0;
#X obj 249 37 bng 15 250 50 0 empty empty empty 17 7 0 10 -262144 -1
-1;
#X obj 249 168 f;
#X obj 257 148 bng 17 250 50 0 empty empty empty 17 7 0 10 -262144
-1 -1;
#X text 271 36 open a soundfile;
#X obj 515 495 cnv 15 220 25 empty empty empty 20 12 0 14 -162280 -66577
0;
#X obj 520 498 dac~;
#X text 553 499 angelfaraldo@gmail.com - 2012;
#X obj 530 468 tabread4~ \$0-file;
#X obj 480 119 cnv 15 370 40 empty empty empty 20 12 0 14 -261234 -66577
0;
#X floatatom 483 136 5 0 0 1 - - -;
#X obj 483 205 t b f;
#X obj 483 183 pow;
#X msg 483 162 2 \$1;
#X text 519 127 change speed of reading (and therefore pitch as well).
Positive values speed up. Negatives slow down);
#X obj 180 446 cnv 15 340 40 empty empty empty 20 12 0 14 -204786 -66577
0;
#X text 194 451 [tabread4~] is the main ingredient to read arrays as
soundfiles;
#X obj 535 285 * 1;
#X obj 527 206 cnv 15 140 25 empty empty empty 20 12 0 14 -261234 -66577
0;
#X msg 535 210 -1;
#X msg 565 210 1;
#X obj 535 233 t b f;
#X text 595 209 direction;
#X obj 577 236 cnv 15 360 40 empty empty empty 20 12 0 14 -204786 -66577
0;
#X text 581 241 simply by reversing the frequency of the phasor we
manage to read the array from right to left;
#X text 601 289 reset (start file);
#X connect 1 0 2 0;
#X connect 2 0 4 1;
#X connect 3 0 35 0;
#X connect 4 0 3 0;
#X connect 5 0 14 1;
#X connect 5 0 15 1;
#X connect 6 0 7 0;
#X connect 7 0 8 1;
#X connect 8 0 10 0;
#X connect 9 0 8 0;
#X connect 10 0 11 0;
#X connect 11 0 12 0;
#X connect 12 0 13 0;
#X connect 13 0 44 0;
#X connect 14 0 15 0;
#X connect 15 0 4 0;
#X connect 17 0 5 1;
#X connect 19 0 21 0;
#X connect 21 0 14 0;
#X connect 23 0 29 0;
#X connect 25 0 27 0;
#X connect 26 0 23 0;
#X connect 27 0 26 0;
#X connect 28 0 25 0;
#X connect 29 0 24 0;
#X connect 30 0 29 0;
#X connect 35 0 33 0;
#X connect 35 0 33 1;
#X connect 37 0 40 0;
#X connect 38 0 13 0;
#X connect 38 1 13 1;
#X connect 39 0 38 0;
#X connect 40 0 39 0;
#X connect 44 0 5 0;
#X connect 46 0 48 0;
#X connect 47 0 48 0;
#X connect 48 0 44 0;
#X connect 48 1 44 1;
