#N canvas 154 124 771 492 10;
#N canvas 0 22 450 300 (subpatch) 0;
#X array \$0-file 159706 float 2;
#X coords 0 1 159706 -1 200 170 1;
#X restore 34 29 graph;
#X obj 448 276 r \$0-size;
#X obj 448 297 - 3;
#X obj 427 340 +~ 1;
#X obj 427 319 *~ 1;
#X obj 432 222 phasor~;
#X obj 447 40 loadbang;
#X obj 447 63 samplerate~;
#X obj 432 84 /;
#X obj 432 20 r \$0-size;
#X msg 432 104 1 \$1;
#X obj 432 124 /;
#X obj 432 146 f;
#X obj 361 256 samphold~;
#X obj 417 286 *~;
#X obj 463 193 cnv 15 180 25 empty empty empty 20 12 0 14 -261234 -66577
0;
#X msg 471 197 0;
#X text 498 197 reset (start file);
#X obj 356 205 cnv 15 60 25 empty empty empty 20 12 0 14 -261234 -66577
0;
#X obj 361 210 tgl 15 0 empty empty empty 17 7 0 10 -262144 -1 -1 0
1;
#X text 380 210 loop?;
#X obj 361 233 sig~ 0;
#X obj 241 22 cnv 15 135 25 empty empty empty 20 12 0 14 -261234 -66577
0;
#X obj 245 118 soundfiler;
#X obj 245 180 s \$0-size;
#X obj 245 51 openpanel;
#X msg 245 95 read -resize \$1 \$2-file;
#X obj 245 73 pack s \$0;
#X obj 245 27 bng 15 250 50 0 empty empty empty 17 7 0 10 -262144 -1
-1;
#X obj 245 158 f;
#X obj 253 138 bng 17 250 50 0 empty empty empty 17 7 0 10 -262144
-1 -1;
#X text 267 26 open a soundfile;
#X obj 473 392 cnv 15 125 25 empty empty empty 20 12 0 14 -261234 -66577
0;
#X floatatom 484 396 5 0 0 1 - - -;
#X obj 334 164 cnv 15 170 25 empty empty empty 20 12 0 14 -204786 -66577
0;
#X obj 412 444 cnv 15 220 25 empty empty empty 20 12 0 14 -162280 -66577
0;
#X obj 417 447 dac~;
#X text 450 448 angelfaraldo@gmail.com - 2012;
#X obj 427 421 a.pitch \$0;
#X floatatom 440 167 0 0 0 0 - - -;
#X text 339 167 original speed:;
#X text 521 396 window size;
#X obj 444 362 cnv 15 220 25 empty empty empty 20 12 0 14 -261234 -66577
0;
#X floatatom 455 366 5 0 0 1 - - -;
#X text 492 366 transposition in semitones;
#X text 183 324 overlap 4?;
#X connect 1 0 2 0;
#X connect 2 0 4 1;
#X connect 3 0 38 0;
#X connect 4 0 3 0;
#X connect 5 0 13 1;
#X connect 5 0 14 1;
#X connect 6 0 7 0;
#X connect 7 0 8 1;
#X connect 8 0 10 0;
#X connect 9 0 8 0;
#X connect 10 0 11 0;
#X connect 11 0 12 0;
#X connect 12 0 39 0;
#X connect 12 0 5 0;
#X connect 13 0 14 0;
#X connect 14 0 4 0;
#X connect 16 0 5 1;
#X connect 19 0 21 0;
#X connect 21 0 13 0;
#X connect 23 0 29 0;
#X connect 25 0 27 0;
#X connect 26 0 23 0;
#X connect 27 0 26 0;
#X connect 28 0 25 0;
#X connect 29 0 24 0;
#X connect 30 0 29 0;
#X connect 33 0 38 2;
#X connect 38 0 36 0;
#X connect 38 0 36 1;
#X connect 43 0 38 1;
