#N canvas 439 48 294 506 10;
#X obj 30 349 osc~;
#X obj 56 139 r ratio;
#X obj 48 302 *~;
#X obj 66 238 r index;
#X obj 66 281 line~;
#X msg 66 259 \$1 20;
#X obj 48 214 osc~;
#X obj 30 327 +~;
#X obj 48 192 * 2;
#X obj 55 161 t b f;
#X obj 110 443 throw~ sumOut;
#X obj 30 117 mtof;
#X obj 87 52 route \$1;
#X obj 87 32 r carrier;
#X obj 87 73 unpack;
#X obj 125 394 line~;
#X obj 165 351 pack 0 0;
#X obj 110 421 *~;
#X obj 165 330 / 127;
#X obj 210 330 r A;
#X obj 133 308 sel 0;
#X obj 85 351 pack 0 0;
#X obj 138 329 r R;
#X obj 17 214 sig~;
#X connect 0 0 17 0;
#X connect 1 0 9 0;
#X connect 2 0 7 1;
#X connect 3 0 5 0;
#X connect 4 0 2 1;
#X connect 5 0 4 0;
#X connect 6 0 2 0;
#X connect 7 0 0 0;
#X connect 8 0 6 0;
#X connect 9 0 8 0;
#X connect 9 1 8 1;
#X connect 11 0 8 0;
#X connect 11 0 23 0;
#X connect 12 0 14 0;
#X connect 13 0 12 0;
#X connect 14 0 11 0;
#X connect 14 1 20 0;
#X connect 15 0 17 1;
#X connect 16 0 15 0;
#X connect 17 0 10 0;
#X connect 18 0 16 0;
#X connect 19 0 16 1;
#X connect 20 0 21 0;
#X connect 20 1 18 0;
#X connect 21 0 15 0;
#X connect 22 0 21 1;
#X connect 23 0 7 0;
