#N canvas 335 49 420 729 10;
#X obj 73 448 osc~;
#X obj 73 499 clip~ -1 1;
#X obj 73 473 *~;
#X text 141 64 wave shape;
#X obj 73 581 *~;
#X obj 128 311 osc~;
#X obj 128 341 *~;
#X obj 73 372 +~;
#X obj 73 403 mtof~;
#X obj 73 626 throw~ bus1;
#X obj 331 81 inlet;
#X obj 98 559 clip 0 1;
#X text 329 65 volume;
#X obj 143 82 inlet;
#X obj 242 81 inlet;
#X text 239 65 vibDepth;
#X obj 143 192 s wShape-\$1;
#X obj 113 447 r wShape-\$1;
#X obj 331 136 s volume-\$1;
#X obj 98 534 r volume-\$1;
#X obj 143 170 + 1;
#X obj 143 147 * 9;
#X obj 143 110 - 0.1;
#X obj 331 107 - 0.1;
#X obj 73 245 * \$1;
#X obj 128 270 r~ vibRate;
#X obj 242 266 clip 0 4;
#X obj 242 107 * 4;
#X msg 104 89 0.1;
#X obj 104 30 loadbang;
#X obj 73 220 r frequency;
#X obj 22 527 s~ o\$1;
#X obj 5 245 r~ freq-\$1;
#X obj 73 285 +~;
#X obj 73 343 ftom~;
#X obj 220 412 s baseFreq-\$1;
#X text 78 660 Patch by Blazej Kotowski \, 2019;
#X connect 0 0 2 0;
#X connect 1 0 4 0;
#X connect 1 0 31 0;
#X connect 2 0 1 0;
#X connect 4 0 9 0;
#X connect 5 0 6 0;
#X connect 6 0 7 1;
#X connect 7 0 8 0;
#X connect 8 0 0 0;
#X connect 10 0 23 0;
#X connect 11 0 4 1;
#X connect 13 0 22 0;
#X connect 14 0 27 0;
#X connect 17 0 2 1;
#X connect 19 0 11 0;
#X connect 20 0 16 0;
#X connect 21 0 20 0;
#X connect 22 0 21 0;
#X connect 23 0 18 0;
#X connect 24 0 33 1;
#X connect 24 0 35 0;
#X connect 25 0 5 0;
#X connect 26 0 6 1;
#X connect 27 0 26 0;
#X connect 28 0 22 0;
#X connect 29 0 28 0;
#X connect 30 0 24 0;
#X connect 32 0 33 0;
#X connect 33 0 34 0;
#X connect 34 0 7 0;
