#N canvas 0 22 388 320 10;
#X obj 16 12 inlet~;
#X obj 16 103 min~;
#X obj 139 102 max~;
#X obj 26 174 s~ \$0-min;
#X obj 37 81 r~ \$0-min;
#X obj 160 80 r~ \$0-max;
#X obj 149 173 s~ \$0-max;
#X obj 139 247 snaps~;
#X obj 16 247 snaps~;
#X obj 16 268 outlet;
#X obj 139 268 outlet;
#X obj 26 137 *~ 1;
#X obj 149 137 *~ 1;
#X msg 276 81 0;
#X obj 314 79 delay 10;
#X msg 314 103 1;
#X obj 276 53 t b;
#X obj 276 30 inlet;
#X connect 0 0 1 0;
#X connect 0 0 2 0;
#X connect 1 0 8 0;
#X connect 1 0 11 0;
#X connect 2 0 7 0;
#X connect 2 0 12 0;
#X connect 4 0 1 1;
#X connect 5 0 2 1;
#X connect 7 0 10 0;
#X connect 8 0 9 0;
#X connect 11 0 3 0;
#X connect 12 0 6 0;
#X connect 13 0 12 1;
#X connect 13 0 11 1;
#X connect 14 0 15 0;
#X connect 15 0 12 1;
#X connect 15 0 11 1;
#X connect 16 0 13 0;
#X connect 16 0 14 0;
#X connect 17 0 16 0;
