#N canvas 36 22 1243 715 10;
#X obj -59 124 noise~;
#X floatatom -2 174 0 0 0 0 - - -;
#X obj -59 197 lop~ 22050;
#X obj 41 87 samplerate~;
#X obj 41 65 loadbang;
#X obj -4 109 pack 0 0;
#X obj -2 153 /;
#X obj -4 131 swap;
#X floatatom 55 110 5 0 0 0 - - -;
#X obj 80 231 |max|~;
#X floatatom 65 370 0 0 0 0 - - -;
#X obj 80 296 /;
#N canvas 0 22 450 278 (subpatch) 0;
#X array \$0-compensation 40 float 1;
#A 0 100.002 100 100 100.181 101.568 103.992 106.68 109.473 112.815
114.16 118.863 122.202 125.158 127.553 130.724 133.4 139.343 139.602
145.028 148.892 149.741 154.868 162.509 165.823 175.066 176.847 176.167
177.812 179.069 178.358 178.417 178.434 178.575 178.65 178.659 178.663
178.667 178.669 178.67 178.672;
#X coords 0 200 39 100 200 200 2 0 0;
#X restore 284 -180 graph;
#X floatatom 90 252 0 0 0 0 - - -;
#X obj 160 379 tabwrite \$0-compensation;
#X floatatom 102 4 5 0 0 0 - - -;
#X obj 102 -17 f 0;
#X obj 142 -17 + 1;
#X obj 102 -120 tgl 15 0 empty empty empty 17 7 0 10 -262144 -1 -1
1 1;
#X msg 117 -38 0;
#X msg 80 274 1 \$1;
#X obj 102 -59 metro 1000;
#X obj 102 -100 t f f;
#X obj 129 -80 sel 0;
#X obj 102 24 t b f f;
#X obj -12 318 *~ 1;
#X floatatom -12 367 0 0 0 0 - - -;
#X obj -46 273 z~ 128;
#X floatatom 186 -95 5 0 0 0 - - -;
#X obj 317 209 s \$0-compensation;
#X obj -12 346 |max|~;
#X obj -4 84 pow;
#X obj 233 234 rmstodb;
#X floatatom 250 261 5 0 0 0 - - -;
#X obj 47 10 bng 15 250 50 0 empty empty empty 17 7 0 10 -262144 -1
-1;
#X floatatom -4 27 5 0 0 0 - - -;
#X floatatom 45 148 5 0 0 0 - - -;
#X msg -3 56 2 \$1;
#X msg 307 164 const 100;
#X text 822 -137 ln(2);
#X obj 803 293 /;
#X obj 818 226 samplerate~;
#X obj 818 204 loadbang;
#X obj 818 184 bng 15 250 50 0 empty empty empty 17 7 0 10 -262144
-1 -1;
#X floatatom 812 327 5 0 0 0 - - -;
#X obj 756 88 /;
#X obj 801 22 samplerate~;
#X obj 801 0 loadbang;
#X obj 801 -20 bng 15 250 50 0 empty empty empty 17 7 0 10 -262144
-1 -1;
#X obj 756 44 pack 0 0;
#X obj 756 66 swap;
#X floatatom 827 46 5 0 0 0 - - -;
#X obj 638 -127 noise~;
#X obj 638 -61 lop~ 22050;
#X floatatom 698 -85 5 0 0 0 - - -;
#X floatatom 654 -25 5 0 0 0 - - -;
#X obj 639 237 env~;
#X floatatom 645 268 5 0 0 0 - - -;
#X obj 674 168 *~ 1;
#X floatatom 779 402 5 0 0 0 - - -;
#X obj 590 225 env~;
#X floatatom 604 266 5 0 0 0 - - -;
#X floatatom 766 166 5 0 0 0 - - -;
#X obj 863 -163 log;
#X floatatom 863 -113 0 0 0 0 - - -;
#X obj 863 -140 / 0.693147;
#X obj 677 386 dbtorms;
#X obj 611 342 + 0;
#X obj 777 365 tabread \$0-compensation;
#X obj 750 -3 pow;
#X msg 751 -31 2 \$1;
#X connect 0 0 2 0;
#X connect 1 0 2 1;
#X connect 2 0 9 0;
#X connect 2 0 27 0;
#X connect 3 0 5 1;
#X connect 3 0 8 0;
#X connect 4 0 3 0;
#X connect 5 0 7 0;
#X connect 6 0 1 0;
#X connect 7 0 6 0;
#X connect 7 0 36 0;
#X connect 7 1 6 1;
#X connect 9 0 20 0;
#X connect 9 0 13 0;
#X connect 11 0 10 0;
#X connect 11 0 25 1;
#X connect 11 0 32 0;
#X connect 15 0 24 0;
#X connect 16 0 17 0;
#X connect 16 0 15 0;
#X connect 17 0 16 1;
#X connect 18 0 22 0;
#X connect 19 0 16 1;
#X connect 20 0 11 0;
#X connect 21 0 16 0;
#X connect 22 0 21 0;
#X connect 22 1 23 0;
#X connect 23 0 19 0;
#X connect 24 0 9 1;
#X connect 24 0 30 1;
#X connect 24 1 35 0;
#X connect 24 2 14 1;
#X connect 25 0 30 0;
#X connect 27 0 25 0;
#X connect 28 0 21 1;
#X connect 30 0 26 0;
#X connect 31 0 5 0;
#X connect 32 0 33 0;
#X connect 32 0 14 0;
#X connect 33 0 67 0;
#X connect 34 0 4 0;
#X connect 35 0 37 0;
#X connect 37 0 31 0;
#X connect 38 0 29 0;
#X connect 40 0 44 0;
#X connect 41 0 40 1;
#X connect 42 0 41 0;
#X connect 43 0 42 0;
#X connect 44 0 68 0;
#X connect 45 0 62 0;
#X connect 46 0 49 1;
#X connect 46 0 51 0;
#X connect 47 0 46 0;
#X connect 48 0 47 0;
#X connect 49 0 50 0;
#X connect 50 0 45 0;
#X connect 50 1 45 1;
#X connect 52 0 53 0;
#X connect 52 0 60 0;
#X connect 53 0 58 0;
#X connect 54 0 53 1;
#X connect 54 0 70 0;
#X connect 56 0 57 0;
#X connect 58 0 56 0;
#X connect 60 0 61 0;
#X connect 62 0 40 0;
#X connect 63 0 65 0;
#X connect 65 0 64 0;
#X connect 66 0 58 1;
#X connect 68 0 59 0;
#X connect 68 0 66 0;
#X connect 69 0 49 0;
#X connect 70 0 69 0;
