#N canvas 660 167 450 449 10;
#X msg 176 60 1 0 0 1 0 0 1 0 1 0 0 1 0 0 1 0;
#X obj 78 26 hsl 128 15 0 16 0 1 empty empty Density -2 -8 0 10 -262144
-1 -1 9000 1;
#X obj 80 101 l2s;
#X symbolatom 80 122 32 0 0 0 - - -, f 32;
#X obj 144 180 table pattern 16;
#X obj 75 180 s pattern;
#X obj 75 161 list prepend 0;
#X text 303 43 INPUT PATTERN;
#X text 216 103 OUTPUT PATTERN;
#X obj 105 255 metro 125;
#X obj 105 234 tgl 15 0 empty empty empty 17 7 0 10 -262144 -1 -1 0
1;
#X obj 105 316 tabread pattern;
#X obj 105 276 f;
#X obj 144 277 + 1;
#X obj 47 354 noise~;
#X obj 105 357 ead~ 10 100;
#X obj 48 386 *~;
#X obj 105 337 sel 1;
#X obj 48 408 *~ 0.5;
#X obj 46 429 dac~;
#X obj 105 296 % 16, f 6;
#X text 298 425 daniel.gomez@upf.edu;
#X text 298 412 2016;
#X obj 75 82 populate_rhythm;
#X connect 0 0 23 1;
#X connect 1 0 23 0;
#X connect 2 0 3 0;
#X connect 6 0 5 0;
#X connect 9 0 12 0;
#X connect 10 0 9 0;
#X connect 11 0 17 0;
#X connect 12 0 13 0;
#X connect 12 0 20 0;
#X connect 13 0 12 1;
#X connect 14 0 16 0;
#X connect 15 0 16 1;
#X connect 16 0 18 0;
#X connect 17 0 15 0;
#X connect 18 0 19 0;
#X connect 18 0 19 1;
#X connect 20 0 11 0;
#X connect 23 0 2 0;
#X connect 23 0 6 0;
