#N canvas 0 22 758 385 10;
#X obj 476 64 inlet~;
#X obj 476 132 max~;
#X obj 497 110 r~ \$0-max;
#X obj 486 181 s~ \$0-max;
#X obj 476 255 outlet;
#X obj 476 157 *~ 1;
#X msg 571 121 0;
#X msg 609 143 1;
#X obj 571 93 t b;
#X obj 571 70 inlet;
#X obj 476 87 abs~;
#X obj 486 210 bang~;
#X obj 476 233 snapshot~;
#X obj 609 119 del 2;
#X obj 330 107 lop~;
#X obj 330 67 noise~;
#X connect 0 0 10 0;
#X connect 1 0 5 0;
#X connect 2 0 1 1;
#X connect 5 0 3 0;
#X connect 5 0 12 0;
#X connect 6 0 5 1;
#X connect 7 0 5 1;
#X connect 8 0 6 0;
#X connect 8 0 13 0;
#X connect 9 0 8 0;
#X connect 10 0 1 0;
#X connect 11 0 12 0;
#X connect 12 0 4 0;
#X connect 13 0 7 0;
#X connect 15 0 14 0;
