#N canvas 251 22 1029 715 10;
#X obj -3 152 noise~;
#X floatatom 54 202 0 0 0 0 - - -;
#X obj -3 225 lop~ 22050;
#X obj 35 383 *~ 1;
#X obj 97 115 samplerate~;
#X obj 97 93 loadbang;
#X obj 97 73 bng 15 250 50 0 empty empty empty 17 7 0 10 -262144 -1
-1;
#X obj 52 137 pack 0 0;
#X obj 54 181 /;
#X obj 52 159 swap;
#X floatatom 123 139 5 0 0 0 - - -;
#X obj 56 269 |max|~;
#X obj 89 249 bng 15 250 50 0 empty empty empty 17 7 0 10 -262144 -1
-1;
#X obj 68 391 bng 15 250 50 0 empty empty empty 17 7 0 10 -262144 -1
-1;
#X floatatom 35 432 0 0 0 0 - - -;
#X floatatom 56 357 0 0 0 0 - - -;
#X obj 56 335 /;
#X obj -3 322 z~ 128;
#N canvas 0 22 450 278 (subpatch) 0;
#X array \$0-compensation 128 float 3;
#A 0 0 0 0 0 0 0 0 0 0 0 0 0 0 0 0 0 0 0 0 0 0 0 0 0 0 0 0 0 0 0 0
0 0 0 0 0 0 0 0 0 0 0 0 0 0 0 0 0 0 0 0 0 0 0 0 0 0 0 0 0 0 0 0 0 0
0 0 0 0 0 0 0 0 0 0 0 0 0 0 0 0 0 0 0 0 0 0 0 0 0 0 0 0 0 0 0 0 0 0
0 0 0 0 0 0 0 0 0 0 0 0 0 0 0 0 0 0 0 0 0 0 0 0 0 0 0 0 0;
#X coords 0 1 128 -1 200 140 1;
#X restore 418 42 graph;
#X msg 56 313 0.9997 \$1;
#X floatatom 66 290 0 0 0 0 - - -;
#X obj 35 411 |max|~;
#X obj 52 116 pow 2;
#X msg 53 95 2 \$1;
#X floatatom 53 74 5 0 0 0 - - -;
#X obj 118 239 r reset;
#X obj 99 381 r reset;
#X msg 262 40 bang;
#X obj 262 62 s start;
#X obj 103 38 f 0;
#X floatatom 327 260 5 0 0 0 - - -;
#X obj 281 349 pow 2;
#X msg 281 328 2 \$1;
#X floatatom 281 307 5 0 0 0 - - -;
#X obj 414 421 log;
#X floatatom 282 376 5 0 0 0 - - -;
#X floatatom 414 471 0 0 0 0 - - -;
#X obj 414 444 / 0.693147;
#X text 480 443 ln(2);
#X obj 412 617 /;
#X obj 476 537 samplerate~;
#X obj 476 515 loadbang;
#X obj 476 495 bng 15 250 50 0 empty empty empty 17 7 0 10 -262144
-1 -1;
#X floatatom 412 651 5 0 0 0 - - -;
#X obj 414 399 /;
#X floatatom 412 330 5 0 0 0 - - -;
#X obj 459 333 samplerate~;
#X obj 459 311 loadbang;
#X obj 459 291 bng 15 250 50 0 empty empty empty 17 7 0 10 -262144
-1 -1;
#X obj 414 355 pack 0 0;
#X obj 414 377 swap;
#X floatatom 485 357 5 0 0 0 - - -;
#X connect 0 0 2 0;
#X connect 1 0 2 1;
#X connect 2 0 11 0;
#X connect 2 0 17 0;
#X connect 3 0 21 0;
#X connect 4 0 7 1;
#X connect 4 0 10 0;
#X connect 5 0 4 0;
#X connect 6 0 5 0;
#X connect 7 0 9 0;
#X connect 8 0 1 0;
#X connect 9 0 8 0;
#X connect 9 1 8 1;
#X connect 11 0 19 0;
#X connect 11 0 20 0;
#X connect 12 0 11 1;
#X connect 13 0 21 1;
#X connect 15 0 3 1;
#X connect 16 0 15 0;
#X connect 17 0 3 0;
#X connect 19 0 16 0;
#X connect 21 0 14 0;
#X connect 22 0 7 0;
#X connect 23 0 22 0;
#X connect 24 0 23 0;
#X connect 25 0 12 0;
#X connect 26 0 13 0;
#X connect 27 0 28 0;
#X connect 31 0 35 0;
#X connect 32 0 31 0;
#X connect 33 0 32 0;
#X connect 34 0 37 0;
#X connect 36 0 39 0;
#X connect 37 0 36 0;
#X connect 39 0 43 0;
#X connect 40 0 39 1;
#X connect 41 0 40 0;
#X connect 42 0 41 0;
#X connect 44 0 34 0;
#X connect 45 0 49 0;
#X connect 46 0 49 1;
#X connect 46 0 51 0;
#X connect 47 0 46 0;
#X connect 48 0 47 0;
#X connect 49 0 50 0;
#X connect 50 0 44 0;
#X connect 50 1 44 1;
