#N canvas 204 174 574 242 16;
#X obj 19 21 notein;
#X floatatom 19 59 5 0 0 0 - - -;
#X floatatom 74 59 5 0 0 0 - - -;
#X floatatom 129 59 5 0 0 0 - - -;
#X obj 207 91 makenote;
#X floatatom 207 133 5 0 0 0 - - -;
#X floatatom 262 133 5 0 0 0 - - -;
#X floatatom 207 58 5 0 0 0 - - -;
#X floatatom 262 58 5 0 0 0 - - -;
#X floatatom 317 58 5 0 0 0 - - -;
#X msg 207 26 60;
#X msg 317 28 1000;
#X obj 19 101 noteout 1;
#X obj 207 175 noteout 1;
#X obj 411 92 pgmout 1;
#X floatatom 411 62 5 0 0 0 - - -;
#X msg 411 31 10;
#X connect 0 0 1 0;
#X connect 0 1 2 0;
#X connect 0 2 3 0;
#X connect 1 0 12 0;
#X connect 2 0 12 1;
#X connect 3 0 12 2;
#X connect 4 0 5 0;
#X connect 4 1 6 0;
#X connect 5 0 13 0;
#X connect 6 0 13 1;
#X connect 7 0 4 0;
#X connect 8 0 4 1;
#X connect 9 0 4 2;
#X connect 10 0 7 0;
#X connect 11 0 9 0;
#X connect 15 0 14 0;
#X connect 16 0 15 0;
