#N canvas 82 58 634 255 12;
#X obj 17 48 note2octave+pclass;
#X obj 16 174 octave+pclass2note;
#N canvas 398 287 330 192 correct 0;
#X obj 14 12 inlet;
#X obj 13 109 outlet;
#X obj 24 72 tabread test;
#X msg 33 44 set othert;
#X msg 118 43 set test;
#X connect 0 0 1 0;
#X connect 3 0 2 0;
#X connect 4 0 2 0;
#X restore 140 112 pd correct;
#X floatatom 17 17 5 0 0 0 - note -;
#X floatatom 16 205 5 0 0 0 - - notecorrect;
#X floatatom 17 72 5 0 0 0 - - -;
#X floatatom 17 72 5 0 0 0 - - -;
#X floatatom 17 72 5 0 0 0 - - -;
#X floatatom 140 73 5 0 0 0 - - -;
#X floatatom 140 73 5 0 0 0 - - -;
#X floatatom 140 73 5 0 0 0 - - -;
#X floatatom 140 136 5 0 0 0 - - -;
#X obj 251 89 metro 200;
#X obj 251 66 tgl 15 0 empty empty empty 17 7 0 10 -262144 -1 -1 0
1;
#X obj 251 115 random 24;
#X obj 250 170 s note;
#X obj 386 24 r notecorrect;
#X obj 386 96 makenote;
#X msg 412 63 100;
#X obj 386 129 noteout;
#X obj 251 141 + 36;
#X floatatom 312 27 5 0 0 0 - - -;
#X obj 323 58 s ms;
#X obj 473 55 r ms;
#X obj 473 79 * 0.9;
#X obj 533 131 pgmout;
#X msg 533 98 12;
#X connect 0 0 5 0;
#X connect 0 0 6 0;
#X connect 0 0 7 0;
#X connect 0 1 8 0;
#X connect 0 1 10 0;
#X connect 0 1 9 0;
#X connect 1 0 4 0;
#X connect 2 0 11 0;
#X connect 3 0 0 0;
#X connect 5 0 1 0;
#X connect 8 0 2 0;
#X connect 11 0 1 1;
#X connect 12 0 14 0;
#X connect 13 0 12 0;
#X connect 14 0 20 0;
#X connect 16 0 17 0;
#X connect 17 0 19 0;
#X connect 17 1 19 1;
#X connect 18 0 17 1;
#X connect 20 0 15 0;
#X connect 21 0 12 1;
#X connect 21 0 22 0;
#X connect 23 0 24 0;
#X connect 24 0 17 2;
#X connect 26 0 25 0;
