#N canvas 78 57 1111 625 16;
#X msg 724 7 12;
#X msg 377 69 0;
#X floatatom 18 337 5 0 0 0 - - -;
#X floatatom 17 483 5 0 0 0 - - -;
#X msg 17 295 3;
#X msg 65 294 4;
#X floatatom 93 547 5 0 0 0 - - -;
#X floatatom 172 547 5 0 0 0 - - -;
#X msg 637 360 12 3;
#X msg 624 318 11 3 \, 11 4;
#X obj 599 284 pack 1 1;
#X floatatom 599 252 5 0 0 0 - - -;
#X floatatom 676 251 5 0 0 0 - - -;
#X obj 12 21 table test;
#X obj 18 413 tabread test;
#X text 123 12 by default \, arrays have 100 elements and range [-1
\, +1] we can change that in "properties" \, or with messages ==>;
#X msg 724 36 \; test resize \$1;
#X msg 12 70 \; test 0 0 1 2 3 4 5 6 7 8 9 10 11;
#X msg 377 126 \; test const \$1;
#X floatatom 377 98 5 0 0 0 - - -;
#X msg 725 85 \; test bounds 0 11 11 0;
#X text 724 129 x_left \, y_top \, x_rigth \, y_bottom;
#X msg 13 183 \; test 0 0 0 2 4 4 5 5 7 7 9 11 11;
#X msg 13 233 \; test 0 0 -1 2 -1 4 5 -1 7 -1 9 -1 11;
#X obj 95 484 moses 0;
#X text 11 115 the 1st value indicates the position at which we start
to initialize;
#X msg 97 376 set test;
#X msg 263 287 \; test read major.txt;
#X msg 263 338 \; test read cromatic.txt;
#X msg 263 390 \; test read majorsilences.txt;
#X msg 264 512 \; othert read minor.txt;
#X obj 263 562 table othert;
#X msg 97 334 set othert;
#X obj 596 405 tabwrite test;
#X text 696 283;
#X text 743 318;
#X text 694 362 writing elements (index goes 2nd!!);
#X msg 263 439 \; test read penta.txt;
#X msg 524 468 12;
#X text 524 590 x_left \, y_top \, x_rigth \, y_bottom;
#X msg 524 497 \; othert resize \$1;
#X msg 525 546 \; othert bounds 0 11 11 0;
#X connect 0 0 16 0;
#X connect 1 0 19 0;
#X connect 2 0 14 0;
#X connect 4 0 2 0;
#X connect 5 0 2 0;
#X connect 8 0 33 0;
#X connect 9 0 33 0;
#X connect 10 0 33 0;
#X connect 11 0 10 0;
#X connect 12 0 10 1;
#X connect 14 0 3 0;
#X connect 14 0 24 0;
#X connect 19 0 18 0;
#X connect 24 0 6 0;
#X connect 24 1 7 0;
#X connect 26 0 14 0;
#X connect 32 0 14 0;
#X connect 38 0 40 0;
