#N canvas 931 22 498 515 10;
#X obj 72 449 dac~;
#X obj 84 391 *~;
#X obj 96 371 line~;
#X msg 96 350 \$1 30;
#X obj 84 413 hip~ 5;
#X obj 96 216 vsl 15 128 0 1 0 0 empty empty vol. 0 -9 0 10 -262144
-1 -1 5700 0;
#N canvas 0 22 395 241 hanning-window_calculation 1;
#N canvas 0 22 454 304 (subpatch) 0;
#X array hanning 1024 float 2;
#X coords 0 1 1024 0 200 140 1;
#X restore 120 12 graph;
#X obj 15 73 osc~;
#X msg 34 51 0;
#X obj 8 136 tabwrite~ hanning;
#X obj 15 94 *~ -0.5;
#X obj 15 115 +~ 0.5;
#X obj 8 5 loadbang;
#X obj 64 4 bng 15 250 50 0 empty empty empty 17 7 0 10 -262144 -1
-1;
#X obj 15 31 expr 44100/1024;
#X msg 0 157 \; pd dsp 1;
#X connect 1 0 4 0;
#X connect 2 0 1 1;
#X connect 4 0 5 0;
#X connect 5 0 3 0;
#X connect 6 0 2 0;
#X connect 6 0 3 0;
#X connect 6 0 8 0;
#X connect 6 0 9 0;
#X connect 7 0 2 0;
#X connect 7 0 3 0;
#X connect 7 0 8 0;
#X connect 8 0 1 0;
#X restore 10 -21 pd hanning-window_calculation;
#N canvas 160 22 407 445 fast-fourier-transform_analysis_window 1;
#X obj 28 23 inlet~;
#X obj 28 410 outlet~;
#X obj 28 77 rfft~;
#X obj 28 56 *~;
#X obj 28 348 rifft~;
#X obj 28 389 *~;
#X obj 44 368 tabreceive~ hanning;
#X obj 92 14 tabreceive~ hanning;
#X obj 28 327 *~;
#X obj 65 327 *~;
#X floatatom 114 276 5 0 0 0 - - -;
#X obj 147 33 inlet~;
#X obj 131 76 rfft~;
#X obj 131 55 *~;
#X obj 249 130 cartopol~;
#X obj 247 175 table Spectrum 512;
#X obj 249 154 tabsend~ Spectrum;
#X obj 28 268 *~;
#X obj 249 196 tabreceive~ Spectrum;
#X obj 114 294 sig~ 0.0001;
#X obj 82 410 block~ 1024 2;
#X connect 0 0 3 0;
#X connect 2 0 17 0;
#X connect 3 0 2 0;
#X connect 4 0 5 0;
#X connect 5 0 1 0;
#X connect 6 0 5 1;
#X connect 7 0 3 1;
#X connect 7 0 13 0;
#X connect 8 0 4 0;
#X connect 9 0 4 1;
#X connect 10 0 19 0;
#X connect 11 0 13 1;
#X connect 13 0 12 0;
#X connect 14 0 16 0;
#X connect 17 0 8 0;
#X connect 19 0 9 1;
#X connect 19 0 8 1;
#X restore 83 177 pd fast-fourier-transform_analysis_window;
#X obj 339 91 AFMS_FilePlayer;
#X obj 55 86 AFMS_FilePlayer;
#X connect 1 0 4 0;
#X connect 2 0 1 1;
#X connect 3 0 2 0;
#X connect 4 0 0 0;
#X connect 4 0 0 1;
#X connect 5 0 3 0;
#X connect 7 0 1 0;
#X connect 8 0 7 1;
#X connect 9 0 7 0;
