#N canvas 1135 22 268 342 10;
#N canvas 190 181 411 257 hanning-window_calculation 0;
#N canvas 0 22 454 304 (subpatch) 0;
#X array hanning 1024 float 2;
#X coords 0 1 1023 0 200 140 1;
#X restore 158 47 graph;
#X obj 15 73 osc~;
#X msg 34 51 0;
#X obj 8 136 tabwrite~ hanning;
#X obj 15 94 *~ -0.5;
#X obj 15 115 +~ 0.5;
#X obj 8 5 loadbang;
#X obj 64 4 bng 15 250 50 0 empty empty empty 17 7 0 10 -262144 -1
-1;
#X obj 15 31 expr 44100/1024;
#X msg 0 157 \; pd dsp 1;
#X connect 1 0 4 0;
#X connect 2 0 1 1;
#X connect 4 0 5 0;
#X connect 5 0 3 0;
#X connect 6 0 2 0;
#X connect 6 0 3 0;
#X connect 6 0 8 0;
#X connect 6 0 9 0;
#X connect 7 0 2 0;
#X connect 7 0 3 0;
#X connect 7 0 8 0;
#X connect 8 0 1 0;
#X restore 13 -14 pd hanning-window_calculation;
#N canvas 787 22 301 277 FFT_ovelap2 0;
#X obj 28 14 inlet~;
#X obj 28 37 rfft~;
#X obj 28 82 *~;
#X obj 53 82 *~;
#X obj 36 103 +~;
#X obj 36 124 sqrt~;
#X obj 36 147 /~ 1024;
#X obj 36 170 expr~ 20*log10($v1);
#X text 159 169 log scale (decibels);
#X obj 36 192 tabsend~ spectrum_ovelap2;
#X obj 75 14 block~ 1024 2;
#X connect 0 0 1 0;
#X connect 1 0 2 1;
#X connect 1 0 2 0;
#X connect 1 1 3 1;
#X connect 1 1 3 0;
#X connect 2 0 4 0;
#X connect 3 0 4 1;
#X connect 4 0 5 0;
#X connect 5 0 6 0;
#X connect 6 0 7 0;
#X connect 7 0 9 0;
#X restore 47 109 pd FFT_ovelap2;
#N canvas 478 22 302 277 FFT_ovelap4 0;
#X obj 28 14 inlet~;
#X obj 28 37 rfft~;
#X obj 28 62 *~;
#X obj 53 62 *~;
#X obj 36 83 +~;
#X obj 36 104 sqrt~;
#X obj 36 127 /~ 1024;
#X obj 36 150 expr~ 20*log10($v1);
#X text 159 149 log scale (decibels);
#X obj 36 172 tabsend~ spectrum_ovelap4;
#X obj 75 14 block~ 1024 4;
#X connect 0 0 1 0;
#X connect 1 0 2 1;
#X connect 1 0 2 0;
#X connect 1 1 3 1;
#X connect 1 1 3 0;
#X connect 2 0 4 0;
#X connect 3 0 4 1;
#X connect 4 0 5 0;
#X connect 5 0 6 0;
#X connect 6 0 7 0;
#X connect 7 0 9 0;
#X restore 54 89 pd FFT_ovelap4;
#N canvas 787 22 301 277 FFT_noOvelap 0;
#X obj 28 14 inlet~;
#X obj 28 37 rfft~;
#X obj 28 82 *~;
#X obj 53 82 *~;
#X obj 36 103 +~;
#X obj 36 124 sqrt~;
#X obj 75 14 block~ 1024;
#X obj 36 147 /~ 1024;
#X obj 36 170 expr~ 20*log10($v1);
#X text 159 169 log scale (decibels);
#X obj 36 192 tabsend~ spectrum_noOverlap;
#X connect 0 0 1 0;
#X connect 1 0 2 1;
#X connect 1 0 2 0;
#X connect 1 1 3 1;
#X connect 1 1 3 0;
#X connect 2 0 4 0;
#X connect 3 0 4 1;
#X connect 4 0 5 0;
#X connect 5 0 7 0;
#X connect 7 0 8 0;
#X connect 8 0 10 0;
#X restore 42 130 pd FFT_noOvelap;
#N canvas 5 22 860 455 spectral_envelopes 1;
#N canvas 0 22 454 304 (subpatch) 0;
#X array spectrum_ovelap4 513 float 4;
#X coords 0 0 512 -96 400 200 1;
#X restore 9 -312 graph;
#N canvas 0 22 454 304 (subpatch) 0;
#X array spectrum_ovelap2 513 float 4;
#X coords 0 0 512 -96 400 200 1;
#X restore 15 -535 graph;
#N canvas 0 22 454 304 (subpatch) 0;
#X array spectrum_noOverlap 513 float 4;
#X coords 0 0 512 -96 400 200 1;
#X restore 445 -535 graph;
#N canvas 0 22 454 304 (subpatch) 0;
#X array spectrum_ovelap8 513 float 4;
#X coords 0 0 512 -96 400 200 1;
#X restore 443 -312 graph;
#X restore 13 6 pd spectral_envelopes;
#N canvas 478 22 302 277 FFT_ovelap8 0;
#X obj 28 14 inlet~;
#X obj 28 37 rfft~;
#X obj 28 62 *~;
#X obj 53 62 *~;
#X obj 36 83 +~;
#X obj 36 104 sqrt~;
#X obj 36 127 /~ 1024;
#X obj 36 150 expr~ 20*log10($v1);
#X text 159 149 log scale (decibels);
#X obj 36 172 tabsend~ spectrum_ovelap8;
#X obj 75 14 block~ 1024 8;
#X connect 0 0 1 0;
#X connect 1 0 2 1;
#X connect 1 0 2 0;
#X connect 1 1 3 1;
#X connect 1 1 3 0;
#X connect 2 0 4 0;
#X connect 3 0 4 1;
#X connect 4 0 5 0;
#X connect 5 0 6 0;
#X connect 6 0 7 0;
#X connect 7 0 9 0;
#X restore 62 69 pd FFT_ovelap8;
#X obj 17 35 osc~ 516.5;
#X connect 6 0 2 0;
#X connect 6 0 1 0;
#X connect 6 0 3 0;
#X connect 6 0 5 0;
