#N canvas 419 23 639 561 10;
#X obj 349 239 s \$0-gain;
#X obj 33 36 inlet~;
#N canvas 541 22 229 311 fft 0;
#X obj 15 94 *~;
#X obj 15 44 inlet~;
#X obj 15 121 rfft~;
#X obj 33 69 tabreceive~ \$0-hann;
#X obj 15 166 *~;
#X obj 54 166 *~;
#X obj 69 133 tabreceive~ \$0-gain;
#X obj 15 243 *~;
#X obj 30 218 tabreceive~ \$0-hann;
#X obj 15 192 rifft~;
#X obj 15 270 outlet~;
#X obj 15 12 block~ \$1 4;
#X connect 0 0 2 0;
#X connect 1 0 0 0;
#X connect 2 0 4 0;
#X connect 2 1 5 0;
#X connect 3 0 0 1;
#X connect 4 0 9 0;
#X connect 5 0 9 1;
#X connect 6 0 5 1;
#X connect 6 0 4 1;
#X connect 7 0 10 0;
#X connect 8 0 7 1;
#X connect 9 0 7 0;
#X restore 33 56 pd fft;
#X obj 423 82 samplerate~;
#X obj 423 32 loadbang;
#X msg 349 218 const 0;
#X obj 314 339 s \$0-gain;
#X obj 423 106 / \$1;
#X obj 408 145 /;
#X obj 408 166 + 0.5;
#X obj 408 186 int;
#X obj 37 7 table \$0-gain 64;
#X obj 497 82 \$1;
#X obj 524 176 / 2;
#X obj 524 219 s \$0-gain;
#X msg 524 198 resize \$1;
#X obj 310 135 /;
#X obj 310 156 + 0.5;
#X obj 310 176 int;
#X obj 291 263 until;
#X obj 314 294 f;
#X obj 364 294 + 1;
#X obj 375 270 sel 21;
#X obj 310 197 t b f b;
#X msg 314 317 \$1 1;
#X msg 531 130 resize \$1;
#X obj 531 154 s \$0-hann;
#X obj 470 489 table \$0-hann 64;
#X obj 469 403 cos;
#X obj 524 328 / \$1;
#X msg 524 307 1;
#X obj 469 269 until;
#X obj 497 241 t f b;
#X obj 469 309 mod \$1;
#X obj 469 289 f 0;
#X obj 499 289 + 1;
#X obj 469 331 t f f;
#X obj 469 383 * 6.28319;
#X obj 469 363 *;
#X obj 469 445 + 0.5;
#X obj 469 424 * -0.5;
#X obj 469 466 tabwrite \$0-hann;
#X obj 423 57 t b b;
#X obj 497 103 t f f;
#X obj 408 9 inlet;
#X obj 310 9 inlet;
#X obj 168 169 dbtorms;
#X obj 168 149 + 3.012;
#X obj 82 188 dbtorms;
#X obj 168 194 t b f;
#X obj 168 221 /;
#X obj 168 263 vline~;
#X obj 33 286 *~;
#X obj 222 168 timer;
#X obj 222 146 t b b;
#X obj 222 200 change;
#X obj 33 308 outlet~;
#X obj 168 242 pack 0 0;
#X obj 82 136 f \$4;
#X obj 82 114 loadbang;
#X obj 168 121 env~ 4096 256;
#X obj 82 159 - 10;
#X obj 349 98 \$3;
#X obj 322 98 \$2;
#X obj 33 244 zexy/z~ 256;
#X connect 1 0 2 0;
#X connect 2 0 60 0;
#X connect 2 0 64 0;
#X connect 3 0 7 0;
#X connect 4 0 42 0;
#X connect 4 0 62 0;
#X connect 4 0 63 0;
#X connect 5 0 0 0;
#X connect 7 0 8 1;
#X connect 7 0 16 1;
#X connect 8 0 9 0;
#X connect 9 0 10 0;
#X connect 10 0 22 1;
#X connect 12 0 43 0;
#X connect 13 0 15 0;
#X connect 15 0 14 0;
#X connect 16 0 17 0;
#X connect 17 0 18 0;
#X connect 18 0 23 0;
#X connect 19 0 20 0;
#X connect 20 0 21 0;
#X connect 20 0 22 0;
#X connect 20 0 24 0;
#X connect 21 0 20 1;
#X connect 22 0 19 1;
#X connect 23 0 19 0;
#X connect 23 1 20 1;
#X connect 23 2 5 0;
#X connect 24 0 6 0;
#X connect 25 0 26 0;
#X connect 28 0 40 0;
#X connect 29 0 38 1;
#X connect 30 0 29 0;
#X connect 31 0 34 0;
#X connect 32 0 31 0;
#X connect 32 1 30 0;
#X connect 33 0 36 0;
#X connect 34 0 35 0;
#X connect 34 0 33 0;
#X connect 35 0 34 1;
#X connect 36 0 38 0;
#X connect 36 1 41 1;
#X connect 37 0 28 0;
#X connect 38 0 37 0;
#X connect 39 0 41 0;
#X connect 40 0 39 0;
#X connect 42 0 3 0;
#X connect 42 1 12 0;
#X connect 43 0 32 0;
#X connect 43 1 25 0;
#X connect 43 1 13 0;
#X connect 44 0 8 0;
#X connect 45 0 16 0;
#X connect 46 0 49 0;
#X connect 47 0 46 0;
#X connect 48 0 50 0;
#X connect 49 0 50 0;
#X connect 49 1 50 1;
#X connect 50 0 57 0;
#X connect 51 0 52 1;
#X connect 52 0 56 0;
#X connect 53 0 55 0;
#X connect 54 0 53 0;
#X connect 54 1 53 1;
#X connect 55 0 57 1;
#X connect 57 0 51 0;
#X connect 58 0 61 0;
#X connect 59 0 58 0;
#X connect 60 0 47 0;
#X connect 60 0 54 0;
#X connect 61 0 48 0;
#X connect 62 0 8 0;
#X connect 63 0 16 0;
#X connect 64 0 52 0;
