#N canvas 723 371 717 380 10;
#X obj 10 65 cnv 15 320 180 empty lowEnd E0 25 85 0 150 -1 -262144
0;
#X obj 371 65 cnv 15 320 180 empty highEnd A\$7 25 85 0 150 -1 -262144
0;
#X obj 371 255 cnv 15 320 70 empty highFreq 3729.31 40 35 0 45 -1 -262144
0;
#X obj 11 255 cnv 15 320 70 empty lowFreq 20.6017 40 35 0 45 -1 -262144
0;
#X floatatom 154 42 5 16 112 0 min: initMin #0-min, f 5;
#X floatatom 224 42 5 16 112 0 MAX: initMax #0-max, f 5;
#X text 15 13 NOISE CLUSTER =============, f 13;
#X text 16 41 MIDI NOTE RANGE:;
#N canvas 59 240 594 344 patch 0;
#X obj 35 267 noise~;
#X obj 26 314 dac~;
#X obj 106 152 mtof;
#X obj 244 197 mtof;
#X msg 372 214 \; lowEnd label \$1;
#X obj 237 57 t b f;
#X obj 181 88 pack f f;
#X msg 482 213 \; highEnd label \$1;
#X msg 244 249 \; highFreq label \$1;
#X msg 125 199 \; lowFreq label \$1;
#X obj 181 27 r \$0-min;
#X obj 237 27 r \$0-max;
#X obj 16 14 loadbang;
#X obj 355 191 maxlib/pitch;
#X obj 465 191 maxlib/pitch;
#X obj 181 111 zexy/minmax;
#X obj 125 177 cyclone/tosymbol;
#X obj 244 227 cyclone/tosymbol;
#X msg 16 37 bang \; initMin 48 \; initMax 60 \; pd dsp 1;
#X obj 35 289 midirangebp~ 32768 100 200 90;
#X floatatom 366 61 5 0 0 0 - - -, f 5;
#X connect 0 0 19 0;
#X connect 2 0 16 0;
#X connect 2 0 19 1;
#X connect 3 0 17 0;
#X connect 3 0 19 2;
#X connect 5 0 6 0;
#X connect 5 1 6 1;
#X connect 6 0 15 0;
#X connect 10 0 6 0;
#X connect 11 0 5 0;
#X connect 12 0 18 0;
#X connect 13 1 4 0;
#X connect 14 1 7 0;
#X connect 15 0 2 0;
#X connect 15 0 13 0;
#X connect 15 1 3 0;
#X connect 15 1 14 0;
#X connect 16 0 9 0;
#X connect 17 0 8 0;
#X connect 19 0 1 1;
#X connect 19 0 1 0;
#X connect 20 0 19 3;
#X restore 639 43 pd patch;
