#N canvas 552 139 756 563 10;
#X obj 139 401 outlet;
#X obj 188 18 inlet list of 32 steps;
#X obj 218 112 table \$0-riddm 32;
#X obj 218 73 list prepend 0;
#X obj 218 93 s \$0-riddm;
#N canvas 773 464 450 300 iterate 0;
#X obj 56 68 until;
#X obj 59 101 f;
#X obj 85 101 + 1;
#X msg 100 65 0;
#X obj 56 45 t f b;
#X obj 66 18 inlet;
#X obj 59 124 outlet;
#X connect 0 0 1 0;
#X connect 1 0 2 0;
#X connect 1 0 6 0;
#X connect 2 0 1 1;
#X connect 3 0 1 1;
#X connect 4 0 0 0;
#X connect 4 1 3 0;
#X connect 5 0 4 0;
#X restore 203 171 pd iterate;
#X obj 98 264 tabread \$0-riddm;
#X obj 205 271 tabread \$0-riddm;
#X obj 205 233 + 1;
#X obj 205 252 % 32;
#X obj 205 290 == 0;
#X obj 98 283 == 1;
#X msg 482 111 \; \$1-riddm const 0;
#X obj 482 92 f \$0;
#X text 239 249 <-wrap the +1;
#N canvas 453 151 554 428 findsync 1;
#X obj 13 6 inlet i;
#X obj 61 6 inlet i+1;
#X obj 121 6 inlet index;
#X obj 13 190 &&;
#X obj 28 171 % 2;
#X obj 131 36 loadbang;
#X obj 13 316 tabread \$0-reinforcement;
#X obj 13 226 sel 1;
#X obj 131 106 s \$0-reinforcement;
#X obj 131 87 list prepend 0;
#X obj 13 124 &&;
#X obj 13 256 f;
#X obj 13 275 + 1;
#X obj 13 295 % 32;
#X msg 191 300 0;
#X obj 79 132 t f f;
#X obj 191 379 outlet;
#X msg 131 55 5 0 1 0 2 0 1 0 3 0 1 0 2 0 1 0 4 0 1 0 2 0 1 0 3 0 1
0 2 0 1 0;
#X obj 131 125 table \$0-reinforcement 32;
#X connect 0 0 10 0;
#X connect 1 0 10 1;
#X connect 2 0 15 0;
#X connect 3 0 7 0;
#X connect 4 0 3 1;
#X connect 5 0 17 0;
#X connect 6 0 16 0;
#X connect 7 0 11 0;
#X connect 7 1 14 0;
#X connect 9 0 8 0;
#X connect 10 0 3 0;
#X connect 11 0 12 0;
#X connect 12 0 13 0;
#X connect 13 0 6 0;
#X connect 14 0 16 0;
#X connect 15 0 4 0;
#X connect 15 1 11 1;
#X connect 17 0 9 0;
#X restore 174 320 pd findsync;
#X obj 258 354 list;
#X obj 140 379 list;
#X msg 472 261 bang;
#X msg 34 300 bang;
#X obj 203 190 t f f f b;
#X obj 188 41 t b b a b b b;
#X obj 174 352 list prepend;
#X msg 203 152 32;
#X connect 1 0 21 0;
#X connect 3 0 4 0;
#X connect 5 0 20 0;
#X connect 6 0 11 0;
#X connect 7 0 10 0;
#X connect 8 0 9 0;
#X connect 9 0 7 0;
#X connect 10 0 15 1;
#X connect 11 0 15 0;
#X connect 13 0 12 0;
#X connect 15 0 22 0;
#X connect 16 0 22 1;
#X connect 17 0 0 0;
#X connect 18 0 22 1;
#X connect 19 0 17 0;
#X connect 20 0 6 0;
#X connect 20 1 8 0;
#X connect 20 2 15 2;
#X connect 21 0 19 0;
#X connect 21 1 23 0;
#X connect 21 2 3 0;
#X connect 21 3 18 0;
#X connect 21 5 13 0;
#X connect 22 0 16 0;
#X connect 22 0 17 1;
#X connect 23 0 5 0;
