#N canvas 570 414 756 300 10;
#X obj 83 69 inlet list of 16 steps;
#N canvas 251 279 697 450 fill_tables 0;
#X obj 219 112 table \$0-riddm 32;
#X obj 219 73 list prepend 0;
#X obj 219 93 s \$0-riddm;
#N canvas 773 464 450 300 iterate 0;
#X obj 56 68 until;
#X obj 59 101 f;
#X obj 85 101 + 1;
#X msg 100 65 0;
#X obj 56 45 t f b;
#X obj 66 18 inlet;
#X obj 59 124 outlet;
#X connect 0 0 1 0;
#X connect 1 0 2 0;
#X connect 1 0 6 0;
#X connect 2 0 1 1;
#X connect 3 0 1 1;
#X connect 4 0 0 0;
#X connect 4 1 3 0;
#X connect 5 0 4 0;
#X restore 203 171 pd iterate;
#X obj 98 264 tabread \$0-riddm;
#X obj 205 271 tabread \$0-riddm;
#X obj 204 233 + 1;
#X obj 205 252 % 32;
#X obj 205 290 == 0;
#X obj 98 283 == 1;
#X msg 482 111 \; \$1-riddm const 0;
#X obj 482 92 f \$0;
#X obj 188 -9 inlet;
#X msg 203 152 16;
#X text 239 249 <-wrap the +1;
#N canvas 468 161 492 428 findsync 0;
#X obj 13 6 inlet i;
#X obj 61 6 inlet i+1;
#X obj 121 6 inlet index;
#X obj 13 190 &&;
#X obj 28 171 % 2;
#X obj 198 53 loadbang;
#X obj 13 316 tabread \$0-reinforcement;
#X obj 13 226 sel 1;
#X obj 198 110 s \$0-reinforcement;
#X msg 198 72 4 0 1 0 2 0 1 0 3 0 1 0 2 0 1 0;
#X obj 198 91 list prepend 0;
#X obj 198 129 table \$0-reinforcement 16;
#X obj 13 124 &&;
#X obj 13 256 f;
#X obj 13 275 + 1;
#X obj 13 295 % 32;
#X msg 191 300 0;
#X obj 79 132 t f f;
#X obj 191 379 outlet;
#X connect 0 0 12 0;
#X connect 1 0 12 1;
#X connect 2 0 17 0;
#X connect 3 0 7 0;
#X connect 4 0 3 1;
#X connect 5 0 9 0;
#X connect 6 0 18 0;
#X connect 7 0 13 0;
#X connect 7 1 16 0;
#X connect 9 0 10 0;
#X connect 10 0 8 0;
#X connect 12 0 3 0;
#X connect 13 0 14 0;
#X connect 14 0 15 0;
#X connect 15 0 6 0;
#X connect 16 0 18 0;
#X connect 17 0 4 0;
#X connect 17 1 13 1;
#X restore 174 320 pd findsync;
#X obj 299 341 list;
#X obj 140 379 list;
#X msg 472 261 bang;
#X msg 34 300 bang;
#X obj 203 190 t f f f b;
#X obj 188 11 t b b a b b b;
#X obj 174 352 list prepend;
#X obj 139 398 outlet;
#X connect 1 0 2 0;
#X connect 3 0 20 0;
#X connect 4 0 9 0;
#X connect 5 0 8 0;
#X connect 6 0 7 0;
#X connect 7 0 5 0;
#X connect 8 0 15 1;
#X connect 9 0 15 0;
#X connect 11 0 10 0;
#X connect 12 0 21 0;
#X connect 13 0 3 0;
#X connect 15 0 22 0;
#X connect 16 0 22 1;
#X connect 17 0 23 0;
#X connect 18 0 22 1;
#X connect 19 0 17 0;
#X connect 20 0 4 0;
#X connect 20 1 6 0;
#X connect 20 2 15 2;
#X connect 21 0 19 0;
#X connect 21 1 13 0;
#X connect 21 2 1 0;
#X connect 21 3 18 0;
#X connect 21 5 11 0;
#X connect 22 0 16 0;
#X connect 22 0 17 1;
#X restore 110 155 pd fill_tables;
#X obj 83 136 t b a;
#X msg 223 119 1 0 0 1 0 0 1 1 0 1 1 1 0 0 0 0;
#X obj 307 13 loadbang;
#X obj 307 32 f \$0;
#X obj 307 83 table \$0-order 32;
#X msg 307 51 \; \$1-order 0 2 1 3 0 14 13 15 12 6 5 7 4 10 9 11 8
;
#X obj 110 174 outlet;
#X connect 0 0 2 0;
#X connect 1 0 8 0;
#X connect 2 1 1 0;
#X connect 3 0 2 0;
#X connect 4 0 5 0;
#X connect 5 0 7 0;
