#N canvas 558 219 800 600 16;
#X obj 261 219 gatedKeyDown;
#X text 271 66 taken from Jorge Marcos, f 12;
#X obj 12 20 hradio 30 1 0 3 empty empty empty 0 -8 0 10 -262144 -1
-1 2;
#X obj 13 240 print RAW;
#X obj 261 283 print JORGE;
#X msg 13 208 \$2 \$1;
#X text 30 467 https://www.hackster.io/lwm-music/making-a-virtual-qwerty-midi-keyboard-using-pure-data-210437
, f 51;
#X text 12 273 TOO MUCH!;
#X obj 514 281 print QUERTY;
#X obj 514 214 poly 1 1, f 10;
#X obj 514 250 pack 0 0 0;
#X obj 514 185 spigot;
#X obj 571 153 == 2;
#X obj 12 56 s route;
#X obj 571 123 r route;
#X text 30 437 THIRD SOLUTION IS SIMILAR TO THE LWM-QUERTY:;
#X obj 13 112 keyname, f 8;
#X obj 13 174 spigot, f 10;
#X obj 110 111 r route;
#X obj 13 142 pack f s;
#X obj 110 141 == 0;
#X obj 261 153 keyname;
#X obj 261 252 list append;
#X text 215 317 Only reports ATTACKS;
#X obj 261 186 spigot, f 10;
#X obj 358 123 r route;
#X obj 358 153 == 1;
#X text 516 315 ready for polyphony;
#X obj 514 94 makekeyboard 97 98 99 100;
#X connect 0 0 22 0;
#X connect 2 0 13 0;
#X connect 5 0 3 0;
#X connect 9 0 10 0;
#X connect 9 1 10 1;
#X connect 9 2 10 2;
#X connect 10 0 8 0;
#X connect 11 0 9 0;
#X connect 12 0 11 1;
#X connect 14 0 12 0;
#X connect 16 0 19 0;
#X connect 16 1 19 1;
#X connect 17 0 5 0;
#X connect 18 0 20 0;
#X connect 19 0 17 0;
#X connect 20 0 17 1;
#X connect 21 0 24 0;
#X connect 21 1 22 1;
#X connect 22 0 4 0;
#X connect 24 0 0 0;
#X connect 25 0 26 0;
#X connect 26 0 24 1;
#X connect 28 0 11 0;
