#N canvas 85 274 1063 440 16;
#X obj 45 17 notein;
#X obj 340 35 ctlin;
#X floatatom 15 48 5 0 0 0 - - -;
#X floatatom 73 48 5 0 0 0 - - -;
#X floatatom 200 105 5 0 0 0 - - -;
#X floatatom 303 138 5 0 0 0 - - -;
#X floatatom 344 138 5 0 0 0 - - -;
#X floatatom 387 139 5 0 0 0 - - -;
#X obj 495 37 bendin;
#X floatatom 469 140 5 0 0 0 - - -;
#X floatatom 534 143 5 0 0 0 - - -;
#X obj 31 266 noteout;
#X obj 625 188 pgmout;
#X floatatom 600 102 5 0 0 0 - - -;
#X floatatom 691 99 5 0 0 0 - - -;
#X obj 596 39 pgmin;
#X obj 305 215 ctlout;
#X obj 472 215 bendout;
#N canvas 273 23 691 263 changescale 0;
#N canvas 292 98 555 409 changescale2 0;
#X floatatom 285 64 5 0 0 0 - - -;
#X obj 285 100 t f f;
#X obj 285 136 / 12;
#X obj 342 135 % 12;
#X obj 285 172 i;
#X obj 285 208 * 12;
#X floatatom 285 281 5 0 0 0 - - -;
#X text 352 30 MIDI note;
#X obj 285 29 inlet;
#X obj 284 314 outlet;
#X obj 285 245 +;
#N canvas 475 154 916 426 corregirNota 0;
#X obj 17 15 inlet;
#X obj 17 95 outlet;
#X obj 18 136 table escala;
#X obj 17 53 tabread escala;
#X msg 203 -2 \; escala read penta.txt;
#X msg 202 54 \; escala read mayor.txt;
#X msg 201 109 \; escala read menor.txt;
#X msg 201 164 \; escala read cromatica.txt;
#X connect 0 0 3 0;
#X connect 3 0 1 0;
#X restore 343 174 pd corregirNota;
#X connect 0 0 1 0;
#X connect 1 0 2 0;
#X connect 1 1 3 0;
#X connect 2 0 4 0;
#X connect 3 0 11 0;
#X connect 4 0 5 0;
#X connect 5 0 10 0;
#X connect 6 0 9 0;
#X connect 8 0 0 0;
#X connect 10 0 6 0;
#X connect 11 0 10 1;
#X restore 48 131 pd changescale2;
#X obj 48 48 inlet;
#X obj 115 48 inlet;
#X obj 175 47 inlet;
#X obj 48 178 outlet;
#X obj 115 178 outlet;
#X obj 185 178 outlet;
#N canvas 771 124 508 518 filtrach10 0;
#X obj 34 29 inlet;
#X obj 103 30 inlet;
#X obj 44 270 outlet;
#X obj 191 269 outlet;
#X obj 40 65 swap;
#X obj 43 107 pack;
#X obj 44 147 route 10;
#X obj 148 178 unpack 1 1;
#X obj 149 211 swap;
#X obj 44 178 pack 1 10;
#X obj 44 212 unpack;
#X obj 117 270 outlet;
#X connect 0 0 4 0;
#X connect 1 0 4 1;
#X connect 4 0 5 0;
#X connect 4 1 5 1;
#X connect 5 0 6 0;
#X connect 6 0 9 0;
#X connect 6 1 7 0;
#X connect 7 0 8 0;
#X connect 7 1 8 1;
#X connect 8 0 2 0;
#X connect 8 1 3 0;
#X connect 9 0 10 0;
#X connect 10 0 11 0;
#X connect 10 1 3 0;
#X restore 48 92 pd filtrach10;
#X text 192 93 porquería para corregir solo las notas que no son ch10
;
#X connect 0 0 4 0;
#X connect 1 0 7 0;
#X connect 2 0 5 0;
#X connect 3 0 7 1;
#X connect 7 0 0 0;
#X connect 7 2 6 0;
#X restore 17 122 pd changescale;
#N canvas 146 197 471 393 allnotesoff 0;
#X obj 114 333 noteout;
#X msg 148 292 0;
#X obj 68 92 until;
#X msg 68 24 16;
#X obj 68 126 i;
#X obj 107 127 + 1;
#X msg 24 92 0;
#X obj 68 55 t f b;
#X obj 68 226 until;
#X msg 69 166 127;
#X obj 68 262 i;
#X obj 113 261 + 1;
#X obj 69 193 t f b;
#X msg 25 220 0;
#X obj 192 291 + 1;
#X obj 67 -10 inlet;
#X connect 1 0 0 1;
#X connect 2 0 4 0;
#X connect 3 0 7 0;
#X connect 4 0 5 0;
#X connect 4 0 9 0;
#X connect 4 0 14 0;
#X connect 5 0 4 1;
#X connect 6 0 4 0;
#X connect 7 0 2 0;
#X connect 7 1 6 0;
#X connect 8 0 10 0;
#X connect 9 0 12 0;
#X connect 10 0 11 0;
#X connect 11 0 10 1;
#X connect 11 0 0 0;
#X connect 11 0 1 0;
#X connect 12 0 8 0;
#X connect 12 1 13 0;
#X connect 13 0 10 0;
#X connect 14 0 0 2;
#X connect 15 0 3 0;
#X restore 278 324 pd allnotesoff;
#X msg 277 288 bang;
#X obj 612 260 midiin;
#X obj 610 365 midiout;
#X obj 528 311 print a;
#X floatatom 661 305 5 0 0 0 - - -;
#X msg 773 327 1;
#X msg 716 50 1;
#X msg 673 25 1;
#X msg 181 156 10;
#X connect 0 0 2 0;
#X connect 0 1 3 0;
#X connect 0 2 4 0;
#X connect 1 0 5 0;
#X connect 1 1 6 0;
#X connect 1 2 7 0;
#X connect 2 0 11 0;
#X connect 3 0 11 1;
#X connect 4 0 28 0;
#X connect 5 0 16 0;
#X connect 6 0 16 1;
#X connect 7 0 16 2;
#X connect 8 0 9 0;
#X connect 8 1 10 0;
#X connect 9 0 17 0;
#X connect 10 0 17 1;
#X connect 13 0 12 0;
#X connect 14 0 12 1;
#X connect 15 0 13 0;
#X connect 15 1 14 0;
#X connect 20 0 19 0;
#X connect 21 0 23 0;
#X connect 21 1 24 0;
#X connect 25 0 22 1;
#X connect 26 0 14 0;
#X connect 27 0 13 0;
#X connect 28 0 11 2;
