#N canvas 61 40 1005 669 12;
#X obj 154 200 f;
#X obj 185 200 + 1;
#X floatatom 160 243 5 0 0 0 - - -;
#X obj 152 141 tgl 15 0 empty empty empty 0 -6 0 8 -262144 -1 -1 0
1;
#X obj 160 293 sel 0 1 2 3 4 5 6 7;
#X msg 164 360 bang;
#X msg 231 362 bang;
#X msg 291 363 bang;
#X obj 159 265 % 8;
#X obj 19 362 hradio 15 1 0 8 empty empty empty 0 -6 0 8 -262144 -1
-1 0;
#X obj 184 1 vsl 15 128 100 1000 0 0 empty empty empty 0 -8 0 8 -262144
-1 -1 2117 1;
#X floatatom 184 139 5 0 0 0 - - -;
#X obj 192 537 noteout 10;
#X msg 191 476 40;
#X msg 233 477 42;
#X msg 313 478 100;
#X msg 149 475 36;
#X obj 184 -52 loadbang;
#X msg 184 -26 250;
#X obj 152 169 metro;
#X obj 311 -7 metro 200;
#X obj 311 23 random 12;
#X obj 311 -32 tgl 15 0 empty empty empty 0 -6 0 8 -262144 -1 -1 0
1;
#X floatatom 371 -32 5 0 0 0 - - -;
#X obj 311 50 + 36;
#X obj 311 120 noteout 10;
#X msg 344 88 100;
#X text 312 147 genera notas aleatorias de bateria (canal 10) entre
36 y 47 (ambos incluidos). La nota 36 corresponde a un bombo.... para
ver todas las correspondencias: http://en.wikipedia.org/wiki/File:GMStandardDrumMap.gif
;
#X text 6 377 objeto gráfico HRadio;
#X obj 461 372 f;
#X floatatom 479 347 5 0 0 0 - - -;
#X obj 521 373 f;
#X floatatom 539 348 5 0 0 0 - - -;
#X obj 580 373 f;
#X floatatom 598 348 5 0 0 0 - - -;
#X obj 640 374 f;
#X floatatom 658 349 5 0 0 0 - - -;
#X obj 697 374 f;
#X floatatom 715 349 5 0 0 0 - - -;
#X obj 757 375 f;
#X floatatom 775 350 5 0 0 0 - - -;
#X obj 816 375 f;
#X floatatom 834 350 5 0 0 0 - - -;
#X obj 876 376 f;
#X floatatom 894 351 5 0 0 0 - - -;
#X obj 461 463 noteout 1;
#X msg 491 435 100;
#X obj 460 298 sel 0 1 2 3 4 5 6 7;
#X text 462 489 este fragmento se podria acoplar con el "contador \,
%8;
#X connect 0 0 1 0;
#X connect 0 0 2 0;
#X connect 1 0 0 1;
#X connect 2 0 8 0;
#X connect 3 0 19 0;
#X connect 4 0 5 0;
#X connect 4 0 7 0;
#X connect 4 2 5 0;
#X connect 4 2 6 0;
#X connect 4 4 5 0;
#X connect 4 4 7 0;
#X connect 4 5 7 0;
#X connect 4 6 5 0;
#X connect 4 6 6 0;
#X connect 4 7 7 0;
#X connect 5 0 16 0;
#X connect 5 0 15 0;
#X connect 6 0 13 0;
#X connect 6 0 15 0;
#X connect 7 0 14 0;
#X connect 7 0 15 0;
#X connect 8 0 4 0;
#X connect 8 0 9 0;
#X connect 10 0 11 0;
#X connect 11 0 19 1;
#X connect 13 0 12 0;
#X connect 14 0 12 0;
#X connect 15 0 12 1;
#X connect 16 0 12 0;
#X connect 17 0 18 0;
#X connect 18 0 10 0;
#X connect 19 0 0 0;
#X connect 20 0 21 0;
#X connect 21 0 24 0;
#X connect 22 0 20 0;
#X connect 23 0 20 1;
#X connect 24 0 25 0;
#X connect 24 0 26 0;
#X connect 26 0 25 1;
#X connect 29 0 45 0;
#X connect 29 0 46 0;
#X connect 30 0 29 1;
#X connect 31 0 45 0;
#X connect 31 0 46 0;
#X connect 32 0 31 1;
#X connect 33 0 45 0;
#X connect 33 0 46 0;
#X connect 34 0 33 1;
#X connect 35 0 45 0;
#X connect 35 0 46 0;
#X connect 36 0 35 1;
#X connect 37 0 45 0;
#X connect 37 0 46 0;
#X connect 38 0 37 1;
#X connect 39 0 45 0;
#X connect 39 0 46 0;
#X connect 40 0 39 1;
#X connect 41 0 45 0;
#X connect 41 0 46 0;
#X connect 42 0 41 1;
#X connect 43 0 46 0;
#X connect 43 0 45 0;
#X connect 44 0 43 1;
#X connect 46 0 45 1;
#X connect 47 0 29 0;
#X connect 47 1 31 0;
#X connect 47 2 33 0;
#X connect 47 3 35 0;
#X connect 47 4 37 0;
#X connect 47 5 39 0;
#X connect 47 6 41 0;
#X connect 47 7 43 0;
