#N canvas 473 90 828 466 10;
#X obj 91 82 tgl 15 0 empty empty empty 17 7 0 10 -262144 -1 -1 0 1
;
#X floatatom 150 82 5 0 0 0 - - -;
#X msg 150 53 250;
#X obj 99 124 metro 250;
#X obj 99 182 random 12;
#X floatatom 99 217 5 0 0 0 - - -;
#X obj 99 255 + 36;
#X obj 89 400 noteout 1;
#X msg 117 343 100;
#X floatatom 71 343 5 0 0 0 - - -;
#X msg 273 347 100;
#X msg 311 347 0;
#X obj 253 289 t f b b b;
#X floatatom 227 347 5 0 0 0 - - -;
#X obj 97 285 t f b;
#X obj 228 400 noteout 1;
#X text 349 283 que sucede cuando cambiamos el final de esta forma?
estudiar la documentación MIDI para encontrar la respuesta;
#X msg 458 137 100;
#X msg 496 137 0;
#X obj 438 79 t f b b b;
#X floatatom 412 137 5 0 0 0 - - -;
#X obj 412 194 print;
#X obj 412 169 pack 1 1;
#X floatatom 438 55 5 0 0 0 - - -;
#X msg 437 31 bang;
#X connect 0 0 3 0;
#X connect 1 0 3 1;
#X connect 2 0 1 0;
#X connect 3 0 4 0;
#X connect 4 0 5 0;
#X connect 5 0 6 0;
#X connect 6 0 14 0;
#X connect 8 0 7 1;
#X connect 9 0 7 0;
#X connect 10 0 15 1;
#X connect 11 0 15 1;
#X connect 12 0 13 0;
#X connect 12 1 10 0;
#X connect 12 2 13 0;
#X connect 12 3 11 0;
#X connect 13 0 15 0;
#X connect 14 0 9 0;
#X connect 14 1 8 0;
#X connect 17 0 22 1;
#X connect 18 0 22 1;
#X connect 19 0 20 0;
#X connect 19 1 17 0;
#X connect 19 2 20 0;
#X connect 19 3 18 0;
#X connect 20 0 22 0;
#X connect 22 0 21 0;
#X connect 23 0 19 0;
#X connect 24 0 23 0;
