#N canvas 216 53 518 396 16;
#X obj -27 90 metro;
#X obj -27 184 makenote;
#X obj -27 227 noteout;
#X msg 125 85 1;
#X text 161 83 legato;
#X text 254 83 mas legato;
#X msg 217 86 0.5;
#X msg 346 84 2;
#X text 376 83 stacatto;
#X obj 114 291 pgmout;
#X msg 114 229 organo;
#X msg 190 230 flauta;
#X msg 190 258 73;
#X floatatom 286 268 4 0 0 0 - - -;
#X obj 125 124 t b f;
#X msg 114 259 18;
#X msg -27 153 \$1 127;
#X floatatom -17 119 4 0 0 0 - - -;
#X obj -27 66 tgl 15 0 empty empty empty 17 7 0 10 -262144 -1 -1 0
1;
#X floatatom 19 26 5 0 0 0 - - -;
#X obj 126 159 / 2;
#X msg 19 -7 200;
#X obj 50 123 * 0.9;
#X connect 0 0 16 0;
#X connect 1 0 2 0;
#X connect 1 1 2 1;
#X connect 3 0 14 0;
#X connect 6 0 14 0;
#X connect 7 0 14 0;
#X connect 10 0 15 0;
#X connect 11 0 12 0;
#X connect 12 0 9 0;
#X connect 13 0 9 0;
#X connect 14 0 20 0;
#X connect 14 1 20 1;
#X connect 15 0 9 0;
#X connect 16 0 1 0;
#X connect 17 0 16 0;
#X connect 18 0 0 0;
#X connect 19 0 0 1;
#X connect 19 0 22 0;
#X connect 21 0 19 0;
#X connect 22 0 1 2;
