#N canvas 169 132 644 544 24;
#X floatatom 49 93 5 0 0 0 - - -;
#X obj 49 129 t f f;
#X obj 49 165 / 12;
#X obj 106 164 % 12;
#X obj 49 201 i;
#X obj 49 237 * 12;
#X floatatom 49 310 5 0 0 0 - - -;
#X text 116 59 MIDI note;
#X obj 49 58 inlet;
#X obj 48 343 outlet;
#X obj 49 274 +;
#N canvas 238 131 916 426 corregirNota 0;
#X obj 17 15 inlet;
#X obj 17 95 outlet;
#X obj 18 136 table escala;
#X obj 17 53 tabread escala;
#X msg 203 -2 \; escala read penta.txt;
#X msg 202 54 \; escala read mayor.txt;
#X msg 201 109 \; escala read menor.txt;
#X msg 201 164 \; escala read cromatica.txt;
#X connect 0 0 3 0;
#X connect 3 0 1 0;
#X restore 107 203 pd corregirNota;
#X connect 0 0 1 0;
#X connect 1 0 2 0;
#X connect 1 1 3 0;
#X connect 2 0 4 0;
#X connect 3 0 11 0;
#X connect 4 0 5 0;
#X connect 5 0 10 0;
#X connect 6 0 9 0;
#X connect 8 0 0 0;
#X connect 10 0 6 0;
#X connect 11 0 10 1;
