#N canvas 142 266 783 597 10;
#N canvas 0 22 450 300 (subpatch) 0;
#X array \$0-file 4e+06 float 2;
#X coords 0 1 4e+06 -1 200 170 1;
#X restore 19 20 graph;
#X obj 20 203 cnv 15 135 25 empty empty empty 20 12 0 14 -261234 -66577
0;
#X obj 24 299 soundfiler;
#X obj 24 361 s \$0-size;
#X obj 24 232 openpanel;
#X msg 24 276 read -resize \$1 \$2-file;
#X obj 24 254 pack s \$0;
#X obj 24 208 bng 15 250 50 0 empty empty empty 17 7 0 10 -262144 -1
-1;
#X obj 24 339 f;
#X obj 32 319 bng 17 250 50 0 empty empty empty 17 7 0 10 -262144 -1
-1;
#X text 46 207 open a soundfile;
#X obj 395 418 r \$0-size;
#X obj 395 439 - 3;
#X obj 374 482 +~ 1;
#X obj 374 461 *~ 1;
#X obj 379 354 phasor~;
#X obj 255 41 loadbang;
#X obj 255 64 samplerate~;
#X obj 240 85 /;
#X obj 240 21 r \$0-size;
#X msg 240 105 1 \$1;
#X obj 240 125 /;
#X obj 240 147 f;
#X obj 340 264 * 1;
#X obj 308 388 samphold~;
#X obj 364 418 *~;
#X obj 410 323 cnv 15 180 25 empty empty empty 20 12 0 14 -261234 -66577
0;
#X msg 418 327 0;
#X text 445 327 reset (start file);
#X obj 303 337 cnv 15 60 25 empty empty empty 20 12 0 14 -261234 -66577
0;
#X obj 308 342 tgl 15 0 empty empty empty 17 7 0 10 -262144 -1 -1 0
1;
#X text 327 342 loop?;
#X obj 308 365 sig~ 0;
#X obj 359 533 cnv 15 220 25 empty empty empty 20 12 0 14 -162280 -66577
0;
#X obj 364 536 dac~;
#X text 397 537 angelfaraldo@gmail.com - 2012;
#X obj 374 506 tabread4~ \$0-file;
#X obj 379 323 * 1;
#X obj 371 264 cnv 15 140 25 empty empty empty 20 12 0 14 -261234 -66577
0;
#X msg 379 268 -1;
#X msg 409 268 1;
#X obj 379 291 t b f;
#X text 439 267 direction;
#X obj 397 19 cnv 15 250 225 empty empty empty 20 12 0 14 -204786 -66577
0;
#X obj 277 127 cnv 15 150 40 empty empty empty 20 12 0 14 -261234 -66577
0;
#X text 299 130 transposition;
#X text 276 150 (equally tempered units);
#X msg 450 46 1 \$1;
#X obj 450 67 /;
#X msg 450 88 2 \$1;
#X obj 450 110 pow;
#X floatatom 450 131 5 0 0 0 - - -;
#X obj 432 176 pow;
#X floatatom 432 199 5 0 0 0 - - -;
#X obj 429 153 swap;
#X text 485 87 2 represents the "octave";
#X text 485 102 (= doubling frequency);
#X obj 432 221 t b f;
#X floatatom 388 131 5 0 0 0 - - -;
#X obj 446 20 cnv 15 200 25 empty empty empty 20 12 0 14 -261234 -66577
0;
#X floatatom 450 26 5 0 0 0 - - -;
#X text 485 19 number of equal divisions;
#X text 485 29 per octave;
#X text 415 467 incoming signal is index. Indices should range from
1 to (size-2) so that the 4-point interpolation is meaningful;
#X connect 2 0 8 0;
#X connect 4 0 6 0;
#X connect 5 0 2 0;
#X connect 6 0 5 0;
#X connect 7 0 4 0;
#X connect 8 0 3 0;
#X connect 9 0 8 0;
#X connect 11 0 12 0;
#X connect 12 0 14 1;
#X connect 13 0 36 0;
#X connect 14 0 13 0;
#X connect 15 0 24 1;
#X connect 15 0 25 1;
#X connect 16 0 17 0;
#X connect 17 0 18 1;
#X connect 18 0 20 0;
#X connect 19 0 18 0;
#X connect 20 0 21 0;
#X connect 21 0 22 0;
#X connect 22 0 23 0;
#X connect 23 0 37 0;
#X connect 24 0 25 0;
#X connect 25 0 14 0;
#X connect 27 0 15 1;
#X connect 30 0 32 0;
#X connect 32 0 24 0;
#X connect 36 0 34 0;
#X connect 36 0 34 1;
#X connect 37 0 15 0;
#X connect 39 0 41 0;
#X connect 40 0 41 0;
#X connect 41 0 37 0;
#X connect 41 1 37 1;
#X connect 47 0 48 0;
#X connect 48 0 49 0;
#X connect 49 0 50 0;
#X connect 50 0 51 0;
#X connect 51 0 54 1;
#X connect 52 0 53 0;
#X connect 53 0 57 0;
#X connect 54 0 52 0;
#X connect 54 1 52 1;
#X connect 57 0 23 0;
#X connect 57 1 23 1;
#X connect 58 0 54 0;
#X connect 60 0 47 0;
