#N canvas 696 23 540 621 10;
#X obj 150 442 osc~;
#X obj 175 232 r ratio;
#X obj 168 395 *~;
#X obj 186 331 r index;
#X obj 186 374 line~;
#X msg 186 352 \$1 20;
#X obj 168 307 osc~;
#X obj 150 420 +~;
#X obj 168 285 * 2;
#X obj 175 254 t b f;
#X obj 150 210 mtof;
#X obj 219 177 unpack;
#X obj 245 468 line~;
#X obj 230 494 *~;
#X obj 285 404 / 127;
#X obj 336 404 r A;
#X obj 253 382 sel 0;
#X obj 256 403 r R;
#X obj 230 517 *~ 0.1;
#X obj 208 127 makenote;
#X obj 219 154 pack;
#X obj 208 40 metro 1100;
#X obj 208 61 random 40;
#X obj 208 83 + 40;
#X msg 208 104 \$1 80 1000;
#X obj 208 20 tgl 15 0 empty empty empty 17 7 0 10 -262144 -1 -1 0
1;
#X obj 285 425 pack 0 10;
#X obj 205 425 pack 0 50;
#X obj 30 20 cnv 15 150 100 empty empty empty 20 12 0 14 -261234 -66577
0;
#X floatatom 81 68 5 0 0 0 1: - ratio;
#X text 84 45 ratio C:M;
#X text 32 23 FM SYNTHESIS CONTROLS;
#X floatatom 81 91 6 0 0 0 index= - index;
#X floatatom 145 71 5 0 0 0 A - A;
#X floatatom 145 91 5 0 0 0 R - R;
#X obj 216 540 cnv 15 290 25 empty empty empty 20 12 0 14 -162280 -66577
0;
#X obj 221 544 dac~;
#X text 259 543 angelfaraldo@gmail.com - 2008 (rev 2012);
#X obj 255 154 r FM.Synth;
#X connect 0 0 13 0;
#X connect 1 0 9 0;
#X connect 2 0 7 1;
#X connect 3 0 5 0;
#X connect 4 0 2 1;
#X connect 5 0 4 0;
#X connect 6 0 2 0;
#X connect 7 0 0 0;
#X connect 8 0 6 0;
#X connect 9 0 8 0;
#X connect 9 1 8 1;
#X connect 10 0 7 0;
#X connect 10 0 8 0;
#X connect 11 0 10 0;
#X connect 11 1 16 0;
#X connect 12 0 13 1;
#X connect 13 0 18 0;
#X connect 14 0 26 0;
#X connect 15 0 26 1;
#X connect 16 0 27 0;
#X connect 16 1 14 0;
#X connect 17 0 27 1;
#X connect 18 0 36 0;
#X connect 18 0 36 1;
#X connect 19 0 20 0;
#X connect 19 1 20 1;
#X connect 20 0 11 0;
#X connect 21 0 22 0;
#X connect 22 0 23 0;
#X connect 23 0 24 0;
#X connect 24 0 19 0;
#X connect 25 0 21 0;
#X connect 26 0 12 0;
#X connect 27 0 12 0;
#X connect 38 0 11 0;
