#N canvas 568 484 628 650 10;
#N canvas 394 81 715 529 calculations-1 0;
#X obj 66 191 *~;
#X obj 169 193 *~;
#X obj 191 104 r o2o1;
#X obj 148 104 r~ o2;
#X obj 264 188 *~;
#X obj 257 103 r~ o3;
#X obj 300 103 r o3o1;
#X obj 393 197 *~;
#X obj 366 102 r~ o4;
#X obj 410 102 r o4o1;
#X obj 207 325 +~;
#X obj 240 325 r frequency;
#X obj 216 382 +~;
#X obj 216 415 s~ freq-1;
#X obj 35 102 r~ o1;
#X obj 80 102 r o1o1;
#X obj 183 42 r baseFreq-1;
#X obj 80 148 *;
#X obj 194 154 *;
#X obj 298 154 *;
#X obj 410 154 *;
#X obj 80 123 / 25;
#X obj 191 130 / 25;
#X obj 298 129 / 25;
#X obj 410 129 / 25;
#X connect 0 0 10 0;
#X connect 1 0 10 0;
#X connect 2 0 22 0;
#X connect 3 0 1 0;
#X connect 4 0 10 0;
#X connect 5 0 4 0;
#X connect 6 0 23 0;
#X connect 7 0 10 0;
#X connect 8 0 7 0;
#X connect 9 0 24 0;
#X connect 10 0 12 0;
#X connect 11 0 12 1;
#X connect 12 0 13 0;
#X connect 14 0 0 0;
#X connect 15 0 21 0;
#X connect 16 0 17 1;
#X connect 16 0 18 1;
#X connect 16 0 19 1;
#X connect 16 0 20 1;
#X connect 17 0 0 1;
#X connect 18 0 1 1;
#X connect 19 0 4 1;
#X connect 20 0 7 1;
#X connect 21 0 17 0;
#X connect 22 0 18 0;
#X connect 23 0 19 0;
#X connect 24 0 20 0;
#X restore 24 533 pd calculations-1;
#N canvas 394 81 715 529 calculations-2 0;
#X obj 44 162 *~;
#X obj 147 164 *~;
#X obj 126 75 r~ o2;
#X obj 242 159 *~;
#X obj 235 74 r~ o3;
#X obj 371 168 *~;
#X obj 344 73 r~ o4;
#X obj 185 296 +~;
#X obj 218 296 r frequency;
#X obj 194 353 +~;
#X obj 13 73 r~ o1;
#X obj 58 119 *;
#X obj 172 125 *;
#X obj 276 125 *;
#X obj 388 125 *;
#X obj 161 13 r baseFreq-2;
#X obj 58 73 r o1o2;
#X obj 169 75 r o2o2;
#X obj 278 74 r o3o2;
#X obj 388 73 r o4o2;
#X obj 194 386 s~ freq-2;
#X obj 58 94 / 25;
#X obj 169 101 / 25;
#X obj 276 100 / 25;
#X obj 388 100 / 25;
#X connect 0 0 7 0;
#X connect 1 0 7 0;
#X connect 2 0 1 0;
#X connect 3 0 7 0;
#X connect 4 0 3 0;
#X connect 5 0 7 0;
#X connect 6 0 5 0;
#X connect 7 0 9 0;
#X connect 8 0 9 1;
#X connect 9 0 20 0;
#X connect 10 0 0 0;
#X connect 11 0 0 1;
#X connect 12 0 1 1;
#X connect 13 0 3 1;
#X connect 14 0 5 1;
#X connect 15 0 11 1;
#X connect 15 0 12 1;
#X connect 15 0 13 1;
#X connect 15 0 14 1;
#X connect 16 0 21 0;
#X connect 17 0 22 0;
#X connect 18 0 23 0;
#X connect 19 0 24 0;
#X connect 21 0 11 0;
#X connect 22 0 12 0;
#X connect 23 0 13 0;
#X connect 24 0 14 0;
#X restore 24 549 pd calculations-2;
#N canvas 394 81 715 529 calculations-3 0;
#X obj 44 162 *~;
#X obj 147 164 *~;
#X obj 126 75 r~ o2;
#X obj 242 159 *~;
#X obj 235 74 r~ o3;
#X obj 371 168 *~;
#X obj 344 73 r~ o4;
#X obj 185 296 +~;
#X obj 218 296 r frequency;
#X obj 194 353 +~;
#X obj 13 73 r~ o1;
#X obj 58 119 *;
#X obj 172 125 *;
#X obj 276 125 *;
#X obj 388 125 *;
#X obj 161 13 r baseFreq-3;
#X obj 194 386 s~ freq-3;
#X obj 58 73 r o1o3;
#X obj 169 75 r o2o3;
#X obj 278 74 r o3o3;
#X obj 388 73 r o4o3;
#X obj 58 94 / 25;
#X obj 169 102 / 25;
#X obj 276 100 / 25;
#X obj 388 100 / 25;
#X connect 0 0 7 0;
#X connect 1 0 7 0;
#X connect 2 0 1 0;
#X connect 3 0 7 0;
#X connect 4 0 3 0;
#X connect 5 0 7 0;
#X connect 6 0 5 0;
#X connect 7 0 9 0;
#X connect 8 0 9 1;
#X connect 9 0 16 0;
#X connect 10 0 0 0;
#X connect 11 0 0 1;
#X connect 12 0 1 1;
#X connect 13 0 3 1;
#X connect 14 0 5 1;
#X connect 15 0 11 1;
#X connect 15 0 12 1;
#X connect 15 0 13 1;
#X connect 15 0 14 1;
#X connect 17 0 21 0;
#X connect 18 0 22 0;
#X connect 19 0 23 0;
#X connect 20 0 24 0;
#X connect 21 0 11 0;
#X connect 22 0 12 0;
#X connect 23 0 13 0;
#X connect 24 0 14 0;
#X restore 24 565 pd calculations-3;
#N canvas 394 81 715 529 calculations-4 0;
#X obj 44 162 *~;
#X obj 147 164 *~;
#X obj 126 75 r~ o2;
#X obj 242 159 *~;
#X obj 235 74 r~ o3;
#X obj 371 168 *~;
#X obj 344 73 r~ o4;
#X obj 185 296 +~;
#X obj 218 296 r frequency;
#X obj 194 353 +~;
#X obj 13 73 r~ o1;
#X obj 58 119 *;
#X obj 172 125 *;
#X obj 276 125 *;
#X obj 388 125 *;
#X obj 162 13 r baseFreq-4;
#X obj 58 73 r o1o4;
#X obj 169 75 r o2o4;
#X obj 278 74 r o3o4;
#X obj 388 73 r o4o4;
#X obj 194 386 s~ freq-4;
#X obj 58 94 / 25;
#X obj 169 101 / 25;
#X obj 277 100 / 25;
#X obj 388 100 / 25;
#X connect 0 0 7 0;
#X connect 1 0 7 0;
#X connect 2 0 1 0;
#X connect 3 0 7 0;
#X connect 4 0 3 0;
#X connect 5 0 7 0;
#X connect 6 0 5 0;
#X connect 7 0 9 0;
#X connect 8 0 9 1;
#X connect 9 0 20 0;
#X connect 10 0 0 0;
#X connect 11 0 0 1;
#X connect 12 0 1 1;
#X connect 13 0 3 1;
#X connect 14 0 5 1;
#X connect 15 0 11 1;
#X connect 15 0 12 1;
#X connect 15 0 13 1;
#X connect 15 0 14 1;
#X connect 16 0 21 0;
#X connect 17 0 22 0;
#X connect 18 0 23 0;
#X connect 19 0 24 0;
#X connect 21 0 11 0;
#X connect 22 0 12 0;
#X connect 23 0 13 0;
#X connect 24 0 14 0;
#X restore 24 581 pd calculations-4;
#X obj 24 226 cnv 15 580 300 empty empty empty 20 12 0 14 -228856 -66577
0;
#X obj 24 24 cnv 15 580 180 empty empty empty 20 12 0 14 -233017 -66577
0;
#X obj 184 98 hsl 100 15 0 20 0 0 empty empty empty -2 -8 0 10 -262144
-1 -1 0 1;
#X obj 112 288 vsl 15 200 0.1 1.1 1 0 empty empty volume 0 -9 0 10
-191407 -1 -1 0 1;
#X obj 37 288 vsl 15 200 0.1 1.1 1 0 empty empty shape 0 -9 0 10 -262144
-1 -1 0 1;
#X obj 74 287 vsl 15 200 0 1 0 0 empty empty mod 0 -9 0 10 -228856
-1 -1 0 1;
#X obj 268 285 vsl 15 200 0.1 1.1 1 0 empty empty volume 0 -9 0 10
-191407 -1 -1 0 1;
#X obj 193 285 vsl 15 200 0.1 1.1 1 0 empty empty shape 0 -9 0 10 -262144
-1 -1 0 1;
#X obj 230 286 vsl 15 200 0 1 0 0 empty empty mod 0 -9 0 10 -228856
-1 -1 0 1;
#X obj 414 286 vsl 15 200 0.1 1.1 1 0 empty empty volume 0 -9 0 10
-191407 -1 -1 0 1;
#X obj 339 286 vsl 15 200 0.1 1.1 1 0 empty empty shape 0 -9 0 10 -262144
-1 -1 0 1;
#X obj 376 286 vsl 15 200 0 1 0 0 empty empty mod 0 -9 0 10 -228856
-1 -1 0 1;
#X floatatom 315 86 5 0 0 0 - - frequency;
#X obj 564 288 vsl 15 200 0.1 1.1 1 0 empty empty volume 0 -9 0 10
-191407 -1 -1 0 1;
#X obj 489 288 vsl 15 200 0.1 1.1 1 0 empty empty shape 0 -9 0 10 -262144
-1 -1 0 1;
#X obj 526 288 vsl 15 200 0 1 0 0 empty empty mod 0 -9 0 10 -228856
-1 -1 0 1;
#X obj 181 138 s~ vibRate;
#X floatatom 422 97 5 0 100 0 - - o1o1;
#X floatatom 422 119 5 0 100 0 - - o1o2;
#X floatatom 422 141 5 0 100 0 - - o1o3;
#X floatatom 422 163 5 0 100 0 - - o1o4;
#X floatatom 464 97 5 0 100 0 - - o2o1;
#X floatatom 464 119 5 0 100 0 - - o2o2;
#X floatatom 464 141 5 0 100 0 - - o2o3;
#X floatatom 464 163 5 0 100 0 - - o2o4;
#X floatatom 506 97 5 0 100 0 - - o3o1;
#X floatatom 506 119 5 0 100 0 - - o3o2;
#X floatatom 506 141 5 0 100 0 - - o3o3;
#X floatatom 506 163 5 0 100 0 - - o3o4;
#X floatatom 548 97 5 0 100 0 - - o4o1;
#X floatatom 548 119 5 0 100 0 - - o4o2;
#X floatatom 548 141 5 0 100 0 - - o4o3;
#X floatatom 548 163 5 0 100 0 - - o4o4;
#X text 420 80 o1;
#X text 464 80 o2;
#X text 504 80 o3;
#X text 547 80 o4;
#X text 400 97 o1;
#X text 399 118 o2;
#X text 399 141 o3;
#X text 400 163 o4;
#N canvas 1083 23 682 349 audio 0;
#X obj 50 52 catch~ bus1;
#X obj 50 216 dac~;
#X obj 353 50 r audioOn;
#X msg 353 75 \; pd dsp \$1;
#X obj 50 73 /~ 4;
#X text 88 74 there are 4 oscs summed;
#X obj 89 104 r volume;
#X obj 89 124 - 0.1;
#X obj 89 145 / 100;
#X obj 50 179 *~;
#X connect 0 0 4 0;
#X connect 2 0 3 0;
#X connect 4 0 9 0;
#X connect 6 0 7 0;
#X connect 7 0 8 0;
#X connect 8 0 9 1;
#X connect 9 0 1 0;
#X connect 9 0 1 1;
#X restore 37 112 pd audio;
#X obj 37 82 tgl 30 0 audioOn empty empty 17 7 0 10 -262144 -1 -1 0
1;
#X text 400 50 FM MODULATION MATRIX;
#X text 309 50 FREQUENCY;
#X obj 118 86 vsl 20 65 0.1 100.1 1 0 volume empty empty 0 -9 0 10
-191407 -1 -1 0 1;
#X text 113 51 VOLUME;
#X text 35 52 AUDIO;
#X text 178 51 VIBRATO;
#X text 178 80 rate [0-20Hz];
#X text 17 17 GLOBAL CONTROLS;
#X text 19 218 OSCILLATORS;
#X text 33 249 o1;
#X text 189 250 o2;
#X text 337 249 o3;
#X text 486 249 o4;
#X text 24 611 Patch by Blazej Kotowski \, 2019;
#X obj 37 495 croscillator~ 1;
#X obj 193 492 croscillator~ 2;
#X obj 339 492 croscillator~ 3;
#X obj 489 494 croscillator~ 4;
#X connect 6 0 20 0;
#X connect 7 0 61 2;
#X connect 8 0 61 0;
#X connect 9 0 61 1;
#X connect 10 0 62 2;
#X connect 11 0 62 0;
#X connect 12 0 62 1;
#X connect 13 0 63 2;
#X connect 14 0 63 0;
#X connect 15 0 63 1;
#X connect 17 0 64 2;
#X connect 18 0 64 0;
#X connect 19 0 64 1;
