#N canvas 129 22 856 502 12;
#X obj 123 76 readsf~;
#X obj 632 298 dac~;
#X obj 126 57 tgl 15 0 empty empty play/stop-> -80 7 0 8 -262144 -1
-1 1 1;
#X obj 123 -28 bng 15 250 50 0 empty empty <-Open_file 18 7 0 8 -262144
-1 -1;
#X obj 123 -11 openpanel;
#X msg 123 33 open \$1;
#X obj 422 64 noise~;
#X floatatom 542 271 5 1 20 0 Set_Q-> - -;
#X obj 542 293 s Q;
#N canvas 283 131 417 532 filterbank 0;
#X obj -94 -102 inlet;
#X obj -94 -35 vocfilt;
#X obj -94 -77 unpack f f f f f f f f f f f f f f f f f f f;
#X obj 16 109 vocfilt;
#X obj -76 -11 vocfilt;
#X obj -58 13 vocfilt;
#X obj -40 37 vocfilt;
#X obj -20 61 vocfilt;
#X obj -2 85 vocfilt;
#X obj 35 133 vocfilt;
#X obj 53 157 vocfilt;
#X obj 72 181 vocfilt;
#X obj 90 205 vocfilt;
#X obj 109 229 vocfilt;
#X obj 127 253 vocfilt;
#X obj 145 277 vocfilt;
#X obj 164 301 vocfilt;
#X obj 182 325 vocfilt;
#X obj 199 349 vocfilt;
#X obj 218 373 vocfilt;
#X obj 236 397 vocfilt;
#X connect 0 0 2 0;
#X connect 2 0 1 0;
#X connect 2 1 4 0;
#X connect 2 2 5 0;
#X connect 2 3 6 0;
#X connect 2 4 7 0;
#X connect 2 5 8 0;
#X connect 2 6 3 0;
#X connect 2 7 9 0;
#X connect 2 8 10 0;
#X connect 2 9 11 0;
#X connect 2 10 12 0;
#X connect 2 11 13 0;
#X connect 2 12 14 0;
#X connect 2 13 15 0;
#X connect 2 14 16 0;
#X connect 2 15 17 0;
#X connect 2 16 18 0;
#X connect 2 17 19 0;
#X connect 2 18 20 0;
#X restore 4 319 pd filterbank;
#X obj 645 242 catch~ filterbanksum;
#X obj 4 227 loadbang;
#X obj 590 136 vsl 15 128 0.75 75 0 0 empty empty vol -2 -10 0 8 -262144
-1 -1 7100 1;
#X obj 644 267 *~;
#X msg 542 247 15;
#X symbolatom 123 13 20 0 0 0 - - -;
#X obj 184 78 spigot;
#X obj 227 60 tgl 15 0 empty empty <-loop?? 18 7 0 8 -262144 -1 -1
1 1;
#X obj 65 76 adc~ 1;
#N canvas 0 22 486 336 in_selection 0;
#X msg 127 75 1;
#X msg 165 75 0;
#X obj 148 128 *~;
#X obj 225 128 *~;
#X msg 220 76 1;
#X msg 258 76 0;
#X obj 127 16 inlet;
#X obj 259 13 inlet~;
#X obj 200 14 inlet~;
#X obj 182 191 s~ carr;
#X obj 127 42 sel file mic;
#X connect 0 0 2 1;
#X connect 1 0 3 1;
#X connect 2 0 9 0;
#X connect 3 0 9 0;
#X connect 4 0 3 1;
#X connect 5 0 2 1;
#X connect 6 0 10 0;
#X connect 7 0 2 0;
#X connect 8 0 3 0;
#X connect 10 0 0 0;
#X connect 10 0 1 0;
#X connect 10 1 4 0;
#X connect 10 1 5 0;
#X restore 7 100 pd in_selection;
#X obj 480 63 readsf~;
#X obj 483 44 tgl 15 0 empty empty play/stop-> -80 7 0 8 -262144 -1
-1 0 1;
#X obj 480 -41 bng 15 250 50 0 empty empty <-Open_file 18 7 0 8 -262144
-1 -1;
#X obj 480 -24 openpanel;
#X msg 480 20 open \$1;
#X symbolatom 480 0 20 0 0 0 - - -;
#X msg 7 -37 symbol file;
#X msg 16 -13 symbol mic;
#X obj 184 101 t b b;
#N canvas 0 22 494 344 in_selection 0;
#X msg 127 75 1;
#X msg 165 75 0;
#X obj 148 128 *~;
#X obj 225 128 *~;
#X msg 220 76 1;
#X msg 258 76 0;
#X obj 127 16 inlet;
#X obj 259 13 inlet~;
#X obj 200 14 inlet~;
#X obj 127 42 sel file noise;
#X obj 182 191 s~ mod;
#X connect 0 0 2 1;
#X connect 1 0 3 1;
#X connect 2 0 10 0;
#X connect 3 0 10 0;
#X connect 4 0 3 1;
#X connect 5 0 2 1;
#X connect 6 0 9 0;
#X connect 7 0 2 0;
#X connect 8 0 3 0;
#X connect 9 0 0 0;
#X connect 9 0 1 0;
#X connect 9 1 4 0;
#X connect 9 1 5 0;
#X restore 365 88 pd in_selection;
#X msg 365 -41 symbol file;
#X msg 374 -17 symbol noise;
#X text 363 -61 Select source SOUND2;
#X text 7 -58 Select source SOUND1;
#X floatatom 590 271 5 0 0 0 - - -;
#X text 115 316 This patch is dependant of vocfilter.pd abstraction
\, zexy and iemlib externals.;
#X msg 184 124 1;
#X obj 541 63 spigot;
#X obj 584 45 tgl 15 0 empty empty <-loop?? 18 7 0 8 -262144 -1 -1
0 1;
#X obj 540 86 t b b;
#X msg 540 109 1;
#X msg 91 33 0;
#X msg 448 20 0;
#X msg 4 252 125 157.4 198.4 250 314.9 396.8 500 629.9 793.7 1000 1259.9
1587.5 2000 2519.8 3174.8 4000 5039.68 6349.59 8000;
#X text 5 -96 18 FILTERBANK VOCODER. 1/3 Octave (125-8000 Hz);
#X connect 0 0 19 2;
#X connect 0 1 16 0;
#X connect 2 0 0 0;
#X connect 3 0 4 0;
#X connect 3 0 41 0;
#X connect 4 0 15 0;
#X connect 5 0 0 0;
#X connect 6 0 29 1;
#X connect 7 0 8 0;
#X connect 10 0 13 0;
#X connect 11 0 43 0;
#X connect 11 0 14 0;
#X connect 12 0 13 1;
#X connect 12 0 34 0;
#X connect 13 0 1 0;
#X connect 13 0 1 1;
#X connect 14 0 7 0;
#X connect 15 0 5 0;
#X connect 16 0 28 0;
#X connect 17 0 16 1;
#X connect 18 0 19 1;
#X connect 20 0 29 2;
#X connect 20 1 37 0;
#X connect 21 0 20 0;
#X connect 22 0 23 0;
#X connect 22 0 42 0;
#X connect 23 0 25 0;
#X connect 24 0 20 0;
#X connect 25 0 24 0;
#X connect 26 0 19 0;
#X connect 27 0 19 0;
#X connect 28 0 36 0;
#X connect 28 1 15 0;
#X connect 30 0 29 0;
#X connect 31 0 29 0;
#X connect 36 0 2 0;
#X connect 37 0 39 0;
#X connect 38 0 37 1;
#X connect 39 0 40 0;
#X connect 39 1 25 0;
#X connect 40 0 21 0;
#X connect 41 0 2 0;
#X connect 42 0 21 0;
#X connect 43 0 9 0;
