#N canvas 322 267 433 533 12;
#X obj 8 253 *~;
#X obj 29 204 r~ mod;
#X obj 8 52 r~ carr;
#X text 7 4 \$1-> bandpass center frequency \; \$2-> bandpass Q;
#X obj 8 178 sig~;
#X floatatom 8 157 9 0 0 0 - - -;
#X obj 136 53 r Q;
#X obj 82 54 inlet;
#X obj 9 278 throw~ filterbanksum;
#X obj 8 131 envrms~ 2048;
#X obj 8 107 vcf_bp4~ \$1 \$2;
#X obj 28 230 vcf_bp4~ \$1 \$2;
#X connect 0 0 8 0;
#X connect 1 0 11 0;
#X connect 2 0 10 0;
#X connect 4 0 0 0;
#X connect 5 0 4 0;
#X connect 6 0 10 2;
#X connect 6 0 11 2;
#X connect 7 0 10 1;
#X connect 7 0 11 1;
#X connect 9 0 5 0;
#X connect 10 0 9 0;
#X connect 11 0 0 1;
