#N canvas 107 22 1173 731 10;
#X obj -533 81 noise~;
#X obj -533 111 *~ 500;
#X obj -533 133 +~ 500;
#X obj -533 155 round~;
#X obj -533 185 tabread~ weights;
#X obj -524 444 snaps~;
#X obj -518 207 expr~ if($v1 >=500 \, 1 \, -1);
#X obj -533 421 mirrorWall~ 65536;
#X obj -533 467 /~ 32768;
#X obj -533 489 -~ 1;
#X obj -533 581 dac~;
#X obj -534 10 loadbang;
#X msg -534 32 clear \, set 1;
#X obj -506 306 snaps~;
#X obj -533 349 *~;
#X obj -533 552 *~ 0.1;
#X obj -534 54 s reset;
#X obj -526 376 r reset;
#X obj -509 259 r reset;
#X obj -533 229 *~;
#X obj 159 122 noise~;
#X obj 159 152 *~ 500;
#X obj 159 174 +~ 500;
#X obj 159 196 round~;
#X obj 69 259 tabread~ weights;
#X obj 78 470 snaps~;
#X obj 69 447 mirrorWall~ 65536;
#X obj 69 493 /~ 32768;
#X obj 69 515 -~ 1;
#X obj 59 592 dac~;
#X obj 69 424 fexpr~ $x[0]+$y[-1];
#X obj 81 338 snaps~;
#X obj 69 312 fexpr~ $x[0]-$y[-1];
#X obj 80 563 *~ 0.1;
#X obj 76 402 r reset;
#X obj 78 290 r reset;
#X obj 251 287 expr~ if($v1 >=500 \, 1 \, -1);
#X obj 69 379 *~;
#X obj -319 148 noise~;
#X obj -319 178 *~ 500;
#X obj -319 200 +~ 500;
#X obj -319 222 round~;
#X obj -319 252 tabread~ weights;
#X obj -310 511 snaps~;
#X obj -304 274 expr~ if($v1 >=500 \, 1 \, -1);
#X obj -319 488 mirrorWall~ 65536;
#X obj -319 534 /~ 32768;
#X obj -319 556 -~ 1;
#X obj -319 608 dac~;
#X obj -292 373 snaps~;
#X obj -319 416 *~;
#X obj -319 579 *~ 0.1;
#X obj -312 443 r reset;
#X obj -295 326 r reset;
#X obj -319 296 *~;
#X obj -304 348 fexpr~ $x[0]+$y[-1];
#X text -179 347 cambiando suma o resta cambia mucho;
#X obj -533 398 fexpr~ $x[0]+$y[-1];
#X obj -319 465 fexpr~ $x[0]+$y[-1];
#X obj -518 281 fexpr~ $x[0]-$y[-1];
#X obj -429 366 print~;
#X msg -404 345 10;
#X connect 0 0 1 0;
#X connect 1 0 2 0;
#X connect 2 0 3 0;
#X connect 3 0 4 0;
#X connect 3 0 6 0;
#X connect 4 0 19 0;
#X connect 6 0 19 1;
#X connect 7 0 5 0;
#X connect 7 0 8 0;
#X connect 8 0 9 0;
#X connect 9 0 15 0;
#X connect 11 0 12 0;
#X connect 12 0 16 0;
#X connect 14 0 57 0;
#X connect 14 0 60 0;
#X connect 15 0 10 1;
#X connect 15 0 10 0;
#X connect 17 0 57 0;
#X connect 18 0 59 0;
#X connect 19 0 14 0;
#X connect 19 0 59 0;
#X connect 20 0 21 0;
#X connect 21 0 22 0;
#X connect 22 0 23 0;
#X connect 23 0 24 0;
#X connect 23 0 36 0;
#X connect 24 0 32 0;
#X connect 26 0 25 0;
#X connect 26 0 27 0;
#X connect 27 0 28 0;
#X connect 30 0 26 0;
#X connect 32 0 31 0;
#X connect 32 0 37 0;
#X connect 33 0 29 1;
#X connect 33 0 29 0;
#X connect 34 0 30 0;
#X connect 35 0 32 0;
#X connect 36 0 37 1;
#X connect 37 0 30 0;
#X connect 38 0 39 0;
#X connect 39 0 40 0;
#X connect 40 0 41 0;
#X connect 41 0 42 0;
#X connect 41 0 44 0;
#X connect 42 0 54 0;
#X connect 44 0 54 1;
#X connect 45 0 43 0;
#X connect 45 0 46 0;
#X connect 46 0 47 0;
#X connect 47 0 51 0;
#X connect 50 0 58 0;
#X connect 52 0 58 0;
#X connect 53 0 55 0;
#X connect 54 0 50 0;
#X connect 54 0 55 0;
#X connect 55 0 49 0;
#X connect 55 0 50 1;
#X connect 57 0 7 0;
#X connect 58 0 45 0;
#X connect 59 0 13 0;
#X connect 59 0 14 1;
#X connect 61 0 60 0;
