#N canvas 184 22 671 705 10;
#X msg -542 38 4.29497e+09;
#X text -465 38 = 2^32;
#X msg -542 58 65536;
#X text -465 58 = 2^16;
#X obj -379 101 noise~;
#X obj -379 131 *~ 500;
#X obj -379 153 +~ 500;
#X obj -379 175 round~;
#X obj -423 255 tabread~ weights;
#X obj -190 131 fexpr~ if($x1[-1] == $x[0] \, $x[0] \, $x[-1]*-1);
#X obj -190 85 round~;
#X obj -190 41 *~ 50;
#X obj -190 63 +~ 50;
#X obj -190 108 tabread~ direction;
#X obj -196 192 *~;
#X obj -414 514 snaps~;
#X obj -315 256 expr~ if($v1 >=500 \, 1 \, -1);
#X obj -423 491 mirrorWall~ 65536;
#X obj -423 537 /~ 32768;
#X obj -423 559 -~ 1;
#X obj -424 621 dac~;
#X obj -243 318 loadbang;
#X obj -561 303 snaps~;
#X msg -243 340 clear \, set 1;
#X obj -423 468 fexpr~ $x[0]+$y[-1];
#X obj -394 388 snaps~;
#X obj -394 363 fexpr~ $x[0]-$y[-1];
#X obj -423 395 *~;
#X obj -421 302 *~;
#X obj -412 596 *~ 0.1;
#X connect 4 0 5 0;
#X connect 4 0 11 0;
#X connect 5 0 6 0;
#X connect 6 0 7 0;
#X connect 7 0 8 0;
#X connect 7 0 16 0;
#X connect 8 0 22 0;
#X connect 8 0 28 0;
#X connect 9 0 14 1;
#X connect 10 0 13 0;
#X connect 11 0 12 0;
#X connect 12 0 10 0;
#X connect 13 0 9 0;
#X connect 16 0 28 1;
#X connect 17 0 15 0;
#X connect 17 0 18 0;
#X connect 18 0 19 0;
#X connect 19 0 29 0;
#X connect 21 0 23 0;
#X connect 23 0 24 0;
#X connect 23 0 26 0;
#X connect 24 0 17 0;
#X connect 26 0 25 0;
#X connect 26 0 27 1;
#X connect 27 0 24 0;
#X connect 28 0 26 0;
#X connect 28 0 27 0;
#X connect 29 0 20 1;
#X connect 29 0 20 0;
