#N canvas 184 22 900 719 10;
#X msg -889 11 4.29497e+09;
#X text -812 11 = 2^32;
#X obj -962 15 bng 15 250 50 0 empty empty empty 17 7 0 10 -262144
-1 -1;
#X msg -923 104 \; pd dsp \$1;
#X obj -962 56 t b b b;
#X msg -1039 77 0;
#X msg -923 82 1;
#X msg -889 31 65536;
#X text -812 31 = 2^16;
#X obj -726 74 noise~;
#X obj -726 104 *~ 500;
#X obj -726 126 +~ 500;
#X obj -726 148 round~;
#X obj -770 228 tabread~ weights;
#X obj -453 189 fexpr~ if($x1[-1] == $x[0] \, $x[0] \, $x[-1]*-1);
#X obj -937 656 print~ change;
#X obj -537 58 round~;
#X obj -537 14 *~ 50;
#X obj -537 36 +~ 50;
#X obj -537 81 tabread~ direction;
#X obj -1039 57 delay 1100;
#X msg -962 80 3;
#X obj -746 498 fexpr~ $x[0]+$y[-1];
#X obj -459 250 *~;
#X obj -528 574 snaps~;
#X msg -816 464 clear;
#X obj -661 226 expr~ if($v1 >=500 \, 1 \, -1);
#X obj -568 541 mirrorWall~ 65536;
#X obj -555 676 snaps~;
#X obj -573 616 /~ 32768;
#X obj -560 645 -~ 1;
#X obj -459 644 dac~;
#X obj -690 441 *~ 1;
#X obj -654 361 snaps~;
#X floatatom -654 411 0 0 0 0 - - -;
#X obj -664 166 snaps~;
#X obj -676 283 *~;
#X obj -780 366 300;
#X connect 2 0 4 0;
#X connect 2 0 20 0;
#X connect 4 0 21 0;
#X connect 4 2 6 0;
#X connect 5 0 3 0;
#X connect 6 0 3 0;
#X connect 9 0 10 0;
#X connect 9 0 17 0;
#X connect 10 0 11 0;
#X connect 11 0 12 0;
#X connect 12 0 13 0;
#X connect 12 0 26 0;
#X connect 12 0 35 0;
#X connect 13 0 36 0;
#X connect 14 0 23 1;
#X connect 16 0 19 0;
#X connect 17 0 18 0;
#X connect 18 0 16 0;
#X connect 19 0 14 0;
#X connect 19 0 36 1;
#X connect 20 0 5 0;
#X connect 21 0 15 0;
#X connect 22 0 15 0;
#X connect 22 0 27 0;
#X connect 25 0 22 0;
#X connect 27 0 24 0;
#X connect 27 0 29 0;
#X connect 29 0 30 0;
#X connect 30 0 28 0;
#X connect 30 0 31 0;
#X connect 30 0 31 1;
#X connect 32 0 22 0;
#X connect 34 0 32 1;
#X connect 36 0 32 0;
