#N canvas 14 22 1201 613 10;
#N canvas 0 22 450 300 (subpatch) 0;
#X array sine2triang 10 float 1;
#A 0 0 4.09 2.1 1.46 1.16 1 0.92 0.89 0.89 0.93;
#X coords 0 10 9 -1 200 140 1;
#X restore 911 88 graph;
#X obj 977 416 tabwrite sine2triang;
#X floatatom 1084 359 5 0 0 0 - - -;
#X obj 916 291 tabread sine2triang;
#X floatatom 989 374 5 0 0 0 - - -;
#X obj 916 270 mod 10;
#X obj 95 143 cos~;
#X obj 95 122 sig~;
#X floatatom 95 38 0 0 0 0 - - -;
#X obj 95 332 snaps~;
#X obj 105 171 snaps~;
#X text 133 99 range;
#X obj 95 196 *~ -0.5;
#X text 146 195 inverted cos;
#X text 142 219 scaled between 0-1;
#X obj 95 219 +~ 0.5;
#X obj 105 243 snaps~;
#X obj 95 76 / 2;
#X text 137 306 range;
#X obj 552 212 sig~;
#X obj 560 281 snaps~;
#X obj 95 306 *~ 10;
#X obj 95 99 / 10;
#X text 124 76 divides in 2 to use only the rising half of the cycle
;
#X obj 552 237 expr~ (10*abs($v1)+$v1)%10;
#X obj 542 359 expr~ 1/$v1;
#X obj 556 397 snaps~;
#X obj 295 408;
#X connect 2 0 1 1;
#X connect 4 0 1 0;
#X connect 5 0 3 0;
#X connect 6 0 10 0;
#X connect 6 0 12 0;
#X connect 7 0 6 0;
#X connect 8 0 17 0;
#X connect 8 0 19 0;
#X connect 12 0 15 0;
#X connect 15 0 16 0;
#X connect 15 0 21 0;
#X connect 17 0 22 0;
#X connect 19 0 24 0;
#X connect 21 0 9 0;
#X connect 22 0 7 0;
#X connect 24 0 20 0;
#X connect 24 0 25 0;
#X connect 25 0 26 0;
