#N canvas 763 272 391 362 10;
#N canvas 130 22 454 419 processing 0;
#N canvas 283 384 336 370 amp-factor 0;
#X obj 19 22 inlet~;
#X obj 84 23 inlet;
#X text 120 23 Ratio;
#X obj 168 26 inlet;
#X text 204 26 Threshold;
#X obj 200 54 loadbang;
#X msg 200 78 100;
#X obj 200 102 sig~;
#X obj 168 102 sig~;
#X obj 168 134 +~;
#X obj 155 161 -~;
#X obj 155 206 /~;
#X obj 155 184 max~ 0;
#X obj 142 262 -~;
#X obj 142 286 dbtorms~;
#X obj 142 311 outlet~;
#X obj 84 179 sig~;
#X obj 97 129 - 1;
#X obj 84 156 /;
#X obj 19 68 rmstodb~;
#X obj 19 45 abs~;
#X text 18 4 Signal;
#X text 193 311 Factor in RMS;
#X connect 0 0 20 0;
#X connect 1 0 17 0;
#X connect 1 0 18 0;
#X connect 3 0 8 0;
#X connect 5 0 6 0;
#X connect 6 0 7 0;
#X connect 7 0 9 1;
#X connect 7 0 13 0;
#X connect 8 0 9 0;
#X connect 9 0 10 1;
#X connect 10 0 12 0;
#X connect 11 0 13 1;
#X connect 12 0 11 0;
#X connect 13 0 14 0;
#X connect 14 0 15 0;
#X connect 16 0 11 1;
#X connect 17 0 18 1;
#X connect 18 0 16 0;
#X connect 19 0 10 0;
#X connect 20 0 19 0;
#X restore 103 109 pd amp-factor;
#X obj 254 112 /;
#X obj 254 91 57;
#X obj 254 70 t b f;
#X obj 293 112 /;
#X obj 293 91 57;
#X obj 293 70 t b f;
#X obj 140 17 inlet ratio;
#X obj 178 48 inlet threshold;
#X obj 254 25 inlet attack;
#X obj 293 47 inlet release;
#X obj 80 219 inlet gain;
#X obj 80 253 + 100;
#X obj 80 275 dbtorms;
#X obj 160 212 loadbang;
#X obj 24 271 *~;
#X obj 38 230 *~;
#X obj 23 34 inlet~;
#X obj 24 350 outlet~;
#X obj 61 73 *~ 0.707946;
#X text 79 55 -3dB;
#N canvas 719 204 506 356 att-rel-filtering 0;
#N canvas 385 486 585 414 a-r-det 0;
#X obj 43 51 inlet~;
#X obj 43 200 outlet~;
#X obj 94 200 outlet~;
#X obj 43 145 max~ 0;
#X obj 94 171 -~;
#X obj 94 121 loadbang;
#X msg 94 146 1;
#X obj 105 50 inlet~;
#X obj 43 97 -~;
#X text 7 33 vgl.: "soll" mit "ist";
#X obj 43 121 sgn~;
#X text 33 218 Attack / Release;
#X connect 0 0 8 1;
#X connect 3 0 4 1;
#X connect 3 0 1 0;
#X connect 4 0 2 0;
#X connect 5 0 6 0;
#X connect 6 0 4 0;
#X connect 7 0 8 0;
#X connect 8 0 10 0;
#X connect 10 0 3 0;
#X restore 50 86 pd a-r-det;
#X text 26 99 att;
#X text 111 101 rel;
#X obj 22 195 vcf~;
#X msg 134 162 0.4;
#X obj 50 126 *~;
#X obj 105 128 *~;
#X obj 75 163 +~;
#X obj 134 138 loadbang;
#X obj 22 26 inlet~;
#X text 67 26 amp-factor;
#X obj 164 84 inlet;
#X text 200 85 attack;
#X text 237 104 release;
#X obj 196 106 inlet;
#X obj 22 272 outlet~;
#X obj 290 47 block~ 2;
#N canvas 0 22 619 511 (subpatch) 0;
#X array \$0-factor 16 float 0;
#X coords 0 100 15 0 20 20 1;
#X restore 338 141 graph;
#X obj 22 239 *~ 0.971042;
#X obj 109 233 tabsend~ \$0-factor;
#X obj 107 61 tabreceive~ \$0-factor;
#X connect 0 0 5 0;
#X connect 0 1 6 0;
#X connect 3 0 18 0;
#X connect 3 0 19 0;
#X connect 4 0 3 2;
#X connect 5 0 7 0;
#X connect 6 0 7 1;
#X connect 7 0 3 1;
#X connect 8 0 4 0;
#X connect 9 0 3 0;
#X connect 9 0 0 0;
#X connect 11 0 5 1;
#X connect 14 0 6 1;
#X connect 18 0 15 0;
#X connect 20 0 0 1;
#X restore 103 148 pd att-rel-filtering;
#X obj 160 232 0;
#X connect 0 0 21 0;
#X connect 1 0 21 1;
#X connect 2 0 1 0;
#X connect 3 0 2 0;
#X connect 3 1 1 1;
#X connect 4 0 21 2;
#X connect 5 0 4 0;
#X connect 6 0 5 0;
#X connect 6 1 4 1;
#X connect 7 0 0 1;
#X connect 8 0 0 2;
#X connect 9 0 3 0;
#X connect 10 0 6 0;
#X connect 11 0 12 0;
#X connect 12 0 13 0;
#X connect 13 0 16 1;
#X connect 14 0 22 0;
#X connect 15 0 18 0;
#X connect 16 0 15 1;
#X connect 17 0 15 0;
#X connect 17 0 19 0;
#X connect 19 0 0 0;
#X connect 21 0 16 0;
#X connect 22 0 12 0;
#X restore 10 288 pd processing;
#X obj 76 62 f;
#X obj 128 105 f;
#X obj 159 165 f;
#X obj 192 216 f;
#X obj 232 268 f;
#X floatatom 232 246 5 0 0 1 release(10-3000)ms - -;
#X floatatom 192 196 5 0 0 1 attack(1-300ms) - -;
#X floatatom 159 146 5 0 0 1 threshold(-60/0dB) - -;
#X floatatom 128 85 5 0 0 1 ratio(1-10) - -;
#X floatatom 76 42 5 0 0 1 gain_compensation(-20/20dB) - -;
#X obj 10 314 outlet~;
#X obj 10 202 inlet~;
#X text 109 85 1:;
#X obj 76 19 r gainComp;
#X obj 159 122 r threshold;
#X obj 192 172 r attack;
#X obj 232 223 r release;
#X obj 128 60 r ratio;
#X connect 0 0 11 0;
#X connect 1 0 0 1;
#X connect 2 0 0 2;
#X connect 3 0 0 3;
#X connect 4 0 0 4;
#X connect 5 0 0 5;
#X connect 6 0 5 0;
#X connect 7 0 4 0;
#X connect 8 0 3 0;
#X connect 9 0 2 0;
#X connect 10 0 1 0;
#X connect 12 0 0 0;
#X connect 14 0 10 0;
#X connect 15 0 8 0;
#X connect 16 0 7 0;
#X connect 17 0 6 0;
#X connect 18 0 9 0;
