#N canvas 549 22 693 742 10;
#X floatatom 148 225 5 0 0 0 - - -;
#X floatatom 140 36 0 0 0 0 - - -;
#X floatatom 212 230 5 0 0 0 - - -;
#X obj 204 124 - 2;
#X obj 203 72 t b f;
#X obj 42 205 mod 2;
#X text 151 179 0;
#X text 227 161 1;
#X obj 385 422 round~;
#X obj 363 243 sig~;
#X obj 385 446 expr~ abs($v1)%2;
#X obj 130 584 snaps~;
#X floatatom 242 146 5 0 0 0 - - -;
#X text 240 38 hacer que el valor de 0 unas veces sea max y ottras
min...;
#X msg 204 97 10;
#X obj 204 183 mod 10;
#X obj 148 198 mod 10;
#X obj 42 180 div 10;
#X obj 359 393 /~ 10;
#X obj 359 369 expr~ if($v1<0 \, $v1-9 \, $v1);
#X floatatom 174 36 5 0 0 0 - - -;
#X obj 254 672 expr~ (10*abs($v1)+$v1)%10;
#X obj 435 674 mod 10;
#X text 420 673 =;
#X floatatom 42 229 5 0 0 0 - - -;
#X obj 519 527 snaps~;
#X obj 342 450 wrap~;
#X obj 130 530 expr~ if($v2 == 0 \, (10*abs($v1)+$v1)%10 \, if($v3==0
\, 9 \, (10*abs(10-$v1)+(10-$v1))%10));
#X text 341 608 los negativos siguen contando 0 en cada modulo;
#X connect 1 0 4 0;
#X connect 1 0 9 0;
#X connect 1 0 16 0;
#X connect 1 0 17 0;
#X connect 3 0 12 0;
#X connect 3 0 15 0;
#X connect 4 0 14 0;
#X connect 4 1 3 1;
#X connect 5 0 24 0;
#X connect 8 0 10 0;
#X connect 9 0 19 0;
#X connect 9 0 27 0;
#X connect 10 0 25 0;
#X connect 10 0 27 1;
#X connect 14 0 3 0;
#X connect 15 0 2 0;
#X connect 16 0 0 0;
#X connect 17 0 5 0;
#X connect 18 0 8 0;
#X connect 18 0 26 0;
#X connect 19 0 18 0;
#X connect 26 0 27 2;
#X connect 27 0 11 0;
