#N canvas 356 51 533 868 12;
#N canvas 0 23 548 248 sample 0;
#N canvas 0 0 450 300 (subpatch) 0;
#X array my-soundfile 972239 float 0;
#X coords 0 1 972238 -1 200 140 1 0 0;
#X restore 100 20 graph;
#X obj 103 172 loadbang;
#X obj 102 217 soundfiler;
#X msg 103 195 read -resize ./test-sound.wav my-soundfile;
#X connect 1 0 3 0;
#X connect 3 0 2 0;
#X restore 34 251 pd sample;
#X obj 45 25 bng 15 250 50 0 empty empty empty 17 7 0 10 -262144 -1
-1;
#X obj 45 46 tabplay~ my-soundfile;
#X obj 45 176 +~;
#X obj 63 154 *~ 0.7;
#X floatatom 63 75 4 0 999 0 - - -;
#X text 101 74 ms.;
#X obj 83 208 delwrite~ my-delay 2000;
#X floatatom 102 129 4 0 999 0 - - -;
#X text 140 128 amplitude;
#X obj 33 219 dac~;
#X obj 63 101 delread~ my-delay 1000;
#X connect 1 0 2 0;
#X connect 2 0 3 0;
#X connect 3 0 7 0;
#X connect 3 0 10 1;
#X connect 3 0 10 0;
#X connect 4 0 3 1;
#X connect 5 0 11 0;
#X connect 8 0 4 1;
#X connect 11 0 4 0;
