#N canvas 138 79 487 373 12;
#X text 137 13 REVERBERATOR;
#N canvas 19 23 1177 929 reverb 0;
#X obj 13 19 inlet~;
#X obj 13 43 reverb-echo echo-del1 5.43216;
#X obj 277 215 +~;
#X obj 319 215 +~;
#X obj 67 276 outlet~;
#X obj 137 276 outlet~;
#X obj 238 334 +~;
#X obj 347 335 +~;
#X obj 280 334 -~;
#X obj 387 334 -~;
#X obj 237 390 +~;
#X obj 281 391 +~;
#X obj 325 392 -~;
#X obj 364 392 -~;
#X obj 324 474 *~ 0;
#X obj 282 473 *~ 0;
#X obj 237 472 *~ 0;
#X obj 365 475 *~ 0;
#X obj 632 365 inlet;
#X obj 632 437 / 200;
#X obj 632 389 min 100;
#X obj 632 412 max 0;
#X obj 238 583 delwrite~ loop-del1 60;
#X obj 283 561 delwrite~ loop-del2 71.9345;
#X obj 364 515 delwrite~ loop-del4 95.945;
#X obj 298 154 delread~ loop-del1 60;
#X obj 340 179 delread~ loop-del2 71.9345;
#X obj 408 233 delread~ loop-del4 95.945;
#X obj 386 208 delread~ loop-del3 86.7545;
#X obj 325 538 delwrite~ loop-del3 86.7545;
#X obj 13 67 reverb-echo echo-del2 8.45346;
#X obj 13 91 reverb-echo echo-del3 13.4367;
#X obj 13 115 reverb-echo echo-del4 21.5463;
#X obj 13 139 reverb-echo echo-del5 34.3876;
#X obj 13 163 reverb-echo echo-del6 55.5437;
#X text 286 42 "early echo" generators \, which also increase echo
density. Open one to see what they do.;
#X text 300 115 Get the outputs of the recirculating delays. Add the
inputs to two of them.;
#X text 420 313 Do a power-conserving mix of them in pairs. First combine
(1 \, 2) and (3 \, 4)...;
#X text 402 385 ...then (1 \, 3) and (2 \, 4);
#X text 446 469 The two mixing stages have a combined gain of 2 \,
so the recirculation gain is limited to 0.5.;
#X text 586 542 Put the signals back into the;
#X text 584 557 recirculating delays.;
#X text 29 296 Tap outputs from here.;
#X text 708 381 0 to 100 to control reverb;
#X text 719 396 time.;
#X text 691 364 feedback gain on a scale of;
#X connect 0 0 1 0;
#X connect 1 0 30 0;
#X connect 1 1 30 1;
#X connect 2 0 4 0;
#X connect 2 0 6 0;
#X connect 2 0 8 0;
#X connect 3 0 5 0;
#X connect 3 0 6 1;
#X connect 3 0 8 1;
#X connect 6 0 10 0;
#X connect 6 0 12 0;
#X connect 7 0 12 1;
#X connect 7 0 10 1;
#X connect 8 0 11 0;
#X connect 8 0 13 0;
#X connect 9 0 11 1;
#X connect 9 0 13 1;
#X connect 10 0 16 0;
#X connect 11 0 15 0;
#X connect 12 0 14 0;
#X connect 13 0 17 0;
#X connect 14 0 29 0;
#X connect 15 0 23 0;
#X connect 16 0 22 0;
#X connect 17 0 24 0;
#X connect 18 0 20 0;
#X connect 19 0 17 1;
#X connect 19 0 16 1;
#X connect 19 0 15 1;
#X connect 19 0 14 1;
#X connect 20 0 21 0;
#X connect 21 0 19 0;
#X connect 25 0 2 1;
#X connect 26 0 3 1;
#X connect 27 0 7 1;
#X connect 27 0 9 1;
#X connect 28 0 7 0;
#X connect 28 0 9 0;
#X connect 30 0 31 0;
#X connect 30 1 31 1;
#X connect 31 0 32 0;
#X connect 31 1 32 1;
#X connect 32 0 33 0;
#X connect 32 1 33 1;
#X connect 33 0 34 0;
#X connect 33 1 34 1;
#X connect 34 0 2 0;
#X connect 34 1 3 0;
#X restore 60 186 pd reverb;
#X floatatom 136 162 0 0 100 0 - - -;
#X text 171 162 <-- feedback (100 maximum);
#X text 151 187 <-- open to see how it works;
#X text 36 276 Many improvements are possible. Much better reverberators
can be found in the "extras" library.;
#X text 31 37 Here is a simple recirculating reverberator. "Feedback"
should be between 0 and 100 - if 100 \, the reverberation lasts forever.
;
#X obj 74 212 dac~;
#N canvas 0 23 548 248 sample 0;
#N canvas 0 0 450 300 (subpatch) 0;
#X array my-soundfile 972239 float 0;
#X coords 0 1 972238 -1 200 140 1 0 0;
#X restore 100 20 graph;
#X obj 103 172 loadbang;
#X obj 102 217 soundfiler;
#X msg 103 195 read -resize ./test-sound.wav my-soundfile;
#X connect 1 0 3 0;
#X connect 3 0 2 0;
#X restore 40 239 pd sample;
#X obj 60 112 bng 15 250 50 0 empty empty empty 17 7 0 10 -262144 -1
-1;
#X obj 60 132 tabplay~ my-soundfile;
#X connect 1 0 7 0;
#X connect 1 1 7 1;
#X connect 2 0 1 1;
#X connect 9 0 10 0;
#X connect 10 0 1 0;
