#N canvas 521 23 282 559 10;
#X declare -lib zexy;
#X obj 31 459 dac~;
#X obj 40 434 +~;
#X obj 55 413 *~ 0.99;
#X floatatom 94 393 5 0 0 0 - - -;
#X msg 55 259 1000 \$1;
#X floatatom 55 239 5 0 0 0 - - -;
#X obj 55 281 /;
#X obj 55 323 delread~ my-delay 10;
#X text 94 236 resonance freq;
#N canvas 0 23 548 248 sample 0;
#N canvas 0 0 450 300 (subpatch) 0;
#X array my-soundfile 972239 float 0;
#X coords 0 1 972238 -1 200 140 1 0 0;
#X restore 100 20 graph;
#X obj 103 172 loadbang;
#X obj 102 217 soundfiler;
#X msg 103 195 read -resize ./test-sound.wav my-soundfile;
#X connect 1 0 3 0;
#X connect 3 0 2 0;
#X restore 31 488 pd sample;
#X obj 40 13 bng 15 250 50 0 empty empty empty 17 7 0 10 -262144 -1
-1;
#X obj 40 35 tabplay~ my-soundfile;
#X floatatom 65 302 5 0 0 0 - - -;
#X text 104 301 period length;
#X obj 70 456 delwrite~ my-delay 100;
#X obj 40 208 +~, f 17;
#X obj 57 84 metro 400;
#X obj 57 63 tgl 15 0 empty empty empty 17 7 0 10 -262144 -1 -1 0 1
;
#X obj 139 62 noise~;
#X obj 151 103 metro 400;
#X obj 151 82 tgl 15 0 empty empty empty 17 7 0 10 -262144 -1 -1 0
1;
#X obj 139 186 *~, f 11;
#X obj 202 167 tgl 15 0 empty empty empty 17 7 0 10 -262144 -1 -1 0
1;
#X obj 151 123 t b b, f 9;
#X obj 151 144 del 5;
#X floatatom 108 147 5 0 0 0 - - -;
#X obj 55 371 lop~ 10000;
#X floatatom 112 350 5 0 0 0 - - -;
#X obj 57 105 dirac~;
#X obj 97 489 declare -lib zexy;
#X connect 1 0 0 1;
#X connect 1 0 0 0;
#X connect 1 0 14 0;
#X connect 2 0 1 1;
#X connect 3 0 2 1;
#X connect 4 0 6 0;
#X connect 5 0 4 0;
#X connect 6 0 7 0;
#X connect 6 0 12 0;
#X connect 7 0 26 0;
#X connect 10 0 11 0;
#X connect 11 0 15 0;
#X connect 15 0 1 0;
#X connect 16 0 28 0;
#X connect 17 0 16 0;
#X connect 18 0 21 0;
#X connect 19 0 23 0;
#X connect 20 0 19 0;
#X connect 21 0 15 1;
#X connect 22 0 21 1;
#X connect 23 0 24 0;
#X connect 23 1 22 0;
#X connect 24 0 22 0;
#X connect 25 0 16 1;
#X connect 26 0 2 0;
#X connect 27 0 26 1;
#X connect 28 0 15 0;
