#N canvas 404 155 349 307 10;
#X msg 170 25 60;
#X msg 203 25 69;
#X msg 138 25 48;
#X obj 138 57 mtof;
#X floatatom 145 79 0 0 0 0 - - -;
#X msg 138 98 1000 \$1;
#X obj 138 119 /;
#X floatatom 138 140 0 0 0 0 - - -;
#X msg 108 25 21;
#X msg 138 161 1000 \$1;
#X obj 138 182 /;
#X floatatom 138 203 0 0 0 0 - - -;
#X obj 138 223 ftom;
#X floatatom 138 244 5 0 0 0 - - -;
#X connect 0 0 3 0;
#X connect 1 0 3 0;
#X connect 2 0 3 0;
#X connect 3 0 4 0;
#X connect 3 0 5 0;
#X connect 5 0 6 0;
#X connect 6 0 7 0;
#X connect 7 0 9 0;
#X connect 8 0 3 0;
#X connect 9 0 10 0;
#X connect 10 0 11 0;
#X connect 11 0 12 0;
#X connect 12 0 13 0;
