#N canvas 529 118 657 753 12;
#N canvas 575 307 535 433 subpatch 0;
#X obj 34 44 inlet~;
#X obj 34 139 outlet~;
#X obj 43 116 print~ block-subpatch;
#X obj 54 68 r print-blocks;
#X msg 54 91 8;
#X obj 34 20 block~ 1;
#X connect 0 0 1 0;
#X connect 0 0 2 0;
#X connect 3 0 4 0;
#X connect 4 0 2 0;
#X restore 27 259 pd subpatch;
#X obj 27 13 loadbang;
#X obj 27 209 phasor~;
#X obj 27 234 *~ 64;
#X obj 27 113 samplerate~;
#X obj 27 137 /, f 6;
#X obj 73 161 r print-blocks;
#X msg 73 186 0;
#X obj 27 89 t b f, f 6;
#X obj 27 310 print~ block-main-window;
#X obj 37 285 r print-blocks;
#X msg 27 37 64 \; pd dsp 1 \; print-blocks bang;
#X connect 0 0 9 0;
#X connect 1 0 11 0;
#X connect 2 0 3 0;
#X connect 3 0 0 0;
#X connect 4 0 5 0;
#X connect 5 0 2 0;
#X connect 6 0 7 0;
#X connect 7 0 2 1;
#X connect 8 0 4 0;
#X connect 8 1 5 1;
#X connect 10 0 9 0;
#X connect 11 0 8 0;
