#N canvas 311 23 489 774 10;
#X obj 14 329 dac~;
#X floatatom 92 268 5 0 0 0 - - -;
#X floatatom 50 228 5 0 0 0 - - -;
#X text 89 225 resonance freq;
#N canvas 0 23 548 248 sample 0;
#N canvas 0 0 450 300 (subpatch) 0;
#X array my-soundfile 972239 float 0;
#X coords 0 1 972238 -1 200 140 1 0 0;
#X restore 100 20 graph;
#X obj 103 172 loadbang;
#X obj 102 217 soundfiler;
#X msg 103 195 read -resize ./test-sound.wav my-soundfile;
#X connect 1 0 3 0;
#X connect 3 0 2 0;
#X restore 13 356 pd sample;
#X obj 29 12 bng 15 250 50 0 empty empty empty 17 7 0 10 -262144 -1
-1;
#X obj 29 34 tabplay~ my-soundfile;
#X floatatom 71 246 5 0 0 0 - - -;
#X obj 46 104 zexy/dirac~;
#X obj 29 207 +~, f 17;
#X obj 46 83 metro 400;
#X obj 46 62 tgl 15 0 empty empty empty 17 7 0 10 -262144 -1 -1 1 1
;
#X obj 128 61 noise~;
#X obj 140 102 metro 400;
#X obj 140 81 tgl 15 0 empty empty empty 17 7 0 10 -262144 -1 -1 0
1;
#X obj 128 185 *~, f 11;
#X obj 191 166 tgl 15 0 empty empty empty 17 7 0 10 -262144 -1 -1 0
1;
#X obj 140 122 t b b, f 9;
#X obj 140 143 del 5;
#N canvas 869 269 411 539 subpatch 1;
#X obj 57 151 lop~ 10000;
#X obj 57 173 *~ 0.99, f 17;
#X msg 57 48 1000 \$1;
#X floatatom 57 28 5 0 0 0 - - -;
#X obj 57 69 /;
#X obj 57 106 delread~ my-delay 10;
#X floatatom 64 88 5 0 0 0 - - -;
#X obj 20 220 delwrite~ my-delay 100;
#X obj 12 7 inlet~;
#X obj 12 241 outlet~;
#X obj 57 7 inlet;
#X obj 114 130 inlet;
#X obj 156 130 inlet;
#X obj 113 6 block~ 1;
#X obj 12 197 +~;
#X connect 0 0 1 0;
#X connect 1 0 14 1;
#X connect 2 0 4 0;
#X connect 3 0 2 0;
#X connect 4 0 5 0;
#X connect 4 0 6 0;
#X connect 5 0 0 0;
#X connect 8 0 14 0;
#X connect 10 0 3 0;
#X connect 11 0 0 1;
#X connect 12 0 1 1;
#X connect 14 0 7 0;
#X connect 14 0 9 0;
#X restore 29 287 pd subpatch;
#X text 108 243 low-pass cut-off;
#X text 129 266 feedback;
#X connect 1 0 19 3;
#X connect 2 0 19 1;
#X connect 5 0 6 0;
#X connect 6 0 9 0;
#X connect 7 0 19 2;
#X connect 8 0 9 0;
#X connect 9 0 19 0;
#X connect 10 0 8 0;
#X connect 11 0 10 0;
#X connect 12 0 15 0;
#X connect 13 0 17 0;
#X connect 14 0 13 0;
#X connect 15 0 9 1;
#X connect 16 0 15 1;
#X connect 17 0 18 0;
#X connect 17 1 16 0;
#X connect 18 0 16 0;
#X connect 19 0 0 0;
#X connect 19 0 0 1;
