#N canvas 195 154 1153 859 12;
#X text 156 92 1/2 period \, in msec;
#X obj 59 284 dac~;
#X obj 25 66 phasor~ 100;
#X floatatom 25 32 5 0 0 0 - - -;
#X obj 119 91 /;
#X msg 119 64 500 \$1;
#X text 69 31 fundamental frequency;
#X obj 68 144 delwrite~ test-comb 100;
#X obj 89 178 vd~ test-comb;
#X floatatom 129 116 5 0 0 0 - - -;
#X obj 71 253 +~;
#X text 34 346 Here we filter out all odd harmonics using a variable-delay
feedforward comb filter tuned one octave above the incoming sound.
;
#X floatatom 114 203 5 0 0 0 - - -;
#X obj 89 227 *~ 0;
#X connect 2 0 7 0;
#X connect 2 0 10 0;
#X connect 3 0 2 0;
#X connect 3 0 5 0;
#X connect 4 0 9 0;
#X connect 4 0 8 0;
#X connect 5 0 4 0;
#X connect 8 0 13 0;
#X connect 10 0 1 0;
#X connect 10 0 1 1;
#X connect 12 0 13 1;
#X connect 13 0 10 1;
