#N canvas 557 84 628 971 12;
#N canvas 0 23 548 248 sample 0;
#N canvas 0 0 450 300 (subpatch) 0;
#X array my-soundfile 972239 float 0;
#X coords 0 1 972238 -1 200 140 1 0 0;
#X restore 100 20 graph;
#X obj 103 172 loadbang;
#X obj 102 217 soundfiler;
#X msg 103 195 read -resize ./test-sound.wav my-soundfile;
#X connect 1 0 3 0;
#X connect 3 0 2 0;
#X restore 18 407 pd sample;
#X obj 28 10 bng 15 250 50 0 empty empty empty 17 7 0 10 -262144 -1
-1;
#X obj 28 31 tabplay~ my-soundfile;
#X obj 28 346 +~;
#X obj 46 267 *~ 0.7;
#X floatatom 85 242 4 0 999 0 - - -;
#X obj 16 379 dac~;
#X floatatom 46 65 0 0 999 0 - - -;
#X text 84 64 rate (LFO freq.);
#X text 123 241 feedback;
#X msg 56 291 1;
#X msg 92 292 -1;
#X obj 46 320 *~ 1;
#X obj 46 139 +~ 0.5;
#X obj 46 114 *~ 0.5;
#X floatatom 78 163 4 0 999 0 - - -;
#X text 116 162 depth;
#X obj 46 215 vd~ my-flanger 0;
#X obj 46 188 *~ 3;
#X obj 46 90 osc~ 1;
#X obj 56 379 delwrite~ my-flanger 1000;
#X connect 1 0 2 0;
#X connect 2 0 3 0;
#X connect 2 1 1 0;
#X connect 3 0 6 1;
#X connect 3 0 6 0;
#X connect 3 0 20 0;
#X connect 4 0 12 0;
#X connect 5 0 4 1;
#X connect 7 0 19 0;
#X connect 10 0 12 1;
#X connect 11 0 12 1;
#X connect 12 0 3 1;
#X connect 13 0 18 0;
#X connect 14 0 13 0;
#X connect 15 0 18 1;
#X connect 17 0 4 0;
#X connect 18 0 17 0;
#X connect 19 0 14 0;
