#N canvas 418 125 798 684 12;
#X obj 43 165 metro 200;
#X obj 43 146 tgl 15 0 empty empty empty 17 7 0 10 -262144 -1 -1 0
1;
#X floatatom 187 215 5 0 0 0 - - -;
#X obj 43 191 list-abs/list-wrandom;
#N canvas 0 22 450 278 (subpatch) 0;
#X array markov1 7 float 3;
#A 0 0 0.2 0.5 0.7 1 0.1 0.3;
#X coords 0 1 7 0 266 178 1 0 0;
#X restore 366 136 graph;
#X msg 187 242 \; markov1 resize \$1;
#X obj 239 188 list prepend 0;
#X obj 239 212 s markov1;
#X obj 43 533 noteout 1;
#X obj 43 426 + 60;
#X text 83 426 lowest note;
#X floatatom 63 452 5 0 0 0 - - -;
#X msg 43 476 \$1 100;
#N canvas 0 22 450 278 (subpatch) 0;
#X array scale 7 float 3;
#A 0 0 2 4 6 8 10 12;
#X coords 0 12 7 0 200 140 1 0 0;
#X restore 199 397 graph;
#X obj 43 396 tabread scale;
#X obj 43 503 makenote 100 400;
#X msg 201 551 \; scale resize 7 \; scale 0 0 2 4 6 8 10 12;
#X floatatom 54 216 5 0 0 0 - - -;
#X text 201 613 in this example we are using a whole-tone scale (https://en.wikipedia.org/wiki/Whole_tone_scale)
;
#X text 345 38 these are the weights for each scale degree \, you don't
need to scale them \, since the object will do automatically. They
are visualised in the markov1 table.;
#X msg 154 41 0 0.2 0.5 0.7 1 0.1 0.3;
#X msg 189 69 0.1 0.4 0.5 0 0 0.1;
#X connect 0 0 3 0;
#X connect 1 0 0 0;
#X connect 2 0 5 0;
#X connect 3 0 14 0;
#X connect 3 0 17 0;
#X connect 3 1 2 0;
#X connect 6 0 7 0;
#X connect 9 0 11 0;
#X connect 9 0 12 0;
#X connect 12 0 15 0;
#X connect 14 0 9 0;
#X connect 15 0 8 0;
#X connect 15 1 8 1;
#X connect 20 0 3 1;
#X connect 20 0 6 0;
#X connect 21 0 3 1;
#X connect 21 0 6 0;
