#N canvas 690 201 503 380 12;
#X msg 115 278 note_number velocity;
#X obj 35 333 noteout 1;
#X obj 35 228 + 60;
#X text 75 228 lowest note;
#X floatatom 45 254 5 0 0 0 - - -;
#X obj 35 50 metro 1000;
#X obj 35 29 tgl 15 0 empty empty empty 17 7 0 10 -262144 -1 -1 0 1
;
#X msg 35 278 \$1 100;
#X floatatom 102 24 5 0 0 0 - - -;
#N canvas 0 22 450 278 (subpatch) 0;
#X array scale 6 float 3;
#A 0 0 2 4 7 9 12;
#X coords 0 12 6 0 200 140 1 0 0;
#X restore 248 44 graph;
#X obj 35 127 tabread scale;
#X floatatom 51 154 5 0 0 0 - - -;
#X obj 35 204 + 0;
#X floatatom 53 181 5 0 0 0 - - -;
#X msg 249 200 \; scale resize 6 \; scale 0 0 2 4 7 9 12;
#X obj 53 74 bng 15 250 50 0 empty empty empty 17 7 0 10 -262144 -1
-1;
#X obj 35 305 makenote 100 400;
#X obj 35 99 random 6;
#X text 90 279 ==;
#X text 98 181 transposition;
#X connect 2 0 4 0;
#X connect 2 0 7 0;
#X connect 5 0 17 0;
#X connect 6 0 5 0;
#X connect 7 0 16 0;
#X connect 8 0 5 1;
#X connect 10 0 11 0;
#X connect 10 0 12 0;
#X connect 12 0 2 0;
#X connect 13 0 12 1;
#X connect 15 0 17 0;
#X connect 16 0 1 0;
#X connect 16 1 1 1;
#X connect 17 0 10 0;
