#N canvas 345 79 524 435 10;
#X obj 138 57 inlet;
#X obj 180 205 outlet;
#N canvas 0 22 450 300 (subpatch) 0;
#X array \$0-c 25 float 1;
#A 0 0 6.4e-05 0.000512 0.001728 0.004096 0.008 0.013824 0.021952 0.032768
0.046656 0.064 0.085184 0.110592 0.140608 0.175616 0.216 0.262144 0.314432
0.373248 0.438976 0.512 0.592704 0.681472 0.778688 0.884736;
#X coords 0 1 24 0 50 50 1;
#X restore 10 10 graph;
#X obj 358 231 until;
#X obj 358 275 f 0;
#X obj 388 275 + 1;
#X obj 358 297 t f f;
#X obj 358 373 tabwrite \$0-c;
#X obj 358 210 t f b;
#X msg 373 254 0;
#X msg 358 187 25;
#X obj 358 322 / 25;
#X obj 348 109 f \$3;
#X obj 348 52 inlet;
#X obj 358 164 t b f;
#X obj 358 346 expr pow($f1 \, $f2);
#X obj 208 157 expr pow($f1 \, $f2);
#X obj 223 110 f \$1;
#X obj 309 109 f \$2;
#X obj 271 75 loadbang;
#X obj 138 131 expr ($f1-$f2)/(abs($f3-$f2));
#X obj 180 184 expr $f1*(abs($f2-$f3))+$f2;
#X connect 0 0 20 0;
#X connect 3 0 4 0;
#X connect 4 0 5 0;
#X connect 4 0 6 0;
#X connect 5 0 4 1;
#X connect 6 0 11 0;
#X connect 6 1 7 1;
#X connect 8 0 3 0;
#X connect 8 1 9 0;
#X connect 9 0 4 1;
#X connect 10 0 8 0;
#X connect 11 0 15 0;
#X connect 12 0 14 0;
#X connect 12 0 16 1;
#X connect 13 0 12 0;
#X connect 14 0 10 0;
#X connect 14 1 15 1;
#X connect 15 0 7 0;
#X connect 16 0 21 0;
#X connect 17 0 20 1;
#X connect 17 0 21 1;
#X connect 18 0 20 2;
#X connect 18 0 21 2;
#X connect 19 0 17 0;
#X connect 19 0 18 0;
#X connect 19 0 12 0;
#X connect 20 0 16 0;
#X connect 21 0 1 0;
#X coords 0 -1 1 1 50 50 2 10 10;
