#N canvas 715 314 223 335 10;
#X obj 18 207 random;
#X obj 45 57 / 100;
#X obj 51 125 *;
#X obj 18 13 inlet;
#X obj 18 34 t b f;
#X obj 93 255 outlet;
#X obj 45 79 t b f;
#X obj 51 187 - 0;
#X obj 81 127 *;
#X obj 81 150 t b f;
#X obj 93 233 + 0;
#X obj 87 58 r \$2-\$1Range;
#X obj 87 79 unpack;
#X connect 0 0 10 0;
#X connect 1 0 6 0;
#X connect 2 0 7 0;
#X connect 3 0 4 0;
#X connect 4 0 0 0;
#X connect 4 1 1 0;
#X connect 6 0 2 0;
#X connect 6 0 8 0;
#X connect 6 1 2 1;
#X connect 6 1 8 1;
#X connect 7 0 0 1;
#X connect 8 0 9 0;
#X connect 9 0 7 0;
#X connect 9 1 7 1;
#X connect 9 1 10 1;
#X connect 10 0 5 0;
#X connect 11 0 12 0;
#X connect 12 0 8 0;
#X connect 12 1 2 0;
