#N canvas 852 95 231 248 10;
#X obj 103 152 random;
#X obj 136 65 * 1000;
#X obj 148 210 outlet;
#X obj 136 120 - 0;
#X obj 146 93 t b f;
#X obj 148 186 + 0;
#X obj 93 65 * 1000;
#X obj 55 65 inlet;
#X obj 93 15 r \$2-\$1Range;
#X obj 93 36 unpack;
#X connect 0 0 5 0;
#X connect 1 0 3 0;
#X connect 3 0 0 1;
#X connect 4 0 3 0;
#X connect 4 1 3 1;
#X connect 4 1 5 1;
#X connect 5 0 2 0;
#X connect 6 0 4 0;
#X connect 7 0 0 0;
#X connect 8 0 9 0;
#X connect 9 0 6 0;
#X connect 9 1 1 0;
