#N canvas 30 462 1122 109 10;
#X obj -169 -6 cnv 15 1120 35 empty empty empty 5 15 0 15 -33289 -166441
0;
#X obj -169 31 cnv 15 1120 70 empty nothing empty 12 40 0 48 -33289
-228856 0;
#X obj 213 47 nbx 4 45 0 99 0 0 \$0-offsetRangeMax \$0-offsetRangeMaxPre
% 80 24 0 18 -33289 -228856 -228856 99 256;
#X obj 417 48 nbx 4 45 0 10 0 0 \$0-silenceRangeMax \$0-silenceRangeMaxPre
s. 80 24 0 18 -33289 -228856 -228856 10 256;
#X obj 682 48 nbx 3 45 1 100 0 0 \$0-layers \$0-layersPre layers 0
-25 0 18 -33289 -228856 -128992 1 256;
#X obj 762 48 nbx 2 45 0 99 0 0 \$0-transposition \$0-transpositionPre
pitch 0 -25 0 18 -33289 -228856 -128992 0 256;
#X obj 22 47 nbx 4 45 0.01 10 0 0 \$0-chunkRangeMax \$0-chunkRangeMaxPre
s. 80 24 0 18 -33289 -228856 -228856 10 256;
#X obj -44 47 nbx 4 45 0.01 10 0 0 \$0-chunkRangeMin \$0-chunkRangeMinPre
size 0 -25 0 18 -33289 -228856 -128992 0.01 256;
#X obj 147 47 nbx 4 45 0 99 0 0 \$0-offsetRangeMin \$0-offsetRangeMinPre
offset 0 -25 0 18 -33289 -228856 -128992 0 256;
#X obj 351 48 nbx 4 45 0 10 0 0 \$0-silenceRangeMin \$0-silenceRangeMinPre
silence 0 -25 0 18 -33289 -228856 -128992 0 256;
#X obj 102 37 bng 8 250 50 0 \$0-learn_sizeMax nothing empty 17 7 0
10 -128992 -1 -1;
#X obj 293 37 bng 8 250 50 0 \$0-learn_offsetMax nothing empty 17 7
0 10 -128992 -1 -1;
#X obj 147 37 bng 8 250 50 0 \$0-learn_offsetMin nothing empty 17 7
0 10 -128992 -1 -1;
#X obj 497 38 bng 8 250 50 0 \$0-learn_silenceMax nothing empty 17
7 0 10 -128992 -1 -1;
#X obj 681 38 bng 8 250 50 0 \$0-learn_layers nothing empty 17 7 0
10 -128992 -1 -1;
#X obj 771 38 bng 8 250 50 0 \$0-learn_pitch nothing empty 17 7 0 10
-128992 -1 -1;
#X obj 351 38 bng 8 250 50 0 \$0-learn_silenceMin nothing empty 17
7 0 10 -128992 -1 -1;
#X obj -44 39 bng 8 250 50 0 \$0-learn_sizeMin nothing empty 17 7 0
10 -128992 -1 -1;
#N canvas 271 170 756 259 p 0;
#N canvas 0 147 1267 591 MIDI 0;
#X msg 90 128 14;
#X msg 226 128 15;
#X msg 6 29 menusave;
#X obj 6 6 r savePatch;
#X obj 13 106 s savePatch;
#X obj 148 106 s savePatch;
#X msg 361 128 16;
#X msg 501 128 17;
#X obj 283 106 s savePatch;
#X obj 423 106 s savePatch;
#X msg 641 128 18;
#X msg 791 128 19;
#X obj 563 106 s savePatch;
#X obj 713 106 s savePatch;
#X msg 941 128 2;
#X obj 863 106 s savePatch;
#X msg 1051 128 3;
#X obj 973 106 s savePatch;
#X msg 1451 125 4;
#X obj 1373 103 s savePatch;
#X obj 5 148 / 127;
#X obj 140 148 / 127;
#X obj 140 190 max 0.01;
#X obj 275 148 / 127;
#X obj 275 169 * 99;
#X obj 415 148 / 127;
#X obj 415 169 * 99;
#X obj 555 148 / 127;
#X obj 705 148 / 127;
#X obj 855 148 / 127;
#X obj 855 189 + 1;
#X obj 965 148 / 127;
#X obj 965 169 * 99;
#X obj 965 190 int;
#X obj 855 210 int;
#X obj 415 190 int;
#X obj 275 190 int;
#X obj 1365 147 / 127;
#X obj 140 169 * 10;
#X obj 5 190 max 0.01;
#X obj 5 169 * 10;
#X obj 555 169 * 10;
#X obj 705 169 * 10;
#X obj 1365 168 * 112;
#X obj 1365 189 - 100;
#X obj 1365 222 c -100 12 0.25;
#X obj 82 392 pack 0 0;
#X obj 356 393 pack 0 0;
#X obj 555 386 pack 0 0;
#X obj 773 411 != 0;
#X obj 773 434 sel 1;
#X obj 893 411 != 0;
#X obj 893 434 sel 1;
#X msg 773 456 1;
#X msg 893 457 0;
#X msg 1185 126 20;
#X msg 1322 126 21;
#X obj 1107 104 s savePatch;
#X obj 1247 104 s savePatch;
#X obj 1099 146 / 127;
#X obj 1239 146 / 127;
#X obj 1149 421 pack 0 0;
#X obj 1099 167 * 90;
#X obj 1099 189 - 45;
#X obj 1239 167 * 90;
#X obj 1239 189 - 45;
#X obj 1099 210 int;
#X obj 1239 210 int;
#X obj 6 52 s pd-SAMPLER.pd;
#X obj 5 84 r \$0-learn_sizeMin;
#X obj 140 84 r \$0-learn_sizeMax;
#X obj 275 84 r \$0-learn_offsetMin;
#X obj 705 84 r \$0-learn_silenceMax;
#X obj 555 84 r \$0-learn_silenceMin;
#X obj 415 84 r \$0-learn_offsetMax;
#X obj 855 84 r \$0-learn_layers;
#X obj 965 84 r \$0-learn_pitch;
#X obj 1099 82 r \$0-learn_panMin;
#X obj 1239 82 r \$0-learn_panMax;
#X obj 1365 81 r \$0-learn_volume;
#X obj 82 325 s \$0-chunkRangeMinPre;
#X obj 115 304 s \$0-chunkRangeMaxPre;
#X obj 357 322 s \$0-offsetRangeMinPre;
#X obj 390 301 s \$0-offsetRangeMaxPre;
#X obj 555 320 s \$0-silenceRangeMinPre;
#X obj 588 301 s \$0-silenceRangeMaxPre;
#X obj 855 231 s \$0-layersPre;
#X obj 965 231 s \$0-transpositionPre;
#X obj 1149 355 s \$0-panRangeMinPre;
#X obj 1182 335 s \$0-panRangeMaxPre;
#X obj 1365 276 s \$0-volumePre;
#X obj 82 346 r \$0-chunkRangeMin;
#X obj 127 370 r \$0-chunkRangeMax;
#X obj 356 344 r \$0-offsetRangeMin;
#X obj 401 366 r \$0-offsetRangeMax;
#X obj 555 343 r \$0-silenceRangeMin;
#X obj 600 363 r \$0-silenceRangeMax;
#X obj 1149 375 r \$0-panRangeMin;
#X obj 1194 396 r \$0-panRangeMax;
#X obj 1149 442 s \$0-panRange;
#X obj 555 407 s \$0-silenceRange;
#X obj 356 414 s \$0-offsetRange;
#X obj 82 413 s \$0-chunkRange;
#X obj 5 128 midilearn \$0;
#X obj 781 367 s savePatch;
#X obj 901 367 s savePatch;
#X obj 893 345 r \$0-learn_stop;
#X obj 893 503 s \$0-playPre;
#X msg 859 389 45;
#X msg 979 389 46;
#X obj 773 345 r \$0-learn_play;
#X obj 1365 125 midilearn \$0;
#X obj 1239 126 midilearn \$0;
#X obj 1099 126 midilearn \$0;
#X obj 965 128 midilearn \$0;
#X obj 855 128 midilearn \$0;
#X obj 705 128 midilearn \$0;
#X obj 555 128 midilearn \$0;
#X obj 415 128 midilearn \$0;
#X obj 275 128 midilearn \$0;
#X obj 140 128 midilearn \$0;
#X obj 773 389 midilearn \$0;
#X obj 893 389 midilearn \$0;
#X obj 82 280 minmax;
#X obj 82 258 pack f f;
#X obj 140 211 t b f;
#X obj 357 280 minmax;
#X obj 357 258 pack f f;
#X obj 415 211 t b f;
#X obj 555 280 minmax;
#X obj 555 258 pack f f;
#X obj 705 191 t b f;
#X obj 1149 313 minmax;
#X obj 1149 293 pack f f;
#X obj 1239 231 t b f;
#X obj 855 169 * 99;
#X connect 0 0 103 1;
#X connect 1 0 120 1;
#X connect 2 0 68 0;
#X connect 3 0 2 0;
#X connect 6 0 119 1;
#X connect 7 0 118 1;
#X connect 10 0 117 1;
#X connect 11 0 116 1;
#X connect 14 0 115 1;
#X connect 16 0 114 1;
#X connect 18 0 111 1;
#X connect 20 0 40 0;
#X connect 21 0 38 0;
#X connect 22 0 125 0;
#X connect 23 0 24 0;
#X connect 24 0 36 0;
#X connect 25 0 26 0;
#X connect 26 0 35 0;
#X connect 27 0 41 0;
#X connect 28 0 42 0;
#X connect 29 0 135 0;
#X connect 30 0 34 0;
#X connect 31 0 32 0;
#X connect 32 0 33 0;
#X connect 33 0 87 0;
#X connect 34 0 86 0;
#X connect 35 0 128 0;
#X connect 36 0 127 0;
#X connect 37 0 43 0;
#X connect 38 0 22 0;
#X connect 39 0 124 0;
#X connect 40 0 39 0;
#X connect 41 0 130 0;
#X connect 42 0 131 0;
#X connect 43 0 44 0;
#X connect 44 0 45 0;
#X connect 45 0 90 0;
#X connect 46 0 102 0;
#X connect 47 0 101 0;
#X connect 48 0 100 0;
#X connect 49 0 50 0;
#X connect 50 0 53 0;
#X connect 51 0 52 0;
#X connect 52 0 54 0;
#X connect 53 0 107 0;
#X connect 54 0 107 0;
#X connect 55 0 113 1;
#X connect 56 0 112 1;
#X connect 59 0 62 0;
#X connect 60 0 64 0;
#X connect 61 0 99 0;
#X connect 62 0 63 0;
#X connect 63 0 66 0;
#X connect 64 0 65 0;
#X connect 65 0 67 0;
#X connect 66 0 133 0;
#X connect 67 0 134 0;
#X connect 69 0 4 0;
#X connect 69 0 103 0;
#X connect 70 0 5 0;
#X connect 70 0 120 0;
#X connect 71 0 8 0;
#X connect 71 0 119 0;
#X connect 72 0 13 0;
#X connect 72 0 116 0;
#X connect 73 0 12 0;
#X connect 73 0 117 0;
#X connect 74 0 9 0;
#X connect 74 0 118 0;
#X connect 75 0 15 0;
#X connect 75 0 115 0;
#X connect 76 0 17 0;
#X connect 76 0 114 0;
#X connect 77 0 57 0;
#X connect 77 0 113 0;
#X connect 78 0 58 0;
#X connect 78 0 112 0;
#X connect 79 0 19 0;
#X connect 79 0 111 0;
#X connect 91 0 46 0;
#X connect 92 0 46 1;
#X connect 93 0 47 0;
#X connect 94 0 47 1;
#X connect 95 0 48 0;
#X connect 96 0 48 1;
#X connect 97 0 61 0;
#X connect 98 0 61 1;
#X connect 103 0 20 0;
#X connect 103 1 0 0;
#X connect 106 0 105 0;
#X connect 106 0 122 0;
#X connect 108 0 121 1;
#X connect 109 0 122 1;
#X connect 110 0 104 0;
#X connect 110 0 121 0;
#X connect 111 0 37 0;
#X connect 111 1 18 0;
#X connect 112 0 60 0;
#X connect 112 1 56 0;
#X connect 113 0 59 0;
#X connect 113 1 55 0;
#X connect 114 0 31 0;
#X connect 114 1 16 0;
#X connect 115 0 29 0;
#X connect 115 1 14 0;
#X connect 116 0 28 0;
#X connect 116 1 11 0;
#X connect 117 0 27 0;
#X connect 117 1 10 0;
#X connect 118 0 25 0;
#X connect 118 1 7 0;
#X connect 119 0 23 0;
#X connect 119 1 6 0;
#X connect 120 0 21 0;
#X connect 120 1 1 0;
#X connect 121 0 49 0;
#X connect 121 1 108 0;
#X connect 122 0 51 0;
#X connect 122 1 109 0;
#X connect 123 0 80 0;
#X connect 123 1 81 0;
#X connect 124 0 123 0;
#X connect 125 0 124 0;
#X connect 125 1 124 1;
#X connect 126 0 82 0;
#X connect 126 1 83 0;
#X connect 127 0 126 0;
#X connect 128 0 127 0;
#X connect 128 1 127 1;
#X connect 129 0 84 0;
#X connect 129 1 85 0;
#X connect 130 0 129 0;
#X connect 131 0 130 0;
#X connect 131 1 130 1;
#X connect 132 0 88 0;
#X connect 132 1 89 0;
#X connect 133 0 132 0;
#X connect 134 0 133 0;
#X connect 134 1 133 1;
#X connect 135 0 30 0;
#X restore 80 -13 pd MIDI;
#N canvas 0 22 799 369 loadbang 0;
#X obj -71 1 loadbang;
#X obj -71 24 \$0;
#X obj -63 48 s \$0-localId;
#X msg -71 72 \$1 \; pd dsp 1 \;;
#X obj 116 152 soundfiler;
#X obj 116 37 openpanel;
#X obj 116 174 t b f;
#X obj 113 -4 table \$0-sample;
#X obj 116 17 r \$0-loadsample;
#X obj 161 61 r \$0-localId;
#X obj 116 106 pack s s;
#X msg 116 130 read -resize \$1 \$2;
#X obj 161 83 makefilename %d-sample;
#X obj 116 267 s \$0-sample;
#X msg 116 243 normalize;
#X obj 143 217 s \$0-duration;
#X obj 382 84 dbtorms;
#X msg 382 105 \$1 10;
#X obj 382 125 line~;
#X obj 367 151 *~;
#X obj 339 151 *~;
#X obj 382 62 + 100;
#X obj 362 270 *~;
#X obj 339 208 z~ 64;
#X obj 481 102 loadbang;
#X obj 379 208 z~ 64;
#X obj 407 270 *~;
#X msg 481 124 LIMIT \, set 100 1 1;
#X obj 362 294 dac~ 1 2;
#X obj 422 206 limiter~ 0 2;
#X obj 485 12 t f f;
#X obj 339 -9 catch~ \$0-LEFT;
#X obj 367 11 catch~ \$0-RIGHT;
#X obj 485 -9 r \$0-play;
#X obj 512 32 s \$0-playCues2;
#X obj 485 53 s \$0-playCues3;
#X obj 382 41 r \$0-volume;
#X obj 2 10 bng 15 250 50 0 empty empty empty 17 7 0 10 -262144 -1
-1;
#X msg -71 106 \; \$1-play 0 \; \$1-chunkRangeMinPre 0 \; \$1-chunkRangeMaxPre
100 \; \$1-offsetRangeMinPre 0 \; \$1-offsetRangeMaxPre 99 \; \$1-silenceRangeMinPre
0 \; \$1-silenceRangeMaxPre 100 \; \$1-layersPre 1 \; \$1-transpositionPre
0 \; \$1-panRangeMinPre -45 \; \$1-panRangeMaxPre 45 \; \$1-volumePre
-100;
#X obj 143 196 / 96;
#X text 190 205 comment;
#X text 175 195 sample rate;
#X connect 0 0 1 0;
#X connect 1 0 2 0;
#X connect 1 0 3 0;
#X connect 3 0 38 0;
#X connect 4 0 6 0;
#X connect 5 0 10 0;
#X connect 6 0 14 0;
#X connect 6 1 39 0;
#X connect 8 0 5 0;
#X connect 9 0 12 0;
#X connect 10 0 11 0;
#X connect 11 0 4 0;
#X connect 12 0 10 1;
#X connect 14 0 13 0;
#X connect 16 0 17 0;
#X connect 17 0 18 0;
#X connect 18 0 19 1;
#X connect 18 0 20 1;
#X connect 19 0 29 1;
#X connect 19 0 25 0;
#X connect 20 0 29 0;
#X connect 20 0 23 0;
#X connect 21 0 16 0;
#X connect 22 0 28 0;
#X connect 23 0 22 0;
#X connect 24 0 27 0;
#X connect 25 0 26 0;
#X connect 26 0 28 1;
#X connect 27 0 29 0;
#X connect 29 0 22 1;
#X connect 29 0 26 1;
#X connect 30 0 35 0;
#X connect 30 1 34 0;
#X connect 31 0 20 0;
#X connect 32 0 19 0;
#X connect 33 0 30 0;
#X connect 36 0 21 0;
#X connect 37 0 1 0;
#X connect 39 0 15 0;
#X restore 7 -13 pd loadbang;
#X text 7 156 angel faraldo \, 2011-2012;
#X obj 77 14 voice 6 \$0;
#X obj 7 14 voice 1 \$0;
#X obj 7 34 voice 2 \$0;
#X obj 7 54 voice 3 \$0;
#X obj 7 74 voice 4 \$0;
#X obj 7 94 voice 5 \$0;
#X obj 77 34 voice 7 \$0;
#X obj 77 54 voice 8 \$0;
#X obj 77 74 voice 9 \$0;
#X obj 77 94 voice 10 \$0;
#X obj 147 14 voice 11 \$0;
#X obj 147 34 voice 12 \$0;
#X obj 147 54 voice 13 \$0;
#X obj 147 74 voice 14 \$0;
#X obj 147 94 voice 15 \$0;
#X obj 224 14 voice 16 \$0;
#X obj 224 34 voice 17 \$0;
#X obj 224 54 voice 18 \$0;
#X obj 224 74 voice 19 \$0;
#X obj 224 94 voice 20 \$0;
#X obj 306 14 voice 21 \$0;
#X obj 307 34 voice 22 \$0;
#X obj 307 54 voice 23 \$0;
#X obj 307 74 voice 24 \$0;
#X obj 307 94 voice 25 \$0;
#X obj 387 14 voice 26 \$0;
#X obj 387 34 voice 27 \$0;
#X obj 387 54 voice 28 \$0;
#X obj 387 74 voice 29 \$0;
#X obj 387 95 voice 30 \$0;
#X obj 467 14 voice 31 \$0;
#X obj 467 34 voice 32 \$0;
#X obj 467 54 voice 33 \$0;
#X obj 467 74 voice 34 \$0;
#X obj 467 94 voice 35 \$0;
#X obj 544 14 voice 36 \$0;
#X obj 544 34 voice 37 \$0;
#X obj 544 54 voice 38 \$0;
#X obj 544 74 voice 39 \$0;
#X obj 544 94 voice 40 \$0;
#X restore 921 33 pd p;
#X obj 837 38 bng 8 250 50 0 \$0-learn_volume nothing empty 17 7 0
10 -128992 -1 -1;
#X obj 591 48 nbx 3 45 -45 45 0 0 \$0-panRangeMax \$0-panRangeMaxPre
empty 80 24 0 18 -33289 -228856 -228856 45 256;
#X obj 541 48 nbx 3 45 -45 45 0 0 \$0-panRangeMin \$0-panRangeMinPre
pan 0 -25 0 18 -33289 -228856 -128992 -45 256;
#X obj 655 38 bng 8 250 50 0 \$0-learn_panMax nothing empty 17 7 0
10 -128992 -1 -1;
#X obj 541 38 bng 8 250 50 0 \$0-learn_panMin nothing empty 17 7 0
10 -128992 -1 -1;
#X obj 837 48 nbx 4 45 -100 20 0 0 \$0-volume \$0-volumePre volume
0 -25 0 18 -33289 -228856 -128992 -100 256;
#X obj -103 47 bng 45 250 50 0 \$0-loadsample nothing load 0 -25 0
18 -162280 -128992 -128992;
#X floatatom 935 10 2 0 0 0 - nothing #0-midiChannel;
#X obj -162 46 tgl 45 0 \$0-play \$0-playPre play 0 -25 0 18 -162280
-1 -128992 0 1;
#X obj -126 37 bng 8 250 50 0 \$0-learn_stop nothing empty 17 7 0 10
-128992 -1 -1;
#X obj -162 37 bng 8 250 50 0 \$0-learn_play nothing empty 17 7 0 10
-128992 -1 -1;
