#N canvas 215 55 877 745 10;
#X obj 39 255 vline~;
#X msg 39 233 \$1 \, \$2 \$3;
#X obj 0 187 pack 0 0 0;
#X obj 0 -13 t f f;
#X obj -251 134 delay;
#X obj 0 -33 spigot;
#X obj 56 397 line~;
#X msg 56 376 \$1 20;
#X obj 41 424 *~;
#X obj 24 371 *~;
#X obj 206 373 switch~;
#X obj 162 359 line~;
#X obj 179 261 >= \$1;
#X msg 162 338 \$1 10;
#X obj 162 316 * 0.1;
#X obj 41 447 *~;
#X obj 206 304 moses 1;
#X obj 179 284 t f f;
#X obj 206 327 pipe 11;
#X obj 57 165 * 1;
#X obj 43 -11 t f f b;
#X obj -258 -10 delay;
#X obj -210 41 spigot;
#X obj -204 13 t b f;
#X obj -7 336 vline~;
#X obj 0 208 t l b l;
#X obj -112 247 unpack 0 0 0;
#X obj -43 289 delay;
#X obj 72 144 pow;
#X obj 72 75 random 21;
#X obj 72 99 - 10;
#X obj 96 10 t f f;
#X obj 123 33 * 2;
#X obj 123 54 + 1;
#X msg 72 121 1.00058 \$1;
#X obj -258 -55 rand1 silence \$2;
#X obj -258 244 rand2 offset \$2;
#X obj -258 223 -;
#X obj -258 201 swap;
#X obj -258 87 t f f;
#X obj -43 268 - 5;
#X msg -43 310 0 5;
#X msg -7 310 1 5;
#X obj -258 -32 max 11;
#X obj 41 534 pan~;
#X obj 62 511 rand3 pan \$2;
#X obj -258 65 rand1 chunk \$2;
#X obj -204 -10 r \$2-playCues3;
#X obj -258 -78 r \$2-loop\$1;
#X obj 62 487 r \$2-loop\$1;
#X obj 62 557 throw~ \$2-RIGHT;
#X obj 41 580 throw~ \$2-LEFT;
#X obj 179 238 r \$2-layers;
#X obj -211 134 s \$2-fragment\$1duration;
#X obj -251 156 s \$2-loop\$1;
#X obj 43 -33 r \$2-fragment\$1duration;
#X obj -237 179 r \$2-duration;
#X obj -258 266 s \$2-fragment\$1offset;
#X obj 0 -80 r \$2-fragment\$1offset;
#X obj 33 -57 r \$2-playCues2;
#X obj 96 -11 r \$2-transposition;
#X obj 39 335 tabread4~ \$2-sample;
#X obj 56 354 r \$2-playCues3;
#X text 292 91 al cambiar esto por una resta \, suena invertido. falta
armar un switch que elija la suma o la rest;
#X obj 267 100 +;
#X obj 39 282 *~ 96;
#X connect 0 0 65 0;
#X connect 1 0 0 0;
#X connect 2 0 25 0;
#X connect 3 0 2 0;
#X connect 3 1 64 0;
#X connect 4 0 54 0;
#X connect 5 0 3 0;
#X connect 6 0 8 1;
#X connect 7 0 6 0;
#X connect 8 0 15 0;
#X connect 9 0 8 0;
#X connect 11 0 15 1;
#X connect 12 0 17 0;
#X connect 13 0 11 0;
#X connect 14 0 13 0;
#X connect 15 0 44 0;
#X connect 16 0 18 0;
#X connect 16 1 10 0;
#X connect 17 0 14 0;
#X connect 17 1 16 0;
#X connect 18 0 10 0;
#X connect 19 0 2 2;
#X connect 20 0 64 1;
#X connect 20 1 19 0;
#X connect 20 2 29 0;
#X connect 21 0 46 0;
#X connect 22 0 46 0;
#X connect 23 0 22 0;
#X connect 23 1 22 1;
#X connect 24 0 9 0;
#X connect 25 0 26 0;
#X connect 25 1 42 0;
#X connect 25 2 1 0;
#X connect 26 2 40 0;
#X connect 27 0 41 0;
#X connect 28 0 19 1;
#X connect 29 0 30 0;
#X connect 30 0 34 0;
#X connect 31 0 30 1;
#X connect 31 1 32 0;
#X connect 32 0 33 0;
#X connect 33 0 29 1;
#X connect 34 0 28 0;
#X connect 35 0 43 0;
#X connect 36 0 57 0;
#X connect 37 0 36 0;
#X connect 38 0 37 0;
#X connect 38 1 37 1;
#X connect 39 0 38 0;
#X connect 39 1 4 0;
#X connect 39 1 53 0;
#X connect 40 0 27 0;
#X connect 41 0 24 0;
#X connect 42 0 24 0;
#X connect 43 0 21 0;
#X connect 44 0 51 0;
#X connect 44 1 50 0;
#X connect 45 0 44 1;
#X connect 46 0 39 0;
#X connect 47 0 23 0;
#X connect 48 0 35 0;
#X connect 49 0 45 0;
#X connect 52 0 12 0;
#X connect 55 0 20 0;
#X connect 56 0 38 1;
#X connect 58 0 5 0;
#X connect 59 0 5 1;
#X connect 60 0 31 0;
#X connect 61 0 9 1;
#X connect 62 0 7 0;
#X connect 64 0 2 1;
#X connect 65 0 61 0;
