#N canvas 164 22 908 650 10;
#X obj 494 272 dirac~;
#X obj 499 228 bng 15 250 50 0 empty empty empty 17 7 0 10 -262144
-1 -1;
#X obj 492 168 metro 1000;
#X obj 574 272 dirac~;
#X obj 579 228 bng 15 250 50 0 empty empty empty 17 7 0 10 -262144
-1 -1;
#X obj 572 168 metro 500;
#X obj 539 113 tgl 15 0 empty empty empty 17 7 0 10 -262144 -1 -1 0
1;
#X obj 654 270 dirac~;
#X obj 659 226 bng 15 250 50 0 empty empty empty 17 7 0 10 -262144
-1 -1;
#X obj 652 166 metro 1000;
#X obj 734 270 dirac~;
#X obj 739 226 bng 15 250 50 0 empty empty empty 17 7 0 10 -262144
-1 -1;
#X obj 732 166 metro 500;
#X floatatom 740 49 5 0 0 0 - - -;
#X floatatom 799 96 5 0 0 0 - - -;
#X obj 734 393 lop~;
#X obj 733 429 dac~ 1;
#X floatatom 762 351 5 0 0 0 - - -;
#X obj 244 242 osc~;
#X obj 136 104 metro 1000;
#X obj 136 80 tgl 15 0 empty empty empty 17 7 0 10 -262144 -1 -1 1
1;
#X text 190 81 convert bpm to ms.;
#X obj 136 130 bng 15 250 50 0 empty empty empty 17 7 0 10 -262144
-1 -1;
#X connect 1 0 0 0;
#X connect 2 0 1 0;
#X connect 4 0 3 0;
#X connect 5 0 4 0;
#X connect 6 0 2 0;
#X connect 6 0 5 0;
#X connect 6 0 9 0;
#X connect 6 0 12 0;
#X connect 8 0 7 0;
#X connect 9 0 8 0;
#X connect 11 0 10 0;
#X connect 12 0 11 0;
#X connect 13 0 9 1;
#X connect 14 0 12 1;
#X connect 15 0 16 0;
#X connect 17 0 15 1;
#X connect 19 0 22 0;
#X connect 20 0 19 0;
