#N canvas 582 40 816 693 12;
#X text 55 82 digital to analog converter (salida);
#X obj 17 86 dac~;
#X obj 17 26 adc~;
#X text 64 30 analog-to-digital converter (entrada);
#X text 17 120 audio rate = Sample rate;
#X text 17 140 control rate = 1 Khz = 1000 hz = 1 ms.;
#X obj 20 239 bng 15 250 50 0 empty empty empty 17 7 0 10 -262144 -1
-1;
#X obj 20 289 bng 15 250 50 0 empty empty empty 17 7 0 10 -262144 -1
-1;
#N canvas 754 22 450 300 procesos 1;
#X obj 50 45 inlet~;
#X obj 50 74 outlet~;
#X obj 110 45 inlet;
#X obj 110 74 outlet;
#X connect 0 0 1 0;
#X connect 2 0 3 0;
#X restore 17 55 pd procesos;
#X text 67 262 la unidad de tiempo estándar en pd es el milisegundo.
;
#X obj 18 166 osc~ 1;
#X text 75 166 1 hz = 1 cps;
#X text 15 190 unidades de tiempo: hz \, segundo \, milisegundo \,
samples (unidades numéricas mínimas);
#X floatatom 52 231 5 0 0 0 - - -;
#X obj 20 262 delay;
#X obj 30 340 adc~;
#X obj 33 436 delread~ memoriaTemporal 1000;
#X floatatom 33 406 5 0 0 0 - - -;
#X obj 24 471 dac~;
#X obj 30 374 delwrite~ memoriaTemporal 5000;
#X connect 2 0 8 0;
#X connect 6 0 14 0;
#X connect 8 0 1 0;
#X connect 13 0 14 1;
#X connect 14 0 7 0;
#X connect 15 0 19 0;
#X connect 16 0 18 0;
#X connect 16 0 18 1;
#X connect 17 0 16 0;
